<?xml version="1.0" encoding="utf-8" standalone="no"?>
<!DOCTYPE svg PUBLIC "-//W3C//DTD SVG 1.1//EN"
  "http://www.w3.org/Graphics/SVG/1.1/DTD/svg11.dtd">
<svg xmlns:xlink="http://www.w3.org/1999/xlink" width="460.8pt" height="345.6pt" viewBox="0 0 460.8 345.6" xmlns="http://www.w3.org/2000/svg" version="1.1">
 <metadata>
  <rdf:RDF xmlns:dc="http://purl.org/dc/elements/1.1/" xmlns:cc="http://creativecommons.org/ns#" xmlns:rdf="http://www.w3.org/1999/02/22-rdf-syntax-ns#">
   <cc:Work>
    <dc:type rdf:resource="http://purl.org/dc/dcmitype/StillImage"/>
    <dc:date>2026-03-17T23:28:47.963096</dc:date>
    <dc:format>image/svg+xml</dc:format>
    <dc:creator>
     <cc:Agent>
      <dc:title>Matplotlib v3.10.8, https://matplotlib.org/</dc:title>
     </cc:Agent>
    </dc:creator>
   </cc:Work>
  </rdf:RDF>
 </metadata>
 <defs>
  <style type="text/css">*{stroke-linejoin: round; stroke-linecap: butt}</style>
 </defs>
 <g id="figure_1">
  <g id="patch_1">
   <path d="M 0 345.6 
L 460.8 345.6 
L 460.8 0 
L 0 0 
z
" style="fill: #ffffff"/>
  </g>
  <g id="axes_1">
   <g id="patch_2">
    <path d="M 57.6 307.584 
L 414.72 307.584 
L 414.72 41.472 
L 57.6 41.472 
z
" style="fill: #ffffff"/>
   </g>
   <g id="matplotlib.axis_1">
    <g id="xtick_1">
     <g id="line2d_1">
      <defs>
       <path id="ma835149df1" d="M 0 0 
L 0 3.5 
" style="stroke: #000000; stroke-width: 0.8"/>
      </defs>
      <g>
       <use xlink:href="#ma835149df1" x="73.832727" y="307.584" style="stroke: #000000; stroke-width: 0.8"/>
      </g>
     </g>
     <g id="text_1">
      <!-- 0 -->
      <g transform="translate(70.651477 322.182437) scale(0.1 -0.1)">
       <defs>
        <path id="DejaVuSans-30" d="M 2034 4250 
Q 1547 4250 1301 3770 
Q 1056 3291 1056 2328 
Q 1056 1369 1301 889 
Q 1547 409 2034 409 
Q 2525 409 2770 889 
Q 3016 1369 3016 2328 
Q 3016 3291 2770 3770 
Q 2525 4250 2034 4250 
z
M 2034 4750 
Q 2819 4750 3233 4129 
Q 3647 3509 3647 2328 
Q 3647 1150 3233 529 
Q 2819 -91 2034 -91 
Q 1250 -91 836 529 
Q 422 1150 422 2328 
Q 422 3509 836 4129 
Q 1250 4750 2034 4750 
z
" transform="scale(0.015625)"/>
       </defs>
       <use xlink:href="#DejaVuSans-30"/>
      </g>
     </g>
    </g>
    <g id="xtick_2">
     <g id="line2d_2">
      <g>
       <use xlink:href="#ma835149df1" x="127.941818" y="307.584" style="stroke: #000000; stroke-width: 0.8"/>
      </g>
     </g>
     <g id="text_2">
      <!-- 50 -->
      <g transform="translate(121.579318 322.182437) scale(0.1 -0.1)">
       <defs>
        <path id="DejaVuSans-35" d="M 691 4666 
L 3169 4666 
L 3169 4134 
L 1269 4134 
L 1269 2991 
Q 1406 3038 1543 3061 
Q 1681 3084 1819 3084 
Q 2600 3084 3056 2656 
Q 3513 2228 3513 1497 
Q 3513 744 3044 326 
Q 2575 -91 1722 -91 
Q 1428 -91 1123 -41 
Q 819 9 494 109 
L 494 744 
Q 775 591 1075 516 
Q 1375 441 1709 441 
Q 2250 441 2565 725 
Q 2881 1009 2881 1497 
Q 2881 1984 2565 2268 
Q 2250 2553 1709 2553 
Q 1456 2553 1204 2497 
Q 953 2441 691 2322 
L 691 4666 
z
" transform="scale(0.015625)"/>
       </defs>
       <use xlink:href="#DejaVuSans-35"/>
       <use xlink:href="#DejaVuSans-30" transform="translate(63.623047 0)"/>
      </g>
     </g>
    </g>
    <g id="xtick_3">
     <g id="line2d_3">
      <g>
       <use xlink:href="#ma835149df1" x="182.050909" y="307.584" style="stroke: #000000; stroke-width: 0.8"/>
      </g>
     </g>
     <g id="text_3">
      <!-- 100 -->
      <g transform="translate(172.507159 322.182437) scale(0.1 -0.1)">
       <defs>
        <path id="DejaVuSans-31" d="M 794 531 
L 1825 531 
L 1825 4091 
L 703 3866 
L 703 4441 
L 1819 4666 
L 2450 4666 
L 2450 531 
L 3481 531 
L 3481 0 
L 794 0 
L 794 531 
z
" transform="scale(0.015625)"/>
       </defs>
       <use xlink:href="#DejaVuSans-31"/>
       <use xlink:href="#DejaVuSans-30" transform="translate(63.623047 0)"/>
       <use xlink:href="#DejaVuSans-30" transform="translate(127.246094 0)"/>
      </g>
     </g>
    </g>
    <g id="xtick_4">
     <g id="line2d_4">
      <g>
       <use xlink:href="#ma835149df1" x="236.16" y="307.584" style="stroke: #000000; stroke-width: 0.8"/>
      </g>
     </g>
     <g id="text_4">
      <!-- 150 -->
      <g transform="translate(226.61625 322.182437) scale(0.1 -0.1)">
       <use xlink:href="#DejaVuSans-31"/>
       <use xlink:href="#DejaVuSans-35" transform="translate(63.623047 0)"/>
       <use xlink:href="#DejaVuSans-30" transform="translate(127.246094 0)"/>
      </g>
     </g>
    </g>
    <g id="xtick_5">
     <g id="line2d_5">
      <g>
       <use xlink:href="#ma835149df1" x="290.269091" y="307.584" style="stroke: #000000; stroke-width: 0.8"/>
      </g>
     </g>
     <g id="text_5">
      <!-- 200 -->
      <g transform="translate(280.725341 322.182437) scale(0.1 -0.1)">
       <defs>
        <path id="DejaVuSans-32" d="M 1228 531 
L 3431 531 
L 3431 0 
L 469 0 
L 469 531 
Q 828 903 1448 1529 
Q 2069 2156 2228 2338 
Q 2531 2678 2651 2914 
Q 2772 3150 2772 3378 
Q 2772 3750 2511 3984 
Q 2250 4219 1831 4219 
Q 1534 4219 1204 4116 
Q 875 4013 500 3803 
L 500 4441 
Q 881 4594 1212 4672 
Q 1544 4750 1819 4750 
Q 2544 4750 2975 4387 
Q 3406 4025 3406 3419 
Q 3406 3131 3298 2873 
Q 3191 2616 2906 2266 
Q 2828 2175 2409 1742 
Q 1991 1309 1228 531 
z
" transform="scale(0.015625)"/>
       </defs>
       <use xlink:href="#DejaVuSans-32"/>
       <use xlink:href="#DejaVuSans-30" transform="translate(63.623047 0)"/>
       <use xlink:href="#DejaVuSans-30" transform="translate(127.246094 0)"/>
      </g>
     </g>
    </g>
    <g id="xtick_6">
     <g id="line2d_6">
      <g>
       <use xlink:href="#ma835149df1" x="344.378182" y="307.584" style="stroke: #000000; stroke-width: 0.8"/>
      </g>
     </g>
     <g id="text_6">
      <!-- 250 -->
      <g transform="translate(334.834432 322.182437) scale(0.1 -0.1)">
       <use xlink:href="#DejaVuSans-32"/>
       <use xlink:href="#DejaVuSans-35" transform="translate(63.623047 0)"/>
       <use xlink:href="#DejaVuSans-30" transform="translate(127.246094 0)"/>
      </g>
     </g>
    </g>
    <g id="xtick_7">
     <g id="line2d_7">
      <g>
       <use xlink:href="#ma835149df1" x="398.487273" y="307.584" style="stroke: #000000; stroke-width: 0.8"/>
      </g>
     </g>
     <g id="text_7">
      <!-- 300 -->
      <g transform="translate(388.943523 322.182437) scale(0.1 -0.1)">
       <defs>
        <path id="DejaVuSans-33" d="M 2597 2516 
Q 3050 2419 3304 2112 
Q 3559 1806 3559 1356 
Q 3559 666 3084 287 
Q 2609 -91 1734 -91 
Q 1441 -91 1130 -33 
Q 819 25 488 141 
L 488 750 
Q 750 597 1062 519 
Q 1375 441 1716 441 
Q 2309 441 2620 675 
Q 2931 909 2931 1356 
Q 2931 1769 2642 2001 
Q 2353 2234 1838 2234 
L 1294 2234 
L 1294 2753 
L 1863 2753 
Q 2328 2753 2575 2939 
Q 2822 3125 2822 3475 
Q 2822 3834 2567 4026 
Q 2313 4219 1838 4219 
Q 1578 4219 1281 4162 
Q 984 4106 628 3988 
L 628 4550 
Q 988 4650 1302 4700 
Q 1616 4750 1894 4750 
Q 2613 4750 3031 4423 
Q 3450 4097 3450 3541 
Q 3450 3153 3228 2886 
Q 3006 2619 2597 2516 
z
" transform="scale(0.015625)"/>
       </defs>
       <use xlink:href="#DejaVuSans-33"/>
       <use xlink:href="#DejaVuSans-30" transform="translate(63.623047 0)"/>
       <use xlink:href="#DejaVuSans-30" transform="translate(127.246094 0)"/>
      </g>
     </g>
    </g>
   </g>
   <g id="matplotlib.axis_2">
    <g id="ytick_1">
     <g id="line2d_8">
      <defs>
       <path id="m143867f8aa" d="M 0 0 
L -3.5 0 
" style="stroke: #000000; stroke-width: 0.8"/>
      </defs>
      <g>
       <use xlink:href="#m143867f8aa" x="57.6" y="295.488" style="stroke: #000000; stroke-width: 0.8"/>
      </g>
     </g>
     <g id="text_8">
      <!-- 0.0 -->
      <g transform="translate(34.696875 299.287219) scale(0.1 -0.1)">
       <defs>
        <path id="DejaVuSans-2e" d="M 684 794 
L 1344 794 
L 1344 0 
L 684 0 
L 684 794 
z
" transform="scale(0.015625)"/>
       </defs>
       <use xlink:href="#DejaVuSans-30"/>
       <use xlink:href="#DejaVuSans-2e" transform="translate(63.623047 0)"/>
       <use xlink:href="#DejaVuSans-30" transform="translate(95.410156 0)"/>
      </g>
     </g>
    </g>
    <g id="ytick_2">
     <g id="line2d_9">
      <g>
       <use xlink:href="#m143867f8aa" x="57.6" y="247.104" style="stroke: #000000; stroke-width: 0.8"/>
      </g>
     </g>
     <g id="text_9">
      <!-- 0.2 -->
      <g transform="translate(34.696875 250.903219) scale(0.1 -0.1)">
       <use xlink:href="#DejaVuSans-30"/>
       <use xlink:href="#DejaVuSans-2e" transform="translate(63.623047 0)"/>
       <use xlink:href="#DejaVuSans-32" transform="translate(95.410156 0)"/>
      </g>
     </g>
    </g>
    <g id="ytick_3">
     <g id="line2d_10">
      <g>
       <use xlink:href="#m143867f8aa" x="57.6" y="198.72" style="stroke: #000000; stroke-width: 0.8"/>
      </g>
     </g>
     <g id="text_10">
      <!-- 0.4 -->
      <g transform="translate(34.696875 202.519219) scale(0.1 -0.1)">
       <defs>
        <path id="DejaVuSans-34" d="M 2419 4116 
L 825 1625 
L 2419 1625 
L 2419 4116 
z
M 2253 4666 
L 3047 4666 
L 3047 1625 
L 3713 1625 
L 3713 1100 
L 3047 1100 
L 3047 0 
L 2419 0 
L 2419 1100 
L 313 1100 
L 313 1709 
L 2253 4666 
z
" transform="scale(0.015625)"/>
       </defs>
       <use xlink:href="#DejaVuSans-30"/>
       <use xlink:href="#DejaVuSans-2e" transform="translate(63.623047 0)"/>
       <use xlink:href="#DejaVuSans-34" transform="translate(95.410156 0)"/>
      </g>
     </g>
    </g>
    <g id="ytick_4">
     <g id="line2d_11">
      <g>
       <use xlink:href="#m143867f8aa" x="57.6" y="150.336" style="stroke: #000000; stroke-width: 0.8"/>
      </g>
     </g>
     <g id="text_11">
      <!-- 0.6 -->
      <g transform="translate(34.696875 154.135219) scale(0.1 -0.1)">
       <defs>
        <path id="DejaVuSans-36" d="M 2113 2584 
Q 1688 2584 1439 2293 
Q 1191 2003 1191 1497 
Q 1191 994 1439 701 
Q 1688 409 2113 409 
Q 2538 409 2786 701 
Q 3034 994 3034 1497 
Q 3034 2003 2786 2293 
Q 2538 2584 2113 2584 
z
M 3366 4563 
L 3366 3988 
Q 3128 4100 2886 4159 
Q 2644 4219 2406 4219 
Q 1781 4219 1451 3797 
Q 1122 3375 1075 2522 
Q 1259 2794 1537 2939 
Q 1816 3084 2150 3084 
Q 2853 3084 3261 2657 
Q 3669 2231 3669 1497 
Q 3669 778 3244 343 
Q 2819 -91 2113 -91 
Q 1303 -91 875 529 
Q 447 1150 447 2328 
Q 447 3434 972 4092 
Q 1497 4750 2381 4750 
Q 2619 4750 2861 4703 
Q 3103 4656 3366 4563 
z
" transform="scale(0.015625)"/>
       </defs>
       <use xlink:href="#DejaVuSans-30"/>
       <use xlink:href="#DejaVuSans-2e" transform="translate(63.623047 0)"/>
       <use xlink:href="#DejaVuSans-36" transform="translate(95.410156 0)"/>
      </g>
     </g>
    </g>
    <g id="ytick_5">
     <g id="line2d_12">
      <g>
       <use xlink:href="#m143867f8aa" x="57.6" y="101.952" style="stroke: #000000; stroke-width: 0.8"/>
      </g>
     </g>
     <g id="text_12">
      <!-- 0.8 -->
      <g transform="translate(34.696875 105.751219) scale(0.1 -0.1)">
       <defs>
        <path id="DejaVuSans-38" d="M 2034 2216 
Q 1584 2216 1326 1975 
Q 1069 1734 1069 1313 
Q 1069 891 1326 650 
Q 1584 409 2034 409 
Q 2484 409 2743 651 
Q 3003 894 3003 1313 
Q 3003 1734 2745 1975 
Q 2488 2216 2034 2216 
z
M 1403 2484 
Q 997 2584 770 2862 
Q 544 3141 544 3541 
Q 544 4100 942 4425 
Q 1341 4750 2034 4750 
Q 2731 4750 3128 4425 
Q 3525 4100 3525 3541 
Q 3525 3141 3298 2862 
Q 3072 2584 2669 2484 
Q 3125 2378 3379 2068 
Q 3634 1759 3634 1313 
Q 3634 634 3220 271 
Q 2806 -91 2034 -91 
Q 1263 -91 848 271 
Q 434 634 434 1313 
Q 434 1759 690 2068 
Q 947 2378 1403 2484 
z
M 1172 3481 
Q 1172 3119 1398 2916 
Q 1625 2713 2034 2713 
Q 2441 2713 2670 2916 
Q 2900 3119 2900 3481 
Q 2900 3844 2670 4047 
Q 2441 4250 2034 4250 
Q 1625 4250 1398 4047 
Q 1172 3844 1172 3481 
z
" transform="scale(0.015625)"/>
       </defs>
       <use xlink:href="#DejaVuSans-30"/>
       <use xlink:href="#DejaVuSans-2e" transform="translate(63.623047 0)"/>
       <use xlink:href="#DejaVuSans-38" transform="translate(95.410156 0)"/>
      </g>
     </g>
    </g>
    <g id="ytick_6">
     <g id="line2d_13">
      <g>
       <use xlink:href="#m143867f8aa" x="57.6" y="53.568" style="stroke: #000000; stroke-width: 0.8"/>
      </g>
     </g>
     <g id="text_13">
      <!-- 1.0 -->
      <g transform="translate(34.696875 57.367219) scale(0.1 -0.1)">
       <use xlink:href="#DejaVuSans-31"/>
       <use xlink:href="#DejaVuSans-2e" transform="translate(63.623047 0)"/>
       <use xlink:href="#DejaVuSans-30" transform="translate(95.410156 0)"/>
      </g>
     </g>
    </g>
   </g>
   <g id="line2d_14">
    <path d="M 73.832727 182.624256 
L 74.914909 121.079812 
L 75.997091 116.047877 
L 78.161455 116.047877 
L 79.243636 112.983563 
L 80.325818 109.403144 
L 81.408 102.919693 
L 82.490182 100.177916 
L 83.572364 100.2747 
L 84.654545 97.823231 
L 85.736727 94.855687 
L 86.818909 93.533197 
L 87.901091 90.888189 
L 88.983273 91.726845 
L 90.065455 89.404403 
L 91.147636 83.533827 
L 92.229818 87.082003 
L 93.312 86.662654 
L 94.394182 82.727427 
L 95.476364 81.792002 
L 96.558545 82.37262 
L 97.640727 80.050177 
L 98.722909 81.566206 
L 99.805091 86.469115 
L 100.887273 81.53395 
L 101.969455 81.630719 
L 103.051636 83.533841 
L 104.133818 84.307984 
L 105.216 81.05013 
L 106.298182 80.340472 
L 107.380364 82.662929 
L 108.462545 84.598278 
L 109.544727 81.017845 
L 110.626909 79.437303 
L 111.709091 81.727503 
L 112.791273 79.340548 
L 113.873455 80.146961 
L 114.955636 80.695308 
L 117.12 72.050684 
L 118.202182 71.824917 
L 119.284364 76.114951 
L 120.366545 76.631027 
L 121.448727 77.340685 
L 122.530909 76.340747 
L 123.613091 76.30849 
L 124.695273 75.631103 
L 125.777455 79.501816 
L 126.859636 75.534333 
L 127.941818 74.405368 
L 129.024 74.082803 
L 130.106182 75.405321 
L 131.188364 83.985418 
L 132.270545 87.759348 
L 133.352727 80.663037 
L 134.434909 78.630889 
L 135.517091 74.14733 
L 136.599273 72.276479 
L 137.681455 73.792523 
L 138.763636 76.69554 
L 139.845818 75.340794 
L 140.928 69.244407 
L 143.092364 70.792707 
L 144.174545 70.179833 
L 145.256727 71.276555 
L 146.338909 71.115258 
L 147.421091 68.696075 
L 148.503273 68.244483 
L 150.667636 72.986109 
L 151.749818 69.663757 
L 152.832 69.696013 
L 153.914182 68.760588 
L 156.078545 66.438131 
L 157.160727 67.986431 
L 158.242909 67.663894 
L 159.325091 68.599291 
L 160.407273 67.696136 
L 161.489455 65.696259 
L 162.571636 65.59949 
L 163.653818 66.341376 
L 164.736 67.470341 
L 165.818182 68.405766 
L 166.900364 69.018612 
L 167.982545 69.405705 
L 169.064727 66.696184 
L 170.146909 65.212426 
L 171.229091 66.373632 
L 172.311273 66.147851 
L 173.393455 68.115457 
L 174.475636 68.567034 
L 175.557818 67.825163 
L 176.64 65.567233 
L 178.804364 70.276602 
L 179.886545 69.147652 
L 180.968727 67.405842 
L 182.050909 64.98663 
L 183.133091 65.341466 
L 184.215273 65.825271 
L 185.297455 66.11558 
L 186.379636 64.083461 
L 188.544 62.535161 
L 189.626182 63.760896 
L 190.708364 62.438406 
L 191.790545 63.470587 
L 192.872727 63.083522 
L 193.954909 64.051204 
L 195.037091 64.051204 
L 196.119273 62.760957 
L 198.283636 61.922316 
L 199.365818 64.018948 
L 200.448 63.406088 
L 201.530182 63.43833 
L 202.612364 64.14796 
L 203.694545 62.82547 
L 204.776727 65.534991 
L 208.023273 62.019056 
L 209.105455 63.24482 
L 210.187636 65.341437 
L 211.269818 63.373831 
L 212.352 63.309304 
L 213.434182 61.9868 
L 214.516364 61.502981 
L 215.598545 60.567555 
L 217.762909 61.438467 
L 218.845091 61.148159 
L 219.927273 61.793289 
L 221.009455 62.728686 
L 223.173818 61.406196 
L 224.256 61.115916 
L 225.338182 61.244928 
L 226.420364 60.180491 
L 227.502545 61.180415 
L 228.584727 60.664339 
L 229.666909 60.922392 
L 230.749091 60.76108 
L 231.831273 61.051403 
L 232.913455 61.502981 
L 233.995636 61.277185 
L 235.077818 60.857864 
L 236.16 60.696596 
L 237.242182 60.24499 
L 238.324364 60.470785 
L 239.406545 59.922439 
L 240.488727 60.632054 
L 241.570909 60.66431 
L 242.653091 60.406258 
L 243.735273 60.341774 
L 245.899636 58.277384 
L 246.981818 58.761203 
L 248.064 58.341911 
L 249.146182 58.341911 
L 250.228364 58.470923 
L 251.310545 58.9225 
L 252.392727 58.341882 
L 253.474909 58.470923 
L 254.557091 58.212871 
L 255.639273 58.245127 
L 256.721455 57.729022 
L 257.803636 57.761279 
L 258.885818 57.987075 
L 259.968 57.374215 
L 261.050182 57.309702 
L 262.132364 56.729084 
L 263.214545 57.374215 
L 264.296727 57.083906 
L 266.461091 57.954818 
L 267.543273 58.277355 
L 268.625455 57.858063 
L 269.707636 58.019331 
L 270.789818 57.47097 
L 271.872 57.341958 
L 274.036364 57.406457 
L 275.118545 57.083906 
L 276.200727 57.374215 
L 277.282909 57.116162 
L 278.365091 57.083906 
L 279.447273 57.18069 
L 281.611636 56.567816 
L 282.693818 56.051711 
L 283.776 56.180737 
L 284.858182 55.922699 
L 285.940364 56.245236 
L 287.022545 56.76134 
L 288.104727 56.567816 
L 289.186909 56.116224 
L 290.269091 55.858172 
L 291.351273 55.72916 
L 292.433455 55.761416 
L 293.515636 55.987212 
L 295.68 55.696903 
L 296.762182 56.277521 
L 297.844364 55.922699 
L 298.926545 55.761416 
L 300.008727 55.922699 
L 301.090909 55.664647 
L 302.173091 55.696903 
L 305.419636 55.148542 
L 306.501818 55.438851 
L 307.584 55.438851 
L 308.666182 55.116285 
L 310.830545 55.019501 
L 311.912727 55.277583 
L 312.994909 55.374338 
L 314.077091 54.761478 
L 315.159273 55.148542 
L 318.405818 55.148542 
L 321.652364 54.858233 
L 323.816727 55.148542 
L 324.898909 54.89049 
L 325.981091 55.084043 
L 330.309818 55.180798 
L 331.392 55.051787 
L 334.638545 55.277554 
L 336.802909 54.955003 
L 337.885091 55.148542 
L 341.131636 54.987274 
L 342.213818 54.761478 
L 343.296 55.01953 
L 344.378182 54.825991 
L 345.460364 54.922746 
L 346.542545 54.793734 
L 348.706909 54.89049 
L 350.871273 54.987274 
L 351.953455 54.696965 
L 353.035636 54.696965 
L 354.117818 54.955003 
L 355.2 55.084043 
L 356.282182 54.825991 
L 358.446545 54.696965 
L 359.528727 54.858233 
L 360.610909 54.729221 
L 361.693091 54.922775 
L 362.775273 54.987274 
L 363.857455 54.696965 
L 366.021818 54.664723 
L 367.104 54.825991 
L 368.186182 54.858233 
L 369.268364 54.535696 
L 372.514909 54.664723 
L 373.597091 54.632466 
L 374.679273 54.761478 
L 375.761455 54.567953 
L 376.843636 54.696965 
L 377.925818 54.567939 
L 381.172364 54.729221 
L 382.254545 55.019501 
L 383.336727 54.600181 
L 384.418909 54.793734 
L 385.501091 54.567939 
L 386.583273 54.535682 
L 388.747636 54.825991 
L 389.829818 54.374414 
L 390.912 54.729221 
L 391.994182 54.567939 
L 393.076364 54.729221 
L 394.158545 54.632466 
L 395.240727 54.89049 
L 397.405091 54.761478 
L 398.487273 54.858233 
L 398.487273 54.858233 
" clip-path="url(#p18f650597e)" style="fill: none; stroke: #1f77b4; stroke-width: 1.5; stroke-linecap: square"/>
   </g>
   <g id="line2d_15">
    <path d="M 73.832727 198.719999 
L 74.914909 65.604018 
L 75.997091 53.568 
L 78.161455 53.568 
L 79.243636 54.839661 
L 80.325818 58.044176 
L 81.408 60.440288 
L 82.490182 62.021868 
L 83.572364 66.546379 
L 84.654545 67.034409 
L 85.736727 64.443849 
L 86.818909 63.63174 
L 87.901091 68.560373 
L 88.983273 69.240471 
L 90.065455 73.054472 
L 91.147636 68.0477 
L 92.229818 69.56047 
L 93.312 69.391602 
L 94.394182 67.576613 
L 95.476364 69.19926 
L 96.558545 68.514187 
L 97.640727 66.446321 
L 98.722909 67.899467 
L 99.805091 69.928168 
L 100.887273 64.287887 
L 101.969455 70.092508 
L 103.051636 70.130878 
L 104.133818 67.315028 
L 105.216 69.100659 
L 106.298182 66.737366 
L 107.380364 65.887376 
L 108.462545 70.980363 
L 109.544727 65.65848 
L 110.626909 66.37692 
L 111.709091 71.443519 
L 112.791273 67.017567 
L 113.873455 66.915015 
L 114.955636 67.543895 
L 116.037818 63.847946 
L 117.12 62.218277 
L 118.202182 63.531077 
L 119.284364 65.86145 
L 120.366545 66.032004 
L 121.448727 64.594144 
L 122.530909 63.905437 
L 123.613091 64.063865 
L 124.695273 66.912506 
L 125.777455 64.079423 
L 126.859636 65.953591 
L 127.941818 62.133533 
L 129.024 64.239769 
L 130.106182 66.981301 
L 131.188364 71.976956 
L 132.270545 78.034266 
L 133.352727 66.131168 
L 134.434909 65.600052 
L 135.517091 65.739633 
L 137.681455 63.610543 
L 138.763636 67.025108 
L 139.845818 67.457983 
L 140.928 60.109057 
L 142.010182 60.986414 
L 143.092364 61.16526 
L 144.174545 63.027502 
L 145.256727 63.537609 
L 146.338909 66.130245 
L 147.421091 60.284283 
L 148.503273 61.00206 
L 149.585455 61.506513 
L 150.667636 66.974467 
L 151.749818 62.063339 
L 152.832 60.889789 
L 153.914182 60.152084 
L 154.996364 60.596942 
L 156.078545 58.979227 
L 157.160727 63.322051 
L 158.242909 60.570165 
L 159.325091 60.583244 
L 160.407273 59.593384 
L 161.489455 59.40195 
L 162.571636 61.381049 
L 163.653818 60.602393 
L 164.736 61.842604 
L 165.818182 61.962344 
L 166.900364 62.722961 
L 167.982545 65.696807 
L 169.064727 61.418381 
L 170.146909 59.877003 
L 171.229091 61.834241 
L 172.311273 61.385735 
L 173.393455 60.741873 
L 174.475636 61.524437 
L 175.557818 61.005102 
L 176.64 60.616192 
L 177.722182 58.679487 
L 178.804364 65.597947 
L 179.886545 63.7214 
L 180.968727 59.896339 
L 182.050909 59.244503 
L 184.215273 59.421157 
L 185.297455 59.825582 
L 186.379636 59.468093 
L 187.461818 57.397531 
L 188.544 57.431403 
L 189.626182 59.37562 
L 190.708364 57.942057 
L 191.790545 60.86963 
L 192.872727 59.092622 
L 193.954909 59.500162 
L 195.037091 60.507123 
L 197.201455 57.169544 
L 198.283636 59.691538 
L 199.365818 60.344239 
L 200.448 58.548399 
L 201.530182 59.520018 
L 202.612364 56.594146 
L 203.694545 58.523756 
L 204.776727 61.860239 
L 205.858909 60.597851 
L 206.941091 60.90144 
L 208.023273 58.944447 
L 209.105455 59.064922 
L 210.187636 61.895005 
L 211.269818 60.649271 
L 212.352 60.034652 
L 214.516364 58.610187 
L 215.598545 57.408764 
L 216.680727 57.838928 
L 217.762909 59.115679 
L 218.845091 57.786672 
L 219.927273 59.425368 
L 221.009455 59.786866 
L 222.091636 58.553619 
L 223.173818 56.773381 
L 224.256 59.533687 
L 225.338182 59.099183 
L 226.420364 57.386154 
L 227.502545 57.840428 
L 228.584727 57.941999 
L 229.666909 59.13937 
L 230.749091 59.042355 
L 231.831273 58.635032 
L 232.913455 57.20591 
L 233.995636 58.123354 
L 235.077818 58.014385 
L 237.242182 58.478032 
L 238.324364 58.374254 
L 239.406545 56.186707 
L 240.488727 57.45717 
L 241.570909 58.385602 
L 242.653091 58.725169 
L 243.735273 58.086858 
L 244.817455 56.657447 
L 245.899636 55.635923 
L 246.981818 56.138906 
L 248.064 56.339713 
L 249.146182 56.141184 
L 251.310545 57.453984 
L 252.392727 55.841488 
L 253.474909 55.797927 
L 254.557091 56.204673 
L 257.803636 55.876946 
L 258.885818 56.41804 
L 261.050182 56.246029 
L 262.132364 55.704199 
L 263.214545 55.326234 
L 264.296727 55.555779 
L 265.378909 56.591651 
L 266.461091 56.942666 
L 267.543273 56.228725 
L 268.625455 55.70345 
L 269.707636 56.29321 
L 270.789818 55.815908 
L 271.872 55.610876 
L 272.954182 55.828438 
L 274.036364 55.272435 
L 275.118545 54.844693 
L 276.200727 54.841968 
L 277.282909 55.604503 
L 278.365091 55.592087 
L 279.447273 55.957695 
L 280.529455 55.720623 
L 281.611636 55.298534 
L 287.022545 55.38397 
L 288.104727 55.083366 
L 289.186909 55.129032 
L 291.351273 54.696619 
L 292.433455 54.98289 
L 293.515636 55.016617 
L 294.597818 54.924318 
L 295.68 54.693677 
L 297.844364 54.815306 
L 298.926545 55.117093 
L 301.090909 54.687462 
L 302.173091 54.920367 
L 303.255273 54.606367 
L 306.501818 54.571096 
L 307.584 54.70602 
L 309.748364 54.452121 
L 310.830545 54.568876 
L 311.912727 54.483498 
L 312.994909 54.598868 
L 314.077091 54.093247 
L 315.159273 54.431746 
L 316.241455 54.651918 
L 317.323636 54.751168 
L 318.405818 54.385791 
L 319.488 54.571832 
L 321.652364 54.395077 
L 322.734545 54.352496 
L 323.816727 54.571832 
L 324.898909 54.179043 
L 325.981091 54.783396 
L 327.063273 54.696561 
L 329.227636 54.863064 
L 330.309818 54.56517 
L 331.392 54.138856 
L 332.474182 54.445603 
L 335.720727 54.583829 
L 336.802909 54.453865 
L 344.378182 54.576143 
L 346.542545 54.499821 
L 349.789091 54.490592 
L 350.871273 54.569438 
L 351.953455 54.397788 
L 355.2 54.652971 
L 358.446545 54.578032 
L 359.528727 54.668198 
L 360.610909 54.519186 
L 361.693091 54.665112 
L 362.775273 54.618479 
L 364.939636 54.227868 
L 366.021818 54.21639 
L 367.104 54.566482 
L 368.186182 54.580599 
L 369.268364 54.132872 
L 370.350545 54.444896 
L 371.432727 54.263686 
L 372.514909 54.306699 
L 373.597091 54.218913 
L 374.679273 54.439792 
L 379.008 54.183585 
L 380.090182 54.393808 
L 381.172364 54.39861 
L 382.254545 54.617282 
L 383.336727 54.396346 
L 386.583273 54.224421 
L 387.665455 54.445257 
L 388.747636 54.348545 
L 389.829818 54.091026 
L 390.912 54.355611 
L 391.994182 54.178091 
L 393.076364 54.485689 
L 394.158545 54.357153 
L 395.240727 54.570995 
L 397.405091 54.443901 
L 398.487273 54.480888 
L 398.487273 54.480888 
" clip-path="url(#p18f650597e)" style="fill: none; stroke: #ff7f0e; stroke-width: 1.5; stroke-linecap: square"/>
   </g>
   <g id="line2d_16">
    <path d="M 73.832727 150.335994 
L 74.914909 283.179026 
L 75.997091 295.488 
L 78.161455 295.488 
L 79.243636 280.368341 
L 80.325818 259.316231 
L 81.408 232.040311 
L 82.490182 217.718304 
L 84.654545 192.283505 
L 85.736727 191.119061 
L 86.818909 187.277656 
L 87.901091 161.432549 
L 88.983273 160.096101 
L 90.065455 139.222742 
L 91.147636 130.493042 
L 92.229818 140.454446 
L 93.312 141.080471 
L 94.394182 130.059503 
L 95.476364 120.193297 
L 96.558545 125.49942 
L 97.640727 121.396061 
L 98.722909 122.184883 
L 99.805091 137.104841 
L 100.887273 134.977697 
L 101.969455 117.429674 
L 103.051636 123.848626 
L 104.133818 135.03327 
L 105.216 117.099236 
L 106.298182 120.59096 
L 107.380364 131.920607 
L 108.462545 127.69249 
L 109.544727 126.228747 
L 110.626909 118.272353 
L 111.709091 112.130516 
L 112.791273 117.981496 
L 113.873455 120.208222 
L 114.955636 123.708915 
L 116.037818 114.963512 
L 117.12 102.125277 
L 118.202182 97.210963 
L 119.284364 106.256162 
L 120.366545 110.023675 
L 121.448727 116.109059 
L 122.530909 115.163194 
L 123.613091 113.875398 
L 124.695273 101.745048 
L 125.777455 122.679907 
L 126.859636 105.724384 
L 127.941818 113.002005 
L 129.024 103.495063 
L 130.106182 102.319681 
L 131.188364 119.591137 
L 132.270545 117.152559 
L 133.352727 120.04518 
L 134.434909 113.679609 
L 135.517091 96.91777 
L 136.599273 94.733322 
L 137.681455 102.424814 
L 138.763636 104.028875 
L 139.845818 99.282216 
L 140.928 95.52386 
L 142.010182 96.418723 
L 143.092364 100.34612 
L 144.174545 91.017014 
L 145.256727 93.212593 
L 146.338909 86.13846 
L 147.421091 94.243375 
L 148.503273 88.821232 
L 149.585455 98.117232 
L 150.667636 90.856091 
L 151.749818 91.553681 
L 152.832 96.199214 
L 153.914182 93.932446 
L 154.996364 88.373851 
L 156.078545 88.473404 
L 157.160727 83.620041 
L 158.242909 89.587776 
L 159.325091 93.272564 
L 160.407273 93.171973 
L 161.489455 84.963727 
L 162.571636 78.950484 
L 163.653818 84.024365 
L 164.736 84.59166 
L 165.818182 87.832397 
L 166.900364 87.680747 
L 167.982545 80.803354 
L 169.064727 81.660265 
L 170.146909 80.967492 
L 171.229091 79.742767 
L 172.311273 80.6713 
L 173.393455 90.91537 
L 174.475636 89.031729 
L 175.557818 87.731763 
L 176.64 79.610294 
L 177.722182 97.424675 
L 178.804364 85.40808 
L 179.886545 86.445351 
L 180.968727 90.164111 
L 182.050909 83.540993 
L 183.133091 84.035483 
L 184.215273 86.194422 
L 185.297455 84.558653 
L 186.379636 77.925081 
L 187.461818 81.235811 
L 188.544 77.79904 
L 189.626182 77.32455 
L 190.708364 75.843978 
L 191.790545 71.21334 
L 192.872727 75.351594 
L 193.954909 77.309077 
L 195.037091 73.942342 
L 196.119273 74.724949 
L 197.201455 77.225848 
L 198.283636 68.138514 
L 199.365818 75.361399 
L 200.448 77.919053 
L 201.530182 74.966073 
L 202.612364 88.033925 
L 203.694545 75.893582 
L 204.776727 76.681899 
L 205.858909 75.51292 
L 206.941091 70.172609 
L 208.023273 71.473483 
L 209.105455 76.307596 
L 210.187636 75.322611 
L 211.269818 72.012068 
L 212.352 73.98041 
L 213.434182 70.081088 
L 214.516364 70.843435 
L 215.598545 70.078276 
L 216.680727 70.151787 
L 217.762909 68.378643 
L 218.845091 71.781817 
L 219.927273 70.011211 
L 221.009455 73.291068 
L 222.091636 72.216263 
L 223.173818 74.691178 
L 224.256 66.054672 
L 225.338182 67.623794 
L 226.420364 68.44294 
L 227.502545 71.010327 
L 229.666909 66.321275 
L 230.749091 66.020469 
L 231.831273 68.662304 
L 232.913455 74.24707 
L 233.995636 70.167374 
L 235.077818 69.695783 
L 236.16 68.603285 
L 237.242182 65.747132 
L 238.324364 66.416444 
L 239.406545 71.650209 
L 240.488727 70.48211 
L 241.570909 67.450413 
L 242.653091 65.50967 
L 243.735273 66.607345 
L 244.817455 67.174754 
L 245.899636 65.978739 
L 246.981818 66.8596 
L 248.064 64.474909 
L 249.146182 64.920112 
L 250.228364 63.510644 
L 251.310545 63.434941 
L 252.392727 65.562951 
L 253.474909 66.080065 
L 254.557091 63.871681 
L 255.639273 64.103072 
L 256.721455 62.499285 
L 257.803636 63.034467 
L 258.885818 63.251337 
L 259.968 60.551492 
L 261.050182 60.41305 
L 262.132364 59.673355 
L 263.214545 63.658949 
L 264.296727 61.896807 
L 265.378909 60.659336 
L 266.461091 61.119622 
L 267.543273 64.137794 
L 268.625455 63.845062 
L 269.707636 62.950372 
L 271.872 62.733718 
L 272.954182 62.28602 
L 274.036364 63.866375 
L 275.118545 63.802049 
L 276.200727 64.872384 
L 277.282909 61.621106 
L 278.365091 61.384971 
L 279.447273 60.499841 
L 280.529455 60.203259 
L 281.611636 60.314002 
L 282.693818 58.300801 
L 283.776 59.108959 
L 284.858182 57.665836 
L 287.022545 60.650237 
L 288.104727 60.869371 
L 289.186909 58.941447 
L 290.269091 58.559791 
L 291.351273 58.623871 
L 292.433455 58.270131 
L 293.515636 59.178289 
L 294.597818 58.442963 
L 295.68 58.638767 
L 296.762182 60.633928 
L 298.926545 57.632152 
L 300.008727 58.842068 
L 302.173091 57.979 
L 303.255273 58.246598 
L 304.337455 58.104536 
L 305.419636 57.16666 
L 306.501818 57.978856 
L 307.584 57.602621 
L 308.666182 56.588104 
L 309.748364 56.67863 
L 310.830545 56.37866 
L 311.912727 57.552022 
L 312.994909 57.474229 
L 314.077091 56.784902 
L 315.159273 57.2864 
L 316.241455 56.764368 
L 317.323636 56.788723 
L 318.405818 57.237171 
L 319.488 56.462437 
L 320.570182 56.473555 
L 321.652364 56.257463 
L 322.734545 56.804354 
L 324.898909 56.910525 
L 325.981091 55.994667 
L 327.063273 56.336901 
L 328.145455 56.255387 
L 329.227636 56.027241 
L 331.392 57.736448 
L 332.474182 57.064483 
L 333.556364 57.004512 
L 334.638545 57.4604 
L 335.720727 56.659481 
L 336.802909 56.486951 
L 337.885091 57.133942 
L 340.049455 56.636294 
L 342.213818 55.469045 
L 343.296 56.278732 
L 344.378182 55.609607 
L 345.460364 56.149187 
L 346.542545 55.704935 
L 347.624727 55.646651 
L 349.789091 56.360246 
L 350.871273 56.255113 
L 351.953455 55.575548 
L 353.035636 55.276862 
L 354.117818 55.986606 
L 355.2 56.298675 
L 356.282182 55.372218 
L 357.364364 55.453588 
L 358.446545 55.092176 
L 359.528727 55.469651 
L 360.610909 55.378779 
L 362.775273 56.086419 
L 363.857455 55.603075 
L 364.939636 56.062497 
L 366.021818 55.956729 
L 367.104 55.477986 
L 368.186182 55.653731 
L 369.268364 55.697336 
L 370.350545 55.099314 
L 371.432727 55.709405 
L 372.514909 55.665829 
L 373.597091 55.846218 
L 374.679273 55.724863 
L 375.761455 55.080121 
L 376.843636 55.50384 
L 377.925818 55.319875 
L 379.008 55.740897 
L 380.090182 55.46534 
L 381.172364 55.662094 
L 382.254545 56.203318 
L 383.336727 55.213978 
L 384.418909 56.164933 
L 385.501091 55.449276 
L 387.665455 55.547445 
L 388.747636 56.215849 
L 389.829818 55.252507 
L 390.912 55.795836 
L 391.994182 55.70182 
L 393.076364 55.493458 
L 394.158545 55.484676 
L 395.240727 55.822411 
L 396.322909 55.909 
L 397.405091 55.696745 
L 398.487273 55.971726 
L 398.487273 55.971726 
" clip-path="url(#p18f650597e)" style="fill: none; stroke: #2ca02c; stroke-width: 1.5; stroke-linecap: square"/>
   </g>
   <g id="line2d_17">
    <path d="M 73.832727 198.719999 
L 74.914909 134.207995 
L 77.079273 134.207995 
L 78.161455 136.46591 
L 79.243636 129.530883 
L 80.325818 131.627515 
L 81.408 148.884479 
L 82.490182 147.755528 
L 83.572364 140.820472 
L 84.654545 132.433914 
L 85.736727 141.143037 
L 86.818909 154.851839 
L 87.901091 126.627822 
L 88.983273 147.432934 
L 90.065455 127.756801 
L 91.147636 156.142072 
L 92.229818 135.659511 
L 93.312 158.238718 
L 94.394182 125.176321 
L 95.476364 159.2064 
L 96.558545 127.434236 
L 97.640727 139.85279 
L 98.722909 143.400952 
L 99.805091 149.85216 
L 100.887273 139.530239 
L 101.969455 163.722245 
L 103.051636 139.046391 
L 104.133818 133.240313 
L 105.216 145.175048 
L 106.298182 144.852468 
L 107.380364 145.820164 
L 108.462545 160.496648 
L 109.544727 134.691843 
L 110.626909 141.626885 
L 111.709091 166.786573 
L 112.791273 155.658252 
L 113.873455 157.271051 
L 114.955636 140.659203 
L 116.037818 129.3696 
L 117.12 162.915845 
L 118.202182 130.82113 
L 119.284364 162.431997 
L 120.366545 155.496955 
L 121.448727 137.111027 
L 122.530909 140.820472 
L 123.613091 137.272324 
L 124.695273 159.2064 
L 125.777455 148.561913 
L 126.859636 150.981125 
L 127.941818 148.723196 
L 129.024 150.819842 
L 130.106182 142.43327 
L 131.188364 163.883513 
L 132.270545 146.303998 
L 133.352727 134.853126 
L 134.434909 135.820794 
L 135.517091 132.272646 
L 136.599273 147.110397 
L 137.681455 177.91488 
L 138.763636 135.498228 
L 139.845818 133.401596 
L 140.928 145.82015 
L 142.010182 150.174726 
L 143.092364 147.27168 
L 144.174545 145.981433 
L 145.256727 153.722888 
L 146.338909 132.595197 
L 147.421091 146.949115 
L 148.503273 136.143345 
L 149.585455 152.916475 
L 150.667636 143.562249 
L 151.749818 145.336316 
L 152.832 136.788476 
L 153.914182 136.143345 
L 154.996364 153.722859 
L 156.078545 153.722874 
L 157.160727 153.077743 
L 158.242909 147.110397 
L 159.325091 134.530546 
L 160.407273 146.626549 
L 161.489455 148.723196 
L 162.571636 147.432963 
L 163.653818 149.852146 
L 164.736 142.272002 
L 165.818182 149.852146 
L 166.900364 165.012478 
L 167.982545 158.399987 
L 169.064727 139.207673 
L 170.146909 166.302725 
L 171.229091 147.432948 
L 172.311273 154.851839 
L 173.393455 142.917133 
L 174.475636 146.14273 
L 175.557818 147.110397 
L 176.64 141.949422 
L 177.722182 135.820794 
L 178.804364 155.496955 
L 179.886545 143.723518 
L 180.968727 148.400645 
L 182.050909 142.594553 
L 183.133091 143.723518 
L 184.215273 140.497921 
L 185.297455 133.724147 
L 186.379636 149.852146 
L 187.461818 141.465603 
L 188.544 146.787832 
L 189.626182 143.562235 
L 190.708364 140.820472 
L 191.790545 139.852804 
L 192.872727 139.691507 
L 193.954909 145.658867 
L 196.119273 141.949422 
L 197.201455 147.594245 
L 198.283636 144.6912 
L 199.365818 140.336638 
L 200.448 150.335994 
L 201.530182 142.917118 
L 202.612364 149.207058 
L 203.694545 149.20703 
L 204.776727 143.723518 
L 205.858909 147.110397 
L 206.941091 143.239669 
L 208.023273 135.982076 
L 209.105455 148.239348 
L 210.187636 148.561913 
L 211.269818 158.399987 
L 212.352 145.336316 
L 213.434182 151.626242 
L 214.516364 145.013765 
L 215.598545 140.014073 
L 216.680727 153.561591 
L 217.762909 152.271358 
L 218.845091 144.046069 
L 219.927273 153.884157 
L 221.009455 151.464959 
L 222.091636 142.755836 
L 223.173818 151.464959 
L 224.256 151.948793 
L 225.338182 147.916797 
L 226.420364 150.013429 
L 227.502545 151.626227 
L 228.584727 150.819842 
L 229.666909 145.658867 
L 230.749091 154.045439 
L 231.831273 153.561591 
L 232.913455 141.143037 
L 233.995636 150.335994 
L 235.077818 150.981125 
L 236.16 157.75487 
L 237.242182 150.819828 
L 238.324364 147.110397 
L 239.406545 148.561913 
L 240.488727 149.20703 
L 241.570909 142.594539 
L 242.653091 143.562235 
L 243.735273 144.852468 
L 244.817455 141.788154 
L 245.899636 147.755514 
L 246.981818 148.561927 
L 248.064 146.626549 
L 249.146182 147.594231 
L 250.228364 149.045761 
L 251.310545 143.723518 
L 252.392727 141.626885 
L 253.474909 144.529931 
L 254.557091 146.465281 
L 256.721455 146.465281 
L 257.803636 150.981125 
L 258.885818 148.400645 
L 259.968 147.271666 
L 261.050182 145.820164 
L 262.132364 141.30432 
L 263.214545 143.400952 
L 264.296727 153.722859 
L 265.378909 150.819857 
L 266.461091 148.561913 
L 267.543273 147.432963 
L 268.625455 150.335994 
L 269.707636 158.883849 
L 270.789818 148.723196 
L 271.872 151.78751 
L 272.954182 151.948793 
L 274.036364 147.271666 
L 276.200727 151.78751 
L 277.282909 151.464959 
L 278.365091 150.497277 
L 279.447273 150.65856 
L 280.529455 151.303676 
L 281.611636 151.142393 
L 282.693818 152.593924 
L 283.776 151.626242 
L 284.858182 152.271358 
L 285.940364 150.335994 
L 287.022545 151.142393 
L 288.104727 148.239348 
L 289.186909 148.400645 
L 290.269091 149.368327 
L 291.351273 152.110061 
L 292.433455 151.303676 
L 293.515636 148.561913 
L 294.597818 147.755528 
L 295.68 146.626549 
L 296.762182 147.594231 
L 297.844364 148.400645 
L 300.008727 148.400645 
L 301.090909 149.529595 
L 302.173091 150.497263 
L 305.419636 149.529595 
L 306.501818 147.594231 
L 308.666182 150.65856 
L 309.748364 147.432963 
L 310.830545 146.949115 
L 311.912727 146.14273 
L 312.994909 147.271666 
L 314.077091 145.82015 
L 316.241455 147.110397 
L 317.323636 147.271666 
L 318.405818 148.078065 
L 319.488 149.529595 
L 320.570182 150.174712 
L 321.652364 149.045761 
L 322.734545 149.690878 
L 323.816727 147.755528 
L 324.898909 149.20703 
L 325.981091 149.529595 
L 327.063273 149.529595 
L 328.145455 148.561913 
L 329.227636 148.561913 
L 331.392 147.916797 
L 332.474182 149.529609 
L 333.556364 148.239362 
L 334.638545 149.368327 
L 335.720727 148.884493 
L 336.802909 148.561913 
L 337.885091 149.690878 
L 338.967273 149.852175 
L 340.049455 148.884464 
L 341.131636 149.529609 
L 343.296 148.561927 
L 344.378182 149.368327 
L 345.460364 148.884464 
L 346.542545 149.20703 
L 347.624727 149.20703 
L 348.706909 149.368327 
L 349.789091 149.20703 
L 351.953455 149.20703 
L 353.035636 149.045761 
L 354.117818 149.368312 
L 355.2 149.529595 
L 356.282182 150.013443 
L 357.364364 149.690878 
L 358.446545 150.174712 
L 359.528727 150.335994 
L 360.610909 149.20703 
L 361.693091 149.045761 
L 362.775273 149.368327 
L 363.857455 149.529595 
L 364.939636 149.045761 
L 366.021818 149.690878 
L 367.104 149.368327 
L 368.186182 149.690878 
L 369.268364 149.529595 
L 370.350545 149.045761 
L 371.432727 149.529595 
L 372.514909 149.20703 
L 373.597091 149.852175 
L 374.679273 149.529609 
L 375.761455 150.174726 
L 376.843636 148.884464 
L 377.925818 148.884493 
L 379.008 148.723196 
L 380.090182 149.368327 
L 381.172364 149.207058 
L 382.254545 148.884464 
L 383.336727 149.045761 
L 384.418909 150.013443 
L 385.501091 149.368327 
L 386.583273 149.045761 
L 387.665455 149.690878 
L 388.747636 149.368327 
L 389.829818 149.368327 
L 390.912 148.400645 
L 391.994182 149.529609 
L 393.076364 148.884493 
L 394.158545 149.20703 
L 395.240727 149.045761 
L 396.322909 149.368327 
L 397.405091 149.368327 
L 398.487273 148.884464 
L 398.487273 148.884464 
" clip-path="url(#p18f650597e)" style="fill: none; stroke: #d62728; stroke-width: 1.5; stroke-linecap: square"/>
   </g>
   <g id="patch_3">
    <path d="M 57.6 307.584 
L 57.6 41.472 
" style="fill: none; stroke: #000000; stroke-width: 0.8; stroke-linejoin: miter; stroke-linecap: square"/>
   </g>
   <g id="patch_4">
    <path d="M 414.72 307.584 
L 414.72 41.472 
" style="fill: none; stroke: #000000; stroke-width: 0.8; stroke-linejoin: miter; stroke-linecap: square"/>
   </g>
   <g id="patch_5">
    <path d="M 57.6 307.584 
L 414.72 307.584 
" style="fill: none; stroke: #000000; stroke-width: 0.8; stroke-linejoin: miter; stroke-linecap: square"/>
   </g>
   <g id="patch_6">
    <path d="M 57.6 41.472 
L 414.72 41.472 
" style="fill: none; stroke: #000000; stroke-width: 0.8; stroke-linejoin: miter; stroke-linecap: square"/>
   </g>
   <g id="text_14">
    <!-- blue5 -->
    <g transform="translate(219.372187 35.472) scale(0.12 -0.12)">
     <defs>
      <path id="DejaVuSans-62" d="M 3116 1747 
Q 3116 2381 2855 2742 
Q 2594 3103 2138 3103 
Q 1681 3103 1420 2742 
Q 1159 2381 1159 1747 
Q 1159 1113 1420 752 
Q 1681 391 2138 391 
Q 2594 391 2855 752 
Q 3116 1113 3116 1747 
z
M 1159 2969 
Q 1341 3281 1617 3432 
Q 1894 3584 2278 3584 
Q 2916 3584 3314 3078 
Q 3713 2572 3713 1747 
Q 3713 922 3314 415 
Q 2916 -91 2278 -91 
Q 1894 -91 1617 61 
Q 1341 213 1159 525 
L 1159 0 
L 581 0 
L 581 4863 
L 1159 4863 
L 1159 2969 
z
" transform="scale(0.015625)"/>
      <path id="DejaVuSans-6c" d="M 603 4863 
L 1178 4863 
L 1178 0 
L 603 0 
L 603 4863 
z
" transform="scale(0.015625)"/>
      <path id="DejaVuSans-75" d="M 544 1381 
L 544 3500 
L 1119 3500 
L 1119 1403 
Q 1119 906 1312 657 
Q 1506 409 1894 409 
Q 2359 409 2629 706 
Q 2900 1003 2900 1516 
L 2900 3500 
L 3475 3500 
L 3475 0 
L 2900 0 
L 2900 538 
Q 2691 219 2414 64 
Q 2138 -91 1772 -91 
Q 1169 -91 856 284 
Q 544 659 544 1381 
z
M 1991 3584 
L 1991 3584 
z
" transform="scale(0.015625)"/>
      <path id="DejaVuSans-65" d="M 3597 1894 
L 3597 1613 
L 953 1613 
Q 991 1019 1311 708 
Q 1631 397 2203 397 
Q 2534 397 2845 478 
Q 3156 559 3463 722 
L 3463 178 
Q 3153 47 2828 -22 
Q 2503 -91 2169 -91 
Q 1331 -91 842 396 
Q 353 884 353 1716 
Q 353 2575 817 3079 
Q 1281 3584 2069 3584 
Q 2775 3584 3186 3129 
Q 3597 2675 3597 1894 
z
M 3022 2063 
Q 3016 2534 2758 2815 
Q 2500 3097 2075 3097 
Q 1594 3097 1305 2825 
Q 1016 2553 972 2059 
L 3022 2063 
z
" transform="scale(0.015625)"/>
     </defs>
     <use xlink:href="#DejaVuSans-62"/>
     <use xlink:href="#DejaVuSans-6c" transform="translate(63.476562 0)"/>
     <use xlink:href="#DejaVuSans-75" transform="translate(91.259766 0)"/>
     <use xlink:href="#DejaVuSans-65" transform="translate(154.638672 0)"/>
     <use xlink:href="#DejaVuSans-35" transform="translate(216.162109 0)"/>
    </g>
   </g>
   <g id="legend_1">
    <g id="patch_7">
     <path d="M 316.259063 302.584 
L 407.72 302.584 
Q 409.72 302.584 409.72 300.584 
L 409.72 212.40275 
Q 409.72 210.40275 407.72 210.40275 
L 316.259063 210.40275 
Q 314.259063 210.40275 314.259063 212.40275 
L 314.259063 300.584 
Q 314.259063 302.584 316.259063 302.584 
z
" style="fill: #ffffff; opacity: 0.8; stroke: #cccccc; stroke-linejoin: miter"/>
    </g>
    <g id="line2d_18">
     <path d="M 318.259063 218.501187 
L 328.259063 218.501187 
L 338.259063 218.501187 
" style="fill: none; stroke: #1f77b4; stroke-width: 1.5; stroke-linecap: square"/>
    </g>
    <g id="text_15">
     <!-- train -->
     <g transform="translate(346.259063 222.001187) scale(0.1 -0.1)">
      <defs>
       <path id="DejaVuSans-74" d="M 1172 4494 
L 1172 3500 
L 2356 3500 
L 2356 3053 
L 1172 3053 
L 1172 1153 
Q 1172 725 1289 603 
Q 1406 481 1766 481 
L 2356 481 
L 2356 0 
L 1766 0 
Q 1100 0 847 248 
Q 594 497 594 1153 
L 594 3053 
L 172 3053 
L 172 3500 
L 594 3500 
L 594 4494 
L 1172 4494 
z
" transform="scale(0.015625)"/>
       <path id="DejaVuSans-72" d="M 2631 2963 
Q 2534 3019 2420 3045 
Q 2306 3072 2169 3072 
Q 1681 3072 1420 2755 
Q 1159 2438 1159 1844 
L 1159 0 
L 581 0 
L 581 3500 
L 1159 3500 
L 1159 2956 
Q 1341 3275 1631 3429 
Q 1922 3584 2338 3584 
Q 2397 3584 2469 3576 
Q 2541 3569 2628 3553 
L 2631 2963 
z
" transform="scale(0.015625)"/>
       <path id="DejaVuSans-61" d="M 2194 1759 
Q 1497 1759 1228 1600 
Q 959 1441 959 1056 
Q 959 750 1161 570 
Q 1363 391 1709 391 
Q 2188 391 2477 730 
Q 2766 1069 2766 1631 
L 2766 1759 
L 2194 1759 
z
M 3341 1997 
L 3341 0 
L 2766 0 
L 2766 531 
Q 2569 213 2275 61 
Q 1981 -91 1556 -91 
Q 1019 -91 701 211 
Q 384 513 384 1019 
Q 384 1609 779 1909 
Q 1175 2209 1959 2209 
L 2766 2209 
L 2766 2266 
Q 2766 2663 2505 2880 
Q 2244 3097 1772 3097 
Q 1472 3097 1187 3025 
Q 903 2953 641 2809 
L 641 3341 
Q 956 3463 1253 3523 
Q 1550 3584 1831 3584 
Q 2591 3584 2966 3190 
Q 3341 2797 3341 1997 
z
" transform="scale(0.015625)"/>
       <path id="DejaVuSans-69" d="M 603 3500 
L 1178 3500 
L 1178 0 
L 603 0 
L 603 3500 
z
M 603 4863 
L 1178 4863 
L 1178 4134 
L 603 4134 
L 603 4863 
z
" transform="scale(0.015625)"/>
       <path id="DejaVuSans-6e" d="M 3513 2113 
L 3513 0 
L 2938 0 
L 2938 2094 
Q 2938 2591 2744 2837 
Q 2550 3084 2163 3084 
Q 1697 3084 1428 2787 
Q 1159 2491 1159 1978 
L 1159 0 
L 581 0 
L 581 3500 
L 1159 3500 
L 1159 2956 
Q 1366 3272 1645 3428 
Q 1925 3584 2291 3584 
Q 2894 3584 3203 3211 
Q 3513 2838 3513 2113 
z
" transform="scale(0.015625)"/>
      </defs>
      <use xlink:href="#DejaVuSans-74"/>
      <use xlink:href="#DejaVuSans-72" transform="translate(39.208984 0)"/>
      <use xlink:href="#DejaVuSans-61" transform="translate(80.322266 0)"/>
      <use xlink:href="#DejaVuSans-69" transform="translate(141.601562 0)"/>
      <use xlink:href="#DejaVuSans-6e" transform="translate(169.384766 0)"/>
     </g>
    </g>
    <g id="line2d_19">
     <path d="M 318.259063 233.179312 
L 328.259063 233.179312 
L 338.259063 233.179312 
" style="fill: none; stroke: #ff7f0e; stroke-width: 1.5; stroke-linecap: square"/>
    </g>
    <g id="text_16">
     <!-- train_class0 -->
     <g transform="translate(346.259063 236.679312) scale(0.1 -0.1)">
      <defs>
       <path id="DejaVuSans-5f" d="M 3263 -1063 
L 3263 -1509 
L -63 -1509 
L -63 -1063 
L 3263 -1063 
z
" transform="scale(0.015625)"/>
       <path id="DejaVuSans-63" d="M 3122 3366 
L 3122 2828 
Q 2878 2963 2633 3030 
Q 2388 3097 2138 3097 
Q 1578 3097 1268 2742 
Q 959 2388 959 1747 
Q 959 1106 1268 751 
Q 1578 397 2138 397 
Q 2388 397 2633 464 
Q 2878 531 3122 666 
L 3122 134 
Q 2881 22 2623 -34 
Q 2366 -91 2075 -91 
Q 1284 -91 818 406 
Q 353 903 353 1747 
Q 353 2603 823 3093 
Q 1294 3584 2113 3584 
Q 2378 3584 2631 3529 
Q 2884 3475 3122 3366 
z
" transform="scale(0.015625)"/>
       <path id="DejaVuSans-73" d="M 2834 3397 
L 2834 2853 
Q 2591 2978 2328 3040 
Q 2066 3103 1784 3103 
Q 1356 3103 1142 2972 
Q 928 2841 928 2578 
Q 928 2378 1081 2264 
Q 1234 2150 1697 2047 
L 1894 2003 
Q 2506 1872 2764 1633 
Q 3022 1394 3022 966 
Q 3022 478 2636 193 
Q 2250 -91 1575 -91 
Q 1294 -91 989 -36 
Q 684 19 347 128 
L 347 722 
Q 666 556 975 473 
Q 1284 391 1588 391 
Q 1994 391 2212 530 
Q 2431 669 2431 922 
Q 2431 1156 2273 1281 
Q 2116 1406 1581 1522 
L 1381 1569 
Q 847 1681 609 1914 
Q 372 2147 372 2553 
Q 372 3047 722 3315 
Q 1072 3584 1716 3584 
Q 2034 3584 2315 3537 
Q 2597 3491 2834 3397 
z
" transform="scale(0.015625)"/>
      </defs>
      <use xlink:href="#DejaVuSans-74"/>
      <use xlink:href="#DejaVuSans-72" transform="translate(39.208984 0)"/>
      <use xlink:href="#DejaVuSans-61" transform="translate(80.322266 0)"/>
      <use xlink:href="#DejaVuSans-69" transform="translate(141.601562 0)"/>
      <use xlink:href="#DejaVuSans-6e" transform="translate(169.384766 0)"/>
      <use xlink:href="#DejaVuSans-5f" transform="translate(232.763672 0)"/>
      <use xlink:href="#DejaVuSans-63" transform="translate(282.763672 0)"/>
      <use xlink:href="#DejaVuSans-6c" transform="translate(337.744141 0)"/>
      <use xlink:href="#DejaVuSans-61" transform="translate(365.527344 0)"/>
      <use xlink:href="#DejaVuSans-73" transform="translate(426.806641 0)"/>
      <use xlink:href="#DejaVuSans-73" transform="translate(478.90625 0)"/>
      <use xlink:href="#DejaVuSans-30" transform="translate(531.005859 0)"/>
     </g>
    </g>
    <g id="line2d_20">
     <path d="M 318.259063 248.135562 
L 328.259063 248.135562 
L 338.259063 248.135562 
" style="fill: none; stroke: #2ca02c; stroke-width: 1.5; stroke-linecap: square"/>
    </g>
    <g id="text_17">
     <!-- train_class1 -->
     <g transform="translate(346.259063 251.635562) scale(0.1 -0.1)">
      <use xlink:href="#DejaVuSans-74"/>
      <use xlink:href="#DejaVuSans-72" transform="translate(39.208984 0)"/>
      <use xlink:href="#DejaVuSans-61" transform="translate(80.322266 0)"/>
      <use xlink:href="#DejaVuSans-69" transform="translate(141.601562 0)"/>
      <use xlink:href="#DejaVuSans-6e" transform="translate(169.384766 0)"/>
      <use xlink:href="#DejaVuSans-5f" transform="translate(232.763672 0)"/>
      <use xlink:href="#DejaVuSans-63" transform="translate(282.763672 0)"/>
      <use xlink:href="#DejaVuSans-6c" transform="translate(337.744141 0)"/>
      <use xlink:href="#DejaVuSans-61" transform="translate(365.527344 0)"/>
      <use xlink:href="#DejaVuSans-73" transform="translate(426.806641 0)"/>
      <use xlink:href="#DejaVuSans-73" transform="translate(478.90625 0)"/>
      <use xlink:href="#DejaVuSans-31" transform="translate(531.005859 0)"/>
     </g>
    </g>
    <g id="line2d_21">
     <path d="M 318.259063 263.091812 
L 328.259063 263.091812 
L 338.259063 263.091812 
" style="fill: none; stroke: #d62728; stroke-width: 1.5; stroke-linecap: square"/>
    </g>
    <g id="text_18">
     <!-- test -->
     <g transform="translate(346.259063 266.591812) scale(0.1 -0.1)">
      <use xlink:href="#DejaVuSans-74"/>
      <use xlink:href="#DejaVuSans-65" transform="translate(39.208984 0)"/>
      <use xlink:href="#DejaVuSans-73" transform="translate(100.732422 0)"/>
      <use xlink:href="#DejaVuSans-74" transform="translate(152.832031 0)"/>
     </g>
    </g>
    <g id="line2d_22">
     <path d="M 318.259063 277.769937 
L 328.259063 277.769937 
L 338.259063 277.769937 
" style="fill: none; stroke: #9467bd; stroke-width: 1.5; stroke-linecap: square"/>
    </g>
    <g id="text_19">
     <!-- test_class0 -->
     <g transform="translate(346.259063 281.269937) scale(0.1 -0.1)">
      <use xlink:href="#DejaVuSans-74"/>
      <use xlink:href="#DejaVuSans-65" transform="translate(39.208984 0)"/>
      <use xlink:href="#DejaVuSans-73" transform="translate(100.732422 0)"/>
      <use xlink:href="#DejaVuSans-74" transform="translate(152.832031 0)"/>
      <use xlink:href="#DejaVuSans-5f" transform="translate(192.041016 0)"/>
      <use xlink:href="#DejaVuSans-63" transform="translate(242.041016 0)"/>
      <use xlink:href="#DejaVuSans-6c" transform="translate(297.021484 0)"/>
      <use xlink:href="#DejaVuSans-61" transform="translate(324.804688 0)"/>
      <use xlink:href="#DejaVuSans-73" transform="translate(386.083984 0)"/>
      <use xlink:href="#DejaVuSans-73" transform="translate(438.183594 0)"/>
      <use xlink:href="#DejaVuSans-30" transform="translate(490.283203 0)"/>
     </g>
    </g>
    <g id="line2d_23">
     <path d="M 318.259063 292.726187 
L 328.259063 292.726187 
L 338.259063 292.726187 
" style="fill: none; stroke: #8c564b; stroke-width: 1.5; stroke-linecap: square"/>
    </g>
    <g id="text_20">
     <!-- test_class1 -->
     <g transform="translate(346.259063 296.226187) scale(0.1 -0.1)">
      <use xlink:href="#DejaVuSans-74"/>
      <use xlink:href="#DejaVuSans-65" transform="translate(39.208984 0)"/>
      <use xlink:href="#DejaVuSans-73" transform="translate(100.732422 0)"/>
      <use xlink:href="#DejaVuSans-74" transform="translate(152.832031 0)"/>
      <use xlink:href="#DejaVuSans-5f" transform="translate(192.041016 0)"/>
      <use xlink:href="#DejaVuSans-63" transform="translate(242.041016 0)"/>
      <use xlink:href="#DejaVuSans-6c" transform="translate(297.021484 0)"/>
      <use xlink:href="#DejaVuSans-61" transform="translate(324.804688 0)"/>
      <use xlink:href="#DejaVuSans-73" transform="translate(386.083984 0)"/>
      <use xlink:href="#DejaVuSans-73" transform="translate(438.183594 0)"/>
      <use xlink:href="#DejaVuSans-31" transform="translate(490.283203 0)"/>
     </g>
    </g>
   </g>
   <g id="line2d_24">
    <path d="M 73.832727 198.719999 
L 74.914909 53.568 
L 77.079273 53.568 
L 78.161455 57.680645 
L 79.243636 56.229115 
L 80.325818 55.261433 
L 81.408 86.614276 
L 82.490182 80.808184 
L 83.572364 80.695294 
L 84.654545 58.745111 
L 85.736727 71.615242 
L 86.818909 87.291649 
L 87.901091 96.323324 
L 88.983273 119.78955 
L 90.065455 99.758566 
L 91.147636 100.661764 
L 92.229818 85.001478 
L 93.312 99.000588 
L 94.394182 71.212028 
L 95.476364 118.596086 
L 96.558545 109.822465 
L 97.640727 128.256756 
L 98.722909 92.807418 
L 99.805091 85.985281 
L 100.887273 92.436475 
L 101.969455 109.903099 
L 103.051636 102.484223 
L 104.133818 94.000896 
L 105.216 115.225342 
L 106.298182 97.952272 
L 107.380364 106.806528 
L 108.462545 110.354705 
L 109.544727 86.743288 
L 110.626909 73.840886 
L 111.709091 111.161075 
L 112.791273 87.727091 
L 113.873455 89.259255 
L 114.955636 94.162164 
L 116.037818 75.034364 
L 117.12 114.741509 
L 118.202182 82.904831 
L 119.284364 114.838264 
L 120.366545 109.51602 
L 121.448727 102.887408 
L 122.530909 76.034317 
L 123.613091 97.645813 
L 124.695273 92.371976 
L 125.777455 73.115121 
L 126.859636 121.160446 
L 127.941818 110.241785 
L 129.024 103.371256 
L 130.106182 106.322694 
L 131.188364 120.83788 
L 132.270545 105.935601 
L 133.352727 85.033734 
L 134.434909 137.91744 
L 135.517091 77.179388 
L 136.599273 90.823676 
L 137.681455 175.689214 
L 138.763636 71.002368 
L 139.845818 83.291895 
L 140.928 93.500912 
L 142.010182 107.338739 
L 143.092364 115.112437 
L 144.174545 110.935279 
L 145.256727 108.016127 
L 146.338909 72.969988 
L 147.421091 125.773045 
L 148.503273 81.437165 
L 149.585455 109.886963 
L 150.667636 77.356806 
L 151.749818 103.629323 
L 152.832 90.581759 
L 153.914182 83.695095 
L 154.996364 118.338049 
L 156.078545 109.403144 
L 157.160727 115.693055 
L 158.242909 120.886258 
L 159.325091 85.823998 
L 160.407273 110.596622 
L 161.489455 114.644739 
L 162.571636 112.483579 
L 163.653818 127.418115 
L 164.736 104.774394 
L 165.818182 122.466814 
L 166.900364 133.530622 
L 167.982545 142.949375 
L 169.064727 83.662838 
L 170.146909 113.612529 
L 171.229091 120.354047 
L 172.311273 90.114047 
L 173.393455 108.129018 
L 174.475636 118.46706 
L 175.557818 90.90431 
L 176.64 90.61403 
L 177.722182 82.098417 
L 178.804364 108.241923 
L 179.886545 105.774319 
L 180.968727 99.145721 
L 182.050909 99.500543 
L 183.133091 100.323078 
L 184.215273 90.114047 
L 185.297455 87.775483 
L 186.379636 107.741939 
L 187.461818 98.484483 
L 188.544 109.854721 
L 189.626182 109.725681 
L 190.708364 101.27461 
L 191.790545 95.307264 
L 192.872727 98.129661 
L 193.954909 115.128573 
L 195.037091 108.483825 
L 196.119273 104.677625 
L 197.201455 113.20933 
L 198.283636 114.580226 
L 199.365818 96.12977 
L 200.448 118.192901 
L 201.530182 97.000697 
L 202.612364 94.855658 
L 203.694545 121.54751 
L 204.776727 98.855412 
L 205.858909 119.999239 
L 206.941091 101.274624 
L 208.023273 93.017092 
L 209.105455 125.547264 
L 210.187636 128.272892 
L 211.269818 109.080564 
L 212.352 127.353602 
L 213.434182 121.692672 
L 214.516364 112.741617 
L 216.680727 130.482429 
L 217.762909 112.064244 
L 218.845091 106.822649 
L 219.927273 108.983823 
L 221.009455 127.563248 
L 222.091636 105.709834 
L 223.173818 122.289396 
L 224.256 115.67692 
L 225.338182 109.919234 
L 226.420364 117.176827 
L 228.584727 121.499132 
L 229.666909 111.048184 
L 230.749091 124.886012 
L 231.831273 122.321667 
L 232.913455 108.177424 
L 233.995636 127.8213 
L 235.077818 116.757492 
L 236.16 129.143804 
L 237.242182 125.579521 
L 238.324364 108.532217 
L 239.406545 111.612667 
L 240.488727 115.322112 
L 241.570909 113.386748 
L 242.653091 112.338417 
L 243.735273 110.161151 
L 244.817455 103.177731 
L 245.899636 113.338356 
L 248.064 112.709375 
L 249.146182 106.871027 
L 250.228364 120.047602 
L 251.310545 104.27444 
L 252.392727 102.62937 
L 253.474909 112.177149 
L 254.557091 114.531834 
L 255.639273 115.225328 
L 256.721455 116.531711 
L 257.803636 115.435017 
L 258.885818 116.41882 
L 259.968 114.273781 
L 261.050182 113.967337 
L 262.132364 100.516617 
L 263.214545 106.080763 
L 264.296727 123.531251 
L 265.378909 117.789702 
L 266.461091 114.547955 
L 267.543273 109.677303 
L 268.625455 112.935171 
L 269.707636 124.998903 
L 270.789818 109.128942 
L 271.872 113.612529 
L 272.954182 115.322098 
L 274.036364 108.096761 
L 275.118545 112.757767 
L 276.200727 121.160446 
L 277.282909 117.451001 
L 278.365091 119.966968 
L 279.447273 123.482874 
L 280.529455 120.966907 
L 281.611636 116.499469 
L 282.693818 117.54777 
L 283.776 116.080134 
L 284.858182 122.16037 
L 287.022545 118.047725 
L 288.104727 110.435339 
L 289.186909 111.548154 
L 290.269091 113.693178 
L 291.351273 114.935033 
L 293.515636 112.870643 
L 294.597818 109.161227 
L 295.68 109.193469 
L 296.762182 114.225404 
L 297.844364 114.435064 
L 300.008727 113.660921 
L 301.090909 115.838202 
L 302.173091 117.628419 
L 303.255273 115.047939 
L 304.337455 115.644677 
L 305.419636 114.402808 
L 306.501818 111.322358 
L 307.584 114.112513 
L 308.666182 117.918713 
L 309.748364 115.531758 
L 311.912727 112.515836 
L 312.994909 113.95123 
L 314.077091 111.902976 
L 315.159273 110.612728 
L 316.241455 111.870705 
L 317.323636 112.064244 
L 319.488 117.596162 
L 320.570182 118.225143 
L 321.652364 116.273658 
L 322.734545 117.789687 
L 323.816727 112.225527 
L 324.898909 117.757431 
L 325.981091 117.64454 
L 327.063273 115.67692 
L 328.145455 116.62848 
L 329.227636 114.547955 
L 330.309818 114.854385 
L 331.392 113.370627 
L 332.474182 116.467183 
L 333.556364 114.467321 
L 334.638545 115.838202 
L 335.720727 114.709238 
L 336.802909 114.564105 
L 337.885091 115.693055 
L 338.967273 116.644601 
L 340.049455 116.01562 
L 341.131636 117.354231 
L 342.213818 116.241416 
L 343.296 116.031742 
L 344.378182 116.918789 
L 345.460364 116.096255 
L 346.542545 116.273658 
L 347.624727 116.596224 
L 348.706909 116.596224 
L 349.789091 116.467198 
L 350.871273 115.822081 
L 351.953455 116.273673 
L 353.035636 115.628542 
L 354.117818 116.999423 
L 355.2 117.080058 
L 356.282182 117.467136 
L 357.364364 116.757521 
L 358.446545 117.402609 
L 359.528727 117.821958 
L 360.610909 115.934972 
L 361.693091 116.789763 
L 363.857455 116.838155 
L 364.939636 115.402746 
L 366.021818 117.096193 
L 367.104 115.547893 
L 368.186182 116.709115 
L 369.268364 116.193024 
L 370.350545 116.32205 
L 371.432727 116.047877 
L 372.514909 116.451077 
L 373.597091 117.031666 
L 374.679273 116.257537 
L 375.761455 117.225219 
L 376.843636 115.999485 
L 377.925818 116.20916 
L 379.008 115.402746 
L 380.090182 116.128511 
L 382.254545 116.289794 
L 383.336727 116.32205 
L 384.418909 116.709115 
L 385.501091 115.418867 
L 387.665455 116.193024 
L 388.747636 116.32205 
L 389.829818 115.67692 
L 390.912 115.547893 
L 391.994182 116.580103 
L 393.076364 115.225342 
L 394.158545 115.934972 
L 395.240727 115.531787 
L 396.322909 116.563967 
L 397.405091 115.999485 
L 398.487273 115.660798 
L 398.487273 115.660798 
" clip-path="url(#p18f650597e)" style="fill: none; stroke: #9467bd; stroke-width: 1.5; stroke-linecap: square"/>
   </g>
   <g id="line2d_25">
    <path d="M 73.832727 150.335994 
L 74.914909 295.488 
L 77.079273 295.488 
L 78.161455 294.03648 
L 79.243636 276.1344 
L 80.325818 284.359681 
L 81.408 254.361603 
L 82.490182 262.586882 
L 83.572364 249.523201 
L 84.654545 277.747199 
L 85.736727 270.650881 
L 86.818909 262.103041 
L 87.901091 227.427834 
L 88.983273 214.686715 
L 90.065455 212.751365 
L 91.147636 240.168961 
L 92.229818 234.201601 
L 93.312 245.65248 
L 94.394182 246.94272 
L 95.476364 217.589754 
L 96.558545 212.4288 
L 97.640727 201.461762 
L 98.722909 235.330558 
L 99.805091 259.361281 
L 100.887273 233.71776 
L 101.969455 247.426561 
L 103.051636 240.491519 
L 104.133818 237.104639 
L 105.216 247.58784 
L 106.298182 229.04064 
L 107.380364 225.976319 
L 108.462545 253.716479 
L 109.544727 258.554878 
L 110.626909 275.97312 
L 111.709091 262.748161 
L 112.791273 264.683525 
L 113.873455 273.070079 
L 114.955636 252.587522 
L 116.037818 258.071041 
L 117.12 257.748483 
L 118.202182 245.65248 
L 119.284364 231.782403 
L 120.366545 267.425281 
L 121.448727 241.297918 
L 122.530909 275.327999 
L 123.613091 247.426561 
L 124.695273 271.134722 
L 125.777455 290.16576 
L 126.859636 243.717123 
L 127.941818 250.3296 
L 129.024 244.200964 
L 130.106182 232.104954 
L 131.188364 209.525761 
L 132.270545 242.104318 
L 133.352727 256.619522 
L 134.434909 187.75296 
L 135.517091 262.425599 
L 136.599273 265.812479 
L 137.681455 191.301116 
L 138.763636 269.360641 
L 139.845818 258.554882 
L 140.928 256.29696 
L 142.010182 252.26496 
L 143.092364 239.846403 
L 144.174545 239.68512 
L 145.256727 235.491841 
L 146.338909 253.716479 
L 147.421091 230.008322 
L 148.503273 258.716158 
L 149.585455 234.524159 
L 150.667636 275.97312 
L 151.749818 236.943357 
L 152.832 252.91008 
L 153.914182 249.361921 
L 154.996364 236.943357 
L 156.078545 243.394565 
L 157.160727 234.040318 
L 158.242909 230.814721 
L 159.325091 248.071678 
L 160.407273 235.814399 
L 161.489455 231.62112 
L 162.571636 236.459519 
L 163.653818 227.266559 
L 164.736 230.814721 
L 165.818182 228.234241 
L 166.900364 241.136639 
L 167.982545 218.718725 
L 169.064727 260.32896 
L 170.146909 269.360641 
L 171.229091 240.814081 
L 172.311273 282.585601 
L 173.393455 239.68512 
L 174.475636 240.652802 
L 175.557818 272.747521 
L 176.64 255.00672 
L 177.722182 256.94208 
L 178.804364 239.040003 
L 179.886545 231.943679 
L 182.050909 257.103363 
L 183.133091 249.523201 
L 184.215273 254.039038 
L 185.297455 241.62048 
L 186.379636 250.168324 
L 187.461818 251.136003 
L 188.544 233.879043 
L 189.626182 238.233604 
L 190.708364 239.68512 
L 191.790545 241.943038 
L 192.872727 250.974724 
L 193.954909 234.524159 
L 195.037091 236.943357 
L 196.119273 241.781759 
L 197.201455 239.685116 
L 198.283636 235.814399 
L 199.365818 247.749119 
L 200.448 239.201275 
L 201.530182 242.588159 
L 202.612364 265.167359 
L 203.694545 231.137279 
L 204.776727 244.362236 
L 205.858909 233.072636 
L 206.941091 244.362236 
L 208.023273 242.426883 
L 209.105455 223.879679 
L 210.187636 221.299199 
L 211.269818 257.425921 
L 212.352 220.492799 
L 213.434182 236.620798 
L 214.516364 233.879043 
L 215.598545 216.783362 
L 216.680727 230.653438 
L 217.762909 248.394239 
L 218.845091 237.427198 
L 219.927273 251.781123 
L 221.009455 227.911682 
L 222.091636 236.620798 
L 223.173818 236.782078 
L 224.256 239.040003 
L 225.338182 244.846081 
L 226.420364 239.039996 
L 227.502545 237.427198 
L 228.584727 234.685442 
L 229.666909 237.265919 
L 230.749091 232.750078 
L 231.831273 235.169286 
L 232.913455 240.652802 
L 233.995636 227.266559 
L 235.077818 237.427198 
L 236.16 234.846724 
L 237.242182 233.072643 
L 238.324364 243.878399 
L 239.406545 243.717116 
L 240.488727 240.814081 
L 241.570909 242.2656 
L 242.653091 230.975997 
L 244.817455 242.426883 
L 245.899636 239.362554 
L 246.981818 241.459201 
L 248.064 237.911039 
L 249.146182 246.620162 
L 250.228364 232.588802 
L 251.310545 244.846081 
L 252.392727 244.523522 
L 253.474909 236.782078 
L 254.557091 237.588477 
L 255.639273 235.008 
L 256.721455 235.330558 
L 257.803636 238.233597 
L 258.885818 233.233919 
L 259.968 235.491841 
L 261.050182 232.42752 
L 262.132364 240.168961 
L 263.214545 237.104643 
L 264.296727 230.814721 
L 265.378909 235.814399 
L 266.461091 241.943038 
L 267.543273 251.942398 
L 268.625455 250.490879 
L 269.707636 238.072318 
L 270.789818 250.652162 
L 271.872 246.94272 
L 272.954182 246.620162 
L 274.036364 244.846081 
L 275.118545 247.426558 
L 276.200727 240.007682 
L 277.282909 244.362243 
L 278.365091 242.104318 
L 279.447273 236.459519 
L 280.529455 238.717442 
L 281.611636 242.910717 
L 282.693818 245.491201 
L 283.776 247.749119 
L 284.858182 241.943046 
L 285.940364 241.459205 
L 287.022545 242.910724 
L 288.104727 245.975042 
L 289.186909 243.394558 
L 290.269091 245.168635 
L 291.351273 244.039681 
L 292.433455 244.846081 
L 293.515636 242.104318 
L 294.597818 245.168643 
L 295.68 245.168643 
L 296.762182 241.781759 
L 298.926545 244.523522 
L 300.008727 244.200964 
L 301.090909 243.555844 
L 302.173091 243.233282 
L 303.255273 245.168643 
L 304.337455 243.233282 
L 305.419636 244.523522 
L 306.501818 241.62048 
L 307.584 241.781759 
L 308.666182 237.265919 
L 309.748364 234.201601 
L 310.830545 237.588477 
L 311.912727 236.782078 
L 312.994909 237.749756 
L 314.077091 236.782078 
L 315.159273 239.685116 
L 316.241455 240.007675 
L 317.323636 240.652795 
L 318.405818 236.782078 
L 319.488 236.459519 
L 321.652364 237.104639 
L 322.734545 236.459519 
L 323.816727 239.201275 
L 324.898909 235.491841 
L 325.981091 237.588477 
L 327.063273 240.652795 
L 328.145455 236.943357 
L 329.227636 240.491519 
L 330.309818 238.233604 
L 331.392 240.491519 
L 332.474182 236.782085 
L 333.556364 237.588484 
L 334.638545 238.556162 
L 335.720727 240.007682 
L 336.802909 238.394883 
L 337.885091 237.911042 
L 338.967273 236.459519 
L 341.131636 235.169279 
L 342.213818 235.491841 
L 343.296 236.136957 
L 344.378182 235.491841 
L 345.460364 235.491841 
L 346.542545 236.136957 
L 347.624727 235.814399 
L 348.706909 236.136957 
L 349.789091 235.814399 
L 350.871273 236.459519 
L 351.953455 236.136957 
L 353.035636 236.459519 
L 354.117818 235.814399 
L 355.2 235.814399 
L 357.364364 236.459519 
L 358.446545 237.427198 
L 359.528727 236.782078 
L 360.610909 237.427198 
L 361.693091 235.169279 
L 362.775273 236.459519 
L 363.857455 236.782078 
L 364.939636 237.749756 
L 366.021818 235.814399 
L 367.104 237.749756 
L 368.186182 236.459519 
L 369.268364 236.782078 
L 370.350545 235.814399 
L 371.432727 237.749756 
L 372.514909 236.782078 
L 373.597091 237.104639 
L 374.679273 237.104639 
L 375.761455 237.427198 
L 376.843636 236.459519 
L 377.925818 236.459519 
L 379.008 237.427198 
L 380.090182 237.427198 
L 381.172364 237.104639 
L 382.254545 235.491841 
L 383.336727 236.459519 
L 384.418909 237.749756 
L 385.501091 237.749756 
L 386.583273 237.104639 
L 387.665455 237.749756 
L 388.747636 237.104639 
L 389.829818 237.749756 
L 390.912 236.459519 
L 391.994182 236.782078 
L 393.076364 237.749756 
L 394.158545 237.427198 
L 395.240727 237.427198 
L 396.322909 236.782078 
L 397.405091 237.427198 
L 398.487273 237.104639 
L 398.487273 237.104639 
" clip-path="url(#p18f650597e)" style="fill: none; stroke: #8c564b; stroke-width: 1.5; stroke-linecap: square"/>
   </g>
  </g>
 </g>
 <defs>
  <clipPath id="p18f650597e">
   <rect x="57.6" y="41.472" width="357.12" height="266.112"/>
  </clipPath>
 </defs>
</svg>
