<?xml version="1.0" encoding="utf-8" standalone="no"?>
<!DOCTYPE svg PUBLIC "-//W3C//DTD SVG 1.1//EN"
  "http://www.w3.org/Graphics/SVG/1.1/DTD/svg11.dtd">
<svg xmlns:xlink="http://www.w3.org/1999/xlink" width="460.8pt" height="345.6pt" viewBox="0 0 460.8 345.6" xmlns="http://www.w3.org/2000/svg" version="1.1">
 <metadata>
  <rdf:RDF xmlns:dc="http://purl.org/dc/elements/1.1/" xmlns:cc="http://creativecommons.org/ns#" xmlns:rdf="http://www.w3.org/1999/02/22-rdf-syntax-ns#">
   <cc:Work>
    <dc:type rdf:resource="http://purl.org/dc/dcmitype/StillImage"/>
    <dc:date>2026-03-20T12:45:38.616500</dc:date>
    <dc:format>image/svg+xml</dc:format>
    <dc:creator>
     <cc:Agent>
      <dc:title>Matplotlib v3.10.8, https://matplotlib.org/</dc:title>
     </cc:Agent>
    </dc:creator>
   </cc:Work>
  </rdf:RDF>
 </metadata>
 <defs>
  <style type="text/css">*{stroke-linejoin: round; stroke-linecap: butt}</style>
 </defs>
 <g id="figure_1">
  <g id="patch_1">
   <path d="M 0 345.6 
L 460.8 345.6 
L 460.8 0 
L 0 0 
z
" style="fill: #ffffff"/>
  </g>
  <g id="axes_1">
   <g id="patch_2">
    <path d="M 57.6 307.584 
L 414.72 307.584 
L 414.72 41.472 
L 57.6 41.472 
z
" style="fill: #ffffff"/>
   </g>
   <g id="matplotlib.axis_1">
    <g id="xtick_1">
     <g id="line2d_1">
      <defs>
       <path id="mae0498cff1" d="M 0 0 
L 0 3.5 
" style="stroke: #000000; stroke-width: 0.8"/>
      </defs>
      <g>
       <use xlink:href="#mae0498cff1" x="73.832727" y="307.584" style="stroke: #000000; stroke-width: 0.8"/>
      </g>
     </g>
     <g id="text_1">
      <!-- 0 -->
      <g transform="translate(70.651477 322.182437) scale(0.1 -0.1)">
       <defs>
        <path id="DejaVuSans-30" d="M 2034 4250 
Q 1547 4250 1301 3770 
Q 1056 3291 1056 2328 
Q 1056 1369 1301 889 
Q 1547 409 2034 409 
Q 2525 409 2770 889 
Q 3016 1369 3016 2328 
Q 3016 3291 2770 3770 
Q 2525 4250 2034 4250 
z
M 2034 4750 
Q 2819 4750 3233 4129 
Q 3647 3509 3647 2328 
Q 3647 1150 3233 529 
Q 2819 -91 2034 -91 
Q 1250 -91 836 529 
Q 422 1150 422 2328 
Q 422 3509 836 4129 
Q 1250 4750 2034 4750 
z
" transform="scale(0.015625)"/>
       </defs>
       <use xlink:href="#DejaVuSans-30"/>
      </g>
     </g>
    </g>
    <g id="xtick_2">
     <g id="line2d_2">
      <g>
       <use xlink:href="#mae0498cff1" x="138.763636" y="307.584" style="stroke: #000000; stroke-width: 0.8"/>
      </g>
     </g>
     <g id="text_2">
      <!-- 100 -->
      <g transform="translate(129.219886 322.182437) scale(0.1 -0.1)">
       <defs>
        <path id="DejaVuSans-31" d="M 794 531 
L 1825 531 
L 1825 4091 
L 703 3866 
L 703 4441 
L 1819 4666 
L 2450 4666 
L 2450 531 
L 3481 531 
L 3481 0 
L 794 0 
L 794 531 
z
" transform="scale(0.015625)"/>
       </defs>
       <use xlink:href="#DejaVuSans-31"/>
       <use xlink:href="#DejaVuSans-30" transform="translate(63.623047 0)"/>
       <use xlink:href="#DejaVuSans-30" transform="translate(127.246094 0)"/>
      </g>
     </g>
    </g>
    <g id="xtick_3">
     <g id="line2d_3">
      <g>
       <use xlink:href="#mae0498cff1" x="203.694545" y="307.584" style="stroke: #000000; stroke-width: 0.8"/>
      </g>
     </g>
     <g id="text_3">
      <!-- 200 -->
      <g transform="translate(194.150795 322.182437) scale(0.1 -0.1)">
       <defs>
        <path id="DejaVuSans-32" d="M 1228 531 
L 3431 531 
L 3431 0 
L 469 0 
L 469 531 
Q 828 903 1448 1529 
Q 2069 2156 2228 2338 
Q 2531 2678 2651 2914 
Q 2772 3150 2772 3378 
Q 2772 3750 2511 3984 
Q 2250 4219 1831 4219 
Q 1534 4219 1204 4116 
Q 875 4013 500 3803 
L 500 4441 
Q 881 4594 1212 4672 
Q 1544 4750 1819 4750 
Q 2544 4750 2975 4387 
Q 3406 4025 3406 3419 
Q 3406 3131 3298 2873 
Q 3191 2616 2906 2266 
Q 2828 2175 2409 1742 
Q 1991 1309 1228 531 
z
" transform="scale(0.015625)"/>
       </defs>
       <use xlink:href="#DejaVuSans-32"/>
       <use xlink:href="#DejaVuSans-30" transform="translate(63.623047 0)"/>
       <use xlink:href="#DejaVuSans-30" transform="translate(127.246094 0)"/>
      </g>
     </g>
    </g>
    <g id="xtick_4">
     <g id="line2d_4">
      <g>
       <use xlink:href="#mae0498cff1" x="268.625455" y="307.584" style="stroke: #000000; stroke-width: 0.8"/>
      </g>
     </g>
     <g id="text_4">
      <!-- 300 -->
      <g transform="translate(259.081705 322.182437) scale(0.1 -0.1)">
       <defs>
        <path id="DejaVuSans-33" d="M 2597 2516 
Q 3050 2419 3304 2112 
Q 3559 1806 3559 1356 
Q 3559 666 3084 287 
Q 2609 -91 1734 -91 
Q 1441 -91 1130 -33 
Q 819 25 488 141 
L 488 750 
Q 750 597 1062 519 
Q 1375 441 1716 441 
Q 2309 441 2620 675 
Q 2931 909 2931 1356 
Q 2931 1769 2642 2001 
Q 2353 2234 1838 2234 
L 1294 2234 
L 1294 2753 
L 1863 2753 
Q 2328 2753 2575 2939 
Q 2822 3125 2822 3475 
Q 2822 3834 2567 4026 
Q 2313 4219 1838 4219 
Q 1578 4219 1281 4162 
Q 984 4106 628 3988 
L 628 4550 
Q 988 4650 1302 4700 
Q 1616 4750 1894 4750 
Q 2613 4750 3031 4423 
Q 3450 4097 3450 3541 
Q 3450 3153 3228 2886 
Q 3006 2619 2597 2516 
z
" transform="scale(0.015625)"/>
       </defs>
       <use xlink:href="#DejaVuSans-33"/>
       <use xlink:href="#DejaVuSans-30" transform="translate(63.623047 0)"/>
       <use xlink:href="#DejaVuSans-30" transform="translate(127.246094 0)"/>
      </g>
     </g>
    </g>
    <g id="xtick_5">
     <g id="line2d_5">
      <g>
       <use xlink:href="#mae0498cff1" x="333.556364" y="307.584" style="stroke: #000000; stroke-width: 0.8"/>
      </g>
     </g>
     <g id="text_5">
      <!-- 400 -->
      <g transform="translate(324.012614 322.182437) scale(0.1 -0.1)">
       <defs>
        <path id="DejaVuSans-34" d="M 2419 4116 
L 825 1625 
L 2419 1625 
L 2419 4116 
z
M 2253 4666 
L 3047 4666 
L 3047 1625 
L 3713 1625 
L 3713 1100 
L 3047 1100 
L 3047 0 
L 2419 0 
L 2419 1100 
L 313 1100 
L 313 1709 
L 2253 4666 
z
" transform="scale(0.015625)"/>
       </defs>
       <use xlink:href="#DejaVuSans-34"/>
       <use xlink:href="#DejaVuSans-30" transform="translate(63.623047 0)"/>
       <use xlink:href="#DejaVuSans-30" transform="translate(127.246094 0)"/>
      </g>
     </g>
    </g>
    <g id="xtick_6">
     <g id="line2d_6">
      <g>
       <use xlink:href="#mae0498cff1" x="398.487273" y="307.584" style="stroke: #000000; stroke-width: 0.8"/>
      </g>
     </g>
     <g id="text_6">
      <!-- 500 -->
      <g transform="translate(388.943523 322.182437) scale(0.1 -0.1)">
       <defs>
        <path id="DejaVuSans-35" d="M 691 4666 
L 3169 4666 
L 3169 4134 
L 1269 4134 
L 1269 2991 
Q 1406 3038 1543 3061 
Q 1681 3084 1819 3084 
Q 2600 3084 3056 2656 
Q 3513 2228 3513 1497 
Q 3513 744 3044 326 
Q 2575 -91 1722 -91 
Q 1428 -91 1123 -41 
Q 819 9 494 109 
L 494 744 
Q 775 591 1075 516 
Q 1375 441 1709 441 
Q 2250 441 2565 725 
Q 2881 1009 2881 1497 
Q 2881 1984 2565 2268 
Q 2250 2553 1709 2553 
Q 1456 2553 1204 2497 
Q 953 2441 691 2322 
L 691 4666 
z
" transform="scale(0.015625)"/>
       </defs>
       <use xlink:href="#DejaVuSans-35"/>
       <use xlink:href="#DejaVuSans-30" transform="translate(63.623047 0)"/>
       <use xlink:href="#DejaVuSans-30" transform="translate(127.246094 0)"/>
      </g>
     </g>
    </g>
   </g>
   <g id="matplotlib.axis_2">
    <g id="ytick_1">
     <g id="line2d_7">
      <defs>
       <path id="mab442408f1" d="M 0 0 
L -3.5 0 
" style="stroke: #000000; stroke-width: 0.8"/>
      </defs>
      <g>
       <use xlink:href="#mab442408f1" x="57.6" y="295.488" style="stroke: #000000; stroke-width: 0.8"/>
      </g>
     </g>
     <g id="text_7">
      <!-- 0.0 -->
      <g transform="translate(34.696875 299.287219) scale(0.1 -0.1)">
       <defs>
        <path id="DejaVuSans-2e" d="M 684 794 
L 1344 794 
L 1344 0 
L 684 0 
L 684 794 
z
" transform="scale(0.015625)"/>
       </defs>
       <use xlink:href="#DejaVuSans-30"/>
       <use xlink:href="#DejaVuSans-2e" transform="translate(63.623047 0)"/>
       <use xlink:href="#DejaVuSans-30" transform="translate(95.410156 0)"/>
      </g>
     </g>
    </g>
    <g id="ytick_2">
     <g id="line2d_8">
      <g>
       <use xlink:href="#mab442408f1" x="57.6" y="247.104" style="stroke: #000000; stroke-width: 0.8"/>
      </g>
     </g>
     <g id="text_8">
      <!-- 0.2 -->
      <g transform="translate(34.696875 250.903219) scale(0.1 -0.1)">
       <use xlink:href="#DejaVuSans-30"/>
       <use xlink:href="#DejaVuSans-2e" transform="translate(63.623047 0)"/>
       <use xlink:href="#DejaVuSans-32" transform="translate(95.410156 0)"/>
      </g>
     </g>
    </g>
    <g id="ytick_3">
     <g id="line2d_9">
      <g>
       <use xlink:href="#mab442408f1" x="57.6" y="198.72" style="stroke: #000000; stroke-width: 0.8"/>
      </g>
     </g>
     <g id="text_9">
      <!-- 0.4 -->
      <g transform="translate(34.696875 202.519219) scale(0.1 -0.1)">
       <use xlink:href="#DejaVuSans-30"/>
       <use xlink:href="#DejaVuSans-2e" transform="translate(63.623047 0)"/>
       <use xlink:href="#DejaVuSans-34" transform="translate(95.410156 0)"/>
      </g>
     </g>
    </g>
    <g id="ytick_4">
     <g id="line2d_10">
      <g>
       <use xlink:href="#mab442408f1" x="57.6" y="150.336" style="stroke: #000000; stroke-width: 0.8"/>
      </g>
     </g>
     <g id="text_10">
      <!-- 0.6 -->
      <g transform="translate(34.696875 154.135219) scale(0.1 -0.1)">
       <defs>
        <path id="DejaVuSans-36" d="M 2113 2584 
Q 1688 2584 1439 2293 
Q 1191 2003 1191 1497 
Q 1191 994 1439 701 
Q 1688 409 2113 409 
Q 2538 409 2786 701 
Q 3034 994 3034 1497 
Q 3034 2003 2786 2293 
Q 2538 2584 2113 2584 
z
M 3366 4563 
L 3366 3988 
Q 3128 4100 2886 4159 
Q 2644 4219 2406 4219 
Q 1781 4219 1451 3797 
Q 1122 3375 1075 2522 
Q 1259 2794 1537 2939 
Q 1816 3084 2150 3084 
Q 2853 3084 3261 2657 
Q 3669 2231 3669 1497 
Q 3669 778 3244 343 
Q 2819 -91 2113 -91 
Q 1303 -91 875 529 
Q 447 1150 447 2328 
Q 447 3434 972 4092 
Q 1497 4750 2381 4750 
Q 2619 4750 2861 4703 
Q 3103 4656 3366 4563 
z
" transform="scale(0.015625)"/>
       </defs>
       <use xlink:href="#DejaVuSans-30"/>
       <use xlink:href="#DejaVuSans-2e" transform="translate(63.623047 0)"/>
       <use xlink:href="#DejaVuSans-36" transform="translate(95.410156 0)"/>
      </g>
     </g>
    </g>
    <g id="ytick_5">
     <g id="line2d_11">
      <g>
       <use xlink:href="#mab442408f1" x="57.6" y="101.952" style="stroke: #000000; stroke-width: 0.8"/>
      </g>
     </g>
     <g id="text_11">
      <!-- 0.8 -->
      <g transform="translate(34.696875 105.751219) scale(0.1 -0.1)">
       <defs>
        <path id="DejaVuSans-38" d="M 2034 2216 
Q 1584 2216 1326 1975 
Q 1069 1734 1069 1313 
Q 1069 891 1326 650 
Q 1584 409 2034 409 
Q 2484 409 2743 651 
Q 3003 894 3003 1313 
Q 3003 1734 2745 1975 
Q 2488 2216 2034 2216 
z
M 1403 2484 
Q 997 2584 770 2862 
Q 544 3141 544 3541 
Q 544 4100 942 4425 
Q 1341 4750 2034 4750 
Q 2731 4750 3128 4425 
Q 3525 4100 3525 3541 
Q 3525 3141 3298 2862 
Q 3072 2584 2669 2484 
Q 3125 2378 3379 2068 
Q 3634 1759 3634 1313 
Q 3634 634 3220 271 
Q 2806 -91 2034 -91 
Q 1263 -91 848 271 
Q 434 634 434 1313 
Q 434 1759 690 2068 
Q 947 2378 1403 2484 
z
M 1172 3481 
Q 1172 3119 1398 2916 
Q 1625 2713 2034 2713 
Q 2441 2713 2670 2916 
Q 2900 3119 2900 3481 
Q 2900 3844 2670 4047 
Q 2441 4250 2034 4250 
Q 1625 4250 1398 4047 
Q 1172 3844 1172 3481 
z
" transform="scale(0.015625)"/>
       </defs>
       <use xlink:href="#DejaVuSans-30"/>
       <use xlink:href="#DejaVuSans-2e" transform="translate(63.623047 0)"/>
       <use xlink:href="#DejaVuSans-38" transform="translate(95.410156 0)"/>
      </g>
     </g>
    </g>
    <g id="ytick_6">
     <g id="line2d_12">
      <g>
       <use xlink:href="#mab442408f1" x="57.6" y="53.568" style="stroke: #000000; stroke-width: 0.8"/>
      </g>
     </g>
     <g id="text_12">
      <!-- 1.0 -->
      <g transform="translate(34.696875 57.367219) scale(0.1 -0.1)">
       <use xlink:href="#DejaVuSans-31"/>
       <use xlink:href="#DejaVuSans-2e" transform="translate(63.623047 0)"/>
       <use xlink:href="#DejaVuSans-30" transform="translate(95.410156 0)"/>
      </g>
     </g>
    </g>
   </g>
   <g id="line2d_13">
    <path d="M 73.832727 182.753289 
L 74.482036 149.596805 
L 75.780655 141.411861 
L 76.429964 131.761919 
L 77.079273 125.902086 
L 77.728582 121.265276 
L 78.377891 121.144325 
L 79.0272 118.523527 
L 79.676509 114.612497 
L 80.325818 113.953927 
L 80.975127 112.717436 
L 81.624436 110.92993 
L 82.273745 107.717757 
L 82.923055 106.642563 
L 83.572364 106.481266 
L 84.221673 106.037764 
L 84.870982 106.29312 
L 85.520291 104.451843 
L 86.1696 105.016326 
L 86.818909 102.193928 
L 87.468218 101.266564 
L 88.117527 103.914239 
L 88.766836 100.917134 
L 89.416145 99.452165 
L 90.065455 98.390396 
L 91.364073 97.920015 
L 92.013382 95.124482 
L 92.662691 95.783037 
L 93.312 95.904003 
L 93.961309 95.258901 
L 94.610618 94.828794 
L 95.259927 92.611196 
L 95.909236 95.111043 
L 96.558545 94.425624 
L 97.207855 94.21057 
L 97.857164 93.095045 
L 98.506473 92.288645 
L 99.155782 90.433916 
L 99.805091 94.425595 
L 100.4544 94.089605 
L 101.103709 95.729281 
L 102.402327 90.783359 
L 103.051636 94.586863 
L 103.700945 90.743042 
L 104.350255 89.963521 
L 104.999564 89.667833 
L 105.648873 89.573789 
L 106.298182 92.947215 
L 106.947491 93.457913 
L 108.246109 92.530562 
L 108.895418 90.63553 
L 109.544727 87.960962 
L 110.194036 88.686712 
L 110.843345 90.17856 
L 111.492655 87.073914 
L 112.791273 88.095352 
L 113.440582 90.044169 
L 114.089891 88.821117 
L 114.7392 89.116805 
L 115.388509 89.681301 
L 116.037818 89.03617 
L 116.687127 88.619532 
L 117.336436 86.899207 
L 117.985745 86.133125 
L 118.635055 86.751363 
L 119.284364 85.824012 
L 119.933673 86.442237 
L 120.582982 84.103673 
L 121.232291 84.547204 
L 121.8816 84.251531 
L 122.530909 84.520326 
L 123.180218 82.867196 
L 123.829527 85.891208 
L 124.478836 84.305287 
L 125.128145 83.579522 
L 125.777455 84.345604 
L 127.076073 85.205774 
L 127.725382 82.907528 
L 128.374691 83.21664 
L 129.024 85.555189 
L 129.673309 84.856316 
L 130.322618 83.21664 
L 130.971927 84.547204 
L 131.621236 82.974723 
L 132.270545 84.090234 
L 132.919855 84.372482 
L 133.569164 82.383362 
L 134.218473 81.859183 
L 134.867782 83.969283 
L 135.517091 84.506873 
L 136.1664 82.383362 
L 136.815709 82.746245 
L 137.465018 83.861756 
L 138.114327 82.154884 
L 138.763636 81.684504 
L 139.412945 82.746259 
L 140.062255 82.087689 
L 140.711564 82.531192 
L 141.360873 81.22752 
L 142.010182 81.120007 
L 142.659491 82.826893 
L 143.3088 82.423679 
L 143.958109 82.450557 
L 144.607418 81.536632 
L 145.256727 80.891515 
L 145.906036 82.154884 
L 146.555345 81.012466 
L 147.204655 83.230079 
L 147.853964 83.633293 
L 148.503273 80.878076 
L 149.801891 82.168323 
L 150.4512 81.106568 
L 151.100509 81.953285 
L 151.749818 81.912968 
L 152.399127 83.713927 
L 153.048436 80.649598 
L 154.347055 78.458878 
L 154.996364 80.192628 
L 155.645673 79.601282 
L 156.294982 81.603841 
L 156.944291 80.192628 
L 157.5936 78.122888 
L 158.242909 77.477757 
L 158.892218 79.802896 
L 159.541527 78.432 
L 160.190836 78.284157 
L 160.840145 78.311035 
L 161.489455 75.918715 
L 162.138764 79.870077 
L 164.086691 77.047694 
L 164.736 75.932168 
L 165.385309 77.880943 
L 166.034618 82.517753 
L 166.683927 79.82976 
L 167.333236 78.055679 
L 167.982545 76.859519 
L 168.631855 75.327355 
L 169.281164 76.64448 
L 169.930473 77.088011 
L 170.579782 76.30849 
L 171.229091 76.012788 
L 171.8784 75.327355 
L 172.527709 76.563846 
L 173.177018 77.343367 
L 173.826327 78.526074 
L 175.124945 76.026227 
L 175.774255 75.703691 
L 176.423564 76.805763 
L 177.072873 75.71713 
L 177.722182 76.05312 
L 178.371491 77.034226 
L 179.0208 75.004804 
L 179.670109 77.343367 
L 180.319418 77.652479 
L 180.968727 75.219842 
L 181.618036 74.588151 
L 182.267345 74.85696 
L 182.916655 73.647361 
L 183.565964 74.238721 
L 184.215273 73.969898 
L 184.864582 72.827508 
L 186.1632 76.012803 
L 187.461818 73.902731 
L 188.111127 75.367672 
L 188.760436 75.354233 
L 189.409745 72.908157 
L 190.708364 75.219828 
L 191.357673 73.79519 
L 192.656291 76.44288 
L 193.3056 75.246706 
L 193.954909 72.625923 
L 194.604218 72.007685 
L 195.253527 73.2576 
L 195.902836 72.800645 
L 196.552145 74.426868 
L 197.201455 74.104331 
L 197.850764 75.703691 
L 198.500073 74.413443 
L 199.149382 74.050561 
L 199.798691 72.182421 
L 200.448 73.271054 
L 201.097309 74.104317 
L 201.746618 75.475184 
L 202.395927 74.494077 
L 203.045236 74.641907 
L 203.694545 71.685133 
L 204.343855 70.448642 
L 205.642473 74.037122 
L 206.291782 72.451201 
L 206.941091 71.241602 
L 207.5904 72.706557 
L 208.239709 73.822097 
L 208.889018 72.464655 
L 209.538327 73.029137 
L 210.187636 75.071999 
L 210.836945 72.07488 
L 211.486255 73.835507 
L 212.135564 73.082893 
L 213.434182 74.158087 
L 214.083491 71.349115 
L 214.7328 70.233589 
L 215.382109 69.695999 
L 216.031418 70.08576 
L 216.680727 72.021109 
L 217.330036 72.854401 
L 217.979345 72.155514 
L 218.628655 73.311357 
L 219.927273 71.550729 
L 220.576582 72.652801 
L 221.225891 73.176966 
L 221.8752 71.510383 
L 222.524509 71.120651 
L 223.173818 69.239043 
L 223.823127 69.279375 
L 225.121745 72.249587 
L 225.771055 70.93249 
L 226.420364 71.120637 
L 227.069673 69.991686 
L 227.718982 68.553595 
L 228.368291 70.314237 
L 229.0176 73.029137 
L 229.666909 71.375993 
L 230.316218 70.784647 
L 230.965527 69.964808 
L 231.614836 69.601911 
L 232.264145 69.373448 
L 232.913455 71.053442 
L 233.562764 70.327677 
L 234.212073 70.179833 
L 234.861382 69.050868 
L 235.510691 67.343982 
L 236.16 66.927358 
L 236.809309 67.088641 
L 237.458618 66.537597 
L 238.757236 68.4864 
L 239.406545 68.284815 
L 240.055855 69.346556 
L 240.705164 69.884145 
L 241.354473 69.68256 
L 242.003782 69.252454 
L 242.653091 70.905598 
L 243.3024 70.08576 
L 243.951709 68.499854 
L 244.601018 67.357436 
L 245.250327 67.989127 
L 245.899636 67.249923 
L 246.548945 66.026885 
L 247.198255 65.717759 
L 247.847564 67.209592 
L 248.496873 67.800967 
L 249.146182 67.962249 
L 249.795491 66.792968 
L 250.4448 66.107534 
L 251.094109 67.612806 
L 251.743418 65.973129 
L 252.392727 65.932783 
L 253.042036 67.008006 
L 253.691345 68.405766 
L 254.340655 66.188168 
L 254.989964 65.422086 
L 255.639273 65.314574 
L 256.288582 66.739211 
L 256.937891 66.739183 
L 257.5872 66.013461 
L 258.236509 66.739211 
L 258.885818 69.131531 
L 259.535127 68.110064 
L 260.184436 68.069762 
L 261.483055 69.27936 
L 262.132364 66.658548 
L 262.781673 65.56993 
L 263.430982 65.408647 
L 264.080291 66.376329 
L 264.7296 65.287681 
L 265.378909 66.792968 
L 266.028218 65.005433 
L 266.677527 64.561931 
L 267.326836 64.427526 
L 267.976145 64.736638 
L 270.573382 62.707215 
L 271.222691 62.156172 
L 271.872 61.847031 
L 272.521309 61.887348 
L 273.819927 62.451845 
L 274.469236 61.779836 
L 275.118545 62.31744 
L 275.767855 64.991994 
L 276.417164 65.233925 
L 277.066473 63.244791 
L 277.715782 62.855045 
L 278.365091 62.693747 
L 279.0144 62.008328 
L 279.663709 62.451845 
L 280.313018 61.994889 
L 280.962327 61.685763 
L 281.611636 60.718081 
L 282.260945 60.167038 
L 282.910255 60.839075 
L 283.559564 60.503042 
L 284.208873 60.825607 
L 285.507491 62.666869 
L 286.1568 62.344318 
L 286.806109 61.712626 
L 287.455418 60.906242 
L 288.104727 61.215368 
L 288.754036 60.744959 
L 290.052655 61.121295 
L 291.351273 59.884804 
L 292.649891 60.341745 
L 293.948509 60.086403 
L 294.597818 62.062084 
L 295.247127 62.035206 
L 295.896436 62.707186 
L 296.545745 61.336319 
L 297.195055 60.261111 
L 297.844364 59.441272 
L 298.493673 59.73696 
L 299.792291 58.876819 
L 300.4416 58.500483 
L 301.740218 58.258566 
L 302.389527 58.581117 
L 303.038836 58.554239 
L 303.688145 58.218249 
L 305.636073 57.909137 
L 306.934691 58.702068 
L 307.584 58.366093 
L 310.830545 57.479045 
L 311.479855 57.116148 
L 312.129164 56.95488 
L 312.778473 57.371533 
L 313.427782 56.820489 
L 314.077091 58.043498 
L 314.7264 57.707523 
L 315.375709 57.600011 
L 316.025018 57.331201 
L 316.674327 57.425289 
L 317.323636 56.928002 
L 317.972945 56.780158 
L 318.622255 57.344655 
L 320.570182 57.075831 
L 321.219491 56.833928 
L 321.8688 56.941441 
L 322.518109 56.914563 
L 323.816727 56.578573 
L 325.115345 56.390412 
L 325.764655 56.135027 
L 326.413964 56.229115 
L 327.063273 55.973759 
L 327.712582 56.148466 
L 329.0112 56.108163 
L 329.660509 56.000651 
L 330.959127 55.489939 
L 331.608436 55.718403 
L 332.257745 55.678086 
L 332.907055 55.516817 
L 333.556364 55.772159 
L 334.205673 55.731842 
L 336.1536 55.194237 
L 336.802909 55.35552 
L 338.101527 55.395837 
L 338.750836 55.248008 
L 339.400145 55.315189 
L 340.049455 55.113603 
L 340.698764 55.315203 
L 342.646691 54.965774 
L 343.296 55.140481 
L 343.945309 55.01953 
L 345.243927 55.167359 
L 346.542545 54.925443 
L 348.490473 54.925457 
L 349.139782 54.710418 
L 349.789091 54.858247 
L 350.4384 54.737296 
L 351.737018 55.01953 
L 352.386327 54.723828 
L 355.632873 54.952321 
L 356.282182 54.629784 
L 356.931491 54.777613 
L 357.5808 54.69695 
L 358.230109 54.49535 
L 359.528727 54.710418 
L 361.476655 54.56256 
L 362.125964 54.844808 
L 362.775273 54.737296 
L 363.424582 54.508804 
L 364.073891 54.710418 
L 364.7232 54.54915 
L 365.372509 54.737296 
L 366.021818 54.656633 
L 366.671127 54.428155 
L 367.320436 54.589438 
L 368.619055 54.670072 
L 369.268364 54.441594 
L 369.917673 54.589424 
L 371.8656 54.589424 
L 372.514909 54.696979 
L 373.164218 54.441594 
L 373.813527 54.56256 
L 375.112145 54.374399 
L 377.060073 54.670101 
L 377.709382 54.481911 
L 379.657309 54.481926 
L 380.306618 54.455033 
L 380.955927 54.616302 
L 384.202473 54.441594 
L 384.851782 54.455033 
L 385.501091 54.602877 
L 386.1504 54.49535 
L 386.799709 54.549107 
L 387.449018 54.36096 
L 388.098327 54.293765 
L 389.396945 54.508804 
L 391.994182 54.42817 
L 392.643491 54.629755 
L 393.2928 54.522229 
L 395.890036 54.481926 
L 397.188655 54.468472 
L 398.487273 54.468472 
L 398.487273 54.468472 
" clip-path="url(#p87914478c1)" style="fill: none; stroke: #1f77b4; stroke-width: 1.5; stroke-linecap: square"/>
   </g>
   <g id="line2d_14">
    <path d="M 73.832727 214.847998 
L 74.482036 69.303715 
L 75.131345 57.430523 
L 76.429964 94.484801 
L 77.079273 99.608877 
L 77.728582 100.800408 
L 78.377891 102.989816 
L 79.0272 101.352792 
L 79.676509 102.545448 
L 80.325818 99.325331 
L 80.975127 100.774857 
L 81.624436 100.214441 
L 82.923055 91.288188 
L 83.572364 94.75586 
L 84.221673 92.611845 
L 84.870982 92.534715 
L 85.520291 94.477072 
L 86.1696 94.275026 
L 86.818909 87.847076 
L 87.468218 88.036895 
L 88.117527 93.781444 
L 88.766836 90.339309 
L 89.416145 89.928236 
L 90.065455 86.302006 
L 90.714764 90.748118 
L 91.364073 90.618702 
L 92.013382 85.650589 
L 92.662691 86.698616 
L 93.312 86.046261 
L 93.961309 84.85571 
L 95.259927 84.381624 
L 95.909236 88.816676 
L 97.207855 83.210468 
L 97.857164 85.081651 
L 98.506473 81.059806 
L 99.155782 82.536844 
L 99.805091 82.650412 
L 100.4544 85.683234 
L 101.103709 90.022598 
L 101.753018 84.558466 
L 102.402327 83.011291 
L 103.051636 85.860407 
L 103.700945 81.053822 
L 104.350255 83.821381 
L 104.999564 79.905217 
L 105.648873 81.521967 
L 106.298182 83.505651 
L 106.947491 83.269559 
L 107.5968 85.462947 
L 108.246109 82.382872 
L 108.895418 84.209801 
L 109.544727 80.542245 
L 110.194036 80.584479 
L 110.843345 79.876292 
L 111.492655 81.491513 
L 112.141964 81.052091 
L 112.791273 81.167304 
L 114.089891 81.714064 
L 114.7392 78.444978 
L 115.388509 83.526314 
L 116.037818 81.624865 
L 116.687127 81.873054 
L 117.336436 80.471618 
L 117.985745 81.034831 
L 118.635055 82.756685 
L 119.284364 80.571632 
L 119.933673 81.591758 
L 120.582982 76.004958 
L 121.232291 78.346276 
L 121.8816 79.881555 
L 122.530909 77.340353 
L 123.180218 77.38951 
L 123.829527 79.019496 
L 124.478836 76.28464 
L 125.128145 77.255177 
L 125.777455 77.111746 
L 126.426764 79.022856 
L 127.076073 80.096132 
L 127.725382 79.283028 
L 128.374691 78.076731 
L 129.024 81.193547 
L 129.673309 79.103533 
L 130.322618 79.822146 
L 130.971927 80.096334 
L 131.621236 77.698377 
L 132.270545 76.272513 
L 132.919855 80.972885 
L 133.569164 76.714617 
L 134.218473 77.020095 
L 134.867782 80.2373 
L 135.517091 80.566022 
L 136.1664 77.569423 
L 136.815709 77.815809 
L 137.465018 75.633597 
L 138.114327 77.418652 
L 138.763636 78.383709 
L 139.412945 76.588085 
L 140.062255 77.459517 
L 140.711564 77.321262 
L 141.360873 76.40898 
L 142.010182 78.383666 
L 142.659491 79.509761 
L 143.3088 78.614148 
L 143.958109 76.729108 
L 144.607418 78.701617 
L 145.256727 76.254647 
L 145.906036 77.428269 
L 146.555345 77.666091 
L 147.204655 78.317019 
L 147.853964 79.289272 
L 148.503273 76.297156 
L 149.801891 78.731437 
L 150.4512 75.614405 
L 151.100509 78.871191 
L 151.749818 76.069991 
L 152.399127 80.386254 
L 153.048436 73.317153 
L 153.697745 76.956404 
L 154.347055 75.112965 
L 154.996364 75.258256 
L 155.645673 77.758939 
L 156.294982 76.85303 
L 156.944291 77.018999 
L 157.5936 74.092161 
L 158.242909 73.737325 
L 158.892218 73.034242 
L 159.541527 75.464153 
L 160.190836 76.973606 
L 160.840145 72.637401 
L 161.489455 72.553378 
L 162.138764 77.45496 
L 162.788073 76.289745 
L 163.437382 75.476309 
L 164.086691 72.492441 
L 164.736 74.477668 
L 165.385309 74.181894 
L 166.034618 80.200227 
L 166.683927 74.259933 
L 167.333236 73.483872 
L 167.982545 74.635216 
L 168.631855 70.636615 
L 169.281164 72.02395 
L 169.930473 72.568692 
L 170.579782 71.987555 
L 171.229091 71.783071 
L 171.8784 71.448581 
L 172.527709 74.501676 
L 173.177018 71.631565 
L 173.826327 73.65111 
L 174.475636 74.432217 
L 175.124945 71.164198 
L 175.774255 70.045702 
L 176.423564 75.615082 
L 177.072873 71.762076 
L 178.371491 75.217074 
L 179.0208 71.057638 
L 179.670109 76.803499 
L 180.968727 73.049497 
L 181.618036 72.375585 
L 182.267345 71.037277 
L 182.916655 70.869578 
L 183.565964 72.422968 
L 184.215273 71.097407 
L 184.864582 69.308041 
L 185.513891 70.67376 
L 186.1632 73.199201 
L 186.812509 74.515534 
L 187.461818 71.112547 
L 188.111127 71.756727 
L 188.760436 69.814499 
L 189.409745 68.970926 
L 190.059055 73.135928 
L 191.357673 70.592247 
L 192.006982 69.637441 
L 192.656291 73.286843 
L 193.3056 70.102169 
L 193.954909 71.241011 
L 194.604218 69.861002 
L 195.253527 69.163326 
L 195.902836 69.274515 
L 196.552145 72.444511 
L 197.201455 70.073243 
L 197.850764 75.053095 
L 198.500073 70.394511 
L 199.149382 71.124847 
L 199.798691 69.466483 
L 200.448 72.343833 
L 201.097309 71.446504 
L 201.746618 72.812858 
L 202.395927 71.358401 
L 203.045236 70.250287 
L 203.694545 69.501652 
L 204.343855 66.41829 
L 205.642473 73.141119 
L 206.291782 67.928075 
L 206.941091 69.792884 
L 207.5904 70.743868 
L 208.239709 67.986705 
L 209.538327 70.637538 
L 210.187636 72.75345 
L 210.836945 68.383733 
L 211.486255 70.5903 
L 212.135564 69.630505 
L 212.784873 69.259807 
L 213.434182 70.920652 
L 214.083491 67.196614 
L 214.7328 65.997614 
L 215.382109 68.259292 
L 216.031418 66.987992 
L 216.680727 69.670246 
L 217.330036 69.753966 
L 217.979345 70.380293 
L 218.628655 69.104365 
L 219.277964 70.356934 
L 219.927273 67.520348 
L 220.576582 71.032101 
L 222.524509 67.001878 
L 223.173818 66.307663 
L 223.823127 66.54883 
L 224.472436 69.033651 
L 225.121745 69.636115 
L 225.771055 67.441761 
L 226.420364 68.498988 
L 227.069673 67.679439 
L 227.718982 67.272216 
L 228.368291 67.96473 
L 229.0176 70.753414 
L 229.666909 67.185079 
L 230.316218 69.589554 
L 230.965527 65.721047 
L 231.614836 69.017472 
L 232.264145 66.180079 
L 232.913455 70.654481 
L 233.562764 69.786424 
L 234.212073 67.748955 
L 234.861382 69.317082 
L 235.510691 64.90056 
L 236.16 65.753332 
L 236.809309 63.343695 
L 237.458618 65.799071 
L 238.757236 66.062487 
L 239.406545 65.938205 
L 240.055855 67.440146 
L 240.705164 67.185151 
L 241.354473 67.858587 
L 242.003782 67.257133 
L 242.653091 69.843915 
L 243.951709 65.897585 
L 244.601018 66.224981 
L 245.250327 65.723988 
L 245.899636 64.435082 
L 246.548945 63.52962 
L 247.198255 64.85795 
L 247.847564 63.727687 
L 248.496873 67.08505 
L 249.146182 66.587763 
L 249.795491 63.437148 
L 250.4448 63.587558 
L 251.094109 63.930801 
L 251.743418 65.177819 
L 252.392727 64.338903 
L 253.042036 64.721815 
L 253.691345 68.975757 
L 254.340655 64.385911 
L 254.989964 65.170897 
L 255.639273 63.293659 
L 256.288582 65.63799 
L 256.937891 63.70228 
L 257.5872 63.960102 
L 258.236509 64.508968 
L 258.885818 69.046989 
L 260.184436 65.430291 
L 260.833745 68.060418 
L 261.483055 67.122945 
L 262.132364 65.933865 
L 262.781673 63.823375 
L 263.430982 63.784846 
L 264.080291 64.473524 
L 264.7296 64.481859 
L 265.378909 63.718199 
L 266.028218 62.235869 
L 266.677527 62.880654 
L 267.326836 62.37297 
L 267.976145 64.668765 
L 268.625455 62.653286 
L 269.274764 61.911616 
L 269.924073 61.901393 
L 270.573382 61.201035 
L 271.222691 61.951688 
L 271.872 61.061612 
L 272.521309 61.630896 
L 273.170618 60.888996 
L 273.819927 60.725997 
L 274.469236 60.786559 
L 275.118545 61.417775 
L 275.767855 62.47444 
L 276.417164 64.358947 
L 277.715782 62.016086 
L 278.365091 62.637021 
L 279.0144 60.632832 
L 279.663709 62.156864 
L 280.313018 60.158357 
L 280.962327 59.482397 
L 281.611636 58.094544 
L 282.260945 59.054353 
L 282.910255 59.052896 
L 283.559564 59.920867 
L 284.208873 59.652317 
L 284.858182 59.855287 
L 285.507491 59.205196 
L 286.1568 60.712025 
L 286.806109 59.756282 
L 287.455418 58.127867 
L 288.104727 60.097795 
L 288.754036 58.703481 
L 289.403345 58.79643 
L 290.052655 58.345098 
L 290.701964 59.168152 
L 291.351273 58.061883 
L 292.000582 59.109305 
L 292.649891 59.379557 
L 293.2992 60.41752 
L 293.948509 59.664285 
L 294.597818 61.06428 
L 295.247127 61.445966 
L 295.896436 60.680777 
L 296.545745 60.665882 
L 297.195055 59.157669 
L 297.844364 58.066108 
L 298.493673 58.757295 
L 299.142982 59.145643 
L 299.792291 58.26729 
L 300.4416 57.658727 
L 301.090909 57.405145 
L 301.740218 57.544986 
L 302.389527 58.006282 
L 303.038836 57.998264 
L 303.688145 57.309341 
L 304.986764 56.705623 
L 305.636073 56.544542 
L 306.285382 57.254907 
L 306.934691 57.662649 
L 308.233309 58.088242 
L 308.882618 57.413508 
L 309.531927 57.617804 
L 310.181236 56.98121 
L 311.479855 56.535718 
L 312.129164 56.697851 
L 312.778473 56.374867 
L 313.427782 56.479611 
L 314.077091 56.246216 
L 314.7264 56.228985 
L 315.375709 57.022623 
L 316.025018 56.108596 
L 316.674327 56.90692 
L 317.323636 56.877475 
L 317.972945 56.21282 
L 318.622255 56.236151 
L 321.219491 57.127366 
L 321.8688 56.800187 
L 322.518109 56.629286 
L 323.167418 56.191782 
L 323.816727 56.090629 
L 324.466036 56.112691 
L 325.115345 55.751121 
L 326.413964 55.884127 
L 327.063273 55.642037 
L 328.361891 55.715303 
L 329.660509 55.229594 
L 330.959127 55.075017 
L 331.608436 55.356256 
L 332.257745 55.384705 
L 333.556364 55.253415 
L 334.205673 55.465714 
L 334.854982 55.151368 
L 336.1536 54.875724 
L 336.802909 55.191945 
L 338.101527 55.240221 
L 338.750836 55.021102 
L 339.400145 55.090575 
L 340.698764 54.932623 
L 341.997382 54.858593 
L 343.945309 54.687823 
L 344.594618 54.834902 
L 345.243927 54.539417 
L 345.893236 54.669697 
L 349.139782 54.613129 
L 349.789091 54.368963 
L 351.087709 54.566597 
L 352.386327 54.504276 
L 353.035636 54.396822 
L 353.684945 54.556028 
L 357.5808 54.499619 
L 358.230109 54.398451 
L 359.528727 54.430924 
L 360.827345 54.390549 
L 361.476655 54.412539 
L 362.125964 54.699834 
L 362.775273 54.675955 
L 363.424582 54.430246 
L 364.073891 54.460671 
L 364.7232 54.370895 
L 365.372509 54.693432 
L 366.021818 54.394644 
L 366.671127 54.224494 
L 367.320436 54.415163 
L 369.268364 54.294702 
L 369.917673 54.551111 
L 370.566982 54.389352 
L 372.514909 54.52269 
L 373.164218 54.167233 
L 373.813527 54.593476 
L 375.112145 54.226498 
L 375.761455 54.52605 
L 376.410764 54.651211 
L 377.060073 54.615898 
L 377.709382 54.342792 
L 379.008 54.427449 
L 381.605236 54.494644 
L 382.903855 54.315322 
L 383.553164 54.202821 
L 385.501091 54.570548 
L 386.799709 54.323397 
L 387.449018 54.330261 
L 388.747636 54.219519 
L 390.046255 54.39822 
L 391.344873 54.246195 
L 391.994182 54.217817 
L 392.643491 54.611327 
L 394.591418 54.467708 
L 395.240727 54.510621 
L 395.890036 54.323397 
L 396.539345 54.308934 
L 397.188655 54.504247 
L 397.837964 54.383094 
L 398.487273 54.384825 
L 398.487273 54.384825 
" clip-path="url(#p87914478c1)" style="fill: none; stroke: #ff7f0e; stroke-width: 1.5; stroke-linecap: square"/>
   </g>
   <g id="line2d_15">
    <path d="M 73.832727 134.207995 
L 74.482036 280.692779 
L 75.131345 288.884056 
L 75.780655 247.900903 
L 76.429964 198.082423 
L 77.079273 172.752015 
L 77.728582 158.635069 
L 78.377891 155.506011 
L 79.0272 149.616934 
L 79.676509 138.636529 
L 80.325818 141.997598 
L 80.975127 134.899644 
L 81.624436 130.000455 
L 82.273745 129.433493 
L 82.923055 133.4513 
L 83.572364 128.255646 
L 84.221673 129.484783 
L 84.870982 132.274203 
L 85.520291 122.766078 
L 86.1696 124.030024 
L 86.818909 126.72563 
L 87.468218 124.938571 
L 88.117527 122.132987 
L 88.766836 120.123954 
L 89.416145 117.220591 
L 90.065455 118.934398 
L 90.714764 112.057799 
L 91.364073 111.892839 
L 92.013382 112.583362 
L 92.662691 111.619112 
L 93.312 114.138843 
L 93.961309 114.345 
L 94.610618 114.00043 
L 95.259927 107.61597 
L 95.909236 106.277633 
L 96.558545 109.365293 
L 97.207855 113.764007 
L 97.857164 108.441951 
L 98.506473 112.505555 
L 99.155782 104.840479 
L 99.805091 114.911054 
L 100.4544 109.226519 
L 101.103709 106.429211 
L 101.753018 108.761171 
L 102.402327 105.416497 
L 103.051636 109.799292 
L 103.700945 108.633788 
L 104.350255 101.643664 
L 104.999564 105.560231 
L 105.648873 103.883872 
L 106.298182 110.053307 
L 106.947491 110.401049 
L 107.5968 104.834711 
L 108.246109 109.799869 
L 108.895418 102.368001 
L 109.544727 100.630012 
L 110.194036 102.467525 
L 110.843345 107.834195 
L 111.492655 96.651094 
L 112.141964 98.689674 
L 112.791273 99.635121 
L 113.440582 105.476209 
L 114.089891 102.174202 
L 114.7392 107.513649 
L 115.388509 101.32714 
L 116.037818 102.110064 
L 116.687127 100.502904 
L 117.985745 95.464192 
L 118.635055 94.146187 
L 119.284364 95.471301 
L 119.933673 95.390479 
L 120.582982 98.21266 
L 121.232291 95.918653 
L 121.8816 92.286079 
L 122.530909 97.143724 
L 123.180218 93.057164 
L 123.829527 97.333471 
L 124.478836 98.674865 
L 125.128145 95.254416 
L 125.777455 97.275461 
L 127.076073 94.404009 
L 127.725382 89.734163 
L 128.374691 92.613835 
L 129.024 93.691783 
L 129.673309 95.947305 
L 130.322618 90.533411 
L 130.971927 92.481291 
L 131.621236 92.631485 
L 132.270545 96.922773 
L 132.919855 90.691781 
L 133.569164 92.307535 
L 134.218473 90.758341 
L 134.867782 91.628316 
L 135.517091 92.187016 
L 136.1664 91.112298 
L 136.815709 92.488212 
L 137.465018 98.73782 
L 138.114327 91.242204 
L 138.763636 88.220312 
L 139.412945 93.363018 
L 140.062255 91.259262 
L 140.711564 92.913531 
L 142.010182 86.697794 
L 142.659491 89.25865 
L 143.3088 89.714985 
L 143.958109 92.280801 
L 144.607418 87.689168 
L 145.256727 89.602196 
L 145.906036 91.081238 
L 146.555345 86.263376 
L 147.204655 92.00246 
L 147.853964 92.044912 
L 148.503273 89.742469 
L 149.152582 88.881492 
L 149.801891 89.446392 
L 150.4512 91.971372 
L 151.100509 87.242435 
L 151.749818 92.502257 
L 152.399127 90.489964 
L 153.048436 95.068822 
L 153.697745 84.60644 
L 154.347055 84.363095 
L 154.996364 89.710371 
L 155.645673 83.87172 
L 156.294982 90.062006 
L 156.944291 86.338416 
L 158.242909 84.698508 
L 158.892218 92.626294 
L 159.541527 85.398823 
L 160.190836 81.26168 
L 160.840145 88.063889 
L 161.489455 82.748004 
L 162.138764 84.354977 
L 162.788073 85.165904 
L 163.437382 82.210948 
L 164.086691 85.136603 
L 164.736 79.189243 
L 165.385309 85.183496 
L 166.034618 86.70783 
L 166.683927 89.499846 
L 167.333236 86.369677 
L 167.982545 80.569959 
L 168.631855 83.670784 
L 169.281164 85.396617 
L 169.930473 85.17271 
L 170.579782 84.106182 
L 171.229091 84.163053 
L 172.527709 80.805344 
L 173.177018 87.464107 
L 173.826327 87.673652 
L 174.475636 83.007729 
L 175.124945 85.154657 
L 175.774255 85.973716 
L 176.423564 79.652818 
L 177.072873 83.377144 
L 177.722182 80.752482 
L 178.371491 80.643701 
L 179.0208 82.343305 
L 179.670109 79.534347 
L 180.319418 82.877953 
L 180.968727 79.943141 
L 181.618036 78.461416 
L 182.267345 81.72808 
L 182.916655 78.770153 
L 183.565964 77.383453 
L 184.215273 79.573971 
L 184.864582 79.268738 
L 185.513891 81.79914 
L 186.1632 81.513286 
L 186.812509 75.837922 
L 187.461818 79.043375 
L 188.111127 80.881349 
L 188.760436 85.66087 
L 189.409745 80.12438 
L 190.059055 76.743989 
L 190.708364 81.801216 
L 191.357673 79.806746 
L 192.006982 86.119008 
L 192.656291 82.027863 
L 193.3056 84.746136 
L 193.954909 75.671434 
L 194.604218 76.000315 
L 195.253527 80.476636 
L 195.902836 79.034795 
L 196.552145 78.043018 
L 197.201455 81.549941 
L 197.850764 77.763553 
L 198.500073 81.659443 
L 199.149382 79.737936 
L 200.448 75.069519 
L 201.097309 78.804083 
L 201.746618 79.810971 
L 202.395927 80.327653 
L 203.045236 82.886936 
L 203.694545 76.194749 
L 204.343855 77.660208 
L 204.993164 77.839818 
L 205.642473 76.371244 
L 206.291782 80.764219 
L 206.941091 73.714239 
L 207.5904 76.881379 
L 208.239709 84.417327 
L 208.889018 78.242989 
L 209.538327 77.722414 
L 210.187636 80.079204 
L 210.836945 79.021097 
L 211.486255 80.128922 
L 212.135564 79.70219 
L 212.784873 82.335057 
L 213.434182 79.927568 
L 214.7328 77.46403 
L 215.382109 72.627466 
L 216.031418 75.284586 
L 216.680727 76.714199 
L 217.330036 78.524776 
L 217.979345 75.726762 
L 218.628655 80.58396 
L 219.277964 76.370206 
L 219.927273 78.070127 
L 220.576582 75.90581 
L 221.225891 79.220779 
L 221.8752 77.709523 
L 222.524509 78.574393 
L 223.173818 74.823968 
L 223.823127 73.5592 
L 224.472436 73.90563 
L 225.121745 77.683265 
L 225.771055 77.35186 
L 226.420364 75.51279 
L 227.069673 74.623378 
L 227.718982 71.229346 
L 229.0176 78.06335 
L 229.666909 78.121778 
L 230.316218 72.934891 
L 230.965527 77.460627 
L 231.614836 70.952562 
L 232.264145 74.765035 
L 232.913455 72.216105 
L 233.562764 71.667095 
L 234.212073 74.599729 
L 234.861382 68.97629 
L 235.510691 71.199613 
L 236.16 69.384364 
L 236.809309 73.887187 
L 237.458618 68.357576 
L 238.757236 72.699866 
L 239.406545 72.35136 
L 240.055855 72.659838 
L 240.705164 74.374741 
L 242.003782 72.937919 
L 242.653091 73.648659 
L 243.3024 74.110272 
L 243.951709 72.757847 
L 244.601018 69.360802 
L 245.250327 71.59168 
L 245.899636 72.168016 
L 246.548945 70.190474 
L 247.198255 67.798357 
L 247.847564 73.218336 
L 248.496873 69.45649 
L 249.146182 70.120266 
L 249.795491 72.798208 
L 250.4448 70.779874 
L 251.094109 75.278602 
L 251.743418 67.741832 
L 252.392727 68.799247 
L 253.042036 71.073153 
L 253.691345 67.754406 
L 254.340655 69.36706 
L 254.989964 65.959777 
L 255.639273 69.376664 
L 256.288582 68.166647 
L 256.937891 72.73195 
L 257.5872 69.274371 
L 258.236509 70.484489 
L 258.885818 69.776172 
L 259.535127 70.1255 
L 260.184436 72.543227 
L 260.833745 69.997079 
L 261.483055 72.505318 
L 262.132364 67.992386 
L 262.781673 68.534057 
L 263.430982 68.726024 
L 264.080291 69.276837 
L 264.7296 66.988035 
L 265.378909 72.447914 
L 266.028218 69.402676 
L 266.677527 67.843014 
L 267.326836 67.888926 
L 267.976145 64.769644 
L 268.625455 67.289519 
L 269.274764 67.677867 
L 269.924073 65.912524 
L 270.573382 65.554674 
L 271.222691 62.82759 
L 271.872 63.375259 
L 272.521309 62.518636 
L 273.170618 64.298384 
L 273.819927 65.031763 
L 274.469236 63.526434 
L 275.118545 63.73732 
L 275.767855 69.310362 
L 276.417164 67.185987 
L 277.066473 63.94796 
L 277.715782 64.415933 
L 278.365091 63.02619 
L 279.0144 64.947856 
L 279.663709 63.052434 
L 280.313018 65.465936 
L 280.962327 65.405417 
L 281.611636 64.961684 
L 282.260945 62.494008 
L 282.910255 63.863289 
L 283.559564 61.559101 
L 284.208873 62.72263 
L 284.858182 64.850091 
L 285.507491 67.909272 
L 286.1568 65.333089 
L 286.806109 65.708761 
L 287.455418 65.551112 
L 288.104727 63.646808 
L 289.403345 65.006111 
L 290.052655 66.00517 
L 290.701964 62.616329 
L 291.351273 62.971122 
L 292.000582 61.719851 
L 292.649891 62.131702 
L 293.2992 60.34871 
L 293.948509 61.17893 
L 294.597818 63.923836 
L 295.247127 63.006536 
L 295.896436 65.728891 
L 296.545745 62.856804 
L 297.844364 61.711718 
L 298.493673 61.177949 
L 299.142982 59.699195 
L 299.792291 60.184399 
L 300.4416 60.033657 
L 301.090909 60.436539 
L 301.740218 59.912475 
L 302.389527 60.025726 
L 303.038836 59.878459 
L 303.688145 59.85497 
L 304.337455 60.043548 
L 304.986764 60.681325 
L 305.636073 60.257174 
L 306.285382 60.036685 
L 306.934691 60.469545 
L 307.584 59.029666 
L 308.233309 58.444751 
L 308.882618 59.022572 
L 309.531927 58.483973 
L 310.181236 58.861174 
L 310.830545 58.713864 
L 311.479855 58.15972 
L 312.129164 57.39407 
L 312.778473 58.940251 
L 313.427782 57.549931 
L 314.077091 61.088894 
L 314.7264 60.20747 
L 315.375709 58.747216 
L 316.025018 59.479859 
L 316.674327 58.485169 
L 317.323636 57.241944 
L 317.972945 57.671229 
L 318.622255 59.033401 
L 319.920873 58.556489 
L 320.570182 57.899635 
L 321.219491 56.689891 
L 321.8688 57.331158 
L 323.167418 57.762288 
L 323.816727 57.376219 
L 324.466036 57.154201 
L 325.115345 57.314215 
L 325.764655 56.533468 
L 326.413964 56.733165 
L 327.063273 56.563504 
L 327.712582 56.938413 
L 328.361891 56.85501 
L 329.0112 57.181267 
L 329.660509 57.232254 
L 330.959127 56.165438 
L 331.608436 56.382582 
L 332.907055 55.855807 
L 333.556364 56.483519 
L 334.205673 56.060636 
L 334.854982 56.083809 
L 335.504291 55.629189 
L 336.802909 55.65213 
L 338.101527 55.54756 
L 338.750836 55.53141 
L 339.400145 55.660696 
L 340.049455 55.306176 
L 340.698764 55.964977 
L 341.348073 55.754855 
L 341.997382 55.771323 
L 342.646691 55.291382 
L 343.296 55.607963 
L 344.594618 55.534438 
L 345.243927 56.189288 
L 345.893236 55.488411 
L 347.191855 55.333256 
L 348.490473 55.492996 
L 349.139782 54.869163 
L 349.789091 55.652592 
L 350.4384 55.113661 
L 351.087709 55.273141 
L 351.737018 55.700551 
L 352.386327 55.0501 
L 353.035636 55.326436 
L 353.684945 55.349046 
L 354.983564 55.096761 
L 355.632873 55.420898 
L 356.282182 54.83744 
L 356.931491 55.297251 
L 358.230109 54.647116 
L 359.528727 55.155406 
L 360.827345 55.003481 
L 361.476655 54.804347 
L 362.125964 55.074973 
L 362.775273 54.789437 
L 363.424582 54.625631 
L 364.073891 55.109753 
L 364.7232 54.784016 
L 365.372509 54.873489 
L 366.021818 55.1009 
L 366.671127 54.754441 
L 368.619055 55.036531 
L 369.268364 54.675955 
L 369.917673 54.683252 
L 370.566982 54.806683 
L 371.216291 54.562589 
L 372.514909 54.962732 
L 373.164218 54.939415 
L 373.813527 54.548631 
L 374.462836 54.489352 
L 375.112145 54.570794 
L 375.761455 54.515725 
L 376.410764 54.756734 
L 379.008 54.807231 
L 379.657309 54.545458 
L 380.306618 54.439734 
L 380.955927 54.782026 
L 382.254545 54.698508 
L 382.903855 54.932032 
L 384.851782 54.392222 
L 385.501091 54.659315 
L 386.1504 54.575307 
L 386.799709 54.904015 
L 387.449018 54.426886 
L 388.098327 54.431688 
L 388.747636 54.801377 
L 390.695564 54.779127 
L 391.344873 54.93917 
L 393.2928 54.454932 
L 394.591418 54.635811 
L 395.890036 54.735422 
L 397.188655 54.435178 
L 397.837964 54.785717 
L 398.487273 54.635811 
L 398.487273 54.635811 
" clip-path="url(#p87914478c1)" style="fill: none; stroke: #2ca02c; stroke-width: 1.5; stroke-linecap: square"/>
   </g>
   <g id="line2d_16">
    <path d="M 73.832727 192.26879 
L 74.482036 145.766394 
L 75.131345 145.766394 
L 76.429964 140.995194 
L 77.079273 158.131206 
L 77.728582 163.439996 
L 78.377891 182.793599 
L 79.0272 161.087994 
L 79.676509 170.563199 
L 80.325818 166.799998 
L 80.975127 160.415985 
L 81.624436 156.182403 
L 82.273745 154.569605 
L 82.923055 163.104006 
L 83.572364 165.120004 
L 84.221673 147.984006 
L 84.870982 162.499192 
L 85.520291 159.542405 
L 86.1696 153.427186 
L 86.818909 145.228804 
L 87.468218 153.628801 
L 88.117527 142.339183 
L 88.766836 161.289593 
L 89.416145 143.145611 
L 90.065455 143.683186 
L 90.714764 158.131192 
L 91.364073 156.383988 
L 92.013382 150.940794 
L 92.662691 161.423998 
L 93.312 156.182403 
L 93.961309 156.451198 
L 94.610618 176.140798 
L 95.259927 155.443199 
L 95.909236 158.198387 
L 96.558545 149.193591 
L 97.207855 156.384003 
L 97.857164 146.505612 
L 98.506473 150.134394 
L 99.155782 160.281609 
L 99.805091 159.54239 
L 100.4544 158.534406 
L 101.103709 151.142393 
L 101.753018 166.867193 
L 102.402327 163.843181 
L 103.051636 143.95201 
L 103.700945 153.964805 
L 104.350255 150.671999 
L 104.999564 154.905595 
L 105.648873 166.732803 
L 106.298182 142.406407 
L 106.947491 142.473602 
L 107.5968 145.497613 
L 108.895418 134.880004 
L 109.544727 146.303984 
L 110.194036 143.011192 
L 110.843345 180.911999 
L 111.492655 136.963197 
L 112.141964 131.452793 
L 112.791273 156.518393 
L 113.440582 153.49441 
L 114.089891 130.108789 
L 114.7392 163.305591 
L 115.388509 148.521596 
L 116.037818 147.916811 
L 116.687127 154.972804 
L 117.336436 137.971196 
L 117.985745 137.231992 
L 118.635055 150.134394 
L 119.284364 143.750396 
L 119.933673 160.012799 
L 120.582982 149.4624 
L 121.232291 152.486397 
L 121.8816 156.652783 
L 122.530909 151.276798 
L 123.180218 150.268785 
L 123.829527 145.900798 
L 124.478836 150.739194 
L 125.128145 148.118396 
L 125.777455 155.107194 
L 126.426764 154.56959 
L 127.076073 153.292796 
L 127.725382 143.212806 
L 128.374691 148.857586 
L 129.024 163.843196 
L 129.673309 164.246395 
L 130.322618 170.495989 
L 130.971927 154.6368 
L 131.621236 157.123193 
L 132.270545 149.193605 
L 132.919855 158.063996 
L 134.218473 143.212806 
L 134.867782 142.675202 
L 135.517091 157.324792 
L 136.1664 149.529581 
L 136.815709 164.1792 
L 137.465018 148.454401 
L 138.114327 159.2064 
L 138.763636 162.163188 
L 140.062255 139.583995 
L 140.711564 147.177592 
L 141.360873 160.348804 
L 142.010182 150.067199 
L 142.659491 156.787202 
L 143.3088 142.003193 
L 143.958109 149.932795 
L 144.607418 150.403204 
L 145.256727 146.975993 
L 145.906036 146.102398 
L 146.555345 148.790405 
L 147.204655 153.292796 
L 147.853964 149.327995 
L 148.503273 147.715197 
L 149.152582 156.182403 
L 149.801891 149.4624 
L 150.4512 159.004786 
L 151.100509 156.720007 
L 151.749818 149.39519 
L 152.399127 154.8384 
L 153.048436 149.664 
L 153.697745 153.158392 
L 154.347055 149.12641 
L 154.996364 155.375989 
L 155.645673 152.889597 
L 156.294982 159.8112 
L 156.944291 151.612803 
L 157.5936 145.900784 
L 158.242909 158.131206 
L 158.892218 163.574401 
L 159.541527 147.580806 
L 160.190836 154.771204 
L 161.489455 154.30081 
L 162.138764 168.547201 
L 162.788073 145.430389 
L 163.437382 158.400001 
L 164.086691 165.859194 
L 164.736 144.288 
L 165.385309 157.459197 
L 166.034618 150.470399 
L 166.683927 156.451198 
L 167.333236 142.339197 
L 167.982545 165.052795 
L 169.930473 143.212806 
L 170.579782 157.929606 
L 171.229091 150.268814 
L 171.8784 153.091211 
L 172.527709 147.311997 
L 173.177018 157.055983 
L 173.826327 145.430389 
L 174.475636 152.083197 
L 175.124945 149.126395 
L 175.774255 154.368005 
L 176.423564 154.099195 
L 177.072873 156.182403 
L 177.722182 154.032 
L 178.371491 148.319996 
L 179.0208 145.766394 
L 179.670109 155.241599 
L 180.319418 151.948807 
L 180.968727 140.726384 
L 181.618036 145.632004 
L 182.267345 147.782392 
L 182.916655 137.366397 
L 183.565964 156.719993 
L 184.215273 151.343993 
L 184.864582 149.731195 
L 185.513891 140.726399 
L 186.1632 159.8112 
L 186.812509 144.556795 
L 187.461818 149.664 
L 188.111127 139.65119 
L 188.760436 145.900798 
L 189.409745 150.739194 
L 190.059055 145.02719 
L 190.708364 151.209603 
L 191.357673 153.763191 
L 192.006982 160.348789 
L 192.656291 152.755206 
L 193.3056 159.74399 
L 193.954909 153.49441 
L 194.604218 152.822401 
L 195.253527 148.723196 
L 195.902836 147.513597 
L 196.552145 151.276798 
L 197.201455 148.790405 
L 197.850764 156.316808 
L 198.500073 148.454401 
L 199.149382 146.505598 
L 199.798691 152.486397 
L 200.448 147.513597 
L 201.097309 141.331198 
L 201.746618 152.419202 
L 202.395927 145.833603 
L 203.045236 150.134394 
L 203.694545 152.889597 
L 204.343855 155.039985 
L 205.642473 143.414406 
L 206.291782 150.134394 
L 206.941091 153.561606 
L 207.5904 150.470399 
L 208.239709 143.280001 
L 208.889018 153.091196 
L 209.538327 148.723181 
L 210.187636 146.774393 
L 210.836945 148.252787 
L 211.486255 153.292796 
L 212.135564 153.023987 
L 212.784873 146.975993 
L 213.434182 151.276798 
L 214.083491 152.351992 
L 214.7328 153.830401 
L 215.382109 147.311997 
L 216.031418 159.6096 
L 216.680727 143.750396 
L 217.330036 147.647987 
L 217.979345 158.198387 
L 218.628655 152.553592 
L 219.277964 152.150407 
L 219.927273 156.316793 
L 220.576582 144.153595 
L 221.225891 153.091196 
L 221.8752 155.308794 
L 222.524509 150.201604 
L 223.173818 149.126395 
L 223.823127 151.478398 
L 224.472436 160.550404 
L 225.121745 150.671999 
L 225.771055 149.79839 
L 226.420364 142.272002 
L 227.069673 160.684808 
L 227.718982 146.572793 
L 228.368291 146.572793 
L 229.0176 151.814402 
L 229.666909 146.841602 
L 230.316218 147.513597 
L 230.965527 147.580792 
L 231.614836 146.707198 
L 232.264145 153.494396 
L 232.913455 157.324792 
L 233.562764 150.671999 
L 234.212073 155.913594 
L 234.861382 167.404797 
L 235.510691 153.091196 
L 236.16 155.644799 
L 236.809309 149.462414 
L 237.458618 148.387206 
L 238.107927 151.209589 
L 238.757236 148.118396 
L 239.406545 173.183996 
L 240.055855 145.699199 
L 240.705164 148.588791 
L 241.354473 163.372815 
L 242.003782 163.171201 
L 242.653091 151.545593 
L 243.3024 143.615991 
L 243.951709 151.948807 
L 244.601018 172.982397 
L 245.250327 153.024001 
L 245.899636 147.782392 
L 246.548945 150.671984 
L 247.198255 146.572793 
L 247.847564 147.983992 
L 248.496873 152.956792 
L 249.146182 149.99999 
L 249.795491 145.766394 
L 251.094109 147.580806 
L 251.743418 153.225601 
L 252.392727 157.257597 
L 253.042036 146.707183 
L 253.691345 171.772798 
L 254.340655 153.091196 
L 254.989964 143.95201 
L 255.639273 148.991991 
L 256.937891 151.612788 
L 257.5872 151.948807 
L 258.236509 166.262393 
L 258.885818 158.131206 
L 259.535127 144.75838 
L 260.184436 157.526392 
L 260.833745 149.327995 
L 261.483055 151.007989 
L 262.132364 149.327995 
L 262.781673 155.510394 
L 263.430982 154.56959 
L 264.080291 159.54239 
L 264.7296 155.913594 
L 265.378909 146.303998 
L 266.028218 151.411203 
L 266.677527 147.580806 
L 267.326836 152.352007 
L 267.976145 151.411203 
L 268.625455 157.257597 
L 269.274764 147.782392 
L 269.924073 147.311997 
L 270.573382 150.604804 
L 271.222691 148.723196 
L 271.872 147.513597 
L 272.521309 145.497599 
L 273.170618 149.193591 
L 273.819927 147.043188 
L 274.469236 148.991991 
L 275.118545 147.849587 
L 275.767855 156.518393 
L 276.417164 149.529581 
L 277.066473 144.62399 
L 277.715782 147.580792 
L 278.365091 149.327995 
L 279.0144 148.521596 
L 279.663709 148.72321 
L 280.313018 143.280001 
L 280.962327 145.632004 
L 281.611636 150.134394 
L 282.910255 148.924796 
L 283.559564 147.916782 
L 284.208873 147.648002 
L 284.858182 144.691185 
L 285.507491 145.900798 
L 286.1568 151.276798 
L 286.806109 148.185591 
L 287.455418 146.572793 
L 288.104727 143.548796 
L 289.403345 152.217588 
L 290.052655 145.833589 
L 290.701964 150.873599 
L 291.351273 146.640003 
L 292.000582 147.446402 
L 292.649891 155.241599 
L 293.948509 145.363194 
L 294.597818 149.193605 
L 295.247127 149.126395 
L 295.896436 151.411188 
L 296.545745 148.8576 
L 297.195055 147.715197 
L 297.844364 148.185606 
L 298.493673 150.20159 
L 299.142982 149.596805 
L 299.792291 150.20159 
L 300.4416 147.782392 
L 301.090909 148.319996 
L 301.740218 150.806403 
L 302.389527 150.940794 
L 303.038836 148.8576 
L 304.337455 148.185606 
L 304.986764 149.932795 
L 306.285382 151.881583 
L 306.934691 152.016002 
L 307.584 149.865599 
L 308.233309 151.142393 
L 308.882618 148.790405 
L 309.531927 150.739194 
L 310.181236 149.865599 
L 310.830545 150.537594 
L 311.479855 151.545593 
L 312.129164 149.39519 
L 312.778473 148.454401 
L 313.427782 149.327995 
L 314.077091 148.387191 
L 315.375709 150.940794 
L 316.025018 149.529581 
L 316.674327 151.881612 
L 317.323636 151.344008 
L 317.972945 149.327995 
L 318.622255 149.731195 
L 319.920873 152.351992 
L 320.570182 152.889597 
L 321.219491 151.747193 
L 321.8688 153.225601 
L 323.167418 149.932795 
L 323.816727 149.664 
L 324.466036 148.454401 
L 325.115345 149.2608 
L 325.764655 148.991991 
L 326.413964 149.664 
L 327.063273 150.671999 
L 327.712582 150.268785 
L 328.361891 148.992005 
L 329.0112 150.470399 
L 329.660509 150.940794 
L 330.309818 151.747193 
L 330.959127 150.537594 
L 331.608436 151.881583 
L 332.907055 148.790405 
L 333.556364 148.991991 
L 334.205673 148.319996 
L 334.854982 149.2608 
L 335.504291 149.193591 
L 336.1536 150.20159 
L 336.802909 148.588791 
L 337.452218 148.8576 
L 338.101527 149.596805 
L 338.750836 149.664 
L 339.400145 149.865599 
L 340.049455 149.932795 
L 340.698764 151.007989 
L 341.348073 151.142408 
L 341.997382 151.075184 
L 342.646691 150.134394 
L 343.296 149.731195 
L 343.945309 150.067199 
L 344.594618 149.0592 
L 345.243927 149.664 
L 345.893236 150.470399 
L 346.542545 149.731195 
L 347.191855 149.596805 
L 347.841164 150.470399 
L 348.490473 149.865585 
L 349.139782 150.20159 
L 349.789091 150.067199 
L 350.4384 149.126395 
L 351.087709 149.932795 
L 351.737018 149.865599 
L 352.386327 150.134394 
L 353.035636 150.604789 
L 353.684945 150.537594 
L 354.334255 150.336009 
L 354.983564 149.865599 
L 355.632873 149.664 
L 356.282182 150.403204 
L 356.931491 150.537594 
L 357.5808 149.932809 
L 358.230109 149.865599 
L 358.879418 150.067199 
L 359.528727 150.067199 
L 360.178036 150.604789 
L 360.827345 150.739194 
L 362.125964 150.537594 
L 362.775273 150.739194 
L 363.424582 150.537594 
L 364.073891 150.604789 
L 364.7232 150.873599 
L 365.372509 150.604789 
L 366.021818 151.007989 
L 366.671127 150.134394 
L 367.320436 151.612788 
L 367.969745 151.276798 
L 368.619055 151.142393 
L 369.268364 151.478398 
L 369.917673 151.679998 
L 370.566982 151.075184 
L 371.8656 150.604804 
L 372.514909 152.150393 
L 373.164218 151.612788 
L 373.813527 152.217588 
L 374.462836 151.209603 
L 375.112145 151.075198 
L 375.761455 150.739194 
L 377.060073 151.747193 
L 377.709382 151.478398 
L 378.358691 150.873599 
L 379.008 152.016002 
L 379.657309 151.612803 
L 380.955927 151.814388 
L 382.254545 150.806403 
L 382.903855 151.948778 
L 383.553164 150.403204 
L 384.202473 151.142393 
L 384.851782 150.739194 
L 385.501091 151.007989 
L 386.1504 150.604804 
L 386.799709 151.747193 
L 387.449018 151.948807 
L 388.098327 151.948793 
L 388.747636 151.276798 
L 389.396945 151.411188 
L 390.046255 152.016002 
L 390.695564 151.612788 
L 391.344873 152.351992 
L 391.994182 152.016002 
L 392.643491 151.075198 
L 393.2928 151.679998 
L 393.942109 150.940794 
L 394.591418 151.814388 
L 395.240727 151.343993 
L 395.890036 151.209603 
L 396.539345 152.351992 
L 397.188655 151.075184 
L 398.487273 150.873584 
L 398.487273 150.873584 
" clip-path="url(#p87914478c1)" style="fill: none; stroke: #d62728; stroke-width: 1.5; stroke-linecap: square"/>
   </g>
   <g id="patch_3">
    <path d="M 57.6 307.584 
L 57.6 41.472 
" style="fill: none; stroke: #000000; stroke-width: 0.8; stroke-linejoin: miter; stroke-linecap: square"/>
   </g>
   <g id="patch_4">
    <path d="M 414.72 307.584 
L 414.72 41.472 
" style="fill: none; stroke: #000000; stroke-width: 0.8; stroke-linejoin: miter; stroke-linecap: square"/>
   </g>
   <g id="patch_5">
    <path d="M 57.6 307.584 
L 414.72 307.584 
" style="fill: none; stroke: #000000; stroke-width: 0.8; stroke-linejoin: miter; stroke-linecap: square"/>
   </g>
   <g id="patch_6">
    <path d="M 57.6 41.472 
L 414.72 41.472 
" style="fill: none; stroke: #000000; stroke-width: 0.8; stroke-linejoin: miter; stroke-linecap: square"/>
   </g>
   <g id="text_13">
    <!-- green2 -->
    <g transform="translate(215.015625 35.472) scale(0.12 -0.12)">
     <defs>
      <path id="DejaVuSans-67" d="M 2906 1791 
Q 2906 2416 2648 2759 
Q 2391 3103 1925 3103 
Q 1463 3103 1205 2759 
Q 947 2416 947 1791 
Q 947 1169 1205 825 
Q 1463 481 1925 481 
Q 2391 481 2648 825 
Q 2906 1169 2906 1791 
z
M 3481 434 
Q 3481 -459 3084 -895 
Q 2688 -1331 1869 -1331 
Q 1566 -1331 1297 -1286 
Q 1028 -1241 775 -1147 
L 775 -588 
Q 1028 -725 1275 -790 
Q 1522 -856 1778 -856 
Q 2344 -856 2625 -561 
Q 2906 -266 2906 331 
L 2906 616 
Q 2728 306 2450 153 
Q 2172 0 1784 0 
Q 1141 0 747 490 
Q 353 981 353 1791 
Q 353 2603 747 3093 
Q 1141 3584 1784 3584 
Q 2172 3584 2450 3431 
Q 2728 3278 2906 2969 
L 2906 3500 
L 3481 3500 
L 3481 434 
z
" transform="scale(0.015625)"/>
      <path id="DejaVuSans-72" d="M 2631 2963 
Q 2534 3019 2420 3045 
Q 2306 3072 2169 3072 
Q 1681 3072 1420 2755 
Q 1159 2438 1159 1844 
L 1159 0 
L 581 0 
L 581 3500 
L 1159 3500 
L 1159 2956 
Q 1341 3275 1631 3429 
Q 1922 3584 2338 3584 
Q 2397 3584 2469 3576 
Q 2541 3569 2628 3553 
L 2631 2963 
z
" transform="scale(0.015625)"/>
      <path id="DejaVuSans-65" d="M 3597 1894 
L 3597 1613 
L 953 1613 
Q 991 1019 1311 708 
Q 1631 397 2203 397 
Q 2534 397 2845 478 
Q 3156 559 3463 722 
L 3463 178 
Q 3153 47 2828 -22 
Q 2503 -91 2169 -91 
Q 1331 -91 842 396 
Q 353 884 353 1716 
Q 353 2575 817 3079 
Q 1281 3584 2069 3584 
Q 2775 3584 3186 3129 
Q 3597 2675 3597 1894 
z
M 3022 2063 
Q 3016 2534 2758 2815 
Q 2500 3097 2075 3097 
Q 1594 3097 1305 2825 
Q 1016 2553 972 2059 
L 3022 2063 
z
" transform="scale(0.015625)"/>
      <path id="DejaVuSans-6e" d="M 3513 2113 
L 3513 0 
L 2938 0 
L 2938 2094 
Q 2938 2591 2744 2837 
Q 2550 3084 2163 3084 
Q 1697 3084 1428 2787 
Q 1159 2491 1159 1978 
L 1159 0 
L 581 0 
L 581 3500 
L 1159 3500 
L 1159 2956 
Q 1366 3272 1645 3428 
Q 1925 3584 2291 3584 
Q 2894 3584 3203 3211 
Q 3513 2838 3513 2113 
z
" transform="scale(0.015625)"/>
     </defs>
     <use xlink:href="#DejaVuSans-67"/>
     <use xlink:href="#DejaVuSans-72" transform="translate(63.476562 0)"/>
     <use xlink:href="#DejaVuSans-65" transform="translate(102.339844 0)"/>
     <use xlink:href="#DejaVuSans-65" transform="translate(163.863281 0)"/>
     <use xlink:href="#DejaVuSans-6e" transform="translate(225.386719 0)"/>
     <use xlink:href="#DejaVuSans-32" transform="translate(288.765625 0)"/>
    </g>
   </g>
   <g id="legend_1">
    <g id="patch_7">
     <path d="M 316.259063 302.584 
L 407.72 302.584 
Q 409.72 302.584 409.72 300.584 
L 409.72 212.40275 
Q 409.72 210.40275 407.72 210.40275 
L 316.259063 210.40275 
Q 314.259063 210.40275 314.259063 212.40275 
L 314.259063 300.584 
Q 314.259063 302.584 316.259063 302.584 
z
" style="fill: #ffffff; opacity: 0.8; stroke: #cccccc; stroke-linejoin: miter"/>
    </g>
    <g id="line2d_17">
     <path d="M 318.259063 218.501187 
L 328.259063 218.501187 
L 338.259063 218.501187 
" style="fill: none; stroke: #1f77b4; stroke-width: 1.5; stroke-linecap: square"/>
    </g>
    <g id="text_14">
     <!-- train -->
     <g transform="translate(346.259063 222.001187) scale(0.1 -0.1)">
      <defs>
       <path id="DejaVuSans-74" d="M 1172 4494 
L 1172 3500 
L 2356 3500 
L 2356 3053 
L 1172 3053 
L 1172 1153 
Q 1172 725 1289 603 
Q 1406 481 1766 481 
L 2356 481 
L 2356 0 
L 1766 0 
Q 1100 0 847 248 
Q 594 497 594 1153 
L 594 3053 
L 172 3053 
L 172 3500 
L 594 3500 
L 594 4494 
L 1172 4494 
z
" transform="scale(0.015625)"/>
       <path id="DejaVuSans-61" d="M 2194 1759 
Q 1497 1759 1228 1600 
Q 959 1441 959 1056 
Q 959 750 1161 570 
Q 1363 391 1709 391 
Q 2188 391 2477 730 
Q 2766 1069 2766 1631 
L 2766 1759 
L 2194 1759 
z
M 3341 1997 
L 3341 0 
L 2766 0 
L 2766 531 
Q 2569 213 2275 61 
Q 1981 -91 1556 -91 
Q 1019 -91 701 211 
Q 384 513 384 1019 
Q 384 1609 779 1909 
Q 1175 2209 1959 2209 
L 2766 2209 
L 2766 2266 
Q 2766 2663 2505 2880 
Q 2244 3097 1772 3097 
Q 1472 3097 1187 3025 
Q 903 2953 641 2809 
L 641 3341 
Q 956 3463 1253 3523 
Q 1550 3584 1831 3584 
Q 2591 3584 2966 3190 
Q 3341 2797 3341 1997 
z
" transform="scale(0.015625)"/>
       <path id="DejaVuSans-69" d="M 603 3500 
L 1178 3500 
L 1178 0 
L 603 0 
L 603 3500 
z
M 603 4863 
L 1178 4863 
L 1178 4134 
L 603 4134 
L 603 4863 
z
" transform="scale(0.015625)"/>
      </defs>
      <use xlink:href="#DejaVuSans-74"/>
      <use xlink:href="#DejaVuSans-72" transform="translate(39.208984 0)"/>
      <use xlink:href="#DejaVuSans-61" transform="translate(80.322266 0)"/>
      <use xlink:href="#DejaVuSans-69" transform="translate(141.601562 0)"/>
      <use xlink:href="#DejaVuSans-6e" transform="translate(169.384766 0)"/>
     </g>
    </g>
    <g id="line2d_18">
     <path d="M 318.259063 233.179312 
L 328.259063 233.179312 
L 338.259063 233.179312 
" style="fill: none; stroke: #ff7f0e; stroke-width: 1.5; stroke-linecap: square"/>
    </g>
    <g id="text_15">
     <!-- train_class0 -->
     <g transform="translate(346.259063 236.679312) scale(0.1 -0.1)">
      <defs>
       <path id="DejaVuSans-5f" d="M 3263 -1063 
L 3263 -1509 
L -63 -1509 
L -63 -1063 
L 3263 -1063 
z
" transform="scale(0.015625)"/>
       <path id="DejaVuSans-63" d="M 3122 3366 
L 3122 2828 
Q 2878 2963 2633 3030 
Q 2388 3097 2138 3097 
Q 1578 3097 1268 2742 
Q 959 2388 959 1747 
Q 959 1106 1268 751 
Q 1578 397 2138 397 
Q 2388 397 2633 464 
Q 2878 531 3122 666 
L 3122 134 
Q 2881 22 2623 -34 
Q 2366 -91 2075 -91 
Q 1284 -91 818 406 
Q 353 903 353 1747 
Q 353 2603 823 3093 
Q 1294 3584 2113 3584 
Q 2378 3584 2631 3529 
Q 2884 3475 3122 3366 
z
" transform="scale(0.015625)"/>
       <path id="DejaVuSans-6c" d="M 603 4863 
L 1178 4863 
L 1178 0 
L 603 0 
L 603 4863 
z
" transform="scale(0.015625)"/>
       <path id="DejaVuSans-73" d="M 2834 3397 
L 2834 2853 
Q 2591 2978 2328 3040 
Q 2066 3103 1784 3103 
Q 1356 3103 1142 2972 
Q 928 2841 928 2578 
Q 928 2378 1081 2264 
Q 1234 2150 1697 2047 
L 1894 2003 
Q 2506 1872 2764 1633 
Q 3022 1394 3022 966 
Q 3022 478 2636 193 
Q 2250 -91 1575 -91 
Q 1294 -91 989 -36 
Q 684 19 347 128 
L 347 722 
Q 666 556 975 473 
Q 1284 391 1588 391 
Q 1994 391 2212 530 
Q 2431 669 2431 922 
Q 2431 1156 2273 1281 
Q 2116 1406 1581 1522 
L 1381 1569 
Q 847 1681 609 1914 
Q 372 2147 372 2553 
Q 372 3047 722 3315 
Q 1072 3584 1716 3584 
Q 2034 3584 2315 3537 
Q 2597 3491 2834 3397 
z
" transform="scale(0.015625)"/>
      </defs>
      <use xlink:href="#DejaVuSans-74"/>
      <use xlink:href="#DejaVuSans-72" transform="translate(39.208984 0)"/>
      <use xlink:href="#DejaVuSans-61" transform="translate(80.322266 0)"/>
      <use xlink:href="#DejaVuSans-69" transform="translate(141.601562 0)"/>
      <use xlink:href="#DejaVuSans-6e" transform="translate(169.384766 0)"/>
      <use xlink:href="#DejaVuSans-5f" transform="translate(232.763672 0)"/>
      <use xlink:href="#DejaVuSans-63" transform="translate(282.763672 0)"/>
      <use xlink:href="#DejaVuSans-6c" transform="translate(337.744141 0)"/>
      <use xlink:href="#DejaVuSans-61" transform="translate(365.527344 0)"/>
      <use xlink:href="#DejaVuSans-73" transform="translate(426.806641 0)"/>
      <use xlink:href="#DejaVuSans-73" transform="translate(478.90625 0)"/>
      <use xlink:href="#DejaVuSans-30" transform="translate(531.005859 0)"/>
     </g>
    </g>
    <g id="line2d_19">
     <path d="M 318.259063 248.135562 
L 328.259063 248.135562 
L 338.259063 248.135562 
" style="fill: none; stroke: #2ca02c; stroke-width: 1.5; stroke-linecap: square"/>
    </g>
    <g id="text_16">
     <!-- train_class1 -->
     <g transform="translate(346.259063 251.635562) scale(0.1 -0.1)">
      <use xlink:href="#DejaVuSans-74"/>
      <use xlink:href="#DejaVuSans-72" transform="translate(39.208984 0)"/>
      <use xlink:href="#DejaVuSans-61" transform="translate(80.322266 0)"/>
      <use xlink:href="#DejaVuSans-69" transform="translate(141.601562 0)"/>
      <use xlink:href="#DejaVuSans-6e" transform="translate(169.384766 0)"/>
      <use xlink:href="#DejaVuSans-5f" transform="translate(232.763672 0)"/>
      <use xlink:href="#DejaVuSans-63" transform="translate(282.763672 0)"/>
      <use xlink:href="#DejaVuSans-6c" transform="translate(337.744141 0)"/>
      <use xlink:href="#DejaVuSans-61" transform="translate(365.527344 0)"/>
      <use xlink:href="#DejaVuSans-73" transform="translate(426.806641 0)"/>
      <use xlink:href="#DejaVuSans-73" transform="translate(478.90625 0)"/>
      <use xlink:href="#DejaVuSans-31" transform="translate(531.005859 0)"/>
     </g>
    </g>
    <g id="line2d_20">
     <path d="M 318.259063 263.091812 
L 328.259063 263.091812 
L 338.259063 263.091812 
" style="fill: none; stroke: #d62728; stroke-width: 1.5; stroke-linecap: square"/>
    </g>
    <g id="text_17">
     <!-- test -->
     <g transform="translate(346.259063 266.591812) scale(0.1 -0.1)">
      <use xlink:href="#DejaVuSans-74"/>
      <use xlink:href="#DejaVuSans-65" transform="translate(39.208984 0)"/>
      <use xlink:href="#DejaVuSans-73" transform="translate(100.732422 0)"/>
      <use xlink:href="#DejaVuSans-74" transform="translate(152.832031 0)"/>
     </g>
    </g>
    <g id="line2d_21">
     <path d="M 318.259063 277.769937 
L 328.259063 277.769937 
L 338.259063 277.769937 
" style="fill: none; stroke: #9467bd; stroke-width: 1.5; stroke-linecap: square"/>
    </g>
    <g id="text_18">
     <!-- test_class0 -->
     <g transform="translate(346.259063 281.269937) scale(0.1 -0.1)">
      <use xlink:href="#DejaVuSans-74"/>
      <use xlink:href="#DejaVuSans-65" transform="translate(39.208984 0)"/>
      <use xlink:href="#DejaVuSans-73" transform="translate(100.732422 0)"/>
      <use xlink:href="#DejaVuSans-74" transform="translate(152.832031 0)"/>
      <use xlink:href="#DejaVuSans-5f" transform="translate(192.041016 0)"/>
      <use xlink:href="#DejaVuSans-63" transform="translate(242.041016 0)"/>
      <use xlink:href="#DejaVuSans-6c" transform="translate(297.021484 0)"/>
      <use xlink:href="#DejaVuSans-61" transform="translate(324.804688 0)"/>
      <use xlink:href="#DejaVuSans-73" transform="translate(386.083984 0)"/>
      <use xlink:href="#DejaVuSans-73" transform="translate(438.183594 0)"/>
      <use xlink:href="#DejaVuSans-30" transform="translate(490.283203 0)"/>
     </g>
    </g>
    <g id="line2d_22">
     <path d="M 318.259063 292.726187 
L 328.259063 292.726187 
L 338.259063 292.726187 
" style="fill: none; stroke: #8c564b; stroke-width: 1.5; stroke-linecap: square"/>
    </g>
    <g id="text_19">
     <!-- test_class1 -->
     <g transform="translate(346.259063 296.226187) scale(0.1 -0.1)">
      <use xlink:href="#DejaVuSans-74"/>
      <use xlink:href="#DejaVuSans-65" transform="translate(39.208984 0)"/>
      <use xlink:href="#DejaVuSans-73" transform="translate(100.732422 0)"/>
      <use xlink:href="#DejaVuSans-74" transform="translate(152.832031 0)"/>
      <use xlink:href="#DejaVuSans-5f" transform="translate(192.041016 0)"/>
      <use xlink:href="#DejaVuSans-63" transform="translate(242.041016 0)"/>
      <use xlink:href="#DejaVuSans-6c" transform="translate(297.021484 0)"/>
      <use xlink:href="#DejaVuSans-61" transform="translate(324.804688 0)"/>
      <use xlink:href="#DejaVuSans-73" transform="translate(386.083984 0)"/>
      <use xlink:href="#DejaVuSans-73" transform="translate(438.183594 0)"/>
      <use xlink:href="#DejaVuSans-31" transform="translate(490.283203 0)"/>
     </g>
    </g>
   </g>
   <g id="line2d_23">
    <path d="M 73.832727 214.847998 
L 74.482036 53.568 
L 75.131345 53.568 
L 75.780655 56.870194 
L 76.429964 60.93981 
L 77.079273 107.171098 
L 77.728582 97.749519 
L 78.377891 132.36372 
L 79.0272 103.765588 
L 79.676509 113.097521 
L 80.325818 153.609363 
L 80.975127 121.958568 
L 81.624436 117.86389 
L 82.273745 100.119704 
L 82.923055 142.289204 
L 83.572364 118.641782 
L 84.221673 81.747431 
L 84.870982 111.469856 
L 85.520291 115.265184 
L 86.1696 100.510114 
L 86.818909 110.88683 
L 87.468218 138.295146 
L 88.117527 111.187809 
L 88.766836 119.977076 
L 89.416145 120.234408 
L 90.065455 132.234737 
L 90.714764 105.032822 
L 91.364073 136.093121 
L 92.013382 80.791068 
L 92.662691 132.85485 
L 93.312 114.323341 
L 93.961309 136.692557 
L 94.610618 120.962062 
L 95.259927 86.362107 
L 95.909236 119.164044 
L 96.558545 132.083908 
L 97.207855 120.116023 
L 97.857164 123.116588 
L 98.506473 117.418066 
L 99.155782 130.168039 
L 99.805091 151.810394 
L 100.4544 150.469418 
L 101.103709 114.718899 
L 101.753018 119.456948 
L 102.402327 141.809898 
L 103.051636 136.071925 
L 103.700945 125.612988 
L 104.350255 136.78986 
L 106.298182 99.051677 
L 106.947491 115.421246 
L 107.5968 120.860649 
L 108.246109 117.488737 
L 108.895418 109.851433 
L 109.544727 129.261713 
L 110.194036 97.47112 
L 110.843345 143.088826 
L 111.492655 106.277921 
L 112.141964 103.175295 
L 112.791273 140.689081 
L 113.440582 114.226211 
L 114.089891 106.621886 
L 114.7392 128.014681 
L 115.388509 112.224835 
L 116.037818 100.464245 
L 116.687127 126.560324 
L 117.336436 131.792287 
L 117.985745 106.498858 
L 118.635055 132.083129 
L 119.284364 122.226758 
L 119.933673 120.288149 
L 120.582982 133.150032 
L 121.232291 125.981408 
L 121.8816 130.288299 
L 122.530909 117.180865 
L 123.180218 137.201639 
L 123.829527 103.373189 
L 124.478836 128.897201 
L 125.128145 125.285102 
L 125.777455 131.890109 
L 126.426764 145.027622 
L 127.076073 149.932636 
L 127.725382 115.692219 
L 128.374691 123.749131 
L 129.024 115.961821 
L 129.673309 125.712916 
L 130.322618 147.930755 
L 131.621236 119.111932 
L 132.270545 140.91019 
L 132.919855 126.711355 
L 133.569164 130.562616 
L 134.218473 119.625181 
L 134.867782 128.420245 
L 135.517091 141.889307 
L 136.815709 103.477298 
L 137.465018 118.464263 
L 138.114327 146.348958 
L 138.763636 142.989014 
L 139.412945 122.776229 
L 140.062255 113.838224 
L 141.360873 126.733518 
L 142.659491 144.605836 
L 143.3088 114.289859 
L 143.958109 139.210745 
L 144.607418 139.314811 
L 145.256727 130.4254 
L 145.906036 131.966158 
L 146.555345 140.666932 
L 147.204655 125.718035 
L 147.853964 131.657435 
L 148.503273 139.783879 
L 149.152582 130.647201 
L 149.801891 114.355194 
L 150.4512 128.487094 
L 151.100509 137.115872 
L 151.749818 126.979674 
L 152.399127 128.559769 
L 153.048436 138.213805 
L 153.697745 136.044297 
L 154.347055 125.834473 
L 154.996364 131.12097 
L 155.645673 145.034183 
L 156.294982 126.855896 
L 156.944291 130.855261 
L 157.5936 123.81363 
L 158.242909 132.525911 
L 158.892218 123.760047 
L 160.190836 130.091659 
L 160.840145 131.131381 
L 161.489455 136.641079 
L 162.138764 139.285784 
L 162.788073 115.235176 
L 163.437382 135.689302 
L 164.086691 165.430818 
L 164.736 130.59992 
L 165.385309 142.66182 
L 166.034618 121.283099 
L 166.683927 130.22951 
L 167.333236 145.015971 
L 167.982545 136.183229 
L 168.631855 124.907209 
L 169.281164 134.714756 
L 169.930473 134.23072 
L 170.579782 121.803544 
L 171.229091 118.375712 
L 171.8784 129.543875 
L 172.527709 110.824422 
L 173.826327 122.406195 
L 174.475636 119.894092 
L 175.124945 122.768082 
L 175.774255 132.385118 
L 176.423564 126.925053 
L 177.722182 145.128775 
L 178.371491 130.939745 
L 179.0208 125.246443 
L 179.670109 134.93053 
L 180.319418 140.97342 
L 180.968727 108.342124 
L 181.618036 128.571016 
L 182.267345 139.538083 
L 182.916655 130.597194 
L 183.565964 132.38881 
L 184.215273 128.190974 
L 184.864582 139.019051 
L 185.513891 126.835839 
L 186.1632 144.887378 
L 186.812509 111.285271 
L 187.461818 123.506349 
L 188.111127 116.022052 
L 189.409745 131.094381 
L 190.059055 124.669041 
L 190.708364 136.917574 
L 191.357673 126.781809 
L 192.006982 121.981236 
L 192.656291 121.44043 
L 193.3056 138.412608 
L 193.954909 140.757617 
L 194.604218 129.810766 
L 195.253527 130.438521 
L 195.902836 126.699415 
L 196.552145 143.908348 
L 197.201455 128.01357 
L 197.850764 134.698015 
L 198.500073 127.892662 
L 199.149382 127.125715 
L 200.448 119.659356 
L 201.097309 118.573852 
L 201.746618 133.9746 
L 203.045236 129.617011 
L 203.694545 132.490669 
L 204.343855 129.306428 
L 204.993164 122.045547 
L 205.642473 123.447258 
L 206.291782 136.429328 
L 206.941091 130.467735 
L 207.5904 119.816125 
L 208.239709 127.056573 
L 208.889018 139.105352 
L 209.538327 126.787519 
L 210.187636 118.591371 
L 210.836945 121.110122 
L 211.486255 127.736542 
L 212.135564 111.711325 
L 212.784873 119.491397 
L 213.434182 117.30966 
L 214.083491 117.131463 
L 214.7328 124.468321 
L 215.382109 121.122119 
L 216.031418 137.883973 
L 217.330036 130.365126 
L 217.979345 141.021726 
L 218.628655 124.018834 
L 219.277964 122.667607 
L 219.927273 137.983121 
L 220.576582 123.460625 
L 221.225891 128.172085 
L 221.8752 128.359914 
L 222.524509 133.102592 
L 223.173818 125.462059 
L 223.823127 135.211611 
L 224.472436 141.780396 
L 225.121745 125.885763 
L 225.771055 136.902001 
L 226.420364 121.867091 
L 227.069673 137.532554 
L 227.718982 124.282986 
L 228.368291 138.895216 
L 229.0176 124.318977 
L 229.666909 135.297191 
L 230.316218 106.775021 
L 230.965527 126.537195 
L 231.614836 130.028083 
L 232.264145 139.903503 
L 232.913455 137.797643 
L 233.562764 125.981235 
L 234.212073 128.65328 
L 234.861382 150.193154 
L 235.510691 128.774014 
L 236.16 127.236342 
L 236.809309 129.876981 
L 237.458618 122.502474 
L 238.107927 117.941612 
L 238.757236 130.649407 
L 239.406545 152.027725 
L 240.055855 125.450292 
L 240.705164 130.841476 
L 241.354473 124.519712 
L 242.003782 145.439589 
L 243.3024 124.935875 
L 243.951709 126.085546 
L 244.601018 154.370024 
L 245.250327 126.140758 
L 245.899636 121.867566 
L 246.548945 126.714008 
L 247.198255 128.004529 
L 247.847564 124.836481 
L 248.496873 140.273062 
L 249.146182 134.025891 
L 249.795491 129.200704 
L 250.4448 127.596312 
L 251.094109 124.901715 
L 251.743418 134.504101 
L 252.392727 136.619579 
L 253.042036 133.082203 
L 253.691345 148.182607 
L 254.340655 137.17629 
L 254.989964 119.26948 
L 255.639273 121.576868 
L 256.288582 122.695278 
L 256.937891 124.639048 
L 257.5872 132.735297 
L 258.236509 150.317191 
L 258.885818 127.536918 
L 259.535127 123.719254 
L 260.184436 130.207607 
L 260.833745 135.530759 
L 261.483055 129.458915 
L 262.132364 125.581972 
L 262.781673 132.7941 
L 263.430982 118.897599 
L 264.080291 136.370885 
L 264.7296 124.061574 
L 265.378909 131.475691 
L 266.028218 122.758955 
L 266.677527 117.22545 
L 267.326836 124.500448 
L 267.976145 128.988952 
L 268.625455 129.628373 
L 269.274764 118.834024 
L 269.924073 130.482443 
L 270.573382 132.605492 
L 271.222691 127.562137 
L 271.872 130.618261 
L 272.521309 124.539885 
L 273.170618 129.861191 
L 273.819927 128.720835 
L 274.469236 133.653116 
L 275.118545 133.907607 
L 275.767855 131.810816 
L 276.417164 133.90344 
L 277.066473 132.02995 
L 277.715782 127.07542 
L 278.365091 134.517468 
L 279.0144 127.151036 
L 280.313018 123.937465 
L 280.962327 125.162493 
L 281.611636 131.493398 
L 282.260945 131.108223 
L 282.910255 127.862324 
L 283.559564 129.306932 
L 284.208873 130.344578 
L 284.858182 121.631879 
L 286.1568 126.400354 
L 286.806109 122.487708 
L 287.455418 119.74273 
L 288.104727 122.249324 
L 288.754036 123.165081 
L 289.403345 121.646414 
L 290.052655 130.427808 
L 290.701964 127.196544 
L 292.000582 129.174215 
L 292.649891 136.422378 
L 293.2992 132.265566 
L 293.948509 125.55642 
L 294.597818 134.557496 
L 295.247127 130.930344 
L 296.545745 126.238711 
L 297.195055 124.428292 
L 297.844364 124.511637 
L 298.493673 131.163782 
L 299.142982 124.464788 
L 299.792291 123.387258 
L 300.4416 125.369601 
L 301.090909 122.501335 
L 301.740218 124.650108 
L 302.389527 126.385127 
L 303.038836 127.237957 
L 303.688145 125.203906 
L 304.337455 126.025445 
L 304.986764 121.115356 
L 305.636073 127.58456 
L 306.285382 126.741059 
L 306.934691 129.131273 
L 307.584 127.70515 
L 308.233309 127.170041 
L 308.882618 124.436554 
L 309.531927 125.519232 
L 310.181236 125.098845 
L 310.830545 128.00228 
L 311.479855 129.439852 
L 312.129164 126.461392 
L 312.778473 125.855655 
L 313.427782 124.239973 
L 314.077091 123.12798 
L 314.7264 126.506914 
L 315.375709 126.267953 
L 316.025018 125.377488 
L 316.674327 128.739379 
L 317.323636 128.93361 
L 318.622255 123.118074 
L 319.271564 127.785929 
L 319.920873 129.256493 
L 320.570182 130.358868 
L 321.219491 128.850784 
L 321.8688 130.353518 
L 322.518109 128.375112 
L 323.167418 127.248973 
L 323.816727 132.636711 
L 324.466036 128.4785 
L 325.115345 129.717789 
L 325.764655 129.265894 
L 326.413964 129.158296 
L 327.063273 128.749544 
L 327.712582 131.263493 
L 328.361891 126.878622 
L 329.0112 127.439167 
L 329.660509 127.670515 
L 330.959127 127.650558 
L 331.608436 129.759548 
L 332.257745 128.686805 
L 332.907055 129.654444 
L 333.556364 129.359074 
L 334.205673 128.550266 
L 334.854982 127.350444 
L 335.504291 128.833236 
L 336.1536 127.932821 
L 336.802909 128.203952 
L 337.452218 128.003996 
L 338.101527 128.981166 
L 338.750836 129.559174 
L 339.400145 129.495136 
L 340.049455 128.839523 
L 340.698764 128.909587 
L 341.348073 127.95347 
L 341.997382 128.208624 
L 342.646691 129.962272 
L 343.296 128.516063 
L 343.945309 127.45327 
L 344.594618 126.158336 
L 345.243927 125.777083 
L 345.893236 127.058866 
L 347.191855 126.22184 
L 347.841164 128.142669 
L 349.139782 127.643219 
L 349.789091 127.336731 
L 350.4384 127.40172 
L 351.087709 126.689105 
L 351.737018 125.233264 
L 352.386327 127.720003 
L 353.035636 127.52629 
L 353.684945 128.782709 
L 354.334255 128.088509 
L 354.983564 128.393843 
L 355.632873 127.557278 
L 356.282182 127.737825 
L 356.931491 128.294579 
L 357.5808 126.789336 
L 358.230109 127.961588 
L 358.879418 128.294045 
L 359.528727 128.333324 
L 360.178036 127.507776 
L 360.827345 129.070942 
L 361.476655 127.074742 
L 362.125964 128.563085 
L 362.775273 127.36407 
L 363.424582 127.860449 
L 364.073891 127.585007 
L 364.7232 128.954403 
L 365.372509 127.452131 
L 366.021818 127.943967 
L 366.671127 128.22858 
L 367.320436 129.147236 
L 367.969745 128.304456 
L 368.619055 129.044035 
L 369.268364 127.934479 
L 369.917673 128.729891 
L 370.566982 127.264806 
L 371.216291 129.18911 
L 371.8656 127.672216 
L 372.514909 128.714116 
L 373.164218 129.125477 
L 373.813527 128.230368 
L 374.462836 128.081645 
L 375.112145 127.439802 
L 375.761455 127.413472 
L 376.410764 127.822555 
L 377.060073 129.387394 
L 377.709382 126.929609 
L 378.358691 127.641099 
L 379.008 128.857287 
L 379.657309 127.975604 
L 380.306618 127.960838 
L 380.955927 128.693121 
L 381.605236 127.803723 
L 382.254545 127.156486 
L 382.903855 127.619614 
L 383.553164 127.326378 
L 384.202473 128.001862 
L 384.851782 128.48447 
L 386.1504 126.680497 
L 386.799709 128.238876 
L 387.449018 128.890784 
L 388.098327 128.681181 
L 388.747636 127.209651 
L 389.396945 127.751884 
L 390.046255 127.512404 
L 390.695564 127.547631 
L 391.344873 128.300419 
L 391.994182 127.961833 
L 392.643491 128.477361 
L 393.2928 127.46319 
L 393.942109 128.004847 
L 394.591418 127.43934 
L 395.890036 126.926466 
L 396.539345 127.930456 
L 397.837964 127.461547 
L 398.487273 127.565338 
L 398.487273 127.565338 
" clip-path="url(#p87914478c1)" style="fill: none; stroke: #9467bd; stroke-width: 1.5; stroke-linecap: square"/>
   </g>
   <g id="line2d_24">
    <path d="M 73.832727 134.207995 
L 74.482036 295.488 
L 75.131345 295.488 
L 75.780655 287.418387 
L 76.429964 269.528851 
L 77.079273 227.053755 
L 77.728582 220.405129 
L 78.377891 189.555102 
L 79.0272 224.200305 
L 79.676509 219.317728 
L 80.325818 168.377728 
L 80.975127 221.64043 
L 81.624436 207.565935 
L 82.273745 213.37442 
L 82.923055 175.237709 
L 83.572364 203.827384 
L 84.221673 248.410188 
L 85.520291 207.039167 
L 86.1696 217.40302 
L 86.818909 213.901383 
L 87.468218 171.694255 
L 88.117527 213.747036 
L 88.766836 184.145519 
L 89.416145 205.552388 
L 90.065455 173.757563 
L 90.714764 203.806497 
L 91.364073 179.774216 
L 92.013382 247.303948 
L 92.662691 184.944449 
L 93.312 211.460058 
L 93.961309 178.55823 
L 94.610618 208.254786 
L 95.259927 227.954271 
L 96.558545 181.423756 
L 97.207855 219.747388 
L 97.857164 176.447466 
L 98.506473 192.83602 
L 99.155782 195.308425 
L 99.805091 169.445135 
L 100.4544 159.83045 
L 101.103709 194.984007 
L 101.753018 199.542432 
L 102.402327 167.109167 
L 103.051636 190.853006 
L 103.700945 182.435692 
L 104.350255 187.609875 
L 104.999564 195.426723 
L 105.648873 204.983551 
L 106.298182 219.498795 
L 106.947491 200.414541 
L 107.5968 202.63387 
L 108.246109 189.959808 
L 108.895418 201.291049 
L 109.544727 174.975504 
L 110.194036 210.811257 
L 110.843345 187.211989 
L 111.492655 208.659903 
L 112.141964 203.531408 
L 112.791273 152.557976 
L 113.440582 196.327592 
L 114.089891 197.975315 
L 114.7392 180.956411 
L 115.388509 200.385818 
L 116.037818 226.940064 
L 116.687127 186.798357 
L 117.336436 177.498169 
L 117.985745 228.748233 
L 118.635055 176.126631 
L 119.284364 187.018486 
L 119.933673 191.971654 
L 120.582982 176.968337 
L 121.232291 178.657386 
L 121.8816 185.176503 
L 122.530909 197.128801 
L 123.180218 183.138356 
L 123.829527 234.786004 
L 124.478836 179.479358 
L 125.128145 175.737159 
L 125.777455 173.101113 
L 127.076073 163.336507 
L 127.725382 194.77997 
L 128.374691 189.750415 
L 129.024 195.946253 
L 129.673309 191.359089 
L 130.322618 183.508903 
L 130.971927 195.508915 
L 131.621236 204.257641 
L 132.270545 170.435485 
L 132.919855 188.644918 
L 133.569164 180.302225 
L 134.218473 181.586394 
L 134.867782 184.84866 
L 135.517091 163.400198 
L 136.815709 211.600159 
L 138.114327 165.538272 
L 138.763636 165.23885 
L 139.412945 188.37737 
L 140.062255 201.39448 
L 140.711564 191.889974 
L 141.360873 189.687711 
L 142.010182 175.457968 
L 142.659491 166.171204 
L 143.3088 214.099702 
L 143.958109 181.811527 
L 144.607418 159.087179 
L 145.256727 179.599387 
L 145.906036 182.494466 
L 146.555345 170.758887 
L 147.204655 189.818475 
L 147.853964 171.241899 
L 148.503273 168.656602 
L 149.152582 182.20301 
L 149.801891 193.417841 
L 150.4512 182.686347 
L 151.100509 179.06644 
L 151.749818 199.248865 
L 152.399127 193.765966 
L 153.048436 165.714349 
L 153.697745 169.655243 
L 154.347055 184.314502 
L 154.996364 185.04664 
L 155.645673 169.96013 
L 156.294982 192.027393 
L 156.944291 172.611382 
L 157.5936 188.497875 
L 158.242909 171.03877 
L 158.892218 177.209497 
L 159.541527 194.6477 
L 160.190836 188.492799 
L 160.840145 179.974475 
L 161.489455 173.810786 
L 162.138764 180.607724 
L 162.788073 209.267211 
L 163.437382 177.458522 
L 164.086691 154.790671 
L 164.736 186.511004 
L 165.385309 169.051741 
L 166.034618 193.17733 
L 166.683927 184.304913 
L 167.333236 164.348471 
L 167.982545 183.266849 
L 168.631855 194.983892 
L 169.281164 167.485345 
L 169.930473 176.062262 
L 170.579782 198.027802 
L 171.229091 198.976818 
L 171.8784 185.718001 
L 172.527709 198.450785 
L 173.177018 205.035807 
L 173.826327 186.002196 
L 174.475636 200.324527 
L 175.124945 193.139292 
L 175.774255 178.556795 
L 176.423564 180.544783 
L 177.072873 174.642758 
L 177.722182 165.597349 
L 178.371491 177.201205 
L 179.0208 174.200979 
L 179.670109 176.82386 
L 180.319418 166.559407 
L 180.968727 201.768884 
L 182.267345 164.873459 
L 182.916655 172.665714 
L 183.565964 173.08939 
L 184.215273 180.124035 
L 184.864582 174.310942 
L 185.513891 191.740948 
L 186.1632 175.880403 
L 186.812509 218.511055 
L 187.461818 206.998222 
L 188.111127 202.402003 
L 188.760436 190.884585 
L 189.409745 182.149975 
L 190.059055 182.062449 
L 190.708364 163.303688 
L 191.357673 188.049729 
L 192.006982 198.124103 
L 192.656291 202.22886 
L 193.3056 185.413258 
L 193.954909 179.189922 
L 194.604218 190.39569 
L 195.253527 178.932273 
L 195.902836 185.210295 
L 196.552145 158.640707 
L 197.201455 177.034054 
L 197.850764 180.784912 
L 198.500073 188.868774 
L 199.149382 184.769634 
L 199.798691 190.037508 
L 200.448 179.829955 
L 201.097309 185.264635 
L 201.746618 189.100194 
L 202.395927 173.104747 
L 203.045236 172.85774 
L 203.694545 180.092939 
L 204.343855 178.445678 
L 204.993164 183.534628 
L 205.642473 168.928093 
L 206.291782 165.906101 
L 206.941091 181.787821 
L 207.5904 182.227401 
L 208.239709 181.7209 
L 208.889018 168.601015 
L 209.538327 168.728931 
L 210.187636 200.193345 
L 210.836945 191.988763 
L 211.486255 188.95757 
L 212.135564 198.443691 
L 212.784873 195.151202 
L 213.434182 201.845214 
L 214.083491 211.220787 
L 214.7328 201.326304 
L 215.382109 197.160646 
L 216.031418 192.151235 
L 216.680727 172.399054 
L 217.330036 178.322564 
L 217.979345 180.064388 
L 218.628655 196.880445 
L 219.927273 183.344924 
L 220.576582 204.662333 
L 221.225891 188.333074 
L 221.8752 190.83752 
L 222.524509 176.287135 
L 223.173818 198.891051 
L 223.823127 186.770953 
L 224.472436 178.76045 
L 225.121745 182.313298 
L 225.771055 176.415195 
L 226.420364 205.320406 
L 227.069673 182.86414 
L 227.718982 193.955907 
L 228.368291 180.242347 
L 229.0176 192.742667 
L 229.666909 171.452107 
L 230.316218 215.362322 
L 230.965527 188.449728 
L 231.614836 185.726191 
L 232.264145 163.988257 
L 232.913455 169.97044 
L 233.562764 192.58858 
L 234.212073 197.809533 
L 234.861382 177.432214 
L 235.510691 196.627642 
L 236.16 195.589787 
L 236.809309 182.357869 
L 238.107927 205.208453 
L 238.757236 185.109769 
L 239.406545 180.199464 
L 240.055855 192.596914 
L 240.705164 193.599708 
L 241.354473 202.671079 
L 242.003782 175.49207 
L 242.653091 184.175836 
L 243.3024 189.388881 
L 243.951709 192.797339 
L 244.601018 166.700546 
L 245.250327 195.257373 
L 245.899636 196.998765 
L 246.548945 202.150252 
L 247.198255 186.807211 
L 247.847564 195.005961 
L 248.496873 170.495283 
L 249.146182 181.813769 
L 249.795491 180.948329 
L 250.4448 182.931234 
L 251.094109 181.164341 
L 251.743418 181.059338 
L 252.392727 183.02902 
L 253.042036 172.996268 
L 253.691345 175.81925 
L 254.340655 182.6559 
L 254.989964 196.80997 
L 255.639273 187.157635 
L 256.288582 199.26071 
L 256.937891 197.296168 
L 257.5872 186.645041 
L 258.236509 172.540985 
L 258.885818 198.39341 
L 259.535127 193.942641 
L 260.184436 197.507725 
L 260.833745 183.398997 
L 261.483055 192.829278 
L 262.132364 198.090571 
L 262.781673 194.335545 
L 263.430982 214.299607 
L 264.080291 193.90466 
L 264.7296 198.501095 
L 265.378909 187.959297 
L 266.028218 198.069662 
L 266.677527 210.913002 
L 267.326836 195.688893 
L 267.976145 198.739782 
L 268.625455 180.615352 
L 269.274764 193.044317 
L 269.924073 181.688521 
L 270.573382 178.799599 
L 271.222691 187.222883 
L 271.872 179.670525 
L 272.521309 191.835937 
L 273.170618 189.686623 
L 273.819927 190.369843 
L 274.469236 184.637731 
L 275.118545 184.813534 
L 275.767855 183.117621 
L 276.417164 169.767831 
L 277.066473 178.464171 
L 277.715782 181.85963 
L 278.365091 179.055113 
L 279.0144 183.417908 
L 279.663709 189.922779 
L 280.313018 194.172136 
L 280.962327 193.534193 
L 281.611636 185.480352 
L 282.910255 191.633861 
L 283.559564 187.164642 
L 284.208873 178.505973 
L 284.858182 189.313401 
L 285.507491 194.866776 
L 286.1568 192.34892 
L 286.806109 192.360383 
L 287.455418 185.993767 
L 288.104727 184.799251 
L 288.754036 192.245762 
L 289.403345 192.483483 
L 290.052655 185.366171 
L 290.701964 186.756757 
L 292.000582 180.313703 
L 292.649891 179.124803 
L 293.948509 187.045703 
L 294.597818 172.438304 
L 295.247127 189.405975 
L 296.545745 187.680711 
L 297.195055 193.850918 
L 297.844364 196.297556 
L 298.493673 190.71646 
L 299.142982 189.038247 
L 299.792291 193.723017 
L 300.4416 191.449745 
L 301.090909 193.585036 
L 301.740218 191.99466 
L 302.389527 185.861684 
L 303.038836 188.403073 
L 303.688145 193.849685 
L 304.337455 192.214998 
L 304.986764 195.188548 
L 305.636073 192.428775 
L 306.285382 189.056849 
L 306.934691 186.627298 
L 307.584 190.471039 
L 308.233309 191.384122 
L 308.882618 196.877843 
L 309.531927 196.570504 
L 310.830545 191.048687 
L 311.479855 190.391032 
L 312.129164 189.950227 
L 312.778473 192.386685 
L 313.427782 193.02873 
L 314.077091 195.069984 
L 314.7264 188.930605 
L 315.375709 190.697636 
L 316.025018 190.633137 
L 316.674327 185.498838 
L 317.972945 194.06321 
L 318.622255 196.156302 
L 319.271564 189.807855 
L 320.570182 187.074974 
L 321.219491 188.773432 
L 321.8688 188.04647 
L 322.518109 191.588057 
L 323.167418 194.448969 
L 323.816727 190.529612 
L 324.466036 195.751827 
L 325.115345 193.145982 
L 325.764655 193.654416 
L 326.413964 193.291685 
L 327.063273 193.308664 
L 327.712582 191.378758 
L 328.361891 194.48013 
L 329.0112 193.269709 
L 329.660509 193.649117 
L 330.309818 194.460152 
L 330.959127 191.743911 
L 331.608436 192.465697 
L 332.257745 191.62265 
L 332.907055 192.190406 
L 333.556364 192.183946 
L 334.205673 191.492845 
L 334.854982 195.192946 
L 335.504291 193.695908 
L 336.1536 195.31136 
L 336.802909 191.640263 
L 337.452218 193.898251 
L 338.750836 192.490866 
L 339.400145 192.372525 
L 340.049455 193.083466 
L 340.698764 193.380163 
L 341.348073 193.987342 
L 341.997382 193.703103 
L 342.646691 191.25051 
L 343.296 191.820054 
L 343.945309 193.639773 
L 344.594618 193.224879 
L 345.243927 194.913813 
L 345.893236 195.354107 
L 346.542545 192.35675 
L 347.191855 193.545022 
L 347.841164 193.258967 
L 348.490473 192.60889 
L 349.139782 193.213408 
L 349.789091 192.825241 
L 350.4384 192.636734 
L 351.087709 195.200416 
L 351.737018 195.061873 
L 352.386327 193.205131 
L 353.035636 193.561179 
L 353.684945 193.17754 
L 354.334255 194.167312 
L 354.983564 192.931902 
L 355.632873 193.428728 
L 356.282182 194.38026 
L 356.931491 193.777249 
L 357.5808 192.079418 
L 358.230109 192.625011 
L 358.879418 191.139523 
L 359.528727 192.605999 
L 360.178036 192.812927 
L 360.827345 192.531587 
L 361.476655 193.014649 
L 362.125964 193.645649 
L 362.775273 192.539957 
L 363.424582 193.714812 
L 364.073891 192.21825 
L 364.7232 192.253902 
L 365.372509 193.526666 
L 366.021818 194.059577 
L 366.671127 190.95643 
L 367.969745 191.25131 
L 368.619055 191.694805 
L 369.268364 192.690238 
L 369.917673 192.046931 
L 370.566982 193.502455 
L 371.216291 191.718035 
L 371.8656 192.421868 
L 372.514909 192.54982 
L 373.164218 191.564409 
L 373.813527 192.998297 
L 374.462836 191.742902 
L 375.112145 192.205633 
L 375.761455 193.05157 
L 376.410764 192.066015 
L 377.060073 191.513609 
L 377.709382 194.354255 
L 379.008 192.085648 
L 379.657309 193.902973 
L 380.306618 193.13131 
L 380.955927 192.868283 
L 381.605236 192.96488 
L 382.254545 193.961812 
L 382.903855 193.32061 
L 383.553164 193.34508 
L 384.202473 193.167561 
L 384.851782 190.82783 
L 385.501091 193.062147 
L 386.1504 193.155492 
L 386.799709 192.524737 
L 387.449018 192.724737 
L 388.098327 192.45463 
L 388.747636 194.188192 
L 389.396945 193.976433 
L 390.046255 194.140708 
L 390.695564 193.202976 
L 391.344873 193.501287 
L 391.994182 192.774563 
L 392.643491 192.85886 
L 393.2928 194.107212 
L 393.942109 192.667361 
L 394.591418 194.214594 
L 395.890036 194.439582 
L 396.539345 194.935788 
L 397.188655 192.893359 
L 397.837964 193.475988 
L 398.487273 192.894938 
L 398.487273 192.894938 
" clip-path="url(#p87914478c1)" style="fill: none; stroke: #8c564b; stroke-width: 1.5; stroke-linecap: square"/>
   </g>
  </g>
 </g>
 <defs>
  <clipPath id="p87914478c1">
   <rect x="57.6" y="41.472" width="357.12" height="266.112"/>
  </clipPath>
 </defs>
</svg>
