<?xml version="1.0" encoding="utf-8" standalone="no"?>
<!DOCTYPE svg PUBLIC "-//W3C//DTD SVG 1.1//EN"
  "http://www.w3.org/Graphics/SVG/1.1/DTD/svg11.dtd">
<svg xmlns:xlink="http://www.w3.org/1999/xlink" width="460.8pt" height="345.6pt" viewBox="0 0 460.8 345.6" xmlns="http://www.w3.org/2000/svg" version="1.1">
 <metadata>
  <rdf:RDF xmlns:dc="http://purl.org/dc/elements/1.1/" xmlns:cc="http://creativecommons.org/ns#" xmlns:rdf="http://www.w3.org/1999/02/22-rdf-syntax-ns#">
   <cc:Work>
    <dc:type rdf:resource="http://purl.org/dc/dcmitype/StillImage"/>
    <dc:date>2026-03-18T11:59:22.027501</dc:date>
    <dc:format>image/svg+xml</dc:format>
    <dc:creator>
     <cc:Agent>
      <dc:title>Matplotlib v3.10.8, https://matplotlib.org/</dc:title>
     </cc:Agent>
    </dc:creator>
   </cc:Work>
  </rdf:RDF>
 </metadata>
 <defs>
  <style type="text/css">*{stroke-linejoin: round; stroke-linecap: butt}</style>
 </defs>
 <g id="figure_1">
  <g id="patch_1">
   <path d="M 0 345.6 
L 460.8 345.6 
L 460.8 0 
L 0 0 
z
" style="fill: #ffffff"/>
  </g>
  <g id="axes_1">
   <g id="patch_2">
    <path d="M 57.6 307.584 
L 414.72 307.584 
L 414.72 41.472 
L 57.6 41.472 
z
" style="fill: #ffffff"/>
   </g>
   <g id="matplotlib.axis_1">
    <g id="xtick_1">
     <g id="line2d_1">
      <defs>
       <path id="m7ebb9bc40d" d="M 0 0 
L 0 3.5 
" style="stroke: #000000; stroke-width: 0.8"/>
      </defs>
      <g>
       <use xlink:href="#m7ebb9bc40d" x="73.832727" y="307.584" style="stroke: #000000; stroke-width: 0.8"/>
      </g>
     </g>
     <g id="text_1">
      <!-- 0 -->
      <g transform="translate(70.651477 322.182437) scale(0.1 -0.1)">
       <defs>
        <path id="DejaVuSans-30" d="M 2034 4250 
Q 1547 4250 1301 3770 
Q 1056 3291 1056 2328 
Q 1056 1369 1301 889 
Q 1547 409 2034 409 
Q 2525 409 2770 889 
Q 3016 1369 3016 2328 
Q 3016 3291 2770 3770 
Q 2525 4250 2034 4250 
z
M 2034 4750 
Q 2819 4750 3233 4129 
Q 3647 3509 3647 2328 
Q 3647 1150 3233 529 
Q 2819 -91 2034 -91 
Q 1250 -91 836 529 
Q 422 1150 422 2328 
Q 422 3509 836 4129 
Q 1250 4750 2034 4750 
z
" transform="scale(0.015625)"/>
       </defs>
       <use xlink:href="#DejaVuSans-30"/>
      </g>
     </g>
    </g>
    <g id="xtick_2">
     <g id="line2d_2">
      <g>
       <use xlink:href="#m7ebb9bc40d" x="127.941818" y="307.584" style="stroke: #000000; stroke-width: 0.8"/>
      </g>
     </g>
     <g id="text_2">
      <!-- 50 -->
      <g transform="translate(121.579318 322.182437) scale(0.1 -0.1)">
       <defs>
        <path id="DejaVuSans-35" d="M 691 4666 
L 3169 4666 
L 3169 4134 
L 1269 4134 
L 1269 2991 
Q 1406 3038 1543 3061 
Q 1681 3084 1819 3084 
Q 2600 3084 3056 2656 
Q 3513 2228 3513 1497 
Q 3513 744 3044 326 
Q 2575 -91 1722 -91 
Q 1428 -91 1123 -41 
Q 819 9 494 109 
L 494 744 
Q 775 591 1075 516 
Q 1375 441 1709 441 
Q 2250 441 2565 725 
Q 2881 1009 2881 1497 
Q 2881 1984 2565 2268 
Q 2250 2553 1709 2553 
Q 1456 2553 1204 2497 
Q 953 2441 691 2322 
L 691 4666 
z
" transform="scale(0.015625)"/>
       </defs>
       <use xlink:href="#DejaVuSans-35"/>
       <use xlink:href="#DejaVuSans-30" transform="translate(63.623047 0)"/>
      </g>
     </g>
    </g>
    <g id="xtick_3">
     <g id="line2d_3">
      <g>
       <use xlink:href="#m7ebb9bc40d" x="182.050909" y="307.584" style="stroke: #000000; stroke-width: 0.8"/>
      </g>
     </g>
     <g id="text_3">
      <!-- 100 -->
      <g transform="translate(172.507159 322.182437) scale(0.1 -0.1)">
       <defs>
        <path id="DejaVuSans-31" d="M 794 531 
L 1825 531 
L 1825 4091 
L 703 3866 
L 703 4441 
L 1819 4666 
L 2450 4666 
L 2450 531 
L 3481 531 
L 3481 0 
L 794 0 
L 794 531 
z
" transform="scale(0.015625)"/>
       </defs>
       <use xlink:href="#DejaVuSans-31"/>
       <use xlink:href="#DejaVuSans-30" transform="translate(63.623047 0)"/>
       <use xlink:href="#DejaVuSans-30" transform="translate(127.246094 0)"/>
      </g>
     </g>
    </g>
    <g id="xtick_4">
     <g id="line2d_4">
      <g>
       <use xlink:href="#m7ebb9bc40d" x="236.16" y="307.584" style="stroke: #000000; stroke-width: 0.8"/>
      </g>
     </g>
     <g id="text_4">
      <!-- 150 -->
      <g transform="translate(226.61625 322.182437) scale(0.1 -0.1)">
       <use xlink:href="#DejaVuSans-31"/>
       <use xlink:href="#DejaVuSans-35" transform="translate(63.623047 0)"/>
       <use xlink:href="#DejaVuSans-30" transform="translate(127.246094 0)"/>
      </g>
     </g>
    </g>
    <g id="xtick_5">
     <g id="line2d_5">
      <g>
       <use xlink:href="#m7ebb9bc40d" x="290.269091" y="307.584" style="stroke: #000000; stroke-width: 0.8"/>
      </g>
     </g>
     <g id="text_5">
      <!-- 200 -->
      <g transform="translate(280.725341 322.182437) scale(0.1 -0.1)">
       <defs>
        <path id="DejaVuSans-32" d="M 1228 531 
L 3431 531 
L 3431 0 
L 469 0 
L 469 531 
Q 828 903 1448 1529 
Q 2069 2156 2228 2338 
Q 2531 2678 2651 2914 
Q 2772 3150 2772 3378 
Q 2772 3750 2511 3984 
Q 2250 4219 1831 4219 
Q 1534 4219 1204 4116 
Q 875 4013 500 3803 
L 500 4441 
Q 881 4594 1212 4672 
Q 1544 4750 1819 4750 
Q 2544 4750 2975 4387 
Q 3406 4025 3406 3419 
Q 3406 3131 3298 2873 
Q 3191 2616 2906 2266 
Q 2828 2175 2409 1742 
Q 1991 1309 1228 531 
z
" transform="scale(0.015625)"/>
       </defs>
       <use xlink:href="#DejaVuSans-32"/>
       <use xlink:href="#DejaVuSans-30" transform="translate(63.623047 0)"/>
       <use xlink:href="#DejaVuSans-30" transform="translate(127.246094 0)"/>
      </g>
     </g>
    </g>
    <g id="xtick_6">
     <g id="line2d_6">
      <g>
       <use xlink:href="#m7ebb9bc40d" x="344.378182" y="307.584" style="stroke: #000000; stroke-width: 0.8"/>
      </g>
     </g>
     <g id="text_6">
      <!-- 250 -->
      <g transform="translate(334.834432 322.182437) scale(0.1 -0.1)">
       <use xlink:href="#DejaVuSans-32"/>
       <use xlink:href="#DejaVuSans-35" transform="translate(63.623047 0)"/>
       <use xlink:href="#DejaVuSans-30" transform="translate(127.246094 0)"/>
      </g>
     </g>
    </g>
    <g id="xtick_7">
     <g id="line2d_7">
      <g>
       <use xlink:href="#m7ebb9bc40d" x="398.487273" y="307.584" style="stroke: #000000; stroke-width: 0.8"/>
      </g>
     </g>
     <g id="text_7">
      <!-- 300 -->
      <g transform="translate(388.943523 322.182437) scale(0.1 -0.1)">
       <defs>
        <path id="DejaVuSans-33" d="M 2597 2516 
Q 3050 2419 3304 2112 
Q 3559 1806 3559 1356 
Q 3559 666 3084 287 
Q 2609 -91 1734 -91 
Q 1441 -91 1130 -33 
Q 819 25 488 141 
L 488 750 
Q 750 597 1062 519 
Q 1375 441 1716 441 
Q 2309 441 2620 675 
Q 2931 909 2931 1356 
Q 2931 1769 2642 2001 
Q 2353 2234 1838 2234 
L 1294 2234 
L 1294 2753 
L 1863 2753 
Q 2328 2753 2575 2939 
Q 2822 3125 2822 3475 
Q 2822 3834 2567 4026 
Q 2313 4219 1838 4219 
Q 1578 4219 1281 4162 
Q 984 4106 628 3988 
L 628 4550 
Q 988 4650 1302 4700 
Q 1616 4750 1894 4750 
Q 2613 4750 3031 4423 
Q 3450 4097 3450 3541 
Q 3450 3153 3228 2886 
Q 3006 2619 2597 2516 
z
" transform="scale(0.015625)"/>
       </defs>
       <use xlink:href="#DejaVuSans-33"/>
       <use xlink:href="#DejaVuSans-30" transform="translate(63.623047 0)"/>
       <use xlink:href="#DejaVuSans-30" transform="translate(127.246094 0)"/>
      </g>
     </g>
    </g>
   </g>
   <g id="matplotlib.axis_2">
    <g id="ytick_1">
     <g id="line2d_8">
      <defs>
       <path id="m5b62710749" d="M 0 0 
L -3.5 0 
" style="stroke: #000000; stroke-width: 0.8"/>
      </defs>
      <g>
       <use xlink:href="#m5b62710749" x="57.6" y="295.488" style="stroke: #000000; stroke-width: 0.8"/>
      </g>
     </g>
     <g id="text_8">
      <!-- 0.0 -->
      <g transform="translate(34.696875 299.287219) scale(0.1 -0.1)">
       <defs>
        <path id="DejaVuSans-2e" d="M 684 794 
L 1344 794 
L 1344 0 
L 684 0 
L 684 794 
z
" transform="scale(0.015625)"/>
       </defs>
       <use xlink:href="#DejaVuSans-30"/>
       <use xlink:href="#DejaVuSans-2e" transform="translate(63.623047 0)"/>
       <use xlink:href="#DejaVuSans-30" transform="translate(95.410156 0)"/>
      </g>
     </g>
    </g>
    <g id="ytick_2">
     <g id="line2d_9">
      <g>
       <use xlink:href="#m5b62710749" x="57.6" y="247.104" style="stroke: #000000; stroke-width: 0.8"/>
      </g>
     </g>
     <g id="text_9">
      <!-- 0.2 -->
      <g transform="translate(34.696875 250.903219) scale(0.1 -0.1)">
       <use xlink:href="#DejaVuSans-30"/>
       <use xlink:href="#DejaVuSans-2e" transform="translate(63.623047 0)"/>
       <use xlink:href="#DejaVuSans-32" transform="translate(95.410156 0)"/>
      </g>
     </g>
    </g>
    <g id="ytick_3">
     <g id="line2d_10">
      <g>
       <use xlink:href="#m5b62710749" x="57.6" y="198.72" style="stroke: #000000; stroke-width: 0.8"/>
      </g>
     </g>
     <g id="text_10">
      <!-- 0.4 -->
      <g transform="translate(34.696875 202.519219) scale(0.1 -0.1)">
       <defs>
        <path id="DejaVuSans-34" d="M 2419 4116 
L 825 1625 
L 2419 1625 
L 2419 4116 
z
M 2253 4666 
L 3047 4666 
L 3047 1625 
L 3713 1625 
L 3713 1100 
L 3047 1100 
L 3047 0 
L 2419 0 
L 2419 1100 
L 313 1100 
L 313 1709 
L 2253 4666 
z
" transform="scale(0.015625)"/>
       </defs>
       <use xlink:href="#DejaVuSans-30"/>
       <use xlink:href="#DejaVuSans-2e" transform="translate(63.623047 0)"/>
       <use xlink:href="#DejaVuSans-34" transform="translate(95.410156 0)"/>
      </g>
     </g>
    </g>
    <g id="ytick_4">
     <g id="line2d_11">
      <g>
       <use xlink:href="#m5b62710749" x="57.6" y="150.336" style="stroke: #000000; stroke-width: 0.8"/>
      </g>
     </g>
     <g id="text_11">
      <!-- 0.6 -->
      <g transform="translate(34.696875 154.135219) scale(0.1 -0.1)">
       <defs>
        <path id="DejaVuSans-36" d="M 2113 2584 
Q 1688 2584 1439 2293 
Q 1191 2003 1191 1497 
Q 1191 994 1439 701 
Q 1688 409 2113 409 
Q 2538 409 2786 701 
Q 3034 994 3034 1497 
Q 3034 2003 2786 2293 
Q 2538 2584 2113 2584 
z
M 3366 4563 
L 3366 3988 
Q 3128 4100 2886 4159 
Q 2644 4219 2406 4219 
Q 1781 4219 1451 3797 
Q 1122 3375 1075 2522 
Q 1259 2794 1537 2939 
Q 1816 3084 2150 3084 
Q 2853 3084 3261 2657 
Q 3669 2231 3669 1497 
Q 3669 778 3244 343 
Q 2819 -91 2113 -91 
Q 1303 -91 875 529 
Q 447 1150 447 2328 
Q 447 3434 972 4092 
Q 1497 4750 2381 4750 
Q 2619 4750 2861 4703 
Q 3103 4656 3366 4563 
z
" transform="scale(0.015625)"/>
       </defs>
       <use xlink:href="#DejaVuSans-30"/>
       <use xlink:href="#DejaVuSans-2e" transform="translate(63.623047 0)"/>
       <use xlink:href="#DejaVuSans-36" transform="translate(95.410156 0)"/>
      </g>
     </g>
    </g>
    <g id="ytick_5">
     <g id="line2d_12">
      <g>
       <use xlink:href="#m5b62710749" x="57.6" y="101.952" style="stroke: #000000; stroke-width: 0.8"/>
      </g>
     </g>
     <g id="text_12">
      <!-- 0.8 -->
      <g transform="translate(34.696875 105.751219) scale(0.1 -0.1)">
       <defs>
        <path id="DejaVuSans-38" d="M 2034 2216 
Q 1584 2216 1326 1975 
Q 1069 1734 1069 1313 
Q 1069 891 1326 650 
Q 1584 409 2034 409 
Q 2484 409 2743 651 
Q 3003 894 3003 1313 
Q 3003 1734 2745 1975 
Q 2488 2216 2034 2216 
z
M 1403 2484 
Q 997 2584 770 2862 
Q 544 3141 544 3541 
Q 544 4100 942 4425 
Q 1341 4750 2034 4750 
Q 2731 4750 3128 4425 
Q 3525 4100 3525 3541 
Q 3525 3141 3298 2862 
Q 3072 2584 2669 2484 
Q 3125 2378 3379 2068 
Q 3634 1759 3634 1313 
Q 3634 634 3220 271 
Q 2806 -91 2034 -91 
Q 1263 -91 848 271 
Q 434 634 434 1313 
Q 434 1759 690 2068 
Q 947 2378 1403 2484 
z
M 1172 3481 
Q 1172 3119 1398 2916 
Q 1625 2713 2034 2713 
Q 2441 2713 2670 2916 
Q 2900 3119 2900 3481 
Q 2900 3844 2670 4047 
Q 2441 4250 2034 4250 
Q 1625 4250 1398 4047 
Q 1172 3844 1172 3481 
z
" transform="scale(0.015625)"/>
       </defs>
       <use xlink:href="#DejaVuSans-30"/>
       <use xlink:href="#DejaVuSans-2e" transform="translate(63.623047 0)"/>
       <use xlink:href="#DejaVuSans-38" transform="translate(95.410156 0)"/>
      </g>
     </g>
    </g>
    <g id="ytick_6">
     <g id="line2d_13">
      <g>
       <use xlink:href="#m5b62710749" x="57.6" y="53.568" style="stroke: #000000; stroke-width: 0.8"/>
      </g>
     </g>
     <g id="text_13">
      <!-- 1.0 -->
      <g transform="translate(34.696875 57.367219) scale(0.1 -0.1)">
       <use xlink:href="#DejaVuSans-31"/>
       <use xlink:href="#DejaVuSans-2e" transform="translate(63.623047 0)"/>
       <use xlink:href="#DejaVuSans-30" transform="translate(95.410156 0)"/>
      </g>
     </g>
    </g>
   </g>
   <g id="line2d_14">
    <path d="M 73.832727 164.3808 
L 74.914909 148.091518 
L 75.997091 145.833603 
L 84.654545 145.87392 
L 85.736727 145.524491 
L 86.818909 145.833618 
L 87.901091 144.583673 
L 88.983273 144.839043 
L 90.065455 143.454723 
L 91.147636 142.728958 
L 92.229818 142.943996 
L 93.312 141.573129 
L 94.394182 141.089281 
L 95.476364 139.530239 
L 96.558545 139.18081 
L 97.640727 138.589449 
L 98.722909 136.855671 
L 100.887273 132.783372 
L 101.969455 132.460792 
L 104.133818 129.920643 
L 105.216 128.119684 
L 106.298182 127.326724 
L 107.380364 125.794559 
L 108.462545 124.558082 
L 109.544727 123.751669 
L 110.626909 121.655051 
L 111.709091 120.60672 
L 112.791273 118.711688 
L 113.873455 118.725127 
L 114.955636 117.448319 
L 116.037818 116.964485 
L 117.12 117.045119 
L 119.284364 112.663679 
L 120.366545 111.843841 
L 121.448727 111.870719 
L 122.530909 110.136955 
L 123.613091 108.887054 
L 124.695273 109.290239 
L 125.777455 108.913932 
L 126.859636 107.959674 
L 127.941818 105.863042 
L 129.024 105.876481 
L 130.106182 105.379194 
L 131.188364 103.376649 
L 132.270545 102.57025 
L 133.352727 102.986889 
L 134.434909 103.242259 
L 136.599273 101.145612 
L 137.681455 99.546238 
L 138.763636 99.290868 
L 139.845818 97.987196 
L 140.928 98.256005 
L 142.010182 98.26943 
L 143.092364 97.93344 
L 144.174545 96.791036 
L 145.256727 96.266885 
L 146.338909 95.433608 
L 147.421091 97.140494 
L 148.503273 95.043833 
L 149.585455 94.237434 
L 150.667636 91.979519 
L 151.749818 91.495685 
L 152.832 93.511683 
L 153.914182 93.404157 
L 154.996364 92.22145 
L 156.078545 91.979519 
L 157.160727 91.482246 
L 158.242909 91.710724 
L 159.325091 91.804797 
L 160.407273 89.587199 
L 161.489455 90.97152 
L 162.571636 89.03617 
L 163.653818 88.928629 
L 164.736 90.124804 
L 165.818182 90.17856 
L 166.900364 89.063048 
L 167.982545 87.114245 
L 169.064727 88.24321 
L 170.146909 85.313272 
L 171.229091 86.872329 
L 172.311273 84.842877 
L 173.393455 84.963857 
L 174.475636 82.88065 
L 175.557818 83.660171 
L 176.64 84.60096 
L 177.722182 83.431693 
L 178.804364 82.840332 
L 180.968727 83.01504 
L 183.133091 83.01504 
L 184.215273 83.109127 
L 185.297455 81.187217 
L 186.379636 82.907528 
L 187.461818 82.302714 
L 188.544 82.329592 
L 189.626182 81.227534 
L 190.708364 81.496329 
L 192.872727 80.394242 
L 193.954909 81.442573 
L 195.037091 79.077102 
L 196.119273 80.28673 
L 197.201455 79.117448 
L 198.283636 78.324488 
L 199.365818 78.069132 
L 200.448 77.450879 
L 201.530182 80.784003 
L 202.612364 78.794897 
L 203.694545 77.840654 
L 204.776727 78.808322 
L 205.858909 79.265278 
L 206.941091 78.606736 
L 208.023273 77.23584 
L 209.105455 78.216961 
L 210.187636 78.028815 
L 211.269818 76.026227 
L 212.352 74.400004 
L 213.434182 75.52894 
L 214.516364 76.308461 
L 215.598545 75.999364 
L 216.680727 75.394579 
L 217.762909 73.94302 
L 218.845091 73.297932 
L 219.927273 73.889292 
L 221.009455 72.733435 
L 222.091636 72.46464 
L 223.173818 72.746874 
L 224.256 73.378581 
L 225.338182 72.625923 
L 226.420364 73.002259 
L 227.502545 73.217283 
L 228.584727 73.163527 
L 229.666909 72.451216 
L 230.749091 71.913611 
L 231.831273 69.991686 
L 232.913455 70.314252 
L 233.995636 70.448642 
L 235.077818 69.991686 
L 237.242182 70.099213 
L 238.324364 69.158409 
L 239.406545 70.233603 
L 240.488727 70.112652 
L 241.570909 69.776633 
L 242.653091 68.204152 
L 243.735273 68.110107 
L 244.817455 67.43807 
L 245.899636 67.303679 
L 246.981818 66.90048 
L 248.064 67.532143 
L 249.146182 67.653123 
L 251.310545 66.349451 
L 252.392727 66.174715 
L 253.474909 65.663988 
L 254.557091 66.228485 
L 255.639273 67.438098 
L 256.721455 66.349451 
L 257.803636 66.981128 
L 258.885818 66.120973 
L 259.968 66.618231 
L 261.050182 66.443524 
L 262.132364 66.013418 
L 263.214545 65.422086 
L 264.296727 66.752622 
L 265.378909 65.529598 
L 266.461091 64.844165 
L 267.543273 64.535038 
L 268.625455 64.561916 
L 269.707636 65.475842 
L 270.789818 64.871043 
L 271.872 64.427526 
L 272.954182 64.239351 
L 274.036364 63.58081 
L 276.200727 63.177596 
L 278.365091 63.473297 
L 279.447273 63.258244 
L 280.529455 63.755531 
L 281.611636 64.078082 
L 282.693818 63.285122 
L 283.776 62.263684 
L 284.858182 62.196475 
L 285.940364 61.860499 
L 287.022545 62.371196 
L 289.186909 62.236806 
L 290.269091 61.72608 
L 291.351273 61.833592 
L 293.515636 61.161583 
L 294.597818 61.39009 
L 295.68 61.107827 
L 296.762182 60.516495 
L 297.844364 61.416968 
L 298.926545 60.691203 
L 301.090909 61.027193 
L 302.173091 61.040661 
L 303.255273 60.623993 
L 304.337455 60.449286 
L 305.419636 60.39553 
L 306.501818 60.489603 
L 307.584 60.27455 
L 310.830545 60.046072 
L 311.912727 60.26114 
L 312.994909 60.14016 
L 314.077091 60.220794 
L 315.159273 59.642887 
L 316.241455 59.817608 
L 317.323636 59.400941 
L 318.405818 59.710082 
L 319.488 59.320321 
L 320.570182 59.468151 
L 321.652364 59.051526 
L 322.734545 59.400984 
L 324.898909 59.400955 
L 325.981091 58.688658 
L 329.227636 58.984317 
L 333.556364 58.702097 
L 334.638545 58.984317 
L 335.720727 58.581117 
L 336.802909 58.728946 
L 337.885091 58.325761 
L 338.967273 58.554239 
L 340.049455 57.841913 
L 341.131636 58.688629 
L 342.213818 58.097283 
L 343.296 58.258566 
L 345.460364 58.245127 
L 346.542545 57.976303 
L 347.624727 58.621434 
L 349.789091 58.460151 
L 350.871273 58.191371 
L 351.953455 58.177918 
L 354.117818 58.379517 
L 355.2 57.989771 
L 356.282182 58.204796 
L 357.364364 57.949454 
L 358.446545 58.48703 
L 359.528727 57.962893 
L 361.693091 57.989742 
L 362.775273 57.653767 
L 363.857455 58.151039 
L 364.939636 58.137615 
L 366.021818 58.5408 
L 367.104 57.922547 
L 368.186182 58.016649 
L 369.268364 57.909137 
L 370.350545 58.124161 
L 372.514909 57.707523 
L 373.597091 57.949454 
L 375.761455 57.788157 
L 377.925818 58.030088 
L 379.008 57.465606 
L 380.090182 58.083844 
L 381.172364 57.88223 
L 382.254545 57.479031 
L 383.336727 57.895669 
L 384.418909 58.110737 
L 386.583273 57.667191 
L 387.665455 57.828474 
L 388.747636 57.626874 
L 389.829818 57.841913 
L 391.994182 57.774703 
L 393.076364 57.962893 
L 394.158545 57.492484 
L 395.240727 57.922576 
L 396.322909 57.465606 
L 397.405091 57.801625 
L 398.487273 57.747825 
L 398.487273 57.747825 
" clip-path="url(#pb218c4e8ae)" style="fill: none; stroke: #1f77b4; stroke-width: 1.5; stroke-linecap: square"/>
   </g>
   <g id="line2d_15">
    <path d="M 73.832727 117.174607 
L 74.914909 62.344073 
L 75.997091 53.614647 
L 77.079273 53.568 
L 78.161455 53.707927 
L 80.325818 53.568 
L 81.408 53.707927 
L 82.490182 53.66128 
L 83.572364 53.920255 
L 84.654545 54.435365 
L 86.818909 56.633035 
L 87.901091 61.189254 
L 88.983273 61.879836 
L 90.065455 64.308219 
L 91.147636 68.627337 
L 92.229818 68.474187 
L 93.312 73.318292 
L 94.394182 71.594694 
L 95.476364 78.616383 
L 96.558545 80.061857 
L 97.640727 80.094546 
L 98.722909 81.127073 
L 99.805091 83.181283 
L 100.887273 86.024704 
L 101.969455 87.081023 
L 103.051636 87.120648 
L 104.133818 86.802351 
L 105.216 89.146624 
L 106.298182 88.121293 
L 107.380364 85.882455 
L 108.462545 89.227677 
L 109.544727 87.004989 
L 110.626909 88.805458 
L 111.709091 90.242352 
L 112.791273 86.777087 
L 113.873455 86.431782 
L 114.955636 91.056465 
L 116.037818 89.384619 
L 117.12 87.368203 
L 118.202182 88.211256 
L 119.284364 90.986127 
L 120.366545 87.997703 
L 121.448727 90.881196 
L 122.530909 88.826625 
L 123.613091 87.418123 
L 124.695273 88.713864 
L 125.777455 87.801222 
L 126.859636 93.00808 
L 127.941818 89.15046 
L 129.024 88.730764 
L 130.106182 86.330975 
L 131.188364 88.433491 
L 132.270545 88.318898 
L 133.352727 87.864855 
L 134.434909 87.938727 
L 135.517091 89.519514 
L 137.681455 86.349591 
L 138.763636 87.077202 
L 139.845818 84.364638 
L 140.928 84.009571 
L 142.010182 85.732852 
L 143.092364 83.981684 
L 144.174545 83.562911 
L 145.256727 84.82367 
L 146.338909 84.413001 
L 147.421091 85.976831 
L 148.503273 84.332223 
L 150.667636 79.828217 
L 151.749818 79.124831 
L 152.832 83.343806 
L 153.914182 80.677587 
L 154.996364 82.647514 
L 156.078545 82.798934 
L 157.160727 81.39395 
L 158.242909 81.812348 
L 159.325091 81.299589 
L 160.407273 79.264211 
L 161.489455 81.410259 
L 162.571636 78.257437 
L 163.653818 81.85454 
L 164.736 82.003147 
L 165.818182 81.410734 
L 166.900364 79.698196 
L 167.982545 77.112092 
L 169.064727 79.881901 
L 170.146909 76.788431 
L 171.229091 77.704217 
L 172.311273 76.101944 
L 173.393455 78.746664 
L 174.475636 75.474203 
L 175.557818 76.082218 
L 176.64 77.583929 
L 178.804364 74.140394 
L 179.886545 76.155253 
L 180.968727 75.033369 
L 182.050909 76.534315 
L 183.133091 74.025889 
L 184.215273 78.657623 
L 185.297455 72.557747 
L 186.379636 74.41712 
L 187.461818 76.930146 
L 188.544 72.88422 
L 190.708364 76.380718 
L 191.790545 74.166263 
L 192.872727 74.066538 
L 193.954909 74.892677 
L 195.037091 72.855136 
L 196.119273 72.353148 
L 197.201455 73.005691 
L 198.283636 71.050572 
L 199.365818 71.573944 
L 200.448 69.930519 
L 201.530182 74.543955 
L 202.612364 73.73173 
L 203.694545 71.844455 
L 204.776727 72.781236 
L 205.858909 71.887757 
L 206.941091 72.952093 
L 208.023273 72.608807 
L 209.105455 72.706773 
L 210.187636 73.219417 
L 212.352 69.825112 
L 213.434182 71.599121 
L 214.516364 71.307183 
L 215.598545 71.451191 
L 216.680727 70.367979 
L 217.762909 67.480752 
L 218.845091 68.406069 
L 219.927273 70.170085 
L 221.009455 68.530178 
L 222.091636 68.535657 
L 223.173818 68.804524 
L 225.338182 68.876738 
L 226.420364 68.230741 
L 227.502545 67.423044 
L 228.584727 69.074156 
L 229.666909 69.430218 
L 230.749091 69.185071 
L 231.831273 65.632885 
L 232.913455 66.504259 
L 233.995636 66.483091 
L 235.077818 66.128399 
L 236.16 67.162757 
L 237.242182 68.913868 
L 238.324364 67.60675 
L 239.406545 65.476462 
L 240.488727 67.338286 
L 241.570909 67.303607 
L 242.653091 64.921958 
L 243.735273 64.862896 
L 244.817455 64.445075 
L 245.899636 64.759882 
L 246.981818 63.903418 
L 248.064 64.774013 
L 249.146182 64.25514 
L 250.228364 64.954301 
L 251.310545 63.433687 
L 252.392727 62.611873 
L 253.474909 63.361863 
L 254.557091 64.462681 
L 255.639273 66.285399 
L 256.721455 63.949042 
L 257.803636 64.00884 
L 258.885818 63.924053 
L 259.968 63.7121 
L 261.050182 62.759962 
L 262.132364 64.061817 
L 263.214545 63.556325 
L 264.296727 64.082235 
L 265.378909 64.163042 
L 266.461091 61.416809 
L 267.543273 62.701995 
L 268.625455 62.777294 
L 269.707636 63.473586 
L 270.789818 62.056158 
L 271.872 62.656011 
L 274.036364 62.092394 
L 275.118545 61.147423 
L 276.200727 61.608849 
L 277.282909 61.313335 
L 278.365091 61.821004 
L 279.447273 61.907983 
L 280.529455 61.434214 
L 281.611636 61.443846 
L 283.776 60.379265 
L 285.940364 60.86516 
L 287.022545 61.307365 
L 288.104727 60.101919 
L 289.186909 61.22252 
L 290.269091 60.563388 
L 291.351273 60.815788 
L 292.433455 60.477519 
L 293.515636 59.558864 
L 294.597818 58.839919 
L 295.68 58.942168 
L 296.762182 58.734758 
L 297.844364 60.644195 
L 298.926545 59.28583 
L 300.008727 59.725828 
L 301.090909 59.558922 
L 302.173091 59.5566 
L 303.255273 59.919858 
L 304.337455 59.316832 
L 305.419636 59.391986 
L 306.501818 59.277452 
L 308.666182 58.84873 
L 310.830545 59.043581 
L 311.912727 59.474409 
L 312.994909 58.884029 
L 314.077091 59.417999 
L 315.159273 59.365469 
L 316.241455 58.960409 
L 317.323636 58.818405 
L 318.405818 59.315159 
L 319.488 58.978275 
L 320.570182 59.142643 
L 321.652364 58.215322 
L 322.734545 58.394398 
L 323.816727 58.104392 
L 324.898909 58.754584 
L 325.981091 57.869166 
L 328.145455 58.327535 
L 329.227636 58.199907 
L 330.309818 58.297081 
L 331.392 57.93949 
L 332.474182 57.9467 
L 334.638545 57.569989 
L 335.720727 57.403429 
L 336.802909 57.969122 
L 337.885091 57.82634 
L 338.967273 57.936303 
L 340.049455 57.185506 
L 341.131636 57.816679 
L 342.213818 57.528807 
L 343.296 56.985132 
L 344.378182 57.346486 
L 348.706909 57.364453 
L 350.871273 57.24131 
L 354.117818 57.838395 
L 355.2 57.197099 
L 356.282182 57.68696 
L 357.364364 57.469975 
L 358.446545 58.273894 
L 360.610909 57.26614 
L 361.693091 57.536608 
L 362.775273 57.105737 
L 363.857455 57.241079 
L 364.939636 57.641063 
L 366.021818 57.887277 
L 367.104 57.422592 
L 368.186182 57.666788 
L 369.268364 57.369586 
L 370.350545 57.27857 
L 371.432727 57.360906 
L 373.597091 57.108967 
L 374.679273 57.368995 
L 375.761455 57.163069 
L 376.843636 57.470638 
L 377.925818 57.389125 
L 379.008 57.032269 
L 380.090182 57.232889 
L 382.254545 56.867425 
L 383.336727 57.344885 
L 384.418909 57.152168 
L 385.501091 57.259392 
L 386.583273 57.044281 
L 387.665455 57.295917 
L 388.747636 57.111361 
L 390.912 57.147063 
L 391.994182 57.033769 
L 393.076364 57.285953 
L 394.158545 56.799033 
L 395.240727 57.133898 
L 396.322909 56.707555 
L 397.405091 56.974981 
L 398.487273 57.091865 
L 398.487273 57.091865 
" clip-path="url(#pb218c4e8ae)" style="fill: none; stroke: #ff7f0e; stroke-width: 1.5; stroke-linecap: square"/>
   </g>
   <g id="line2d_16">
    <path d="M 73.832727 240.824586 
L 74.914909 287.005586 
L 75.997091 295.392831 
L 77.079273 295.456277 
L 78.161455 295.329385 
L 80.325818 295.424554 
L 81.408 295.297662 
L 82.490182 295.361108 
L 83.572364 294.72811 
L 84.654545 294.384277 
L 85.736727 292.162072 
L 86.818909 291.335878 
L 87.901091 282.347332 
L 88.983273 281.589471 
L 90.065455 274.785045 
L 91.147636 266.919145 
L 92.229818 267.648697 
L 93.312 257.562416 
L 94.394182 258.712225 
L 95.476364 244.460653 
L 97.640727 239.888692 
L 98.722909 234.315602 
L 100.887273 217.253684 
L 101.969455 214.662151 
L 104.133818 209.048301 
L 105.216 200.655766 
L 106.298182 199.923931 
L 107.380364 199.599281 
L 108.462545 192.064054 
L 109.544727 192.79576 
L 110.626909 185.277584 
L 111.709091 180.418194 
L 112.791273 180.026515 
L 113.873455 180.933116 
L 114.955636 168.074023 
L 116.037818 168.914755 
L 117.12 173.307111 
L 118.202182 164.725168 
L 119.284364 153.984156 
L 120.366545 156.948601 
L 121.448727 150.484746 
L 122.530909 149.516488 
L 123.613091 149.306827 
L 124.695273 148.776101 
L 125.777455 147.626747 
L 126.859636 135.428265 
L 127.941818 138.010865 
L 129.024 138.009394 
L 130.106182 140.859318 
L 131.188364 131.315014 
L 132.270545 129.114172 
L 134.434909 132.055199 
L 135.517091 125.579737 
L 136.599273 127.521532 
L 137.681455 124.55044 
L 138.763636 123.580884 
L 140.928 125.29968 
L 142.010182 122.447781 
L 143.092364 124.54323 
L 144.174545 120.405914 
L 145.256727 117.325724 
L 146.338909 116.111597 
L 147.421091 118.070018 
L 148.503273 115.964806 
L 149.585455 115.91849 
L 150.667636 114.569123 
L 151.749818 115.067102 
L 152.832 113.135877 
L 153.914182 116.444516 
L 154.996364 110.938062 
L 156.078545 110.53221 
L 157.160727 110.268577 
L 158.242909 109.772962 
L 159.325091 112.313847 
L 160.407273 108.761099 
L 161.489455 108.896772 
L 162.571636 108.278866 
L 163.653818 102.407208 
L 164.736 106.480776 
L 166.900364 106.171765 
L 167.982545 104.555203 
L 169.064727 103.789481 
L 170.146909 100.778764 
L 171.229091 103.604911 
L 172.311273 101.255013 
L 173.393455 97.060797 
L 174.475636 96.985585 
L 175.557818 97.538705 
L 176.64 97.739382 
L 177.722182 97.167935 
L 178.804364 98.79968 
L 179.886545 95.904695 
L 180.968727 97.70166 
L 182.050909 95.39531 
L 183.133091 98.249863 
L 184.215273 91.940629 
L 185.297455 96.51297 
L 186.379636 97.398705 
L 187.461818 91.100027 
L 188.544 99.632583 
L 189.626182 92.933099 
L 190.708364 91.733233 
L 191.790545 92.724376 
L 192.872727 92.11388 
L 193.954909 94.034507 
L 195.037091 90.710165 
L 196.119273 94.495414 
L 197.201455 89.7966 
L 198.283636 92.010031 
L 199.365818 89.609348 
L 200.448 91.019811 
L 201.530182 91.102406 
L 202.612364 88.104581 
L 203.694545 88.627347 
L 205.858909 92.114198 
L 206.941091 88.158034 
L 208.023273 85.406336 
L 209.105455 87.941106 
L 210.187636 87.975151 
L 211.269818 84.406412 
L 212.352 83.384454 
L 213.434182 83.141182 
L 214.516364 85.558577 
L 215.598545 85.294642 
L 216.680727 84.64184 
L 217.762909 85.180987 
L 218.845091 82.116197 
L 219.927273 81.08416 
L 222.091636 79.536293 
L 223.173818 80.059377 
L 224.256 81.804143 
L 225.338182 79.865117 
L 226.420364 81.687633 
L 227.502545 83.204902 
L 228.584727 80.116464 
L 229.666909 77.803654 
L 230.749091 77.078321 
L 231.831273 77.829436 
L 232.913455 77.617065 
L 233.995636 76.945027 
L 235.077818 76.676665 
L 236.16 75.946574 
L 237.242182 72.739708 
L 238.324364 72.335355 
L 239.406545 78.108772 
L 240.488727 74.875676 
L 241.570909 74.032579 
L 242.653091 74.386262 
L 243.735273 73.962789 
L 244.817455 72.528259 
L 245.899636 72.240979 
L 246.981818 72.203084 
L 248.064 71.924786 
L 249.146182 73.465415 
L 250.228364 70.50061 
L 251.310545 71.638082 
L 252.392727 72.501569 
L 253.474909 69.728501 
L 254.557091 69.873648 
L 255.639273 70.858879 
L 256.721455 70.725036 
L 257.803636 72.396263 
L 258.885818 70.499615 
L 259.968 71.844729 
L 261.050182 73.40083 
L 262.132364 69.495567 
L 263.214545 68.289746 
L 264.296727 71.134133 
L 265.378909 68.107699 
L 266.461091 70.742037 
L 267.543273 67.865206 
L 268.625455 67.676958 
L 269.707636 69.076362 
L 270.789818 69.826929 
L 271.872 68.053136 
L 272.954182 67.482914 
L 274.036364 66.254325 
L 275.118545 67.593613 
L 276.200727 66.227404 
L 277.282909 66.941374 
L 279.447273 65.95561 
L 280.529455 67.918904 
L 281.611636 68.697156 
L 282.693818 67.601443 
L 283.776 65.753505 
L 284.858182 65.186427 
L 285.940364 63.617738 
L 287.022545 64.467958 
L 288.104727 66.996528 
L 289.186909 64.323128 
L 290.269091 64.004802 
L 292.433455 63.581271 
L 293.515636 64.279754 
L 294.597818 65.858667 
L 296.762182 63.59546 
L 297.844364 62.97415 
L 298.926545 63.215952 
L 300.008727 63.334596 
L 301.090909 63.865509 
L 302.173091 63.635892 
L 303.255273 61.934457 
L 304.337455 62.477368 
L 305.419636 62.13437 
L 306.501818 62.709667 
L 308.666182 62.638867 
L 309.748364 62.743581 
L 310.830545 62.126078 
L 311.912727 61.829785 
L 312.994909 62.589436 
L 314.077091 62.111255 
L 315.159273 60.50434 
L 316.241455 61.594718 
L 317.323636 60.529055 
L 318.405818 60.540086 
L 319.488 60.083808 
L 321.652364 60.623878 
L 322.734545 61.555511 
L 323.816727 61.58298 
L 324.898909 60.575616 
L 327.063273 60.064817 
L 329.227636 60.542119 
L 330.309818 60.074853 
L 331.392 60.307282 
L 332.474182 60.154276 
L 333.556364 60.390368 
L 334.638545 61.257762 
L 335.720727 60.601816 
L 336.802909 60.199049 
L 337.885091 59.217856 
L 338.967273 59.808971 
L 340.049455 58.983913 
L 341.131636 60.333728 
L 342.213818 59.297365 
L 343.296 60.445537 
L 344.378182 60.012719 
L 345.460364 59.785064 
L 346.542545 59.093011 
L 347.624727 60.654707 
L 349.789091 60.456049 
L 351.953455 59.355721 
L 354.117818 59.407343 
L 357.364364 58.842976 
L 358.446545 58.892104 
L 359.528727 58.354211 
L 360.610909 59.117106 
L 361.693091 58.705226 
L 362.775273 58.509452 
L 363.857455 59.657941 
L 364.939636 59.086148 
L 366.021818 59.737897 
L 367.104 58.697195 
L 368.186182 58.563035 
L 369.268364 58.825644 
L 370.350545 59.485858 
L 372.514909 58.55744 
L 373.597091 59.38518 
L 374.679273 58.683035 
L 375.761455 58.904274 
L 376.843636 58.619762 
L 377.925818 59.087099 
L 379.008 58.1791 
L 380.090182 59.464719 
L 381.172364 59.334972 
L 382.254545 58.486698 
L 383.336727 58.844173 
L 384.418909 59.742151 
L 385.501091 58.93369 
L 386.583273 58.780049 
L 387.665455 58.810489 
L 388.747636 58.45225 
L 389.829818 59.024302 
L 390.912 58.888528 
L 393.076364 59.072925 
L 394.158545 58.656243 
L 395.240727 59.216904 
L 396.322909 58.68948 
L 397.405091 59.153963 
L 398.487273 58.917583 
L 398.487273 58.917583 
" clip-path="url(#pb218c4e8ae)" style="fill: none; stroke: #2ca02c; stroke-width: 1.5; stroke-linecap: square"/>
   </g>
   <g id="line2d_17">
    <path d="M 73.832727 168.143987 
L 74.914909 146.102398 
L 85.736727 146.102398 
L 86.818909 146.707212 
L 87.901091 146.908798 
L 88.983273 147.782392 
L 90.065455 154.300795 
L 91.147636 150.739194 
L 92.229818 155.577604 
L 94.394182 155.107194 
L 95.476364 157.862382 
L 96.558545 157.324807 
L 97.640727 153.158392 
L 98.722909 160.415999 
L 99.805091 154.905595 
L 100.887273 154.099195 
L 101.969455 155.174404 
L 103.051636 156.518393 
L 104.133818 152.553592 
L 106.298182 162.969601 
L 107.380364 161.894393 
L 108.462545 167.068807 
L 109.544727 165.657594 
L 111.709091 150.20159 
L 112.791273 156.921593 
L 113.873455 152.284797 
L 114.955636 160.079995 
L 116.037818 160.684808 
L 117.12 147.379192 
L 118.202182 157.795187 
L 119.284364 149.327995 
L 120.366545 153.091211 
L 121.448727 149.327995 
L 122.530909 160.819213 
L 123.613091 163.574401 
L 124.695273 157.795187 
L 125.777455 162.566402 
L 126.859636 161.155203 
L 127.941818 174.729593 
L 129.024 161.692793 
L 130.106182 145.094399 
L 131.188364 160.348804 
L 132.270545 171.504003 
L 133.352727 147.715197 
L 134.434909 154.703995 
L 135.517091 163.775986 
L 136.599273 184.003198 
L 137.681455 163.103992 
L 138.763636 162.566402 
L 139.845818 149.32801 
L 140.928 154.4352 
L 142.010182 160.819199 
L 143.092364 142.742397 
L 144.174545 163.036782 
L 145.256727 157.862397 
L 146.338909 169.152 
L 147.421091 153.158392 
L 148.503273 152.351992 
L 149.585455 182.1888 
L 150.667636 160.14719 
L 151.749818 154.77119 
L 152.832 146.774393 
L 153.914182 146.371179 
L 154.996364 162.230397 
L 156.078545 155.039999 
L 157.160727 166.262408 
L 158.242909 164.51519 
L 159.325091 179.971202 
L 160.407273 139.919985 
L 161.489455 149.2608 
L 162.571636 153.964805 
L 163.653818 175.199987 
L 164.736 144.4896 
L 165.818182 151.747193 
L 166.900364 161.020798 
L 167.982545 154.30081 
L 169.064727 146.438403 
L 170.146909 151.142379 
L 171.229091 156.921593 
L 172.311273 152.688011 
L 173.393455 159.542405 
L 174.475636 157.660797 
L 175.557818 153.292796 
L 176.64 157.190388 
L 177.722182 171.503988 
L 178.804364 171.638393 
L 179.886545 153.763205 
L 180.968727 167.740802 
L 182.050909 161.155203 
L 183.133091 157.526407 
L 184.215273 155.644799 
L 186.379636 157.392002 
L 187.461818 162.633597 
L 188.544 167.270393 
L 189.626182 185.212797 
L 190.708364 159.2064 
L 191.790545 159.676795 
L 192.872727 154.972804 
L 193.954909 173.183996 
L 195.037091 163.708791 
L 196.119273 161.155203 
L 197.201455 163.238411 
L 198.283636 151.679998 
L 199.365818 151.545607 
L 200.448 156.047998 
L 201.530182 159.34079 
L 202.612364 153.763191 
L 203.694545 163.372801 
L 204.776727 150.000004 
L 205.858909 165.455994 
L 206.941091 151.008003 
L 208.023273 165.523204 
L 209.105455 178.358389 
L 210.187636 164.918404 
L 211.269818 161.423984 
L 212.352 158.937591 
L 213.434182 166.195198 
L 214.516364 164.985599 
L 215.598545 169.48799 
L 216.680727 152.083197 
L 217.762909 164.447995 
L 218.845091 183.734396 
L 219.927273 170.294404 
L 221.009455 168.144001 
L 222.091636 168.211196 
L 224.256 159.273595 
L 225.338182 182.659195 
L 226.420364 161.289593 
L 227.502545 160.886394 
L 228.584727 170.428794 
L 229.666909 164.784 
L 230.749091 164.3808 
L 231.831273 162.700792 
L 232.913455 150.403204 
L 233.995636 157.728006 
L 235.077818 173.587196 
L 236.16 157.862397 
L 237.242182 163.372801 
L 238.324364 163.84321 
L 239.406545 161.020798 
L 240.488727 157.660797 
L 241.570909 156.518393 
L 242.653091 163.103992 
L 243.735273 168.143987 
L 244.817455 169.084805 
L 245.899636 163.238396 
L 246.981818 159.004786 
L 248.064 165.32159 
L 249.146182 159.878395 
L 250.228364 163.036811 
L 251.310545 169.219195 
L 253.474909 150.739194 
L 254.557091 164.851195 
L 255.639273 157.727992 
L 256.721455 173.520001 
L 257.803636 167.740802 
L 258.885818 175.401594 
L 259.968 159.2064 
L 261.050182 164.246395 
L 262.132364 162.028798 
L 263.214545 172.243193 
L 264.296727 157.526407 
L 265.378909 165.254394 
L 266.461091 167.337588 
L 267.543273 163.036797 
L 268.625455 170.159985 
L 269.707636 162.297607 
L 270.789818 176.275189 
L 271.872 162.700806 
L 272.954182 167.740787 
L 274.036364 169.017596 
L 275.118545 165.926389 
L 276.200727 164.649581 
L 277.282909 166.867193 
L 278.365091 167.001583 
L 279.447273 161.356789 
L 281.611636 165.657594 
L 282.693818 165.254409 
L 283.776 163.238396 
L 284.858182 170.496004 
L 285.940364 164.649609 
L 287.022545 170.361599 
L 288.104727 166.799998 
L 289.186909 164.918404 
L 290.269091 165.456009 
L 291.351273 168.883191 
L 292.433455 166.531188 
L 293.515636 162.095993 
L 294.597818 164.716805 
L 295.68 164.3808 
L 296.762182 166.732788 
L 297.844364 163.708791 
L 298.926545 170.025595 
L 300.008727 168.278392 
L 301.090909 163.574401 
L 302.173091 167.740787 
L 303.255273 165.926389 
L 304.337455 170.025595 
L 306.501818 164.447995 
L 307.584 167.001598 
L 308.666182 169.084791 
L 310.830545 164.985599 
L 311.912727 169.824009 
L 312.994909 169.7568 
L 314.077091 166.127989 
L 315.159273 168.211196 
L 316.241455 168.278392 
L 317.323636 167.337588 
L 319.488 169.756785 
L 321.652364 167.270393 
L 322.734545 164.3808 
L 323.816727 168.412796 
L 324.898909 168.278406 
L 325.981091 167.740802 
L 327.063273 165.254394 
L 328.145455 168.076806 
L 329.227636 165.388785 
L 330.309818 167.001612 
L 331.392 167.136002 
L 332.474182 166.531203 
L 333.556364 164.447995 
L 334.638545 165.657594 
L 335.720727 165.523204 
L 336.802909 167.270393 
L 337.885091 167.875206 
L 338.967273 167.001612 
L 340.049455 167.001598 
L 342.213818 169.286391 
L 343.296 168.144001 
L 344.378182 167.404797 
L 345.460364 167.136002 
L 346.542545 166.195198 
L 347.624727 168.144001 
L 348.706909 167.136002 
L 349.789091 169.084805 
L 350.871273 168.009597 
L 351.953455 167.807982 
L 353.035636 167.942401 
L 354.117818 168.211196 
L 355.2 167.471992 
L 356.282182 167.001612 
L 357.364364 167.001598 
L 358.446545 167.404797 
L 359.528727 165.724789 
L 360.610909 168.345601 
L 361.693091 166.463993 
L 362.775273 167.673592 
L 363.857455 168.412796 
L 364.939636 167.337602 
L 366.021818 167.337602 
L 367.104 166.329603 
L 368.186182 167.068793 
L 369.268364 167.539202 
L 370.350545 167.270407 
L 371.432727 167.270407 
L 372.514909 166.934388 
L 373.597091 167.942401 
L 374.679273 168.547201 
L 375.761455 167.203197 
L 376.843636 167.203197 
L 377.925818 167.404797 
L 379.008 167.404797 
L 380.090182 167.539202 
L 381.172364 166.799998 
L 382.254545 167.270393 
L 383.336727 166.464008 
L 384.418909 166.732803 
L 385.501091 167.606397 
L 386.583273 168.211211 
L 387.665455 166.665593 
L 388.747636 168.009597 
L 389.829818 167.539202 
L 390.912 167.807997 
L 391.994182 167.539202 
L 393.076364 167.539202 
L 394.158545 166.934388 
L 395.240727 167.337602 
L 397.405091 167.740787 
L 398.487273 168.211196 
L 398.487273 168.211196 
" clip-path="url(#pb218c4e8ae)" style="fill: none; stroke: #d62728; stroke-width: 1.5; stroke-linecap: square"/>
   </g>
   <g id="patch_3">
    <path d="M 57.6 307.584 
L 57.6 41.472 
" style="fill: none; stroke: #000000; stroke-width: 0.8; stroke-linejoin: miter; stroke-linecap: square"/>
   </g>
   <g id="patch_4">
    <path d="M 414.72 307.584 
L 414.72 41.472 
" style="fill: none; stroke: #000000; stroke-width: 0.8; stroke-linejoin: miter; stroke-linecap: square"/>
   </g>
   <g id="patch_5">
    <path d="M 57.6 307.584 
L 414.72 307.584 
" style="fill: none; stroke: #000000; stroke-width: 0.8; stroke-linejoin: miter; stroke-linecap: square"/>
   </g>
   <g id="patch_6">
    <path d="M 57.6 41.472 
L 414.72 41.472 
" style="fill: none; stroke: #000000; stroke-width: 0.8; stroke-linejoin: miter; stroke-linecap: square"/>
   </g>
   <g id="text_14">
    <!-- ice1 -->
    <g transform="translate(223.684687 35.472) scale(0.12 -0.12)">
     <defs>
      <path id="DejaVuSans-69" d="M 603 3500 
L 1178 3500 
L 1178 0 
L 603 0 
L 603 3500 
z
M 603 4863 
L 1178 4863 
L 1178 4134 
L 603 4134 
L 603 4863 
z
" transform="scale(0.015625)"/>
      <path id="DejaVuSans-63" d="M 3122 3366 
L 3122 2828 
Q 2878 2963 2633 3030 
Q 2388 3097 2138 3097 
Q 1578 3097 1268 2742 
Q 959 2388 959 1747 
Q 959 1106 1268 751 
Q 1578 397 2138 397 
Q 2388 397 2633 464 
Q 2878 531 3122 666 
L 3122 134 
Q 2881 22 2623 -34 
Q 2366 -91 2075 -91 
Q 1284 -91 818 406 
Q 353 903 353 1747 
Q 353 2603 823 3093 
Q 1294 3584 2113 3584 
Q 2378 3584 2631 3529 
Q 2884 3475 3122 3366 
z
" transform="scale(0.015625)"/>
      <path id="DejaVuSans-65" d="M 3597 1894 
L 3597 1613 
L 953 1613 
Q 991 1019 1311 708 
Q 1631 397 2203 397 
Q 2534 397 2845 478 
Q 3156 559 3463 722 
L 3463 178 
Q 3153 47 2828 -22 
Q 2503 -91 2169 -91 
Q 1331 -91 842 396 
Q 353 884 353 1716 
Q 353 2575 817 3079 
Q 1281 3584 2069 3584 
Q 2775 3584 3186 3129 
Q 3597 2675 3597 1894 
z
M 3022 2063 
Q 3016 2534 2758 2815 
Q 2500 3097 2075 3097 
Q 1594 3097 1305 2825 
Q 1016 2553 972 2059 
L 3022 2063 
z
" transform="scale(0.015625)"/>
     </defs>
     <use xlink:href="#DejaVuSans-69"/>
     <use xlink:href="#DejaVuSans-63" transform="translate(27.783203 0)"/>
     <use xlink:href="#DejaVuSans-65" transform="translate(82.763672 0)"/>
     <use xlink:href="#DejaVuSans-31" transform="translate(144.287109 0)"/>
    </g>
   </g>
   <g id="legend_1">
    <g id="patch_7">
     <path d="M 316.259063 302.584 
L 407.72 302.584 
Q 409.72 302.584 409.72 300.584 
L 409.72 212.40275 
Q 409.72 210.40275 407.72 210.40275 
L 316.259063 210.40275 
Q 314.259063 210.40275 314.259063 212.40275 
L 314.259063 300.584 
Q 314.259063 302.584 316.259063 302.584 
z
" style="fill: #ffffff; opacity: 0.8; stroke: #cccccc; stroke-linejoin: miter"/>
    </g>
    <g id="line2d_18">
     <path d="M 318.259063 218.501187 
L 328.259063 218.501187 
L 338.259063 218.501187 
" style="fill: none; stroke: #1f77b4; stroke-width: 1.5; stroke-linecap: square"/>
    </g>
    <g id="text_15">
     <!-- train -->
     <g transform="translate(346.259063 222.001187) scale(0.1 -0.1)">
      <defs>
       <path id="DejaVuSans-74" d="M 1172 4494 
L 1172 3500 
L 2356 3500 
L 2356 3053 
L 1172 3053 
L 1172 1153 
Q 1172 725 1289 603 
Q 1406 481 1766 481 
L 2356 481 
L 2356 0 
L 1766 0 
Q 1100 0 847 248 
Q 594 497 594 1153 
L 594 3053 
L 172 3053 
L 172 3500 
L 594 3500 
L 594 4494 
L 1172 4494 
z
" transform="scale(0.015625)"/>
       <path id="DejaVuSans-72" d="M 2631 2963 
Q 2534 3019 2420 3045 
Q 2306 3072 2169 3072 
Q 1681 3072 1420 2755 
Q 1159 2438 1159 1844 
L 1159 0 
L 581 0 
L 581 3500 
L 1159 3500 
L 1159 2956 
Q 1341 3275 1631 3429 
Q 1922 3584 2338 3584 
Q 2397 3584 2469 3576 
Q 2541 3569 2628 3553 
L 2631 2963 
z
" transform="scale(0.015625)"/>
       <path id="DejaVuSans-61" d="M 2194 1759 
Q 1497 1759 1228 1600 
Q 959 1441 959 1056 
Q 959 750 1161 570 
Q 1363 391 1709 391 
Q 2188 391 2477 730 
Q 2766 1069 2766 1631 
L 2766 1759 
L 2194 1759 
z
M 3341 1997 
L 3341 0 
L 2766 0 
L 2766 531 
Q 2569 213 2275 61 
Q 1981 -91 1556 -91 
Q 1019 -91 701 211 
Q 384 513 384 1019 
Q 384 1609 779 1909 
Q 1175 2209 1959 2209 
L 2766 2209 
L 2766 2266 
Q 2766 2663 2505 2880 
Q 2244 3097 1772 3097 
Q 1472 3097 1187 3025 
Q 903 2953 641 2809 
L 641 3341 
Q 956 3463 1253 3523 
Q 1550 3584 1831 3584 
Q 2591 3584 2966 3190 
Q 3341 2797 3341 1997 
z
" transform="scale(0.015625)"/>
       <path id="DejaVuSans-6e" d="M 3513 2113 
L 3513 0 
L 2938 0 
L 2938 2094 
Q 2938 2591 2744 2837 
Q 2550 3084 2163 3084 
Q 1697 3084 1428 2787 
Q 1159 2491 1159 1978 
L 1159 0 
L 581 0 
L 581 3500 
L 1159 3500 
L 1159 2956 
Q 1366 3272 1645 3428 
Q 1925 3584 2291 3584 
Q 2894 3584 3203 3211 
Q 3513 2838 3513 2113 
z
" transform="scale(0.015625)"/>
      </defs>
      <use xlink:href="#DejaVuSans-74"/>
      <use xlink:href="#DejaVuSans-72" transform="translate(39.208984 0)"/>
      <use xlink:href="#DejaVuSans-61" transform="translate(80.322266 0)"/>
      <use xlink:href="#DejaVuSans-69" transform="translate(141.601562 0)"/>
      <use xlink:href="#DejaVuSans-6e" transform="translate(169.384766 0)"/>
     </g>
    </g>
    <g id="line2d_19">
     <path d="M 318.259063 233.179312 
L 328.259063 233.179312 
L 338.259063 233.179312 
" style="fill: none; stroke: #ff7f0e; stroke-width: 1.5; stroke-linecap: square"/>
    </g>
    <g id="text_16">
     <!-- train_class0 -->
     <g transform="translate(346.259063 236.679312) scale(0.1 -0.1)">
      <defs>
       <path id="DejaVuSans-5f" d="M 3263 -1063 
L 3263 -1509 
L -63 -1509 
L -63 -1063 
L 3263 -1063 
z
" transform="scale(0.015625)"/>
       <path id="DejaVuSans-6c" d="M 603 4863 
L 1178 4863 
L 1178 0 
L 603 0 
L 603 4863 
z
" transform="scale(0.015625)"/>
       <path id="DejaVuSans-73" d="M 2834 3397 
L 2834 2853 
Q 2591 2978 2328 3040 
Q 2066 3103 1784 3103 
Q 1356 3103 1142 2972 
Q 928 2841 928 2578 
Q 928 2378 1081 2264 
Q 1234 2150 1697 2047 
L 1894 2003 
Q 2506 1872 2764 1633 
Q 3022 1394 3022 966 
Q 3022 478 2636 193 
Q 2250 -91 1575 -91 
Q 1294 -91 989 -36 
Q 684 19 347 128 
L 347 722 
Q 666 556 975 473 
Q 1284 391 1588 391 
Q 1994 391 2212 530 
Q 2431 669 2431 922 
Q 2431 1156 2273 1281 
Q 2116 1406 1581 1522 
L 1381 1569 
Q 847 1681 609 1914 
Q 372 2147 372 2553 
Q 372 3047 722 3315 
Q 1072 3584 1716 3584 
Q 2034 3584 2315 3537 
Q 2597 3491 2834 3397 
z
" transform="scale(0.015625)"/>
      </defs>
      <use xlink:href="#DejaVuSans-74"/>
      <use xlink:href="#DejaVuSans-72" transform="translate(39.208984 0)"/>
      <use xlink:href="#DejaVuSans-61" transform="translate(80.322266 0)"/>
      <use xlink:href="#DejaVuSans-69" transform="translate(141.601562 0)"/>
      <use xlink:href="#DejaVuSans-6e" transform="translate(169.384766 0)"/>
      <use xlink:href="#DejaVuSans-5f" transform="translate(232.763672 0)"/>
      <use xlink:href="#DejaVuSans-63" transform="translate(282.763672 0)"/>
      <use xlink:href="#DejaVuSans-6c" transform="translate(337.744141 0)"/>
      <use xlink:href="#DejaVuSans-61" transform="translate(365.527344 0)"/>
      <use xlink:href="#DejaVuSans-73" transform="translate(426.806641 0)"/>
      <use xlink:href="#DejaVuSans-73" transform="translate(478.90625 0)"/>
      <use xlink:href="#DejaVuSans-30" transform="translate(531.005859 0)"/>
     </g>
    </g>
    <g id="line2d_20">
     <path d="M 318.259063 248.135562 
L 328.259063 248.135562 
L 338.259063 248.135562 
" style="fill: none; stroke: #2ca02c; stroke-width: 1.5; stroke-linecap: square"/>
    </g>
    <g id="text_17">
     <!-- train_class1 -->
     <g transform="translate(346.259063 251.635562) scale(0.1 -0.1)">
      <use xlink:href="#DejaVuSans-74"/>
      <use xlink:href="#DejaVuSans-72" transform="translate(39.208984 0)"/>
      <use xlink:href="#DejaVuSans-61" transform="translate(80.322266 0)"/>
      <use xlink:href="#DejaVuSans-69" transform="translate(141.601562 0)"/>
      <use xlink:href="#DejaVuSans-6e" transform="translate(169.384766 0)"/>
      <use xlink:href="#DejaVuSans-5f" transform="translate(232.763672 0)"/>
      <use xlink:href="#DejaVuSans-63" transform="translate(282.763672 0)"/>
      <use xlink:href="#DejaVuSans-6c" transform="translate(337.744141 0)"/>
      <use xlink:href="#DejaVuSans-61" transform="translate(365.527344 0)"/>
      <use xlink:href="#DejaVuSans-73" transform="translate(426.806641 0)"/>
      <use xlink:href="#DejaVuSans-73" transform="translate(478.90625 0)"/>
      <use xlink:href="#DejaVuSans-31" transform="translate(531.005859 0)"/>
     </g>
    </g>
    <g id="line2d_21">
     <path d="M 318.259063 263.091812 
L 328.259063 263.091812 
L 338.259063 263.091812 
" style="fill: none; stroke: #d62728; stroke-width: 1.5; stroke-linecap: square"/>
    </g>
    <g id="text_18">
     <!-- test -->
     <g transform="translate(346.259063 266.591812) scale(0.1 -0.1)">
      <use xlink:href="#DejaVuSans-74"/>
      <use xlink:href="#DejaVuSans-65" transform="translate(39.208984 0)"/>
      <use xlink:href="#DejaVuSans-73" transform="translate(100.732422 0)"/>
      <use xlink:href="#DejaVuSans-74" transform="translate(152.832031 0)"/>
     </g>
    </g>
    <g id="line2d_22">
     <path d="M 318.259063 277.769937 
L 328.259063 277.769937 
L 338.259063 277.769937 
" style="fill: none; stroke: #9467bd; stroke-width: 1.5; stroke-linecap: square"/>
    </g>
    <g id="text_19">
     <!-- test_class0 -->
     <g transform="translate(346.259063 281.269937) scale(0.1 -0.1)">
      <use xlink:href="#DejaVuSans-74"/>
      <use xlink:href="#DejaVuSans-65" transform="translate(39.208984 0)"/>
      <use xlink:href="#DejaVuSans-73" transform="translate(100.732422 0)"/>
      <use xlink:href="#DejaVuSans-74" transform="translate(152.832031 0)"/>
      <use xlink:href="#DejaVuSans-5f" transform="translate(192.041016 0)"/>
      <use xlink:href="#DejaVuSans-63" transform="translate(242.041016 0)"/>
      <use xlink:href="#DejaVuSans-6c" transform="translate(297.021484 0)"/>
      <use xlink:href="#DejaVuSans-61" transform="translate(324.804688 0)"/>
      <use xlink:href="#DejaVuSans-73" transform="translate(386.083984 0)"/>
      <use xlink:href="#DejaVuSans-73" transform="translate(438.183594 0)"/>
      <use xlink:href="#DejaVuSans-30" transform="translate(490.283203 0)"/>
     </g>
    </g>
    <g id="line2d_23">
     <path d="M 318.259063 292.726187 
L 328.259063 292.726187 
L 338.259063 292.726187 
" style="fill: none; stroke: #8c564b; stroke-width: 1.5; stroke-linecap: square"/>
    </g>
    <g id="text_20">
     <!-- test_class1 -->
     <g transform="translate(346.259063 296.226187) scale(0.1 -0.1)">
      <use xlink:href="#DejaVuSans-74"/>
      <use xlink:href="#DejaVuSans-65" transform="translate(39.208984 0)"/>
      <use xlink:href="#DejaVuSans-73" transform="translate(100.732422 0)"/>
      <use xlink:href="#DejaVuSans-74" transform="translate(152.832031 0)"/>
      <use xlink:href="#DejaVuSans-5f" transform="translate(192.041016 0)"/>
      <use xlink:href="#DejaVuSans-63" transform="translate(242.041016 0)"/>
      <use xlink:href="#DejaVuSans-6c" transform="translate(297.021484 0)"/>
      <use xlink:href="#DejaVuSans-61" transform="translate(324.804688 0)"/>
      <use xlink:href="#DejaVuSans-73" transform="translate(386.083984 0)"/>
      <use xlink:href="#DejaVuSans-73" transform="translate(438.183594 0)"/>
      <use xlink:href="#DejaVuSans-31" transform="translate(490.283203 0)"/>
     </g>
    </g>
   </g>
   <g id="line2d_24">
    <path d="M 73.832727 117.844597 
L 74.914909 53.568 
L 85.736727 53.646284 
L 86.818909 56.803792 
L 87.901091 56.333801 
L 88.983273 58.595695 
L 90.065455 75.754217 
L 91.147636 65.821911 
L 92.229818 78.850975 
L 93.312 76.555382 
L 94.394182 76.209889 
L 95.476364 88.062101 
L 96.558545 84.278092 
L 97.640727 84.543859 
L 98.722909 84.062635 
L 99.805091 79.16238 
L 100.887273 83.750394 
L 101.969455 78.021158 
L 103.051636 83.038241 
L 104.133818 79.922146 
L 105.216 80.884276 
L 106.298182 96.776617 
L 107.380364 100.872679 
L 108.462545 99.410695 
L 109.544727 91.809584 
L 110.626909 97.758992 
L 111.709091 83.944063 
L 112.791273 91.636016 
L 113.873455 91.588735 
L 114.955636 110.652699 
L 116.037818 86.045353 
L 117.12 95.210422 
L 118.202182 114.761177 
L 119.284364 112.85856 
L 120.366545 117.9404 
L 121.448727 88.014776 
L 122.530909 120.606187 
L 123.613091 119.170749 
L 124.695273 119.776298 
L 125.777455 138.427287 
L 126.859636 121.648331 
L 127.941818 136.465478 
L 129.024 146.189117 
L 130.106182 118.429742 
L 131.188364 146.662324 
L 132.270545 140.277316 
L 133.352727 84.351214 
L 134.434909 85.122963 
L 135.517091 127.511467 
L 136.599273 149.508268 
L 137.681455 111.486799 
L 138.763636 115.10628 
L 139.845818 138.577697 
L 140.928 125.599448 
L 142.010182 118.737081 
L 143.092364 96.061565 
L 144.174545 98.754432 
L 145.256727 147.909717 
L 146.338909 118.85708 
L 147.421091 105.322785 
L 148.503273 108.106739 
L 149.585455 156.893792 
L 150.667636 135.054841 
L 151.749818 95.25893 
L 152.832 115.352552 
L 153.914182 99.962243 
L 154.996364 110.162579 
L 156.078545 145.755853 
L 157.160727 104.159429 
L 158.242909 132.951677 
L 159.325091 166.629472 
L 160.407273 108.937291 
L 161.489455 103.740455 
L 162.571636 128.860878 
L 163.653818 135.755415 
L 164.736 90.246274 
L 165.818182 106.873939 
L 166.900364 129.547999 
L 167.982545 135.73928 
L 169.064727 136.641382 
L 170.146909 123.183062 
L 171.229091 121.739405 
L 172.311273 82.656036 
L 173.393455 129.390479 
L 174.475636 98.533899 
L 175.557818 145.221724 
L 176.64 109.414434 
L 177.722182 157.23865 
L 178.804364 134.118349 
L 179.886545 106.099494 
L 180.968727 148.767089 
L 182.050909 129.821999 
L 183.133091 161.733788 
L 184.215273 116.095072 
L 185.297455 130.962442 
L 186.379636 138.216545 
L 187.461818 112.891133 
L 188.544 129.782057 
L 189.626182 175.072504 
L 190.708364 125.751416 
L 191.790545 156.21714 
L 192.872727 108.10772 
L 193.954909 141.358105 
L 195.037091 128.949299 
L 196.119273 124.556972 
L 197.201455 112.707284 
L 198.283636 126.64452 
L 199.365818 106.258729 
L 200.448 116.00035 
L 201.530182 114.422678 
L 202.612364 127.043091 
L 203.694545 117.475355 
L 204.776727 145.106526 
L 205.858909 135.211106 
L 206.941091 136.872844 
L 208.023273 135.348063 
L 209.105455 129.725402 
L 210.187636 135.94088 
L 211.269818 143.510714 
L 212.352 118.751832 
L 213.434182 126.962688 
L 214.516364 122.244537 
L 215.598545 124.226418 
L 216.680727 130.922846 
L 217.762909 138.88766 
L 218.845091 198.969024 
L 219.927273 135.062844 
L 221.009455 139.121242 
L 222.091636 142.524964 
L 223.173818 146.726304 
L 224.256 142.299673 
L 225.338182 150.983519 
L 226.420364 147.977748 
L 227.502545 135.03314 
L 228.584727 116.095072 
L 229.666909 139.19099 
L 230.749091 123.720537 
L 231.831273 137.843828 
L 232.913455 117.572788 
L 235.077818 151.67883 
L 236.16 146.614134 
L 237.242182 157.791352 
L 238.324364 133.369642 
L 239.406545 136.912657 
L 240.488727 131.107661 
L 241.570909 109.041718 
L 242.653091 136.585463 
L 244.817455 130.251428 
L 245.899636 131.996468 
L 246.981818 150.939236 
L 248.064 148.091965 
L 249.146182 127.472448 
L 250.228364 139.74173 
L 251.310545 134.481923 
L 252.392727 130.118494 
L 253.474909 119.212436 
L 254.557091 148.31903 
L 255.639273 153.360294 
L 256.721455 148.555612 
L 257.803636 143.232114 
L 258.885818 132.807164 
L 259.968 113.15814 
L 261.050182 136.815022 
L 262.132364 140.806643 
L 263.214545 152.54122 
L 264.296727 145.857237 
L 265.378909 126.480815 
L 266.461091 148.49417 
L 267.543273 128.176093 
L 268.625455 151.760617 
L 269.707636 132.36111 
L 270.789818 157.399918 
L 271.872 134.871554 
L 272.954182 138.816774 
L 274.036364 146.175289 
L 275.118545 138.477453 
L 276.200727 145.696026 
L 277.282909 146.804631 
L 278.365091 147.282336 
L 279.447273 127.282888 
L 280.529455 136.216697 
L 281.611636 136.665232 
L 282.693818 143.297766 
L 283.776 132.659047 
L 284.858182 149.822975 
L 287.022545 137.946121 
L 288.104727 145.888628 
L 289.186909 141.753504 
L 290.269091 140.306631 
L 291.351273 149.442083 
L 292.433455 129.793982 
L 293.515636 133.912481 
L 294.597818 134.5964 
L 295.68 137.187248 
L 296.762182 141.638162 
L 297.844364 130.803178 
L 298.926545 147.025019 
L 300.008727 140.790393 
L 301.090909 143.289518 
L 302.173091 153.443509 
L 303.255273 143.466129 
L 304.337455 141.558306 
L 305.419636 144.893564 
L 306.501818 140.283531 
L 307.584 137.727131 
L 308.666182 147.64444 
L 309.748364 141.714282 
L 310.830545 134.797971 
L 311.912727 142.64159 
L 312.994909 135.444011 
L 314.077091 145.280512 
L 315.159273 139.442957 
L 316.241455 139.86323 
L 317.323636 146.246089 
L 318.405818 145.955766 
L 319.488 141.831095 
L 320.570182 143.035258 
L 321.652364 140.469356 
L 322.734545 144.589974 
L 323.816727 142.719224 
L 324.898909 147.09579 
L 325.981091 142.157251 
L 327.063273 140.800342 
L 328.145455 141.687981 
L 329.227636 145.220484 
L 330.309818 141.849033 
L 331.392 143.344341 
L 332.474182 135.3798 
L 333.556364 134.756039 
L 334.638545 135.956222 
L 335.720727 139.558948 
L 336.802909 140.008925 
L 337.885091 137.311098 
L 338.967273 142.136588 
L 340.049455 139.892025 
L 341.131636 142.760565 
L 342.213818 142.873917 
L 343.296 139.556266 
L 344.378182 141.25711 
L 345.460364 137.041294 
L 346.542545 137.480081 
L 349.789091 142.024995 
L 351.953455 138.953745 
L 353.035636 140.750609 
L 354.117818 140.946585 
L 355.2 141.264089 
L 356.282182 143.06192 
L 357.364364 143.085986 
L 358.446545 142.707588 
L 359.528727 139.665076 
L 360.610909 141.318278 
L 361.693091 139.522322 
L 362.775273 140.084469 
L 363.857455 141.243268 
L 364.939636 138.460063 
L 366.021818 140.93505 
L 367.104 139.514334 
L 368.186182 143.298862 
L 369.268364 141.008806 
L 370.350545 142.242557 
L 371.432727 139.536742 
L 372.514909 141.616994 
L 373.597091 142.546968 
L 374.679273 140.519882 
L 375.761455 141.619056 
L 376.843636 141.847966 
L 377.925818 140.533378 
L 381.172364 141.664895 
L 382.254545 141.751672 
L 383.336727 140.727913 
L 384.418909 139.872054 
L 385.501091 141.312481 
L 386.583273 142.105817 
L 387.665455 140.113178 
L 388.747636 141.580281 
L 389.829818 141.091141 
L 390.912 142.40544 
L 391.994182 142.310084 
L 393.076364 141.450794 
L 394.158545 139.12789 
L 395.240727 140.886355 
L 396.322909 141.218048 
L 398.487273 142.723247 
L 398.487273 142.723247 
" clip-path="url(#pb218c4e8ae)" style="fill: none; stroke: #9467bd; stroke-width: 1.5; stroke-linecap: square"/>
   </g>
   <g id="line2d_25">
    <path d="M 73.832727 254.421769 
L 74.914909 295.488 
L 83.572364 295.488 
L 84.654545 295.013647 
L 85.736727 295.013647 
L 86.818909 281.028055 
L 87.901091 290.877512 
L 88.983273 280.434688 
L 90.065455 237.55653 
L 91.147636 259.026694 
L 92.229818 237.770985 
L 93.312 237.637301 
L 94.394182 247.759483 
L 95.476364 219.788498 
L 96.558545 224.409374 
L 97.640727 224.602553 
L 98.722909 229.296883 
L 99.805091 235.710477 
L 100.887273 229.228967 
L 101.969455 243.531183 
L 103.051636 230.727259 
L 104.133818 230.821253 
L 105.216 235.415295 
L 106.298182 216.890636 
L 107.380364 202.136943 
L 108.462545 214.424776 
L 109.544727 231.980528 
L 110.626909 213.251263 
L 111.709091 234.28173 
L 112.791273 220.959907 
L 113.873455 224.715718 
L 114.955636 222.583916 
L 116.037818 248.307463 
L 117.12 241.727351 
L 118.202182 208.971243 
L 119.284364 220.683368 
L 120.366545 213.021819 
L 121.448727 254.454818 
L 122.530909 200.660755 
L 123.613091 200.315508 
L 124.695273 210.731928 
L 125.777455 202.219884 
L 126.859636 202.26886 
L 127.941818 201.296348 
L 129.024 184.571358 
L 130.106182 214.829887 
L 131.188364 186.399043 
L 132.270545 193.454092 
L 133.352727 254.108991 
L 134.434909 261.591702 
L 135.517091 202.446704 
L 136.599273 178.948207 
L 137.681455 216.678041 
L 138.763636 216.467818 
L 139.845818 189.344093 
L 140.928 207.014819 
L 142.010182 230.721477 
L 143.092364 243.348761 
L 144.174545 227.383148 
L 145.256727 196.622934 
L 146.338909 199.92799 
L 147.421091 229.769253 
L 148.503273 244.946635 
L 149.585455 170.517922 
L 150.667636 193.293559 
L 151.749818 237.063764 
L 152.832 224.589388 
L 153.914182 227.235831 
L 154.996364 188.920425 
L 156.078545 184.042607 
L 157.160727 215.01897 
L 158.242909 203.019088 
L 159.325091 167.446946 
L 160.407273 233.12291 
L 161.489455 257.240356 
L 162.571636 203.715661 
L 163.653818 190.602892 
L 164.736 247.767796 
L 165.818182 230.589199 
L 166.900364 215.65023 
L 167.982545 193.517899 
L 169.064727 196.98945 
L 170.146909 200.044961 
L 171.229091 215.117874 
L 172.311273 252.786634 
L 173.393455 195.666175 
L 174.475636 247.419485 
L 175.557818 199.964435 
L 176.64 237.587403 
L 177.722182 167.742763 
L 178.804364 193.78572 
L 179.886545 222.739359 
L 180.968727 181.538125 
L 182.050909 197.060279 
L 183.133091 183.142697 
L 184.215273 208.45808 
L 185.297455 208.368015 
L 186.379636 199.76432 
L 187.461818 214.774386 
L 189.626182 170.468131 
L 190.708364 212.407769 
L 191.790545 173.357925 
L 192.872727 216.272441 
L 193.954909 188.641248 
L 195.037091 214.134403 
L 196.119273 211.721982 
L 197.201455 213.519978 
L 198.283636 213.194644 
L 199.365818 230.228379 
L 200.448 225.238369 
L 201.530182 218.983988 
L 202.612364 219.129063 
L 204.776727 191.285694 
L 205.858909 193.860789 
L 206.941091 188.034127 
L 208.023273 189.77464 
L 209.105455 212.430184 
L 210.187636 189.787956 
L 211.269818 186.397948 
L 212.352 209.934909 
L 213.434182 212.627177 
L 214.516364 212.0348 
L 215.598545 208.357453 
L 216.680727 201.864961 
L 217.762909 191.133178 
L 218.845091 146.275563 
L 219.927273 203.93894 
L 221.009455 196.316331 
L 222.091636 186.352663 
L 223.173818 194.613742 
L 224.256 197.066249 
L 225.338182 183.34899 
L 226.420364 186.958371 
L 227.502545 200.057874 
L 228.584727 216.775077 
L 229.666909 193.753183 
L 230.749091 212.145023 
L 231.831273 203.508733 
L 232.913455 231.670111 
L 233.995636 202.720243 
L 235.077818 184.945689 
L 236.16 197.677969 
L 237.242182 180.434423 
L 238.324364 199.468871 
L 239.406545 191.73557 
L 240.488727 204.923558 
L 241.570909 229.498843 
L 242.653091 197.006645 
L 243.735273 202.626898 
L 244.817455 202.932181 
L 245.899636 208.57782 
L 246.981818 186.020552 
L 248.064 185.689234 
L 249.146182 208.714452 
L 250.228364 197.154734 
L 251.310545 203.305951 
L 252.392727 201.133695 
L 253.474909 216.204553 
L 254.557091 184.736793 
L 255.639273 181.9325 
L 256.721455 196.55633 
L 257.803636 186.182685 
L 258.885818 192.39039 
L 259.968 225.966225 
L 261.050182 199.431892 
L 262.132364 203.442389 
L 263.214545 188.092642 
L 264.296727 193.744156 
L 265.378909 213.020377 
L 266.461091 183.520093 
L 267.543273 209.784989 
L 268.625455 188.821558 
L 269.707636 207.657859 
L 270.789818 184.711905 
L 271.872 206.939239 
L 272.954182 200.206164 
L 274.036364 189.308109 
L 275.118545 201.006745 
L 276.200727 200.145429 
L 277.282909 192.011935 
L 278.365091 195.255859 
L 279.447273 210.852598 
L 281.611636 194.798838 
L 282.693818 191.074231 
L 283.776 199.789814 
L 284.858182 185.281088 
L 285.940364 188.768724 
L 287.022545 194.381335 
L 288.104727 188.476901 
L 289.186909 196.297917 
L 290.269091 197.560529 
L 291.351273 187.362782 
L 292.433455 206.838655 
L 293.515636 200.235883 
L 294.597818 204.415817 
L 296.762182 193.811394 
L 297.844364 203.15443 
L 298.926545 191.120092 
L 300.008727 195.332189 
L 301.090909 191.383833 
L 302.173091 180.875813 
L 303.255273 191.220171 
L 304.337455 195.354856 
L 305.419636 191.381721 
L 306.501818 196.82343 
L 307.584 199.298893 
L 308.666182 189.830804 
L 309.748364 194.364175 
L 310.830545 201.654328 
L 311.912727 193.293949 
L 312.994909 197.769937 
L 314.077091 193.60885 
L 315.159273 192.370354 
L 316.241455 196.486164 
L 317.323636 192.037876 
L 318.405818 189.885252 
L 319.488 194.382048 
L 320.570182 193.570033 
L 321.652364 198.637562 
L 322.734545 194.95413 
L 323.816727 194.979638 
L 324.898909 192.303657 
L 325.981091 197.057539 
L 327.063273 199.897168 
L 329.227636 191.546587 
L 330.309818 195.938481 
L 331.392 197.181259 
L 332.474182 201.733224 
L 333.556364 201.13588 
L 334.638545 200.817409 
L 335.720727 197.477206 
L 336.802909 198.313598 
L 338.967273 196.097896 
L 340.049455 198.107088 
L 341.131636 196.498623 
L 342.213818 196.578896 
L 343.296 197.753254 
L 344.378182 197.174633 
L 345.460364 200.302155 
L 346.542545 200.367231 
L 347.624727 201.565446 
L 348.706909 198.245884 
L 349.789091 198.815434 
L 350.871273 201.473557 
L 351.953455 201.591999 
L 353.035636 198.312055 
L 354.117818 200.460425 
L 355.2 199.438071 
L 356.282182 199.448164 
L 357.364364 195.393933 
L 358.446545 196.905269 
L 359.528727 198.85498 
L 360.610909 197.203501 
L 361.693091 198.039778 
L 362.775273 197.949627 
L 363.857455 198.589732 
L 364.939636 200.385731 
L 366.021818 199.587688 
L 367.104 200.91596 
L 368.186182 199.052636 
L 369.268364 197.659556 
L 370.350545 197.087258 
L 371.432727 198.681599 
L 373.597091 196.621838 
L 374.679273 199.570587 
L 375.761455 195.691892 
L 376.843636 195.913701 
L 377.925818 200.639732 
L 379.008 197.54686 
L 380.090182 199.037784 
L 381.172364 196.783856 
L 382.254545 196.342884 
L 383.336727 198.112027 
L 384.418909 197.91029 
L 385.501091 199.484213 
L 386.583273 196.137557 
L 387.665455 201.008656 
L 388.747636 197.694725 
L 389.829818 198.714548 
L 390.912 199.075967 
L 391.994182 196.913646 
L 393.076364 199.581891 
L 394.158545 200.935542 
L 395.240727 198.691022 
L 396.322909 197.21477 
L 397.405091 197.54306 
L 398.487273 197.531899 
L 398.487273 197.531899 
" clip-path="url(#pb218c4e8ae)" style="fill: none; stroke: #8c564b; stroke-width: 1.5; stroke-linecap: square"/>
   </g>
  </g>
 </g>
 <defs>
  <clipPath id="pb218c4e8ae">
   <rect x="57.6" y="41.472" width="357.12" height="266.112"/>
  </clipPath>
 </defs>
</svg>
