<?xml version="1.0" encoding="utf-8" standalone="no"?>
<!DOCTYPE svg PUBLIC "-//W3C//DTD SVG 1.1//EN"
  "http://www.w3.org/Graphics/SVG/1.1/DTD/svg11.dtd">
<svg xmlns:xlink="http://www.w3.org/1999/xlink" width="460.8pt" height="345.6pt" viewBox="0 0 460.8 345.6" xmlns="http://www.w3.org/2000/svg" version="1.1">
 <metadata>
  <rdf:RDF xmlns:dc="http://purl.org/dc/elements/1.1/" xmlns:cc="http://creativecommons.org/ns#" xmlns:rdf="http://www.w3.org/1999/02/22-rdf-syntax-ns#">
   <cc:Work>
    <dc:type rdf:resource="http://purl.org/dc/dcmitype/StillImage"/>
    <dc:date>2026-03-18T09:11:42.959719</dc:date>
    <dc:format>image/svg+xml</dc:format>
    <dc:creator>
     <cc:Agent>
      <dc:title>Matplotlib v3.10.8, https://matplotlib.org/</dc:title>
     </cc:Agent>
    </dc:creator>
   </cc:Work>
  </rdf:RDF>
 </metadata>
 <defs>
  <style type="text/css">*{stroke-linejoin: round; stroke-linecap: butt}</style>
 </defs>
 <g id="figure_1">
  <g id="patch_1">
   <path d="M 0 345.6 
L 460.8 345.6 
L 460.8 0 
L 0 0 
z
" style="fill: #ffffff"/>
  </g>
  <g id="axes_1">
   <g id="patch_2">
    <path d="M 57.6 307.584 
L 414.72 307.584 
L 414.72 41.472 
L 57.6 41.472 
z
" style="fill: #ffffff"/>
   </g>
   <g id="matplotlib.axis_1">
    <g id="xtick_1">
     <g id="line2d_1">
      <defs>
       <path id="m1186d95cc1" d="M 0 0 
L 0 3.5 
" style="stroke: #000000; stroke-width: 0.8"/>
      </defs>
      <g>
       <use xlink:href="#m1186d95cc1" x="73.832727" y="307.584" style="stroke: #000000; stroke-width: 0.8"/>
      </g>
     </g>
     <g id="text_1">
      <!-- 0 -->
      <g transform="translate(70.651477 322.182437) scale(0.1 -0.1)">
       <defs>
        <path id="DejaVuSans-30" d="M 2034 4250 
Q 1547 4250 1301 3770 
Q 1056 3291 1056 2328 
Q 1056 1369 1301 889 
Q 1547 409 2034 409 
Q 2525 409 2770 889 
Q 3016 1369 3016 2328 
Q 3016 3291 2770 3770 
Q 2525 4250 2034 4250 
z
M 2034 4750 
Q 2819 4750 3233 4129 
Q 3647 3509 3647 2328 
Q 3647 1150 3233 529 
Q 2819 -91 2034 -91 
Q 1250 -91 836 529 
Q 422 1150 422 2328 
Q 422 3509 836 4129 
Q 1250 4750 2034 4750 
z
" transform="scale(0.015625)"/>
       </defs>
       <use xlink:href="#DejaVuSans-30"/>
      </g>
     </g>
    </g>
    <g id="xtick_2">
     <g id="line2d_2">
      <g>
       <use xlink:href="#m1186d95cc1" x="127.941818" y="307.584" style="stroke: #000000; stroke-width: 0.8"/>
      </g>
     </g>
     <g id="text_2">
      <!-- 50 -->
      <g transform="translate(121.579318 322.182437) scale(0.1 -0.1)">
       <defs>
        <path id="DejaVuSans-35" d="M 691 4666 
L 3169 4666 
L 3169 4134 
L 1269 4134 
L 1269 2991 
Q 1406 3038 1543 3061 
Q 1681 3084 1819 3084 
Q 2600 3084 3056 2656 
Q 3513 2228 3513 1497 
Q 3513 744 3044 326 
Q 2575 -91 1722 -91 
Q 1428 -91 1123 -41 
Q 819 9 494 109 
L 494 744 
Q 775 591 1075 516 
Q 1375 441 1709 441 
Q 2250 441 2565 725 
Q 2881 1009 2881 1497 
Q 2881 1984 2565 2268 
Q 2250 2553 1709 2553 
Q 1456 2553 1204 2497 
Q 953 2441 691 2322 
L 691 4666 
z
" transform="scale(0.015625)"/>
       </defs>
       <use xlink:href="#DejaVuSans-35"/>
       <use xlink:href="#DejaVuSans-30" transform="translate(63.623047 0)"/>
      </g>
     </g>
    </g>
    <g id="xtick_3">
     <g id="line2d_3">
      <g>
       <use xlink:href="#m1186d95cc1" x="182.050909" y="307.584" style="stroke: #000000; stroke-width: 0.8"/>
      </g>
     </g>
     <g id="text_3">
      <!-- 100 -->
      <g transform="translate(172.507159 322.182437) scale(0.1 -0.1)">
       <defs>
        <path id="DejaVuSans-31" d="M 794 531 
L 1825 531 
L 1825 4091 
L 703 3866 
L 703 4441 
L 1819 4666 
L 2450 4666 
L 2450 531 
L 3481 531 
L 3481 0 
L 794 0 
L 794 531 
z
" transform="scale(0.015625)"/>
       </defs>
       <use xlink:href="#DejaVuSans-31"/>
       <use xlink:href="#DejaVuSans-30" transform="translate(63.623047 0)"/>
       <use xlink:href="#DejaVuSans-30" transform="translate(127.246094 0)"/>
      </g>
     </g>
    </g>
    <g id="xtick_4">
     <g id="line2d_4">
      <g>
       <use xlink:href="#m1186d95cc1" x="236.16" y="307.584" style="stroke: #000000; stroke-width: 0.8"/>
      </g>
     </g>
     <g id="text_4">
      <!-- 150 -->
      <g transform="translate(226.61625 322.182437) scale(0.1 -0.1)">
       <use xlink:href="#DejaVuSans-31"/>
       <use xlink:href="#DejaVuSans-35" transform="translate(63.623047 0)"/>
       <use xlink:href="#DejaVuSans-30" transform="translate(127.246094 0)"/>
      </g>
     </g>
    </g>
    <g id="xtick_5">
     <g id="line2d_5">
      <g>
       <use xlink:href="#m1186d95cc1" x="290.269091" y="307.584" style="stroke: #000000; stroke-width: 0.8"/>
      </g>
     </g>
     <g id="text_5">
      <!-- 200 -->
      <g transform="translate(280.725341 322.182437) scale(0.1 -0.1)">
       <defs>
        <path id="DejaVuSans-32" d="M 1228 531 
L 3431 531 
L 3431 0 
L 469 0 
L 469 531 
Q 828 903 1448 1529 
Q 2069 2156 2228 2338 
Q 2531 2678 2651 2914 
Q 2772 3150 2772 3378 
Q 2772 3750 2511 3984 
Q 2250 4219 1831 4219 
Q 1534 4219 1204 4116 
Q 875 4013 500 3803 
L 500 4441 
Q 881 4594 1212 4672 
Q 1544 4750 1819 4750 
Q 2544 4750 2975 4387 
Q 3406 4025 3406 3419 
Q 3406 3131 3298 2873 
Q 3191 2616 2906 2266 
Q 2828 2175 2409 1742 
Q 1991 1309 1228 531 
z
" transform="scale(0.015625)"/>
       </defs>
       <use xlink:href="#DejaVuSans-32"/>
       <use xlink:href="#DejaVuSans-30" transform="translate(63.623047 0)"/>
       <use xlink:href="#DejaVuSans-30" transform="translate(127.246094 0)"/>
      </g>
     </g>
    </g>
    <g id="xtick_6">
     <g id="line2d_6">
      <g>
       <use xlink:href="#m1186d95cc1" x="344.378182" y="307.584" style="stroke: #000000; stroke-width: 0.8"/>
      </g>
     </g>
     <g id="text_6">
      <!-- 250 -->
      <g transform="translate(334.834432 322.182437) scale(0.1 -0.1)">
       <use xlink:href="#DejaVuSans-32"/>
       <use xlink:href="#DejaVuSans-35" transform="translate(63.623047 0)"/>
       <use xlink:href="#DejaVuSans-30" transform="translate(127.246094 0)"/>
      </g>
     </g>
    </g>
    <g id="xtick_7">
     <g id="line2d_7">
      <g>
       <use xlink:href="#m1186d95cc1" x="398.487273" y="307.584" style="stroke: #000000; stroke-width: 0.8"/>
      </g>
     </g>
     <g id="text_7">
      <!-- 300 -->
      <g transform="translate(388.943523 322.182437) scale(0.1 -0.1)">
       <defs>
        <path id="DejaVuSans-33" d="M 2597 2516 
Q 3050 2419 3304 2112 
Q 3559 1806 3559 1356 
Q 3559 666 3084 287 
Q 2609 -91 1734 -91 
Q 1441 -91 1130 -33 
Q 819 25 488 141 
L 488 750 
Q 750 597 1062 519 
Q 1375 441 1716 441 
Q 2309 441 2620 675 
Q 2931 909 2931 1356 
Q 2931 1769 2642 2001 
Q 2353 2234 1838 2234 
L 1294 2234 
L 1294 2753 
L 1863 2753 
Q 2328 2753 2575 2939 
Q 2822 3125 2822 3475 
Q 2822 3834 2567 4026 
Q 2313 4219 1838 4219 
Q 1578 4219 1281 4162 
Q 984 4106 628 3988 
L 628 4550 
Q 988 4650 1302 4700 
Q 1616 4750 1894 4750 
Q 2613 4750 3031 4423 
Q 3450 4097 3450 3541 
Q 3450 3153 3228 2886 
Q 3006 2619 2597 2516 
z
" transform="scale(0.015625)"/>
       </defs>
       <use xlink:href="#DejaVuSans-33"/>
       <use xlink:href="#DejaVuSans-30" transform="translate(63.623047 0)"/>
       <use xlink:href="#DejaVuSans-30" transform="translate(127.246094 0)"/>
      </g>
     </g>
    </g>
   </g>
   <g id="matplotlib.axis_2">
    <g id="ytick_1">
     <g id="line2d_8">
      <defs>
       <path id="m251f5a63d2" d="M 0 0 
L -3.5 0 
" style="stroke: #000000; stroke-width: 0.8"/>
      </defs>
      <g>
       <use xlink:href="#m251f5a63d2" x="57.6" y="295.488" style="stroke: #000000; stroke-width: 0.8"/>
      </g>
     </g>
     <g id="text_8">
      <!-- 0.0 -->
      <g transform="translate(34.696875 299.287219) scale(0.1 -0.1)">
       <defs>
        <path id="DejaVuSans-2e" d="M 684 794 
L 1344 794 
L 1344 0 
L 684 0 
L 684 794 
z
" transform="scale(0.015625)"/>
       </defs>
       <use xlink:href="#DejaVuSans-30"/>
       <use xlink:href="#DejaVuSans-2e" transform="translate(63.623047 0)"/>
       <use xlink:href="#DejaVuSans-30" transform="translate(95.410156 0)"/>
      </g>
     </g>
    </g>
    <g id="ytick_2">
     <g id="line2d_9">
      <g>
       <use xlink:href="#m251f5a63d2" x="57.6" y="247.104" style="stroke: #000000; stroke-width: 0.8"/>
      </g>
     </g>
     <g id="text_9">
      <!-- 0.2 -->
      <g transform="translate(34.696875 250.903219) scale(0.1 -0.1)">
       <use xlink:href="#DejaVuSans-30"/>
       <use xlink:href="#DejaVuSans-2e" transform="translate(63.623047 0)"/>
       <use xlink:href="#DejaVuSans-32" transform="translate(95.410156 0)"/>
      </g>
     </g>
    </g>
    <g id="ytick_3">
     <g id="line2d_10">
      <g>
       <use xlink:href="#m251f5a63d2" x="57.6" y="198.72" style="stroke: #000000; stroke-width: 0.8"/>
      </g>
     </g>
     <g id="text_10">
      <!-- 0.4 -->
      <g transform="translate(34.696875 202.519219) scale(0.1 -0.1)">
       <defs>
        <path id="DejaVuSans-34" d="M 2419 4116 
L 825 1625 
L 2419 1625 
L 2419 4116 
z
M 2253 4666 
L 3047 4666 
L 3047 1625 
L 3713 1625 
L 3713 1100 
L 3047 1100 
L 3047 0 
L 2419 0 
L 2419 1100 
L 313 1100 
L 313 1709 
L 2253 4666 
z
" transform="scale(0.015625)"/>
       </defs>
       <use xlink:href="#DejaVuSans-30"/>
       <use xlink:href="#DejaVuSans-2e" transform="translate(63.623047 0)"/>
       <use xlink:href="#DejaVuSans-34" transform="translate(95.410156 0)"/>
      </g>
     </g>
    </g>
    <g id="ytick_4">
     <g id="line2d_11">
      <g>
       <use xlink:href="#m251f5a63d2" x="57.6" y="150.336" style="stroke: #000000; stroke-width: 0.8"/>
      </g>
     </g>
     <g id="text_11">
      <!-- 0.6 -->
      <g transform="translate(34.696875 154.135219) scale(0.1 -0.1)">
       <defs>
        <path id="DejaVuSans-36" d="M 2113 2584 
Q 1688 2584 1439 2293 
Q 1191 2003 1191 1497 
Q 1191 994 1439 701 
Q 1688 409 2113 409 
Q 2538 409 2786 701 
Q 3034 994 3034 1497 
Q 3034 2003 2786 2293 
Q 2538 2584 2113 2584 
z
M 3366 4563 
L 3366 3988 
Q 3128 4100 2886 4159 
Q 2644 4219 2406 4219 
Q 1781 4219 1451 3797 
Q 1122 3375 1075 2522 
Q 1259 2794 1537 2939 
Q 1816 3084 2150 3084 
Q 2853 3084 3261 2657 
Q 3669 2231 3669 1497 
Q 3669 778 3244 343 
Q 2819 -91 2113 -91 
Q 1303 -91 875 529 
Q 447 1150 447 2328 
Q 447 3434 972 4092 
Q 1497 4750 2381 4750 
Q 2619 4750 2861 4703 
Q 3103 4656 3366 4563 
z
" transform="scale(0.015625)"/>
       </defs>
       <use xlink:href="#DejaVuSans-30"/>
       <use xlink:href="#DejaVuSans-2e" transform="translate(63.623047 0)"/>
       <use xlink:href="#DejaVuSans-36" transform="translate(95.410156 0)"/>
      </g>
     </g>
    </g>
    <g id="ytick_5">
     <g id="line2d_12">
      <g>
       <use xlink:href="#m251f5a63d2" x="57.6" y="101.952" style="stroke: #000000; stroke-width: 0.8"/>
      </g>
     </g>
     <g id="text_12">
      <!-- 0.8 -->
      <g transform="translate(34.696875 105.751219) scale(0.1 -0.1)">
       <defs>
        <path id="DejaVuSans-38" d="M 2034 2216 
Q 1584 2216 1326 1975 
Q 1069 1734 1069 1313 
Q 1069 891 1326 650 
Q 1584 409 2034 409 
Q 2484 409 2743 651 
Q 3003 894 3003 1313 
Q 3003 1734 2745 1975 
Q 2488 2216 2034 2216 
z
M 1403 2484 
Q 997 2584 770 2862 
Q 544 3141 544 3541 
Q 544 4100 942 4425 
Q 1341 4750 2034 4750 
Q 2731 4750 3128 4425 
Q 3525 4100 3525 3541 
Q 3525 3141 3298 2862 
Q 3072 2584 2669 2484 
Q 3125 2378 3379 2068 
Q 3634 1759 3634 1313 
Q 3634 634 3220 271 
Q 2806 -91 2034 -91 
Q 1263 -91 848 271 
Q 434 634 434 1313 
Q 434 1759 690 2068 
Q 947 2378 1403 2484 
z
M 1172 3481 
Q 1172 3119 1398 2916 
Q 1625 2713 2034 2713 
Q 2441 2713 2670 2916 
Q 2900 3119 2900 3481 
Q 2900 3844 2670 4047 
Q 2441 4250 2034 4250 
Q 1625 4250 1398 4047 
Q 1172 3844 1172 3481 
z
" transform="scale(0.015625)"/>
       </defs>
       <use xlink:href="#DejaVuSans-30"/>
       <use xlink:href="#DejaVuSans-2e" transform="translate(63.623047 0)"/>
       <use xlink:href="#DejaVuSans-38" transform="translate(95.410156 0)"/>
      </g>
     </g>
    </g>
    <g id="ytick_6">
     <g id="line2d_13">
      <g>
       <use xlink:href="#m251f5a63d2" x="57.6" y="53.568" style="stroke: #000000; stroke-width: 0.8"/>
      </g>
     </g>
     <g id="text_13">
      <!-- 1.0 -->
      <g transform="translate(34.696875 57.367219) scale(0.1 -0.1)">
       <use xlink:href="#DejaVuSans-31"/>
       <use xlink:href="#DejaVuSans-2e" transform="translate(63.623047 0)"/>
       <use xlink:href="#DejaVuSans-30" transform="translate(95.410156 0)"/>
      </g>
     </g>
    </g>
   </g>
   <g id="line2d_14">
    <path d="M 73.832727 182.054402 
L 74.914909 149.51617 
L 75.997091 145.430404 
L 77.079273 145.430404 
L 78.161455 145.013779 
L 79.243636 145.188487 
L 80.325818 144.113278 
L 81.408 142.513919 
L 84.654545 136.492803 
L 85.736727 132.904323 
L 86.818909 129.786238 
L 87.901091 126.130549 
L 88.983273 126.493446 
L 90.065455 125.149443 
L 91.147636 118.604161 
L 92.229818 117.09889 
L 93.312 117.784323 
L 94.394182 112.79807 
L 95.476364 110.889613 
L 96.558545 108.591366 
L 97.640727 107.233938 
L 98.722909 108.349435 
L 99.805091 109.895053 
L 100.887273 108.174728 
L 101.969455 107.596806 
L 103.051636 105.594233 
L 104.133818 105.43295 
L 105.216 104.84159 
L 106.298182 103.040645 
L 107.380364 104.209926 
L 108.462545 101.333759 
L 109.544727 101.656339 
L 110.626909 98.847366 
L 111.709091 98.793595 
L 112.791273 97.194236 
L 113.873455 97.543665 
L 114.955636 99.048966 
L 116.037818 97.651192 
L 117.12 95.393291 
L 118.202182 93.431049 
L 119.284364 92.570894 
L 120.366545 94.533107 
L 121.448727 93.578878 
L 122.530909 93.767025 
L 123.613091 92.906898 
L 124.695273 92.691831 
L 125.777455 95.15136 
L 126.859636 93.834249 
L 127.941818 94.573424 
L 129.024 91.105925 
L 130.106182 90.850554 
L 131.188364 91.898885 
L 132.270545 91.186559 
L 133.352727 89.869448 
L 134.434909 91.025276 
L 135.517091 92.624635 
L 136.599273 89.614077 
L 137.681455 90.675847 
L 138.763636 91.119364 
L 139.845818 87.624957 
L 140.928 89.237756 
L 142.010182 87.006719 
L 143.092364 86.13311 
L 144.174545 87.0739 
L 145.256727 86.563188 
L 146.338909 87.705606 
L 147.421091 86.966402 
L 148.503273 85.353603 
L 149.585455 87.423372 
L 150.667636 86.348149 
L 151.749818 86.939524 
L 152.832 85.877769 
L 153.914182 87.463689 
L 154.996364 85.25953 
L 156.078545 84.14399 
L 158.242909 82.947845 
L 159.325091 82.329606 
L 160.407273 83.243518 
L 161.489455 83.256957 
L 162.571636 84.856316 
L 163.653818 83.458571 
L 164.736 79.82976 
L 165.818182 82.07425 
L 166.900364 85.367042 
L 169.064727 79.950726 
L 170.146909 83.713912 
L 171.229091 82.316167 
L 172.311273 83.74079 
L 173.393455 81.980163 
L 174.475636 80.582403 
L 175.557818 79.856638 
L 176.64 81.066251 
L 177.722182 81.200642 
L 178.804364 82.128006 
L 179.886545 79.319034 
L 180.968727 79.480302 
L 182.050909 78.136327 
L 183.133091 78.391669 
L 185.297455 79.937272 
L 186.379636 78.29761 
L 187.461818 79.278717 
L 188.544 78.794883 
L 189.626182 77.652508 
L 191.790545 77.921288 
L 192.872727 76.563846 
L 193.954909 78.391669 
L 195.037091 77.827215 
L 196.119273 76.778885 
L 197.201455 78.351366 
L 198.283636 80.972178 
L 200.448 77.316475 
L 201.530182 78.526074 
L 202.612364 77.10145 
L 203.694545 76.496651 
L 204.776727 78.136327 
L 205.858909 77.77343 
L 206.941091 78.270732 
L 208.023273 76.241295 
L 209.105455 76.510075 
L 210.187636 76.227856 
L 211.269818 74.574712 
L 212.352 73.983366 
L 213.434182 73.983366 
L 214.516364 73.848975 
L 215.598545 74.131195 
L 216.680727 74.292478 
L 217.762909 75.475213 
L 218.845091 73.176966 
L 219.927273 74.077439 
L 221.009455 72.437762 
L 222.091636 73.91617 
L 223.173818 74.010244 
L 224.256 74.279039 
L 225.338182 73.94302 
L 226.420364 73.055986 
L 228.584727 72.074865 
L 229.666909 71.564139 
L 230.749091 72.652801 
L 231.831273 73.12321 
L 232.913455 72.518396 
L 233.995636 72.935035 
L 235.077818 72.733435 
L 236.16 70.74433 
L 237.242182 70.811525 
L 238.324364 68.970234 
L 239.406545 70.220164 
L 240.488727 70.999685 
L 242.653091 71.953914 
L 243.735273 71.416339 
L 244.817455 70.744301 
L 245.899636 68.916478 
L 246.981818 69.319692 
L 248.064 69.440658 
L 249.146182 69.80354 
L 250.228364 72.048002 
L 251.310545 70.62335 
L 252.392727 70.435203 
L 253.474909 68.271376 
L 255.639273 67.680001 
L 256.721455 68.083201 
L 257.803636 68.002566 
L 258.885818 67.747211 
L 259.968 67.962249 
L 261.050182 66.75265 
L 262.132364 66.174729 
L 263.214545 65.435525 
L 264.296727 66.228485 
L 265.378909 66.188168 
L 266.461091 65.381769 
L 267.543273 65.045779 
L 268.625455 64.172184 
L 269.707636 65.758062 
L 270.789818 64.992023 
L 271.872 67.048323 
L 272.954182 67.43807 
L 274.036364 67.330557 
L 275.118545 67.680015 
L 276.200727 65.784954 
L 277.282909 64.871028 
L 278.365091 65.126413 
L 279.447273 64.763516 
L 280.529455 63.822727 
L 281.611636 63.580781 
L 282.693818 65.986568 
L 283.776 64.978555 
L 284.858182 64.467843 
L 285.940364 63.083537 
L 287.022545 63.58081 
L 288.104727 62.693747 
L 289.186909 63.648005 
L 290.269091 63.325425 
L 291.351273 63.742092 
L 292.433455 62.223367 
L 293.515636 61.470724 
L 294.597818 61.65887 
L 296.762182 61.484177 
L 297.844364 60.919666 
L 298.926545 61.040632 
L 300.008727 61.511055 
L 301.090909 61.013754 
L 302.173091 61.067539 
L 303.255273 60.798729 
L 304.337455 60.355213 
L 305.419636 59.710096 
L 306.501818 59.857926 
L 307.584 59.817608 
L 308.666182 59.441272 
L 309.748364 59.817594 
L 311.912727 59.495057 
L 315.159273 59.199356 
L 316.241455 58.890244 
L 319.488 58.527361 
L 320.570182 58.325761 
L 321.652364 58.48703 
L 322.734545 58.070405 
L 323.816727 57.895669 
L 325.981091 58.487044 
L 327.063273 58.030088 
L 328.145455 57.74784 
L 329.227636 57.599996 
L 330.309818 57.667206 
L 332.474182 57.586572 
L 334.638545 57.048953 
L 335.720727 57.196811 
L 336.802909 57.143026 
L 337.885091 57.317762 
L 338.967273 56.914563 
L 340.049455 57.143055 
L 341.131636 56.847367 
L 346.542545 56.820489 
L 347.624727 56.645753 
L 348.706909 56.968319 
L 350.871273 56.592012 
L 351.953455 56.511363 
L 354.117818 56.712963 
L 355.2 56.390412 
L 357.364364 56.645768 
L 358.446545 56.269432 
L 359.528727 56.497938 
L 360.610909 56.336627 
L 361.693091 56.484499 
L 364.939636 56.256021 
L 366.021818 56.390426 
L 368.186182 56.027515 
L 370.350545 56.350066 
L 372.514909 56.336627 
L 373.597091 56.188826 
L 374.679273 55.920003 
L 375.761455 56.09471 
L 376.843636 55.906549 
L 382.254545 55.946881 
L 383.336727 55.825915 
L 384.418909 55.96032 
L 385.501091 55.852807 
L 387.665455 55.933427 
L 390.912 55.745281 
L 391.994182 55.664647 
L 393.076364 55.772159 
L 394.158545 55.75872 
L 395.240727 55.62433 
L 398.487273 55.745281 
L 398.487273 55.745281 
" clip-path="url(#pd7fb83664f)" style="fill: none; stroke: #1f77b4; stroke-width: 1.5; stroke-linecap: square"/>
   </g>
   <g id="line2d_15">
    <path d="M 73.832727 202.674706 
L 74.914909 69.111978 
L 75.997091 53.568 
L 77.079273 53.568 
L 78.161455 55.273934 
L 79.243636 56.288278 
L 80.325818 61.386745 
L 81.408 69.86243 
L 82.490182 75.977302 
L 83.572364 75.573684 
L 84.654545 82.403492 
L 85.736727 91.44862 
L 86.818909 90.706503 
L 87.901091 95.326817 
L 88.983273 92.71421 
L 90.065455 94.938585 
L 91.147636 90.08789 
L 92.229818 96.127218 
L 93.312 94.735658 
L 94.394182 92.991281 
L 95.476364 93.457927 
L 96.558545 89.082255 
L 97.640727 89.589737 
L 98.722909 97.127589 
L 99.805091 91.414099 
L 100.887273 91.072212 
L 101.969455 88.570202 
L 103.051636 87.806355 
L 104.133818 87.639737 
L 105.216 85.118276 
L 106.298182 83.552529 
L 108.462545 86.562524 
L 109.544727 84.691861 
L 110.626909 83.717777 
L 111.709091 84.353189 
L 112.791273 87.45198 
L 113.873455 84.901348 
L 114.955636 87.777228 
L 116.037818 85.232191 
L 117.12 82.063364 
L 118.202182 83.602795 
L 119.284364 79.745939 
L 120.366545 84.278351 
L 121.448727 79.692096 
L 122.530909 81.860206 
L 123.613091 79.465796 
L 124.695273 77.942947 
L 125.777455 84.734774 
L 126.859636 83.590135 
L 127.941818 83.429357 
L 129.024 80.362764 
L 130.106182 80.3451 
L 131.188364 86.218157 
L 132.270545 81.014716 
L 133.352727 79.382292 
L 134.434909 80.06849 
L 135.517091 83.737359 
L 136.599273 82.497161 
L 137.681455 82.356657 
L 138.763636 78.97432 
L 139.845818 79.345955 
L 140.928 81.666335 
L 142.010182 77.96746 
L 144.174545 77.634282 
L 145.256727 78.718805 
L 146.338909 78.649707 
L 147.421091 78.765006 
L 148.503273 76.681437 
L 149.585455 78.758084 
L 150.667636 76.429066 
L 151.749818 77.964547 
L 152.832 74.84231 
L 153.914182 76.401352 
L 154.996364 75.947612 
L 156.078545 76.151028 
L 157.160727 75.325033 
L 158.242909 75.718442 
L 159.325091 73.434759 
L 160.407273 76.050265 
L 161.489455 76.504971 
L 162.571636 73.960597 
L 163.653818 75.349561 
L 164.736 73.158927 
L 165.818182 73.573302 
L 166.900364 76.633925 
L 167.982545 74.848914 
L 169.064727 72.126257 
L 170.146909 80.630262 
L 171.229091 75.677274 
L 172.311273 79.404614 
L 173.393455 74.317048 
L 174.475636 75.093051 
L 176.64 72.785288 
L 177.722182 73.097962 
L 178.804364 69.885414 
L 180.968727 73.989436 
L 182.050909 72.098975 
L 183.133091 71.72137 
L 184.215273 73.295437 
L 185.297455 74.080798 
L 186.379636 73.685775 
L 187.461818 72.28901 
L 188.544 72.764682 
L 189.626182 74.02276 
L 190.708364 70.334237 
L 191.790545 72.709859 
L 192.872727 70.022501 
L 193.954909 72.138715 
L 195.037091 73.143816 
L 196.119273 71.156267 
L 197.201455 73.461291 
L 198.283636 77.201133 
L 199.365818 74.043711 
L 200.448 72.997875 
L 201.530182 71.078532 
L 202.612364 71.924974 
L 203.694545 69.755696 
L 204.776727 74.428987 
L 205.858909 72.265593 
L 206.941091 73.353649 
L 208.023273 72.071116 
L 209.105455 70.58955 
L 210.187636 71.38228 
L 211.269818 70.942699 
L 212.352 68.652167 
L 213.434182 68.888331 
L 214.516364 67.918803 
L 215.598545 68.293236 
L 216.680727 67.924802 
L 217.762909 69.061481 
L 218.845091 68.849211 
L 219.927273 67.792834 
L 221.009455 68.628462 
L 222.091636 69.871341 
L 223.173818 69.934297 
L 224.256 69.638061 
L 225.338182 69.094458 
L 226.420364 70.115147 
L 227.502545 67.769244 
L 228.584727 67.301315 
L 229.666909 68.817488 
L 232.913455 68.814532 
L 235.077818 69.597701 
L 236.16 65.16363 
L 237.242182 65.255108 
L 238.324364 65.657947 
L 239.406545 65.326268 
L 240.488727 66.00367 
L 241.570909 65.846526 
L 242.653091 67.306765 
L 243.735273 67.290558 
L 244.817455 67.642943 
L 245.899636 65.698639 
L 246.981818 67.212404 
L 248.064 63.985206 
L 249.146182 64.655542 
L 250.228364 66.592507 
L 251.310545 67.949906 
L 252.392727 67.701198 
L 253.474909 64.518802 
L 254.557091 63.572677 
L 255.639273 65.530175 
L 256.721455 65.575625 
L 257.803636 65.267379 
L 258.885818 62.771642 
L 259.968 66.674987 
L 261.050182 63.161503 
L 262.132364 63.935415 
L 263.214545 62.729047 
L 264.296727 62.695521 
L 265.378909 61.653333 
L 266.461091 62.222401 
L 267.543273 61.924406 
L 268.625455 60.464052 
L 269.707636 62.5024 
L 270.789818 61.365692 
L 271.872 65.963785 
L 272.954182 66.758851 
L 274.036364 63.731206 
L 275.118545 63.928292 
L 276.200727 64.583373 
L 277.282909 63.306434 
L 278.365091 63.641905 
L 279.447273 62.448471 
L 280.529455 62.010664 
L 281.611636 62.114889 
L 282.693818 62.470071 
L 283.776 63.2581 
L 284.858182 62.675665 
L 285.940364 61.563889 
L 287.022545 61.196623 
L 288.104727 60.13344 
L 289.186909 62.685355 
L 290.269091 61.344164 
L 291.351273 62.405068 
L 292.433455 60.308234 
L 293.515636 59.426449 
L 294.597818 59.293155 
L 296.762182 60.038848 
L 297.844364 59.964039 
L 298.926545 58.964144 
L 300.008727 60.275747 
L 301.090909 59.665381 
L 302.173091 60.00874 
L 303.255273 59.659988 
L 304.337455 60.293612 
L 305.419636 58.79196 
L 306.501818 58.567044 
L 307.584 58.957439 
L 308.666182 58.570101 
L 309.748364 59.162903 
L 311.912727 58.780338 
L 312.994909 58.06856 
L 314.077091 58.331169 
L 315.159273 58.175221 
L 316.241455 57.486356 
L 317.323636 58.360729 
L 318.405818 58.353908 
L 319.488 58.200758 
L 320.570182 57.667307 
L 321.652364 57.462794 
L 322.734545 57.42239 
L 323.816727 57.183603 
L 324.898909 57.949858 
L 325.981091 57.146472 
L 327.063273 56.677678 
L 328.145455 56.683028 
L 329.227636 56.829127 
L 330.309818 56.709949 
L 331.392 57.152745 
L 332.474182 57.071765 
L 333.556364 56.572012 
L 335.720727 56.093787 
L 336.802909 56.413512 
L 338.967273 56.233311 
L 340.049455 56.33817 
L 341.131636 56.037796 
L 342.213818 56.032518 
L 343.296 55.897897 
L 344.378182 56.12688 
L 345.460364 56.632156 
L 346.542545 56.515588 
L 347.624727 56.283909 
L 348.706909 56.459741 
L 350.871273 56.172114 
L 351.953455 56.424009 
L 354.117818 56.287831 
L 355.2 56.004487 
L 356.282182 56.190614 
L 357.364364 56.11582 
L 358.446545 55.78642 
L 359.528727 56.152576 
L 360.610909 55.923348 
L 361.693091 56.037854 
L 362.775273 55.865324 
L 364.939636 55.826376 
L 366.021818 56.23158 
L 367.104 55.800782 
L 368.186182 55.704401 
L 371.432727 55.839267 
L 372.514909 55.687516 
L 374.679273 55.207215 
L 375.761455 55.611727 
L 376.843636 55.445945 
L 381.172364 55.403494 
L 382.254545 55.140366 
L 383.336727 55.507618 
L 385.501091 55.427474 
L 387.665455 55.500235 
L 390.912 55.452982 
L 391.994182 55.220769 
L 394.158545 55.415318 
L 395.240727 55.159847 
L 397.405091 55.212074 
L 398.487273 55.119789 
L 398.487273 55.119789 
" clip-path="url(#pd7fb83664f)" style="fill: none; stroke: #ff7f0e; stroke-width: 1.5; stroke-linecap: square"/>
   </g>
   <g id="line2d_16">
    <path d="M 73.832727 140.801553 
L 74.914909 280.961373 
L 75.997091 295.488 
L 77.079273 295.488 
L 78.161455 292.103827 
L 79.243636 291.104691 
L 80.325818 281.411792 
L 82.490182 250.694901 
L 83.572364 246.262607 
L 84.654545 228.43158 
L 85.736727 205.011943 
L 86.818909 196.665731 
L 87.901091 179.92945 
L 88.983273 185.25173 
L 90.065455 177.799624 
L 91.147636 168.300093 
L 92.229818 154.50998 
L 93.312 158.870165 
L 94.394182 147.514808 
L 95.476364 141.27303 
L 96.558545 142.387171 
L 97.640727 138.273257 
L 98.722909 128.500778 
L 99.805091 142.042947 
L 100.887273 137.996906 
L 101.969455 140.409039 
L 103.051636 135.426462 
L 104.133818 135.631292 
L 105.216 138.86107 
L 106.298182 136.189805 
L 107.380364 137.288185 
L 108.462545 126.898348 
L 109.544727 130.335465 
L 110.626909 124.755284 
L 111.709091 123.048961 
L 112.791273 113.883718 
L 113.873455 118.635437 
L 114.955636 118.271733 
L 116.037818 118.698984 
L 117.12 118.520312 
L 118.202182 110.247005 
L 119.284364 114.276853 
L 120.366545 112.452851 
L 121.448727 116.673743 
L 122.530909 114.245937 
L 123.613091 115.559299 
L 124.695273 117.538571 
L 125.777455 112.008253 
L 126.859636 111.359921 
L 127.941818 113.591059 
L 129.024 108.927544 
L 130.106182 109.451118 
L 131.188364 101.8246 
L 132.270545 108.659974 
L 133.352727 108.133444 
L 134.434909 109.360029 
L 135.517091 107.609596 
L 136.599273 101.239628 
L 137.681455 105.184285 
L 138.763636 111.184348 
L 139.845818 101.333398 
L 140.928 101.541804 
L 142.010182 102.479493 
L 143.092364 100.309119 
L 144.174545 103.290017 
L 145.256727 99.771328 
L 146.338909 102.820141 
L 147.421091 101.673253 
L 148.503273 99.745589 
L 149.585455 101.97478 
L 150.667636 102.882981 
L 151.749818 101.950036 
L 152.832 104.723465 
L 153.914182 106.160907 
L 154.996364 101.229707 
L 156.078545 97.779814 
L 157.160727 97.499599 
L 158.242909 95.271302 
L 159.325091 97.470183 
L 160.407273 95.506932 
L 161.489455 94.738787 
L 162.571636 103.685257 
L 164.736 91.386226 
L 165.818182 96.341463 
L 166.900364 99.378337 
L 167.982545 96.166251 
L 169.064727 93.426002 
L 170.146909 89.431627 
L 171.229091 93.306291 
L 172.311273 91.037734 
L 173.393455 94.482927 
L 174.475636 90.723504 
L 175.557818 89.911553 
L 176.64 94.745233 
L 177.722182 94.676077 
L 178.804364 102.854791 
L 179.886545 91.503875 
L 180.968727 88.721305 
L 182.050909 88.95643 
L 183.133091 89.894538 
L 184.215273 89.083308 
L 185.297455 89.845136 
L 186.379636 86.245078 
L 187.461818 91.559852 
L 188.544 88.881997 
L 189.626182 83.910336 
L 190.708364 90.193628 
L 191.790545 87.045075 
L 192.872727 87.385852 
L 193.954909 89.078622 
L 195.037091 86.222756 
L 196.119273 86.909055 
L 197.201455 86.383102 
L 198.283636 87.34206 
L 199.365818 87.918366 
L 200.448 84.926035 
L 201.530182 91.831113 
L 202.612364 86.4244 
L 203.694545 88.080356 
L 204.776727 85.548397 
L 205.858909 87.157245 
L 206.941091 86.58202 
L 208.023273 83.43772 
L 209.105455 86.524702 
L 210.187636 84.695048 
L 211.269818 80.750247 
L 212.352 83.013136 
L 213.434182 83.169084 
L 214.516364 83.603415 
L 215.598545 84.623642 
L 216.680727 85.041953 
L 217.762909 86.378473 
L 218.845091 81.194888 
L 219.927273 84.458264 
L 221.009455 78.992402 
L 222.091636 81.424635 
L 223.173818 80.589252 
L 224.256 81.877582 
L 225.338182 82.69171 
L 226.420364 78.177091 
L 227.502545 81.213014 
L 228.584727 80.055786 
L 229.666909 76.537992 
L 230.749091 79.579956 
L 231.831273 80.390522 
L 232.913455 79.079236 
L 233.995636 79.179625 
L 235.077818 77.955852 
L 236.16 80.24885 
L 237.242182 80.211128 
L 238.324364 74.430343 
L 239.406545 78.139341 
L 240.488727 79.534101 
L 241.570909 81.202271 
L 242.653091 80.254748 
L 244.817455 76.103963 
L 245.899636 74.263696 
L 246.981818 73.164926 
L 248.064 78.900391 
L 249.146182 78.399744 
L 250.228364 81.119791 
L 251.310545 75.046101 
L 252.392727 75.273195 
L 253.474909 74.408829 
L 254.557091 75.835038 
L 255.639273 71.630382 
L 257.803636 72.862649 
L 258.885818 76.056552 
L 259.968 70.508541 
L 261.050182 72.833492 
L 262.132364 69.910879 
L 263.214545 69.876114 
L 264.296727 72.082666 
L 265.378909 73.777829 
L 266.461091 70.506407 
L 267.543273 70.45392 
L 268.625455 70.544186 
L 269.707636 71.499741 
L 270.789818 70.794048 
L 271.872 68.690769 
L 272.954182 68.918554 
L 274.036364 73.9117 
L 275.118545 74.682454 
L 276.200727 68.483459 
L 277.282909 67.615127 
L 278.365091 67.599151 
L 279.447273 68.587799 
L 280.529455 67.077783 
L 281.611636 66.075393 
L 282.693818 72.088895 
L 283.776 68.140302 
L 284.858182 67.808292 
L 285.940364 65.942791 
L 287.022545 67.513614 
L 288.104727 66.723004 
L 289.186909 65.6452 
L 290.269091 66.686335 
L 291.351273 66.135897 
L 292.433455 65.1789 
L 293.515636 64.754071 
L 294.597818 65.800585 
L 295.68 64.537706 
L 296.762182 63.78985 
L 297.844364 62.698001 
L 298.926545 64.431246 
L 300.008727 63.405944 
L 301.090909 63.396138 
L 302.173091 62.950098 
L 303.255273 63.096327 
L 304.337455 60.751592 
L 306.501818 62.111399 
L 307.584 61.381251 
L 308.666182 61.012543 
L 309.748364 61.289614 
L 310.830545 60.860604 
L 311.912727 60.882017 
L 312.994909 61.7606 
L 314.077091 61.157589 
L 315.159273 61.008217 
L 316.241455 61.36314 
L 317.323636 59.859541 
L 318.405818 59.622613 
L 319.488 59.154309 
L 320.570182 59.431352 
L 321.652364 60.140664 
L 322.734545 59.106681 
L 323.816727 59.142269 
L 324.898909 58.652119 
L 325.981091 60.667858 
L 327.063273 60.129547 
L 328.145455 59.391813 
L 329.227636 58.91431 
L 330.309818 59.338115 
L 331.392 58.512019 
L 333.556364 58.766524 
L 334.638545 58.308905 
L 335.720727 59.048859 
L 336.802909 58.47995 
L 337.885091 59.032031 
L 338.967273 58.087449 
L 340.049455 58.603266 
L 341.131636 58.202229 
L 343.296 58.217946 
L 344.378182 58.119807 
L 345.460364 57.247279 
L 346.542545 57.486327 
L 347.624727 57.305563 
L 348.706909 57.847796 
L 349.789091 57.511417 
L 350.871273 57.362939 
L 351.953455 56.795226 
L 353.035636 57.018355 
L 354.117818 57.44575 
L 355.2 57.061224 
L 356.282182 57.096826 
L 357.364364 57.573536 
L 358.446545 57.060258 
L 362.775273 57.334042 
L 363.857455 57.053654 
L 364.939636 57.031289 
L 366.021818 56.778817 
L 367.104 56.926992 
L 368.186182 56.615717 
L 370.350545 57.287337 
L 373.597091 57.53841 
L 374.679273 57.143776 
L 376.843636 56.734895 
L 379.008 56.866632 
L 380.090182 56.835457 
L 381.172364 56.957764 
L 382.254545 57.31247 
L 383.336727 56.439496 
L 384.418909 56.880186 
L 385.501091 56.630252 
L 388.747636 56.62483 
L 390.912 56.290297 
L 393.076364 56.630267 
L 394.158545 56.389691 
L 396.322909 56.488205 
L 397.405091 56.756337 
L 398.487273 56.813683 
L 398.487273 56.813683 
" clip-path="url(#pd7fb83664f)" style="fill: none; stroke: #2ca02c; stroke-width: 1.5; stroke-linecap: square"/>
   </g>
   <g id="line2d_17">
    <path d="M 73.832727 170.831994 
L 74.914909 145.02719 
L 79.243636 145.02719 
L 80.325818 159.542405 
L 81.408 147.379192 
L 82.490182 149.395205 
L 83.572364 155.376004 
L 84.654545 146.908798 
L 85.736727 145.161594 
L 86.818909 145.967994 
L 87.901091 152.553592 
L 88.983273 151.478398 
L 90.065455 149.327995 
L 91.147636 150.067199 
L 92.229818 146.035203 
L 93.312 167.337602 
L 94.394182 154.233586 
L 95.476364 149.529609 
L 96.558545 147.379192 
L 97.640727 140.793579 
L 98.722909 128.764786 
L 99.805091 139.85279 
L 100.887273 154.905595 
L 101.969455 153.628801 
L 103.051636 153.964791 
L 104.133818 147.513597 
L 105.216 147.647987 
L 106.298182 148.790391 
L 107.380364 144.220805 
L 108.462545 148.319996 
L 109.544727 140.323185 
L 111.709091 139.180795 
L 112.791273 139.382395 
L 113.873455 135.619194 
L 114.955636 133.603181 
L 116.037818 137.097602 
L 117.12 133.871991 
L 118.202182 143.481601 
L 119.284364 133.9392 
L 120.366545 137.030407 
L 121.448727 143.078387 
L 122.530909 132.527987 
L 123.613091 147.110397 
L 124.695273 138.307186 
L 125.777455 156.787202 
L 126.859636 133.334401 
L 127.941818 141.264003 
L 129.024 140.05439 
L 130.106182 143.817605 
L 131.188364 151.276798 
L 132.270545 134.745599 
L 133.352727 142.540797 
L 134.434909 141.263988 
L 135.517091 134.1408 
L 136.599273 146.707198 
L 137.681455 139.180795 
L 138.763636 134.1408 
L 139.845818 152.150393 
L 140.928 148.521596 
L 142.010182 146.975993 
L 143.092364 154.233586 
L 145.256727 145.430389 
L 146.338909 155.174404 
L 147.421091 153.494382 
L 148.503273 150.403204 
L 149.585455 145.968008 
L 150.667636 147.311997 
L 151.749818 150.806389 
L 152.832 162.566402 
L 153.914182 138.643191 
L 154.996364 142.607992 
L 156.078545 148.185606 
L 157.160727 149.529595 
L 158.242909 156.451198 
L 159.325091 149.731195 
L 160.407273 147.715197 
L 161.489455 159.945604 
L 162.571636 142.070388 
L 163.653818 150.470399 
L 164.736 152.889597 
L 165.818182 159.2064 
L 166.900364 144.288 
L 167.982545 145.900798 
L 169.064727 152.284783 
L 170.146909 142.742411 
L 171.229091 146.639988 
L 172.311273 144.422405 
L 173.393455 151.008003 
L 174.475636 149.79839 
L 175.557818 166.262393 
L 176.64 145.161609 
L 177.722182 150.873599 
L 178.804364 143.145596 
L 179.886545 150.537594 
L 180.968727 151.679998 
L 182.050909 150.604789 
L 183.133091 152.553592 
L 184.215273 148.992005 
L 185.297455 151.142393 
L 186.379636 144.959995 
L 187.461818 153.830401 
L 188.544 147.513597 
L 189.626182 147.849587 
L 190.708364 152.419202 
L 191.790545 143.750396 
L 192.872727 150.873599 
L 193.954909 142.137597 
L 195.037091 151.881598 
L 196.119273 144.422405 
L 197.201455 162.633597 
L 198.283636 160.214385 
L 199.365818 154.032 
L 200.448 153.695996 
L 201.530182 149.529609 
L 202.612364 149.664 
L 203.694545 147.916797 
L 204.776727 153.695996 
L 205.858909 148.790405 
L 206.941091 145.497599 
L 208.023273 151.679983 
L 209.105455 150.20159 
L 210.187636 150.134394 
L 211.269818 147.984006 
L 212.352 153.359991 
L 213.434182 151.948778 
L 214.516364 151.007989 
L 215.598545 150.739194 
L 216.680727 150.604789 
L 217.762909 149.126395 
L 218.845091 152.351992 
L 219.927273 149.932795 
L 221.009455 152.284797 
L 222.091636 148.588791 
L 223.173818 145.430404 
L 224.256 148.319996 
L 225.338182 149.059186 
L 226.420364 156.585603 
L 227.502545 150.268785 
L 228.584727 147.177607 
L 229.666909 152.083197 
L 230.749091 151.948807 
L 231.831273 154.166391 
L 232.913455 148.319996 
L 233.995636 151.612803 
L 235.077818 149.059186 
L 236.16 152.687997 
L 237.242182 148.118396 
L 238.324364 156.115194 
L 239.406545 149.2608 
L 240.488727 150.134394 
L 241.570909 158.534391 
L 242.653091 151.075198 
L 243.735273 147.311997 
L 244.817455 152.553592 
L 245.899636 150.806389 
L 246.981818 144.019191 
L 248.064 150.604789 
L 249.146182 150.067199 
L 250.228364 147.446387 
L 251.310545 152.486397 
L 252.392727 153.494396 
L 253.474909 155.846399 
L 254.557091 151.142393 
L 256.721455 152.419187 
L 257.803636 153.964791 
L 258.885818 157.324792 
L 259.968 146.639988 
L 261.050182 151.679998 
L 262.132364 153.494396 
L 263.214545 151.276798 
L 264.296727 151.545607 
L 265.378909 150.806389 
L 266.461091 147.513597 
L 267.543273 148.790405 
L 268.625455 157.526392 
L 269.707636 149.0592 
L 270.789818 149.79839 
L 271.872 152.620802 
L 272.954182 153.023987 
L 274.036364 155.107194 
L 275.118545 155.308809 
L 276.200727 151.881612 
L 277.282909 153.292796 
L 278.365091 146.908798 
L 279.447273 150.537608 
L 280.529455 150.000004 
L 281.611636 153.225587 
L 282.693818 154.4352 
L 283.776 155.17439 
L 284.858182 151.411188 
L 285.940364 149.39519 
L 287.022545 148.924796 
L 288.104727 149.932795 
L 289.186909 148.991991 
L 290.269091 155.913594 
L 291.351273 153.763191 
L 292.433455 150.268785 
L 293.515636 151.276784 
L 294.597818 150.403189 
L 295.68 150.000004 
L 296.762182 152.419202 
L 297.844364 151.478398 
L 298.926545 150.067199 
L 301.090909 151.679998 
L 302.173091 152.687997 
L 303.255273 150.470399 
L 304.337455 150.268785 
L 306.501818 153.561606 
L 307.584 151.075198 
L 308.666182 154.77119 
L 309.748364 152.015988 
L 310.830545 151.814402 
L 311.912727 152.486397 
L 312.994909 152.419202 
L 315.159273 151.948793 
L 316.241455 154.8384 
L 317.323636 151.142379 
L 318.405818 150.403204 
L 319.488 151.411188 
L 320.570182 149.0592 
L 321.652364 148.454401 
L 323.816727 152.016002 
L 324.898909 151.209603 
L 325.981091 149.529595 
L 327.063273 149.193605 
L 328.145455 151.209589 
L 329.227636 150.134394 
L 330.309818 150.739194 
L 331.392 149.865599 
L 332.474182 151.612788 
L 333.556364 150.268785 
L 334.638545 150.403204 
L 336.802909 151.881598 
L 337.885091 151.612803 
L 338.967273 151.948793 
L 340.049455 152.687997 
L 341.131636 152.620802 
L 342.213818 152.956792 
L 344.378182 152.889597 
L 345.460364 153.763191 
L 346.542545 153.561591 
L 347.624727 153.023987 
L 348.706909 151.747193 
L 349.789091 152.284797 
L 350.871273 153.225601 
L 351.953455 153.359991 
L 354.117818 152.822401 
L 355.2 151.545593 
L 356.282182 151.209603 
L 357.364364 152.083197 
L 358.446545 152.217588 
L 359.528727 151.948793 
L 360.610909 152.284797 
L 361.693091 152.419202 
L 362.775273 152.822387 
L 363.857455 152.822401 
L 364.939636 153.897596 
L 366.021818 153.427186 
L 367.104 152.687982 
L 369.268364 152.687997 
L 370.350545 153.091182 
L 371.432727 152.822401 
L 372.514909 153.292796 
L 373.597091 152.419202 
L 375.761455 152.486397 
L 376.843636 152.956792 
L 377.925818 152.620802 
L 379.008 153.628801 
L 380.090182 153.427201 
L 381.172364 153.023987 
L 382.254545 153.024001 
L 383.336727 153.427201 
L 384.418909 153.023987 
L 385.501091 153.158406 
L 386.583273 153.628801 
L 387.665455 153.091196 
L 388.747636 153.695996 
L 389.829818 153.494382 
L 391.994182 152.822387 
L 393.076364 153.158392 
L 394.158545 152.486397 
L 395.240727 152.822401 
L 397.405091 153.158392 
L 398.487273 152.956792 
L 398.487273 152.956792 
" clip-path="url(#pd7fb83664f)" style="fill: none; stroke: #d62728; stroke-width: 1.5; stroke-linecap: square"/>
   </g>
   <g id="patch_3">
    <path d="M 57.6 307.584 
L 57.6 41.472 
" style="fill: none; stroke: #000000; stroke-width: 0.8; stroke-linejoin: miter; stroke-linecap: square"/>
   </g>
   <g id="patch_4">
    <path d="M 414.72 307.584 
L 414.72 41.472 
" style="fill: none; stroke: #000000; stroke-width: 0.8; stroke-linejoin: miter; stroke-linecap: square"/>
   </g>
   <g id="patch_5">
    <path d="M 57.6 307.584 
L 414.72 307.584 
" style="fill: none; stroke: #000000; stroke-width: 0.8; stroke-linejoin: miter; stroke-linecap: square"/>
   </g>
   <g id="patch_6">
    <path d="M 57.6 41.472 
L 414.72 41.472 
" style="fill: none; stroke: #000000; stroke-width: 0.8; stroke-linejoin: miter; stroke-linecap: square"/>
   </g>
   <g id="text_14">
    <!-- ice2 -->
    <g transform="translate(223.684687 35.472) scale(0.12 -0.12)">
     <defs>
      <path id="DejaVuSans-69" d="M 603 3500 
L 1178 3500 
L 1178 0 
L 603 0 
L 603 3500 
z
M 603 4863 
L 1178 4863 
L 1178 4134 
L 603 4134 
L 603 4863 
z
" transform="scale(0.015625)"/>
      <path id="DejaVuSans-63" d="M 3122 3366 
L 3122 2828 
Q 2878 2963 2633 3030 
Q 2388 3097 2138 3097 
Q 1578 3097 1268 2742 
Q 959 2388 959 1747 
Q 959 1106 1268 751 
Q 1578 397 2138 397 
Q 2388 397 2633 464 
Q 2878 531 3122 666 
L 3122 134 
Q 2881 22 2623 -34 
Q 2366 -91 2075 -91 
Q 1284 -91 818 406 
Q 353 903 353 1747 
Q 353 2603 823 3093 
Q 1294 3584 2113 3584 
Q 2378 3584 2631 3529 
Q 2884 3475 3122 3366 
z
" transform="scale(0.015625)"/>
      <path id="DejaVuSans-65" d="M 3597 1894 
L 3597 1613 
L 953 1613 
Q 991 1019 1311 708 
Q 1631 397 2203 397 
Q 2534 397 2845 478 
Q 3156 559 3463 722 
L 3463 178 
Q 3153 47 2828 -22 
Q 2503 -91 2169 -91 
Q 1331 -91 842 396 
Q 353 884 353 1716 
Q 353 2575 817 3079 
Q 1281 3584 2069 3584 
Q 2775 3584 3186 3129 
Q 3597 2675 3597 1894 
z
M 3022 2063 
Q 3016 2534 2758 2815 
Q 2500 3097 2075 3097 
Q 1594 3097 1305 2825 
Q 1016 2553 972 2059 
L 3022 2063 
z
" transform="scale(0.015625)"/>
     </defs>
     <use xlink:href="#DejaVuSans-69"/>
     <use xlink:href="#DejaVuSans-63" transform="translate(27.783203 0)"/>
     <use xlink:href="#DejaVuSans-65" transform="translate(82.763672 0)"/>
     <use xlink:href="#DejaVuSans-32" transform="translate(144.287109 0)"/>
    </g>
   </g>
   <g id="legend_1">
    <g id="patch_7">
     <path d="M 316.259063 302.584 
L 407.72 302.584 
Q 409.72 302.584 409.72 300.584 
L 409.72 212.40275 
Q 409.72 210.40275 407.72 210.40275 
L 316.259063 210.40275 
Q 314.259063 210.40275 314.259063 212.40275 
L 314.259063 300.584 
Q 314.259063 302.584 316.259063 302.584 
z
" style="fill: #ffffff; opacity: 0.8; stroke: #cccccc; stroke-linejoin: miter"/>
    </g>
    <g id="line2d_18">
     <path d="M 318.259063 218.501187 
L 328.259063 218.501187 
L 338.259063 218.501187 
" style="fill: none; stroke: #1f77b4; stroke-width: 1.5; stroke-linecap: square"/>
    </g>
    <g id="text_15">
     <!-- train -->
     <g transform="translate(346.259063 222.001187) scale(0.1 -0.1)">
      <defs>
       <path id="DejaVuSans-74" d="M 1172 4494 
L 1172 3500 
L 2356 3500 
L 2356 3053 
L 1172 3053 
L 1172 1153 
Q 1172 725 1289 603 
Q 1406 481 1766 481 
L 2356 481 
L 2356 0 
L 1766 0 
Q 1100 0 847 248 
Q 594 497 594 1153 
L 594 3053 
L 172 3053 
L 172 3500 
L 594 3500 
L 594 4494 
L 1172 4494 
z
" transform="scale(0.015625)"/>
       <path id="DejaVuSans-72" d="M 2631 2963 
Q 2534 3019 2420 3045 
Q 2306 3072 2169 3072 
Q 1681 3072 1420 2755 
Q 1159 2438 1159 1844 
L 1159 0 
L 581 0 
L 581 3500 
L 1159 3500 
L 1159 2956 
Q 1341 3275 1631 3429 
Q 1922 3584 2338 3584 
Q 2397 3584 2469 3576 
Q 2541 3569 2628 3553 
L 2631 2963 
z
" transform="scale(0.015625)"/>
       <path id="DejaVuSans-61" d="M 2194 1759 
Q 1497 1759 1228 1600 
Q 959 1441 959 1056 
Q 959 750 1161 570 
Q 1363 391 1709 391 
Q 2188 391 2477 730 
Q 2766 1069 2766 1631 
L 2766 1759 
L 2194 1759 
z
M 3341 1997 
L 3341 0 
L 2766 0 
L 2766 531 
Q 2569 213 2275 61 
Q 1981 -91 1556 -91 
Q 1019 -91 701 211 
Q 384 513 384 1019 
Q 384 1609 779 1909 
Q 1175 2209 1959 2209 
L 2766 2209 
L 2766 2266 
Q 2766 2663 2505 2880 
Q 2244 3097 1772 3097 
Q 1472 3097 1187 3025 
Q 903 2953 641 2809 
L 641 3341 
Q 956 3463 1253 3523 
Q 1550 3584 1831 3584 
Q 2591 3584 2966 3190 
Q 3341 2797 3341 1997 
z
" transform="scale(0.015625)"/>
       <path id="DejaVuSans-6e" d="M 3513 2113 
L 3513 0 
L 2938 0 
L 2938 2094 
Q 2938 2591 2744 2837 
Q 2550 3084 2163 3084 
Q 1697 3084 1428 2787 
Q 1159 2491 1159 1978 
L 1159 0 
L 581 0 
L 581 3500 
L 1159 3500 
L 1159 2956 
Q 1366 3272 1645 3428 
Q 1925 3584 2291 3584 
Q 2894 3584 3203 3211 
Q 3513 2838 3513 2113 
z
" transform="scale(0.015625)"/>
      </defs>
      <use xlink:href="#DejaVuSans-74"/>
      <use xlink:href="#DejaVuSans-72" transform="translate(39.208984 0)"/>
      <use xlink:href="#DejaVuSans-61" transform="translate(80.322266 0)"/>
      <use xlink:href="#DejaVuSans-69" transform="translate(141.601562 0)"/>
      <use xlink:href="#DejaVuSans-6e" transform="translate(169.384766 0)"/>
     </g>
    </g>
    <g id="line2d_19">
     <path d="M 318.259063 233.179312 
L 328.259063 233.179312 
L 338.259063 233.179312 
" style="fill: none; stroke: #ff7f0e; stroke-width: 1.5; stroke-linecap: square"/>
    </g>
    <g id="text_16">
     <!-- train_class0 -->
     <g transform="translate(346.259063 236.679312) scale(0.1 -0.1)">
      <defs>
       <path id="DejaVuSans-5f" d="M 3263 -1063 
L 3263 -1509 
L -63 -1509 
L -63 -1063 
L 3263 -1063 
z
" transform="scale(0.015625)"/>
       <path id="DejaVuSans-6c" d="M 603 4863 
L 1178 4863 
L 1178 0 
L 603 0 
L 603 4863 
z
" transform="scale(0.015625)"/>
       <path id="DejaVuSans-73" d="M 2834 3397 
L 2834 2853 
Q 2591 2978 2328 3040 
Q 2066 3103 1784 3103 
Q 1356 3103 1142 2972 
Q 928 2841 928 2578 
Q 928 2378 1081 2264 
Q 1234 2150 1697 2047 
L 1894 2003 
Q 2506 1872 2764 1633 
Q 3022 1394 3022 966 
Q 3022 478 2636 193 
Q 2250 -91 1575 -91 
Q 1294 -91 989 -36 
Q 684 19 347 128 
L 347 722 
Q 666 556 975 473 
Q 1284 391 1588 391 
Q 1994 391 2212 530 
Q 2431 669 2431 922 
Q 2431 1156 2273 1281 
Q 2116 1406 1581 1522 
L 1381 1569 
Q 847 1681 609 1914 
Q 372 2147 372 2553 
Q 372 3047 722 3315 
Q 1072 3584 1716 3584 
Q 2034 3584 2315 3537 
Q 2597 3491 2834 3397 
z
" transform="scale(0.015625)"/>
      </defs>
      <use xlink:href="#DejaVuSans-74"/>
      <use xlink:href="#DejaVuSans-72" transform="translate(39.208984 0)"/>
      <use xlink:href="#DejaVuSans-61" transform="translate(80.322266 0)"/>
      <use xlink:href="#DejaVuSans-69" transform="translate(141.601562 0)"/>
      <use xlink:href="#DejaVuSans-6e" transform="translate(169.384766 0)"/>
      <use xlink:href="#DejaVuSans-5f" transform="translate(232.763672 0)"/>
      <use xlink:href="#DejaVuSans-63" transform="translate(282.763672 0)"/>
      <use xlink:href="#DejaVuSans-6c" transform="translate(337.744141 0)"/>
      <use xlink:href="#DejaVuSans-61" transform="translate(365.527344 0)"/>
      <use xlink:href="#DejaVuSans-73" transform="translate(426.806641 0)"/>
      <use xlink:href="#DejaVuSans-73" transform="translate(478.90625 0)"/>
      <use xlink:href="#DejaVuSans-30" transform="translate(531.005859 0)"/>
     </g>
    </g>
    <g id="line2d_20">
     <path d="M 318.259063 248.135562 
L 328.259063 248.135562 
L 338.259063 248.135562 
" style="fill: none; stroke: #2ca02c; stroke-width: 1.5; stroke-linecap: square"/>
    </g>
    <g id="text_17">
     <!-- train_class1 -->
     <g transform="translate(346.259063 251.635562) scale(0.1 -0.1)">
      <use xlink:href="#DejaVuSans-74"/>
      <use xlink:href="#DejaVuSans-72" transform="translate(39.208984 0)"/>
      <use xlink:href="#DejaVuSans-61" transform="translate(80.322266 0)"/>
      <use xlink:href="#DejaVuSans-69" transform="translate(141.601562 0)"/>
      <use xlink:href="#DejaVuSans-6e" transform="translate(169.384766 0)"/>
      <use xlink:href="#DejaVuSans-5f" transform="translate(232.763672 0)"/>
      <use xlink:href="#DejaVuSans-63" transform="translate(282.763672 0)"/>
      <use xlink:href="#DejaVuSans-6c" transform="translate(337.744141 0)"/>
      <use xlink:href="#DejaVuSans-61" transform="translate(365.527344 0)"/>
      <use xlink:href="#DejaVuSans-73" transform="translate(426.806641 0)"/>
      <use xlink:href="#DejaVuSans-73" transform="translate(478.90625 0)"/>
      <use xlink:href="#DejaVuSans-31" transform="translate(531.005859 0)"/>
     </g>
    </g>
    <g id="line2d_21">
     <path d="M 318.259063 263.091812 
L 328.259063 263.091812 
L 338.259063 263.091812 
" style="fill: none; stroke: #d62728; stroke-width: 1.5; stroke-linecap: square"/>
    </g>
    <g id="text_18">
     <!-- test -->
     <g transform="translate(346.259063 266.591812) scale(0.1 -0.1)">
      <use xlink:href="#DejaVuSans-74"/>
      <use xlink:href="#DejaVuSans-65" transform="translate(39.208984 0)"/>
      <use xlink:href="#DejaVuSans-73" transform="translate(100.732422 0)"/>
      <use xlink:href="#DejaVuSans-74" transform="translate(152.832031 0)"/>
     </g>
    </g>
    <g id="line2d_22">
     <path d="M 318.259063 277.769937 
L 328.259063 277.769937 
L 338.259063 277.769937 
" style="fill: none; stroke: #9467bd; stroke-width: 1.5; stroke-linecap: square"/>
    </g>
    <g id="text_19">
     <!-- test_class0 -->
     <g transform="translate(346.259063 281.269937) scale(0.1 -0.1)">
      <use xlink:href="#DejaVuSans-74"/>
      <use xlink:href="#DejaVuSans-65" transform="translate(39.208984 0)"/>
      <use xlink:href="#DejaVuSans-73" transform="translate(100.732422 0)"/>
      <use xlink:href="#DejaVuSans-74" transform="translate(152.832031 0)"/>
      <use xlink:href="#DejaVuSans-5f" transform="translate(192.041016 0)"/>
      <use xlink:href="#DejaVuSans-63" transform="translate(242.041016 0)"/>
      <use xlink:href="#DejaVuSans-6c" transform="translate(297.021484 0)"/>
      <use xlink:href="#DejaVuSans-61" transform="translate(324.804688 0)"/>
      <use xlink:href="#DejaVuSans-73" transform="translate(386.083984 0)"/>
      <use xlink:href="#DejaVuSans-73" transform="translate(438.183594 0)"/>
      <use xlink:href="#DejaVuSans-30" transform="translate(490.283203 0)"/>
     </g>
    </g>
    <g id="line2d_23">
     <path d="M 318.259063 292.726187 
L 328.259063 292.726187 
L 338.259063 292.726187 
" style="fill: none; stroke: #8c564b; stroke-width: 1.5; stroke-linecap: square"/>
    </g>
    <g id="text_20">
     <!-- test_class1 -->
     <g transform="translate(346.259063 296.226187) scale(0.1 -0.1)">
      <use xlink:href="#DejaVuSans-74"/>
      <use xlink:href="#DejaVuSans-65" transform="translate(39.208984 0)"/>
      <use xlink:href="#DejaVuSans-73" transform="translate(100.732422 0)"/>
      <use xlink:href="#DejaVuSans-74" transform="translate(152.832031 0)"/>
      <use xlink:href="#DejaVuSans-5f" transform="translate(192.041016 0)"/>
      <use xlink:href="#DejaVuSans-63" transform="translate(242.041016 0)"/>
      <use xlink:href="#DejaVuSans-6c" transform="translate(297.021484 0)"/>
      <use xlink:href="#DejaVuSans-61" transform="translate(324.804688 0)"/>
      <use xlink:href="#DejaVuSans-73" transform="translate(386.083984 0)"/>
      <use xlink:href="#DejaVuSans-73" transform="translate(438.183594 0)"/>
      <use xlink:href="#DejaVuSans-31" transform="translate(490.283203 0)"/>
     </g>
    </g>
   </g>
   <g id="line2d_24">
    <path d="M 73.832727 201.463788 
L 74.914909 53.568 
L 79.243636 53.568 
L 80.325818 85.000079 
L 81.408 57.575468 
L 82.490182 69.985818 
L 83.572364 77.741794 
L 84.654545 59.847471 
L 85.736727 116.810859 
L 86.818909 76.91949 
L 87.901091 99.865372 
L 88.983273 115.850271 
L 90.065455 72.881423 
L 91.147636 121.311116 
L 92.229818 77.141998 
L 93.312 112.760867 
L 94.394182 114.341135 
L 95.476364 121.449789 
L 96.558545 81.526149 
L 97.640727 135.176441 
L 98.722909 107.502272 
L 99.805091 90.474117 
L 100.887273 105.950843 
L 101.969455 111.02866 
L 103.051636 114.717644 
L 104.133818 92.976011 
L 105.216 119.185443 
L 106.298182 133.395352 
L 107.380364 107.162965 
L 108.462545 117.496768 
L 109.544727 110.436666 
L 110.626909 101.715992 
L 111.709091 134.53679 
L 112.791273 94.842349 
L 113.873455 120.062007 
L 114.955636 112.369852 
L 116.037818 89.855389 
L 117.12 94.919263 
L 118.202182 113.800676 
L 119.284364 108.970283 
L 120.366545 98.077088 
L 121.448727 118.535481 
L 122.530909 109.252863 
L 123.613091 106.498151 
L 124.695273 132.799767 
L 125.777455 118.463902 
L 126.859636 105.903532 
L 127.941818 121.093395 
L 129.024 114.964565 
L 130.106182 121.983673 
L 131.188364 132.178457 
L 132.270545 116.949748 
L 133.352727 120.929358 
L 134.434909 118.557226 
L 135.517091 119.114729 
L 136.599273 111.308645 
L 137.681455 115.879341 
L 138.763636 109.63677 
L 139.845818 124.76023 
L 140.928 126.842688 
L 142.010182 126.283642 
L 143.092364 132.117131 
L 144.174545 136.302436 
L 145.256727 121.333322 
L 146.338909 144.948834 
L 147.421091 116.179859 
L 148.503273 112.61546 
L 149.585455 123.927313 
L 150.667636 136.43139 
L 151.749818 119.40423 
L 152.832 135.512648 
L 153.914182 116.112001 
L 154.996364 131.239182 
L 156.078545 109.490267 
L 157.160727 108.228556 
L 158.242909 127.674639 
L 159.325091 129.474343 
L 160.407273 133.973447 
L 161.489455 109.999724 
L 163.653818 131.817579 
L 164.736 128.486431 
L 165.818182 148.345548 
L 166.900364 92.264594 
L 167.982545 118.486065 
L 169.064727 126.668384 
L 170.146909 137.808414 
L 171.229091 125.409182 
L 172.311273 118.330305 
L 173.393455 119.044621 
L 175.557818 135.19151 
L 176.64 113.830971 
L 177.722182 111.374614 
L 179.886545 142.466464 
L 180.968727 130.590677 
L 182.050909 127.401215 
L 183.133091 123.422715 
L 184.215273 132.322696 
L 185.297455 124.893885 
L 186.379636 116.324747 
L 187.461818 146.273212 
L 188.544 142.327705 
L 189.626182 131.746404 
L 190.708364 128.385436 
L 191.790545 123.768799 
L 192.872727 137.049729 
L 193.954909 124.794534 
L 195.037091 134.555045 
L 196.119273 137.801421 
L 197.201455 112.967096 
L 198.283636 138.6534 
L 199.365818 145.305155 
L 200.448 128.44721 
L 201.530182 132.827453 
L 202.612364 126.623179 
L 203.694545 116.179672 
L 204.776727 125.799549 
L 205.858909 130.590403 
L 206.941091 121.300647 
L 208.023273 120.838616 
L 209.105455 132.841512 
L 210.187636 137.895364 
L 211.269818 136.158355 
L 212.352 141.965889 
L 213.434182 136.511822 
L 214.516364 132.11491 
L 215.598545 138.699571 
L 216.680727 137.069397 
L 217.762909 129.611488 
L 218.845091 145.082979 
L 219.927273 129.240256 
L 221.009455 138.096416 
L 222.091636 133.336059 
L 223.173818 127.59089 
L 224.256 132.808246 
L 225.338182 130.800625 
L 226.420364 138.392839 
L 227.502545 142.114728 
L 228.584727 126.298436 
L 229.666909 133.394718 
L 230.749091 127.510833 
L 231.831273 136.569255 
L 232.913455 137.971874 
L 233.995636 134.389523 
L 235.077818 124.168005 
L 236.16 119.924301 
L 237.242182 140.246112 
L 238.324364 135.128424 
L 239.406545 127.945813 
L 240.488727 129.02963 
L 241.570909 132.545925 
L 242.653091 131.484141 
L 243.735273 139.626965 
L 244.817455 133.913606 
L 245.899636 143.556525 
L 246.981818 128.304917 
L 248.064 125.308274 
L 249.146182 137.363484 
L 250.228364 134.476603 
L 251.310545 135.41993 
L 252.392727 124.414449 
L 253.474909 133.314963 
L 254.557091 136.229992 
L 255.639273 141.354731 
L 256.721455 133.75773 
L 257.803636 136.214476 
L 258.885818 143.606157 
L 259.968 132.309228 
L 261.050182 141.206065 
L 262.132364 140.489428 
L 263.214545 132.934619 
L 264.296727 130.727316 
L 265.378909 133.180919 
L 266.461091 127.594062 
L 267.543273 128.812284 
L 268.625455 130.379747 
L 269.707636 132.16871 
L 270.789818 138.018017 
L 271.872 131.315403 
L 272.954182 132.793062 
L 274.036364 132.811951 
L 275.118545 138.524691 
L 276.200727 133.293795 
L 277.282909 140.469485 
L 278.365091 130.214096 
L 279.447273 137.28634 
L 280.529455 131.953339 
L 281.611636 137.492914 
L 282.693818 139.248207 
L 283.776 130.49881 
L 284.858182 137.096261 
L 285.940364 131.294899 
L 287.022545 133.36621 
L 288.104727 132.794057 
L 289.186909 128.632472 
L 290.269091 145.190967 
L 291.351273 138.743407 
L 292.433455 134.743941 
L 293.515636 133.710982 
L 294.597818 135.829907 
L 295.68 141.459907 
L 296.762182 140.664337 
L 297.844364 134.812088 
L 298.926545 138.152349 
L 300.008727 140.215903 
L 301.090909 135.078403 
L 302.173091 133.210609 
L 303.255273 132.887885 
L 304.337455 133.744118 
L 305.419636 134.969852 
L 306.501818 137.204509 
L 307.584 133.445287 
L 308.666182 136.252227 
L 309.748364 136.24395 
L 310.830545 135.842639 
L 311.912727 137.871932 
L 312.994909 137.691313 
L 314.077091 137.869322 
L 315.159273 134.919788 
L 316.241455 139.639135 
L 317.323636 138.586854 
L 318.405818 139.805003 
L 319.488 139.174696 
L 320.570182 135.313917 
L 321.652364 134.326034 
L 322.734545 134.919716 
L 323.816727 140.551417 
L 324.898909 137.392987 
L 325.981091 135.109189 
L 327.063273 133.372468 
L 328.145455 137.126701 
L 329.227636 132.921338 
L 330.309818 132.588434 
L 331.392 134.373387 
L 332.474182 135.79158 
L 333.556364 133.468488 
L 334.638545 131.995459 
L 335.720727 133.65316 
L 336.802909 133.512569 
L 337.885091 135.714334 
L 338.967273 132.454101 
L 340.049455 135.666995 
L 341.131636 133.807766 
L 342.213818 135.420723 
L 343.296 134.350691 
L 344.378182 135.410745 
L 345.460364 137.547636 
L 346.542545 137.431674 
L 347.624727 136.652312 
L 348.706909 136.186185 
L 349.789091 135.423737 
L 350.871273 137.237861 
L 351.953455 137.688299 
L 353.035636 134.651166 
L 354.117818 135.994319 
L 355.2 134.521217 
L 356.282182 135.041042 
L 357.364364 135.6845 
L 358.446545 137.111488 
L 359.528727 137.39675 
L 360.610909 137.055036 
L 361.693091 136.377316 
L 362.775273 135.870512 
L 363.857455 137.061524 
L 364.939636 137.622286 
L 366.021818 135.823735 
L 367.104 136.009834 
L 368.186182 137.513996 
L 369.268364 135.809316 
L 370.350545 135.866994 
L 371.432727 135.122339 
L 372.514909 135.342064 
L 373.597091 133.600672 
L 374.679273 135.15748 
L 375.761455 134.318636 
L 376.843636 135.645884 
L 377.925818 135.59843 
L 379.008 135.816122 
L 380.090182 136.576638 
L 381.172364 135.899524 
L 382.254545 135.80796 
L 383.336727 135.17523 
L 384.418909 136.205334 
L 385.501091 135.431855 
L 386.583273 135.69866 
L 387.665455 135.579353 
L 388.747636 136.506862 
L 389.829818 135.993208 
L 390.912 136.713278 
L 391.994182 136.118615 
L 393.076364 136.540531 
L 394.158545 135.443506 
L 395.240727 134.940249 
L 396.322909 135.742294 
L 397.405091 135.484342 
L 398.487273 136.39798 
L 398.487273 136.39798 
" clip-path="url(#pd7fb83664f)" style="fill: none; stroke: #9467bd; stroke-width: 1.5; stroke-linecap: square"/>
   </g>
   <g id="line2d_25">
    <path d="M 73.832727 151.022365 
L 74.914909 295.488 
L 79.243636 295.488 
L 80.325818 238.005451 
L 81.408 290.212486 
L 82.490182 261.273149 
L 83.572364 255.485654 
L 84.654545 285.448647 
L 85.736727 191.134 
L 86.818909 251.270544 
L 87.901091 218.642533 
L 88.983273 197.640154 
L 90.065455 256.401361 
L 91.147636 204.167512 
L 92.229818 267.168059 
L 93.312 207.191026 
L 94.394182 196.241803 
L 95.476364 216.456557 
L 96.558545 244.067601 
L 97.640727 190.133586 
L 98.722909 185.72273 
L 99.805091 216.868596 
L 100.887273 203.5036 
L 101.969455 213.042893 
L 103.051636 210.926974 
L 104.133818 227.062284 
L 105.216 200.621145 
L 106.298182 183.461751 
L 107.380364 211.659423 
L 108.462545 202.835614 
L 109.544727 202.585521 
L 110.626909 211.159324 
L 111.709091 170.964091 
L 112.791273 216.044417 
L 113.873455 171.045793 
L 114.955636 186.915638 
L 116.037818 228.737981 
L 117.12 211.212756 
L 118.202182 199.532548 
L 119.284364 201.429123 
L 120.366545 219.563538 
L 121.448727 199.110148 
L 122.530909 198.93136 
L 123.613091 204.044362 
L 124.695273 196.215935 
L 125.777455 203.87287 
L 126.859636 188.763966 
L 127.941818 177.972053 
L 129.024 190.702942 
L 130.106182 185.314758 
L 131.188364 169.065396 
L 132.270545 199.71409 
L 133.352727 189.18669 
L 134.434909 187.865462 
L 135.517091 188.732438 
L 136.599273 212.740075 
L 137.681455 183.348795 
L 138.763636 204.05806 
L 139.845818 188.208215 
L 140.928 178.327084 
L 142.010182 171.021308 
L 143.092364 186.51166 
L 144.174545 164.134629 
L 145.256727 194.244579 
L 146.338909 169.216658 
L 147.421091 208.488224 
L 148.503273 207.055612 
L 149.585455 183.029849 
L 150.667636 181.923422 
L 151.749818 204.537482 
L 152.832 182.70639 
L 153.914182 184.061886 
L 154.996364 184.563167 
L 156.078545 216.763816 
L 157.160727 208.609348 
L 158.242909 196.099489 
L 160.407273 162.846761 
L 161.489455 213.042395 
L 162.571636 196.232322 
L 163.653818 167.049644 
L 164.736 192.602718 
L 165.818182 165.669865 
L 166.900364 236.282743 
L 167.982545 194.264017 
L 169.064727 187.822578 
L 170.146909 173.276527 
L 171.229091 194.811181 
L 172.311273 207.921788 
L 173.393455 204.957495 
L 174.475636 192.101913 
L 175.557818 195.799469 
L 176.64 201.213003 
L 177.722182 217.449761 
L 178.804364 183.817135 
L 179.886545 172.009524 
L 180.968727 185.935202 
L 182.050909 193.994076 
L 183.133091 203.006738 
L 184.215273 187.958461 
L 185.297455 197.323335 
L 186.379636 201.304242 
L 187.461818 181.019972 
L 188.544 175.448061 
L 189.626182 185.364462 
L 190.708364 187.784568 
L 191.790545 198.171998 
L 192.872727 174.511821 
L 193.954909 179.701275 
L 195.037091 182.144431 
L 196.119273 170.478426 
L 197.201455 232.751448 
L 198.283636 184.150451 
L 199.365818 172.892087 
L 200.448 195.349925 
L 201.530182 180.462685 
L 202.612364 189.261231 
L 203.694545 201.853664 
L 204.776727 186.390738 
L 205.858909 183.290187 
L 206.941091 198.832976 
L 208.023273 195.731243 
L 209.105455 183.180079 
L 210.187636 177.940568 
L 211.269818 182.77246 
L 212.352 184.689641 
L 213.434182 190.1536 
L 215.598545 186.142815 
L 216.680727 176.707336 
L 217.762909 194.071689 
L 218.845091 171.614284 
L 219.927273 187.213842 
L 221.009455 182.459008 
L 222.091636 185.470482 
L 223.173818 183.134571 
L 224.256 186.87411 
L 225.338182 186.818775 
L 226.420364 188.51835 
L 227.502545 162.775673 
L 228.584727 189.676529 
L 229.666909 186.954881 
L 230.749091 189.895115 
L 231.831273 179.58023 
L 232.913455 178.407812 
L 233.995636 181.789782 
L 235.077818 200.444873 
L 236.16 212.047417 
L 237.242182 174.613969 
L 238.324364 189.74508 
L 239.406545 192.194731 
L 240.488727 189.092335 
L 241.570909 192.513714 
L 242.653091 182.911897 
L 243.735273 177.138884 
L 244.817455 183.79534 
L 245.899636 171.131863 
L 246.981818 182.663261 
L 248.064 188.198727 
L 249.146182 177.333231 
L 250.228364 182.344949 
L 251.310545 179.260534 
L 252.392727 199.505014 
L 254.557091 175.025583 
L 255.639273 177.418775 
L 256.721455 180.869064 
L 257.803636 185.613185 
L 258.885818 174.246357 
L 259.968 179.83648 
L 261.050182 171.690621 
L 262.132364 182.863772 
L 264.296727 194.66248 
L 265.378909 183.379884 
L 266.461091 186.499742 
L 267.543273 184.552446 
L 268.625455 196.845031 
L 269.707636 179.842868 
L 270.789818 179.514109 
L 271.872 188.108273 
L 272.954182 187.561916 
L 274.036364 182.661329 
L 275.118545 175.836604 
L 276.200727 184.15712 
L 277.282909 175.903662 
L 278.365091 187.544792 
L 279.447273 182.262505 
L 280.529455 183.040758 
L 281.611636 182.183061 
L 282.693818 180.141937 
L 283.776 189.815036 
L 284.858182 181.189193 
L 285.940364 185.406199 
L 287.022545 181.593042 
L 288.104727 187.192674 
L 289.186909 191.746384 
L 290.269091 172.464663 
L 292.433455 186.034567 
L 293.515636 186.45595 
L 294.597818 180.430508 
L 295.68 175.788233 
L 296.762182 178.688936 
L 297.844364 184.141893 
L 300.008727 179.893401 
L 301.090909 181.682205 
L 302.173091 186.557197 
L 303.255273 186.262743 
L 304.337455 182.223191 
L 305.419636 182.373125 
L 306.501818 184.718495 
L 307.584 185.731649 
L 308.666182 185.083288 
L 309.748364 183.085134 
L 310.830545 181.366532 
L 311.912727 183.931475 
L 312.994909 180.668164 
L 314.077091 183.800755 
L 315.159273 186.54949 
L 316.241455 179.851837 
L 317.323636 177.203837 
L 318.405818 177.221371 
L 319.488 177.494701 
L 320.570182 181.959579 
L 321.652364 181.617028 
L 322.734545 183.627316 
L 323.816727 175.663598 
L 324.898909 183.20013 
L 327.063273 187.379169 
L 328.145455 182.090285 
L 329.227636 185.185198 
L 330.309818 185.58754 
L 331.392 177.99728 
L 332.474182 182.926721 
L 333.556364 183.550179 
L 334.638545 186.574537 
L 335.720727 184.843426 
L 336.802909 188.633202 
L 337.885091 183.605954 
L 338.967273 188.212274 
L 340.049455 187.269927 
L 341.131636 189.95549 
L 342.213818 187.929939 
L 343.296 189.34914 
L 344.378182 187.009719 
L 345.460364 182.796469 
L 346.542545 185.55299 
L 347.624727 185.918519 
L 348.706909 184.539151 
L 349.789091 185.647475 
L 350.871273 184.664457 
L 351.953455 184.639108 
L 353.035636 188.218878 
L 354.117818 185.460301 
L 355.2 183.433222 
L 356.282182 183.286099 
L 357.364364 185.983003 
L 359.528727 182.324228 
L 360.610909 183.407339 
L 361.693091 186.163075 
L 363.857455 184.079571 
L 364.939636 185.428067 
L 366.021818 187.99947 
L 367.104 186.868321 
L 368.186182 183.650099 
L 369.268364 185.990862 
L 370.350545 186.458365 
L 371.432727 187.554922 
L 372.514909 188.151978 
L 373.597091 188.117371 
L 374.679273 187.436523 
L 375.761455 187.560877 
L 376.843636 186.122037 
L 377.925818 186.261978 
L 379.008 187.528318 
L 380.090182 186.485193 
L 381.172364 186.419404 
L 383.336727 188.175525 
L 384.418909 186.895682 
L 385.501091 187.049964 
L 386.583273 187.679623 
L 387.665455 186.600261 
L 388.747636 186.963735 
L 389.829818 187.915743 
L 390.912 185.148839 
L 391.994182 186.26939 
L 394.158545 187.20873 
L 395.240727 187.92412 
L 396.322909 187.529356 
L 397.405091 188.252093 
L 398.487273 186.978299 
L 398.487273 186.978299 
" clip-path="url(#pd7fb83664f)" style="fill: none; stroke: #8c564b; stroke-width: 1.5; stroke-linecap: square"/>
   </g>
  </g>
 </g>
 <defs>
  <clipPath id="pd7fb83664f">
   <rect x="57.6" y="41.472" width="357.12" height="266.112"/>
  </clipPath>
 </defs>
</svg>
