<?xml version="1.0" encoding="utf-8" standalone="no"?>
<!DOCTYPE svg PUBLIC "-//W3C//DTD SVG 1.1//EN"
  "http://www.w3.org/Graphics/SVG/1.1/DTD/svg11.dtd">
<svg xmlns:xlink="http://www.w3.org/1999/xlink" width="460.8pt" height="345.6pt" viewBox="0 0 460.8 345.6" xmlns="http://www.w3.org/2000/svg" version="1.1">
 <metadata>
  <rdf:RDF xmlns:dc="http://purl.org/dc/elements/1.1/" xmlns:cc="http://creativecommons.org/ns#" xmlns:rdf="http://www.w3.org/1999/02/22-rdf-syntax-ns#">
   <cc:Work>
    <dc:type rdf:resource="http://purl.org/dc/dcmitype/StillImage"/>
    <dc:date>2026-03-18T11:57:18.117054</dc:date>
    <dc:format>image/svg+xml</dc:format>
    <dc:creator>
     <cc:Agent>
      <dc:title>Matplotlib v3.10.8, https://matplotlib.org/</dc:title>
     </cc:Agent>
    </dc:creator>
   </cc:Work>
  </rdf:RDF>
 </metadata>
 <defs>
  <style type="text/css">*{stroke-linejoin: round; stroke-linecap: butt}</style>
 </defs>
 <g id="figure_1">
  <g id="patch_1">
   <path d="M 0 345.6 
L 460.8 345.6 
L 460.8 0 
L 0 0 
z
" style="fill: #ffffff"/>
  </g>
  <g id="axes_1">
   <g id="patch_2">
    <path d="M 57.6 307.584 
L 414.72 307.584 
L 414.72 41.472 
L 57.6 41.472 
z
" style="fill: #ffffff"/>
   </g>
   <g id="matplotlib.axis_1">
    <g id="xtick_1">
     <g id="line2d_1">
      <defs>
       <path id="m5c0ea33c73" d="M 0 0 
L 0 3.5 
" style="stroke: #000000; stroke-width: 0.8"/>
      </defs>
      <g>
       <use xlink:href="#m5c0ea33c73" x="73.832727" y="307.584" style="stroke: #000000; stroke-width: 0.8"/>
      </g>
     </g>
     <g id="text_1">
      <!-- 0 -->
      <g transform="translate(70.651477 322.182437) scale(0.1 -0.1)">
       <defs>
        <path id="DejaVuSans-30" d="M 2034 4250 
Q 1547 4250 1301 3770 
Q 1056 3291 1056 2328 
Q 1056 1369 1301 889 
Q 1547 409 2034 409 
Q 2525 409 2770 889 
Q 3016 1369 3016 2328 
Q 3016 3291 2770 3770 
Q 2525 4250 2034 4250 
z
M 2034 4750 
Q 2819 4750 3233 4129 
Q 3647 3509 3647 2328 
Q 3647 1150 3233 529 
Q 2819 -91 2034 -91 
Q 1250 -91 836 529 
Q 422 1150 422 2328 
Q 422 3509 836 4129 
Q 1250 4750 2034 4750 
z
" transform="scale(0.015625)"/>
       </defs>
       <use xlink:href="#DejaVuSans-30"/>
      </g>
     </g>
    </g>
    <g id="xtick_2">
     <g id="line2d_2">
      <g>
       <use xlink:href="#m5c0ea33c73" x="128.122785" y="307.584" style="stroke: #000000; stroke-width: 0.8"/>
      </g>
     </g>
     <g id="text_2">
      <!-- 50 -->
      <g transform="translate(121.760285 322.182437) scale(0.1 -0.1)">
       <defs>
        <path id="DejaVuSans-35" d="M 691 4666 
L 3169 4666 
L 3169 4134 
L 1269 4134 
L 1269 2991 
Q 1406 3038 1543 3061 
Q 1681 3084 1819 3084 
Q 2600 3084 3056 2656 
Q 3513 2228 3513 1497 
Q 3513 744 3044 326 
Q 2575 -91 1722 -91 
Q 1428 -91 1123 -41 
Q 819 9 494 109 
L 494 744 
Q 775 591 1075 516 
Q 1375 441 1709 441 
Q 2250 441 2565 725 
Q 2881 1009 2881 1497 
Q 2881 1984 2565 2268 
Q 2250 2553 1709 2553 
Q 1456 2553 1204 2497 
Q 953 2441 691 2322 
L 691 4666 
z
" transform="scale(0.015625)"/>
       </defs>
       <use xlink:href="#DejaVuSans-35"/>
       <use xlink:href="#DejaVuSans-30" transform="translate(63.623047 0)"/>
      </g>
     </g>
    </g>
    <g id="xtick_3">
     <g id="line2d_3">
      <g>
       <use xlink:href="#m5c0ea33c73" x="182.412843" y="307.584" style="stroke: #000000; stroke-width: 0.8"/>
      </g>
     </g>
     <g id="text_3">
      <!-- 100 -->
      <g transform="translate(172.869093 322.182437) scale(0.1 -0.1)">
       <defs>
        <path id="DejaVuSans-31" d="M 794 531 
L 1825 531 
L 1825 4091 
L 703 3866 
L 703 4441 
L 1819 4666 
L 2450 4666 
L 2450 531 
L 3481 531 
L 3481 0 
L 794 0 
L 794 531 
z
" transform="scale(0.015625)"/>
       </defs>
       <use xlink:href="#DejaVuSans-31"/>
       <use xlink:href="#DejaVuSans-30" transform="translate(63.623047 0)"/>
       <use xlink:href="#DejaVuSans-30" transform="translate(127.246094 0)"/>
      </g>
     </g>
    </g>
    <g id="xtick_4">
     <g id="line2d_4">
      <g>
       <use xlink:href="#m5c0ea33c73" x="236.702901" y="307.584" style="stroke: #000000; stroke-width: 0.8"/>
      </g>
     </g>
     <g id="text_4">
      <!-- 150 -->
      <g transform="translate(227.159151 322.182437) scale(0.1 -0.1)">
       <use xlink:href="#DejaVuSans-31"/>
       <use xlink:href="#DejaVuSans-35" transform="translate(63.623047 0)"/>
       <use xlink:href="#DejaVuSans-30" transform="translate(127.246094 0)"/>
      </g>
     </g>
    </g>
    <g id="xtick_5">
     <g id="line2d_5">
      <g>
       <use xlink:href="#m5c0ea33c73" x="290.992958" y="307.584" style="stroke: #000000; stroke-width: 0.8"/>
      </g>
     </g>
     <g id="text_5">
      <!-- 200 -->
      <g transform="translate(281.449208 322.182437) scale(0.1 -0.1)">
       <defs>
        <path id="DejaVuSans-32" d="M 1228 531 
L 3431 531 
L 3431 0 
L 469 0 
L 469 531 
Q 828 903 1448 1529 
Q 2069 2156 2228 2338 
Q 2531 2678 2651 2914 
Q 2772 3150 2772 3378 
Q 2772 3750 2511 3984 
Q 2250 4219 1831 4219 
Q 1534 4219 1204 4116 
Q 875 4013 500 3803 
L 500 4441 
Q 881 4594 1212 4672 
Q 1544 4750 1819 4750 
Q 2544 4750 2975 4387 
Q 3406 4025 3406 3419 
Q 3406 3131 3298 2873 
Q 3191 2616 2906 2266 
Q 2828 2175 2409 1742 
Q 1991 1309 1228 531 
z
" transform="scale(0.015625)"/>
       </defs>
       <use xlink:href="#DejaVuSans-32"/>
       <use xlink:href="#DejaVuSans-30" transform="translate(63.623047 0)"/>
       <use xlink:href="#DejaVuSans-30" transform="translate(127.246094 0)"/>
      </g>
     </g>
    </g>
    <g id="xtick_6">
     <g id="line2d_6">
      <g>
       <use xlink:href="#m5c0ea33c73" x="345.283016" y="307.584" style="stroke: #000000; stroke-width: 0.8"/>
      </g>
     </g>
     <g id="text_6">
      <!-- 250 -->
      <g transform="translate(335.739266 322.182437) scale(0.1 -0.1)">
       <use xlink:href="#DejaVuSans-32"/>
       <use xlink:href="#DejaVuSans-35" transform="translate(63.623047 0)"/>
       <use xlink:href="#DejaVuSans-30" transform="translate(127.246094 0)"/>
      </g>
     </g>
    </g>
    <g id="xtick_7">
     <g id="line2d_7">
      <g>
       <use xlink:href="#m5c0ea33c73" x="399.573074" y="307.584" style="stroke: #000000; stroke-width: 0.8"/>
      </g>
     </g>
     <g id="text_7">
      <!-- 300 -->
      <g transform="translate(390.029324 322.182437) scale(0.1 -0.1)">
       <defs>
        <path id="DejaVuSans-33" d="M 2597 2516 
Q 3050 2419 3304 2112 
Q 3559 1806 3559 1356 
Q 3559 666 3084 287 
Q 2609 -91 1734 -91 
Q 1441 -91 1130 -33 
Q 819 25 488 141 
L 488 750 
Q 750 597 1062 519 
Q 1375 441 1716 441 
Q 2309 441 2620 675 
Q 2931 909 2931 1356 
Q 2931 1769 2642 2001 
Q 2353 2234 1838 2234 
L 1294 2234 
L 1294 2753 
L 1863 2753 
Q 2328 2753 2575 2939 
Q 2822 3125 2822 3475 
Q 2822 3834 2567 4026 
Q 2313 4219 1838 4219 
Q 1578 4219 1281 4162 
Q 984 4106 628 3988 
L 628 4550 
Q 988 4650 1302 4700 
Q 1616 4750 1894 4750 
Q 2613 4750 3031 4423 
Q 3450 4097 3450 3541 
Q 3450 3153 3228 2886 
Q 3006 2619 2597 2516 
z
" transform="scale(0.015625)"/>
       </defs>
       <use xlink:href="#DejaVuSans-33"/>
       <use xlink:href="#DejaVuSans-30" transform="translate(63.623047 0)"/>
       <use xlink:href="#DejaVuSans-30" transform="translate(127.246094 0)"/>
      </g>
     </g>
    </g>
   </g>
   <g id="matplotlib.axis_2">
    <g id="ytick_1">
     <g id="line2d_8">
      <defs>
       <path id="mb1af9133e9" d="M 0 0 
L -3.5 0 
" style="stroke: #000000; stroke-width: 0.8"/>
      </defs>
      <g>
       <use xlink:href="#mb1af9133e9" x="57.6" y="263.681423" style="stroke: #000000; stroke-width: 0.8"/>
      </g>
     </g>
     <g id="text_8">
      <!-- 0.10 -->
      <g transform="translate(28.334375 267.480642) scale(0.1 -0.1)">
       <defs>
        <path id="DejaVuSans-2e" d="M 684 794 
L 1344 794 
L 1344 0 
L 684 0 
L 684 794 
z
" transform="scale(0.015625)"/>
       </defs>
       <use xlink:href="#DejaVuSans-30"/>
       <use xlink:href="#DejaVuSans-2e" transform="translate(63.623047 0)"/>
       <use xlink:href="#DejaVuSans-31" transform="translate(95.410156 0)"/>
       <use xlink:href="#DejaVuSans-30" transform="translate(159.033203 0)"/>
      </g>
     </g>
    </g>
    <g id="ytick_2">
     <g id="line2d_9">
      <g>
       <use xlink:href="#mb1af9133e9" x="57.6" y="210.146792" style="stroke: #000000; stroke-width: 0.8"/>
      </g>
     </g>
     <g id="text_9">
      <!-- 0.15 -->
      <g transform="translate(28.334375 213.946011) scale(0.1 -0.1)">
       <use xlink:href="#DejaVuSans-30"/>
       <use xlink:href="#DejaVuSans-2e" transform="translate(63.623047 0)"/>
       <use xlink:href="#DejaVuSans-31" transform="translate(95.410156 0)"/>
       <use xlink:href="#DejaVuSans-35" transform="translate(159.033203 0)"/>
      </g>
     </g>
    </g>
    <g id="ytick_3">
     <g id="line2d_10">
      <g>
       <use xlink:href="#mb1af9133e9" x="57.6" y="156.612161" style="stroke: #000000; stroke-width: 0.8"/>
      </g>
     </g>
     <g id="text_10">
      <!-- 0.20 -->
      <g transform="translate(28.334375 160.41138) scale(0.1 -0.1)">
       <use xlink:href="#DejaVuSans-30"/>
       <use xlink:href="#DejaVuSans-2e" transform="translate(63.623047 0)"/>
       <use xlink:href="#DejaVuSans-32" transform="translate(95.410156 0)"/>
       <use xlink:href="#DejaVuSans-30" transform="translate(159.033203 0)"/>
      </g>
     </g>
    </g>
    <g id="ytick_4">
     <g id="line2d_11">
      <g>
       <use xlink:href="#mb1af9133e9" x="57.6" y="103.077531" style="stroke: #000000; stroke-width: 0.8"/>
      </g>
     </g>
     <g id="text_11">
      <!-- 0.25 -->
      <g transform="translate(28.334375 106.876749) scale(0.1 -0.1)">
       <use xlink:href="#DejaVuSans-30"/>
       <use xlink:href="#DejaVuSans-2e" transform="translate(63.623047 0)"/>
       <use xlink:href="#DejaVuSans-32" transform="translate(95.410156 0)"/>
       <use xlink:href="#DejaVuSans-35" transform="translate(159.033203 0)"/>
      </g>
     </g>
    </g>
    <g id="ytick_5">
     <g id="line2d_12">
      <g>
       <use xlink:href="#mb1af9133e9" x="57.6" y="49.5429" style="stroke: #000000; stroke-width: 0.8"/>
      </g>
     </g>
     <g id="text_12">
      <!-- 0.30 -->
      <g transform="translate(28.334375 53.342119) scale(0.1 -0.1)">
       <use xlink:href="#DejaVuSans-30"/>
       <use xlink:href="#DejaVuSans-2e" transform="translate(63.623047 0)"/>
       <use xlink:href="#DejaVuSans-33" transform="translate(95.410156 0)"/>
       <use xlink:href="#DejaVuSans-30" transform="translate(159.033203 0)"/>
      </g>
     </g>
    </g>
   </g>
   <g id="line2d_13">
    <path d="M 73.832727 53.568 
L 74.918528 58.359123 
L 76.00433 83.210398 
L 77.090131 258.938249 
L 78.175932 267.065344 
L 79.261733 269.325213 
L 80.347534 264.051073 
L 81.433335 273.518431 
L 82.519137 272.921722 
L 83.604938 273.109069 
L 84.690739 274.120133 
L 85.77654 275.489816 
L 86.862341 278.364055 
L 87.948142 277.1795 
L 89.033943 277.215917 
L 90.119745 274.816119 
L 91.205546 275.569725 
L 92.291347 282.412486 
L 93.377148 276.266756 
L 94.462949 271.305381 
L 95.54875 276.614095 
L 96.634552 278.015041 
L 97.720353 275.813766 
L 98.806154 275.275642 
L 99.891955 277.558142 
L 100.977756 277.630097 
L 102.063557 279.061253 
L 103.149358 277.201103 
L 104.23516 280.66925 
L 105.320961 282.999582 
L 106.406762 281.628032 
L 107.492563 282.120908 
L 108.578364 283.307752 
L 109.664165 282.410228 
L 110.749967 282.737999 
L 111.835768 281.39267 
L 112.921569 275.11624 
L 114.00737 281.16511 
L 115.093171 274.600254 
L 116.178972 277.37788 
L 117.264773 279.53788 
L 118.350575 279.078405 
L 119.436376 274.620684 
L 120.522177 278.31028 
L 121.607978 279.730404 
L 122.693779 281.563966 
L 124.865382 285.986475 
L 127.036984 272.187589 
L 128.122785 275.646889 
L 129.208586 276.807288 
L 130.294387 278.546479 
L 131.380189 278.467034 
L 132.46599 281.269804 
L 133.551791 281.528347 
L 134.637592 282.810887 
L 135.723393 277.834786 
L 136.809194 281.712104 
L 137.894995 275.373627 
L 138.980797 281.315242 
L 140.066598 278.818242 
L 141.152399 277.628286 
L 142.2382 280.452045 
L 143.324001 278.557305 
L 144.409802 283.644178 
L 145.495604 287.292763 
L 146.581405 286.752996 
L 147.667206 285.913794 
L 148.753007 286.025349 
L 149.838808 286.680164 
L 150.924609 281.281522 
L 152.01041 288.759187 
L 153.096212 285.652554 
L 154.182013 276.957206 
L 155.267814 282.155641 
L 156.353615 283.425257 
L 157.439416 283.674906 
L 158.525217 283.679501 
L 160.69682 288.727828 
L 161.782621 285.175449 
L 162.868422 289.801116 
L 163.954223 285.240631 
L 165.040024 286.099067 
L 166.125825 285.887629 
L 167.211627 283.574879 
L 168.297428 286.724039 
L 169.383229 282.267219 
L 170.46903 282.132595 
L 171.554831 282.192688 
L 172.640632 289.784786 
L 173.726434 285.595086 
L 174.812235 286.020052 
L 175.898036 284.848939 
L 176.983837 280.965447 
L 178.069638 288.81131 
L 179.155439 283.825294 
L 180.24124 287.330009 
L 181.327042 286.371228 
L 182.412843 283.186202 
L 183.498644 289.036693 
L 184.584445 287.345046 
L 185.670246 284.653575 
L 186.756047 284.908114 
L 187.841849 286.548124 
L 188.92765 287.129325 
L 190.013451 293.514421 
L 191.099252 288.614998 
L 192.185053 284.421093 
L 193.270854 284.815418 
L 194.356656 287.021679 
L 195.442457 285.459759 
L 196.528258 285.346139 
L 197.614059 285.750866 
L 198.69986 291.401095 
L 199.785661 286.714466 
L 200.871462 289.607028 
L 201.957264 283.730317 
L 203.043065 285.867646 
L 204.128866 286.032632 
L 205.214667 288.906296 
L 206.300468 287.617319 
L 207.386269 289.738366 
L 208.472071 289.744293 
L 209.557872 283.219372 
L 210.643673 289.733827 
L 211.729474 292.165686 
L 212.815275 288.022309 
L 213.901076 276.025068 
L 214.986877 287.689928 
L 216.072679 289.366761 
L 217.15848 284.949572 
L 218.244281 284.283764 
L 219.330082 288.771799 
L 220.415883 289.803325 
L 221.501684 290.641562 
L 222.587486 286.958196 
L 223.673287 287.173854 
L 224.759088 287.736507 
L 225.844889 285.181958 
L 226.93069 288.186649 
L 228.016491 286.081317 
L 229.102292 290.468599 
L 230.188094 290.584716 
L 231.273895 288.203322 
L 232.359696 288.03698 
L 233.445497 230.441102 
L 234.531298 267.120451 
L 235.617099 267.065289 
L 236.702901 261.564203 
L 237.788702 273.220798 
L 238.874503 273.95143 
L 239.960304 275.491715 
L 241.046105 279.140364 
L 242.131906 277.683984 
L 243.217708 277.024255 
L 244.303509 269.649369 
L 245.38931 274.544868 
L 246.475111 282.321616 
L 247.560912 281.773338 
L 248.646713 286.609812 
L 249.732514 282.111112 
L 250.818316 278.195758 
L 251.904117 281.615372 
L 252.989918 281.16984 
L 254.075719 286.466157 
L 255.16152 286.955867 
L 256.247321 287.861192 
L 257.333123 282.659933 
L 258.418924 281.306005 
L 259.504725 283.867446 
L 260.590526 289.970689 
L 261.676327 285.421987 
L 262.762128 285.469428 
L 263.847929 285.116704 
L 264.933731 285.031411 
L 266.019532 287.174899 
L 267.105333 281.092349 
L 268.191134 286.23397 
L 269.276935 289.682406 
L 270.362736 289.225036 
L 272.534339 285.343291 
L 273.62014 284.682022 
L 274.705941 286.21737 
L 275.791742 286.830639 
L 276.877543 279.06304 
L 277.963344 287.765202 
L 279.049146 291.664617 
L 280.134947 278.465765 
L 281.220748 289.773642 
L 282.306549 284.153918 
L 283.39235 284.815331 
L 284.478151 290.10643 
L 285.563953 282.033078 
L 286.649754 288.859748 
L 287.735555 289.192026 
L 288.821356 291.426878 
L 289.907157 288.196749 
L 290.992958 288.857347 
L 292.07876 288.366808 
L 293.164561 289.037722 
L 294.250362 290.490345 
L 295.336163 282.444722 
L 296.421964 286.58399 
L 297.507765 292.182909 
L 298.593566 287.63242 
L 299.679368 288.362469 
L 300.765169 287.398781 
L 301.85097 287.886704 
L 302.936771 292.274823 
L 304.022572 286.155538 
L 305.108373 286.895215 
L 306.194175 289.390294 
L 307.279976 289.8937 
L 308.365777 290.787443 
L 309.451578 288.067908 
L 310.537379 293.28793 
L 311.62318 286.570939 
L 312.708981 289.443725 
L 313.794783 293.000891 
L 314.880584 283.557401 
L 315.966385 289.275134 
L 318.137987 289.308255 
L 319.223788 286.713708 
L 320.30959 292.558128 
L 321.395391 290.045508 
L 322.481192 291.386273 
L 323.566993 286.356238 
L 324.652794 287.038399 
L 325.738595 291.979097 
L 326.824396 289.426909 
L 327.910198 290.278524 
L 328.995999 291.413516 
L 330.0818 295.488 
L 331.167601 292.068235 
L 333.339203 289.482591 
L 334.425005 289.122879 
L 335.510806 290.861679 
L 336.596607 288.919562 
L 337.682408 291.27223 
L 338.768209 291.773937 
L 339.85401 292.011716 
L 340.939811 288.693598 
L 342.025613 288.418756 
L 343.111414 290.465248 
L 344.197215 293.348086 
L 345.283016 294.160939 
L 346.368817 284.892096 
L 347.454618 267.724045 
L 348.54042 282.642223 
L 349.626221 280.241365 
L 350.712022 286.33947 
L 351.797823 287.861256 
L 352.883624 289.972587 
L 353.969425 288.632907 
L 355.055227 287.956258 
L 356.141028 290.358002 
L 357.226829 254.589634 
L 358.31263 252.867387 
L 359.398431 278.123396 
L 360.484232 285.183562 
L 361.570033 279.823906 
L 362.655835 277.832529 
L 363.741636 281.101228 
L 364.827437 280.584499 
L 365.913238 283.147584 
L 366.999039 284.504217 
L 368.08484 286.181703 
L 369.170642 277.005021 
L 370.256443 289.246527 
L 371.342244 286.045571 
L 372.428045 288.136536 
L 373.513846 282.21725 
L 374.599647 275.432699 
L 375.685448 290.097264 
L 376.77125 283.78248 
L 377.857051 282.104116 
L 378.942852 287.159694 
L 380.028653 291.092821 
L 381.114454 289.289668 
L 382.200255 284.425943 
L 383.286057 288.047039 
L 386.54346 289.920177 
L 387.629261 288.17087 
L 388.715062 288.39374 
L 389.800863 284.160308 
L 390.886665 287.505374 
L 391.972466 288.156104 
L 393.058267 287.590427 
L 394.144068 291.752606 
L 395.229869 290.77018 
L 396.31567 288.366138 
L 397.401472 286.491254 
L 398.487273 287.156655 
L 398.487273 287.156655 
" clip-path="url(#pb3a2590366)" style="fill: none; stroke: #1f77b4; stroke-width: 1.5; stroke-linecap: square"/>
   </g>
   <g id="patch_3">
    <path d="M 57.6 307.584 
L 57.6 41.472 
" style="fill: none; stroke: #000000; stroke-width: 0.8; stroke-linejoin: miter; stroke-linecap: square"/>
   </g>
   <g id="patch_4">
    <path d="M 414.72 307.584 
L 414.72 41.472 
" style="fill: none; stroke: #000000; stroke-width: 0.8; stroke-linejoin: miter; stroke-linecap: square"/>
   </g>
   <g id="patch_5">
    <path d="M 57.6 307.584 
L 414.72 307.584 
" style="fill: none; stroke: #000000; stroke-width: 0.8; stroke-linejoin: miter; stroke-linecap: square"/>
   </g>
   <g id="patch_6">
    <path d="M 57.6 41.472 
L 414.72 41.472 
" style="fill: none; stroke: #000000; stroke-width: 0.8; stroke-linejoin: miter; stroke-linecap: square"/>
   </g>
   <g id="text_13">
    <!-- ice3 -->
    <g transform="translate(223.684687 35.472) scale(0.12 -0.12)">
     <defs>
      <path id="DejaVuSans-69" d="M 603 3500 
L 1178 3500 
L 1178 0 
L 603 0 
L 603 3500 
z
M 603 4863 
L 1178 4863 
L 1178 4134 
L 603 4134 
L 603 4863 
z
" transform="scale(0.015625)"/>
      <path id="DejaVuSans-63" d="M 3122 3366 
L 3122 2828 
Q 2878 2963 2633 3030 
Q 2388 3097 2138 3097 
Q 1578 3097 1268 2742 
Q 959 2388 959 1747 
Q 959 1106 1268 751 
Q 1578 397 2138 397 
Q 2388 397 2633 464 
Q 2878 531 3122 666 
L 3122 134 
Q 2881 22 2623 -34 
Q 2366 -91 2075 -91 
Q 1284 -91 818 406 
Q 353 903 353 1747 
Q 353 2603 823 3093 
Q 1294 3584 2113 3584 
Q 2378 3584 2631 3529 
Q 2884 3475 3122 3366 
z
" transform="scale(0.015625)"/>
      <path id="DejaVuSans-65" d="M 3597 1894 
L 3597 1613 
L 953 1613 
Q 991 1019 1311 708 
Q 1631 397 2203 397 
Q 2534 397 2845 478 
Q 3156 559 3463 722 
L 3463 178 
Q 3153 47 2828 -22 
Q 2503 -91 2169 -91 
Q 1331 -91 842 396 
Q 353 884 353 1716 
Q 353 2575 817 3079 
Q 1281 3584 2069 3584 
Q 2775 3584 3186 3129 
Q 3597 2675 3597 1894 
z
M 3022 2063 
Q 3016 2534 2758 2815 
Q 2500 3097 2075 3097 
Q 1594 3097 1305 2825 
Q 1016 2553 972 2059 
L 3022 2063 
z
" transform="scale(0.015625)"/>
     </defs>
     <use xlink:href="#DejaVuSans-69"/>
     <use xlink:href="#DejaVuSans-63" transform="translate(27.783203 0)"/>
     <use xlink:href="#DejaVuSans-65" transform="translate(82.763672 0)"/>
     <use xlink:href="#DejaVuSans-33" transform="translate(144.287109 0)"/>
    </g>
   </g>
   <g id="legend_1">
    <g id="patch_7">
     <path d="M 313.735625 64.150125 
L 407.72 64.150125 
Q 409.72 64.150125 409.72 62.150125 
L 409.72 48.472 
Q 409.72 46.472 407.72 46.472 
L 313.735625 46.472 
Q 311.735625 46.472 311.735625 48.472 
L 311.735625 62.150125 
Q 311.735625 64.150125 313.735625 64.150125 
z
" style="fill: #ffffff; opacity: 0.8; stroke: #cccccc; stroke-linejoin: miter"/>
    </g>
    <g id="line2d_14">
     <path d="M 315.735625 54.570438 
L 325.735625 54.570438 
L 335.735625 54.570438 
" style="fill: none; stroke: #1f77b4; stroke-width: 1.5; stroke-linecap: square"/>
    </g>
    <g id="text_14">
     <!-- transfer loss -->
     <g transform="translate(343.735625 58.070438) scale(0.1 -0.1)">
      <defs>
       <path id="DejaVuSans-74" d="M 1172 4494 
L 1172 3500 
L 2356 3500 
L 2356 3053 
L 1172 3053 
L 1172 1153 
Q 1172 725 1289 603 
Q 1406 481 1766 481 
L 2356 481 
L 2356 0 
L 1766 0 
Q 1100 0 847 248 
Q 594 497 594 1153 
L 594 3053 
L 172 3053 
L 172 3500 
L 594 3500 
L 594 4494 
L 1172 4494 
z
" transform="scale(0.015625)"/>
       <path id="DejaVuSans-72" d="M 2631 2963 
Q 2534 3019 2420 3045 
Q 2306 3072 2169 3072 
Q 1681 3072 1420 2755 
Q 1159 2438 1159 1844 
L 1159 0 
L 581 0 
L 581 3500 
L 1159 3500 
L 1159 2956 
Q 1341 3275 1631 3429 
Q 1922 3584 2338 3584 
Q 2397 3584 2469 3576 
Q 2541 3569 2628 3553 
L 2631 2963 
z
" transform="scale(0.015625)"/>
       <path id="DejaVuSans-61" d="M 2194 1759 
Q 1497 1759 1228 1600 
Q 959 1441 959 1056 
Q 959 750 1161 570 
Q 1363 391 1709 391 
Q 2188 391 2477 730 
Q 2766 1069 2766 1631 
L 2766 1759 
L 2194 1759 
z
M 3341 1997 
L 3341 0 
L 2766 0 
L 2766 531 
Q 2569 213 2275 61 
Q 1981 -91 1556 -91 
Q 1019 -91 701 211 
Q 384 513 384 1019 
Q 384 1609 779 1909 
Q 1175 2209 1959 2209 
L 2766 2209 
L 2766 2266 
Q 2766 2663 2505 2880 
Q 2244 3097 1772 3097 
Q 1472 3097 1187 3025 
Q 903 2953 641 2809 
L 641 3341 
Q 956 3463 1253 3523 
Q 1550 3584 1831 3584 
Q 2591 3584 2966 3190 
Q 3341 2797 3341 1997 
z
" transform="scale(0.015625)"/>
       <path id="DejaVuSans-6e" d="M 3513 2113 
L 3513 0 
L 2938 0 
L 2938 2094 
Q 2938 2591 2744 2837 
Q 2550 3084 2163 3084 
Q 1697 3084 1428 2787 
Q 1159 2491 1159 1978 
L 1159 0 
L 581 0 
L 581 3500 
L 1159 3500 
L 1159 2956 
Q 1366 3272 1645 3428 
Q 1925 3584 2291 3584 
Q 2894 3584 3203 3211 
Q 3513 2838 3513 2113 
z
" transform="scale(0.015625)"/>
       <path id="DejaVuSans-73" d="M 2834 3397 
L 2834 2853 
Q 2591 2978 2328 3040 
Q 2066 3103 1784 3103 
Q 1356 3103 1142 2972 
Q 928 2841 928 2578 
Q 928 2378 1081 2264 
Q 1234 2150 1697 2047 
L 1894 2003 
Q 2506 1872 2764 1633 
Q 3022 1394 3022 966 
Q 3022 478 2636 193 
Q 2250 -91 1575 -91 
Q 1294 -91 989 -36 
Q 684 19 347 128 
L 347 722 
Q 666 556 975 473 
Q 1284 391 1588 391 
Q 1994 391 2212 530 
Q 2431 669 2431 922 
Q 2431 1156 2273 1281 
Q 2116 1406 1581 1522 
L 1381 1569 
Q 847 1681 609 1914 
Q 372 2147 372 2553 
Q 372 3047 722 3315 
Q 1072 3584 1716 3584 
Q 2034 3584 2315 3537 
Q 2597 3491 2834 3397 
z
" transform="scale(0.015625)"/>
       <path id="DejaVuSans-66" d="M 2375 4863 
L 2375 4384 
L 1825 4384 
Q 1516 4384 1395 4259 
Q 1275 4134 1275 3809 
L 1275 3500 
L 2222 3500 
L 2222 3053 
L 1275 3053 
L 1275 0 
L 697 0 
L 697 3053 
L 147 3053 
L 147 3500 
L 697 3500 
L 697 3744 
Q 697 4328 969 4595 
Q 1241 4863 1831 4863 
L 2375 4863 
z
" transform="scale(0.015625)"/>
       <path id="DejaVuSans-20" transform="scale(0.015625)"/>
       <path id="DejaVuSans-6c" d="M 603 4863 
L 1178 4863 
L 1178 0 
L 603 0 
L 603 4863 
z
" transform="scale(0.015625)"/>
       <path id="DejaVuSans-6f" d="M 1959 3097 
Q 1497 3097 1228 2736 
Q 959 2375 959 1747 
Q 959 1119 1226 758 
Q 1494 397 1959 397 
Q 2419 397 2687 759 
Q 2956 1122 2956 1747 
Q 2956 2369 2687 2733 
Q 2419 3097 1959 3097 
z
M 1959 3584 
Q 2709 3584 3137 3096 
Q 3566 2609 3566 1747 
Q 3566 888 3137 398 
Q 2709 -91 1959 -91 
Q 1206 -91 779 398 
Q 353 888 353 1747 
Q 353 2609 779 3096 
Q 1206 3584 1959 3584 
z
" transform="scale(0.015625)"/>
      </defs>
      <use xlink:href="#DejaVuSans-74"/>
      <use xlink:href="#DejaVuSans-72" transform="translate(39.208984 0)"/>
      <use xlink:href="#DejaVuSans-61" transform="translate(80.322266 0)"/>
      <use xlink:href="#DejaVuSans-6e" transform="translate(141.601562 0)"/>
      <use xlink:href="#DejaVuSans-73" transform="translate(204.980469 0)"/>
      <use xlink:href="#DejaVuSans-66" transform="translate(257.080078 0)"/>
      <use xlink:href="#DejaVuSans-65" transform="translate(292.285156 0)"/>
      <use xlink:href="#DejaVuSans-72" transform="translate(353.808594 0)"/>
      <use xlink:href="#DejaVuSans-20" transform="translate(394.921875 0)"/>
      <use xlink:href="#DejaVuSans-6c" transform="translate(426.708984 0)"/>
      <use xlink:href="#DejaVuSans-6f" transform="translate(454.492188 0)"/>
      <use xlink:href="#DejaVuSans-73" transform="translate(515.673828 0)"/>
      <use xlink:href="#DejaVuSans-73" transform="translate(567.773438 0)"/>
     </g>
    </g>
   </g>
  </g>
 </g>
 <defs>
  <clipPath id="pb3a2590366">
   <rect x="57.6" y="41.472" width="357.12" height="266.112"/>
  </clipPath>
 </defs>
</svg>
