<?xml version="1.0" encoding="utf-8" standalone="no"?>
<!DOCTYPE svg PUBLIC "-//W3C//DTD SVG 1.1//EN"
  "http://www.w3.org/Graphics/SVG/1.1/DTD/svg11.dtd">
<svg xmlns:xlink="http://www.w3.org/1999/xlink" width="460.8pt" height="345.6pt" viewBox="0 0 460.8 345.6" xmlns="http://www.w3.org/2000/svg" version="1.1">
 <metadata>
  <rdf:RDF xmlns:dc="http://purl.org/dc/elements/1.1/" xmlns:cc="http://creativecommons.org/ns#" xmlns:rdf="http://www.w3.org/1999/02/22-rdf-syntax-ns#">
   <cc:Work>
    <dc:type rdf:resource="http://purl.org/dc/dcmitype/StillImage"/>
    <dc:date>2026-03-20T02:53:00.599910</dc:date>
    <dc:format>image/svg+xml</dc:format>
    <dc:creator>
     <cc:Agent>
      <dc:title>Matplotlib v3.10.8, https://matplotlib.org/</dc:title>
     </cc:Agent>
    </dc:creator>
   </cc:Work>
  </rdf:RDF>
 </metadata>
 <defs>
  <style type="text/css">*{stroke-linejoin: round; stroke-linecap: butt}</style>
 </defs>
 <g id="figure_1">
  <g id="patch_1">
   <path d="M 0 345.6 
L 460.8 345.6 
L 460.8 0 
L 0 0 
z
" style="fill: #ffffff"/>
  </g>
  <g id="axes_1">
   <g id="patch_2">
    <path d="M 57.6 307.584 
L 414.72 307.584 
L 414.72 41.472 
L 57.6 41.472 
z
" style="fill: #ffffff"/>
   </g>
   <g id="matplotlib.axis_1">
    <g id="xtick_1">
     <g id="line2d_1">
      <defs>
       <path id="m9ff01f3133" d="M 0 0 
L 0 3.5 
" style="stroke: #000000; stroke-width: 0.8"/>
      </defs>
      <g>
       <use xlink:href="#m9ff01f3133" x="73.832727" y="307.584" style="stroke: #000000; stroke-width: 0.8"/>
      </g>
     </g>
     <g id="text_1">
      <!-- 0 -->
      <g transform="translate(70.651477 322.182437) scale(0.1 -0.1)">
       <defs>
        <path id="DejaVuSans-30" d="M 2034 4250 
Q 1547 4250 1301 3770 
Q 1056 3291 1056 2328 
Q 1056 1369 1301 889 
Q 1547 409 2034 409 
Q 2525 409 2770 889 
Q 3016 1369 3016 2328 
Q 3016 3291 2770 3770 
Q 2525 4250 2034 4250 
z
M 2034 4750 
Q 2819 4750 3233 4129 
Q 3647 3509 3647 2328 
Q 3647 1150 3233 529 
Q 2819 -91 2034 -91 
Q 1250 -91 836 529 
Q 422 1150 422 2328 
Q 422 3509 836 4129 
Q 1250 4750 2034 4750 
z
" transform="scale(0.015625)"/>
       </defs>
       <use xlink:href="#DejaVuSans-30"/>
      </g>
     </g>
    </g>
    <g id="xtick_2">
     <g id="line2d_2">
      <g>
       <use xlink:href="#m9ff01f3133" x="138.763636" y="307.584" style="stroke: #000000; stroke-width: 0.8"/>
      </g>
     </g>
     <g id="text_2">
      <!-- 100 -->
      <g transform="translate(129.219886 322.182437) scale(0.1 -0.1)">
       <defs>
        <path id="DejaVuSans-31" d="M 794 531 
L 1825 531 
L 1825 4091 
L 703 3866 
L 703 4441 
L 1819 4666 
L 2450 4666 
L 2450 531 
L 3481 531 
L 3481 0 
L 794 0 
L 794 531 
z
" transform="scale(0.015625)"/>
       </defs>
       <use xlink:href="#DejaVuSans-31"/>
       <use xlink:href="#DejaVuSans-30" transform="translate(63.623047 0)"/>
       <use xlink:href="#DejaVuSans-30" transform="translate(127.246094 0)"/>
      </g>
     </g>
    </g>
    <g id="xtick_3">
     <g id="line2d_3">
      <g>
       <use xlink:href="#m9ff01f3133" x="203.694545" y="307.584" style="stroke: #000000; stroke-width: 0.8"/>
      </g>
     </g>
     <g id="text_3">
      <!-- 200 -->
      <g transform="translate(194.150795 322.182437) scale(0.1 -0.1)">
       <defs>
        <path id="DejaVuSans-32" d="M 1228 531 
L 3431 531 
L 3431 0 
L 469 0 
L 469 531 
Q 828 903 1448 1529 
Q 2069 2156 2228 2338 
Q 2531 2678 2651 2914 
Q 2772 3150 2772 3378 
Q 2772 3750 2511 3984 
Q 2250 4219 1831 4219 
Q 1534 4219 1204 4116 
Q 875 4013 500 3803 
L 500 4441 
Q 881 4594 1212 4672 
Q 1544 4750 1819 4750 
Q 2544 4750 2975 4387 
Q 3406 4025 3406 3419 
Q 3406 3131 3298 2873 
Q 3191 2616 2906 2266 
Q 2828 2175 2409 1742 
Q 1991 1309 1228 531 
z
" transform="scale(0.015625)"/>
       </defs>
       <use xlink:href="#DejaVuSans-32"/>
       <use xlink:href="#DejaVuSans-30" transform="translate(63.623047 0)"/>
       <use xlink:href="#DejaVuSans-30" transform="translate(127.246094 0)"/>
      </g>
     </g>
    </g>
    <g id="xtick_4">
     <g id="line2d_4">
      <g>
       <use xlink:href="#m9ff01f3133" x="268.625455" y="307.584" style="stroke: #000000; stroke-width: 0.8"/>
      </g>
     </g>
     <g id="text_4">
      <!-- 300 -->
      <g transform="translate(259.081705 322.182437) scale(0.1 -0.1)">
       <defs>
        <path id="DejaVuSans-33" d="M 2597 2516 
Q 3050 2419 3304 2112 
Q 3559 1806 3559 1356 
Q 3559 666 3084 287 
Q 2609 -91 1734 -91 
Q 1441 -91 1130 -33 
Q 819 25 488 141 
L 488 750 
Q 750 597 1062 519 
Q 1375 441 1716 441 
Q 2309 441 2620 675 
Q 2931 909 2931 1356 
Q 2931 1769 2642 2001 
Q 2353 2234 1838 2234 
L 1294 2234 
L 1294 2753 
L 1863 2753 
Q 2328 2753 2575 2939 
Q 2822 3125 2822 3475 
Q 2822 3834 2567 4026 
Q 2313 4219 1838 4219 
Q 1578 4219 1281 4162 
Q 984 4106 628 3988 
L 628 4550 
Q 988 4650 1302 4700 
Q 1616 4750 1894 4750 
Q 2613 4750 3031 4423 
Q 3450 4097 3450 3541 
Q 3450 3153 3228 2886 
Q 3006 2619 2597 2516 
z
" transform="scale(0.015625)"/>
       </defs>
       <use xlink:href="#DejaVuSans-33"/>
       <use xlink:href="#DejaVuSans-30" transform="translate(63.623047 0)"/>
       <use xlink:href="#DejaVuSans-30" transform="translate(127.246094 0)"/>
      </g>
     </g>
    </g>
    <g id="xtick_5">
     <g id="line2d_5">
      <g>
       <use xlink:href="#m9ff01f3133" x="333.556364" y="307.584" style="stroke: #000000; stroke-width: 0.8"/>
      </g>
     </g>
     <g id="text_5">
      <!-- 400 -->
      <g transform="translate(324.012614 322.182437) scale(0.1 -0.1)">
       <defs>
        <path id="DejaVuSans-34" d="M 2419 4116 
L 825 1625 
L 2419 1625 
L 2419 4116 
z
M 2253 4666 
L 3047 4666 
L 3047 1625 
L 3713 1625 
L 3713 1100 
L 3047 1100 
L 3047 0 
L 2419 0 
L 2419 1100 
L 313 1100 
L 313 1709 
L 2253 4666 
z
" transform="scale(0.015625)"/>
       </defs>
       <use xlink:href="#DejaVuSans-34"/>
       <use xlink:href="#DejaVuSans-30" transform="translate(63.623047 0)"/>
       <use xlink:href="#DejaVuSans-30" transform="translate(127.246094 0)"/>
      </g>
     </g>
    </g>
    <g id="xtick_6">
     <g id="line2d_6">
      <g>
       <use xlink:href="#m9ff01f3133" x="398.487273" y="307.584" style="stroke: #000000; stroke-width: 0.8"/>
      </g>
     </g>
     <g id="text_6">
      <!-- 500 -->
      <g transform="translate(388.943523 322.182437) scale(0.1 -0.1)">
       <defs>
        <path id="DejaVuSans-35" d="M 691 4666 
L 3169 4666 
L 3169 4134 
L 1269 4134 
L 1269 2991 
Q 1406 3038 1543 3061 
Q 1681 3084 1819 3084 
Q 2600 3084 3056 2656 
Q 3513 2228 3513 1497 
Q 3513 744 3044 326 
Q 2575 -91 1722 -91 
Q 1428 -91 1123 -41 
Q 819 9 494 109 
L 494 744 
Q 775 591 1075 516 
Q 1375 441 1709 441 
Q 2250 441 2565 725 
Q 2881 1009 2881 1497 
Q 2881 1984 2565 2268 
Q 2250 2553 1709 2553 
Q 1456 2553 1204 2497 
Q 953 2441 691 2322 
L 691 4666 
z
" transform="scale(0.015625)"/>
       </defs>
       <use xlink:href="#DejaVuSans-35"/>
       <use xlink:href="#DejaVuSans-30" transform="translate(63.623047 0)"/>
       <use xlink:href="#DejaVuSans-30" transform="translate(127.246094 0)"/>
      </g>
     </g>
    </g>
   </g>
   <g id="matplotlib.axis_2">
    <g id="ytick_1">
     <g id="line2d_7">
      <defs>
       <path id="m490d75631f" d="M 0 0 
L -3.5 0 
" style="stroke: #000000; stroke-width: 0.8"/>
      </defs>
      <g>
       <use xlink:href="#m490d75631f" x="57.6" y="295.488" style="stroke: #000000; stroke-width: 0.8"/>
      </g>
     </g>
     <g id="text_7">
      <!-- 0.0 -->
      <g transform="translate(34.696875 299.287219) scale(0.1 -0.1)">
       <defs>
        <path id="DejaVuSans-2e" d="M 684 794 
L 1344 794 
L 1344 0 
L 684 0 
L 684 794 
z
" transform="scale(0.015625)"/>
       </defs>
       <use xlink:href="#DejaVuSans-30"/>
       <use xlink:href="#DejaVuSans-2e" transform="translate(63.623047 0)"/>
       <use xlink:href="#DejaVuSans-30" transform="translate(95.410156 0)"/>
      </g>
     </g>
    </g>
    <g id="ytick_2">
     <g id="line2d_8">
      <g>
       <use xlink:href="#m490d75631f" x="57.6" y="247.104" style="stroke: #000000; stroke-width: 0.8"/>
      </g>
     </g>
     <g id="text_8">
      <!-- 0.2 -->
      <g transform="translate(34.696875 250.903219) scale(0.1 -0.1)">
       <use xlink:href="#DejaVuSans-30"/>
       <use xlink:href="#DejaVuSans-2e" transform="translate(63.623047 0)"/>
       <use xlink:href="#DejaVuSans-32" transform="translate(95.410156 0)"/>
      </g>
     </g>
    </g>
    <g id="ytick_3">
     <g id="line2d_9">
      <g>
       <use xlink:href="#m490d75631f" x="57.6" y="198.72" style="stroke: #000000; stroke-width: 0.8"/>
      </g>
     </g>
     <g id="text_9">
      <!-- 0.4 -->
      <g transform="translate(34.696875 202.519219) scale(0.1 -0.1)">
       <use xlink:href="#DejaVuSans-30"/>
       <use xlink:href="#DejaVuSans-2e" transform="translate(63.623047 0)"/>
       <use xlink:href="#DejaVuSans-34" transform="translate(95.410156 0)"/>
      </g>
     </g>
    </g>
    <g id="ytick_4">
     <g id="line2d_10">
      <g>
       <use xlink:href="#m490d75631f" x="57.6" y="150.336" style="stroke: #000000; stroke-width: 0.8"/>
      </g>
     </g>
     <g id="text_10">
      <!-- 0.6 -->
      <g transform="translate(34.696875 154.135219) scale(0.1 -0.1)">
       <defs>
        <path id="DejaVuSans-36" d="M 2113 2584 
Q 1688 2584 1439 2293 
Q 1191 2003 1191 1497 
Q 1191 994 1439 701 
Q 1688 409 2113 409 
Q 2538 409 2786 701 
Q 3034 994 3034 1497 
Q 3034 2003 2786 2293 
Q 2538 2584 2113 2584 
z
M 3366 4563 
L 3366 3988 
Q 3128 4100 2886 4159 
Q 2644 4219 2406 4219 
Q 1781 4219 1451 3797 
Q 1122 3375 1075 2522 
Q 1259 2794 1537 2939 
Q 1816 3084 2150 3084 
Q 2853 3084 3261 2657 
Q 3669 2231 3669 1497 
Q 3669 778 3244 343 
Q 2819 -91 2113 -91 
Q 1303 -91 875 529 
Q 447 1150 447 2328 
Q 447 3434 972 4092 
Q 1497 4750 2381 4750 
Q 2619 4750 2861 4703 
Q 3103 4656 3366 4563 
z
" transform="scale(0.015625)"/>
       </defs>
       <use xlink:href="#DejaVuSans-30"/>
       <use xlink:href="#DejaVuSans-2e" transform="translate(63.623047 0)"/>
       <use xlink:href="#DejaVuSans-36" transform="translate(95.410156 0)"/>
      </g>
     </g>
    </g>
    <g id="ytick_5">
     <g id="line2d_11">
      <g>
       <use xlink:href="#m490d75631f" x="57.6" y="101.952" style="stroke: #000000; stroke-width: 0.8"/>
      </g>
     </g>
     <g id="text_11">
      <!-- 0.8 -->
      <g transform="translate(34.696875 105.751219) scale(0.1 -0.1)">
       <defs>
        <path id="DejaVuSans-38" d="M 2034 2216 
Q 1584 2216 1326 1975 
Q 1069 1734 1069 1313 
Q 1069 891 1326 650 
Q 1584 409 2034 409 
Q 2484 409 2743 651 
Q 3003 894 3003 1313 
Q 3003 1734 2745 1975 
Q 2488 2216 2034 2216 
z
M 1403 2484 
Q 997 2584 770 2862 
Q 544 3141 544 3541 
Q 544 4100 942 4425 
Q 1341 4750 2034 4750 
Q 2731 4750 3128 4425 
Q 3525 4100 3525 3541 
Q 3525 3141 3298 2862 
Q 3072 2584 2669 2484 
Q 3125 2378 3379 2068 
Q 3634 1759 3634 1313 
Q 3634 634 3220 271 
Q 2806 -91 2034 -91 
Q 1263 -91 848 271 
Q 434 634 434 1313 
Q 434 1759 690 2068 
Q 947 2378 1403 2484 
z
M 1172 3481 
Q 1172 3119 1398 2916 
Q 1625 2713 2034 2713 
Q 2441 2713 2670 2916 
Q 2900 3119 2900 3481 
Q 2900 3844 2670 4047 
Q 2441 4250 2034 4250 
Q 1625 4250 1398 4047 
Q 1172 3844 1172 3481 
z
" transform="scale(0.015625)"/>
       </defs>
       <use xlink:href="#DejaVuSans-30"/>
       <use xlink:href="#DejaVuSans-2e" transform="translate(63.623047 0)"/>
       <use xlink:href="#DejaVuSans-38" transform="translate(95.410156 0)"/>
      </g>
     </g>
    </g>
    <g id="ytick_6">
     <g id="line2d_12">
      <g>
       <use xlink:href="#m490d75631f" x="57.6" y="53.568" style="stroke: #000000; stroke-width: 0.8"/>
      </g>
     </g>
     <g id="text_12">
      <!-- 1.0 -->
      <g transform="translate(34.696875 57.367219) scale(0.1 -0.1)">
       <use xlink:href="#DejaVuSans-31"/>
       <use xlink:href="#DejaVuSans-2e" transform="translate(63.623047 0)"/>
       <use xlink:href="#DejaVuSans-30" transform="translate(95.410156 0)"/>
      </g>
     </g>
    </g>
   </g>
   <g id="line2d_13">
    <path d="M 73.832727 178.16423 
L 74.482036 174.614568 
L 75.131345 177.620021 
L 75.780655 174.725894 
L 76.429964 176.605851 
L 77.079273 175.78956 
L 77.728582 176.148217 
L 78.377891 177.187139 
L 79.0272 176.80373 
L 80.325818 178.51053 
L 80.975127 178.918668 
L 81.624436 178.41159 
L 82.273745 178.992878 
L 83.572364 179.710237 
L 84.221673 179.673128 
L 84.870982 179.499978 
L 85.520291 179.561816 
L 86.1696 178.893931 
L 86.818909 178.968149 
L 87.468218 179.450512 
L 88.117527 179.339193 
L 88.766836 180.761516 
L 89.416145 179.524715 
L 90.065455 179.710222 
L 90.714764 179.512343 
L 91.364073 179.85865 
L 92.013382 179.821556 
L 93.312 180.613103 
L 93.961309 179.821541 
L 94.610618 179.846285 
L 95.259927 180.044172 
L 95.909236 179.895759 
L 96.558545 180.044172 
L 97.207855 180.402844 
L 97.857164 180.353378 
L 98.506473 180.749144 
L 99.805091 180.303904 
L 100.4544 180.167856 
L 101.753018 180.439953 
L 102.402327 179.648391 
L 103.051636 180.5389 
L 103.700945 180.217322 
L 104.350255 180.415216 
L 104.999564 180.130754 
L 105.648873 180.353364 
L 106.298182 180.007078 
L 106.947491 180.044179 
L 107.5968 180.402844 
L 108.246109 179.586553 
L 108.895418 180.501791 
L 109.544727 180.204957 
L 110.194036 180.167841 
L 110.843345 179.920488 
L 111.492655 180.823369 
L 112.141964 180.390479 
L 113.440582 180.303904 
L 114.089891 179.61129 
L 115.388509 180.674941 
L 116.037818 180.501791 
L 116.687127 180.180228 
L 118.635055 181.021241 
L 119.933673 180.551272 
L 120.582982 180.328641 
L 121.232291 180.810997 
L 121.8816 180.551272 
L 122.530909 180.835726 
L 124.478836 180.575994 
L 126.426764 180.5389 
L 127.725382 180.835726 
L 128.374691 180.600738 
L 129.024 180.600731 
L 129.673309 180.378107 
L 130.322618 180.625475 
L 130.971927 180.341006 
L 131.621236 180.625475 
L 134.867782 180.501791 
L 136.815709 180.514163 
L 137.465018 180.341006 
L 138.114327 180.402844 
L 138.763636 180.637847 
L 139.412945 180.291532 
L 140.062255 180.477054 
L 140.711564 180.439953 
L 142.010182 180.724422 
L 143.3088 180.415216 
L 143.958109 180.588366 
L 145.906036 180.501791 
L 146.555345 180.650204 
L 147.204655 180.514163 
L 147.853964 180.749151 
L 149.801891 180.489419 
L 150.4512 180.341006 
L 151.100509 180.736794 
L 151.749818 180.588373 
L 153.048436 180.576001 
L 153.697745 180.378107 
L 155.645673 180.439953 
L 156.294982 180.600731 
L 156.944291 180.514163 
L 157.5936 180.724422 
L 158.242909 180.600738 
L 160.190836 180.736794 
L 160.840145 180.551257 
L 161.489455 180.8852 
L 162.788073 180.514156 
L 164.086691 180.613103 
L 164.736 180.835726 
L 165.385309 180.588359 
L 166.034618 180.71205 
L 166.683927 180.674948 
L 167.333236 180.439953 
L 168.631855 180.724422 
L 169.281164 180.514163 
L 169.930473 180.90993 
L 170.579782 180.5389 
L 171.229091 180.650204 
L 171.8784 180.192585 
L 172.527709 179.883387 
L 173.177018 180.378107 
L 173.826327 180.056544 
L 174.475636 180.439953 
L 175.124945 180.328641 
L 175.774255 180.848098 
L 176.423564 180.439953 
L 177.072873 180.353378 
L 177.722182 180.526528 
L 178.371491 180.031807 
L 179.0208 180.439953 
L 179.670109 179.945225 
L 180.319418 180.588366 
L 180.968727 179.982334 
L 181.618036 180.415209 
L 182.267345 180.217322 
L 182.916655 180.45231 
L 183.565964 180.180213 
L 184.215273 180.254438 
L 185.513891 180.588366 
L 186.1632 180.45231 
L 186.812509 180.625475 
L 187.461818 180.5389 
L 188.111127 180.328641 
L 188.760436 180.36575 
L 189.409745 180.588366 
L 191.357673 180.341013 
L 192.006982 180.390479 
L 192.656291 180.266803 
L 193.3056 180.402851 
L 193.954909 180.019435 
L 194.604218 180.242059 
L 195.902836 180.068909 
L 197.201455 180.551257 
L 197.850764 180.303904 
L 199.798691 180.402844 
L 200.448 180.106003 
L 201.097309 180.056544 
L 201.746618 180.279175 
L 202.395927 180.229694 
L 204.993164 180.489419 
L 205.642473 180.118382 
L 206.291782 179.945225 
L 206.941091 180.204957 
L 207.5904 180.217322 
L 208.239709 180.068909 
L 208.889018 180.477054 
L 209.538327 180.489419 
L 210.187636 180.27916 
L 210.836945 180.217329 
L 211.486255 180.489426 
L 212.135564 179.994706 
L 213.434182 180.415216 
L 214.083491 180.254431 
L 214.7328 180.477054 
L 215.382109 180.1926 
L 217.330036 180.390479 
L 218.628655 180.452332 
L 219.277964 180.10601 
L 219.927273 180.180213 
L 220.576582 180.501791 
L 221.225891 180.180213 
L 221.8752 180.36575 
L 223.173818 180.27916 
L 223.823127 180.662576 
L 224.472436 180.081266 
L 225.121745 180.279175 
L 225.771055 180.341006 
L 226.420364 180.093638 
L 228.368291 180.328641 
L 229.0176 180.093638 
L 229.666909 180.415216 
L 230.965527 179.957597 
L 231.614836 180.155491 
L 232.264145 180.081288 
L 232.913455 180.279175 
L 233.562764 180.044172 
L 234.212073 180.204957 
L 235.510691 180.081281 
L 236.16 180.452325 
L 236.809309 180.155491 
L 238.107927 180.155484 
L 238.757236 180.007063 
L 239.406545 180.378107 
L 240.055855 179.957597 
L 242.653091 180.279175 
L 243.951709 179.759703 
L 244.601018 180.093638 
L 245.250327 180.118382 
L 245.899636 179.945232 
L 246.548945 180.068916 
L 247.198255 179.969969 
L 248.496873 180.217329 
L 249.146182 180.167856 
L 249.795491 180.353378 
L 250.4448 179.833913 
L 251.094109 179.858643 
L 251.743418 180.155484 
L 252.392727 179.747331 
L 253.042036 180.007063 
L 254.340655 179.895759 
L 254.989964 180.217322 
L 256.288582 180.118375 
L 256.937891 179.908116 
L 257.5872 180.044172 
L 258.236509 180.365735 
L 258.885818 179.908116 
L 259.535127 180.180228 
L 260.184436 180.192585 
L 260.833745 179.93286 
L 261.483055 180.093638 
L 262.132364 179.982319 
L 262.781673 180.056544 
L 263.430982 179.908116 
L 264.080291 179.920488 
L 264.7296 180.068909 
L 266.677527 179.969969 
L 267.326836 180.180228 
L 267.976145 180.242066 
L 268.625455 179.994706 
L 269.274764 180.353364 
L 269.924073 180.341006 
L 270.573382 179.809169 
L 271.872 179.326828 
L 272.521309 178.844472 
L 273.170618 179.203144 
L 273.819927 178.75789 
L 274.469236 178.028167 
L 275.118545 176.519261 
L 275.767855 175.406129 
L 276.417164 176.061642 
L 277.715782 172.944891 
L 278.365091 172.920147 
L 279.0144 170.891777 
L 279.663709 169.729172 
L 280.313018 171.324667 
L 281.611636 165.425093 
L 282.260945 165.820852 
L 282.910255 163.038037 
L 283.559564 162.5062 
L 284.208873 163.619332 
L 284.858182 155.963471 
L 285.507491 154.590628 
L 286.806109 156.025316 
L 287.455418 150.71941 
L 288.104727 154.28143 
L 288.754036 151.387281 
L 289.403345 149.804158 
L 290.052655 145.079562 
L 290.701964 145.524809 
L 291.351273 145.450606 
L 292.000582 142.173069 
L 292.649891 137.770015 
L 293.948509 136.384786 
L 294.597818 134.368773 
L 295.247127 137.126859 
L 295.896436 137.398985 
L 296.545745 128.432084 
L 297.195055 133.404076 
L 297.844364 132.513568 
L 298.493673 127.380826 
L 299.142982 117.399754 
L 299.792291 126.366626 
L 300.4416 125.859534 
L 301.090909 125.89665 
L 301.740218 119.242602 
L 302.389527 121.679117 
L 303.038836 115.099287 
L 303.688145 122.087263 
L 304.337455 116.966864 
L 304.986764 117.498715 
L 305.636073 112.897781 
L 306.285382 116.867932 
L 306.934691 113.714058 
L 308.233309 102.817776 
L 308.882618 103.287767 
L 309.531927 99.762835 
L 310.181236 97.672633 
L 310.830545 98.080779 
L 311.479855 103.609323 
L 312.129164 93.727227 
L 312.778473 99.874168 
L 313.427782 98.253958 
L 314.7264 93.702483 
L 315.375709 90.375473 
L 316.025018 93.615893 
L 316.674327 94.456943 
L 317.323636 88.90364 
L 317.972945 88.544983 
L 318.622255 88.557355 
L 319.271564 84.71088 
L 319.920873 83.869845 
L 320.570182 82.558805 
L 321.219491 80.530449 
L 321.8688 81.965166 
L 322.518109 77.908426 
L 323.167418 79.602854 
L 323.816727 75.484268 
L 324.466036 73.047738 
L 325.115345 74.804026 
L 325.764655 77.092121 
L 326.413964 73.344594 
L 327.063273 72.107785 
L 327.712582 74.22273 
L 329.0112 68.174721 
L 329.660509 66.740019 
L 330.309818 68.31077 
L 330.959127 69.139447 
L 331.608436 65.379534 
L 332.257745 63.586174 
L 332.907055 64.699277 
L 333.556364 66.344245 
L 334.205673 63.722208 
L 334.854982 64.093252 
L 335.504291 62.46067 
L 336.1536 62.411182 
L 336.802909 62.225674 
L 337.452218 60.828073 
L 338.101527 60.568348 
L 338.750836 60.605435 
L 339.400145 59.752043 
L 340.049455 60.902262 
L 340.698764 60.444672 
L 341.997382 59.108916 
L 342.646691 59.677854 
L 343.296 58.861534 
L 344.594618 58.045258 
L 345.243927 57.748402 
L 345.893236 57.661842 
L 346.542545 57.723702 
L 347.191855 57.538165 
L 348.490473 56.845551 
L 349.139782 56.808435 
L 349.789091 57.117633 
L 350.4384 57.006329 
L 351.087709 57.216595 
L 351.737018 56.746604 
L 352.386327 56.734246 
L 353.035636 56.598183 
L 353.684945 56.28897 
L 354.334255 56.561082 
L 356.931491 56.363188 
L 357.5808 56.165294 
L 358.230109 56.474478 
L 358.879418 56.313714 
L 359.528727 56.276627 
L 360.178036 56.462135 
L 360.827345 56.28897 
L 361.476655 56.264241 
L 362.125964 56.103477 
L 362.775273 56.387932 
L 363.424582 56.091076 
L 364.073891 56.004516 
L 364.7232 56.363202 
L 365.372509 56.078719 
L 366.021818 56.350816 
L 366.671127 64.476668 
L 367.320436 83.189589 
L 367.969745 107.76501 
L 368.619055 118.747867 
L 369.268364 116.298994 
L 369.917673 106.515844 
L 370.566982 112.724631 
L 371.216291 134.579039 
L 371.8656 137.633966 
L 372.514909 127.652908 
L 373.164218 121.518325 
L 373.813527 118.772611 
L 374.462836 121.419392 
L 375.112145 119.440496 
L 375.761455 113.417231 
L 376.410764 114.344855 
L 377.060073 121.938842 
L 377.709382 115.482703 
L 378.358691 114.864277 
L 379.008 110.993073 
L 379.657309 115.012712 
L 380.306618 112.526722 
L 380.955927 111.079648 
L 381.605236 107.01055 
L 382.254545 106.651878 
L 382.903855 104.57402 
L 383.553164 98.130253 
L 384.202473 96.275032 
L 384.851782 100.529667 
L 385.501091 107.591846 
L 386.1504 103.733 
L 386.799709 101.457291 
L 387.449018 100.109149 
L 388.747636 95.434012 
L 389.396945 95.508215 
L 390.046255 97.10371 
L 391.344873 84.41404 
L 391.994182 90.387816 
L 392.643491 93.702468 
L 393.942109 86.590816 
L 394.591418 80.443874 
L 395.240727 84.080111 
L 395.890036 81.977524 
L 396.539345 82.657766 
L 397.188655 83.721425 
L 397.837964 81.482803 
L 398.487273 81.816731 
L 398.487273 81.816731 
" clip-path="url(#p71c7eacb5d)" style="fill: none; stroke: #1f77b4; stroke-width: 1.5; stroke-linecap: square"/>
   </g>
   <g id="line2d_14">
    <path d="M 73.832727 237.721847 
L 74.482036 195.456175 
L 75.131345 208.485167 
L 75.780655 207.397096 
L 76.429964 209.428537 
L 77.079273 207.318769 
L 77.728582 207.874895 
L 80.325818 244.237183 
L 80.975127 258.121787 
L 81.624436 257.556104 
L 82.273745 252.838923 
L 82.923055 262.719715 
L 83.572364 268.860151 
L 84.221673 266.751979 
L 84.870982 275.788351 
L 85.520291 273.027336 
L 86.1696 274.213207 
L 86.818909 274.771848 
L 87.468218 276.321637 
L 88.117527 278.566379 
L 88.766836 283.122805 
L 89.416145 278.883148 
L 90.065455 283.070848 
L 90.714764 281.268508 
L 91.364073 283.857428 
L 92.013382 282.989063 
L 93.312 287.385948 
L 93.961309 283.736077 
L 94.610618 286.277995 
L 95.259927 286.695578 
L 95.909236 286.006484 
L 96.558545 284.634811 
L 97.207855 287.969022 
L 97.857164 288.115926 
L 98.506473 289.051301 
L 99.155782 288.622955 
L 99.805091 287.079287 
L 100.4544 286.701928 
L 101.103709 287.922902 
L 101.753018 289.613741 
L 102.402327 287.353185 
L 103.051636 290.185505 
L 103.700945 289.523122 
L 104.350255 288.47455 
L 104.999564 288.155833 
L 105.648873 290.276151 
L 106.298182 290.320107 
L 106.947491 288.878991 
L 108.246109 288.697251 
L 108.895418 291.324119 
L 109.544727 291.113914 
L 110.843345 290.265446 
L 111.492655 291.468902 
L 112.791273 291.536151 
L 113.440582 291.353336 
L 114.089891 289.249615 
L 114.7392 290.913147 
L 115.388509 290.987641 
L 116.037818 292.429682 
L 116.687127 291.372976 
L 117.336436 292.172214 
L 117.985745 292.004575 
L 118.635055 292.744234 
L 119.284364 292.262789 
L 119.933673 292.197338 
L 120.582982 291.635074 
L 121.232291 292.75848 
L 121.8816 291.658992 
L 122.530909 292.722916 
L 123.829527 292.513417 
L 124.478836 293.263312 
L 125.128145 292.15584 
L 125.777455 292.526517 
L 126.426764 292.709881 
L 127.076073 292.613478 
L 129.024 293.401119 
L 129.673309 292.487671 
L 130.322618 293.159198 
L 130.971927 292.299472 
L 131.621236 292.884281 
L 132.919855 293.170646 
L 133.569164 293.025287 
L 134.218473 293.16028 
L 134.867782 292.755784 
L 135.517091 292.944243 
L 136.815709 293.189095 
L 137.465018 292.683062 
L 138.114327 292.925111 
L 138.763636 293.42939 
L 139.412945 293.10806 
L 140.062255 293.332049 
L 140.711564 293.124349 
L 142.010182 293.817958 
L 142.659491 293.6966 
L 143.3088 293.015437 
L 143.958109 293.51894 
L 144.607418 293.417701 
L 145.256727 293.664772 
L 145.906036 293.286496 
L 146.555345 293.702488 
L 147.204655 293.366722 
L 147.853964 293.972324 
L 148.503273 293.768809 
L 149.152582 293.441243 
L 150.4512 293.176814 
L 151.100509 293.840576 
L 151.749818 293.52074 
L 152.399127 293.333851 
L 153.048436 293.650314 
L 153.697745 293.1967 
L 154.347055 293.234911 
L 154.996364 293.064093 
L 155.645673 293.334492 
L 156.294982 293.933314 
L 156.944291 293.231939 
L 157.5936 293.974592 
L 158.242909 293.768287 
L 158.892218 293.716945 
L 159.541527 293.999166 
L 160.190836 293.975935 
L 160.840145 293.832231 
L 161.489455 294.25782 
L 162.138764 293.748013 
L 163.437382 293.726364 
L 164.736 294.188369 
L 165.385309 293.632607 
L 166.034618 293.770095 
L 166.683927 294.028021 
L 167.333236 293.5661 
L 167.982545 293.599897 
L 168.631855 293.81461 
L 169.281164 293.798566 
L 169.930473 294.043602 
L 170.579782 293.629297 
L 171.229091 293.996074 
L 171.8784 291.389574 
L 172.527709 289.636956 
L 173.177018 291.276468 
L 173.826327 290.158801 
L 174.475636 291.435518 
L 175.124945 291.368643 
L 175.774255 292.330435 
L 176.423564 292.471068 
L 177.072873 290.702933 
L 177.722182 291.692124 
L 178.371491 289.620946 
L 179.0208 291.391925 
L 179.670109 290.590446 
L 180.319418 291.336938 
L 180.968727 290.061209 
L 181.618036 291.040343 
L 182.267345 291.446808 
L 182.916655 291.652104 
L 183.565964 290.539078 
L 184.864582 292.828671 
L 186.1632 292.018887 
L 186.812509 292.491064 
L 187.461818 292.232425 
L 188.111127 292.393211 
L 188.760436 292.015558 
L 189.409745 292.38738 
L 190.059055 292.560233 
L 190.708364 292.157237 
L 191.357673 291.557767 
L 192.006982 291.928227 
L 192.656291 291.241049 
L 193.3056 292.433496 
L 193.954909 291.749674 
L 194.604218 291.852452 
L 195.253527 292.091146 
L 195.902836 291.888014 
L 196.552145 292.385788 
L 197.201455 292.58207 
L 197.850764 291.734707 
L 198.500073 292.340609 
L 199.149382 292.390623 
L 201.746618 291.590167 
L 202.395927 292.010578 
L 203.045236 291.62392 
L 203.694545 291.713897 
L 204.343855 292.494866 
L 204.993164 292.496034 
L 205.642473 291.319129 
L 206.291782 291.444811 
L 206.941091 292.039526 
L 207.5904 292.215118 
L 208.239709 291.894943 
L 208.889018 292.482308 
L 209.538327 292.59749 
L 210.187636 292.201779 
L 210.836945 292.440348 
L 211.486255 292.506829 
L 212.135564 291.514767 
L 213.434182 292.854654 
L 214.083491 292.293205 
L 214.7328 292.898865 
L 215.382109 292.316979 
L 217.330036 292.852496 
L 217.979345 292.56389 
L 218.628655 292.797062 
L 219.277964 292.196402 
L 219.927273 291.968497 
L 220.576582 293.012337 
L 221.225891 292.412576 
L 221.8752 292.757346 
L 223.173818 292.81819 
L 223.823127 293.271627 
L 224.472436 292.506129 
L 225.771055 292.431631 
L 226.420364 292.621883 
L 227.069673 292.567988 
L 227.718982 292.899631 
L 228.368291 292.738558 
L 229.0176 292.25171 
L 229.666909 292.731119 
L 230.316218 292.202107 
L 230.965527 292.201884 
L 231.614836 292.410431 
L 232.264145 291.884988 
L 232.913455 292.486511 
L 233.562764 292.53733 
L 234.861382 292.198926 
L 235.510691 292.529119 
L 236.16 292.733682 
L 236.809309 292.308271 
L 237.458618 292.401103 
L 238.757236 292.180798 
L 239.406545 292.628299 
L 240.055855 291.830751 
L 241.354473 292.402249 
L 242.653091 292.52481 
L 243.3024 292.148845 
L 243.951709 292.10441 
L 244.601018 292.346146 
L 246.548945 292.377254 
L 247.198255 292.128093 
L 247.847564 292.610329 
L 248.496873 292.208311 
L 249.146182 292.587903 
L 249.795491 292.809213 
L 250.4448 291.609575 
L 251.094109 292.193216 
L 251.743418 292.300574 
L 252.392727 291.804803 
L 253.042036 292.274158 
L 253.691345 292.309127 
L 254.340655 292.098443 
L 254.989964 292.410728 
L 255.639273 292.477049 
L 256.288582 292.242468 
L 256.937891 292.131685 
L 257.5872 292.189731 
L 258.236509 292.614331 
L 258.885818 292.263242 
L 259.535127 292.565553 
L 260.184436 292.531758 
L 260.833745 292.077285 
L 261.483055 292.336777 
L 262.781673 292.57179 
L 263.430982 292.186371 
L 264.080291 291.939053 
L 264.7296 292.318918 
L 265.378909 292.349812 
L 266.028218 292.187723 
L 266.677527 292.26994 
L 267.326836 292.755028 
L 267.976145 292.61529 
L 268.625455 292.14619 
L 269.924073 292.202625 
L 271.222691 289.38436 
L 271.872 288.785443 
L 272.521309 287.697112 
L 273.170618 288.10134 
L 273.819927 286.437321 
L 275.118545 281.428974 
L 275.767855 278.261298 
L 276.417164 279.827323 
L 277.066473 276.732152 
L 277.715782 271.16109 
L 278.365091 269.109653 
L 279.0144 266.508565 
L 279.663709 261.431807 
L 280.313018 266.629143 
L 281.611636 251.686895 
L 282.260945 253.034755 
L 282.910255 245.778629 
L 283.559564 242.793406 
L 284.208873 246.192557 
L 284.858182 228.930273 
L 285.507491 225.511987 
L 286.1568 226.172107 
L 286.806109 227.069198 
L 287.455418 215.508702 
L 288.104727 222.806345 
L 289.403345 214.764501 
L 290.052655 205.619763 
L 290.701964 205.641573 
L 291.351273 206.812232 
L 292.649891 190.192281 
L 293.2992 186.982221 
L 293.948509 185.95376 
L 294.597818 181.418212 
L 295.247127 185.938057 
L 295.896436 188.8985 
L 296.545745 171.364508 
L 297.195055 180.925964 
L 297.844364 180.730074 
L 298.493673 172.248009 
L 299.142982 149.444851 
L 299.792291 165.735762 
L 300.4416 165.153083 
L 301.090909 167.055036 
L 301.740218 153.476487 
L 302.389527 156.444205 
L 303.038836 148.445691 
L 303.688145 160.245012 
L 304.337455 148.222606 
L 304.986764 152.079708 
L 305.636073 141.865789 
L 306.285382 150.352 
L 306.934691 144.361208 
L 307.584 134.649695 
L 308.233309 126.874728 
L 308.882618 125.611143 
L 309.531927 118.366657 
L 310.181236 117.648044 
L 310.830545 118.089729 
L 311.479855 130.154456 
L 312.129164 112.767414 
L 312.778473 122.213088 
L 313.427782 121.107396 
L 314.077091 114.237531 
L 314.7264 111.648773 
L 315.375709 107.131703 
L 316.025018 112.48169 
L 316.674327 114.139132 
L 317.323636 106.275167 
L 317.972945 102.58043 
L 318.622255 102.835397 
L 319.271564 97.747428 
L 319.920873 99.4297 
L 320.570182 95.282607 
L 321.219491 92.252323 
L 321.8688 92.309265 
L 322.518109 88.057573 
L 323.167418 89.584359 
L 323.816727 85.587503 
L 324.466036 80.708084 
L 325.115345 84.599533 
L 325.764655 86.684932 
L 326.413964 80.538337 
L 327.063273 81.035292 
L 327.712582 81.707359 
L 328.361891 79.557735 
L 329.0112 74.422989 
L 329.660509 72.804725 
L 330.309818 74.265037 
L 330.959127 76.413017 
L 331.608436 69.196203 
L 332.257745 66.772463 
L 332.907055 68.077663 
L 333.556364 72.000186 
L 334.205673 68.147267 
L 334.854982 69.304537 
L 335.504291 66.443149 
L 336.1536 66.825339 
L 336.802909 66.565095 
L 337.452218 63.665914 
L 338.101527 63.48789 
L 338.750836 63.813195 
L 339.400145 61.803974 
L 340.049455 63.687976 
L 340.698764 62.984936 
L 341.348073 63.054856 
L 341.997382 62.260613 
L 342.646691 62.43457 
L 344.594618 59.714826 
L 345.243927 59.535548 
L 347.191855 59.53885 
L 347.841164 58.618089 
L 348.490473 58.423987 
L 349.139782 58.006685 
L 349.789091 58.64664 
L 350.4384 58.66674 
L 351.087709 58.885528 
L 351.737018 58.19737 
L 352.386327 58.216937 
L 353.035636 57.736275 
L 353.684945 57.531071 
L 354.334255 58.001941 
L 355.632873 57.616593 
L 356.282182 57.983484 
L 356.931491 57.809541 
L 357.5808 57.407063 
L 358.230109 57.821755 
L 358.879418 57.52265 
L 360.178036 58.02285 
L 360.827345 57.650796 
L 361.476655 57.628374 
L 362.125964 57.32105 
L 362.775273 57.751272 
L 363.424582 57.350293 
L 364.073891 57.342117 
L 364.7232 57.713204 
L 365.372509 57.59792 
L 366.021818 57.597011 
L 366.671127 70.628829 
L 367.320436 98.258356 
L 367.969745 141.86377 
L 368.619055 163.35456 
L 369.268364 157.318419 
L 369.917673 138.15059 
L 370.566982 143.270095 
L 371.216291 182.570248 
L 371.8656 190.970021 
L 372.514909 172.717481 
L 373.164218 162.451911 
L 373.813527 154.206549 
L 374.462836 158.213772 
L 375.112145 155.900804 
L 375.761455 146.511077 
L 376.410764 142.936455 
L 377.060073 160.300325 
L 377.709382 147.913062 
L 378.358691 150.69618 
L 379.008 139.827671 
L 379.657309 147.890654 
L 380.306618 141.65734 
L 380.955927 138.62384 
L 381.605236 133.988342 
L 382.254545 133.044741 
L 382.903855 127.963635 
L 383.553164 119.041665 
L 384.202473 115.223641 
L 384.851782 122.37574 
L 385.501091 133.782142 
L 386.1504 127.324301 
L 387.449018 121.97841 
L 388.747636 113.052632 
L 389.396945 114.35094 
L 390.046255 116.567327 
L 391.344873 97.358749 
L 391.994182 104.879066 
L 392.643491 110.663053 
L 393.2928 108.004534 
L 393.942109 101.367371 
L 394.591418 92.088415 
L 395.240727 98.885477 
L 395.890036 92.545631 
L 396.539345 95.900311 
L 397.188655 96.991223 
L 397.837964 92.813344 
L 398.487273 93.939511 
L 398.487273 93.939511 
" clip-path="url(#p71c7eacb5d)" style="fill: none; stroke: #ff7f0e; stroke-width: 1.5; stroke-linecap: square"/>
   </g>
   <g id="line2d_15">
    <path d="M 73.832727 110.99117 
L 74.482036 151.556595 
L 75.131345 143.529791 
L 75.780655 138.12077 
L 76.429964 140.177605 
L 77.079273 141.072338 
L 77.728582 140.612672 
L 78.377891 133.059261 
L 79.0272 121.183878 
L 79.676509 115.261261 
L 80.325818 105.560419 
L 80.975127 90.133513 
L 81.624436 89.893586 
L 82.273745 95.811054 
L 82.923055 86.008886 
L 83.572364 80.121943 
L 84.221673 82.405323 
L 84.870982 72.134908 
L 85.520291 75.099583 
L 86.1696 72.336537 
L 86.818909 72.148737 
L 87.468218 71.348394 
L 88.766836 66.671267 
L 89.416145 68.649932 
L 90.065455 64.393034 
L 90.714764 66.011543 
L 91.364073 63.770932 
L 92.013382 64.783112 
L 93.312 61.502505 
L 93.961309 63.864832 
L 94.610618 61.154979 
L 95.259927 61.073739 
L 95.909236 61.50846 
L 96.558545 63.440479 
L 97.207855 60.409286 
L 98.506473 59.951725 
L 99.155782 59.915993 
L 99.805091 61.230321 
L 100.4544 61.39407 
L 101.753018 58.619444 
L 102.402327 59.469477 
L 103.051636 58.240282 
L 103.700945 58.323613 
L 104.350255 59.836988 
L 104.999564 59.621892 
L 105.648873 57.765749 
L 106.298182 56.989602 
L 106.947491 58.635479 
L 107.5968 59.354669 
L 108.246109 57.830305 
L 108.895418 56.917043 
L 109.544727 56.468825 
L 110.194036 56.926488 
L 110.843345 56.892645 
L 111.492655 57.393782 
L 112.141964 56.508248 
L 112.791273 56.421226 
L 113.440582 56.472372 
L 114.089891 57.418021 
L 114.7392 56.558486 
L 115.388509 57.709426 
L 116.037818 55.640826 
L 116.687127 56.158387 
L 117.336436 55.891668 
L 117.985745 56.638745 
L 118.635055 56.37083 
L 119.284364 56.328321 
L 119.933673 56.06528 
L 120.582982 56.189937 
L 121.232291 55.9474 
L 121.8816 56.569229 
L 122.530909 56.044314 
L 123.180218 55.857205 
L 123.829527 55.543018 
L 124.478836 54.891831 
L 125.128145 56.002136 
L 125.777455 55.610891 
L 126.426764 55.45986 
L 127.076073 55.971841 
L 127.725382 55.829751 
L 128.374691 55.072753 
L 129.024 54.781218 
L 129.673309 55.343047 
L 130.322618 55.10276 
L 130.971927 55.51291 
L 131.621236 55.460177 
L 132.270545 55.095017 
L 132.919855 54.900785 
L 134.218473 54.794946 
L 134.867782 55.324605 
L 135.517091 55.16015 
L 136.1664 55.221865 
L 136.815709 54.826034 
L 137.465018 55.051989 
L 138.763636 54.841059 
L 139.412945 54.469958 
L 140.711564 54.755667 
L 142.010182 54.577066 
L 142.659491 54.310203 
L 143.3088 54.845688 
L 143.958109 54.635898 
L 144.607418 54.708457 
L 145.256727 54.498999 
L 145.906036 54.704564 
L 146.555345 54.555091 
L 147.204655 54.660526 
L 147.853964 54.445978 
L 149.801891 54.70367 
L 150.4512 54.465877 
L 152.399127 54.842963 
L 153.048436 54.438177 
L 154.347055 54.547794 
L 154.996364 54.601435 
L 155.645673 54.524593 
L 156.294982 54.17476 
L 156.944291 54.791168 
L 157.5936 54.385488 
L 158.242909 54.368963 
L 158.892218 54.467319 
L 159.541527 54.203052 
L 160.190836 54.42008 
L 160.840145 54.175856 
L 162.138764 54.546295 
L 162.788073 54.268286 
L 164.086691 54.231011 
L 165.385309 54.49535 
L 166.034618 54.598753 
L 166.683927 54.228704 
L 167.333236 54.261451 
L 167.982545 54.497658 
L 168.631855 54.571183 
L 169.281164 54.147017 
L 169.930473 54.702069 
L 171.229091 54.200903 
L 171.8784 56.133225 
L 172.527709 57.449211 
L 173.177018 56.706863 
L 173.826327 57.322506 
L 174.475636 56.606777 
L 175.124945 56.497088 
L 175.774255 56.532963 
L 176.423564 55.505397 
L 177.072873 57.237243 
L 177.722182 56.544989 
L 178.371491 57.920283 
L 179.0208 56.777952 
L 179.670109 56.572978 
L 180.319418 57.083012 
L 180.968727 57.23906 
L 181.618036 57.090164 
L 182.267345 56.239309 
L 182.916655 56.424327 
L 183.565964 57.136162 
L 184.864582 55.117756 
L 185.513891 55.934552 
L 186.1632 56.036469 
L 186.812509 55.875461 
L 187.461818 55.969043 
L 188.111127 55.344143 
L 188.760436 55.846232 
L 189.409745 55.877436 
L 190.059055 55.465671 
L 190.708364 55.435275 
L 191.357673 56.319828 
L 192.006982 56.000233 
L 192.656291 56.498674 
L 193.3056 55.43477 
L 193.954909 55.390992 
L 194.604218 55.764949 
L 195.253527 55.380307 
L 196.552145 55.412146 
L 197.201455 55.564013 
L 197.850764 55.989808 
L 198.500073 55.434395 
L 199.149382 55.494453 
L 199.798691 55.675173 
L 200.448 55.312348 
L 201.097309 55.430098 
L 201.746618 56.158603 
L 202.395927 55.587704 
L 203.045236 56.213138 
L 203.694545 56.100074 
L 204.343855 55.441028 
L 204.993164 55.558778 
L 205.642473 56.125798 
L 206.291782 55.600177 
L 208.239709 55.378289 
L 208.889018 55.534496 
L 209.538327 55.443999 
L 210.187636 55.466782 
L 210.836945 55.044779 
L 211.486255 55.550213 
L 212.135564 55.59079 
L 213.434182 54.98638 
L 214.083491 55.3103 
L 214.7328 55.061477 
L 216.031418 55.176285 
L 217.330036 54.939776 
L 217.979345 55.333372 
L 219.277964 55.066581 
L 219.927273 55.49539 
L 220.576582 54.98139 
L 222.524509 54.936127 
L 223.173818 54.764823 
L 223.823127 55.056776 
L 224.472436 54.671197 
L 225.121745 55.208787 
L 225.771055 55.301476 
L 226.420364 54.537052 
L 227.069673 54.851759 
L 229.0176 54.995651 
L 230.316218 55.137944 
L 230.965527 54.752177 
L 231.614836 54.941246 
L 232.264145 55.390747 
L 232.913455 55.133214 
L 233.562764 54.565848 
L 234.212073 55.144562 
L 234.861382 55.130258 
L 235.510691 54.646251 
L 236.16 55.200164 
L 236.809309 55.046812 
L 238.757236 54.855666 
L 239.406545 55.171051 
L 240.055855 55.170979 
L 240.705164 54.989076 
L 241.354473 54.986192 
L 242.003782 55.202082 
L 243.3024 54.963063 
L 243.951709 54.433015 
L 244.601018 54.894383 
L 245.250327 54.913287 
L 245.899636 54.600137 
L 247.198255 54.850187 
L 247.847564 54.671399 
L 248.496873 55.271584 
L 249.146182 54.748024 
L 250.4448 55.146134 
L 251.094109 54.534629 
L 251.743418 55.0671 
L 252.392727 54.754845 
L 253.042036 54.786467 
L 253.691345 54.5946 
L 254.340655 54.734888 
L 254.989964 55.067764 
L 255.639273 54.931225 
L 256.288582 55.040813 
L 256.937891 54.729279 
L 258.236509 55.143077 
L 258.885818 54.561911 
L 259.535127 54.800122 
L 260.184436 54.880353 
L 261.483055 54.878406 
L 262.132364 54.566237 
L 262.781673 54.540412 
L 263.430982 54.644925 
L 264.080291 54.969638 
L 265.378909 54.830403 
L 267.326836 54.599402 
L 267.976145 54.881737 
L 268.625455 54.887159 
L 269.274764 55.609175 
L 269.924073 55.62456 
L 270.573382 56.176901 
L 271.222691 57.116595 
L 271.872 57.316522 
L 272.521309 57.396277 
L 273.170618 57.742923 
L 273.819927 58.766884 
L 274.469236 60.005942 
L 275.118545 59.69037 
L 275.767855 60.767223 
L 276.417164 60.397001 
L 277.066473 60.709314 
L 277.715782 63.578113 
L 278.365091 65.937023 
L 279.0144 64.350381 
L 279.663709 67.839885 
L 280.313018 65.331459 
L 280.962327 68.429558 
L 281.611636 69.586857 
L 282.260945 68.912412 
L 283.559564 73.411457 
L 284.208873 71.517996 
L 284.858182 75.197088 
L 285.507491 76.089024 
L 286.806109 77.169352 
L 287.455418 79.06574 
L 288.754036 77.17114 
L 289.403345 77.759977 
L 290.052655 78.049969 
L 290.701964 79.08773 
L 291.351273 77.788009 
L 292.000582 79.865189 
L 292.649891 79.62219 
L 293.2992 81.758275 
L 293.948509 81.348485 
L 294.597818 82.559959 
L 295.247127 83.09925 
L 295.896436 80.277055 
L 296.545745 80.682763 
L 297.195055 80.652583 
L 297.844364 79.618312 
L 298.493673 77.775665 
L 299.142982 81.87565 
L 299.792291 82.807614 
L 300.4416 82.587255 
L 301.090909 80.197531 
L 302.389527 82.994002 
L 303.038836 78.345425 
L 303.688145 79.833783 
L 304.337455 82.426881 
L 304.986764 79.374333 
L 305.636073 80.903253 
L 306.285382 79.977705 
L 306.934691 79.85012 
L 307.584 78.264907 
L 308.233309 76.201209 
L 308.882618 78.64293 
L 309.531927 79.266994 
L 310.181236 75.751809 
L 310.830545 75.799653 
L 312.129164 72.84572 
L 312.778473 75.324168 
L 313.427782 73.042648 
L 314.077091 75.772861 
L 314.7264 74.01343 
L 315.375709 71.933034 
L 316.025018 72.832945 
L 316.674327 72.734358 
L 317.323636 69.760426 
L 317.972945 73.183974 
L 318.622255 72.709268 
L 319.271564 70.378563 
L 319.920873 66.694698 
L 320.570182 68.572773 
L 321.219491 67.659381 
L 321.8688 70.467013 
L 322.518109 66.829564 
L 323.167418 68.648851 
L 323.816727 64.489487 
L 324.466036 64.62816 
L 325.115345 63.88127 
L 325.764655 66.53108 
L 326.413964 65.523657 
L 327.063273 62.384881 
L 327.712582 66.053994 
L 328.361891 61.664653 
L 329.0112 61.26164 
L 329.660509 59.990888 
L 330.309818 61.760918 
L 330.959127 61.1726 
L 331.608436 61.23221 
L 332.257745 60.068494 
L 332.907055 60.945117 
L 333.556364 60.137838 
L 334.205673 58.853445 
L 334.854982 58.294139 
L 335.504291 58.017716 
L 336.1536 57.50663 
L 336.802909 57.401525 
L 337.452218 57.6804 
L 338.750836 57.00966 
L 340.049455 57.827349 
L 340.698764 57.603327 
L 341.348073 56.157103 
L 341.997382 55.596356 
L 342.646691 56.651535 
L 343.296 55.921747 
L 343.945309 55.888107 
L 344.594618 56.20365 
L 345.243927 55.770515 
L 345.893236 55.586695 
L 346.542545 55.6966 
L 347.191855 55.310214 
L 347.841164 55.53725 
L 348.490473 55.10374 
L 349.139782 55.493256 
L 349.789091 55.43601 
L 350.4384 55.168614 
L 351.087709 55.383927 
L 351.737018 55.13206 
L 352.386327 55.091051 
L 353.035636 55.321822 
L 353.684945 54.911023 
L 355.632873 55.010936 
L 356.282182 54.721867 
L 357.5808 54.780757 
L 358.230109 54.960525 
L 358.879418 54.98015 
L 359.528727 54.593288 
L 360.827345 54.774917 
L 362.125964 54.73868 
L 362.775273 54.883799 
L 364.073891 54.510015 
L 364.7232 54.85248 
L 365.372509 54.380802 
L 366.021818 54.959992 
L 366.671127 57.544668 
L 367.320436 66.164361 
L 367.969745 69.426238 
L 368.619055 69.621796 
L 369.268364 71.019296 
L 369.917673 71.473469 
L 370.566982 79.434506 
L 371.216291 80.641711 
L 371.8656 77.097759 
L 372.514909 76.154331 
L 373.164218 74.555995 
L 373.813527 78.080437 
L 374.462836 79.59501 
L 375.761455 75.467051 
L 376.410764 81.263352 
L 377.060073 78.962741 
L 377.709382 78.462728 
L 378.358691 74.289377 
L 379.008 77.821217 
L 379.657309 77.662155 
L 380.306618 79.568247 
L 380.955927 79.778758 
L 381.605236 76.320602 
L 382.254545 76.768128 
L 382.903855 77.892219 
L 383.553164 74.186076 
L 384.202473 74.893239 
L 384.851782 76.054893 
L 385.501091 77.825499 
L 386.1504 77.067723 
L 386.799709 75.144572 
L 387.449018 75.229561 
L 388.098327 74.886722 
L 388.747636 75.472113 
L 389.396945 74.163725 
L 390.046255 75.152157 
L 390.695564 72.735641 
L 391.344873 69.787823 
L 391.994182 74.054656 
L 392.643491 74.756456 
L 393.2928 69.976027 
L 393.942109 69.920713 
L 394.591418 67.198705 
L 395.240727 67.304516 
L 395.890036 69.872812 
L 396.539345 67.556743 
L 397.188655 68.674085 
L 397.837964 68.557373 
L 398.487273 68.289256 
L 398.487273 68.289256 
" clip-path="url(#p71c7eacb5d)" style="fill: none; stroke: #2ca02c; stroke-width: 1.5; stroke-linecap: square"/>
   </g>
   <g id="line2d_16">
    <path d="M 73.832727 176.140798 
L 74.482036 178.559996 
L 75.131345 173.183996 
L 75.780655 175.334399 
L 76.429964 173.251192 
L 77.728582 175.603201 
L 78.377891 176.073603 
L 79.0272 178.694408 
L 79.676509 176.342405 
L 80.325818 176.27521 
L 80.975127 175.536006 
L 81.624436 173.990396 
L 82.273745 174.393595 
L 82.923055 175.804801 
L 83.572364 175.871996 
L 84.221673 175.267204 
L 84.870982 174.124815 
L 85.520291 176.207994 
L 86.1696 175.603201 
L 86.818909 177.216 
L 87.468218 176.073603 
L 88.117527 176.207994 
L 88.766836 174.460805 
L 89.416145 176.678396 
L 90.065455 176.409601 
L 90.714764 174.796802 
L 91.364073 176.342405 
L 92.013382 175.871996 
L 92.662691 176.207994 
L 93.312 176.073596 
L 93.961309 176.476796 
L 94.610618 176.207994 
L 95.909236 176.207994 
L 97.207855 176.006387 
L 97.857164 176.275189 
L 98.506473 176.207994 
L 99.155782 176.476796 
L 99.805091 176.073603 
L 100.4544 176.27521 
L 101.103709 176.140798 
L 101.753018 176.207994 
L 102.402327 176.140798 
L 103.700945 176.275189 
L 104.350255 176.073603 
L 104.999564 176.140798 
L 105.648873 176.476796 
L 106.298182 176.27521 
L 106.947491 176.207994 
L 107.5968 176.745591 
L 108.246109 176.275189 
L 110.194036 176.207994 
L 110.843345 176.073603 
L 111.492655 176.207994 
L 112.141964 176.073603 
L 114.7392 176.140798 
L 115.388509 176.207994 
L 116.037818 176.006387 
L 116.687127 176.543991 
L 117.336436 176.27521 
L 117.985745 176.140798 
L 118.635055 176.409601 
L 119.933673 176.140798 
L 120.582982 176.342405 
L 121.232291 175.939191 
L 121.8816 176.342405 
L 123.829527 176.140798 
L 125.128145 176.207994 
L 125.777455 176.073603 
L 126.426764 176.207994 
L 129.673309 176.207994 
L 130.322618 176.678396 
L 130.971927 176.27521 
L 136.815709 176.207994 
L 137.465018 176.140798 
L 138.114327 176.27521 
L 138.763636 176.073603 
L 140.062255 176.140798 
L 144.607418 176.140798 
L 145.256727 176.275189 
L 145.906036 176.207994 
L 146.555345 176.275189 
L 147.853964 176.207994 
L 148.503273 176.27521 
L 149.801891 176.207994 
L 156.944291 176.140798 
L 157.5936 176.073603 
L 158.892218 176.140798 
L 160.190836 176.073603 
L 160.840145 176.140798 
L 162.138764 176.073603 
L 171.8784 176.140798 
L 172.527709 176.409601 
L 173.177018 176.140798 
L 173.826327 176.6112 
L 174.475636 176.275189 
L 177.072873 176.275189 
L 177.722182 177.216 
L 178.371491 176.409601 
L 179.0208 176.140798 
L 179.670109 176.073603 
L 180.319418 175.536006 
L 180.968727 176.342405 
L 181.618036 176.140798 
L 182.267345 176.476796 
L 182.916655 176.207994 
L 183.565964 176.073603 
L 184.864582 176.207994 
L 185.513891 176.073603 
L 186.1632 176.140798 
L 186.812509 176.342405 
L 188.111127 176.409601 
L 189.409745 176.207994 
L 190.059055 176.6112 
L 190.708364 176.275189 
L 192.656291 176.275189 
L 193.3056 176.006387 
L 193.954909 176.140798 
L 194.604218 176.073603 
L 195.253527 176.27521 
L 195.902836 176.073603 
L 196.552145 176.207994 
L 197.201455 176.073603 
L 197.850764 176.207994 
L 199.149382 176.207994 
L 199.798691 176.073603 
L 200.448 176.27521 
L 201.746618 176.207994 
L 203.045236 176.140798 
L 203.694545 176.073603 
L 204.343855 176.207994 
L 204.993164 176.073603 
L 205.642473 176.207994 
L 210.187636 176.140798 
L 211.486255 176.006387 
L 212.784873 176.27521 
L 215.382109 175.939191 
L 216.031418 176.342405 
L 216.680727 176.140798 
L 218.628655 176.006408 
L 219.927273 176.207994 
L 221.225891 176.006408 
L 221.8752 176.275189 
L 222.524509 176.140798 
L 223.173818 176.140798 
L 223.823127 176.006387 
L 224.472436 176.073603 
L 225.121745 176.006408 
L 225.771055 176.207994 
L 226.420364 176.073603 
L 227.718982 176.342405 
L 229.0176 176.006387 
L 230.316218 176.207994 
L 230.965527 176.073603 
L 232.264145 176.140798 
L 233.562764 176.207994 
L 234.212073 176.275189 
L 234.861382 176.073603 
L 240.055855 176.140798 
L 240.705164 176.207994 
L 241.354473 176.140798 
L 242.003782 176.207994 
L 243.3024 176.140798 
L 258.236509 176.140798 
L 258.885818 176.006387 
L 259.535127 176.140798 
L 260.833745 176.073603 
L 268.625455 176.140798 
L 269.274764 176.207994 
L 269.924073 176.409601 
L 270.573382 176.275196 
L 271.222691 176.27521 
L 271.872 176.140798 
L 272.521309 177.08161 
L 273.170618 178.559996 
L 273.819927 176.476796 
L 274.469236 179.769602 
L 275.118545 176.140798 
L 275.767855 177.753597 
L 276.417164 176.409586 
L 277.066473 176.544005 
L 277.715782 176.947198 
L 278.365091 179.366395 
L 279.0144 178.828798 
L 279.663709 177.081595 
L 280.313018 176.812807 
L 280.962327 176.812786 
L 281.611636 178.761603 
L 282.260945 175.334399 
L 282.910255 176.207994 
L 283.559564 176.745591 
L 284.208873 176.27521 
L 284.858182 177.753597 
L 285.507491 177.417592 
L 286.1568 176.543998 
L 286.806109 174.124786 
L 287.455418 174.3264 
L 288.104727 174.931192 
L 288.754036 177.820799 
L 289.403345 177.4176 
L 290.701964 174.39361 
L 291.351273 177.887994 
L 292.000582 175.804801 
L 292.649891 175.670404 
L 293.2992 178.895993 
L 293.948509 175.065597 
L 294.597818 175.804794 
L 295.247127 173.587196 
L 295.896436 174.998395 
L 296.545745 175.603201 
L 297.195055 180.172795 
L 297.844364 177.484795 
L 298.493673 178.895993 
L 299.142982 175.603201 
L 300.4416 178.291194 
L 301.090909 174.191996 
L 301.740218 177.014393 
L 303.038836 177.887994 
L 303.688145 177.619185 
L 304.337455 176.6112 
L 304.986764 176.342405 
L 305.636073 175.401602 
L 306.285382 177.484795 
L 306.934691 177.216 
L 307.584 179.097593 
L 308.233309 175.536006 
L 308.882618 176.073603 
L 309.531927 179.836797 
L 310.181236 180.239997 
L 310.830545 178.223992 
L 311.479855 175.065597 
L 312.129164 175.334399 
L 312.778473 176.207994 
L 313.427782 181.584008 
L 314.077091 176.745591 
L 314.7264 174.863997 
L 315.375709 176.140798 
L 316.025018 174.191996 
L 316.674327 176.947198 
L 317.323636 180.307192 
L 317.972945 175.804801 
L 318.622255 176.342405 
L 319.271564 177.081595 
L 319.920873 176.947198 
L 320.570182 173.452806 
L 321.219491 176.409601 
L 321.8688 174.460805 
L 322.518109 177.686402 
L 323.167418 178.627198 
L 323.816727 175.737592 
L 324.466036 174.863997 
L 325.115345 174.528 
L 325.764655 174.796802 
L 326.413964 179.500793 
L 327.063273 174.796802 
L 327.712582 176.073596 
L 328.361891 174.46079 
L 329.0112 175.401594 
L 329.660509 173.318387 
L 330.309818 174.528 
L 330.959127 175.200009 
L 331.608436 177.014393 
L 332.257745 174.191981 
L 332.907055 177.148805 
L 333.556364 175.065597 
L 334.205673 176.476796 
L 334.854982 174.460805 
L 335.504291 173.788796 
L 336.802909 172.041593 
L 337.452218 172.512002 
L 338.101527 173.452791 
L 338.750836 171.907202 
L 339.400145 173.990396 
L 340.049455 174.595195 
L 340.698764 174.595195 
L 341.348073 173.721601 
L 341.997382 173.856005 
L 342.646691 173.251206 
L 343.296 174.19201 
L 343.945309 174.057591 
L 344.594618 174.057591 
L 345.243927 174.259205 
L 345.893236 174.729607 
L 346.542545 173.452806 
L 347.191855 173.318401 
L 347.841164 173.049606 
L 348.490473 173.721601 
L 349.139782 173.721601 
L 349.789091 172.982397 
L 350.4384 172.982397 
L 351.087709 172.713602 
L 351.737018 173.78881 
L 352.386327 173.385596 
L 353.035636 173.721586 
L 353.684945 173.654391 
L 354.334255 173.788796 
L 354.983564 173.654391 
L 355.632873 173.721601 
L 356.282182 173.452806 
L 356.931491 174.057591 
L 357.5808 173.654391 
L 358.230109 173.049606 
L 358.879418 173.721601 
L 359.528727 173.587196 
L 360.178036 173.116787 
L 360.827345 173.385596 
L 361.476655 173.183996 
L 362.125964 173.654406 
L 364.073891 173.318401 
L 364.7232 173.520001 
L 365.372509 173.183996 
L 366.021818 172.713602 
L 366.671127 176.207994 
L 367.320436 176.073603 
L 367.969745 175.200002 
L 368.619055 176.208001 
L 369.268364 173.788796 
L 369.917673 174.259191 
L 370.566982 176.6112 
L 371.216291 177.148805 
L 371.8656 173.520001 
L 372.514909 180.105599 
L 373.164218 174.46079 
L 373.813527 174.863997 
L 374.462836 175.804794 
L 375.112145 174.796802 
L 376.410764 175.670397 
L 377.060073 170.899189 
L 377.709382 177.283195 
L 378.358691 174.19201 
L 379.657309 177.686402 
L 380.955927 175.468797 
L 381.605236 176.678396 
L 382.254545 176.006387 
L 382.903855 173.654391 
L 383.553164 175.603201 
L 384.202473 175.132792 
L 384.851782 173.78881 
L 385.501091 176.073596 
L 386.1504 177.081595 
L 386.799709 174.057591 
L 387.449018 177.887994 
L 388.098327 174.864004 
L 388.747636 174.863997 
L 389.396945 178.425599 
L 390.046255 175.199987 
L 390.695564 175.468811 
L 391.344873 176.073603 
L 391.994182 175.737606 
L 392.643491 178.089594 
L 393.2928 178.761603 
L 393.942109 173.856005 
L 394.591418 177.350397 
L 395.240727 174.528 
L 395.890036 172.511988 
L 396.539345 176.678396 
L 397.188655 173.855991 
L 397.837964 176.745591 
L 398.487273 177.081588 
L 398.487273 177.081588 
" clip-path="url(#p71c7eacb5d)" style="fill: none; stroke: #d62728; stroke-width: 1.5; stroke-linecap: square"/>
   </g>
   <g id="patch_3">
    <path d="M 57.6 307.584 
L 57.6 41.472 
" style="fill: none; stroke: #000000; stroke-width: 0.8; stroke-linejoin: miter; stroke-linecap: square"/>
   </g>
   <g id="patch_4">
    <path d="M 414.72 307.584 
L 414.72 41.472 
" style="fill: none; stroke: #000000; stroke-width: 0.8; stroke-linejoin: miter; stroke-linecap: square"/>
   </g>
   <g id="patch_5">
    <path d="M 57.6 307.584 
L 414.72 307.584 
" style="fill: none; stroke: #000000; stroke-width: 0.8; stroke-linejoin: miter; stroke-linecap: square"/>
   </g>
   <g id="patch_6">
    <path d="M 57.6 41.472 
L 414.72 41.472 
" style="fill: none; stroke: #000000; stroke-width: 0.8; stroke-linejoin: miter; stroke-linecap: square"/>
   </g>
   <g id="text_13">
    <!-- moo1 -->
    <g transform="translate(219.155625 35.472) scale(0.12 -0.12)">
     <defs>
      <path id="DejaVuSans-6d" d="M 3328 2828 
Q 3544 3216 3844 3400 
Q 4144 3584 4550 3584 
Q 5097 3584 5394 3201 
Q 5691 2819 5691 2113 
L 5691 0 
L 5113 0 
L 5113 2094 
Q 5113 2597 4934 2840 
Q 4756 3084 4391 3084 
Q 3944 3084 3684 2787 
Q 3425 2491 3425 1978 
L 3425 0 
L 2847 0 
L 2847 2094 
Q 2847 2600 2669 2842 
Q 2491 3084 2119 3084 
Q 1678 3084 1418 2786 
Q 1159 2488 1159 1978 
L 1159 0 
L 581 0 
L 581 3500 
L 1159 3500 
L 1159 2956 
Q 1356 3278 1631 3431 
Q 1906 3584 2284 3584 
Q 2666 3584 2933 3390 
Q 3200 3197 3328 2828 
z
" transform="scale(0.015625)"/>
      <path id="DejaVuSans-6f" d="M 1959 3097 
Q 1497 3097 1228 2736 
Q 959 2375 959 1747 
Q 959 1119 1226 758 
Q 1494 397 1959 397 
Q 2419 397 2687 759 
Q 2956 1122 2956 1747 
Q 2956 2369 2687 2733 
Q 2419 3097 1959 3097 
z
M 1959 3584 
Q 2709 3584 3137 3096 
Q 3566 2609 3566 1747 
Q 3566 888 3137 398 
Q 2709 -91 1959 -91 
Q 1206 -91 779 398 
Q 353 888 353 1747 
Q 353 2609 779 3096 
Q 1206 3584 1959 3584 
z
" transform="scale(0.015625)"/>
     </defs>
     <use xlink:href="#DejaVuSans-6d"/>
     <use xlink:href="#DejaVuSans-6f" transform="translate(97.412109 0)"/>
     <use xlink:href="#DejaVuSans-6f" transform="translate(158.59375 0)"/>
     <use xlink:href="#DejaVuSans-31" transform="translate(219.775391 0)"/>
    </g>
   </g>
   <g id="legend_1">
    <g id="patch_7">
     <path d="M 316.259063 302.584 
L 407.72 302.584 
Q 409.72 302.584 409.72 300.584 
L 409.72 212.40275 
Q 409.72 210.40275 407.72 210.40275 
L 316.259063 210.40275 
Q 314.259063 210.40275 314.259063 212.40275 
L 314.259063 300.584 
Q 314.259063 302.584 316.259063 302.584 
z
" style="fill: #ffffff; opacity: 0.8; stroke: #cccccc; stroke-linejoin: miter"/>
    </g>
    <g id="line2d_17">
     <path d="M 318.259063 218.501187 
L 328.259063 218.501187 
L 338.259063 218.501187 
" style="fill: none; stroke: #1f77b4; stroke-width: 1.5; stroke-linecap: square"/>
    </g>
    <g id="text_14">
     <!-- train -->
     <g transform="translate(346.259063 222.001187) scale(0.1 -0.1)">
      <defs>
       <path id="DejaVuSans-74" d="M 1172 4494 
L 1172 3500 
L 2356 3500 
L 2356 3053 
L 1172 3053 
L 1172 1153 
Q 1172 725 1289 603 
Q 1406 481 1766 481 
L 2356 481 
L 2356 0 
L 1766 0 
Q 1100 0 847 248 
Q 594 497 594 1153 
L 594 3053 
L 172 3053 
L 172 3500 
L 594 3500 
L 594 4494 
L 1172 4494 
z
" transform="scale(0.015625)"/>
       <path id="DejaVuSans-72" d="M 2631 2963 
Q 2534 3019 2420 3045 
Q 2306 3072 2169 3072 
Q 1681 3072 1420 2755 
Q 1159 2438 1159 1844 
L 1159 0 
L 581 0 
L 581 3500 
L 1159 3500 
L 1159 2956 
Q 1341 3275 1631 3429 
Q 1922 3584 2338 3584 
Q 2397 3584 2469 3576 
Q 2541 3569 2628 3553 
L 2631 2963 
z
" transform="scale(0.015625)"/>
       <path id="DejaVuSans-61" d="M 2194 1759 
Q 1497 1759 1228 1600 
Q 959 1441 959 1056 
Q 959 750 1161 570 
Q 1363 391 1709 391 
Q 2188 391 2477 730 
Q 2766 1069 2766 1631 
L 2766 1759 
L 2194 1759 
z
M 3341 1997 
L 3341 0 
L 2766 0 
L 2766 531 
Q 2569 213 2275 61 
Q 1981 -91 1556 -91 
Q 1019 -91 701 211 
Q 384 513 384 1019 
Q 384 1609 779 1909 
Q 1175 2209 1959 2209 
L 2766 2209 
L 2766 2266 
Q 2766 2663 2505 2880 
Q 2244 3097 1772 3097 
Q 1472 3097 1187 3025 
Q 903 2953 641 2809 
L 641 3341 
Q 956 3463 1253 3523 
Q 1550 3584 1831 3584 
Q 2591 3584 2966 3190 
Q 3341 2797 3341 1997 
z
" transform="scale(0.015625)"/>
       <path id="DejaVuSans-69" d="M 603 3500 
L 1178 3500 
L 1178 0 
L 603 0 
L 603 3500 
z
M 603 4863 
L 1178 4863 
L 1178 4134 
L 603 4134 
L 603 4863 
z
" transform="scale(0.015625)"/>
       <path id="DejaVuSans-6e" d="M 3513 2113 
L 3513 0 
L 2938 0 
L 2938 2094 
Q 2938 2591 2744 2837 
Q 2550 3084 2163 3084 
Q 1697 3084 1428 2787 
Q 1159 2491 1159 1978 
L 1159 0 
L 581 0 
L 581 3500 
L 1159 3500 
L 1159 2956 
Q 1366 3272 1645 3428 
Q 1925 3584 2291 3584 
Q 2894 3584 3203 3211 
Q 3513 2838 3513 2113 
z
" transform="scale(0.015625)"/>
      </defs>
      <use xlink:href="#DejaVuSans-74"/>
      <use xlink:href="#DejaVuSans-72" transform="translate(39.208984 0)"/>
      <use xlink:href="#DejaVuSans-61" transform="translate(80.322266 0)"/>
      <use xlink:href="#DejaVuSans-69" transform="translate(141.601562 0)"/>
      <use xlink:href="#DejaVuSans-6e" transform="translate(169.384766 0)"/>
     </g>
    </g>
    <g id="line2d_18">
     <path d="M 318.259063 233.179312 
L 328.259063 233.179312 
L 338.259063 233.179312 
" style="fill: none; stroke: #ff7f0e; stroke-width: 1.5; stroke-linecap: square"/>
    </g>
    <g id="text_15">
     <!-- train_class0 -->
     <g transform="translate(346.259063 236.679312) scale(0.1 -0.1)">
      <defs>
       <path id="DejaVuSans-5f" d="M 3263 -1063 
L 3263 -1509 
L -63 -1509 
L -63 -1063 
L 3263 -1063 
z
" transform="scale(0.015625)"/>
       <path id="DejaVuSans-63" d="M 3122 3366 
L 3122 2828 
Q 2878 2963 2633 3030 
Q 2388 3097 2138 3097 
Q 1578 3097 1268 2742 
Q 959 2388 959 1747 
Q 959 1106 1268 751 
Q 1578 397 2138 397 
Q 2388 397 2633 464 
Q 2878 531 3122 666 
L 3122 134 
Q 2881 22 2623 -34 
Q 2366 -91 2075 -91 
Q 1284 -91 818 406 
Q 353 903 353 1747 
Q 353 2603 823 3093 
Q 1294 3584 2113 3584 
Q 2378 3584 2631 3529 
Q 2884 3475 3122 3366 
z
" transform="scale(0.015625)"/>
       <path id="DejaVuSans-6c" d="M 603 4863 
L 1178 4863 
L 1178 0 
L 603 0 
L 603 4863 
z
" transform="scale(0.015625)"/>
       <path id="DejaVuSans-73" d="M 2834 3397 
L 2834 2853 
Q 2591 2978 2328 3040 
Q 2066 3103 1784 3103 
Q 1356 3103 1142 2972 
Q 928 2841 928 2578 
Q 928 2378 1081 2264 
Q 1234 2150 1697 2047 
L 1894 2003 
Q 2506 1872 2764 1633 
Q 3022 1394 3022 966 
Q 3022 478 2636 193 
Q 2250 -91 1575 -91 
Q 1294 -91 989 -36 
Q 684 19 347 128 
L 347 722 
Q 666 556 975 473 
Q 1284 391 1588 391 
Q 1994 391 2212 530 
Q 2431 669 2431 922 
Q 2431 1156 2273 1281 
Q 2116 1406 1581 1522 
L 1381 1569 
Q 847 1681 609 1914 
Q 372 2147 372 2553 
Q 372 3047 722 3315 
Q 1072 3584 1716 3584 
Q 2034 3584 2315 3537 
Q 2597 3491 2834 3397 
z
" transform="scale(0.015625)"/>
      </defs>
      <use xlink:href="#DejaVuSans-74"/>
      <use xlink:href="#DejaVuSans-72" transform="translate(39.208984 0)"/>
      <use xlink:href="#DejaVuSans-61" transform="translate(80.322266 0)"/>
      <use xlink:href="#DejaVuSans-69" transform="translate(141.601562 0)"/>
      <use xlink:href="#DejaVuSans-6e" transform="translate(169.384766 0)"/>
      <use xlink:href="#DejaVuSans-5f" transform="translate(232.763672 0)"/>
      <use xlink:href="#DejaVuSans-63" transform="translate(282.763672 0)"/>
      <use xlink:href="#DejaVuSans-6c" transform="translate(337.744141 0)"/>
      <use xlink:href="#DejaVuSans-61" transform="translate(365.527344 0)"/>
      <use xlink:href="#DejaVuSans-73" transform="translate(426.806641 0)"/>
      <use xlink:href="#DejaVuSans-73" transform="translate(478.90625 0)"/>
      <use xlink:href="#DejaVuSans-30" transform="translate(531.005859 0)"/>
     </g>
    </g>
    <g id="line2d_19">
     <path d="M 318.259063 248.135562 
L 328.259063 248.135562 
L 338.259063 248.135562 
" style="fill: none; stroke: #2ca02c; stroke-width: 1.5; stroke-linecap: square"/>
    </g>
    <g id="text_16">
     <!-- train_class1 -->
     <g transform="translate(346.259063 251.635562) scale(0.1 -0.1)">
      <use xlink:href="#DejaVuSans-74"/>
      <use xlink:href="#DejaVuSans-72" transform="translate(39.208984 0)"/>
      <use xlink:href="#DejaVuSans-61" transform="translate(80.322266 0)"/>
      <use xlink:href="#DejaVuSans-69" transform="translate(141.601562 0)"/>
      <use xlink:href="#DejaVuSans-6e" transform="translate(169.384766 0)"/>
      <use xlink:href="#DejaVuSans-5f" transform="translate(232.763672 0)"/>
      <use xlink:href="#DejaVuSans-63" transform="translate(282.763672 0)"/>
      <use xlink:href="#DejaVuSans-6c" transform="translate(337.744141 0)"/>
      <use xlink:href="#DejaVuSans-61" transform="translate(365.527344 0)"/>
      <use xlink:href="#DejaVuSans-73" transform="translate(426.806641 0)"/>
      <use xlink:href="#DejaVuSans-73" transform="translate(478.90625 0)"/>
      <use xlink:href="#DejaVuSans-31" transform="translate(531.005859 0)"/>
     </g>
    </g>
    <g id="line2d_20">
     <path d="M 318.259063 263.091812 
L 328.259063 263.091812 
L 338.259063 263.091812 
" style="fill: none; stroke: #d62728; stroke-width: 1.5; stroke-linecap: square"/>
    </g>
    <g id="text_17">
     <!-- test -->
     <g transform="translate(346.259063 266.591812) scale(0.1 -0.1)">
      <defs>
       <path id="DejaVuSans-65" d="M 3597 1894 
L 3597 1613 
L 953 1613 
Q 991 1019 1311 708 
Q 1631 397 2203 397 
Q 2534 397 2845 478 
Q 3156 559 3463 722 
L 3463 178 
Q 3153 47 2828 -22 
Q 2503 -91 2169 -91 
Q 1331 -91 842 396 
Q 353 884 353 1716 
Q 353 2575 817 3079 
Q 1281 3584 2069 3584 
Q 2775 3584 3186 3129 
Q 3597 2675 3597 1894 
z
M 3022 2063 
Q 3016 2534 2758 2815 
Q 2500 3097 2075 3097 
Q 1594 3097 1305 2825 
Q 1016 2553 972 2059 
L 3022 2063 
z
" transform="scale(0.015625)"/>
      </defs>
      <use xlink:href="#DejaVuSans-74"/>
      <use xlink:href="#DejaVuSans-65" transform="translate(39.208984 0)"/>
      <use xlink:href="#DejaVuSans-73" transform="translate(100.732422 0)"/>
      <use xlink:href="#DejaVuSans-74" transform="translate(152.832031 0)"/>
     </g>
    </g>
    <g id="line2d_21">
     <path d="M 318.259063 277.769937 
L 328.259063 277.769937 
L 338.259063 277.769937 
" style="fill: none; stroke: #9467bd; stroke-width: 1.5; stroke-linecap: square"/>
    </g>
    <g id="text_18">
     <!-- test_class0 -->
     <g transform="translate(346.259063 281.269937) scale(0.1 -0.1)">
      <use xlink:href="#DejaVuSans-74"/>
      <use xlink:href="#DejaVuSans-65" transform="translate(39.208984 0)"/>
      <use xlink:href="#DejaVuSans-73" transform="translate(100.732422 0)"/>
      <use xlink:href="#DejaVuSans-74" transform="translate(152.832031 0)"/>
      <use xlink:href="#DejaVuSans-5f" transform="translate(192.041016 0)"/>
      <use xlink:href="#DejaVuSans-63" transform="translate(242.041016 0)"/>
      <use xlink:href="#DejaVuSans-6c" transform="translate(297.021484 0)"/>
      <use xlink:href="#DejaVuSans-61" transform="translate(324.804688 0)"/>
      <use xlink:href="#DejaVuSans-73" transform="translate(386.083984 0)"/>
      <use xlink:href="#DejaVuSans-73" transform="translate(438.183594 0)"/>
      <use xlink:href="#DejaVuSans-30" transform="translate(490.283203 0)"/>
     </g>
    </g>
    <g id="line2d_22">
     <path d="M 318.259063 292.726187 
L 328.259063 292.726187 
L 338.259063 292.726187 
" style="fill: none; stroke: #8c564b; stroke-width: 1.5; stroke-linecap: square"/>
    </g>
    <g id="text_19">
     <!-- test_class1 -->
     <g transform="translate(346.259063 296.226187) scale(0.1 -0.1)">
      <use xlink:href="#DejaVuSans-74"/>
      <use xlink:href="#DejaVuSans-65" transform="translate(39.208984 0)"/>
      <use xlink:href="#DejaVuSans-73" transform="translate(100.732422 0)"/>
      <use xlink:href="#DejaVuSans-74" transform="translate(152.832031 0)"/>
      <use xlink:href="#DejaVuSans-5f" transform="translate(192.041016 0)"/>
      <use xlink:href="#DejaVuSans-63" transform="translate(242.041016 0)"/>
      <use xlink:href="#DejaVuSans-6c" transform="translate(297.021484 0)"/>
      <use xlink:href="#DejaVuSans-61" transform="translate(324.804688 0)"/>
      <use xlink:href="#DejaVuSans-73" transform="translate(386.083984 0)"/>
      <use xlink:href="#DejaVuSans-73" transform="translate(438.183594 0)"/>
      <use xlink:href="#DejaVuSans-31" transform="translate(490.283203 0)"/>
     </g>
    </g>
   </g>
   <g id="line2d_23">
    <path d="M 73.832727 244.389388 
L 74.482036 174.813961 
L 75.131345 169.777679 
L 76.429964 255.167999 
L 77.079273 202.995829 
L 77.728582 255.191506 
L 78.377891 293.49196 
L 79.0272 257.330442 
L 79.676509 256.277335 
L 80.325818 295.362783 
L 80.975127 283.966608 
L 81.624436 203.906496 
L 82.273745 212.23976 
L 82.923055 292.976626 
L 83.572364 291.697325 
L 84.221673 263.388148 
L 84.870982 262.691741 
L 85.520291 293.841346 
L 86.1696 291.123342 
L 86.818909 258.781316 
L 87.468218 294.812356 
L 88.117527 290.070595 
L 88.766836 259.653111 
L 89.416145 295.066741 
L 90.065455 290.478062 
L 90.714764 290.909072 
L 91.364073 294.828142 
L 92.013382 292.308189 
L 92.662691 293.910643 
L 93.312 289.499492 
L 93.961309 295.352698 
L 95.259927 295.217829 
L 95.909236 293.794816 
L 96.558545 294.933846 
L 97.207855 295.059064 
L 97.857164 295.059064 
L 98.506473 294.812356 
L 99.155782 295.074417 
L 99.805091 294.963444 
L 100.4544 295.345021 
L 101.103709 295.202043 
L 101.753018 295.345021 
L 102.402327 295.209719 
L 103.051636 294.6617 
L 103.700945 295.345021 
L 104.350255 294.916085 
L 104.999564 295.209719 
L 105.648873 294.69284 
L 106.298182 295.209719 
L 106.947491 295.209719 
L 107.5968 294.811923 
L 108.246109 295.074417 
L 108.895418 295.074417 
L 109.544727 295.345021 
L 110.843345 294.820032 
L 111.492655 295.352698 
L 112.141964 294.56608 
L 112.791273 294.955334 
L 113.440582 295.08476 
L 114.7392 294.828142 
L 115.388509 295.090636 
L 116.037818 294.820465 
L 116.687127 295.209719 
L 117.985745 295.209719 
L 118.635055 295.488 
L 119.284364 295.233615 
L 119.933673 294.724845 
L 120.582982 295.360808 
L 121.232291 294.19218 
L 121.8816 295.345021 
L 123.180218 295.090636 
L 123.829527 295.090636 
L 124.478836 295.345021 
L 125.128145 295.090636 
L 125.777455 295.082527 
L 126.426764 295.345021 
L 128.374691 295.345021 
L 129.024 295.209719 
L 129.673309 295.345021 
L 130.322618 295.074417 
L 130.971927 295.090636 
L 131.621236 295.345021 
L 132.270545 295.217829 
L 133.569164 295.209719 
L 134.218473 295.345021 
L 134.867782 295.082527 
L 135.517091 295.209719 
L 136.1664 295.209719 
L 136.815709 294.828142 
L 138.114327 295.217829 
L 138.763636 295.082527 
L 139.412945 295.209719 
L 141.360873 295.209719 
L 142.010182 295.345021 
L 142.659491 294.955334 
L 143.3088 295.209719 
L 143.958109 295.082527 
L 144.607418 295.209719 
L 145.906036 294.955334 
L 146.555345 295.209719 
L 147.204655 295.217829 
L 147.853964 295.090636 
L 148.503273 295.209719 
L 149.152582 295.082527 
L 149.801891 295.082527 
L 150.4512 295.345021 
L 151.749818 295.082527 
L 152.399127 295.209719 
L 153.048436 295.082527 
L 153.697745 295.209719 
L 154.347055 295.082527 
L 154.996364 295.082527 
L 155.645673 295.345021 
L 156.944291 295.082527 
L 157.5936 295.082527 
L 158.242909 295.209719 
L 158.892218 295.209719 
L 159.541527 295.082527 
L 160.190836 295.082527 
L 160.840145 295.217829 
L 161.489455 295.082527 
L 162.788073 295.082527 
L 163.437382 295.209719 
L 164.086691 295.082527 
L 164.736 295.082527 
L 165.385309 294.955334 
L 166.034618 295.082527 
L 166.683927 294.955334 
L 167.333236 294.955334 
L 167.982545 295.209719 
L 168.631855 295.082527 
L 169.281164 295.082527 
L 169.930473 295.209719 
L 170.579782 295.209719 
L 171.229091 295.082527 
L 172.527709 295.345021 
L 173.177018 295.209719 
L 173.826327 294.939115 
L 174.475636 295.352698 
L 175.774255 295.090636 
L 176.423564 295.360808 
L 177.072873 295.360808 
L 177.722182 293.593772 
L 178.371491 294.947225 
L 179.0208 295.209719 
L 179.670109 295.094587 
L 180.319418 292.785386 
L 180.968727 295.074417 
L 181.618036 294.69284 
L 182.267345 295.217396 
L 182.916655 294.947225 
L 183.565964 294.434296 
L 184.215273 295.209719 
L 185.513891 294.957309 
L 186.1632 294.685163 
L 187.461818 295.352698 
L 188.111127 295.082527 
L 188.760436 295.345021 
L 189.409745 295.209719 
L 190.059055 294.814156 
L 191.357673 294.828142 
L 192.006982 295.345021 
L 192.656291 295.082527 
L 193.3056 294.541752 
L 193.954909 294.939115 
L 194.604218 295.090636 
L 195.253527 294.549428 
L 195.902836 294.947225 
L 197.201455 294.947225 
L 197.850764 295.217829 
L 199.149382 295.217829 
L 199.798691 294.947225 
L 200.448 295.345021 
L 201.097309 294.820032 
L 201.746618 295.082527 
L 202.395927 294.947225 
L 203.045236 295.082527 
L 203.694545 294.828142 
L 204.343855 294.947225 
L 204.993164 294.525533 
L 205.642473 295.074417 
L 206.291782 294.947225 
L 206.941091 294.947225 
L 207.5904 294.814331 
L 208.239709 295.074417 
L 208.889018 294.811923 
L 209.538327 294.68473 
L 210.187636 294.931439 
L 210.836945 294.820032 
L 211.486255 294.290884 
L 212.135564 294.947225 
L 212.784873 294.426186 
L 213.434182 295.209719 
L 214.083491 294.947225 
L 214.7328 294.561488 
L 215.382109 294.561488 
L 216.031418 294.676621 
L 216.680727 294.9492 
L 218.628655 294.686705 
L 219.277964 294.820032 
L 219.927273 294.820032 
L 220.576582 294.561488 
L 221.8752 294.811923 
L 222.524509 294.559513 
L 223.173818 294.820032 
L 223.823127 294.686705 
L 224.472436 294.822007 
L 225.121745 294.551403 
L 225.771055 294.811923 
L 226.420364 294.686705 
L 227.069673 294.947225 
L 227.718982 294.676621 
L 228.368291 294.811923 
L 229.0176 294.69679 
L 229.666909 294.811923 
L 230.316218 295.100288 
L 230.965527 294.69679 
L 231.614836 294.947225 
L 232.264145 294.9492 
L 232.913455 294.822007 
L 234.861382 294.811923 
L 235.510691 294.686705 
L 236.16 294.822007 
L 236.809309 294.69679 
L 237.458618 294.823982 
L 238.757236 294.811923 
L 239.406545 294.69679 
L 240.705164 294.9492 
L 241.354473 294.822007 
L 242.003782 294.9492 
L 242.653091 294.822007 
L 249.795491 294.822007 
L 253.042036 294.822007 
L 253.691345 294.686705 
L 254.340655 294.686705 
L 254.989964 294.822007 
L 255.639273 294.822007 
L 256.288582 294.686705 
L 256.937891 294.686705 
L 257.5872 294.822007 
L 258.236509 294.822007 
L 258.885818 294.561488 
L 259.535127 294.822007 
L 260.184436 294.686705 
L 261.483055 294.686705 
L 262.132364 294.822007 
L 264.080291 294.822007 
L 264.7296 294.686705 
L 265.378909 294.822007 
L 266.677527 294.822007 
L 267.326836 294.686705 
L 267.976145 294.822007 
L 268.625455 294.822007 
L 269.274764 295.345021 
L 269.924073 290.901128 
L 270.573382 295.202043 
L 271.222691 295.352698 
L 271.872 294.228687 
L 272.521309 293.33203 
L 273.170618 279.742995 
L 273.819927 290.597629 
L 274.469236 269.108906 
L 275.118545 255.202671 
L 275.767855 288.75577 
L 276.417164 278.501744 
L 277.066473 277.966039 
L 277.715782 282.553338 
L 278.365091 245.36525 
L 279.0144 262.095305 
L 279.663709 266.414436 
L 280.313018 272.773847 
L 280.962327 253.549728 
L 281.611636 262.127417 
L 282.260945 260.50897 
L 282.910255 250.871389 
L 283.559564 272.673875 
L 284.208873 261.591089 
L 284.858182 234.105631 
L 285.507491 242.392301 
L 286.1568 255.048024 
L 286.806109 252.029276 
L 287.455418 222.39179 
L 288.104727 252.53307 
L 289.403345 230.863827 
L 290.052655 231.971739 
L 290.701964 228.19334 
L 291.351273 221.300158 
L 292.000582 228.91886 
L 292.649891 238.563412 
L 293.2992 223.279919 
L 293.948509 225.580242 
L 294.597818 218.035779 
L 295.247127 199.381258 
L 295.896436 242.66677 
L 296.545745 246.648576 
L 297.195055 245.267629 
L 297.844364 237.951749 
L 298.493673 212.332766 
L 299.792291 229.781596 
L 300.4416 225.280762 
L 301.090909 204.326625 
L 301.740218 240.553959 
L 302.389527 223.787098 
L 303.038836 211.546958 
L 303.688145 227.994537 
L 304.986764 213.33057 
L 305.636073 212.758395 
L 306.285382 222.503217 
L 306.934691 204.058125 
L 307.584 216.369066 
L 308.233309 223.169667 
L 308.882618 183.655831 
L 309.531927 208.626277 
L 310.181236 219.992866 
L 310.830545 205.849265 
L 311.479855 195.035946 
L 312.129164 201.137841 
L 312.778473 184.622114 
L 313.427782 206.750754 
L 314.077091 190.208841 
L 314.7264 182.903289 
L 315.375709 178.689376 
L 316.674327 191.716449 
L 317.323636 208.12648 
L 317.972945 200.092466 
L 318.622255 196.75493 
L 319.271564 186.591451 
L 319.920873 194.706906 
L 320.570182 175.890331 
L 321.219491 197.760579 
L 321.8688 176.742346 
L 322.518109 181.203166 
L 323.167418 182.743484 
L 323.816727 185.942254 
L 324.466036 185.869954 
L 325.115345 181.129453 
L 325.764655 169.842409 
L 326.413964 191.906441 
L 327.063273 182.922604 
L 327.712582 184.214733 
L 328.361891 186.784125 
L 329.0112 185.571303 
L 329.660509 174.032068 
L 330.309818 180.746123 
L 331.608436 171.965155 
L 332.257745 171.394674 
L 332.907055 177.061631 
L 333.556364 174.069098 
L 334.205673 180.630608 
L 334.854982 178.238779 
L 335.504291 174.101715 
L 336.1536 174.308635 
L 336.802909 172.797264 
L 337.452218 172.738937 
L 338.101527 177.886495 
L 338.750836 172.642773 
L 339.400145 171.180197 
L 340.049455 176.380942 
L 340.698764 178.25601 
L 341.348073 177.916487 
L 341.997382 177.755421 
L 342.646691 178.793535 
L 343.296 182.419333 
L 343.945309 173.860101 
L 344.594618 175.352114 
L 345.243927 176.36167 
L 345.893236 176.115052 
L 347.191855 177.833597 
L 347.841164 175.075943 
L 348.490473 175.255697 
L 349.139782 173.777347 
L 350.4384 173.578227 
L 351.087709 171.988933 
L 351.737018 173.343635 
L 352.386327 172.43914 
L 353.035636 173.216887 
L 353.684945 173.162396 
L 354.334255 173.286505 
L 354.983564 173.801413 
L 355.632873 173.826849 
L 356.282182 173.675848 
L 356.931491 174.450322 
L 357.5808 173.262295 
L 358.230109 173.391076 
L 358.879418 174.088391 
L 359.528727 173.946027 
L 360.178036 173.252446 
L 362.125964 174.576918 
L 362.775273 174.464914 
L 363.424582 173.966805 
L 364.073891 174.498887 
L 364.7232 173.934491 
L 365.372509 173.829445 
L 366.021818 173.290716 
L 366.671127 184.927117 
L 367.320436 225.226199 
L 367.969745 217.04796 
L 368.619055 237.8696 
L 369.268364 198.078026 
L 369.917673 167.685733 
L 370.566982 234.839486 
L 371.216291 263.41123 
L 371.8656 224.435488 
L 372.514909 229.83094 
L 373.164218 220.047978 
L 373.813527 212.266739 
L 374.462836 234.441333 
L 375.112145 196.178018 
L 375.761455 227.401684 
L 376.410764 207.119101 
L 377.060073 198.410887 
L 377.709382 222.448452 
L 378.358691 208.322615 
L 379.008 211.023066 
L 379.657309 222.973504 
L 380.306618 208.028081 
L 380.955927 200.852139 
L 381.605236 224.798846 
L 382.254545 220.573232 
L 382.903855 198.630258 
L 383.553164 197.388007 
L 384.202473 185.905959 
L 384.851782 190.279396 
L 385.501091 212.843939 
L 386.1504 194.217557 
L 386.799709 206.768821 
L 387.449018 207.869704 
L 388.098327 195.70647 
L 388.747636 180.415245 
L 389.396945 189.443415 
L 390.046255 201.199643 
L 390.695564 181.06517 
L 391.344873 181.265415 
L 391.994182 197.44022 
L 392.643491 208.840176 
L 393.2928 203.710419 
L 393.942109 187.79632 
L 394.591418 203.456621 
L 395.890036 180.034115 
L 396.539345 195.945568 
L 397.188655 175.681283 
L 397.837964 185.4655 
L 398.487273 189.441476 
L 398.487273 189.441476 
" clip-path="url(#p71c7eacb5d)" style="fill: none; stroke: #9467bd; stroke-width: 1.5; stroke-linecap: square"/>
   </g>
   <g id="line2d_24">
    <path d="M 73.832727 104.205572 
L 74.482036 174.401209 
L 75.131345 179.071025 
L 76.429964 93.888005 
L 77.079273 147.880041 
L 77.728582 93.494149 
L 78.377891 55.332853 
L 79.0272 92.1129 
L 79.676509 93.932734 
L 80.325818 53.846225 
L 80.975127 63.865365 
L 81.624436 146.37761 
L 82.273745 137.383902 
L 82.923055 55.332795 
L 83.572364 56.884382 
L 84.221673 87.445347 
L 84.870982 83.846284 
L 85.520291 55.170114 
L 86.1696 57.040186 
L 86.818909 92.774772 
L 87.468218 53.986456 
L 88.117527 58.410765 
L 88.766836 89.543465 
L 89.416145 54.882948 
L 90.065455 59.410443 
L 90.714764 55.696139 
L 91.364073 54.529453 
L 92.013382 56.408523 
L 92.662691 55.217208 
L 93.312 59.416759 
L 93.961309 54.235553 
L 94.610618 53.84399 
L 95.259927 53.84399 
L 95.909236 55.366364 
L 96.558545 53.828302 
L 97.207855 53.568 
L 97.857164 54.113247 
L 99.155782 54.502575 
L 99.805091 53.852945 
L 100.4544 53.837285 
L 101.103709 53.701511 
L 102.402327 53.701511 
L 103.051636 54.398206 
L 103.700945 53.835007 
L 104.350255 53.828302 
L 104.999564 53.701511 
L 105.648873 54.912061 
L 106.298182 53.970781 
L 106.947491 53.835007 
L 107.5968 55.312593 
L 108.246109 54.119966 
L 108.895418 54.095338 
L 109.544727 53.835007 
L 110.194036 53.977501 
L 110.843345 53.977501 
L 111.492655 53.701511 
L 112.141964 54.2714 
L 112.791273 53.84399 
L 114.089891 53.84399 
L 114.7392 54.119966 
L 116.037818 53.84399 
L 116.687127 54.502575 
L 117.336436 53.977501 
L 117.985745 53.701511 
L 118.635055 53.977501 
L 119.284364 53.977501 
L 119.933673 54.2714 
L 120.582982 53.986456 
L 121.232291 54.413894 
L 121.8816 53.97975 
L 122.530909 53.970781 
L 123.180218 53.84399 
L 123.829527 53.837285 
L 124.478836 53.701511 
L 125.128145 53.986456 
L 125.777455 53.701511 
L 127.076073 53.701511 
L 127.725382 53.837285 
L 128.374691 53.701511 
L 129.024 53.835007 
L 129.673309 53.701511 
L 130.322618 54.903092 
L 130.971927 54.128935 
L 131.621236 53.835007 
L 132.270545 54.128935 
L 132.919855 53.835007 
L 133.569164 53.835007 
L 134.218473 53.701511 
L 134.867782 54.262446 
L 135.517091 53.835007 
L 136.1664 53.835007 
L 136.815709 54.2714 
L 137.465018 53.835007 
L 138.114327 53.986456 
L 138.763636 53.701511 
L 142.010182 53.701511 
L 142.659491 54.128935 
L 143.3088 53.84399 
L 143.958109 53.986456 
L 144.607418 53.701511 
L 145.256727 54.128935 
L 145.906036 54.128935 
L 147.204655 53.84399 
L 147.853964 53.986456 
L 149.801891 53.986456 
L 150.4512 53.701511 
L 151.100509 53.701511 
L 151.749818 53.835007 
L 152.399127 53.701511 
L 153.048436 53.84399 
L 153.697745 53.835007 
L 154.347055 54.119966 
L 154.996364 54.119966 
L 155.645673 53.835007 
L 156.294982 53.701511 
L 156.944291 53.835007 
L 157.5936 53.701511 
L 164.736 53.701511 
L 165.385309 53.84399 
L 166.034618 53.701511 
L 166.683927 53.977501 
L 167.982545 53.701511 
L 171.8784 53.701511 
L 172.527709 54.128935 
L 173.177018 53.701511 
L 173.826327 54.912061 
L 174.475636 53.835007 
L 175.124945 53.973016 
L 175.774255 54.2714 
L 176.423564 53.835007 
L 177.072873 53.84399 
L 177.722182 57.43978 
L 178.371491 54.502575 
L 179.0208 53.701511 
L 179.670109 53.701511 
L 180.319418 55.126249 
L 180.968727 54.253491 
L 182.267345 54.369078 
L 182.916655 54.110997 
L 183.565964 54.386988 
L 184.215273 53.701511 
L 184.864582 53.986456 
L 185.513891 53.835007 
L 186.1632 54.255712 
L 186.812509 54.262446 
L 187.461818 54.113247 
L 188.111127 54.391472 
L 188.760436 53.964062 
L 189.409745 53.837285 
L 190.059055 55.05679 
L 190.708364 54.382517 
L 191.357673 54.398206 
L 192.006982 53.970781 
L 192.656291 54.122216 
L 193.3056 54.102043 
L 193.954909 53.968532 
L 194.604218 53.701511 
L 195.253527 54.63832 
L 195.902836 53.835007 
L 196.552145 54.119966 
L 197.201455 53.835007 
L 200.448 53.837285 
L 201.097309 54.255712 
L 201.746618 53.970781 
L 202.395927 54.113247 
L 203.045236 53.837285 
L 204.993164 54.235553 
L 205.642473 53.970781 
L 206.941091 54.246757 
L 208.239709 53.970781 
L 208.889018 54.389237 
L 209.538327 54.246757 
L 210.187636 53.970781 
L 210.836945 53.977501 
L 211.486255 54.371299 
L 212.135564 53.970781 
L 212.784873 54.798723 
L 213.434182 53.835007 
L 214.083491 53.977501 
L 214.7328 54.255712 
L 215.382109 53.977501 
L 216.031418 54.647289 
L 216.680727 53.970781 
L 219.277964 53.970781 
L 219.927273 54.255712 
L 220.576582 54.237803 
L 221.225891 53.970781 
L 221.8752 54.371299 
L 222.524509 54.389237 
L 223.173818 54.113247 
L 223.823127 53.968532 
L 224.472436 53.970781 
L 225.771055 54.246757 
L 226.420364 54.104292 
L 227.069673 54.104292 
L 227.718982 54.63832 
L 228.368291 54.104292 
L 229.0176 53.970781 
L 229.666909 54.104292 
L 230.316218 53.970781 
L 230.965527 54.104292 
L 231.614836 53.970781 
L 232.264145 53.970781 
L 234.212073 54.39437 
L 234.861382 53.968532 
L 235.510691 54.104292 
L 238.757236 54.104292 
L 239.406545 54.258279 
L 240.055855 54.104292 
L 268.625455 54.104292 
L 269.274764 53.701511 
L 269.924073 58.519113 
L 270.573382 53.964062 
L 271.222691 53.837285 
L 271.872 54.607001 
L 272.521309 57.392816 
L 273.170618 72.444237 
L 273.819927 58.903942 
L 274.469236 84.119938 
L 275.118545 93.220451 
L 275.767855 63.325425 
L 276.417164 70.559875 
L 277.066473 71.711565 
L 277.715782 66.843047 
L 278.365091 105.904815 
L 279.0144 91.599535 
L 279.663709 82.635647 
L 280.313018 78.16596 
L 280.962327 96.528802 
L 281.611636 92.429524 
L 282.260945 86.984296 
L 282.910255 99.883829 
L 283.559564 78.102182 
L 284.208873 87.519132 
L 284.858182 115.086021 
L 285.507491 107.821045 
L 286.1568 97.408741 
L 286.806109 94.594967 
L 287.455418 122.728919 
L 288.104727 94.009792 
L 288.754036 110.745806 
L 289.403345 119.973341 
L 290.052655 115.679775 
L 290.701964 118.707175 
L 291.351273 128.426993 
L 292.000582 122.035338 
L 292.649891 111.620223 
L 293.2992 131.408467 
L 293.948509 122.462085 
L 294.597818 130.63395 
L 295.247127 145.220268 
L 295.896436 106.155312 
L 296.545745 104.154267 
L 297.195055 112.247531 
L 297.844364 113.723892 
L 298.493673 142.879786 
L 299.142982 129.387278 
L 299.792291 123.304244 
L 300.4416 127.3149 
L 301.090909 143.906329 
L 301.740218 111.623049 
L 303.038836 142.33552 
L 303.688145 125.256422 
L 304.337455 128.397462 
L 304.986764 134.584288 
L 305.636073 136.78898 
L 306.285382 131.103061 
L 306.934691 148.226125 
L 307.584 139.775198 
L 308.233309 126.275826 
L 308.882618 167.542547 
L 309.531927 148.194186 
L 310.181236 139.486764 
L 310.830545 150.045556 
L 311.479855 154.81677 
L 312.129164 147.53028 
L 312.778473 167.643109 
L 313.427782 152.697254 
L 314.077091 162.900474 
L 314.7264 167.946771 
L 315.375709 172.084404 
L 316.025018 160.865702 
L 316.674327 161.772403 
L 317.323636 149.389783 
L 317.972945 148.827723 
L 318.622255 153.767315 
L 319.271564 165.840434 
L 319.920873 157.545181 
L 320.570182 171.022491 
L 321.219491 154.443852 
L 321.8688 172.361188 
L 322.518109 173.495444 
L 323.167418 174.322219 
L 323.816727 164.363843 
L 324.466036 163.173883 
L 325.115345 167.394372 
L 325.764655 179.253548 
L 326.413964 164.908022 
L 327.063273 166.435183 
L 327.712582 166.959608 
L 328.361891 161.19862 
L 329.0112 164.403886 
L 329.660509 171.911269 
L 330.309818 167.879316 
L 330.959127 173.415488 
L 331.608436 182.30606 
L 332.257745 176.560689 
L 332.907055 176.106862 
L 333.556364 175.337831 
L 334.205673 171.568487 
L 334.854982 170.28457 
L 335.504291 173.119354 
L 336.1536 171.051604 
L 336.802909 170.986081 
L 337.452218 171.85858 
L 338.101527 168.571238 
L 338.750836 171.207537 
L 339.400145 176.40937 
L 340.049455 172.437958 
L 340.698764 170.487799 
L 341.348073 169.039888 
L 341.997382 169.617175 
L 343.296 165.350054 
L 343.945309 173.875371 
L 344.594618 172.440654 
L 345.243927 171.767967 
L 345.893236 172.99262 
L 346.542545 169.448899 
L 347.191855 168.344303 
L 347.841164 170.411967 
L 348.490473 171.614255 
L 349.139782 173.14887 
L 349.789091 171.818839 
L 350.4384 172.027173 
L 351.737018 173.999451 
L 352.386327 174.108002 
L 353.684945 173.802249 
L 354.334255 173.912674 
L 354.983564 173.11161 
L 355.632873 173.251538 
L 356.282182 172.793097 
L 357.5808 173.58747 
L 358.230109 172.268614 
L 358.879418 172.924992 
L 359.528727 172.830487 
L 360.178036 172.542038 
L 360.827345 172.650588 
L 361.476655 171.863309 
L 362.125964 172.263524 
L 362.775273 172.153042 
L 363.424582 172.553574 
L 364.073891 171.715999 
L 364.7232 172.652838 
L 366.021818 171.740642 
L 366.671127 167.411675 
L 367.320436 124.062857 
L 367.969745 130.324203 
L 368.619055 111.588255 
L 369.917673 181.850373 
L 370.566982 116.790542 
L 371.216291 87.924379 
L 371.8656 121.851013 
L 372.514909 128.970668 
L 373.164218 129.792424 
L 373.813527 138.787329 
L 374.462836 118.619273 
L 375.112145 154.920476 
L 375.761455 124.042295 
L 376.410764 142.487848 
L 377.060073 146.349348 
L 377.709382 129.486687 
L 378.358691 141.31574 
L 379.008 139.110125 
L 379.657309 131.290717 
L 380.306618 144.95215 
L 380.955927 151.537129 
L 381.605236 128.42359 
L 382.254545 129.194691 
L 382.903855 149.316099 
L 383.553164 155.187122 
L 384.202473 162.242928 
L 384.851782 157.406753 
L 385.501091 139.982941 
L 386.1504 161.07529 
L 386.799709 142.18325 
L 388.098327 155.615094 
L 388.747636 171.526022 
L 389.396945 164.573171 
L 390.046255 148.218958 
L 390.695564 170.452745 
L 391.344873 166.5401 
L 391.994182 152.989048 
L 392.643491 143.76134 
L 393.942109 159.781885 
L 394.591418 151.471866 
L 395.240727 155.496277 
L 395.890036 164.73529 
L 396.539345 156.670044 
L 397.188655 170.589875 
L 397.837964 167.590492 
L 398.487273 162.953956 
L 398.487273 162.953956 
" clip-path="url(#p71c7eacb5d)" style="fill: none; stroke: #8c564b; stroke-width: 1.5; stroke-linecap: square"/>
   </g>
  </g>
 </g>
 <defs>
  <clipPath id="p71c7eacb5d">
   <rect x="57.6" y="41.472" width="357.12" height="266.112"/>
  </clipPath>
 </defs>
</svg>
