<?xml version="1.0" encoding="utf-8" standalone="no"?>
<!DOCTYPE svg PUBLIC "-//W3C//DTD SVG 1.1//EN"
  "http://www.w3.org/Graphics/SVG/1.1/DTD/svg11.dtd">
<svg xmlns:xlink="http://www.w3.org/1999/xlink" width="460.8pt" height="345.6pt" viewBox="0 0 460.8 345.6" xmlns="http://www.w3.org/2000/svg" version="1.1">
 <metadata>
  <rdf:RDF xmlns:dc="http://purl.org/dc/elements/1.1/" xmlns:cc="http://creativecommons.org/ns#" xmlns:rdf="http://www.w3.org/1999/02/22-rdf-syntax-ns#">
   <cc:Work>
    <dc:type rdf:resource="http://purl.org/dc/dcmitype/StillImage"/>
    <dc:date>2026-03-20T12:42:58.820687</dc:date>
    <dc:format>image/svg+xml</dc:format>
    <dc:creator>
     <cc:Agent>
      <dc:title>Matplotlib v3.10.8, https://matplotlib.org/</dc:title>
     </cc:Agent>
    </dc:creator>
   </cc:Work>
  </rdf:RDF>
 </metadata>
 <defs>
  <style type="text/css">*{stroke-linejoin: round; stroke-linecap: butt}</style>
 </defs>
 <g id="figure_1">
  <g id="patch_1">
   <path d="M 0 345.6 
L 460.8 345.6 
L 460.8 0 
L 0 0 
z
" style="fill: #ffffff"/>
  </g>
  <g id="axes_1">
   <g id="patch_2">
    <path d="M 57.6 307.584 
L 414.72 307.584 
L 414.72 41.472 
L 57.6 41.472 
z
" style="fill: #ffffff"/>
   </g>
   <g id="matplotlib.axis_1">
    <g id="xtick_1">
     <g id="line2d_1">
      <defs>
       <path id="m29cd2aaa01" d="M 0 0 
L 0 3.5 
" style="stroke: #000000; stroke-width: 0.8"/>
      </defs>
      <g>
       <use xlink:href="#m29cd2aaa01" x="73.832727" y="307.584" style="stroke: #000000; stroke-width: 0.8"/>
      </g>
     </g>
     <g id="text_1">
      <!-- 0 -->
      <g transform="translate(70.651477 322.182437) scale(0.1 -0.1)">
       <defs>
        <path id="DejaVuSans-30" d="M 2034 4250 
Q 1547 4250 1301 3770 
Q 1056 3291 1056 2328 
Q 1056 1369 1301 889 
Q 1547 409 2034 409 
Q 2525 409 2770 889 
Q 3016 1369 3016 2328 
Q 3016 3291 2770 3770 
Q 2525 4250 2034 4250 
z
M 2034 4750 
Q 2819 4750 3233 4129 
Q 3647 3509 3647 2328 
Q 3647 1150 3233 529 
Q 2819 -91 2034 -91 
Q 1250 -91 836 529 
Q 422 1150 422 2328 
Q 422 3509 836 4129 
Q 1250 4750 2034 4750 
z
" transform="scale(0.015625)"/>
       </defs>
       <use xlink:href="#DejaVuSans-30"/>
      </g>
     </g>
    </g>
    <g id="xtick_2">
     <g id="line2d_2">
      <g>
       <use xlink:href="#m29cd2aaa01" x="138.763636" y="307.584" style="stroke: #000000; stroke-width: 0.8"/>
      </g>
     </g>
     <g id="text_2">
      <!-- 100 -->
      <g transform="translate(129.219886 322.182437) scale(0.1 -0.1)">
       <defs>
        <path id="DejaVuSans-31" d="M 794 531 
L 1825 531 
L 1825 4091 
L 703 3866 
L 703 4441 
L 1819 4666 
L 2450 4666 
L 2450 531 
L 3481 531 
L 3481 0 
L 794 0 
L 794 531 
z
" transform="scale(0.015625)"/>
       </defs>
       <use xlink:href="#DejaVuSans-31"/>
       <use xlink:href="#DejaVuSans-30" transform="translate(63.623047 0)"/>
       <use xlink:href="#DejaVuSans-30" transform="translate(127.246094 0)"/>
      </g>
     </g>
    </g>
    <g id="xtick_3">
     <g id="line2d_3">
      <g>
       <use xlink:href="#m29cd2aaa01" x="203.694545" y="307.584" style="stroke: #000000; stroke-width: 0.8"/>
      </g>
     </g>
     <g id="text_3">
      <!-- 200 -->
      <g transform="translate(194.150795 322.182437) scale(0.1 -0.1)">
       <defs>
        <path id="DejaVuSans-32" d="M 1228 531 
L 3431 531 
L 3431 0 
L 469 0 
L 469 531 
Q 828 903 1448 1529 
Q 2069 2156 2228 2338 
Q 2531 2678 2651 2914 
Q 2772 3150 2772 3378 
Q 2772 3750 2511 3984 
Q 2250 4219 1831 4219 
Q 1534 4219 1204 4116 
Q 875 4013 500 3803 
L 500 4441 
Q 881 4594 1212 4672 
Q 1544 4750 1819 4750 
Q 2544 4750 2975 4387 
Q 3406 4025 3406 3419 
Q 3406 3131 3298 2873 
Q 3191 2616 2906 2266 
Q 2828 2175 2409 1742 
Q 1991 1309 1228 531 
z
" transform="scale(0.015625)"/>
       </defs>
       <use xlink:href="#DejaVuSans-32"/>
       <use xlink:href="#DejaVuSans-30" transform="translate(63.623047 0)"/>
       <use xlink:href="#DejaVuSans-30" transform="translate(127.246094 0)"/>
      </g>
     </g>
    </g>
    <g id="xtick_4">
     <g id="line2d_4">
      <g>
       <use xlink:href="#m29cd2aaa01" x="268.625455" y="307.584" style="stroke: #000000; stroke-width: 0.8"/>
      </g>
     </g>
     <g id="text_4">
      <!-- 300 -->
      <g transform="translate(259.081705 322.182437) scale(0.1 -0.1)">
       <defs>
        <path id="DejaVuSans-33" d="M 2597 2516 
Q 3050 2419 3304 2112 
Q 3559 1806 3559 1356 
Q 3559 666 3084 287 
Q 2609 -91 1734 -91 
Q 1441 -91 1130 -33 
Q 819 25 488 141 
L 488 750 
Q 750 597 1062 519 
Q 1375 441 1716 441 
Q 2309 441 2620 675 
Q 2931 909 2931 1356 
Q 2931 1769 2642 2001 
Q 2353 2234 1838 2234 
L 1294 2234 
L 1294 2753 
L 1863 2753 
Q 2328 2753 2575 2939 
Q 2822 3125 2822 3475 
Q 2822 3834 2567 4026 
Q 2313 4219 1838 4219 
Q 1578 4219 1281 4162 
Q 984 4106 628 3988 
L 628 4550 
Q 988 4650 1302 4700 
Q 1616 4750 1894 4750 
Q 2613 4750 3031 4423 
Q 3450 4097 3450 3541 
Q 3450 3153 3228 2886 
Q 3006 2619 2597 2516 
z
" transform="scale(0.015625)"/>
       </defs>
       <use xlink:href="#DejaVuSans-33"/>
       <use xlink:href="#DejaVuSans-30" transform="translate(63.623047 0)"/>
       <use xlink:href="#DejaVuSans-30" transform="translate(127.246094 0)"/>
      </g>
     </g>
    </g>
    <g id="xtick_5">
     <g id="line2d_5">
      <g>
       <use xlink:href="#m29cd2aaa01" x="333.556364" y="307.584" style="stroke: #000000; stroke-width: 0.8"/>
      </g>
     </g>
     <g id="text_5">
      <!-- 400 -->
      <g transform="translate(324.012614 322.182437) scale(0.1 -0.1)">
       <defs>
        <path id="DejaVuSans-34" d="M 2419 4116 
L 825 1625 
L 2419 1625 
L 2419 4116 
z
M 2253 4666 
L 3047 4666 
L 3047 1625 
L 3713 1625 
L 3713 1100 
L 3047 1100 
L 3047 0 
L 2419 0 
L 2419 1100 
L 313 1100 
L 313 1709 
L 2253 4666 
z
" transform="scale(0.015625)"/>
       </defs>
       <use xlink:href="#DejaVuSans-34"/>
       <use xlink:href="#DejaVuSans-30" transform="translate(63.623047 0)"/>
       <use xlink:href="#DejaVuSans-30" transform="translate(127.246094 0)"/>
      </g>
     </g>
    </g>
    <g id="xtick_6">
     <g id="line2d_6">
      <g>
       <use xlink:href="#m29cd2aaa01" x="398.487273" y="307.584" style="stroke: #000000; stroke-width: 0.8"/>
      </g>
     </g>
     <g id="text_6">
      <!-- 500 -->
      <g transform="translate(388.943523 322.182437) scale(0.1 -0.1)">
       <defs>
        <path id="DejaVuSans-35" d="M 691 4666 
L 3169 4666 
L 3169 4134 
L 1269 4134 
L 1269 2991 
Q 1406 3038 1543 3061 
Q 1681 3084 1819 3084 
Q 2600 3084 3056 2656 
Q 3513 2228 3513 1497 
Q 3513 744 3044 326 
Q 2575 -91 1722 -91 
Q 1428 -91 1123 -41 
Q 819 9 494 109 
L 494 744 
Q 775 591 1075 516 
Q 1375 441 1709 441 
Q 2250 441 2565 725 
Q 2881 1009 2881 1497 
Q 2881 1984 2565 2268 
Q 2250 2553 1709 2553 
Q 1456 2553 1204 2497 
Q 953 2441 691 2322 
L 691 4666 
z
" transform="scale(0.015625)"/>
       </defs>
       <use xlink:href="#DejaVuSans-35"/>
       <use xlink:href="#DejaVuSans-30" transform="translate(63.623047 0)"/>
       <use xlink:href="#DejaVuSans-30" transform="translate(127.246094 0)"/>
      </g>
     </g>
    </g>
   </g>
   <g id="matplotlib.axis_2">
    <g id="ytick_1">
     <g id="line2d_7">
      <defs>
       <path id="m6ddfe2a22a" d="M 0 0 
L -3.5 0 
" style="stroke: #000000; stroke-width: 0.8"/>
      </defs>
      <g>
       <use xlink:href="#m6ddfe2a22a" x="57.6" y="302.327276" style="stroke: #000000; stroke-width: 0.8"/>
      </g>
     </g>
     <g id="text_7">
      <!-- 0.0 -->
      <g transform="translate(34.696875 306.126495) scale(0.1 -0.1)">
       <defs>
        <path id="DejaVuSans-2e" d="M 684 794 
L 1344 794 
L 1344 0 
L 684 0 
L 684 794 
z
" transform="scale(0.015625)"/>
       </defs>
       <use xlink:href="#DejaVuSans-30"/>
       <use xlink:href="#DejaVuSans-2e" transform="translate(63.623047 0)"/>
       <use xlink:href="#DejaVuSans-30" transform="translate(95.410156 0)"/>
      </g>
     </g>
    </g>
    <g id="ytick_2">
     <g id="line2d_8">
      <g>
       <use xlink:href="#m6ddfe2a22a" x="57.6" y="252.480336" style="stroke: #000000; stroke-width: 0.8"/>
      </g>
     </g>
     <g id="text_8">
      <!-- 0.2 -->
      <g transform="translate(34.696875 256.279555) scale(0.1 -0.1)">
       <use xlink:href="#DejaVuSans-30"/>
       <use xlink:href="#DejaVuSans-2e" transform="translate(63.623047 0)"/>
       <use xlink:href="#DejaVuSans-32" transform="translate(95.410156 0)"/>
      </g>
     </g>
    </g>
    <g id="ytick_3">
     <g id="line2d_9">
      <g>
       <use xlink:href="#m6ddfe2a22a" x="57.6" y="202.633397" style="stroke: #000000; stroke-width: 0.8"/>
      </g>
     </g>
     <g id="text_9">
      <!-- 0.4 -->
      <g transform="translate(34.696875 206.432616) scale(0.1 -0.1)">
       <use xlink:href="#DejaVuSans-30"/>
       <use xlink:href="#DejaVuSans-2e" transform="translate(63.623047 0)"/>
       <use xlink:href="#DejaVuSans-34" transform="translate(95.410156 0)"/>
      </g>
     </g>
    </g>
    <g id="ytick_4">
     <g id="line2d_10">
      <g>
       <use xlink:href="#m6ddfe2a22a" x="57.6" y="152.786457" style="stroke: #000000; stroke-width: 0.8"/>
      </g>
     </g>
     <g id="text_10">
      <!-- 0.6 -->
      <g transform="translate(34.696875 156.585676) scale(0.1 -0.1)">
       <defs>
        <path id="DejaVuSans-36" d="M 2113 2584 
Q 1688 2584 1439 2293 
Q 1191 2003 1191 1497 
Q 1191 994 1439 701 
Q 1688 409 2113 409 
Q 2538 409 2786 701 
Q 3034 994 3034 1497 
Q 3034 2003 2786 2293 
Q 2538 2584 2113 2584 
z
M 3366 4563 
L 3366 3988 
Q 3128 4100 2886 4159 
Q 2644 4219 2406 4219 
Q 1781 4219 1451 3797 
Q 1122 3375 1075 2522 
Q 1259 2794 1537 2939 
Q 1816 3084 2150 3084 
Q 2853 3084 3261 2657 
Q 3669 2231 3669 1497 
Q 3669 778 3244 343 
Q 2819 -91 2113 -91 
Q 1303 -91 875 529 
Q 447 1150 447 2328 
Q 447 3434 972 4092 
Q 1497 4750 2381 4750 
Q 2619 4750 2861 4703 
Q 3103 4656 3366 4563 
z
" transform="scale(0.015625)"/>
       </defs>
       <use xlink:href="#DejaVuSans-30"/>
       <use xlink:href="#DejaVuSans-2e" transform="translate(63.623047 0)"/>
       <use xlink:href="#DejaVuSans-36" transform="translate(95.410156 0)"/>
      </g>
     </g>
    </g>
    <g id="ytick_5">
     <g id="line2d_11">
      <g>
       <use xlink:href="#m6ddfe2a22a" x="57.6" y="102.939518" style="stroke: #000000; stroke-width: 0.8"/>
      </g>
     </g>
     <g id="text_11">
      <!-- 0.8 -->
      <g transform="translate(34.696875 106.738736) scale(0.1 -0.1)">
       <defs>
        <path id="DejaVuSans-38" d="M 2034 2216 
Q 1584 2216 1326 1975 
Q 1069 1734 1069 1313 
Q 1069 891 1326 650 
Q 1584 409 2034 409 
Q 2484 409 2743 651 
Q 3003 894 3003 1313 
Q 3003 1734 2745 1975 
Q 2488 2216 2034 2216 
z
M 1403 2484 
Q 997 2584 770 2862 
Q 544 3141 544 3541 
Q 544 4100 942 4425 
Q 1341 4750 2034 4750 
Q 2731 4750 3128 4425 
Q 3525 4100 3525 3541 
Q 3525 3141 3298 2862 
Q 3072 2584 2669 2484 
Q 3125 2378 3379 2068 
Q 3634 1759 3634 1313 
Q 3634 634 3220 271 
Q 2806 -91 2034 -91 
Q 1263 -91 848 271 
Q 434 634 434 1313 
Q 434 1759 690 2068 
Q 947 2378 1403 2484 
z
M 1172 3481 
Q 1172 3119 1398 2916 
Q 1625 2713 2034 2713 
Q 2441 2713 2670 2916 
Q 2900 3119 2900 3481 
Q 2900 3844 2670 4047 
Q 2441 4250 2034 4250 
Q 1625 4250 1398 4047 
Q 1172 3844 1172 3481 
z
" transform="scale(0.015625)"/>
       </defs>
       <use xlink:href="#DejaVuSans-30"/>
       <use xlink:href="#DejaVuSans-2e" transform="translate(63.623047 0)"/>
       <use xlink:href="#DejaVuSans-38" transform="translate(95.410156 0)"/>
      </g>
     </g>
    </g>
    <g id="ytick_6">
     <g id="line2d_12">
      <g>
       <use xlink:href="#m6ddfe2a22a" x="57.6" y="53.092578" style="stroke: #000000; stroke-width: 0.8"/>
      </g>
     </g>
     <g id="text_12">
      <!-- 1.0 -->
      <g transform="translate(34.696875 56.891797) scale(0.1 -0.1)">
       <use xlink:href="#DejaVuSans-31"/>
       <use xlink:href="#DejaVuSans-2e" transform="translate(63.623047 0)"/>
       <use xlink:href="#DejaVuSans-30" transform="translate(95.410156 0)"/>
      </g>
     </g>
    </g>
   </g>
   <g id="line2d_13">
    <path d="M 73.832727 176.716046 
L 74.482036 177.51881 
L 75.780655 175.632973 
L 76.429964 178.550907 
L 77.079273 177.212979 
L 77.728582 176.333783 
L 78.377891 177.263949 
L 79.0272 175.671196 
L 79.676509 175.862328 
L 80.325818 175.645719 
L 80.975127 175.938789 
L 81.624436 173.976506 
L 82.273745 175.046833 
L 83.572364 173.785374 
L 84.221673 174.753763 
L 84.870982 175.021355 
L 85.520291 174.065698 
L 86.1696 174.052952 
L 86.818909 174.677331 
L 87.468218 174.384246 
L 88.117527 174.422469 
L 88.766836 174.626346 
L 90.065455 171.950506 
L 90.714764 173.657943 
L 91.364073 172.816971 
L 92.662691 172.511169 
L 93.312 172.68957 
L 93.961309 171.670182 
L 94.610618 172.91891 
L 95.259927 171.479051 
L 95.909236 171.810359 
L 96.558545 171.313411 
L 97.207855 173.071832 
L 97.857164 173.581497 
L 98.506473 173.670689 
L 99.155782 172.345515 
L 99.805091 171.428096 
L 101.103709 174.460707 
L 101.753018 170.689062 
L 103.051636 172.536647 
L 103.700945 172.498423 
L 104.350255 171.389858 
L 104.999564 171.581019 
L 105.648873 170.523408 
L 106.298182 171.313411 
L 106.947491 171.287934 
L 107.5968 171.874074 
L 108.246109 169.950014 
L 108.895418 169.873552 
L 109.544727 170.982103 
L 110.843345 170.07743 
L 111.492655 171.147757 
L 112.141964 171.147772 
L 112.791273 169.134519 
L 113.440582 170.587124 
L 114.089891 169.21098 
L 114.7392 171.249711 
L 115.388509 170.791001 
L 116.037818 169.402112 
L 116.687127 170.230338 
L 117.336436 170.778255 
L 117.985745 169.185488 
L 118.635055 170.102922 
L 119.284364 170.192115 
L 119.933673 170.153891 
L 120.582982 168.561124 
L 121.232291 168.879687 
L 121.8816 169.695167 
L 122.530909 168.765002 
L 123.180218 169.55502 
L 123.829527 168.917895 
L 124.478836 168.675809 
L 125.128145 168.701301 
L 125.777455 169.159996 
L 126.426764 168.535662 
L 127.076073 168.726764 
L 128.374691 167.936775 
L 129.673309 168.089669 
L 130.322618 167.28692 
L 130.971927 167.936761 
L 131.621236 168.102415 
L 132.270545 167.223219 
L 132.919855 168.115161 
L 133.569164 167.388858 
L 134.218473 167.325143 
L 134.867782 167.554513 
L 135.517091 168.44644 
L 136.1664 168.2808 
L 136.815709 167.261442 
L 137.465018 169.121773 
L 138.114327 168.2808 
L 138.763636 168.548378 
L 139.412945 174.116668 
L 140.062255 175.097802 
L 140.711564 173.912805 
L 141.360873 173.696167 
L 142.010182 174.116668 
L 142.659491 174.065698 
L 143.3088 170.192115 
L 143.958109 170.357754 
L 144.607418 170.217607 
L 145.256727 171.912298 
L 145.906036 169.147265 
L 146.555345 169.504036 
L 147.204655 167.974999 
L 147.853964 168.076923 
L 148.503273 167.223204 
L 149.152582 165.694167 
L 150.4512 164.203339 
L 151.100509 164.33077 
L 151.749818 160.992343 
L 152.399127 162.776226 
L 153.048436 159.272174 
L 153.697745 159.667169 
L 154.347055 157.53926 
L 154.996364 157.373606 
L 155.645673 156.252295 
L 156.944291 154.493903 
L 157.5936 152.42968 
L 158.242909 152.009194 
L 158.892218 148.670782 
L 159.541527 149.078522 
L 160.190836 147.613171 
L 160.840145 145.727363 
L 161.489455 145.357832 
L 162.138764 141.407801 
L 162.788073 142.427159 
L 163.437382 141.649917 
L 164.086691 138.808423 
L 164.736 137.190164 
L 165.385309 134.565307 
L 166.034618 133.826274 
L 166.683927 131.711082 
L 167.333236 132.182552 
L 167.982545 130.526085 
L 168.631855 126.932825 
L 169.281164 126.843633 
L 169.930473 123.314074 
L 170.579782 122.307462 
L 171.229091 119.644368 
L 171.8784 117.46546 
L 172.527709 116.47158 
L 173.177018 115.222867 
L 175.124945 106.83859 
L 175.774255 106.672951 
L 176.423564 103.767756 
L 177.072873 102.812084 
L 177.722182 101.525148 
L 178.371491 97.167363 
L 179.0208 98.964007 
L 179.670109 94.567999 
L 180.319418 92.618446 
L 180.968727 89.942606 
L 181.618036 88.222437 
L 182.267345 88.286138 
L 182.916655 86.616954 
L 183.565964 81.252527 
L 184.215273 79.863638 
L 184.864582 75.9391 
L 185.513891 73.989562 
L 186.1632 73.021159 
L 186.812509 71.594046 
L 187.461818 72.62615 
L 188.760436 68.281111 
L 190.059055 66.229649 
L 190.708364 64.127218 
L 192.006982 62.139442 
L 192.656291 61.897341 
L 193.3056 60.508466 
L 193.954909 60.355529 
L 194.604218 59.348946 
L 195.253527 59.323454 
L 195.902836 58.597152 
L 197.201455 58.100219 
L 197.850764 57.768911 
L 198.500073 58.125696 
L 199.149382 57.501333 
L 199.798691 57.221008 
L 200.448 57.170024 
L 201.097309 56.991668 
L 201.746618 57.221008 
L 203.694545 56.596645 
L 204.993164 161.616706 
L 206.941091 147.766094 
L 207.5904 146.364458 
L 208.239709 146.657528 
L 208.889018 142.108612 
L 209.538327 139.445532 
L 210.187636 137.827288 
L 210.836945 134.488861 
L 211.486255 128.729455 
L 212.135564 130.054629 
L 212.784873 127.455235 
L 213.434182 126.423161 
L 214.083491 122.383894 
L 214.7328 124.499071 
L 215.382109 122.090838 
L 216.031418 116.331432 
L 216.680727 118.229986 
L 217.330036 116.114809 
L 217.979345 115.630622 
L 218.628655 112.674443 
L 219.277964 107.424731 
L 219.927273 113.184137 
L 221.225891 109.718293 
L 221.8752 108.711667 
L 222.524509 107.055184 
L 223.173818 106.074064 
L 223.823127 101.703533 
L 224.472436 101.537894 
L 225.121745 99.766741 
L 225.771055 99.014977 
L 226.420364 93.344748 
L 227.069673 93.230064 
L 227.718982 97.027201 
L 228.368291 91.85395 
L 229.0176 89.152588 
L 229.666909 90.732624 
L 230.316218 90.860054 
L 230.965527 88.974232 
L 231.614836 87.980352 
L 232.264145 84.590955 
L 232.913455 82.959964 
L 234.212073 80.551732 
L 234.861382 81.609298 
L 235.510691 78.882518 
L 236.16 81.736729 
L 236.809309 78.869757 
L 237.458618 78.130709 
L 238.107927 73.530838 
L 238.757236 73.734715 
L 239.406545 74.48648 
L 240.055855 70.24338 
L 240.705164 72.613419 
L 241.354473 70.268872 
L 242.003782 70.154217 
L 242.653091 68.561435 
L 243.3024 66.229634 
L 243.951709 66.318842 
L 244.601018 64.828028 
L 245.250327 62.368797 
L 245.899636 61.056383 
L 246.548945 63.528346 
L 247.198255 61.667986 
L 247.847564 60.521183 
L 248.496873 60.521198 
L 249.146182 60.253605 
L 249.795491 60.215381 
L 250.4448 59.50184 
L 251.094109 58.22765 
L 251.743418 57.896341 
L 253.042036 56.825999 
L 253.691345 56.762299 
L 254.340655 56.469229 
L 254.989964 56.048728 
L 255.639273 56.227143 
L 256.288582 55.946804 
L 257.5872 55.755657 
L 258.236509 55.870342 
L 258.885818 55.564541 
L 260.184436 55.360678 
L 260.833745 54.876476 
L 261.483055 55.309694 
L 262.132364 54.940177 
L 262.781673 55.093085 
L 264.080291 54.685345 
L 264.7296 54.62163 
L 265.378909 54.825507 
L 268.625455 54.62163 
L 269.274764 56.583913 
L 269.924073 85.011441 
L 270.573382 106.341643 
L 271.222691 106.226958 
L 271.872 117.134182 
L 272.521309 114.573026 
L 273.170618 109.74377 
L 273.819927 108.151018 
L 274.469236 110.177018 
L 275.767855 104.073557 
L 276.417164 102.009349 
L 277.066473 105.233092 
L 277.715782 105.373239 
L 278.365091 101.690787 
L 279.0144 99.588356 
L 279.663709 100.225436 
L 280.313018 102.276928 
L 280.962327 94.606207 
L 281.611636 91.879397 
L 282.260945 92.006843 
L 283.559564 96.09705 
L 284.208873 91.395211 
L 284.858182 89.713266 
L 285.507491 89.929874 
L 286.1568 84.234184 
L 286.806109 86.910024 
L 287.455418 88.082275 
L 288.104727 89.751489 
L 289.403345 84.896756 
L 290.052655 85.024202 
L 290.701964 83.20208 
L 291.351273 82.284631 
L 292.000582 82.157215 
L 292.649891 78.66591 
L 293.2992 77.200559 
L 293.948509 79.111873 
L 294.597818 77.977816 
L 295.896436 71.17356 
L 297.195055 73.479868 
L 297.844364 70.103232 
L 298.493673 68.319349 
L 299.142982 69.071129 
L 299.792291 68.395795 
L 300.4416 71.020666 
L 301.090909 71.007905 
L 301.740218 69.262245 
L 302.389527 66.58642 
L 303.038836 64.433004 
L 303.688145 63.069622 
L 304.337455 63.846879 
L 304.986764 61.744433 
L 305.636073 60.228127 
L 306.285382 59.692971 
L 306.934691 61.502362 
L 307.584 61.515078 
L 308.233309 59.807641 
L 308.882618 59.552824 
L 309.531927 58.406035 
L 310.181236 57.526825 
L 310.830545 57.220994 
L 311.479855 57.233754 
L 312.129164 56.532944 
L 312.778473 56.341798 
L 314.077091 56.507437 
L 314.7264 55.895834 
L 315.375709 55.717449 
L 316.025018 55.335186 
L 316.674327 55.590033 
L 317.323636 54.940177 
L 317.972945 55.195009 
L 318.622255 54.863716 
L 320.570182 54.812746 
L 321.8688 54.761792 
L 322.518109 54.481468 
L 323.167418 54.596137 
L 323.816727 54.290336 
L 324.466036 54.379529 
L 325.115345 54.239352 
L 326.413964 54.443244 
L 327.063273 54.16289 
L 329.660509 54.086473 
L 330.309818 54.252098 
L 331.608436 54.060981 
L 332.257745 54.226606 
L 332.907055 53.971774 
L 333.556364 54.04822 
L 334.205673 59.234262 
L 334.854982 81.86416 
L 335.504291 88.846801 
L 336.1536 79.341243 
L 336.802909 78.857026 
L 337.452218 88.031321 
L 338.101527 79.404914 
L 338.750836 78.806057 
L 339.400145 86.323854 
L 340.049455 85.011426 
L 340.698764 93.612341 
L 341.348073 91.076663 
L 341.997382 92.962471 
L 342.646691 90.80907 
L 343.296 86.018053 
L 343.945309 85.877891 
L 344.594618 89.598581 
L 345.243927 82.017038 
L 345.893236 82.348362 
L 346.542545 81.97883 
L 347.191855 87.305004 
L 347.841164 84.603701 
L 348.490473 80.832041 
L 349.139782 81.609328 
L 349.789091 77.175066 
L 351.087709 75.187335 
L 351.737018 77.175081 
L 352.386327 78.411063 
L 353.035636 76.499748 
L 353.684945 75.658791 
L 354.334255 75.454883 
L 354.983564 72.562434 
L 356.282182 68.44675 
L 356.931491 67.720462 
L 357.5808 65.770939 
L 358.230109 66.229649 
L 358.879418 62.738328 
L 359.528727 63.197038 
L 360.178036 62.980429 
L 360.827345 64.369304 
L 361.476655 63.120591 
L 362.125964 64.038025 
L 362.775273 67.835147 
L 363.424582 69.325961 
L 364.073891 64.751567 
L 364.7232 63.464616 
L 365.372509 61.515078 
L 367.320436 58.584421 
L 367.969745 58.29135 
L 368.619055 58.507959 
L 369.268364 57.679733 
L 369.917673 56.571153 
L 370.566982 57.34841 
L 371.216291 56.418259 
L 373.164218 56.405528 
L 373.813527 56.851492 
L 375.761455 55.61551 
L 380.306618 54.532437 
L 380.955927 54.57066 
L 381.605236 54.290336 
L 382.254545 54.328559 
L 382.903855 54.175651 
L 384.202473 54.264859 
L 384.851782 54.124682 
L 390.046255 53.831627 
L 390.695564 53.729658 
L 392.643491 53.831627 
L 393.2928 53.716927 
L 393.942109 53.908073 
L 395.890036 53.70421 
L 396.539345 53.704196 
L 397.837964 53.869835 
L 398.487273 53.742419 
L 398.487273 53.742419 
" clip-path="url(#p1db4e53949)" style="fill: none; stroke: #1f77b4; stroke-width: 1.5; stroke-linecap: square"/>
   </g>
   <g id="line2d_14">
    <path d="M 73.832727 177.709927 
L 74.482036 169.830635 
L 75.131345 170.679585 
L 75.780655 162.917636 
L 76.429964 174.153524 
L 77.079273 165.056107 
L 77.728582 161.414181 
L 78.377891 162.3599 
L 79.0272 156.458415 
L 79.676509 157.298467 
L 80.325818 162.323756 
L 80.975127 151.113048 
L 81.624436 152.079743 
L 82.923055 151.469745 
L 83.572364 153.127579 
L 84.870982 148.636109 
L 85.520291 149.18979 
L 86.1696 154.174687 
L 86.818909 152.348762 
L 87.468218 139.381178 
L 88.117527 150.203458 
L 88.766836 142.062396 
L 89.416145 142.890712 
L 90.065455 140.376277 
L 90.714764 142.59369 
L 91.364073 138.933685 
L 92.013382 148.689871 
L 92.662691 136.217749 
L 93.312 138.176735 
L 93.961309 138.696754 
L 94.610618 137.912708 
L 95.259927 139.135512 
L 95.909236 142.632909 
L 96.558545 138.364346 
L 97.207855 132.79567 
L 97.857164 145.66965 
L 99.155782 133.52074 
L 99.805091 137.142106 
L 100.4544 134.01589 
L 101.103709 137.039944 
L 101.753018 135.869223 
L 102.402327 132.009262 
L 103.051636 137.60288 
L 103.700945 126.510274 
L 104.350255 130.992222 
L 104.999564 128.143671 
L 105.648873 130.372478 
L 106.298182 131.312552 
L 106.947491 126.270476 
L 107.5968 131.227519 
L 108.246109 130.30542 
L 108.895418 134.962857 
L 109.544727 127.808961 
L 110.194036 128.580914 
L 110.843345 129.931863 
L 111.492655 127.808173 
L 112.141964 131.966716 
L 112.791273 122.407663 
L 113.440582 131.43615 
L 114.089891 131.11175 
L 114.7392 129.859813 
L 115.388509 127.66969 
L 116.037818 124.083903 
L 116.687127 128.355719 
L 117.336436 128.203093 
L 117.985745 129.691411 
L 118.635055 122.5617 
L 119.284364 123.23222 
L 119.933673 122.331439 
L 120.582982 122.941749 
L 121.232291 119.258822 
L 121.8816 125.956222 
L 122.530909 120.234192 
L 123.180218 123.809625 
L 123.829527 118.274731 
L 124.478836 126.086178 
L 125.128145 118.976373 
L 125.777455 120.073024 
L 126.426764 116.200956 
L 127.076073 116.614757 
L 127.725382 120.828711 
L 128.374691 119.591363 
L 129.024 109.144691 
L 130.322618 120.945357 
L 130.971927 117.892884 
L 131.621236 111.905386 
L 132.270545 113.487219 
L 132.919855 122.386701 
L 133.569164 119.081313 
L 134.218473 114.571645 
L 134.867782 112.112398 
L 135.517091 120.833227 
L 136.1664 114.977349 
L 136.815709 115.436252 
L 137.465018 119.447428 
L 138.114327 114.009659 
L 138.763636 120.595048 
L 139.412945 140.28392 
L 140.062255 138.346103 
L 140.711564 138.2302 
L 141.360873 135.885015 
L 142.010182 134.716373 
L 142.659491 143.330822 
L 143.3088 131.573846 
L 143.958109 136.861499 
L 144.607418 135.615609 
L 145.256727 139.738707 
L 145.906036 137.785009 
L 146.555345 146.230595 
L 147.204655 134.366184 
L 147.853964 145.212812 
L 148.503273 137.458113 
L 149.152582 138.607977 
L 149.801891 140.278037 
L 150.4512 143.481368 
L 151.100509 145.096196 
L 151.749818 141.444079 
L 152.399127 142.57209 
L 153.048436 140.93694 
L 153.697745 141.011203 
L 154.347055 137.049823 
L 154.996364 141.588787 
L 155.645673 144.659651 
L 156.294982 137.776452 
L 156.944291 143.238658 
L 157.5936 137.515812 
L 158.242909 140.236412 
L 158.892218 137.783345 
L 159.541527 137.822921 
L 160.190836 133.350748 
L 160.840145 132.428204 
L 161.489455 134.195003 
L 162.138764 133.338239 
L 162.788073 135.013128 
L 163.437382 133.809309 
L 164.086691 127.804682 
L 164.736 130.376712 
L 165.385309 125.460581 
L 166.034618 125.524 
L 166.683927 124.417737 
L 167.333236 125.961109 
L 167.982545 124.737309 
L 168.631855 120.732685 
L 169.281164 122.664366 
L 169.930473 119.798137 
L 170.579782 113.990926 
L 171.229091 116.300176 
L 171.8784 112.228063 
L 172.527709 115.37172 
L 173.177018 108.305457 
L 173.826327 109.209238 
L 174.475636 104.575823 
L 175.124945 105.511262 
L 175.774255 104.971813 
L 177.072873 97.125723 
L 177.722182 99.802811 
L 178.371491 93.523802 
L 179.0208 94.819711 
L 179.670109 92.490198 
L 180.319418 93.06025 
L 181.618036 84.675721 
L 182.267345 85.944711 
L 182.916655 85.580245 
L 183.565964 79.78526 
L 184.215273 78.706584 
L 184.864582 73.432746 
L 185.513891 71.778284 
L 186.1632 73.195295 
L 186.812509 72.203599 
L 187.461818 72.61229 
L 188.111127 70.065811 
L 188.760436 68.258679 
L 189.409745 66.835904 
L 190.059055 65.044949 
L 190.708364 65.039111 
L 192.006982 61.414877 
L 192.656291 62.268373 
L 193.954909 58.966773 
L 194.604218 58.887117 
L 195.253527 59.261685 
L 195.902836 58.324894 
L 196.552145 58.121462 
L 197.201455 58.134773 
L 197.850764 57.620311 
L 198.500073 58.151827 
L 199.149382 57.066258 
L 199.798691 57.079866 
L 200.448 57.426758 
L 201.746618 57.502937 
L 202.395927 56.856542 
L 203.694545 56.95704 
L 204.343855 106.416856 
L 204.993164 145.123693 
L 205.642473 141.263064 
L 206.291782 140.196257 
L 206.941091 131.561368 
L 207.5904 131.031307 
L 208.239709 137.046005 
L 208.889018 127.57916 
L 209.538327 126.04277 
L 210.187636 128.814919 
L 210.836945 126.27826 
L 211.486255 118.227802 
L 212.135564 126.149403 
L 212.784873 120.507475 
L 213.434182 120.986537 
L 214.083491 114.277534 
L 214.7328 117.760491 
L 215.382109 117.356554 
L 216.031418 112.981358 
L 216.680727 114.809957 
L 217.330036 114.227471 
L 218.628655 108.702813 
L 219.277964 102.258789 
L 219.927273 107.8973 
L 220.576582 106.417554 
L 221.225891 106.528629 
L 221.8752 106.330144 
L 222.524509 103.111661 
L 223.173818 103.194673 
L 223.823127 99.837172 
L 224.472436 99.736555 
L 225.121745 96.081912 
L 225.771055 95.403623 
L 226.420364 94.072923 
L 227.069673 91.445512 
L 227.718982 99.539585 
L 228.368291 90.252463 
L 229.0176 89.683287 
L 229.666909 89.561977 
L 230.316218 89.174024 
L 230.965527 89.030208 
L 232.913455 81.53863 
L 233.562764 81.91761 
L 234.212073 80.223246 
L 234.861382 80.991961 
L 235.510691 78.210349 
L 236.16 80.99725 
L 236.809309 78.132714 
L 237.458618 77.717353 
L 238.107927 73.584095 
L 238.757236 74.152973 
L 239.406545 73.232107 
L 240.055855 70.994238 
L 240.705164 72.239638 
L 241.354473 69.205096 
L 242.003782 71.86409 
L 243.3024 65.023943 
L 243.951709 66.589955 
L 244.601018 63.298338 
L 245.250327 61.70618 
L 245.899636 62.324542 
L 246.548945 64.423809 
L 247.198255 63.612845 
L 247.847564 60.878592 
L 248.496873 61.307204 
L 249.146182 59.950136 
L 249.795491 59.778643 
L 250.4448 58.683299 
L 251.094109 58.574824 
L 252.392727 56.838671 
L 253.042036 56.186973 
L 253.691345 56.833546 
L 254.340655 56.902149 
L 254.989964 55.743877 
L 255.639273 56.067609 
L 256.288582 56.111953 
L 256.937891 55.803641 
L 258.236509 55.748809 
L 258.885818 55.186378 
L 259.535127 54.866167 
L 260.184436 55.529289 
L 260.833745 54.985486 
L 261.483055 55.214188 
L 262.132364 54.913392 
L 262.781673 54.95836 
L 263.430982 54.694169 
L 264.7296 54.638461 
L 266.677527 54.765981 
L 267.326836 54.809047 
L 268.625455 54.445042 
L 269.274764 56.557441 
L 269.924073 81.865512 
L 270.573382 101.914675 
L 271.222691 98.663524 
L 271.872 108.016917 
L 272.521309 109.599969 
L 273.170618 100.03065 
L 273.819927 101.984036 
L 274.469236 100.149079 
L 275.118545 102.717602 
L 275.767855 97.086029 
L 276.417164 100.603213 
L 277.066473 98.778253 
L 277.715782 101.517571 
L 278.365091 97.855308 
L 279.0144 93.009533 
L 279.663709 94.591604 
L 280.313018 98.149671 
L 280.962327 90.950614 
L 281.611636 89.170221 
L 282.910255 91.824536 
L 283.559564 91.328732 
L 284.208873 89.985613 
L 284.858182 84.929483 
L 285.507491 87.600763 
L 286.1568 85.298762 
L 286.806109 83.921861 
L 287.455418 86.824753 
L 288.104727 87.79182 
L 288.754036 85.349717 
L 289.403345 84.355821 
L 290.052655 83.080814 
L 290.701964 83.452129 
L 291.351273 79.332938 
L 292.000582 79.89274 
L 292.649891 77.680051 
L 293.2992 78.146916 
L 294.597818 76.999979 
L 295.247127 74.5652 
L 295.896436 70.158079 
L 296.545745 70.669288 
L 297.195055 72.546168 
L 298.493673 67.368579 
L 299.142982 67.472999 
L 299.792291 67.409268 
L 300.4416 70.425375 
L 301.090909 68.903915 
L 301.740218 68.727609 
L 302.389527 66.330221 
L 303.038836 64.478745 
L 303.688145 62.265001 
L 304.337455 64.056996 
L 304.986764 61.211743 
L 305.636073 59.611711 
L 306.934691 60.763863 
L 307.584 61.590173 
L 308.233309 59.056797 
L 308.882618 59.411771 
L 309.531927 57.773872 
L 310.181236 56.955599 
L 311.479855 57.001384 
L 312.129164 56.203047 
L 312.778473 56.105297 
L 313.427782 56.506457 
L 314.077091 56.67783 
L 314.7264 56.375698 
L 316.025018 55.145733 
L 316.674327 55.802764 
L 317.323636 55.146669 
L 317.972945 55.189513 
L 318.622255 55.090901 
L 319.271564 54.741499 
L 319.920873 54.968284 
L 320.570182 55.069034 
L 321.219491 54.866642 
L 321.8688 54.498106 
L 323.167418 54.497601 
L 323.816727 54.254326 
L 324.466036 54.472376 
L 325.115345 54.201173 
L 325.764655 54.204501 
L 326.413964 54.446022 
L 327.063273 54.005436 
L 327.712582 54.127668 
L 329.0112 54.001737 
L 330.959127 54.27141 
L 331.608436 54.030691 
L 332.257745 54.076609 
L 333.556364 53.881348 
L 334.205673 58.697516 
L 334.854982 81.405183 
L 335.504291 85.35037 
L 336.1536 76.785866 
L 336.802909 77.099957 
L 337.452218 86.866854 
L 338.101527 77.013928 
L 338.750836 79.512705 
L 339.400145 83.257432 
L 340.049455 82.549773 
L 340.698764 94.061499 
L 341.348073 91.802193 
L 341.997382 91.7964 
L 342.646691 90.7294 
L 343.296 81.372025 
L 343.945309 87.313635 
L 344.594618 88.414594 
L 345.243927 81.005732 
L 346.542545 80.595942 
L 347.191855 85.336243 
L 347.841164 84.40682 
L 348.490473 79.230376 
L 349.139782 79.386968 
L 349.789091 75.26699 
L 350.4384 75.584661 
L 351.087709 74.462979 
L 351.737018 76.558933 
L 352.386327 76.598746 
L 353.035636 73.971453 
L 353.684945 74.620002 
L 354.334255 74.01752 
L 354.983564 70.54927 
L 355.632873 69.548289 
L 356.282182 67.78859 
L 356.931491 65.616412 
L 357.5808 64.628399 
L 358.230109 66.27585 
L 358.879418 62.777042 
L 359.528727 61.530944 
L 360.178036 63.916017 
L 360.827345 64.648246 
L 361.476655 62.748668 
L 362.125964 62.142056 
L 362.775273 66.341868 
L 363.424582 69.592261 
L 364.073891 63.76966 
L 364.7232 63.866117 
L 366.021818 59.814311 
L 366.671127 58.763697 
L 367.969745 58.005545 
L 368.619055 58.011353 
L 369.268364 57.734401 
L 369.917673 56.444123 
L 370.566982 57.465753 
L 371.216291 56.02484 
L 371.8656 56.225984 
L 373.813527 56.432223 
L 374.462836 55.954276 
L 375.112145 55.925233 
L 375.761455 55.531428 
L 376.410764 55.307852 
L 377.060073 55.357796 
L 378.358691 54.816668 
L 380.306618 54.619119 
L 380.955927 54.672837 
L 381.605236 54.151437 
L 382.254545 54.418346 
L 382.903855 54.099353 
L 383.553164 54.226531 
L 384.851782 53.929643 
L 385.501091 54.075525 
L 386.1504 53.981697 
L 386.799709 54.078273 
L 387.449018 53.929643 
L 390.695564 53.881838 
L 391.344873 53.638059 
L 392.643491 53.804931 
L 393.2928 53.80655 
L 393.942109 54.002034 
L 394.591418 53.978028 
L 395.240727 53.681972 
L 395.890036 53.831597 
L 397.188655 53.736194 
L 397.837964 53.981593 
L 398.487273 53.785857 
L 398.487273 53.785857 
" clip-path="url(#p1db4e53949)" style="fill: none; stroke: #ff7f0e; stroke-width: 1.5; stroke-linecap: square"/>
   </g>
   <g id="line2d_15">
    <path d="M 73.832727 177.709927 
L 74.482036 185.982713 
L 75.131345 183.310089 
L 75.780655 189.550547 
L 76.429964 183.638441 
L 77.079273 190.531006 
L 77.728582 192.80201 
L 78.377891 193.944164 
L 79.0272 196.803485 
L 79.676509 196.388874 
L 80.325818 190.487271 
L 80.975127 203.608781 
L 81.624436 198.244302 
L 82.273745 200.858291 
L 82.923055 199.654294 
L 83.572364 196.762172 
L 84.221673 201.414082 
L 84.870982 204.183935 
L 85.520291 201.652484 
L 86.1696 196.228991 
L 86.818909 199.51454 
L 87.468218 213.101363 
L 88.117527 201.531002 
L 88.766836 210.876619 
L 89.416145 206.939104 
L 90.065455 206.722696 
L 90.714764 208.231247 
L 91.364073 210.388503 
L 92.013382 199.284079 
L 92.662691 212.940559 
L 93.312 210.911321 
L 93.961309 208.068304 
L 94.610618 211.758147 
L 95.259927 207.408807 
L 95.909236 204.129007 
L 96.558545 207.86589 
L 97.207855 217.877933 
L 97.857164 204.574666 
L 98.506473 211.020755 
L 99.155782 215.397971 
L 99.805091 209.399963 
L 100.4544 216.264324 
L 101.103709 216.136596 
L 101.753018 209.587395 
L 102.402327 215.679543 
L 103.051636 211.693139 
L 103.700945 223.22535 
L 104.350255 216.241328 
L 104.999564 219.826179 
L 105.648873 214.945775 
L 106.298182 215.617157 
L 106.947491 221.207797 
L 107.5968 216.831345 
L 108.246109 213.580328 
L 108.895418 208.717945 
L 109.544727 218.717108 
L 110.194036 217.172726 
L 110.843345 214.448791 
L 111.492655 219.179977 
L 112.141964 214.78128 
L 112.791273 220.973354 
L 113.440582 214.008561 
L 114.089891 211.360598 
L 114.7392 217.168284 
L 116.037818 219.77255 
L 116.687127 216.584038 
L 117.336436 218.325011 
L 117.985745 212.935493 
L 118.635055 222.984074 
L 119.284364 222.07874 
L 119.933673 222.98241 
L 120.582982 219.113944 
L 121.232291 223.811862 
L 121.8816 218.360753 
L 122.530909 222.490476 
L 123.180218 220.368807 
L 123.829527 225.056066 
L 124.478836 216.18143 
L 125.128145 223.973743 
L 125.777455 223.67433 
L 126.426764 226.399847 
L 127.076073 226.371443 
L 127.725382 220.996781 
L 128.374691 221.656204 
L 129.024 232.829624 
L 129.673309 226.683513 
L 130.322618 219.036681 
L 130.971927 223.3233 
L 131.621236 230.319349 
L 132.270545 226.795049 
L 132.919855 218.963458 
L 133.569164 221.214845 
L 134.218473 225.87578 
L 134.867782 228.923091 
L 135.517091 221.287355 
L 136.1664 227.20807 
L 136.815709 224.741604 
L 137.465018 224.278831 
L 138.114327 228.30663 
L 138.763636 221.941534 
L 139.412945 211.72487 
L 140.062255 215.560988 
L 140.711564 213.435672 
L 142.010182 217.652263 
L 142.659491 207.830496 
L 143.3088 212.853446 
L 143.958109 207.61593 
L 144.607418 208.726308 
L 145.256727 207.630103 
L 145.906036 203.88545 
L 146.555345 195.389326 
L 147.204655 205.244139 
L 147.853964 193.38772 
L 148.503273 200.318886 
L 149.152582 195.639471 
L 149.801891 192.146784 
L 150.4512 187.195468 
L 151.100509 185.569075 
L 151.749818 182.714946 
L 152.399127 185.198013 
L 153.048436 179.612811 
L 153.697745 180.488664 
L 154.347055 180.046043 
L 154.996364 175.216765 
L 155.645673 169.206137 
L 156.294982 174.976195 
L 156.944291 167.300661 
L 157.5936 168.636561 
L 158.242909 165.136149 
L 158.892218 160.862119 
L 159.541527 161.649299 
L 160.190836 163.429573 
L 161.489455 157.729887 
L 162.138764 150.272729 
L 162.788073 150.705293 
L 163.437382 150.269372 
L 164.086691 150.947528 
L 164.736 144.861567 
L 165.385309 144.577708 
L 166.034618 143.176176 
L 166.683927 139.856288 
L 167.333236 139.258308 
L 167.982545 136.87588 
L 168.631855 133.826155 
L 169.281164 131.476483 
L 169.930473 127.318594 
L 170.579782 131.584572 
L 171.229091 123.376125 
L 171.8784 123.336981 
L 172.527709 117.861583 
L 173.177018 122.782839 
L 173.826327 116.028082 
L 174.475636 115.697962 
L 175.124945 108.348255 
L 175.774255 108.594664 
L 176.423564 106.457011 
L 177.072873 109.103927 
L 177.722182 103.435987 
L 178.371491 101.200524 
L 179.0208 103.53084 
L 179.670109 96.852559 
L 180.319418 92.181381 
L 180.968727 91.43235 
L 181.618036 92.156914 
L 182.267345 90.815384 
L 182.916655 87.797866 
L 183.565964 82.851816 
L 184.215273 81.170451 
L 185.513891 76.408461 
L 186.1632 72.80816 
L 186.812509 70.925576 
L 187.461818 72.680016 
L 188.111127 71.245579 
L 188.760436 68.34392 
L 189.409745 67.589392 
L 190.059055 67.559933 
L 190.708364 63.096198 
L 192.006982 62.94687 
L 192.656291 61.528077 
L 193.3056 60.386948 
L 193.954909 61.864302 
L 194.604218 59.848093 
L 195.902836 58.885037 
L 196.552145 58.733808 
L 197.201455 58.062189 
L 197.850764 57.932619 
L 198.500073 58.121789 
L 199.149382 58.003643 
L 200.448 56.895137 
L 201.097309 56.500158 
L 201.746618 56.918312 
L 202.395927 57.130003 
L 203.694545 56.217011 
L 204.993164 179.948026 
L 205.642473 174.356302 
L 206.291782 163.900598 
L 206.941091 165.826367 
L 207.5904 163.310476 
L 208.239709 157.466542 
L 208.889018 158.14091 
L 209.538327 154.525456 
L 210.187636 148.062908 
L 210.836945 143.490222 
L 211.486255 140.490353 
L 212.135564 134.561579 
L 212.784873 135.116641 
L 213.434182 132.694311 
L 214.083491 131.397823 
L 214.7328 132.04854 
L 215.382109 127.467045 
L 216.031418 120.12389 
L 216.680727 121.966334 
L 217.330036 118.213095 
L 217.979345 120.394484 
L 218.628655 117.270659 
L 219.277964 113.240127 
L 219.927273 119.106582 
L 220.576582 117.118093 
L 221.225891 113.313276 
L 221.8752 111.303915 
L 222.524509 111.595039 
L 223.173818 109.205138 
L 223.823127 103.820166 
L 224.472436 103.622647 
L 225.121745 103.937807 
L 225.771055 103.032525 
L 226.420364 92.681255 
L 227.069673 95.131737 
L 227.718982 94.303659 
L 228.368291 93.723758 
L 229.0176 88.636372 
L 229.666909 92.142697 
L 230.316218 92.940143 
L 230.965527 89.010866 
L 231.614836 89.519743 
L 232.264145 84.642236 
L 232.913455 84.636888 
L 233.562764 81.617246 
L 234.212073 80.969529 
L 234.861382 82.304686 
L 235.510691 79.577446 
L 236.16 82.541365 
L 236.809309 79.731765 
L 237.458618 78.582451 
L 238.107927 73.519369 
L 238.757236 73.293149 
L 239.406545 75.846758 
L 240.055855 69.458279 
L 240.705164 73.025913 
L 241.354473 71.380067 
L 242.003782 68.401322 
L 242.653091 68.672733 
L 243.3024 67.51143 
L 243.951709 66.056612 
L 244.601018 66.515886 
L 245.899636 59.712863 
L 246.548945 62.599117 
L 247.198255 59.614207 
L 247.847564 60.121569 
L 248.496873 59.615113 
L 249.146182 60.583041 
L 249.795491 60.665118 
L 250.4448 60.379283 
L 251.094109 57.883075 
L 251.743418 58.197701 
L 253.042036 57.51038 
L 254.340655 56.009687 
L 254.989964 56.377139 
L 255.639273 56.389974 
L 256.288582 55.767883 
L 256.937891 55.846009 
L 257.5872 55.687441 
L 258.236509 56.006686 
L 258.885818 55.978372 
L 259.535127 56.145511 
L 260.184436 55.193628 
L 260.833745 54.763247 
L 261.483055 55.430365 
L 262.132364 54.97788 
L 262.781673 55.235743 
L 264.7296 54.599406 
L 265.378909 54.95946 
L 267.326836 54.833588 
L 267.976145 55.029191 
L 268.625455 54.82778 
L 269.274764 56.617621 
L 269.924073 88.358975 
L 270.573382 111.033826 
L 271.222691 114.166801 
L 271.872 126.884426 
L 272.521309 119.943648 
L 273.170618 120.159944 
L 273.819927 114.814919 
L 274.469236 120.877853 
L 275.118545 111.16766 
L 275.767855 111.691511 
L 276.417164 103.550404 
L 277.066473 112.2037 
L 277.715782 109.452156 
L 278.365091 105.708321 
L 279.0144 106.674139 
L 279.663709 106.203516 
L 280.313018 106.866638 
L 280.962327 98.63154 
L 281.611636 94.787222 
L 282.260945 93.581977 
L 282.910255 96.502815 
L 283.559564 101.254301 
L 284.208873 93.031519 
L 284.858182 94.869299 
L 285.507491 92.367595 
L 286.1568 83.111357 
L 286.806109 90.182954 
L 287.455418 89.464614 
L 288.104727 91.943232 
L 288.754036 89.434293 
L 289.403345 85.489864 
L 290.052655 87.103473 
L 290.701964 82.935052 
L 291.351273 85.444911 
L 292.000582 84.643841 
L 292.649891 79.733206 
L 293.2992 76.211669 
L 293.948509 80.820097 
L 294.597818 79.052718 
L 295.247127 74.793544 
L 295.896436 72.34743 
L 296.545745 74.027889 
L 297.195055 74.545575 
L 297.844364 70.305164 
L 298.493673 69.378698 
L 299.142982 70.887278 
L 299.792291 69.52293 
L 300.4416 71.62551 
L 301.090909 73.272396 
L 302.389527 66.86563 
L 303.038836 64.425948 
L 303.688145 63.961727 
L 304.337455 63.669325 
L 305.636073 60.878711 
L 306.285382 59.141028 
L 306.934691 62.286081 
L 310.830545 57.399453 
L 311.479855 57.490785 
L 312.129164 56.886328 
L 313.427782 56.348304 
L 314.077091 56.32718 
L 314.7264 55.381684 
L 315.375709 55.747205 
L 316.674327 55.358479 
L 317.323636 54.728812 
L 317.972945 55.204843 
L 318.622255 54.617515 
L 319.271564 54.891585 
L 319.920873 54.542776 
L 320.570182 54.539211 
L 321.8688 55.03396 
L 322.518109 54.411037 
L 323.167418 54.694823 
L 323.816727 54.332556 
L 325.115345 54.281126 
L 325.764655 54.499398 
L 327.063273 54.337294 
L 327.712582 54.142286 
L 328.361891 54.367288 
L 329.660509 54.045012 
L 330.309818 54.173052 
L 330.959127 54.043987 
L 331.608436 54.09812 
L 332.257745 54.38553 
L 332.907055 53.99483 
L 333.556364 54.225477 
L 334.205673 59.787631 
L 334.854982 82.362266 
L 335.504291 92.755919 
L 336.1536 82.077218 
L 336.802909 80.735703 
L 337.452218 89.446252 
L 338.101527 82.033379 
L 338.750836 78.033063 
L 339.400145 89.711424 
L 340.049455 87.726678 
L 340.698764 93.089649 
L 341.348073 90.253963 
L 341.997382 94.294062 
L 342.646691 90.897906 
L 343.296 91.095455 
L 343.945309 84.354544 
L 344.594618 90.93298 
L 345.243927 83.127476 
L 345.893236 84.131146 
L 346.542545 83.434777 
L 347.191855 89.4527 
L 347.841164 84.812198 
L 348.490473 82.58507 
L 349.139782 84.146715 
L 349.789091 79.350765 
L 350.4384 76.758769 
L 351.087709 75.987187 
L 351.737018 77.873129 
L 352.386327 80.320654 
L 353.035636 79.212712 
L 353.684945 76.798686 
L 354.334255 77.007228 
L 354.983564 74.710383 
L 356.282182 69.181238 
L 356.931491 69.969295 
L 357.5808 67.047996 
L 358.230109 66.204499 
L 358.879418 62.68363 
L 359.528727 64.983803 
L 360.178036 62.013467 
L 360.827345 64.060353 
L 361.476655 63.456341 
L 362.125964 66.107923 
L 362.775273 69.474323 
L 363.424582 69.032697 
L 364.7232 63.045184 
L 365.372509 61.311305 
L 366.021818 61.366107 
L 366.671127 60.234604 
L 367.320436 58.763371 
L 367.969745 58.586396 
L 368.619055 59.028186 
L 369.268364 57.615601 
L 369.917673 56.700322 
L 370.566982 57.214086 
L 371.8656 56.540803 
L 372.514909 56.573574 
L 373.164218 56.411292 
L 373.813527 57.293622 
L 374.462836 56.947577 
L 375.112145 56.058458 
L 375.761455 55.694363 
L 376.410764 55.596198 
L 377.060073 55.14456 
L 380.955927 54.470222 
L 381.605236 54.437243 
L 382.254545 54.230988 
L 383.553164 54.279551 
L 384.202473 54.495164 
L 386.1504 54.096219 
L 388.747636 53.915635 
L 389.396945 53.969174 
L 390.046255 53.835014 
L 390.695564 53.570674 
L 391.344873 53.943756 
L 391.994182 53.703275 
L 392.643491 53.85645 
L 393.2928 53.621272 
L 393.942109 53.806313 
L 394.591418 53.65024 
L 395.240727 53.911995 
L 395.890036 53.568149 
L 396.539345 53.568 
L 397.188655 53.910703 
L 398.487273 53.701418 
L 398.487273 53.701418 
" clip-path="url(#p1db4e53949)" style="fill: none; stroke: #2ca02c; stroke-width: 1.5; stroke-linecap: square"/>
   </g>
   <g id="line2d_16">
    <path d="M 73.832727 182.902319 
L 74.482036 180.271498 
L 75.131345 174.594496 
L 75.780655 173.417551 
L 76.429964 177.571458 
L 77.079273 176.879131 
L 77.728582 182.763843 
L 78.377891 171.617534 
L 79.0272 181.309983 
L 79.676509 179.025334 
L 80.325818 181.171514 
L 80.975127 179.025326 
L 81.624436 181.517678 
L 82.273745 180.479201 
L 82.923055 180.340725 
L 83.572364 176.879145 
L 84.221673 177.779161 
L 84.870982 175.771427 
L 85.520291 182.76385 
L 86.1696 178.194545 
L 86.818909 179.648427 
L 87.468218 179.302263 
L 88.117527 177.709927 
L 88.766836 179.717647 
L 89.416145 179.64842 
L 90.065455 177.571473 
L 90.714764 184.840804 
L 91.364073 177.086841 
L 92.013382 180.686897 
L 92.662691 182.625389 
L 93.312 179.925342 
L 93.961309 182.625389 
L 94.610618 181.656147 
L 95.259927 176.740677 
L 95.909236 181.863835 
L 96.558545 173.694488 
L 97.207855 179.09456 
L 97.857164 178.679184 
L 98.506473 180.479201 
L 99.155782 182.694616 
L 99.805091 179.440717 
L 100.4544 178.817638 
L 101.103709 181.586905 
L 101.753018 179.717661 
L 102.402327 178.333021 
L 103.051636 181.794608 
L 103.700945 180.340733 
L 104.350255 180.548435 
L 104.999564 179.994569 
L 105.648873 182.071545 
L 106.298182 180.61767 
L 106.947491 178.609935 
L 107.5968 182.417687 
L 108.246109 179.579193 
L 108.895418 179.64842 
L 109.544727 180.479201 
L 110.194036 179.786888 
L 110.843345 179.509966 
L 111.492655 180.548443 
L 112.141964 182.279225 
L 112.791273 182.002311 
L 113.440582 177.709927 
L 114.089891 180.409974 
L 114.7392 179.302263 
L 115.388509 181.171514 
L 116.037818 181.725374 
L 116.687127 176.532996 
L 117.336436 178.263779 
L 117.985745 181.30999 
L 118.635055 181.171514 
L 119.284364 174.594481 
L 119.933673 183.040773 
L 120.582982 179.994591 
L 121.232291 180.133045 
L 121.8816 180.963826 
L 122.530909 180.340733 
L 123.180218 180.756123 
L 123.829527 181.586905 
L 124.478836 180.756138 
L 125.128145 177.917615 
L 125.777455 179.64842 
L 126.426764 179.994569 
L 127.076073 179.856115 
L 127.725382 181.30999 
L 128.374691 180.40996 
L 129.024 181.517678 
L 129.673309 181.309983 
L 130.322618 181.933069 
L 130.971927 180.271498 
L 131.621236 180.40996 
L 132.270545 179.925342 
L 132.919855 181.448444 
L 133.569164 179.163802 
L 134.218473 180.271506 
L 134.867782 180.686897 
L 135.517091 180.340748 
L 136.1664 178.679162 
L 136.815709 179.440717 
L 137.465018 179.37149 
L 138.114327 179.025334 
L 138.763636 178.886865 
L 139.412945 180.271498 
L 140.062255 175.909895 
L 140.711564 179.233029 
L 141.360873 179.509951 
L 142.010182 176.394513 
L 142.659491 180.894599 
L 143.3088 177.709927 
L 143.958109 177.502232 
L 144.607418 176.67145 
L 145.256727 179.440717 
L 145.906036 174.525255 
L 146.555345 179.094553 
L 147.204655 178.12531 
L 147.853964 179.509951 
L 148.503273 180.479201 
L 149.152582 179.994569 
L 149.801891 179.994569 
L 150.4512 175.979137 
L 151.100509 184.910046 
L 151.749818 176.879131 
L 152.399127 177.017599 
L 153.048436 179.579178 
L 154.347055 179.509966 
L 154.996364 178.540708 
L 155.645673 178.817638 
L 156.294982 180.063818 
L 156.944291 180.548435 
L 157.5936 175.286809 
L 158.242909 178.886865 
L 158.892218 178.679162 
L 159.541527 176.67145 
L 160.190836 180.686897 
L 160.840145 178.886865 
L 161.489455 181.725381 
L 162.138764 178.886865 
L 162.788073 181.171507 
L 163.437382 175.771427 
L 164.086691 178.679162 
L 164.736 174.94066 
L 165.385309 176.325286 
L 166.034618 178.125318 
L 167.333236 176.879131 
L 167.982545 176.740677 
L 168.631855 176.463755 
L 169.281164 179.648405 
L 169.930473 179.786888 
L 171.229091 176.809919 
L 171.8784 175.771442 
L 172.527709 175.702185 
L 173.177018 180.82535 
L 173.826327 175.840669 
L 174.475636 174.73295 
L 175.124945 177.640685 
L 175.774255 178.194552 
L 176.423564 181.37921 
L 177.072873 181.033053 
L 177.722182 178.886865 
L 178.371491 178.956092 
L 179.0208 181.725374 
L 179.670109 178.956099 
L 180.319418 180.617662 
L 180.968727 174.317559 
L 181.618036 179.579178 
L 182.267345 179.579193 
L 182.916655 177.156068 
L 183.565964 178.333006 
L 184.215273 177.848381 
L 184.864582 178.609935 
L 185.513891 179.717647 
L 186.1632 177.294521 
L 186.812509 176.602223 
L 187.461818 177.6407 
L 188.111127 178.194545 
L 188.760436 178.194552 
L 189.409745 176.948372 
L 190.059055 177.086841 
L 190.708364 176.048349 
L 191.357673 176.394513 
L 192.006982 179.233036 
L 192.656291 176.325286 
L 193.3056 177.363763 
L 193.954909 178.956099 
L 194.604218 177.848381 
L 195.253527 177.779154 
L 195.902836 177.571458 
L 196.552145 177.709912 
L 197.201455 179.233014 
L 198.500073 177.848388 
L 199.149382 178.263779 
L 199.798691 177.848381 
L 200.448 177.640685 
L 201.746618 177.986857 
L 202.395927 177.986857 
L 203.045236 177.709927 
L 203.694545 177.225294 
L 204.343855 178.956092 
L 204.993164 175.979122 
L 205.642473 180.686897 
L 206.291782 178.886865 
L 206.941091 180.133045 
L 207.5904 175.079114 
L 208.239709 180.06381 
L 208.889018 179.717647 
L 210.187636 175.90991 
L 210.836945 182.902319 
L 211.486255 178.817638 
L 212.135564 178.886865 
L 212.784873 180.063796 
L 213.434182 178.748411 
L 214.083491 179.09456 
L 214.7328 179.994569 
L 215.382109 179.09456 
L 216.031418 180.686897 
L 216.680727 180.756123 
L 217.330036 177.917615 
L 217.979345 176.394513 
L 218.628655 175.286809 
L 219.277964 177.433005 
L 219.927273 177.433005 
L 220.576582 178.540708 
L 221.225891 176.809904 
L 221.8752 177.294521 
L 222.524509 178.956099 
L 223.173818 180.063796 
L 223.823127 180.271498 
L 224.472436 180.271498 
L 225.121745 178.748396 
L 225.771055 181.033053 
L 226.420364 180.133045 
L 227.069673 180.686897 
L 227.718982 176.740677 
L 228.368291 176.325286 
L 229.0176 182.002296 
L 229.666909 178.333006 
L 230.316218 180.756123 
L 230.965527 179.233029 
L 231.614836 175.632958 
L 232.264145 177.294536 
L 232.913455 176.602223 
L 233.562764 176.463755 
L 234.212073 180.202272 
L 234.861382 179.163787 
L 235.510691 177.709912 
L 236.16 176.67145 
L 236.809309 183.733101 
L 237.458618 181.794608 
L 238.107927 179.233029 
L 238.757236 178.679162 
L 239.406545 181.240756 
L 240.055855 177.986857 
L 240.705164 177.848388 
L 241.354473 181.309983 
L 242.003782 179.717654 
L 242.653091 177.571458 
L 243.3024 179.579178 
L 243.951709 176.46374 
L 244.601018 179.925342 
L 245.899636 177.363778 
L 246.548945 177.640685 
L 247.198255 178.540708 
L 247.847564 177.571458 
L 248.496873 178.748411 
L 249.146182 179.233014 
L 249.795491 179.163787 
L 250.4448 178.886865 
L 251.094109 178.471474 
L 251.743418 180.133045 
L 252.392727 178.886872 
L 253.042036 177.986857 
L 254.340655 177.640685 
L 254.989964 178.333021 
L 255.639273 178.263779 
L 256.288582 178.333021 
L 256.937891 179.37149 
L 257.5872 179.025326 
L 258.885818 178.67917 
L 259.535127 178.817638 
L 260.184436 178.817638 
L 260.833745 178.609943 
L 262.132364 178.817638 
L 262.781673 177.571458 
L 263.430982 177.848388 
L 264.080291 178.679184 
L 264.7296 178.679184 
L 266.028218 178.125318 
L 266.677527 178.540708 
L 267.326836 178.540708 
L 267.976145 178.056091 
L 268.625455 178.402247 
L 269.274764 178.471482 
L 270.573382 179.37149 
L 271.222691 176.809919 
L 271.872 175.702185 
L 272.521309 180.894592 
L 273.170618 173.902168 
L 273.819927 178.471474 
L 274.469236 179.509951 
L 275.118545 176.602208 
L 275.767855 180.548435 
L 276.417164 179.648427 
L 277.066473 179.09456 
L 277.715782 181.656132 
L 278.365091 179.786888 
L 279.0144 176.809919 
L 279.663709 176.394513 
L 280.313018 177.017614 
L 280.962327 174.179105 
L 281.611636 179.025319 
L 282.260945 175.494505 
L 282.910255 176.325286 
L 283.559564 173.832942 
L 284.208873 179.440717 
L 284.858182 179.302263 
L 285.507491 181.102287 
L 286.1568 180.548428 
L 286.806109 176.602223 
L 287.455418 177.91763 
L 288.104727 174.663723 
L 288.754036 176.948372 
L 289.403345 180.963826 
L 290.701964 177.502232 
L 291.351273 177.986857 
L 292.000582 174.594496 
L 292.649891 176.948372 
L 293.2992 175.009872 
L 293.948509 180.063818 
L 294.597818 175.009887 
L 295.247127 176.394513 
L 295.896436 181.794608 
L 296.545745 178.540708 
L 297.195055 178.402247 
L 297.844364 177.502232 
L 298.493673 176.394513 
L 299.142982 178.817638 
L 299.792291 179.856115 
L 300.4416 177.433005 
L 301.090909 176.948372 
L 301.740218 180.479201 
L 302.389527 177.156068 
L 303.038836 178.956099 
L 303.688145 176.117591 
L 304.986764 177.986857 
L 305.636073 176.186818 
L 306.285382 177.91763 
L 306.934691 176.048364 
L 307.584 176.532996 
L 308.882618 175.217568 
L 309.531927 177.086826 
L 310.181236 177.294521 
L 311.479855 176.602223 
L 312.129164 177.086841 
L 312.778473 177.156068 
L 313.427782 178.125325 
L 314.077091 178.402247 
L 314.7264 177.848388 
L 316.025018 179.440717 
L 316.674327 178.471474 
L 317.323636 179.579193 
L 317.972945 178.471482 
L 318.622255 178.333006 
L 319.271564 178.402233 
L 319.920873 179.09456 
L 320.570182 177.848388 
L 321.219491 178.056083 
L 321.8688 177.986857 
L 322.518109 178.263779 
L 323.167418 177.848403 
L 323.816727 177.848381 
L 324.466036 177.433005 
L 325.115345 177.433005 
L 325.764655 177.571458 
L 327.063273 176.948372 
L 327.712582 177.363778 
L 328.361891 177.086841 
L 329.660509 177.433005 
L 330.309818 177.433005 
L 330.959127 177.225294 
L 331.608436 176.879145 
L 332.257745 177.502232 
L 332.907055 177.571458 
L 333.556364 177.294521 
L 334.205673 178.817638 
L 334.854982 179.37149 
L 336.1536 175.286809 
L 336.802909 176.048364 
L 337.452218 180.202272 
L 338.101527 178.748411 
L 338.750836 176.879131 
L 339.400145 175.632958 
L 340.049455 178.263779 
L 340.698764 179.925342 
L 341.348073 181.033053 
L 342.646691 176.256059 
L 343.296 180.548435 
L 343.945309 177.502232 
L 345.243927 179.440717 
L 345.893236 177.156068 
L 346.542545 176.117591 
L 347.191855 178.817638 
L 347.841164 179.579193 
L 348.490473 181.725381 
L 349.139782 180.61767 
L 349.789091 177.433005 
L 350.4384 178.471474 
L 351.737018 179.925342 
L 352.386327 177.017599 
L 353.035636 176.394513 
L 353.684945 177.91763 
L 354.334255 176.186832 
L 354.983564 180.617662 
L 355.632873 178.748396 
L 356.282182 179.025319 
L 356.931491 176.048349 
L 357.5808 178.402255 
L 358.230109 178.471482 
L 359.528727 177.363778 
L 360.178036 178.402233 
L 360.827345 176.948372 
L 361.476655 178.471474 
L 362.125964 174.317559 
L 362.775273 177.571458 
L 363.424582 179.09456 
L 364.073891 176.602223 
L 364.7232 176.325286 
L 365.372509 175.356036 
L 366.021818 177.086841 
L 366.671127 178.471474 
L 367.320436 178.609935 
L 367.969745 176.325286 
L 368.619055 176.394513 
L 369.917673 177.294536 
L 370.566982 175.079114 
L 371.8656 176.809904 
L 372.514909 178.056083 
L 373.164218 176.602223 
L 373.813527 177.225309 
L 374.462836 177.225294 
L 375.112145 176.879145 
L 375.761455 177.779161 
L 376.410764 176.879131 
L 377.060073 177.086826 
L 377.709382 177.571458 
L 378.358691 178.609935 
L 379.008 177.640685 
L 379.657309 177.502232 
L 380.306618 177.640685 
L 380.955927 177.986857 
L 381.605236 178.12531 
L 382.254545 177.6407 
L 382.903855 177.848381 
L 383.553164 177.156053 
L 384.202473 176.879131 
L 384.851782 177.986857 
L 385.501091 177.225294 
L 386.1504 178.333006 
L 386.799709 177.917615 
L 387.449018 178.125318 
L 388.098327 178.471482 
L 388.747636 177.709912 
L 390.046255 177.502232 
L 390.695564 177.571458 
L 391.344873 177.156068 
L 391.994182 177.363748 
L 392.643491 177.017599 
L 393.2928 177.156068 
L 393.942109 177.086841 
L 394.591418 177.363763 
L 395.240727 176.394513 
L 396.539345 176.879131 
L 397.188655 176.67145 
L 397.837964 176.809904 
L 398.487273 176.740677 
L 398.487273 176.740677 
" clip-path="url(#p1db4e53949)" style="fill: none; stroke: #d62728; stroke-width: 1.5; stroke-linecap: square"/>
   </g>
   <g id="patch_3">
    <path d="M 57.6 307.584 
L 57.6 41.472 
" style="fill: none; stroke: #000000; stroke-width: 0.8; stroke-linejoin: miter; stroke-linecap: square"/>
   </g>
   <g id="patch_4">
    <path d="M 414.72 307.584 
L 414.72 41.472 
" style="fill: none; stroke: #000000; stroke-width: 0.8; stroke-linejoin: miter; stroke-linecap: square"/>
   </g>
   <g id="patch_5">
    <path d="M 57.6 307.584 
L 414.72 307.584 
" style="fill: none; stroke: #000000; stroke-width: 0.8; stroke-linejoin: miter; stroke-linecap: square"/>
   </g>
   <g id="patch_6">
    <path d="M 57.6 41.472 
L 414.72 41.472 
" style="fill: none; stroke: #000000; stroke-width: 0.8; stroke-linejoin: miter; stroke-linecap: square"/>
   </g>
   <g id="text_13">
    <!-- moo2 -->
    <g transform="translate(219.155625 35.472) scale(0.12 -0.12)">
     <defs>
      <path id="DejaVuSans-6d" d="M 3328 2828 
Q 3544 3216 3844 3400 
Q 4144 3584 4550 3584 
Q 5097 3584 5394 3201 
Q 5691 2819 5691 2113 
L 5691 0 
L 5113 0 
L 5113 2094 
Q 5113 2597 4934 2840 
Q 4756 3084 4391 3084 
Q 3944 3084 3684 2787 
Q 3425 2491 3425 1978 
L 3425 0 
L 2847 0 
L 2847 2094 
Q 2847 2600 2669 2842 
Q 2491 3084 2119 3084 
Q 1678 3084 1418 2786 
Q 1159 2488 1159 1978 
L 1159 0 
L 581 0 
L 581 3500 
L 1159 3500 
L 1159 2956 
Q 1356 3278 1631 3431 
Q 1906 3584 2284 3584 
Q 2666 3584 2933 3390 
Q 3200 3197 3328 2828 
z
" transform="scale(0.015625)"/>
      <path id="DejaVuSans-6f" d="M 1959 3097 
Q 1497 3097 1228 2736 
Q 959 2375 959 1747 
Q 959 1119 1226 758 
Q 1494 397 1959 397 
Q 2419 397 2687 759 
Q 2956 1122 2956 1747 
Q 2956 2369 2687 2733 
Q 2419 3097 1959 3097 
z
M 1959 3584 
Q 2709 3584 3137 3096 
Q 3566 2609 3566 1747 
Q 3566 888 3137 398 
Q 2709 -91 1959 -91 
Q 1206 -91 779 398 
Q 353 888 353 1747 
Q 353 2609 779 3096 
Q 1206 3584 1959 3584 
z
" transform="scale(0.015625)"/>
     </defs>
     <use xlink:href="#DejaVuSans-6d"/>
     <use xlink:href="#DejaVuSans-6f" transform="translate(97.412109 0)"/>
     <use xlink:href="#DejaVuSans-6f" transform="translate(158.59375 0)"/>
     <use xlink:href="#DejaVuSans-32" transform="translate(219.775391 0)"/>
    </g>
   </g>
   <g id="legend_1">
    <g id="patch_7">
     <path d="M 316.259063 302.584 
L 407.72 302.584 
Q 409.72 302.584 409.72 300.584 
L 409.72 212.40275 
Q 409.72 210.40275 407.72 210.40275 
L 316.259063 210.40275 
Q 314.259063 210.40275 314.259063 212.40275 
L 314.259063 300.584 
Q 314.259063 302.584 316.259063 302.584 
z
" style="fill: #ffffff; opacity: 0.8; stroke: #cccccc; stroke-linejoin: miter"/>
    </g>
    <g id="line2d_17">
     <path d="M 318.259063 218.501187 
L 328.259063 218.501187 
L 338.259063 218.501187 
" style="fill: none; stroke: #1f77b4; stroke-width: 1.5; stroke-linecap: square"/>
    </g>
    <g id="text_14">
     <!-- train -->
     <g transform="translate(346.259063 222.001187) scale(0.1 -0.1)">
      <defs>
       <path id="DejaVuSans-74" d="M 1172 4494 
L 1172 3500 
L 2356 3500 
L 2356 3053 
L 1172 3053 
L 1172 1153 
Q 1172 725 1289 603 
Q 1406 481 1766 481 
L 2356 481 
L 2356 0 
L 1766 0 
Q 1100 0 847 248 
Q 594 497 594 1153 
L 594 3053 
L 172 3053 
L 172 3500 
L 594 3500 
L 594 4494 
L 1172 4494 
z
" transform="scale(0.015625)"/>
       <path id="DejaVuSans-72" d="M 2631 2963 
Q 2534 3019 2420 3045 
Q 2306 3072 2169 3072 
Q 1681 3072 1420 2755 
Q 1159 2438 1159 1844 
L 1159 0 
L 581 0 
L 581 3500 
L 1159 3500 
L 1159 2956 
Q 1341 3275 1631 3429 
Q 1922 3584 2338 3584 
Q 2397 3584 2469 3576 
Q 2541 3569 2628 3553 
L 2631 2963 
z
" transform="scale(0.015625)"/>
       <path id="DejaVuSans-61" d="M 2194 1759 
Q 1497 1759 1228 1600 
Q 959 1441 959 1056 
Q 959 750 1161 570 
Q 1363 391 1709 391 
Q 2188 391 2477 730 
Q 2766 1069 2766 1631 
L 2766 1759 
L 2194 1759 
z
M 3341 1997 
L 3341 0 
L 2766 0 
L 2766 531 
Q 2569 213 2275 61 
Q 1981 -91 1556 -91 
Q 1019 -91 701 211 
Q 384 513 384 1019 
Q 384 1609 779 1909 
Q 1175 2209 1959 2209 
L 2766 2209 
L 2766 2266 
Q 2766 2663 2505 2880 
Q 2244 3097 1772 3097 
Q 1472 3097 1187 3025 
Q 903 2953 641 2809 
L 641 3341 
Q 956 3463 1253 3523 
Q 1550 3584 1831 3584 
Q 2591 3584 2966 3190 
Q 3341 2797 3341 1997 
z
" transform="scale(0.015625)"/>
       <path id="DejaVuSans-69" d="M 603 3500 
L 1178 3500 
L 1178 0 
L 603 0 
L 603 3500 
z
M 603 4863 
L 1178 4863 
L 1178 4134 
L 603 4134 
L 603 4863 
z
" transform="scale(0.015625)"/>
       <path id="DejaVuSans-6e" d="M 3513 2113 
L 3513 0 
L 2938 0 
L 2938 2094 
Q 2938 2591 2744 2837 
Q 2550 3084 2163 3084 
Q 1697 3084 1428 2787 
Q 1159 2491 1159 1978 
L 1159 0 
L 581 0 
L 581 3500 
L 1159 3500 
L 1159 2956 
Q 1366 3272 1645 3428 
Q 1925 3584 2291 3584 
Q 2894 3584 3203 3211 
Q 3513 2838 3513 2113 
z
" transform="scale(0.015625)"/>
      </defs>
      <use xlink:href="#DejaVuSans-74"/>
      <use xlink:href="#DejaVuSans-72" transform="translate(39.208984 0)"/>
      <use xlink:href="#DejaVuSans-61" transform="translate(80.322266 0)"/>
      <use xlink:href="#DejaVuSans-69" transform="translate(141.601562 0)"/>
      <use xlink:href="#DejaVuSans-6e" transform="translate(169.384766 0)"/>
     </g>
    </g>
    <g id="line2d_18">
     <path d="M 318.259063 233.179312 
L 328.259063 233.179312 
L 338.259063 233.179312 
" style="fill: none; stroke: #ff7f0e; stroke-width: 1.5; stroke-linecap: square"/>
    </g>
    <g id="text_15">
     <!-- train_class0 -->
     <g transform="translate(346.259063 236.679312) scale(0.1 -0.1)">
      <defs>
       <path id="DejaVuSans-5f" d="M 3263 -1063 
L 3263 -1509 
L -63 -1509 
L -63 -1063 
L 3263 -1063 
z
" transform="scale(0.015625)"/>
       <path id="DejaVuSans-63" d="M 3122 3366 
L 3122 2828 
Q 2878 2963 2633 3030 
Q 2388 3097 2138 3097 
Q 1578 3097 1268 2742 
Q 959 2388 959 1747 
Q 959 1106 1268 751 
Q 1578 397 2138 397 
Q 2388 397 2633 464 
Q 2878 531 3122 666 
L 3122 134 
Q 2881 22 2623 -34 
Q 2366 -91 2075 -91 
Q 1284 -91 818 406 
Q 353 903 353 1747 
Q 353 2603 823 3093 
Q 1294 3584 2113 3584 
Q 2378 3584 2631 3529 
Q 2884 3475 3122 3366 
z
" transform="scale(0.015625)"/>
       <path id="DejaVuSans-6c" d="M 603 4863 
L 1178 4863 
L 1178 0 
L 603 0 
L 603 4863 
z
" transform="scale(0.015625)"/>
       <path id="DejaVuSans-73" d="M 2834 3397 
L 2834 2853 
Q 2591 2978 2328 3040 
Q 2066 3103 1784 3103 
Q 1356 3103 1142 2972 
Q 928 2841 928 2578 
Q 928 2378 1081 2264 
Q 1234 2150 1697 2047 
L 1894 2003 
Q 2506 1872 2764 1633 
Q 3022 1394 3022 966 
Q 3022 478 2636 193 
Q 2250 -91 1575 -91 
Q 1294 -91 989 -36 
Q 684 19 347 128 
L 347 722 
Q 666 556 975 473 
Q 1284 391 1588 391 
Q 1994 391 2212 530 
Q 2431 669 2431 922 
Q 2431 1156 2273 1281 
Q 2116 1406 1581 1522 
L 1381 1569 
Q 847 1681 609 1914 
Q 372 2147 372 2553 
Q 372 3047 722 3315 
Q 1072 3584 1716 3584 
Q 2034 3584 2315 3537 
Q 2597 3491 2834 3397 
z
" transform="scale(0.015625)"/>
      </defs>
      <use xlink:href="#DejaVuSans-74"/>
      <use xlink:href="#DejaVuSans-72" transform="translate(39.208984 0)"/>
      <use xlink:href="#DejaVuSans-61" transform="translate(80.322266 0)"/>
      <use xlink:href="#DejaVuSans-69" transform="translate(141.601562 0)"/>
      <use xlink:href="#DejaVuSans-6e" transform="translate(169.384766 0)"/>
      <use xlink:href="#DejaVuSans-5f" transform="translate(232.763672 0)"/>
      <use xlink:href="#DejaVuSans-63" transform="translate(282.763672 0)"/>
      <use xlink:href="#DejaVuSans-6c" transform="translate(337.744141 0)"/>
      <use xlink:href="#DejaVuSans-61" transform="translate(365.527344 0)"/>
      <use xlink:href="#DejaVuSans-73" transform="translate(426.806641 0)"/>
      <use xlink:href="#DejaVuSans-73" transform="translate(478.90625 0)"/>
      <use xlink:href="#DejaVuSans-30" transform="translate(531.005859 0)"/>
     </g>
    </g>
    <g id="line2d_19">
     <path d="M 318.259063 248.135562 
L 328.259063 248.135562 
L 338.259063 248.135562 
" style="fill: none; stroke: #2ca02c; stroke-width: 1.5; stroke-linecap: square"/>
    </g>
    <g id="text_16">
     <!-- train_class1 -->
     <g transform="translate(346.259063 251.635562) scale(0.1 -0.1)">
      <use xlink:href="#DejaVuSans-74"/>
      <use xlink:href="#DejaVuSans-72" transform="translate(39.208984 0)"/>
      <use xlink:href="#DejaVuSans-61" transform="translate(80.322266 0)"/>
      <use xlink:href="#DejaVuSans-69" transform="translate(141.601562 0)"/>
      <use xlink:href="#DejaVuSans-6e" transform="translate(169.384766 0)"/>
      <use xlink:href="#DejaVuSans-5f" transform="translate(232.763672 0)"/>
      <use xlink:href="#DejaVuSans-63" transform="translate(282.763672 0)"/>
      <use xlink:href="#DejaVuSans-6c" transform="translate(337.744141 0)"/>
      <use xlink:href="#DejaVuSans-61" transform="translate(365.527344 0)"/>
      <use xlink:href="#DejaVuSans-73" transform="translate(426.806641 0)"/>
      <use xlink:href="#DejaVuSans-73" transform="translate(478.90625 0)"/>
      <use xlink:href="#DejaVuSans-31" transform="translate(531.005859 0)"/>
     </g>
    </g>
    <g id="line2d_20">
     <path d="M 318.259063 263.091812 
L 328.259063 263.091812 
L 338.259063 263.091812 
" style="fill: none; stroke: #d62728; stroke-width: 1.5; stroke-linecap: square"/>
    </g>
    <g id="text_17">
     <!-- test -->
     <g transform="translate(346.259063 266.591812) scale(0.1 -0.1)">
      <defs>
       <path id="DejaVuSans-65" d="M 3597 1894 
L 3597 1613 
L 953 1613 
Q 991 1019 1311 708 
Q 1631 397 2203 397 
Q 2534 397 2845 478 
Q 3156 559 3463 722 
L 3463 178 
Q 3153 47 2828 -22 
Q 2503 -91 2169 -91 
Q 1331 -91 842 396 
Q 353 884 353 1716 
Q 353 2575 817 3079 
Q 1281 3584 2069 3584 
Q 2775 3584 3186 3129 
Q 3597 2675 3597 1894 
z
M 3022 2063 
Q 3016 2534 2758 2815 
Q 2500 3097 2075 3097 
Q 1594 3097 1305 2825 
Q 1016 2553 972 2059 
L 3022 2063 
z
" transform="scale(0.015625)"/>
      </defs>
      <use xlink:href="#DejaVuSans-74"/>
      <use xlink:href="#DejaVuSans-65" transform="translate(39.208984 0)"/>
      <use xlink:href="#DejaVuSans-73" transform="translate(100.732422 0)"/>
      <use xlink:href="#DejaVuSans-74" transform="translate(152.832031 0)"/>
     </g>
    </g>
    <g id="line2d_21">
     <path d="M 318.259063 277.769937 
L 328.259063 277.769937 
L 338.259063 277.769937 
" style="fill: none; stroke: #9467bd; stroke-width: 1.5; stroke-linecap: square"/>
    </g>
    <g id="text_18">
     <!-- test_class0 -->
     <g transform="translate(346.259063 281.269937) scale(0.1 -0.1)">
      <use xlink:href="#DejaVuSans-74"/>
      <use xlink:href="#DejaVuSans-65" transform="translate(39.208984 0)"/>
      <use xlink:href="#DejaVuSans-73" transform="translate(100.732422 0)"/>
      <use xlink:href="#DejaVuSans-74" transform="translate(152.832031 0)"/>
      <use xlink:href="#DejaVuSans-5f" transform="translate(192.041016 0)"/>
      <use xlink:href="#DejaVuSans-63" transform="translate(242.041016 0)"/>
      <use xlink:href="#DejaVuSans-6c" transform="translate(297.021484 0)"/>
      <use xlink:href="#DejaVuSans-61" transform="translate(324.804688 0)"/>
      <use xlink:href="#DejaVuSans-73" transform="translate(386.083984 0)"/>
      <use xlink:href="#DejaVuSans-73" transform="translate(438.183594 0)"/>
      <use xlink:href="#DejaVuSans-30" transform="translate(490.283203 0)"/>
     </g>
    </g>
    <g id="line2d_22">
     <path d="M 318.259063 292.726187 
L 328.259063 292.726187 
L 338.259063 292.726187 
" style="fill: none; stroke: #8c564b; stroke-width: 1.5; stroke-linecap: square"/>
    </g>
    <g id="text_19">
     <!-- test_class1 -->
     <g transform="translate(346.259063 296.226187) scale(0.1 -0.1)">
      <use xlink:href="#DejaVuSans-74"/>
      <use xlink:href="#DejaVuSans-65" transform="translate(39.208984 0)"/>
      <use xlink:href="#DejaVuSans-73" transform="translate(100.732422 0)"/>
      <use xlink:href="#DejaVuSans-74" transform="translate(152.832031 0)"/>
      <use xlink:href="#DejaVuSans-5f" transform="translate(192.041016 0)"/>
      <use xlink:href="#DejaVuSans-63" transform="translate(242.041016 0)"/>
      <use xlink:href="#DejaVuSans-6c" transform="translate(297.021484 0)"/>
      <use xlink:href="#DejaVuSans-61" transform="translate(324.804688 0)"/>
      <use xlink:href="#DejaVuSans-73" transform="translate(386.083984 0)"/>
      <use xlink:href="#DejaVuSans-73" transform="translate(438.183594 0)"/>
      <use xlink:href="#DejaVuSans-31" transform="translate(490.283203 0)"/>
     </g>
    </g>
   </g>
   <g id="line2d_23">
    <path d="M 73.832727 177.709927 
L 74.482036 155.937699 
L 75.131345 139.111134 
L 75.780655 110.375101 
L 77.079273 295.488 
L 77.728582 200.274275 
L 78.377891 156.874742 
L 79.0272 130.991241 
L 79.676509 118.099094 
L 80.325818 179.94305 
L 80.975127 185.839008 
L 81.624436 180.697964 
L 82.273745 130.040917 
L 82.923055 124.302042 
L 83.572364 165.462822 
L 84.221673 114.398221 
L 84.870982 140.220175 
L 85.520291 193.267003 
L 86.1696 154.403997 
L 86.818909 107.507476 
L 87.468218 210.393338 
L 88.766836 106.128361 
L 89.416145 204.395568 
L 90.065455 174.902392 
L 90.714764 168.1821 
L 91.364073 174.668046 
L 92.013382 155.499222 
L 92.662691 144.067167 
L 93.312 124.427556 
L 93.961309 149.506822 
L 94.610618 162.72958 
L 95.259927 226.434119 
L 95.909236 133.991319 
L 96.558545 201.024153 
L 97.207855 154.353147 
L 97.857164 131.422424 
L 98.506473 75.474656 
L 99.155782 112.075809 
L 99.805091 87.62832 
L 100.4544 103.95351 
L 101.103709 160.520516 
L 101.753018 113.40183 
L 102.402327 142.730599 
L 103.051636 125.226042 
L 103.700945 74.717603 
L 104.350255 97.096769 
L 104.999564 126.489892 
L 105.648873 92.698101 
L 106.947491 106.348565 
L 107.5968 162.530545 
L 108.246109 180.894919 
L 108.895418 91.925316 
L 109.544727 158.406393 
L 110.194036 123.354496 
L 110.843345 127.298925 
L 111.492655 143.193616 
L 112.141964 132.472191 
L 112.791273 144.599426 
L 113.440582 106.711189 
L 114.089891 86.906489 
L 115.388509 127.94841 
L 116.037818 159.931523 
L 116.687127 131.794228 
L 117.336436 177.384932 
L 117.985745 106.378128 
L 118.635055 122.272239 
L 119.284364 165.752045 
L 119.933673 161.038439 
L 120.582982 120.145089 
L 121.232291 120.503167 
L 121.8816 132.762409 
L 122.530909 138.931902 
L 123.180218 122.939239 
L 123.829527 135.051931 
L 124.478836 132.479425 
L 125.128145 106.366273 
L 125.777455 120.707015 
L 126.426764 121.411762 
L 127.076073 128.436712 
L 127.725382 108.256552 
L 128.374691 118.781602 
L 129.024 127.344621 
L 129.673309 127.158466 
L 130.322618 115.11102 
L 130.971927 116.978956 
L 132.270545 122.820572 
L 132.919855 119.04456 
L 133.569164 114.479481 
L 134.218473 120.255971 
L 134.867782 118.192 
L 135.517091 118.530261 
L 136.1664 112.046395 
L 136.815709 117.904546 
L 137.465018 115.278887 
L 138.114327 116.332264 
L 138.763636 118.382998 
L 139.412945 99.90882 
L 140.062255 198.672469 
L 140.711564 129.315714 
L 141.360873 86.838421 
L 142.010182 135.803265 
L 142.659491 117.602131 
L 143.3088 143.095956 
L 143.958109 75.694474 
L 144.607418 105.991156 
L 145.256727 199.295161 
L 145.906036 140.798828 
L 146.555345 138.230527 
L 147.853964 154.6968 
L 148.503273 127.68358 
L 149.152582 213.90175 
L 149.801891 152.006134 
L 150.4512 124.687692 
L 151.100509 144.897919 
L 151.749818 199.632144 
L 152.399127 168.502222 
L 153.048436 99.763518 
L 153.697745 152.917017 
L 154.347055 144.669277 
L 154.996364 184.965465 
L 155.645673 134.567952 
L 156.294982 130.434307 
L 156.944291 138.247774 
L 157.5936 155.635522 
L 158.242909 154.388666 
L 158.892218 128.105121 
L 159.541527 161.599444 
L 160.190836 156.899135 
L 160.840145 150.299217 
L 161.489455 177.45095 
L 162.138764 181.878512 
L 162.788073 108.750855 
L 163.437382 233.958341 
L 164.086691 149.67313 
L 164.736 137.182899 
L 165.385309 172.001253 
L 166.034618 122.460786 
L 166.683927 160.386058 
L 167.333236 165.236839 
L 167.982545 198.250007 
L 168.631855 167.247211 
L 169.281164 172.103429 
L 169.930473 171.729634 
L 170.579782 190.2588 
L 171.229091 172.733795 
L 171.8784 171.086003 
L 172.527709 152.870697 
L 173.177018 154.533954 
L 173.826327 179.223521 
L 174.475636 182.962707 
L 175.124945 174.982092 
L 175.774255 171.856515 
L 176.423564 172.960297 
L 177.072873 177.76337 
L 177.722182 155.119634 
L 178.371491 166.790002 
L 179.0208 161.34075 
L 179.670109 168.50864 
L 180.319418 155.738679 
L 180.968727 163.593103 
L 181.618036 167.086801 
L 182.267345 161.42663 
L 182.916655 156.954888 
L 183.565964 166.16956 
L 184.215273 185.481546 
L 184.864582 155.673879 
L 185.513891 180.28983 
L 186.1632 168.157291 
L 186.812509 172.092555 
L 187.461818 172.259799 
L 188.111127 170.194105 
L 188.760436 165.086056 
L 189.409745 175.667587 
L 190.059055 178.620631 
L 190.708364 173.931404 
L 191.357673 174.313504 
L 192.006982 172.770562 
L 192.656291 175.661243 
L 193.3056 168.582962 
L 193.954909 169.287293 
L 194.604218 173.9447 
L 195.253527 172.931626 
L 195.902836 171.322562 
L 196.552145 173.452149 
L 197.201455 173.701173 
L 197.850764 173.796233 
L 198.500073 173.036536 
L 199.149382 173.511096 
L 199.798691 175.131034 
L 200.448 174.651096 
L 201.097309 172.972078 
L 201.746618 174.863545 
L 203.045236 175.84927 
L 203.694545 174.829065 
L 204.343855 167.677205 
L 204.993164 185.999737 
L 205.642473 149.585096 
L 206.291782 182.593249 
L 206.941091 130.105435 
L 207.5904 126.810356 
L 208.239709 127.785266 
L 208.889018 137.549608 
L 209.538327 177.23504 
L 210.836945 139.889966 
L 211.486255 171.427205 
L 212.135564 172.056278 
L 212.784873 150.504268 
L 213.434182 167.536686 
L 214.083491 214.450254 
L 214.7328 190.267639 
L 215.382109 173.776966 
L 216.031418 176.982971 
L 216.680727 158.298527 
L 217.330036 168.809762 
L 217.979345 166.570154 
L 218.628655 153.30234 
L 219.277964 150.037923 
L 219.927273 166.488048 
L 220.576582 140.89068 
L 221.225891 195.732564 
L 221.8752 138.351035 
L 222.524509 149.937232 
L 223.173818 154.034986 
L 223.823127 161.7413 
L 224.472436 153.862008 
L 225.121745 150.391544 
L 225.771055 181.095974 
L 226.420364 176.432365 
L 227.069673 194.095854 
L 227.718982 172.298661 
L 228.368291 168.439769 
L 229.0176 189.347709 
L 229.666909 167.821051 
L 230.316218 154.743536 
L 230.965527 185.176621 
L 231.614836 167.822967 
L 232.264145 178.349815 
L 232.913455 164.793401 
L 233.562764 167.090886 
L 234.212073 158.431247 
L 234.861382 161.819232 
L 235.510691 184.07353 
L 236.16 178.358037 
L 236.809309 179.683716 
L 237.458618 170.100827 
L 238.107927 175.360716 
L 238.757236 183.217264 
L 239.406545 176.006308 
L 240.055855 161.995359 
L 240.705164 174.575481 
L 241.354473 176.907772 
L 242.003782 178.616078 
L 242.653091 168.109635 
L 243.3024 170.660748 
L 243.951709 171.901988 
L 244.601018 166.54184 
L 245.250327 173.510398 
L 245.899636 166.825774 
L 246.548945 170.46825 
L 247.198255 170.573278 
L 247.847564 174.575526 
L 248.496873 170.254998 
L 249.146182 167.487158 
L 249.795491 167.391815 
L 250.4448 169.191074 
L 251.094109 166.985545 
L 251.743418 170.207787 
L 252.392727 167.44681 
L 253.042036 170.321447 
L 253.691345 170.835048 
L 254.340655 170.204504 
L 254.989964 171.481725 
L 255.639273 171.601 
L 256.288582 171.167248 
L 256.937891 171.898022 
L 258.236509 168.849619 
L 258.885818 167.933062 
L 259.535127 168.382323 
L 260.184436 169.006211 
L 260.833745 169.123912 
L 261.483055 168.987033 
L 262.132364 169.025033 
L 262.781673 169.410921 
L 263.430982 169.300069 
L 264.080291 169.467283 
L 264.7296 170.119664 
L 265.378909 170.558898 
L 266.028218 170.022776 
L 267.326836 171.279719 
L 267.976145 170.562107 
L 268.625455 170.302774 
L 269.274764 163.821641 
L 269.924073 138.269107 
L 270.573382 156.788996 
L 271.222691 169.432476 
L 271.872 192.420133 
L 272.521309 147.022143 
L 273.170618 179.407195 
L 273.819927 168.199897 
L 274.469236 163.187992 
L 275.118545 163.339133 
L 275.767855 154.158792 
L 276.417164 141.942512 
L 277.066473 164.512542 
L 277.715782 181.909686 
L 278.365091 152.516229 
L 279.0144 153.457818 
L 279.663709 175.843179 
L 280.313018 143.867835 
L 280.962327 193.180173 
L 281.611636 169.312146 
L 282.910255 153.460759 
L 283.559564 141.1411 
L 284.208873 177.832092 
L 284.858182 143.452207 
L 285.507491 189.777005 
L 286.1568 177.413811 
L 286.806109 196.780385 
L 287.455418 151.342492 
L 288.104727 176.572809 
L 288.754036 168.105624 
L 289.403345 188.794028 
L 290.052655 200.097821 
L 291.351273 161.0188 
L 292.000582 163.654679 
L 292.649891 164.918441 
L 293.2992 173.799026 
L 293.948509 163.657962 
L 294.597818 169.747518 
L 295.247127 169.490309 
L 295.896436 167.090871 
L 296.545745 173.683762 
L 297.195055 163.538256 
L 297.844364 180.591658 
L 298.493673 160.345859 
L 299.142982 179.141281 
L 299.792291 171.768377 
L 300.4416 176.428339 
L 301.090909 178.481383 
L 301.740218 172.95792 
L 302.389527 187.654415 
L 303.038836 161.695159 
L 303.688145 163.122747 
L 304.337455 169.680475 
L 304.986764 168.824899 
L 305.636073 173.770221 
L 306.285382 171.530555 
L 306.934691 172.831024 
L 307.584 170.192501 
L 308.233309 163.612801 
L 308.882618 165.823099 
L 309.531927 163.808984 
L 310.181236 170.392323 
L 310.830545 166.283234 
L 311.479855 168.260567 
L 312.129164 167.254906 
L 312.778473 168.076611 
L 313.427782 170.626045 
L 314.077091 173.626137 
L 314.7264 172.141177 
L 315.375709 172.141029 
L 316.025018 174.52261 
L 316.674327 172.447632 
L 317.323636 172.503667 
L 317.972945 170.165761 
L 318.622255 171.068889 
L 319.271564 171.51405 
L 319.920873 173.036595 
L 320.570182 171.569372 
L 321.219491 170.636593 
L 321.8688 168.877339 
L 322.518109 170.338917 
L 323.167418 170.890132 
L 323.816727 170.607565 
L 324.466036 169.806658 
L 325.764655 169.592619 
L 326.413964 170.379443 
L 327.063273 169.777496 
L 328.361891 170.37775 
L 329.0112 168.834526 
L 329.660509 170.34526 
L 330.959127 170.063956 
L 331.608436 169.243172 
L 332.257745 170.036696 
L 332.907055 170.597567 
L 333.556364 170.618053 
L 334.205673 160.126918 
L 334.854982 159.393351 
L 335.504291 173.62746 
L 336.1536 167.560499 
L 336.802909 187.639262 
L 338.101527 155.615467 
L 340.049455 177.397767 
L 340.698764 152.658426 
L 341.348073 180.807813 
L 341.997382 178.543442 
L 342.646691 165.978161 
L 343.296 176.843537 
L 343.945309 194.417699 
L 345.243927 147.587025 
L 345.893236 169.756788 
L 346.542545 174.678579 
L 347.191855 174.514217 
L 347.841164 167.697973 
L 348.490473 172.217342 
L 349.139782 163.700004 
L 349.789091 167.57124 
L 350.4384 174.081178 
L 351.087709 168.303262 
L 351.737018 183.320035 
L 352.386327 177.600055 
L 353.035636 170.49909 
L 353.684945 145.585329 
L 354.334255 152.550085 
L 354.983564 171.738696 
L 355.632873 166.944276 
L 356.282182 168.738084 
L 356.931491 160.97413 
L 357.5808 166.067042 
L 358.230109 169.455161 
L 358.879418 168.96261 
L 359.528727 167.993227 
L 360.178036 174.718659 
L 360.827345 165.737739 
L 361.476655 169.922219 
L 362.125964 170.436117 
L 362.775273 175.686988 
L 363.424582 174.242048 
L 364.073891 166.476163 
L 364.7232 163.245766 
L 365.372509 170.355139 
L 366.021818 160.044915 
L 366.671127 166.603951 
L 367.320436 168.43555 
L 367.969745 160.295722 
L 368.619055 162.302424 
L 369.268364 167.013488 
L 369.917673 165.811779 
L 370.566982 160.015799 
L 371.216291 160.306759 
L 371.8656 166.283739 
L 372.514909 166.378429 
L 373.164218 164.991396 
L 373.813527 164.110997 
L 374.462836 163.852659 
L 375.761455 166.81637 
L 376.410764 164.980641 
L 377.709382 164.460132 
L 378.358691 165.765429 
L 379.008 166.469657 
L 379.657309 165.604782 
L 380.306618 164.983879 
L 380.955927 164.623558 
L 381.605236 165.161938 
L 382.254545 163.695621 
L 382.903855 164.283203 
L 383.553164 161.802594 
L 384.851782 163.238679 
L 385.501091 162.744346 
L 386.1504 164.513686 
L 386.799709 164.667159 
L 387.449018 164.661826 
L 388.098327 164.905501 
L 388.747636 165.273503 
L 389.396945 164.690601 
L 390.046255 164.438398 
L 391.344873 164.576926 
L 391.994182 164.004557 
L 392.643491 163.677839 
L 393.2928 164.585587 
L 393.942109 164.542447 
L 394.591418 165.012714 
L 395.240727 163.541302 
L 395.890036 163.281671 
L 396.539345 164.528586 
L 397.837964 164.535361 
L 398.487273 163.856046 
L 398.487273 163.856046 
" clip-path="url(#p1db4e53949)" style="fill: none; stroke: #9467bd; stroke-width: 1.5; stroke-linecap: square"/>
   </g>
   <g id="line2d_24">
    <path d="M 73.832727 177.709927 
L 75.131345 216.644284 
L 75.780655 241.408668 
L 77.079273 60.279052 
L 77.728582 154.948319 
L 78.377891 197.722657 
L 79.0272 225.543893 
L 79.676509 237.08599 
L 80.325818 180.030133 
L 80.975127 168.840617 
L 81.624436 178.07749 
L 82.273745 228.767152 
L 82.923055 233.137646 
L 83.572364 192.661774 
L 84.221673 238.669087 
L 84.870982 214.330236 
L 85.520291 166.148732 
L 86.818909 250.41387 
L 87.468218 149.664038 
L 88.117527 207.228988 
L 88.766836 248.075807 
L 89.416145 152.865616 
L 90.065455 179.102902 
L 90.714764 195.969027 
L 91.364073 178.007157 
L 92.013382 204.756468 
L 92.662691 215.256665 
L 93.312 232.971792 
L 93.961309 209.959237 
L 94.610618 195.986764 
L 95.259927 133.171828 
L 95.909236 223.178548 
L 96.558545 156.541265 
L 97.207855 200.382312 
L 97.857164 228.337129 
L 98.506473 283.678207 
L 99.155782 246.777507 
L 99.805091 270.0281 
L 100.4544 251.023185 
L 101.103709 199.36978 
L 101.753018 245.922712 
L 102.402327 213.542313 
L 103.051636 231.113036 
L 103.700945 284.219053 
L 104.999564 232.654655 
L 105.648873 268.971826 
L 106.298182 260.734184 
L 106.947491 248.823339 
L 107.5968 195.519966 
L 108.246109 177.038768 
L 108.895418 264.576378 
L 109.544727 198.227211 
L 110.194036 236.644201 
L 110.843345 226.932537 
L 111.492655 214.698304 
L 112.141964 223.386437 
L 112.791273 213.774549 
L 114.089891 273.439098 
L 114.7392 249.500165 
L 115.388509 233.283402 
L 116.037818 198.555593 
L 116.687127 221.735985 
L 117.336436 183.425591 
L 117.985745 253.065158 
L 118.635055 235.504566 
L 119.284364 192.129849 
L 119.933673 199.739334 
L 120.582982 237.322416 
L 121.232291 238.15683 
L 121.8816 226.331378 
L 122.530909 216.710035 
L 123.180218 236.770102 
L 123.829527 225.205743 
L 124.478836 226.685422 
L 125.128145 248.111825 
L 125.777455 236.764561 
L 126.426764 236.311244 
L 127.076073 228.563995 
L 127.725382 251.83949 
L 128.374691 239.661222 
L 129.024 232.521832 
L 129.673309 233.017591 
L 130.322618 245.580484 
L 130.971927 241.245985 
L 131.621236 238.354506 
L 132.270545 234.329863 
L 132.919855 241.528954 
L 133.569164 241.514269 
L 134.218473 237.154579 
L 134.867782 240.531575 
L 135.517091 239.171858 
L 136.1664 242.633664 
L 136.815709 238.644619 
L 137.465018 240.897207 
L 138.114327 239.307949 
L 138.763636 237.272844 
L 139.412945 256.035401 
L 140.062255 151.216681 
L 140.711564 231.561109 
L 141.360873 269.143864 
L 142.010182 219.231378 
L 142.659491 238.121556 
L 143.3088 211.432706 
L 143.958109 276.334639 
L 144.607418 247.677954 
L 145.256727 158.894443 
L 145.906036 211.29371 
L 146.555345 219.137327 
L 147.204655 209.035222 
L 147.853964 197.192797 
L 148.503273 230.2112 
L 149.152582 147.495158 
L 149.801891 208.908385 
L 150.4512 225.725145 
L 151.100509 216.884989 
L 151.749818 154.256779 
L 152.399127 186.850604 
L 153.048436 255.38494 
L 153.697745 208.108652 
L 154.347055 217.054119 
L 154.996364 169.932024 
L 155.645673 220.341636 
L 156.294982 225.944079 
L 156.944291 216.461234 
L 157.5936 197.354031 
L 158.242909 200.987386 
L 158.892218 226.175224 
L 159.541527 194.846274 
L 160.190836 197.500099 
L 160.840145 206.863579 
L 161.489455 181.654602 
L 162.138764 173.610762 
L 162.788073 252.1863 
L 163.437382 119.677867 
L 164.086691 203.748289 
L 164.736 213.314451 
L 165.385309 175.515273 
L 166.034618 234.04919 
L 166.683927 193.087883 
L 167.333236 183.529476 
L 167.982545 155.275186 
L 168.631855 187.819772 
L 169.281164 182.728487 
L 169.930473 184.525889 
L 170.579782 165.077811 
L 171.229091 181.667385 
L 171.8784 180.912835 
L 172.527709 200.034967 
L 173.177018 207.069841 
L 173.826327 172.909447 
L 174.475636 168.905431 
L 175.124945 179.239513 
L 176.423564 188.266486 
L 177.072873 180.99099 
L 177.722182 201.260966 
L 178.371491 192.102967 
L 179.0208 200.677603 
L 179.670109 187.486451 
L 180.319418 203.833248 
L 180.968727 184.60264 
L 182.267345 197.229928 
L 182.916655 198.752896 
L 183.565964 189.483103 
L 184.215273 170.678203 
L 184.864582 200.161685 
L 185.513891 178.989108 
L 186.1632 187.601225 
L 186.812509 181.229882 
L 187.461818 183.725777 
L 188.111127 185.56932 
L 188.760436 191.749762 
L 189.409745 177.064914 
L 190.059055 176.082339 
L 190.708364 177.883856 
L 191.357673 177.649212 
L 192.006982 184.744949 
L 192.656291 176.467439 
L 193.3056 185.320096 
L 193.954909 188.095617 
L 194.604218 181.140102 
L 195.253527 181.814358 
L 195.902836 183.118601 
L 196.552145 181.439672 
L 197.201455 183.971391 
L 197.850764 182.555331 
L 198.500073 181.966895 
L 199.149382 182.192937 
L 199.798691 180.091754 
L 200.448 180.042701 
L 201.097309 182.137652 
L 201.746618 180.678592 
L 202.395927 180.260617 
L 203.045236 179.140338 
L 203.694545 179.144742 
L 204.343855 187.451473 
L 204.993164 165.59468 
L 205.642473 208.928418 
L 206.291782 171.472841 
L 206.941091 225.389373 
L 207.5904 222.985047 
L 208.239709 227.016337 
L 208.889018 217.663835 
L 209.538327 181.059028 
L 210.187636 191.84792 
L 210.836945 221.94039 
L 211.486255 181.623762 
L 212.135564 182.366427 
L 212.784873 204.385919 
L 213.434182 186.648249 
L 214.083491 144.905985 
L 214.7328 172.488247 
L 215.382109 182.638492 
L 216.031418 181.763389 
L 216.680727 199.856032 
L 217.330036 185.66935 
L 217.979345 186.95587 
L 218.628655 195.709114 
L 219.277964 202.557201 
L 219.927273 185.907744 
L 220.576582 215.783235 
L 221.225891 158.747491 
L 221.8752 218.738953 
L 222.524509 209.024437 
L 223.823127 198.398265 
L 224.472436 204.581329 
L 225.121745 203.743231 
L 225.771055 180.349133 
L 226.420364 182.710311 
L 227.069673 168.585398 
L 227.718982 181.123219 
L 228.368291 184.755021 
L 229.0176 173.820136 
L 230.316218 205.072765 
L 230.965527 173.029375 
L 231.614836 184.669906 
L 232.264145 174.384617 
L 232.913455 188.269717 
L 233.562764 186.403712 
L 234.212073 201.383242 
L 234.861382 194.844202 
L 235.510691 171.758469 
L 236.16 175.134584 
L 236.809309 187.014639 
L 237.458618 192.951576 
L 238.757236 174.080168 
L 239.406545 186.670384 
L 240.055855 193.972582 
L 240.705164 181.76529 
L 241.354473 184.242794 
L 242.003782 181.832824 
L 242.653091 187.825246 
L 243.3024 188.660239 
L 243.951709 181.841195 
L 244.601018 193.025846 
L 245.250327 184.101733 
L 245.899636 187.819869 
L 246.548945 184.527783 
L 247.198255 186.075701 
L 247.847564 181.230543 
L 248.496873 187.427407 
L 249.146182 191.385467 
L 249.795491 190.910557 
L 250.4448 189.00858 
L 251.094109 190.290383 
L 251.743418 190.79201 
L 252.392727 190.712897 
L 253.042036 186.302872 
L 253.691345 185.24691 
L 254.989964 185.405568 
L 255.639273 185.177624 
L 256.288582 185.690081 
L 256.937891 187.118917 
L 257.5872 187.788798 
L 258.236509 188.970817 
L 258.885818 189.288644 
L 259.535127 189.139524 
L 260.833745 188.127772 
L 262.132364 188.634547 
L 262.781673 185.791166 
L 263.430982 186.505153 
L 264.080291 188.061323 
L 265.378909 186.430793 
L 266.028218 186.465481 
L 266.677527 186.621449 
L 267.326836 186.004231 
L 267.976145 185.714028 
L 268.625455 186.631462 
L 269.274764 192.219012 
L 269.924073 218.690049 
L 270.573382 199.830993 
L 271.222691 185.588922 
L 271.872 160.34675 
L 272.521309 213.010573 
L 273.170618 172.477076 
L 273.819927 185.781264 
L 274.469236 191.380832 
L 275.118545 189.166947 
L 276.417164 215.797288 
L 277.066473 190.597016 
L 277.715782 181.852047 
L 278.365091 204.220183 
L 279.0144 200.305093 
L 279.663709 177.328956 
L 280.313018 207.011874 
L 280.962327 156.563786 
L 281.611636 186.420565 
L 282.260945 188.59027 
L 282.910255 196.498352 
L 283.559564 206.775047 
L 284.208873 178.05803 
L 284.858182 216.026242 
L 285.507491 173.22483 
L 286.1568 182.121608 
L 286.806109 156.009406 
L 287.455418 205.549903 
L 288.104727 175.077093 
L 288.754036 184.414851 
L 290.052655 158.235243 
L 291.351273 192.265487 
L 292.000582 185.566691 
L 292.649891 188.064324 
L 293.2992 175.424446 
L 293.948509 194.956584 
L 294.597818 180.789771 
L 295.247127 181.885383 
L 295.896436 195.428352 
L 296.545745 183.636933 
L 297.195055 192.031393 
L 297.844364 175.802148 
L 298.493673 191.767975 
L 299.142982 179.296767 
L 299.792291 187.864636 
L 300.4416 180.209224 
L 301.090909 176.34035 
L 301.740218 188.206024 
L 302.389527 166.929154 
L 303.038836 194.785879 
L 303.688145 188.152462 
L 304.337455 184.411984 
L 304.986764 187.219756 
L 305.636073 178.603302 
L 306.285382 184.169036 
L 306.934691 180.130854 
L 307.584 183.042139 
L 308.233309 188.225239 
L 308.882618 184.664573 
L 309.531927 189.696146 
L 310.181236 184.419323 
L 310.830545 187.007211 
L 311.479855 184.607594 
L 312.129164 186.60955 
L 312.778473 185.935168 
L 313.427782 185.04437 
L 314.077091 182.823741 
L 314.7264 183.091348 
L 315.375709 184.814094 
L 316.025018 184.278299 
L 316.674327 184.258578 
L 317.323636 186.412402 
L 317.972945 186.321211 
L 318.622255 185.357384 
L 319.271564 184.941807 
L 319.920873 184.810848 
L 320.570182 183.818059 
L 321.219491 184.966007 
L 321.8688 186.672931 
L 322.518109 185.954309 
L 323.167418 184.515245 
L 323.816727 184.735241 
L 325.115345 184.79903 
L 325.764655 185.089716 
L 326.413964 183.945817 
L 327.063273 183.811813 
L 327.712582 184.352473 
L 328.361891 183.535054 
L 329.0112 185.402849 
L 329.660509 184.194989 
L 330.309818 184.369668 
L 330.959127 184.091149 
L 331.608436 184.210149 
L 332.257745 184.579302 
L 332.907055 184.208456 
L 333.556364 183.647176 
L 334.205673 195.43988 
L 334.854982 195.080019 
L 335.504291 179.799211 
L 336.1536 181.703246 
L 336.802909 163.194915 
L 337.452218 186.860735 
L 338.101527 200.013538 
L 339.400145 178.846354 
L 340.049455 178.426195 
L 340.698764 208.348777 
L 341.348073 181.949128 
L 341.997382 178.371912 
L 342.646691 188.591436 
L 343.296 183.738486 
L 343.945309 160.371619 
L 345.243927 209.12619 
L 345.893236 183.016714 
L 346.542545 176.353824 
L 347.191855 180.350181 
L 347.841164 191.497745 
L 348.490473 189.753221 
L 349.139782 196.39934 
L 349.789091 187.219742 
L 350.4384 182.461347 
L 351.087709 189.694988 
L 351.737018 176.024461 
L 352.386327 176.096867 
L 353.035636 182.704243 
L 353.684945 209.559808 
L 354.334255 199.466015 
L 354.983564 186.039639 
L 355.632873 189.369777 
L 356.282182 189.576366 
L 356.931491 189.593977 
L 357.5808 191.094655 
L 358.230109 186.33141 
L 358.879418 185.686961 
L 359.528727 186.022652 
L 360.178036 181.087432 
L 360.827345 187.851511 
L 361.476655 185.813092 
L 362.125964 178.712587 
L 362.775273 179.06707 
L 363.424582 183.293317 
L 364.073891 186.127488 
L 364.7232 187.869583 
L 365.372509 179.518716 
L 366.021818 193.644698 
L 366.671127 189.610437 
L 367.320436 187.945168 
L 367.969745 191.991655 
L 368.619055 190.027247 
L 369.268364 186.080737 
L 370.566982 189.806315 
L 371.216291 191.089418 
L 371.8656 186.798037 
L 372.514909 189.033886 
L 373.164218 187.894176 
L 373.813527 189.523792 
L 374.462836 189.815689 
L 375.112145 188.22691 
L 376.410764 188.076246 
L 377.709382 190.36605 
L 378.358691 191.054604 
L 379.008 188.595774 
L 379.657309 189.095752 
L 380.306618 189.8495 
L 380.955927 191.08716 
L 381.605236 190.761883 
L 382.254545 191.318179 
L 382.903855 191.155325 
L 383.553164 192.255133 
L 384.202473 191.157315 
L 384.851782 192.602886 
L 385.501091 191.650705 
L 386.1504 191.840938 
L 386.799709 190.940016 
L 387.449018 191.293132 
L 388.098327 191.888483 
L 388.747636 189.898924 
L 389.396945 190.208068 
L 390.046255 190.369622 
L 390.695564 190.393926 
L 391.344873 189.523116 
L 391.994182 190.520139 
L 392.643491 190.081573 
L 393.2928 189.485807 
L 393.942109 189.356103 
L 394.591418 189.489461 
L 395.240727 188.996108 
L 395.890036 189.659973 
L 396.539345 188.992617 
L 397.188655 188.532987 
L 397.837964 188.843839 
L 398.487273 189.404086 
L 398.487273 189.404086 
" clip-path="url(#p1db4e53949)" style="fill: none; stroke: #8c564b; stroke-width: 1.5; stroke-linecap: square"/>
   </g>
  </g>
 </g>
 <defs>
  <clipPath id="p1db4e53949">
   <rect x="57.6" y="41.472" width="357.12" height="266.112"/>
  </clipPath>
 </defs>
</svg>
