<?xml version="1.0" encoding="utf-8" standalone="no"?>
<!DOCTYPE svg PUBLIC "-//W3C//DTD SVG 1.1//EN"
  "http://www.w3.org/Graphics/SVG/1.1/DTD/svg11.dtd">
<svg xmlns:xlink="http://www.w3.org/1999/xlink" width="460.8pt" height="345.6pt" viewBox="0 0 460.8 345.6" xmlns="http://www.w3.org/2000/svg" version="1.1">
 <metadata>
  <rdf:RDF xmlns:dc="http://purl.org/dc/elements/1.1/" xmlns:cc="http://creativecommons.org/ns#" xmlns:rdf="http://www.w3.org/1999/02/22-rdf-syntax-ns#">
   <cc:Work>
    <dc:type rdf:resource="http://purl.org/dc/dcmitype/StillImage"/>
    <dc:date>2026-03-17T23:26:33.546853</dc:date>
    <dc:format>image/svg+xml</dc:format>
    <dc:creator>
     <cc:Agent>
      <dc:title>Matplotlib v3.10.8, https://matplotlib.org/</dc:title>
     </cc:Agent>
    </dc:creator>
   </cc:Work>
  </rdf:RDF>
 </metadata>
 <defs>
  <style type="text/css">*{stroke-linejoin: round; stroke-linecap: butt}</style>
 </defs>
 <g id="figure_1">
  <g id="patch_1">
   <path d="M 0 345.6 
L 460.8 345.6 
L 460.8 0 
L 0 0 
z
" style="fill: #ffffff"/>
  </g>
  <g id="axes_1">
   <g id="patch_2">
    <path d="M 57.6 307.584 
L 414.72 307.584 
L 414.72 41.472 
L 57.6 41.472 
z
" style="fill: #ffffff"/>
   </g>
   <g id="matplotlib.axis_1">
    <g id="xtick_1">
     <g id="line2d_1">
      <defs>
       <path id="m1062c0a982" d="M 0 0 
L 0 3.5 
" style="stroke: #000000; stroke-width: 0.8"/>
      </defs>
      <g>
       <use xlink:href="#m1062c0a982" x="73.832727" y="307.584" style="stroke: #000000; stroke-width: 0.8"/>
      </g>
     </g>
     <g id="text_1">
      <!-- 0 -->
      <g transform="translate(70.651477 322.182437) scale(0.1 -0.1)">
       <defs>
        <path id="DejaVuSans-30" d="M 2034 4250 
Q 1547 4250 1301 3770 
Q 1056 3291 1056 2328 
Q 1056 1369 1301 889 
Q 1547 409 2034 409 
Q 2525 409 2770 889 
Q 3016 1369 3016 2328 
Q 3016 3291 2770 3770 
Q 2525 4250 2034 4250 
z
M 2034 4750 
Q 2819 4750 3233 4129 
Q 3647 3509 3647 2328 
Q 3647 1150 3233 529 
Q 2819 -91 2034 -91 
Q 1250 -91 836 529 
Q 422 1150 422 2328 
Q 422 3509 836 4129 
Q 1250 4750 2034 4750 
z
" transform="scale(0.015625)"/>
       </defs>
       <use xlink:href="#DejaVuSans-30"/>
      </g>
     </g>
    </g>
    <g id="xtick_2">
     <g id="line2d_2">
      <g>
       <use xlink:href="#m1062c0a982" x="138.763636" y="307.584" style="stroke: #000000; stroke-width: 0.8"/>
      </g>
     </g>
     <g id="text_2">
      <!-- 20 -->
      <g transform="translate(132.401136 322.182437) scale(0.1 -0.1)">
       <defs>
        <path id="DejaVuSans-32" d="M 1228 531 
L 3431 531 
L 3431 0 
L 469 0 
L 469 531 
Q 828 903 1448 1529 
Q 2069 2156 2228 2338 
Q 2531 2678 2651 2914 
Q 2772 3150 2772 3378 
Q 2772 3750 2511 3984 
Q 2250 4219 1831 4219 
Q 1534 4219 1204 4116 
Q 875 4013 500 3803 
L 500 4441 
Q 881 4594 1212 4672 
Q 1544 4750 1819 4750 
Q 2544 4750 2975 4387 
Q 3406 4025 3406 3419 
Q 3406 3131 3298 2873 
Q 3191 2616 2906 2266 
Q 2828 2175 2409 1742 
Q 1991 1309 1228 531 
z
" transform="scale(0.015625)"/>
       </defs>
       <use xlink:href="#DejaVuSans-32"/>
       <use xlink:href="#DejaVuSans-30" transform="translate(63.623047 0)"/>
      </g>
     </g>
    </g>
    <g id="xtick_3">
     <g id="line2d_3">
      <g>
       <use xlink:href="#m1062c0a982" x="203.694545" y="307.584" style="stroke: #000000; stroke-width: 0.8"/>
      </g>
     </g>
     <g id="text_3">
      <!-- 40 -->
      <g transform="translate(197.332045 322.182437) scale(0.1 -0.1)">
       <defs>
        <path id="DejaVuSans-34" d="M 2419 4116 
L 825 1625 
L 2419 1625 
L 2419 4116 
z
M 2253 4666 
L 3047 4666 
L 3047 1625 
L 3713 1625 
L 3713 1100 
L 3047 1100 
L 3047 0 
L 2419 0 
L 2419 1100 
L 313 1100 
L 313 1709 
L 2253 4666 
z
" transform="scale(0.015625)"/>
       </defs>
       <use xlink:href="#DejaVuSans-34"/>
       <use xlink:href="#DejaVuSans-30" transform="translate(63.623047 0)"/>
      </g>
     </g>
    </g>
    <g id="xtick_4">
     <g id="line2d_4">
      <g>
       <use xlink:href="#m1062c0a982" x="268.625455" y="307.584" style="stroke: #000000; stroke-width: 0.8"/>
      </g>
     </g>
     <g id="text_4">
      <!-- 60 -->
      <g transform="translate(262.262955 322.182437) scale(0.1 -0.1)">
       <defs>
        <path id="DejaVuSans-36" d="M 2113 2584 
Q 1688 2584 1439 2293 
Q 1191 2003 1191 1497 
Q 1191 994 1439 701 
Q 1688 409 2113 409 
Q 2538 409 2786 701 
Q 3034 994 3034 1497 
Q 3034 2003 2786 2293 
Q 2538 2584 2113 2584 
z
M 3366 4563 
L 3366 3988 
Q 3128 4100 2886 4159 
Q 2644 4219 2406 4219 
Q 1781 4219 1451 3797 
Q 1122 3375 1075 2522 
Q 1259 2794 1537 2939 
Q 1816 3084 2150 3084 
Q 2853 3084 3261 2657 
Q 3669 2231 3669 1497 
Q 3669 778 3244 343 
Q 2819 -91 2113 -91 
Q 1303 -91 875 529 
Q 447 1150 447 2328 
Q 447 3434 972 4092 
Q 1497 4750 2381 4750 
Q 2619 4750 2861 4703 
Q 3103 4656 3366 4563 
z
" transform="scale(0.015625)"/>
       </defs>
       <use xlink:href="#DejaVuSans-36"/>
       <use xlink:href="#DejaVuSans-30" transform="translate(63.623047 0)"/>
      </g>
     </g>
    </g>
    <g id="xtick_5">
     <g id="line2d_5">
      <g>
       <use xlink:href="#m1062c0a982" x="333.556364" y="307.584" style="stroke: #000000; stroke-width: 0.8"/>
      </g>
     </g>
     <g id="text_5">
      <!-- 80 -->
      <g transform="translate(327.193864 322.182437) scale(0.1 -0.1)">
       <defs>
        <path id="DejaVuSans-38" d="M 2034 2216 
Q 1584 2216 1326 1975 
Q 1069 1734 1069 1313 
Q 1069 891 1326 650 
Q 1584 409 2034 409 
Q 2484 409 2743 651 
Q 3003 894 3003 1313 
Q 3003 1734 2745 1975 
Q 2488 2216 2034 2216 
z
M 1403 2484 
Q 997 2584 770 2862 
Q 544 3141 544 3541 
Q 544 4100 942 4425 
Q 1341 4750 2034 4750 
Q 2731 4750 3128 4425 
Q 3525 4100 3525 3541 
Q 3525 3141 3298 2862 
Q 3072 2584 2669 2484 
Q 3125 2378 3379 2068 
Q 3634 1759 3634 1313 
Q 3634 634 3220 271 
Q 2806 -91 2034 -91 
Q 1263 -91 848 271 
Q 434 634 434 1313 
Q 434 1759 690 2068 
Q 947 2378 1403 2484 
z
M 1172 3481 
Q 1172 3119 1398 2916 
Q 1625 2713 2034 2713 
Q 2441 2713 2670 2916 
Q 2900 3119 2900 3481 
Q 2900 3844 2670 4047 
Q 2441 4250 2034 4250 
Q 1625 4250 1398 4047 
Q 1172 3844 1172 3481 
z
" transform="scale(0.015625)"/>
       </defs>
       <use xlink:href="#DejaVuSans-38"/>
       <use xlink:href="#DejaVuSans-30" transform="translate(63.623047 0)"/>
      </g>
     </g>
    </g>
    <g id="xtick_6">
     <g id="line2d_6">
      <g>
       <use xlink:href="#m1062c0a982" x="398.487273" y="307.584" style="stroke: #000000; stroke-width: 0.8"/>
      </g>
     </g>
     <g id="text_6">
      <!-- 100 -->
      <g transform="translate(388.943523 322.182437) scale(0.1 -0.1)">
       <defs>
        <path id="DejaVuSans-31" d="M 794 531 
L 1825 531 
L 1825 4091 
L 703 3866 
L 703 4441 
L 1819 4666 
L 2450 4666 
L 2450 531 
L 3481 531 
L 3481 0 
L 794 0 
L 794 531 
z
" transform="scale(0.015625)"/>
       </defs>
       <use xlink:href="#DejaVuSans-31"/>
       <use xlink:href="#DejaVuSans-30" transform="translate(63.623047 0)"/>
       <use xlink:href="#DejaVuSans-30" transform="translate(127.246094 0)"/>
      </g>
     </g>
    </g>
   </g>
   <g id="matplotlib.axis_2">
    <g id="ytick_1">
     <g id="line2d_7">
      <defs>
       <path id="mfb5c423096" d="M 0 0 
L -3.5 0 
" style="stroke: #000000; stroke-width: 0.8"/>
      </defs>
      <g>
       <use xlink:href="#mfb5c423096" x="57.6" y="273.829003" style="stroke: #000000; stroke-width: 0.8"/>
      </g>
     </g>
     <g id="text_7">
      <!-- 0.2 -->
      <g transform="translate(34.696875 277.628222) scale(0.1 -0.1)">
       <defs>
        <path id="DejaVuSans-2e" d="M 684 794 
L 1344 794 
L 1344 0 
L 684 0 
L 684 794 
z
" transform="scale(0.015625)"/>
       </defs>
       <use xlink:href="#DejaVuSans-30"/>
       <use xlink:href="#DejaVuSans-2e" transform="translate(63.623047 0)"/>
       <use xlink:href="#DejaVuSans-32" transform="translate(95.410156 0)"/>
      </g>
     </g>
    </g>
    <g id="ytick_2">
     <g id="line2d_8">
      <g>
       <use xlink:href="#mfb5c423096" x="57.6" y="218.763752" style="stroke: #000000; stroke-width: 0.8"/>
      </g>
     </g>
     <g id="text_8">
      <!-- 0.4 -->
      <g transform="translate(34.696875 222.562971) scale(0.1 -0.1)">
       <use xlink:href="#DejaVuSans-30"/>
       <use xlink:href="#DejaVuSans-2e" transform="translate(63.623047 0)"/>
       <use xlink:href="#DejaVuSans-34" transform="translate(95.410156 0)"/>
      </g>
     </g>
    </g>
    <g id="ytick_3">
     <g id="line2d_9">
      <g>
       <use xlink:href="#mfb5c423096" x="57.6" y="163.698501" style="stroke: #000000; stroke-width: 0.8"/>
      </g>
     </g>
     <g id="text_9">
      <!-- 0.6 -->
      <g transform="translate(34.696875 167.49772) scale(0.1 -0.1)">
       <use xlink:href="#DejaVuSans-30"/>
       <use xlink:href="#DejaVuSans-2e" transform="translate(63.623047 0)"/>
       <use xlink:href="#DejaVuSans-36" transform="translate(95.410156 0)"/>
      </g>
     </g>
    </g>
    <g id="ytick_4">
     <g id="line2d_10">
      <g>
       <use xlink:href="#mfb5c423096" x="57.6" y="108.633251" style="stroke: #000000; stroke-width: 0.8"/>
      </g>
     </g>
     <g id="text_10">
      <!-- 0.8 -->
      <g transform="translate(34.696875 112.432469) scale(0.1 -0.1)">
       <use xlink:href="#DejaVuSans-30"/>
       <use xlink:href="#DejaVuSans-2e" transform="translate(63.623047 0)"/>
       <use xlink:href="#DejaVuSans-38" transform="translate(95.410156 0)"/>
      </g>
     </g>
    </g>
    <g id="ytick_5">
     <g id="line2d_11">
      <g>
       <use xlink:href="#mfb5c423096" x="57.6" y="53.568" style="stroke: #000000; stroke-width: 0.8"/>
      </g>
     </g>
     <g id="text_11">
      <!-- 1.0 -->
      <g transform="translate(34.696875 57.367219) scale(0.1 -0.1)">
       <use xlink:href="#DejaVuSans-31"/>
       <use xlink:href="#DejaVuSans-2e" transform="translate(63.623047 0)"/>
       <use xlink:href="#DejaVuSans-30" transform="translate(95.410156 0)"/>
      </g>
     </g>
    </g>
   </g>
   <g id="line2d_12">
    <path d="M 73.832727 191.236116 
L 77.079273 187.163351 
L 80.325818 169.681582 
L 83.572364 153.208137 
L 86.818909 141.998382 
L 90.065455 131.517427 
L 93.312 124.126021 
L 96.558545 113.695759 
L 99.805091 104.339053 
L 103.051636 95.069391 
L 106.298182 85.668934 
L 109.544727 82.389645 
L 112.791273 78.070704 
L 116.037818 73.749596 
L 119.284364 69.405645 
L 122.530909 69.338853 
L 125.777455 66.184417 
L 129.024 63.819172 
L 132.270545 60.981249 
L 135.517091 59.580085 
L 138.763636 59.209039 
L 142.010182 58.772628 
L 145.256727 57.366344 
L 148.503273 62.689425 
L 151.749818 60.091443 
L 154.996364 58.08305 
L 158.242909 57.365901 
L 161.489455 56.963707 
L 164.736 55.763279 
L 167.982545 55.787665 
L 171.229091 55.715179 
L 174.475636 55.139015 
L 177.722182 56.152312 
L 180.968727 55.424381 
L 184.215273 54.704196 
L 187.461818 54.206492 
L 190.708364 53.954768 
L 193.954909 54.302921 
L 197.201455 53.855319 
L 200.448 53.99376 
L 203.694545 53.793812 
L 206.941091 53.731631 
L 210.187636 53.596341 
L 213.434182 53.568 
L 216.680727 53.577978 
L 219.927273 53.586364 
L 223.173818 53.889207 
L 226.420364 53.769918 
L 229.666909 53.632248 
L 232.913455 53.613884 
L 236.16 55.210779 
L 239.406545 54.072745 
L 242.653091 53.971819 
L 245.899636 53.714843 
L 249.146182 53.668959 
L 252.392727 54.173703 
L 255.639273 53.641438 
L 258.885818 53.604711 
L 262.132364 53.595521 
L 265.378909 54.384811 
L 268.625455 54.439869 
L 271.872 54.669307 
L 275.118545 53.916744 
L 278.365091 53.641438 
L 281.611636 53.751538 
L 284.858182 53.779091 
L 288.104727 53.632248 
L 291.351273 53.971819 
L 294.597818 53.604711 
L 297.844364 53.586364 
L 301.090909 53.57719 
L 304.337455 53.57719 
L 307.584 53.586364 
L 310.830545 53.568 
L 314.077091 53.568 
L 317.323636 53.595521 
L 320.570182 53.595521 
L 323.816727 53.788248 
L 327.063273 53.623058 
L 330.309818 53.586364 
L 333.556364 53.57719 
L 336.802909 53.57719 
L 340.049455 53.57719 
L 343.296 53.57719 
L 346.542545 53.568 
L 349.789091 53.568 
L 353.035636 53.568 
L 356.282182 53.568 
L 359.528727 53.568 
L 362.775273 53.568 
L 366.021818 53.568 
L 369.268364 53.57719 
L 372.514909 53.568 
L 375.761455 53.568 
L 379.008 53.568 
L 382.254545 53.568 
L 385.501091 53.568 
L 388.747636 53.57719 
L 391.994182 53.568 
L 395.240727 53.568 
L 398.487273 53.568 
" clip-path="url(#p9f50c27df3)" style="fill: none; stroke: #1f77b4; stroke-width: 1.5; stroke-linecap: square"/>
   </g>
   <g id="line2d_13">
    <path d="M 73.832727 191.231127 
L 77.079273 207.773358 
L 80.325818 147.145113 
L 83.572364 162.875546 
L 86.818909 148.795145 
L 90.065455 134.867053 
L 93.312 131.109473 
L 96.558545 116.638694 
L 99.805091 107.06238 
L 103.051636 97.887145 
L 106.298182 86.315796 
L 109.544727 84.42766 
L 112.791273 79.241395 
L 116.037818 75.433402 
L 119.284364 71.006937 
L 122.530909 70.550129 
L 125.777455 67.548673 
L 129.024 65.193668 
L 132.270545 62.159194 
L 135.517091 60.177517 
L 138.763636 60.172348 
L 142.010182 59.137422 
L 145.256727 57.90327 
L 148.503273 63.822881 
L 151.749818 61.509822 
L 154.996364 58.882761 
L 158.242909 58.000192 
L 161.489455 58.078701 
L 164.736 56.222861 
L 167.982545 56.299056 
L 171.229091 55.995294 
L 174.475636 55.357113 
L 177.722182 56.649458 
L 180.968727 55.636424 
L 184.215273 55.047706 
L 187.461818 54.3 
L 190.708364 54.168944 
L 193.954909 54.303644 
L 197.201455 54.005362 
L 200.448 54.1226 
L 203.694545 53.828094 
L 206.941091 53.795403 
L 210.187636 53.624666 
L 213.434182 53.568 
L 216.680727 53.568 
L 219.927273 53.604711 
L 223.173818 53.843323 
L 226.420364 53.788248 
L 229.666909 53.641438 
L 232.913455 53.586364 
L 236.16 55.495275 
L 239.406545 54.173703 
L 242.653091 54.008513 
L 245.899636 53.788248 
L 249.146182 53.659769 
L 252.392727 54.449059 
L 255.639273 53.69648 
L 258.885818 53.623058 
L 262.132364 53.586364 
L 265.378909 54.687654 
L 268.625455 54.724365 
L 271.872 55.10982 
L 275.118545 54.026893 
L 278.365091 53.659769 
L 281.611636 53.678132 
L 284.858182 53.935091 
L 288.104727 53.678132 
L 291.351273 53.935091 
L 294.597818 53.604711 
L 297.844364 53.604711 
L 301.090909 53.586364 
L 304.337455 53.568 
L 307.584 53.586364 
L 310.830545 53.568 
L 314.077091 53.568 
L 317.323636 53.568 
L 320.570182 53.623058 
L 323.816727 53.678132 
L 327.063273 53.678132 
L 330.309818 53.604711 
L 333.556364 53.586364 
L 336.802909 53.586364 
L 340.049455 53.586364 
L 343.296 53.586364 
L 346.542545 53.568 
L 349.789091 53.568 
L 353.035636 53.568 
L 356.282182 53.568 
L 359.528727 53.568 
L 362.775273 53.568 
L 366.021818 53.568 
L 369.268364 53.568 
L 372.514909 53.568 
L 375.761455 53.568 
L 379.008 53.568 
L 382.254545 53.568 
L 385.501091 53.568 
L 388.747636 53.586364 
L 391.994182 53.568 
L 395.240727 53.568 
L 398.487273 53.568 
" clip-path="url(#p9f50c27df3)" style="fill: none; stroke: #ff7f0e; stroke-width: 1.5; stroke-linecap: square"/>
   </g>
   <g id="line2d_14">
    <path d="M 73.832727 191.231127 
L 77.079273 166.531363 
L 80.325818 192.232616 
L 83.572364 143.541039 
L 86.818909 135.202997 
L 90.065455 128.167588 
L 93.312 117.140566 
L 96.558545 110.752298 
L 99.805091 101.614906 
L 103.051636 92.2497 
L 106.298182 85.021827 
L 109.544727 80.350777 
L 112.791273 76.899405 
L 116.037818 72.064707 
L 119.284364 67.803433 
L 122.530909 68.127052 
L 125.777455 64.819373 
L 129.024 62.443822 
L 132.270545 59.802549 
L 135.517091 58.982308 
L 138.763636 58.24504 
L 142.010182 58.407572 
L 145.256727 56.829073 
L 148.503273 61.555739 
L 151.749818 58.672785 
L 154.996364 57.282994 
L 158.242909 56.731347 
L 161.489455 55.848483 
L 164.736 55.303418 
L 167.982545 55.276159 
L 171.229091 55.435081 
L 174.475636 54.920884 
L 177.722182 55.655181 
L 180.968727 55.212272 
L 184.215273 54.360654 
L 187.461818 54.113049 
L 190.708364 53.740575 
L 193.954909 54.302199 
L 197.201455 53.705243 
L 200.448 53.864903 
L 203.694545 53.759546 
L 206.941091 53.667843 
L 210.187636 53.568 
L 213.434182 53.568 
L 216.680727 53.587955 
L 219.927273 53.568 
L 223.173818 53.935091 
L 226.420364 53.751538 
L 229.666909 53.623058 
L 232.913455 53.641438 
L 236.16 54.926283 
L 239.406545 53.971819 
L 242.653091 53.935091 
L 245.899636 53.641438 
L 249.146182 53.678132 
L 252.392727 53.898397 
L 255.639273 53.586364 
L 258.885818 53.586364 
L 262.132364 53.604711 
L 265.378909 54.081935 
L 268.625455 54.155373 
L 271.872 54.228778 
L 275.118545 53.806612 
L 278.365091 53.623058 
L 281.611636 53.824976 
L 284.858182 53.623058 
L 288.104727 53.586364 
L 291.351273 54.008513 
L 294.597818 53.604711 
L 297.844364 53.568 
L 301.090909 53.568 
L 304.337455 53.586364 
L 307.584 53.586364 
L 310.830545 53.568 
L 314.077091 53.568 
L 317.323636 53.623058 
L 320.570182 53.568 
L 323.816727 53.898397 
L 327.063273 53.568 
L 330.309818 53.568 
L 333.556364 53.568 
L 336.802909 53.568 
L 340.049455 53.568 
L 343.296 53.568 
L 346.542545 53.568 
L 349.789091 53.568 
L 353.035636 53.568 
L 356.282182 53.568 
L 359.528727 53.568 
L 362.775273 53.568 
L 366.021818 53.568 
L 369.268364 53.586364 
L 372.514909 53.568 
L 375.761455 53.568 
L 379.008 53.568 
L 382.254545 53.568 
L 385.501091 53.568 
L 388.747636 53.568 
L 391.994182 53.568 
L 395.240727 53.568 
L 398.487273 53.568 
" clip-path="url(#p9f50c27df3)" style="fill: none; stroke: #2ca02c; stroke-width: 1.5; stroke-linecap: square"/>
   </g>
   <g id="line2d_15">
    <path d="M 73.832727 206.527029 
L 77.079273 198.879082 
L 80.325818 210.350998 
L 83.572364 167.063596 
L 86.818909 142.28424 
L 90.065455 144.884536 
L 93.312 149.473302 
L 96.558545 136.624756 
L 99.805091 169.205031 
L 103.051636 152.532491 
L 106.298182 156.968309 
L 109.544727 177.158898 
L 112.791273 165.075125 
L 116.037818 180.829895 
L 119.284364 163.239618 
L 122.530909 156.203488 
L 125.777455 160.180446 
L 129.024 159.262693 
L 132.270545 160.945235 
L 135.517091 165.534001 
L 138.763636 147.484848 
L 142.010182 171.652379 
L 145.256727 149.626267 
L 148.503273 152.379543 
L 151.749818 172.876044 
L 154.996364 151.308825 
L 158.242909 167.369508 
L 161.489455 150.238108 
L 164.736 147.637796 
L 167.982545 158.8038 
L 171.229091 153.603208 
L 174.475636 162.321881 
L 177.722182 159.568605 
L 180.968727 148.096672 
L 184.215273 147.943724 
L 187.461818 152.685439 
L 190.708364 158.039011 
L 193.954909 161.862972 
L 197.201455 153.756156 
L 200.448 147.943708 
L 203.694545 153.450244 
L 206.941091 152.379543 
L 210.187636 154.215049 
L 213.434182 155.285751 
L 216.680727 154.367997 
L 219.927273 156.662381 
L 223.173818 153.909121 
L 226.420364 154.215017 
L 229.666909 158.039011 
L 232.913455 157.274205 
L 236.16 154.215049 
L 239.406545 152.991351 
L 242.653091 153.297296 
L 245.899636 155.132786 
L 249.146182 153.603192 
L 252.392727 154.520945 
L 255.639273 156.815329 
L 258.885818 155.438715 
L 262.132364 155.438699 
L 265.378909 155.438699 
L 268.625455 155.591647 
L 271.872 154.367997 
L 275.118545 155.285734 
L 278.365091 154.826858 
L 281.611636 154.826874 
L 284.858182 155.591663 
L 288.104727 154.520962 
L 291.351273 156.509416 
L 294.597818 156.203504 
L 297.844364 156.356452 
L 301.090909 156.356452 
L 304.337455 154.673926 
L 307.584 156.05054 
L 310.830545 156.509433 
L 314.077091 155.438715 
L 317.323636 154.979822 
L 320.570182 156.356452 
L 323.816727 155.285751 
L 327.063273 155.744627 
L 330.309818 155.285751 
L 333.556364 153.603208 
L 336.802909 155.591663 
L 340.049455 155.591679 
L 343.296 154.215049 
L 346.542545 156.356452 
L 349.789091 155.591679 
L 353.035636 154.826874 
L 356.282182 154.673926 
L 359.528727 155.285751 
L 362.775273 154.826874 
L 366.021818 154.215033 
L 369.268364 157.121257 
L 372.514909 158.039011 
L 375.761455 156.356452 
L 379.008 156.203504 
L 382.254545 154.062069 
L 385.501091 156.509433 
L 388.747636 155.897575 
L 391.994182 155.744627 
L 395.240727 155.897592 
L 398.487273 155.438699 
" clip-path="url(#p9f50c27df3)" style="fill: none; stroke: #d62728; stroke-width: 1.5; stroke-linecap: square"/>
   </g>
   <g id="patch_3">
    <path d="M 57.6 307.584 
L 57.6 41.472 
" style="fill: none; stroke: #000000; stroke-width: 0.8; stroke-linejoin: miter; stroke-linecap: square"/>
   </g>
   <g id="patch_4">
    <path d="M 414.72 307.584 
L 414.72 41.472 
" style="fill: none; stroke: #000000; stroke-width: 0.8; stroke-linejoin: miter; stroke-linecap: square"/>
   </g>
   <g id="patch_5">
    <path d="M 57.6 307.584 
L 414.72 307.584 
" style="fill: none; stroke: #000000; stroke-width: 0.8; stroke-linejoin: miter; stroke-linecap: square"/>
   </g>
   <g id="patch_6">
    <path d="M 57.6 41.472 
L 414.72 41.472 
" style="fill: none; stroke: #000000; stroke-width: 0.8; stroke-linejoin: miter; stroke-linecap: square"/>
   </g>
   <g id="text_12">
    <!-- red7 -->
    <g transform="translate(222.51 35.472) scale(0.12 -0.12)">
     <defs>
      <path id="DejaVuSans-72" d="M 2631 2963 
Q 2534 3019 2420 3045 
Q 2306 3072 2169 3072 
Q 1681 3072 1420 2755 
Q 1159 2438 1159 1844 
L 1159 0 
L 581 0 
L 581 3500 
L 1159 3500 
L 1159 2956 
Q 1341 3275 1631 3429 
Q 1922 3584 2338 3584 
Q 2397 3584 2469 3576 
Q 2541 3569 2628 3553 
L 2631 2963 
z
" transform="scale(0.015625)"/>
      <path id="DejaVuSans-65" d="M 3597 1894 
L 3597 1613 
L 953 1613 
Q 991 1019 1311 708 
Q 1631 397 2203 397 
Q 2534 397 2845 478 
Q 3156 559 3463 722 
L 3463 178 
Q 3153 47 2828 -22 
Q 2503 -91 2169 -91 
Q 1331 -91 842 396 
Q 353 884 353 1716 
Q 353 2575 817 3079 
Q 1281 3584 2069 3584 
Q 2775 3584 3186 3129 
Q 3597 2675 3597 1894 
z
M 3022 2063 
Q 3016 2534 2758 2815 
Q 2500 3097 2075 3097 
Q 1594 3097 1305 2825 
Q 1016 2553 972 2059 
L 3022 2063 
z
" transform="scale(0.015625)"/>
      <path id="DejaVuSans-64" d="M 2906 2969 
L 2906 4863 
L 3481 4863 
L 3481 0 
L 2906 0 
L 2906 525 
Q 2725 213 2448 61 
Q 2172 -91 1784 -91 
Q 1150 -91 751 415 
Q 353 922 353 1747 
Q 353 2572 751 3078 
Q 1150 3584 1784 3584 
Q 2172 3584 2448 3432 
Q 2725 3281 2906 2969 
z
M 947 1747 
Q 947 1113 1208 752 
Q 1469 391 1925 391 
Q 2381 391 2643 752 
Q 2906 1113 2906 1747 
Q 2906 2381 2643 2742 
Q 2381 3103 1925 3103 
Q 1469 3103 1208 2742 
Q 947 2381 947 1747 
z
" transform="scale(0.015625)"/>
      <path id="DejaVuSans-37" d="M 525 4666 
L 3525 4666 
L 3525 4397 
L 1831 0 
L 1172 0 
L 2766 4134 
L 525 4134 
L 525 4666 
z
" transform="scale(0.015625)"/>
     </defs>
     <use xlink:href="#DejaVuSans-72"/>
     <use xlink:href="#DejaVuSans-65" transform="translate(38.863281 0)"/>
     <use xlink:href="#DejaVuSans-64" transform="translate(100.386719 0)"/>
     <use xlink:href="#DejaVuSans-37" transform="translate(163.863281 0)"/>
    </g>
   </g>
   <g id="legend_1">
    <g id="patch_7">
     <path d="M 64.6 302.584 
L 156.060937 302.584 
Q 158.060937 302.584 158.060937 300.584 
L 158.060937 212.40275 
Q 158.060937 210.40275 156.060937 210.40275 
L 64.6 210.40275 
Q 62.6 210.40275 62.6 212.40275 
L 62.6 300.584 
Q 62.6 302.584 64.6 302.584 
z
" style="fill: #ffffff; opacity: 0.8; stroke: #cccccc; stroke-linejoin: miter"/>
    </g>
    <g id="line2d_16">
     <path d="M 66.6 218.501187 
L 76.6 218.501187 
L 86.6 218.501187 
" style="fill: none; stroke: #1f77b4; stroke-width: 1.5; stroke-linecap: square"/>
    </g>
    <g id="text_13">
     <!-- train -->
     <g transform="translate(94.6 222.001187) scale(0.1 -0.1)">
      <defs>
       <path id="DejaVuSans-74" d="M 1172 4494 
L 1172 3500 
L 2356 3500 
L 2356 3053 
L 1172 3053 
L 1172 1153 
Q 1172 725 1289 603 
Q 1406 481 1766 481 
L 2356 481 
L 2356 0 
L 1766 0 
Q 1100 0 847 248 
Q 594 497 594 1153 
L 594 3053 
L 172 3053 
L 172 3500 
L 594 3500 
L 594 4494 
L 1172 4494 
z
" transform="scale(0.015625)"/>
       <path id="DejaVuSans-61" d="M 2194 1759 
Q 1497 1759 1228 1600 
Q 959 1441 959 1056 
Q 959 750 1161 570 
Q 1363 391 1709 391 
Q 2188 391 2477 730 
Q 2766 1069 2766 1631 
L 2766 1759 
L 2194 1759 
z
M 3341 1997 
L 3341 0 
L 2766 0 
L 2766 531 
Q 2569 213 2275 61 
Q 1981 -91 1556 -91 
Q 1019 -91 701 211 
Q 384 513 384 1019 
Q 384 1609 779 1909 
Q 1175 2209 1959 2209 
L 2766 2209 
L 2766 2266 
Q 2766 2663 2505 2880 
Q 2244 3097 1772 3097 
Q 1472 3097 1187 3025 
Q 903 2953 641 2809 
L 641 3341 
Q 956 3463 1253 3523 
Q 1550 3584 1831 3584 
Q 2591 3584 2966 3190 
Q 3341 2797 3341 1997 
z
" transform="scale(0.015625)"/>
       <path id="DejaVuSans-69" d="M 603 3500 
L 1178 3500 
L 1178 0 
L 603 0 
L 603 3500 
z
M 603 4863 
L 1178 4863 
L 1178 4134 
L 603 4134 
L 603 4863 
z
" transform="scale(0.015625)"/>
       <path id="DejaVuSans-6e" d="M 3513 2113 
L 3513 0 
L 2938 0 
L 2938 2094 
Q 2938 2591 2744 2837 
Q 2550 3084 2163 3084 
Q 1697 3084 1428 2787 
Q 1159 2491 1159 1978 
L 1159 0 
L 581 0 
L 581 3500 
L 1159 3500 
L 1159 2956 
Q 1366 3272 1645 3428 
Q 1925 3584 2291 3584 
Q 2894 3584 3203 3211 
Q 3513 2838 3513 2113 
z
" transform="scale(0.015625)"/>
      </defs>
      <use xlink:href="#DejaVuSans-74"/>
      <use xlink:href="#DejaVuSans-72" transform="translate(39.208984 0)"/>
      <use xlink:href="#DejaVuSans-61" transform="translate(80.322266 0)"/>
      <use xlink:href="#DejaVuSans-69" transform="translate(141.601562 0)"/>
      <use xlink:href="#DejaVuSans-6e" transform="translate(169.384766 0)"/>
     </g>
    </g>
    <g id="line2d_17">
     <path d="M 66.6 233.179312 
L 76.6 233.179312 
L 86.6 233.179312 
" style="fill: none; stroke: #ff7f0e; stroke-width: 1.5; stroke-linecap: square"/>
    </g>
    <g id="text_14">
     <!-- train_class0 -->
     <g transform="translate(94.6 236.679312) scale(0.1 -0.1)">
      <defs>
       <path id="DejaVuSans-5f" d="M 3263 -1063 
L 3263 -1509 
L -63 -1509 
L -63 -1063 
L 3263 -1063 
z
" transform="scale(0.015625)"/>
       <path id="DejaVuSans-63" d="M 3122 3366 
L 3122 2828 
Q 2878 2963 2633 3030 
Q 2388 3097 2138 3097 
Q 1578 3097 1268 2742 
Q 959 2388 959 1747 
Q 959 1106 1268 751 
Q 1578 397 2138 397 
Q 2388 397 2633 464 
Q 2878 531 3122 666 
L 3122 134 
Q 2881 22 2623 -34 
Q 2366 -91 2075 -91 
Q 1284 -91 818 406 
Q 353 903 353 1747 
Q 353 2603 823 3093 
Q 1294 3584 2113 3584 
Q 2378 3584 2631 3529 
Q 2884 3475 3122 3366 
z
" transform="scale(0.015625)"/>
       <path id="DejaVuSans-6c" d="M 603 4863 
L 1178 4863 
L 1178 0 
L 603 0 
L 603 4863 
z
" transform="scale(0.015625)"/>
       <path id="DejaVuSans-73" d="M 2834 3397 
L 2834 2853 
Q 2591 2978 2328 3040 
Q 2066 3103 1784 3103 
Q 1356 3103 1142 2972 
Q 928 2841 928 2578 
Q 928 2378 1081 2264 
Q 1234 2150 1697 2047 
L 1894 2003 
Q 2506 1872 2764 1633 
Q 3022 1394 3022 966 
Q 3022 478 2636 193 
Q 2250 -91 1575 -91 
Q 1294 -91 989 -36 
Q 684 19 347 128 
L 347 722 
Q 666 556 975 473 
Q 1284 391 1588 391 
Q 1994 391 2212 530 
Q 2431 669 2431 922 
Q 2431 1156 2273 1281 
Q 2116 1406 1581 1522 
L 1381 1569 
Q 847 1681 609 1914 
Q 372 2147 372 2553 
Q 372 3047 722 3315 
Q 1072 3584 1716 3584 
Q 2034 3584 2315 3537 
Q 2597 3491 2834 3397 
z
" transform="scale(0.015625)"/>
      </defs>
      <use xlink:href="#DejaVuSans-74"/>
      <use xlink:href="#DejaVuSans-72" transform="translate(39.208984 0)"/>
      <use xlink:href="#DejaVuSans-61" transform="translate(80.322266 0)"/>
      <use xlink:href="#DejaVuSans-69" transform="translate(141.601562 0)"/>
      <use xlink:href="#DejaVuSans-6e" transform="translate(169.384766 0)"/>
      <use xlink:href="#DejaVuSans-5f" transform="translate(232.763672 0)"/>
      <use xlink:href="#DejaVuSans-63" transform="translate(282.763672 0)"/>
      <use xlink:href="#DejaVuSans-6c" transform="translate(337.744141 0)"/>
      <use xlink:href="#DejaVuSans-61" transform="translate(365.527344 0)"/>
      <use xlink:href="#DejaVuSans-73" transform="translate(426.806641 0)"/>
      <use xlink:href="#DejaVuSans-73" transform="translate(478.90625 0)"/>
      <use xlink:href="#DejaVuSans-30" transform="translate(531.005859 0)"/>
     </g>
    </g>
    <g id="line2d_18">
     <path d="M 66.6 248.135562 
L 76.6 248.135562 
L 86.6 248.135562 
" style="fill: none; stroke: #2ca02c; stroke-width: 1.5; stroke-linecap: square"/>
    </g>
    <g id="text_15">
     <!-- train_class1 -->
     <g transform="translate(94.6 251.635562) scale(0.1 -0.1)">
      <use xlink:href="#DejaVuSans-74"/>
      <use xlink:href="#DejaVuSans-72" transform="translate(39.208984 0)"/>
      <use xlink:href="#DejaVuSans-61" transform="translate(80.322266 0)"/>
      <use xlink:href="#DejaVuSans-69" transform="translate(141.601562 0)"/>
      <use xlink:href="#DejaVuSans-6e" transform="translate(169.384766 0)"/>
      <use xlink:href="#DejaVuSans-5f" transform="translate(232.763672 0)"/>
      <use xlink:href="#DejaVuSans-63" transform="translate(282.763672 0)"/>
      <use xlink:href="#DejaVuSans-6c" transform="translate(337.744141 0)"/>
      <use xlink:href="#DejaVuSans-61" transform="translate(365.527344 0)"/>
      <use xlink:href="#DejaVuSans-73" transform="translate(426.806641 0)"/>
      <use xlink:href="#DejaVuSans-73" transform="translate(478.90625 0)"/>
      <use xlink:href="#DejaVuSans-31" transform="translate(531.005859 0)"/>
     </g>
    </g>
    <g id="line2d_19">
     <path d="M 66.6 263.091812 
L 76.6 263.091812 
L 86.6 263.091812 
" style="fill: none; stroke: #d62728; stroke-width: 1.5; stroke-linecap: square"/>
    </g>
    <g id="text_16">
     <!-- test -->
     <g transform="translate(94.6 266.591812) scale(0.1 -0.1)">
      <use xlink:href="#DejaVuSans-74"/>
      <use xlink:href="#DejaVuSans-65" transform="translate(39.208984 0)"/>
      <use xlink:href="#DejaVuSans-73" transform="translate(100.732422 0)"/>
      <use xlink:href="#DejaVuSans-74" transform="translate(152.832031 0)"/>
     </g>
    </g>
    <g id="line2d_20">
     <path d="M 66.6 277.769937 
L 76.6 277.769937 
L 86.6 277.769937 
" style="fill: none; stroke: #9467bd; stroke-width: 1.5; stroke-linecap: square"/>
    </g>
    <g id="text_17">
     <!-- test_class0 -->
     <g transform="translate(94.6 281.269937) scale(0.1 -0.1)">
      <use xlink:href="#DejaVuSans-74"/>
      <use xlink:href="#DejaVuSans-65" transform="translate(39.208984 0)"/>
      <use xlink:href="#DejaVuSans-73" transform="translate(100.732422 0)"/>
      <use xlink:href="#DejaVuSans-74" transform="translate(152.832031 0)"/>
      <use xlink:href="#DejaVuSans-5f" transform="translate(192.041016 0)"/>
      <use xlink:href="#DejaVuSans-63" transform="translate(242.041016 0)"/>
      <use xlink:href="#DejaVuSans-6c" transform="translate(297.021484 0)"/>
      <use xlink:href="#DejaVuSans-61" transform="translate(324.804688 0)"/>
      <use xlink:href="#DejaVuSans-73" transform="translate(386.083984 0)"/>
      <use xlink:href="#DejaVuSans-73" transform="translate(438.183594 0)"/>
      <use xlink:href="#DejaVuSans-30" transform="translate(490.283203 0)"/>
     </g>
    </g>
    <g id="line2d_21">
     <path d="M 66.6 292.726187 
L 76.6 292.726187 
L 86.6 292.726187 
" style="fill: none; stroke: #8c564b; stroke-width: 1.5; stroke-linecap: square"/>
    </g>
    <g id="text_18">
     <!-- test_class1 -->
     <g transform="translate(94.6 296.226187) scale(0.1 -0.1)">
      <use xlink:href="#DejaVuSans-74"/>
      <use xlink:href="#DejaVuSans-65" transform="translate(39.208984 0)"/>
      <use xlink:href="#DejaVuSans-73" transform="translate(100.732422 0)"/>
      <use xlink:href="#DejaVuSans-74" transform="translate(152.832031 0)"/>
      <use xlink:href="#DejaVuSans-5f" transform="translate(192.041016 0)"/>
      <use xlink:href="#DejaVuSans-63" transform="translate(242.041016 0)"/>
      <use xlink:href="#DejaVuSans-6c" transform="translate(297.021484 0)"/>
      <use xlink:href="#DejaVuSans-61" transform="translate(324.804688 0)"/>
      <use xlink:href="#DejaVuSans-73" transform="translate(386.083984 0)"/>
      <use xlink:href="#DejaVuSans-73" transform="translate(438.183594 0)"/>
      <use xlink:href="#DejaVuSans-31" transform="translate(490.283203 0)"/>
     </g>
    </g>
   </g>
   <g id="line2d_22">
    <path d="M 73.832727 191.231127 
L 77.079273 218.76375 
L 80.325818 217.203575 
L 83.572364 160.486358 
L 86.818909 120.288718 
L 90.065455 124.0515 
L 93.312 133.504388 
L 96.558545 114.690429 
L 99.805091 137.634262 
L 103.051636 129.558036 
L 106.298182 130.567574 
L 109.544727 131.485328 
L 112.791273 137.909584 
L 116.037818 146.720026 
L 119.284364 126.896561 
L 122.530909 108.266156 
L 125.777455 114.139767 
L 129.024 113.864445 
L 132.270545 120.472272 
L 135.517091 128.732051 
L 138.763636 108.90857 
L 142.010182 132.494883 
L 145.256727 114.873967 
L 148.503273 113.22203 
L 151.749818 127.630744 
L 154.996364 117.902582 
L 158.242909 128.273191 
L 161.489455 111.570061 
L 164.736 115.241074 
L 167.982545 109.826323 
L 171.229091 125.519931 
L 174.475636 120.839396 
L 177.722182 111.386507 
L 180.968727 102.851421 
L 184.215273 101.56656 
L 187.461818 108.174354 
L 190.708364 111.294722 
L 193.954909 114.59866 
L 197.201455 104.503374 
L 200.448 102.943174 
L 203.694545 110.101663 
L 206.941091 107.164849 
L 210.187636 104.870465 
L 213.434182 107.53194 
L 216.680727 105.145772 
L 219.927273 106.705972 
L 223.173818 106.705972 
L 226.420364 106.063541 
L 229.666909 108.633247 
L 232.913455 105.054036 
L 236.16 111.111185 
L 239.406545 109.09214 
L 242.653091 109.09214 
L 245.899636 107.348403 
L 249.146182 108.908587 
L 252.392727 106.614187 
L 255.639273 106.705972 
L 258.885818 105.696434 
L 262.132364 105.696434 
L 265.378909 107.256617 
L 268.625455 110.009877 
L 271.872 105.237573 
L 275.118545 106.797741 
L 278.365091 106.614187 
L 281.611636 106.614203 
L 284.858182 108.449693 
L 288.104727 105.421111 
L 291.351273 104.77868 
L 294.597818 106.430649 
L 297.844364 106.797724 
L 301.090909 105.696434 
L 304.337455 104.503374 
L 307.584 106.063541 
L 310.830545 104.962234 
L 314.077091 104.595143 
L 317.323636 106.981311 
L 320.570182 106.705972 
L 323.816727 109.092124 
L 327.063273 105.696434 
L 330.309818 106.338881 
L 333.556364 103.952696 
L 336.802909 106.247079 
L 340.049455 104.411572 
L 343.296 104.59511 
L 346.542545 106.247112 
L 349.789091 105.329342 
L 353.035636 103.310265 
L 356.282182 104.411572 
L 359.528727 104.136266 
L 362.775273 103.218496 
L 366.021818 103.860927 
L 369.268364 105.879971 
L 372.514909 107.899048 
L 375.761455 105.879971 
L 379.008 105.145772 
L 382.254545 102.943174 
L 385.501091 105.696434 
L 388.747636 104.228002 
L 391.994182 104.228035 
L 395.240727 104.77868 
L 398.487273 104.778697 
" clip-path="url(#p9f50c27df3)" style="fill: none; stroke: #9467bd; stroke-width: 1.5; stroke-linecap: square"/>
   </g>
   <g id="line2d_23">
    <path d="M 73.832727 218.76375 
L 77.079273 163.698495 
L 80.325818 177.831935 
L 83.572364 191.965326 
L 86.818909 217.295344 
L 90.065455 223.719625 
L 93.312 215.092737 
L 96.558545 220.415711 
L 99.805091 254.189062 
L 103.051636 236.201088 
L 106.298182 244.827975 
L 109.544727 292.551188 
L 112.791273 250.518049 
L 116.037818 265.20211 
L 119.284364 272.727699 
L 122.530909 290.715682 
L 125.777455 288.329517 
L 129.024 284.6585 
L 132.270545 276.398712 
L 135.517091 272.544149 
L 138.763636 266.119864 
L 142.010182 276.949366 
L 145.256727 263.550158 
L 148.503273 270.525084 
L 151.749818 288.513067 
L 154.996364 256.208123 
L 158.242909 274.56321 
L 161.489455 268.506028 
L 164.736 255.290361 
L 167.982545 288.513067 
L 171.229091 250.701595 
L 174.475636 276.949366 
L 177.722182 286.126911 
L 180.968727 279.335526 
L 184.215273 280.803933 
L 187.461818 282.822993 
L 190.708364 288.329521 
L 193.954909 287.778864 
L 197.201455 288.880171 
L 200.448 279.151976 
L 203.694545 279.15198 
L 206.941091 282.27234 
L 210.187636 286.126911 
L 213.434182 285.392708 
L 216.680727 287.411764 
L 219.927273 289.614374 
L 223.173818 283.740747 
L 226.420364 285.943357 
L 229.666909 291.082781 
L 232.913455 294.386695 
L 236.16 277.867123 
L 239.406545 277.316474 
L 242.653091 279.15198 
L 245.899636 286.310461 
L 249.146182 280.620383 
L 252.392727 284.47495 
L 255.639273 291.266327 
L 258.885818 287.962418 
L 262.132364 289.063721 
L 265.378909 288.329517 
L 268.625455 285.025604 
L 271.872 287.411764 
L 275.118545 286.494011 
L 278.365091 286.310461 
L 281.611636 287.411764 
L 284.858182 286.494011 
L 288.104727 289.247275 
L 291.351273 295.488 
L 294.597818 291.082781 
L 297.844364 291.266331 
L 301.090909 292.551188 
L 304.337455 290.899231 
L 307.584 290.715682 
L 310.830545 294.203145 
L 314.077091 292.367638 
L 317.323636 287.044664 
L 320.570182 292.000535 
L 323.816727 286.310461 
L 327.063273 291.816989 
L 330.309818 289.797928 
L 333.556364 289.797928 
L 336.802909 289.614374 
L 340.049455 292.734742 
L 343.296 288.880175 
L 346.542545 290.348578 
L 349.789091 290.899231 
L 353.035636 293.652495 
L 356.282182 290.165028 
L 359.528727 292.551188 
L 362.775273 294.386695 
L 366.021818 291.449881 
L 369.268364 294.019595 
L 372.514909 292.000535 
L 375.761455 291.633435 
L 379.008 292.918288 
L 382.254545 292.000539 
L 385.501091 292.918288 
L 388.747636 294.203145 
L 391.994182 294.386695 
L 395.240727 292.551188 
L 398.487273 292.000539 
" clip-path="url(#p9f50c27df3)" style="fill: none; stroke: #8c564b; stroke-width: 1.5; stroke-linecap: square"/>
   </g>
  </g>
 </g>
 <defs>
  <clipPath id="p9f50c27df3">
   <rect x="57.6" y="41.472" width="357.12" height="266.112"/>
  </clipPath>
 </defs>
</svg>
