<?xml version="1.0" encoding="utf-8" standalone="no"?>
<!DOCTYPE svg PUBLIC "-//W3C//DTD SVG 1.1//EN"
  "http://www.w3.org/Graphics/SVG/1.1/DTD/svg11.dtd">
<svg xmlns:xlink="http://www.w3.org/1999/xlink" width="460.8pt" height="345.6pt" viewBox="0 0 460.8 345.6" xmlns="http://www.w3.org/2000/svg" version="1.1">
 <metadata>
  <rdf:RDF xmlns:dc="http://purl.org/dc/elements/1.1/" xmlns:cc="http://creativecommons.org/ns#" xmlns:rdf="http://www.w3.org/1999/02/22-rdf-syntax-ns#">
   <cc:Work>
    <dc:type rdf:resource="http://purl.org/dc/dcmitype/StillImage"/>
    <dc:date>2026-03-17T23:21:35.122236</dc:date>
    <dc:format>image/svg+xml</dc:format>
    <dc:creator>
     <cc:Agent>
      <dc:title>Matplotlib v3.10.8, https://matplotlib.org/</dc:title>
     </cc:Agent>
    </dc:creator>
   </cc:Work>
  </rdf:RDF>
 </metadata>
 <defs>
  <style type="text/css">*{stroke-linejoin: round; stroke-linecap: butt}</style>
 </defs>
 <g id="figure_1">
  <g id="patch_1">
   <path d="M 0 345.6 
L 460.8 345.6 
L 460.8 0 
L 0 0 
z
" style="fill: #ffffff"/>
  </g>
  <g id="axes_1">
   <g id="patch_2">
    <path d="M 57.6 307.584 
L 414.72 307.584 
L 414.72 41.472 
L 57.6 41.472 
z
" style="fill: #ffffff"/>
   </g>
   <g id="matplotlib.axis_1">
    <g id="xtick_1">
     <g id="line2d_1">
      <defs>
       <path id="m0b3ce7ce08" d="M 0 0 
L 0 3.5 
" style="stroke: #000000; stroke-width: 0.8"/>
      </defs>
      <g>
       <use xlink:href="#m0b3ce7ce08" x="73.832727" y="307.584" style="stroke: #000000; stroke-width: 0.8"/>
      </g>
     </g>
     <g id="text_1">
      <!-- 0 -->
      <g transform="translate(70.651477 322.182437) scale(0.1 -0.1)">
       <defs>
        <path id="DejaVuSans-30" d="M 2034 4250 
Q 1547 4250 1301 3770 
Q 1056 3291 1056 2328 
Q 1056 1369 1301 889 
Q 1547 409 2034 409 
Q 2525 409 2770 889 
Q 3016 1369 3016 2328 
Q 3016 3291 2770 3770 
Q 2525 4250 2034 4250 
z
M 2034 4750 
Q 2819 4750 3233 4129 
Q 3647 3509 3647 2328 
Q 3647 1150 3233 529 
Q 2819 -91 2034 -91 
Q 1250 -91 836 529 
Q 422 1150 422 2328 
Q 422 3509 836 4129 
Q 1250 4750 2034 4750 
z
" transform="scale(0.015625)"/>
       </defs>
       <use xlink:href="#DejaVuSans-30"/>
      </g>
     </g>
    </g>
    <g id="xtick_2">
     <g id="line2d_2">
      <g>
       <use xlink:href="#m0b3ce7ce08" x="138.763636" y="307.584" style="stroke: #000000; stroke-width: 0.8"/>
      </g>
     </g>
     <g id="text_2">
      <!-- 100 -->
      <g transform="translate(129.219886 322.182437) scale(0.1 -0.1)">
       <defs>
        <path id="DejaVuSans-31" d="M 794 531 
L 1825 531 
L 1825 4091 
L 703 3866 
L 703 4441 
L 1819 4666 
L 2450 4666 
L 2450 531 
L 3481 531 
L 3481 0 
L 794 0 
L 794 531 
z
" transform="scale(0.015625)"/>
       </defs>
       <use xlink:href="#DejaVuSans-31"/>
       <use xlink:href="#DejaVuSans-30" transform="translate(63.623047 0)"/>
       <use xlink:href="#DejaVuSans-30" transform="translate(127.246094 0)"/>
      </g>
     </g>
    </g>
    <g id="xtick_3">
     <g id="line2d_3">
      <g>
       <use xlink:href="#m0b3ce7ce08" x="203.694545" y="307.584" style="stroke: #000000; stroke-width: 0.8"/>
      </g>
     </g>
     <g id="text_3">
      <!-- 200 -->
      <g transform="translate(194.150795 322.182437) scale(0.1 -0.1)">
       <defs>
        <path id="DejaVuSans-32" d="M 1228 531 
L 3431 531 
L 3431 0 
L 469 0 
L 469 531 
Q 828 903 1448 1529 
Q 2069 2156 2228 2338 
Q 2531 2678 2651 2914 
Q 2772 3150 2772 3378 
Q 2772 3750 2511 3984 
Q 2250 4219 1831 4219 
Q 1534 4219 1204 4116 
Q 875 4013 500 3803 
L 500 4441 
Q 881 4594 1212 4672 
Q 1544 4750 1819 4750 
Q 2544 4750 2975 4387 
Q 3406 4025 3406 3419 
Q 3406 3131 3298 2873 
Q 3191 2616 2906 2266 
Q 2828 2175 2409 1742 
Q 1991 1309 1228 531 
z
" transform="scale(0.015625)"/>
       </defs>
       <use xlink:href="#DejaVuSans-32"/>
       <use xlink:href="#DejaVuSans-30" transform="translate(63.623047 0)"/>
       <use xlink:href="#DejaVuSans-30" transform="translate(127.246094 0)"/>
      </g>
     </g>
    </g>
    <g id="xtick_4">
     <g id="line2d_4">
      <g>
       <use xlink:href="#m0b3ce7ce08" x="268.625455" y="307.584" style="stroke: #000000; stroke-width: 0.8"/>
      </g>
     </g>
     <g id="text_4">
      <!-- 300 -->
      <g transform="translate(259.081705 322.182437) scale(0.1 -0.1)">
       <defs>
        <path id="DejaVuSans-33" d="M 2597 2516 
Q 3050 2419 3304 2112 
Q 3559 1806 3559 1356 
Q 3559 666 3084 287 
Q 2609 -91 1734 -91 
Q 1441 -91 1130 -33 
Q 819 25 488 141 
L 488 750 
Q 750 597 1062 519 
Q 1375 441 1716 441 
Q 2309 441 2620 675 
Q 2931 909 2931 1356 
Q 2931 1769 2642 2001 
Q 2353 2234 1838 2234 
L 1294 2234 
L 1294 2753 
L 1863 2753 
Q 2328 2753 2575 2939 
Q 2822 3125 2822 3475 
Q 2822 3834 2567 4026 
Q 2313 4219 1838 4219 
Q 1578 4219 1281 4162 
Q 984 4106 628 3988 
L 628 4550 
Q 988 4650 1302 4700 
Q 1616 4750 1894 4750 
Q 2613 4750 3031 4423 
Q 3450 4097 3450 3541 
Q 3450 3153 3228 2886 
Q 3006 2619 2597 2516 
z
" transform="scale(0.015625)"/>
       </defs>
       <use xlink:href="#DejaVuSans-33"/>
       <use xlink:href="#DejaVuSans-30" transform="translate(63.623047 0)"/>
       <use xlink:href="#DejaVuSans-30" transform="translate(127.246094 0)"/>
      </g>
     </g>
    </g>
    <g id="xtick_5">
     <g id="line2d_5">
      <g>
       <use xlink:href="#m0b3ce7ce08" x="333.556364" y="307.584" style="stroke: #000000; stroke-width: 0.8"/>
      </g>
     </g>
     <g id="text_5">
      <!-- 400 -->
      <g transform="translate(324.012614 322.182437) scale(0.1 -0.1)">
       <defs>
        <path id="DejaVuSans-34" d="M 2419 4116 
L 825 1625 
L 2419 1625 
L 2419 4116 
z
M 2253 4666 
L 3047 4666 
L 3047 1625 
L 3713 1625 
L 3713 1100 
L 3047 1100 
L 3047 0 
L 2419 0 
L 2419 1100 
L 313 1100 
L 313 1709 
L 2253 4666 
z
" transform="scale(0.015625)"/>
       </defs>
       <use xlink:href="#DejaVuSans-34"/>
       <use xlink:href="#DejaVuSans-30" transform="translate(63.623047 0)"/>
       <use xlink:href="#DejaVuSans-30" transform="translate(127.246094 0)"/>
      </g>
     </g>
    </g>
    <g id="xtick_6">
     <g id="line2d_6">
      <g>
       <use xlink:href="#m0b3ce7ce08" x="398.487273" y="307.584" style="stroke: #000000; stroke-width: 0.8"/>
      </g>
     </g>
     <g id="text_6">
      <!-- 500 -->
      <g transform="translate(388.943523 322.182437) scale(0.1 -0.1)">
       <defs>
        <path id="DejaVuSans-35" d="M 691 4666 
L 3169 4666 
L 3169 4134 
L 1269 4134 
L 1269 2991 
Q 1406 3038 1543 3061 
Q 1681 3084 1819 3084 
Q 2600 3084 3056 2656 
Q 3513 2228 3513 1497 
Q 3513 744 3044 326 
Q 2575 -91 1722 -91 
Q 1428 -91 1123 -41 
Q 819 9 494 109 
L 494 744 
Q 775 591 1075 516 
Q 1375 441 1709 441 
Q 2250 441 2565 725 
Q 2881 1009 2881 1497 
Q 2881 1984 2565 2268 
Q 2250 2553 1709 2553 
Q 1456 2553 1204 2497 
Q 953 2441 691 2322 
L 691 4666 
z
" transform="scale(0.015625)"/>
       </defs>
       <use xlink:href="#DejaVuSans-35"/>
       <use xlink:href="#DejaVuSans-30" transform="translate(63.623047 0)"/>
       <use xlink:href="#DejaVuSans-30" transform="translate(127.246094 0)"/>
      </g>
     </g>
    </g>
   </g>
   <g id="matplotlib.axis_2">
    <g id="ytick_1">
     <g id="line2d_7">
      <defs>
       <path id="mb8431c1c90" d="M 0 0 
L -3.5 0 
" style="stroke: #000000; stroke-width: 0.8"/>
      </defs>
      <g>
       <use xlink:href="#mb8431c1c90" x="57.6" y="287.013125" style="stroke: #000000; stroke-width: 0.8"/>
      </g>
     </g>
     <g id="text_7">
      <!-- 0.2 -->
      <g transform="translate(34.696875 290.812344) scale(0.1 -0.1)">
       <defs>
        <path id="DejaVuSans-2e" d="M 684 794 
L 1344 794 
L 1344 0 
L 684 0 
L 684 794 
z
" transform="scale(0.015625)"/>
       </defs>
       <use xlink:href="#DejaVuSans-30"/>
       <use xlink:href="#DejaVuSans-2e" transform="translate(63.623047 0)"/>
       <use xlink:href="#DejaVuSans-32" transform="translate(95.410156 0)"/>
      </g>
     </g>
    </g>
    <g id="ytick_2">
     <g id="line2d_8">
      <g>
       <use xlink:href="#mb8431c1c90" x="57.6" y="250.201378" style="stroke: #000000; stroke-width: 0.8"/>
      </g>
     </g>
     <g id="text_8">
      <!-- 0.3 -->
      <g transform="translate(34.696875 254.000597) scale(0.1 -0.1)">
       <use xlink:href="#DejaVuSans-30"/>
       <use xlink:href="#DejaVuSans-2e" transform="translate(63.623047 0)"/>
       <use xlink:href="#DejaVuSans-33" transform="translate(95.410156 0)"/>
      </g>
     </g>
    </g>
    <g id="ytick_3">
     <g id="line2d_9">
      <g>
       <use xlink:href="#mb8431c1c90" x="57.6" y="213.38963" style="stroke: #000000; stroke-width: 0.8"/>
      </g>
     </g>
     <g id="text_9">
      <!-- 0.4 -->
      <g transform="translate(34.696875 217.188849) scale(0.1 -0.1)">
       <use xlink:href="#DejaVuSans-30"/>
       <use xlink:href="#DejaVuSans-2e" transform="translate(63.623047 0)"/>
       <use xlink:href="#DejaVuSans-34" transform="translate(95.410156 0)"/>
      </g>
     </g>
    </g>
    <g id="ytick_4">
     <g id="line2d_10">
      <g>
       <use xlink:href="#mb8431c1c90" x="57.6" y="176.577883" style="stroke: #000000; stroke-width: 0.8"/>
      </g>
     </g>
     <g id="text_10">
      <!-- 0.5 -->
      <g transform="translate(34.696875 180.377102) scale(0.1 -0.1)">
       <use xlink:href="#DejaVuSans-30"/>
       <use xlink:href="#DejaVuSans-2e" transform="translate(63.623047 0)"/>
       <use xlink:href="#DejaVuSans-35" transform="translate(95.410156 0)"/>
      </g>
     </g>
    </g>
    <g id="ytick_5">
     <g id="line2d_11">
      <g>
       <use xlink:href="#mb8431c1c90" x="57.6" y="139.766136" style="stroke: #000000; stroke-width: 0.8"/>
      </g>
     </g>
     <g id="text_11">
      <!-- 0.6 -->
      <g transform="translate(34.696875 143.565354) scale(0.1 -0.1)">
       <defs>
        <path id="DejaVuSans-36" d="M 2113 2584 
Q 1688 2584 1439 2293 
Q 1191 2003 1191 1497 
Q 1191 994 1439 701 
Q 1688 409 2113 409 
Q 2538 409 2786 701 
Q 3034 994 3034 1497 
Q 3034 2003 2786 2293 
Q 2538 2584 2113 2584 
z
M 3366 4563 
L 3366 3988 
Q 3128 4100 2886 4159 
Q 2644 4219 2406 4219 
Q 1781 4219 1451 3797 
Q 1122 3375 1075 2522 
Q 1259 2794 1537 2939 
Q 1816 3084 2150 3084 
Q 2853 3084 3261 2657 
Q 3669 2231 3669 1497 
Q 3669 778 3244 343 
Q 2819 -91 2113 -91 
Q 1303 -91 875 529 
Q 447 1150 447 2328 
Q 447 3434 972 4092 
Q 1497 4750 2381 4750 
Q 2619 4750 2861 4703 
Q 3103 4656 3366 4563 
z
" transform="scale(0.015625)"/>
       </defs>
       <use xlink:href="#DejaVuSans-30"/>
       <use xlink:href="#DejaVuSans-2e" transform="translate(63.623047 0)"/>
       <use xlink:href="#DejaVuSans-36" transform="translate(95.410156 0)"/>
      </g>
     </g>
    </g>
    <g id="ytick_6">
     <g id="line2d_12">
      <g>
       <use xlink:href="#mb8431c1c90" x="57.6" y="102.954388" style="stroke: #000000; stroke-width: 0.8"/>
      </g>
     </g>
     <g id="text_12">
      <!-- 0.7 -->
      <g transform="translate(34.696875 106.753607) scale(0.1 -0.1)">
       <defs>
        <path id="DejaVuSans-37" d="M 525 4666 
L 3525 4666 
L 3525 4397 
L 1831 0 
L 1172 0 
L 2766 4134 
L 525 4134 
L 525 4666 
z
" transform="scale(0.015625)"/>
       </defs>
       <use xlink:href="#DejaVuSans-30"/>
       <use xlink:href="#DejaVuSans-2e" transform="translate(63.623047 0)"/>
       <use xlink:href="#DejaVuSans-37" transform="translate(95.410156 0)"/>
      </g>
     </g>
    </g>
    <g id="ytick_7">
     <g id="line2d_13">
      <g>
       <use xlink:href="#mb8431c1c90" x="57.6" y="66.142641" style="stroke: #000000; stroke-width: 0.8"/>
      </g>
     </g>
     <g id="text_13">
      <!-- 0.8 -->
      <g transform="translate(34.696875 69.941859) scale(0.1 -0.1)">
       <defs>
        <path id="DejaVuSans-38" d="M 2034 2216 
Q 1584 2216 1326 1975 
Q 1069 1734 1069 1313 
Q 1069 891 1326 650 
Q 1584 409 2034 409 
Q 2484 409 2743 651 
Q 3003 894 3003 1313 
Q 3003 1734 2745 1975 
Q 2488 2216 2034 2216 
z
M 1403 2484 
Q 997 2584 770 2862 
Q 544 3141 544 3541 
Q 544 4100 942 4425 
Q 1341 4750 2034 4750 
Q 2731 4750 3128 4425 
Q 3525 4100 3525 3541 
Q 3525 3141 3298 2862 
Q 3072 2584 2669 2484 
Q 3125 2378 3379 2068 
Q 3634 1759 3634 1313 
Q 3634 634 3220 271 
Q 2806 -91 2034 -91 
Q 1263 -91 848 271 
Q 434 634 434 1313 
Q 434 1759 690 2068 
Q 947 2378 1403 2484 
z
M 1172 3481 
Q 1172 3119 1398 2916 
Q 1625 2713 2034 2713 
Q 2441 2713 2670 2916 
Q 2900 3119 2900 3481 
Q 2900 3844 2670 4047 
Q 2441 4250 2034 4250 
Q 1625 4250 1398 4047 
Q 1172 3844 1172 3481 
z
" transform="scale(0.015625)"/>
       </defs>
       <use xlink:href="#DejaVuSans-30"/>
       <use xlink:href="#DejaVuSans-2e" transform="translate(63.623047 0)"/>
       <use xlink:href="#DejaVuSans-38" transform="translate(95.410156 0)"/>
      </g>
     </g>
    </g>
   </g>
   <g id="line2d_14">
    <path d="M 73.832727 175.601464 
L 74.482036 174.690562 
L 75.780655 168.936203 
L 76.429964 168.138432 
L 77.079273 169.484938 
L 77.728582 169.810221 
L 78.377891 170.269479 
L 79.0272 167.944162 
L 79.676509 168.67308 
L 80.325818 168.861492 
L 80.975127 169.429536 
L 82.273745 168.531777 
L 82.923055 167.678823 
L 84.221673 167.86436 
L 84.870982 169.423743 
L 85.520291 168.078224 
L 86.1696 168.581957 
L 86.818909 167.101344 
L 87.468218 168.520082 
L 88.766836 167.102836 
L 89.416145 167.687314 
L 90.714764 166.83956 
L 91.364073 168.242281 
L 92.013382 168.149183 
L 92.662691 167.551496 
L 93.312 166.392546 
L 93.961309 166.221073 
L 94.610618 166.670084 
L 95.259927 166.561056 
L 95.909236 167.661072 
L 96.558545 166.318691 
L 97.207855 166.294796 
L 97.857164 165.621806 
L 98.506473 166.373391 
L 99.155782 166.607989 
L 99.805091 168.035592 
L 100.4544 167.26336 
L 101.103709 166.275795 
L 101.753018 166.313293 
L 102.402327 165.073839 
L 103.051636 165.397871 
L 103.700945 166.131859 
L 104.350255 167.674654 
L 105.648873 165.617725 
L 106.298182 166.080515 
L 106.947491 165.879268 
L 107.5968 165.969513 
L 108.246109 164.738046 
L 108.895418 166.006178 
L 109.544727 164.811572 
L 110.194036 165.415556 
L 110.843345 164.721327 
L 111.492655 165.267166 
L 112.141964 165.066203 
L 112.791273 165.399144 
L 113.440582 165.292859 
L 114.089891 165.947133 
L 115.388509 162.751418 
L 116.037818 166.635153 
L 116.687127 164.080152 
L 117.336436 164.62858 
L 117.985745 163.981766 
L 118.635055 163.103667 
L 119.284364 164.760909 
L 119.933673 163.905102 
L 121.232291 165.025611 
L 121.8816 164.336538 
L 123.180218 163.571767 
L 123.829527 162.676334 
L 125.128145 164.59547 
L 125.777455 163.105685 
L 126.426764 163.605294 
L 127.076073 162.365774 
L 127.725382 163.106782 
L 128.374691 161.965363 
L 129.024 163.106168 
L 129.673309 163.930467 
L 130.322618 163.567335 
L 130.971927 162.33997 
L 131.621236 163.210061 
L 132.270545 164.312578 
L 132.919855 163.434896 
L 133.569164 164.526376 
L 134.218473 162.003212 
L 134.867782 163.639522 
L 135.517091 162.967125 
L 136.1664 161.348982 
L 136.815709 162.465125 
L 137.465018 162.404808 
L 138.114327 161.73377 
L 138.763636 161.595276 
L 139.412945 162.119107 
L 140.062255 162.429514 
L 140.711564 162.095323 
L 141.360873 161.231946 
L 142.010182 161.344352 
L 143.3088 162.465761 
L 143.958109 162.552957 
L 144.607418 163.041836 
L 145.256727 160.6094 
L 146.555345 161.205945 
L 147.204655 161.402234 
L 147.853964 161.015669 
L 148.503273 160.007215 
L 149.152582 161.724555 
L 149.801891 160.03846 
L 150.4512 160.380462 
L 151.100509 158.760827 
L 151.749818 162.054709 
L 152.399127 161.602077 
L 153.697745 160.382853 
L 154.347055 160.380835 
L 154.996364 159.97529 
L 155.645673 161.102952 
L 156.294982 159.740494 
L 156.944291 158.947901 
L 157.5936 160.933739 
L 158.242909 160.438453 
L 159.541527 158.804798 
L 160.190836 159.989815 
L 160.840145 159.749095 
L 161.489455 157.947104 
L 162.138764 160.871842 
L 162.788073 160.379321 
L 163.437382 160.69462 
L 164.086691 159.516932 
L 164.736 160.134717 
L 165.385309 159.924473 
L 166.034618 158.969294 
L 166.683927 158.787201 
L 167.333236 159.396692 
L 167.982545 159.487135 
L 168.631855 157.458511 
L 169.281164 159.192395 
L 169.930473 159.064607 
L 170.579782 158.136811 
L 171.229091 157.001008 
L 171.8784 157.337679 
L 172.527709 160.312992 
L 173.177018 159.205055 
L 173.826327 157.850167 
L 175.124945 158.943995 
L 175.774255 158.647302 
L 176.423564 156.53078 
L 177.072873 158.931949 
L 177.722182 157.89337 
L 178.371491 158.177008 
L 179.0208 157.852909 
L 179.670109 156.819398 
L 180.319418 155.078032 
L 180.968727 158.904478 
L 181.618036 158.886333 
L 182.267345 159.380609 
L 183.565964 157.197955 
L 184.215273 155.842299 
L 184.864582 158.221242 
L 185.513891 156.568036 
L 186.1632 157.176167 
L 186.812509 154.439249 
L 187.461818 157.989386 
L 188.111127 157.371754 
L 188.760436 157.148411 
L 189.409745 154.368839 
L 190.059055 157.762774 
L 190.708364 155.348483 
L 191.357673 156.560094 
L 192.006982 156.503046 
L 192.656291 156.096908 
L 193.3056 156.156458 
L 193.954909 155.9951 
L 194.604218 155.705428 
L 195.253527 155.242286 
L 195.902836 156.794999 
L 196.552145 154.968939 
L 197.201455 154.126561 
L 197.850764 156.107199 
L 198.500073 154.605917 
L 199.149382 156.00991 
L 199.798691 154.66494 
L 200.448 157.052483 
L 201.097309 155.992993 
L 201.746618 154.366337 
L 202.395927 156.52095 
L 203.694545 153.822276 
L 204.993164 154.080703 
L 205.642473 155.553856 
L 206.291782 154.963542 
L 206.941091 155.151141 
L 207.5904 155.007644 
L 208.239709 154.677029 
L 208.889018 156.066585 
L 209.538327 154.5291 
L 210.187636 156.109503 
L 210.836945 154.400149 
L 211.486255 153.797789 
L 212.135564 154.712926 
L 212.784873 154.244189 
L 213.434182 154.382618 
L 214.083491 154.127724 
L 214.7328 151.735353 
L 215.382109 153.55867 
L 216.031418 153.355163 
L 216.680727 153.588357 
L 217.330036 152.625608 
L 217.979345 150.856091 
L 218.628655 153.695673 
L 219.277964 151.86246 
L 219.927273 153.275384 
L 220.576582 151.158554 
L 221.225891 154.177399 
L 221.8752 152.904199 
L 222.524509 152.445095 
L 223.173818 153.304193 
L 223.823127 153.30145 
L 224.472436 153.118217 
L 225.121745 152.71864 
L 225.771055 154.350276 
L 226.420364 151.852235 
L 227.069673 152.369287 
L 227.718982 152.065858 
L 228.368291 153.539932 
L 229.0176 151.213781 
L 229.666909 151.69825 
L 230.316218 151.537375 
L 230.965527 153.771569 
L 231.614836 151.734322 
L 232.264145 153.550815 
L 232.913455 151.321843 
L 233.562764 152.732024 
L 234.212073 151.583496 
L 234.861382 151.971334 
L 235.510691 153.229153 
L 236.16 152.112637 
L 236.809309 154.003359 
L 237.458618 152.205099 
L 238.107927 151.354141 
L 238.757236 152.423746 
L 239.406545 152.720636 
L 240.055855 152.79741 
L 240.705164 150.824605 
L 241.354473 152.490799 
L 242.003782 151.83907 
L 242.653091 151.713543 
L 243.3024 152.431184 
L 243.951709 149.434127 
L 244.601018 151.649869 
L 245.250327 152.721031 
L 245.899636 150.449909 
L 246.548945 150.960971 
L 247.198255 149.514696 
L 247.847564 151.138237 
L 248.496873 152.161676 
L 249.146182 151.725589 
L 249.795491 151.579371 
L 250.4448 152.00802 
L 251.094109 151.340296 
L 251.743418 152.138835 
L 252.392727 151.421282 
L 253.042036 152.016797 
L 253.691345 151.555498 
L 254.340655 151.736538 
L 254.989964 150.323197 
L 255.639273 151.918016 
L 256.288582 150.294125 
L 256.937891 150.682094 
L 257.5872 150.915464 
L 258.236509 149.96814 
L 258.885818 151.897632 
L 259.535127 151.006478 
L 260.184436 150.497873 
L 260.833745 147.993491 
L 261.483055 149.263817 
L 262.132364 149.74427 
L 262.781673 148.81395 
L 263.430982 150.970318 
L 264.080291 149.985056 
L 264.7296 151.576035 
L 265.378909 150.509678 
L 266.028218 151.962689 
L 266.677527 150.303252 
L 267.326836 149.224827 
L 267.976145 149.115185 
L 268.625455 149.479568 
L 269.924073 150.592924 
L 270.573382 151.489476 
L 271.222691 150.350668 
L 271.872 151.217401 
L 273.170618 148.723112 
L 273.819927 150.504368 
L 274.469236 149.709976 
L 275.118545 149.75432 
L 275.767855 149.670349 
L 276.417164 151.413471 
L 277.066473 150.104857 
L 277.715782 149.212957 
L 278.365091 149.622166 
L 279.0144 152.024959 
L 279.663709 149.685248 
L 280.313018 148.786787 
L 280.962327 151.789153 
L 281.611636 151.038183 
L 282.260945 147.841261 
L 282.910255 149.387501 
L 283.559564 150.192228 
L 284.208873 149.178487 
L 284.858182 149.548947 
L 285.507491 151.0273 
L 286.1568 148.542446 
L 286.806109 149.224344 
L 287.455418 148.771164 
L 288.104727 150.858043 
L 288.754036 149.691567 
L 289.403345 150.902212 
L 290.052655 149.652774 
L 290.701964 148.867707 
L 291.351273 148.659789 
L 292.000582 149.296444 
L 292.649891 149.666246 
L 293.2992 149.140352 
L 293.948509 149.195689 
L 294.597818 151.189075 
L 295.247127 149.624009 
L 295.896436 148.792579 
L 296.545745 147.601199 
L 297.195055 149.794385 
L 297.844364 147.735832 
L 298.493673 150.796892 
L 299.142982 148.270152 
L 299.792291 147.559137 
L 300.4416 148.438619 
L 301.090909 150.495987 
L 301.740218 148.4323 
L 302.389527 148.375252 
L 303.038836 149.105597 
L 303.688145 149.152859 
L 304.337455 148.414571 
L 304.986764 147.409979 
L 305.636073 149.622495 
L 306.285382 148.916 
L 306.934691 148.478289 
L 308.233309 148.427692 
L 308.882618 149.739224 
L 309.531927 147.160438 
L 310.181236 149.553291 
L 310.830545 147.998209 
L 311.479855 147.126977 
L 312.129164 148.781938 
L 312.778473 148.007709 
L 313.427782 148.137625 
L 314.077091 149.386843 
L 314.7264 146.895033 
L 315.375709 149.897115 
L 316.025018 147.245681 
L 316.674327 148.892216 
L 317.323636 146.670506 
L 317.972945 145.887326 
L 318.622255 148.088783 
L 319.271564 146.870218 
L 319.920873 146.378355 
L 320.570182 148.660711 
L 321.219491 147.672816 
L 321.8688 147.317846 
L 322.518109 146.573108 
L 323.167418 147.251583 
L 323.816727 147.095667 
L 324.466036 148.160422 
L 325.115345 146.522554 
L 325.764655 148.051263 
L 326.413964 145.973951 
L 327.712582 148.133785 
L 329.0112 147.516856 
L 329.660509 147.905945 
L 330.309818 147.423297 
L 330.959127 147.315872 
L 331.608436 147.894733 
L 332.257745 147.346963 
L 332.907055 145.653429 
L 333.556364 147.057839 
L 334.205673 148.06309 
L 334.854982 147.982586 
L 335.504291 146.964676 
L 336.1536 147.54244 
L 336.802909 148.847982 
L 337.452218 146.550837 
L 338.101527 147.649514 
L 338.750836 147.100099 
L 339.400145 147.898199 
L 340.049455 149.846408 
L 340.698764 146.917063 
L 341.348073 146.811436 
L 341.997382 145.825758 
L 342.646691 146.991335 
L 343.296 147.427335 
L 343.945309 147.397801 
L 344.594618 146.8594 
L 345.243927 148.492463 
L 345.893236 146.872434 
L 346.542545 146.806938 
L 347.191855 147.509176 
L 347.841164 147.573706 
L 348.490473 146.408437 
L 349.139782 147.282477 
L 349.789091 147.483549 
L 350.4384 146.050812 
L 351.087709 147.514179 
L 351.737018 144.741211 
L 352.386327 148.736585 
L 353.035636 146.587765 
L 353.684945 146.408941 
L 354.334255 146.77045 
L 354.983564 145.058134 
L 355.632873 145.822181 
L 356.282182 145.442396 
L 356.931491 145.996397 
L 357.5808 146.210722 
L 358.230109 145.010653 
L 358.879418 147.706782 
L 359.528727 148.959686 
L 360.178036 146.443872 
L 360.827345 147.264836 
L 361.476655 145.979568 
L 362.125964 146.745283 
L 362.775273 147.079562 
L 363.424582 145.690379 
L 364.073891 147.327259 
L 364.7232 145.526936 
L 365.372509 147.88521 
L 366.021818 145.848884 
L 366.671127 147.381323 
L 367.320436 145.03922 
L 368.619055 147.190213 
L 369.268364 147.317232 
L 369.917673 146.643759 
L 370.566982 147.625664 
L 371.216291 144.797052 
L 371.8656 146.405014 
L 373.164218 145.612091 
L 373.813527 146.687774 
L 374.462836 147.266745 
L 375.112145 147.370506 
L 375.761455 146.531155 
L 376.410764 147.076095 
L 377.060073 145.171791 
L 377.709382 146.85872 
L 378.358691 145.45115 
L 379.008 146.203986 
L 379.657309 147.307139 
L 380.306618 145.728535 
L 380.955927 147.555912 
L 381.605236 147.156576 
L 382.254545 147.508123 
L 382.903855 145.362199 
L 383.553164 146.75667 
L 384.202473 146.913289 
L 384.851782 146.387482 
L 385.501091 147.566641 
L 386.799709 148.127532 
L 387.449018 145.037948 
L 388.098327 143.990833 
L 388.747636 145.502406 
L 389.396945 145.480574 
L 390.046255 147.060692 
L 390.695564 143.961124 
L 391.344873 146.766105 
L 391.994182 144.543606 
L 392.643491 145.292733 
L 393.2928 146.894024 
L 393.942109 146.833817 
L 394.591418 146.365585 
L 395.240727 146.389655 
L 395.890036 147.030829 
L 396.539345 146.039775 
L 397.188655 147.085749 
L 397.837964 146.518276 
L 398.487273 145.083411 
L 398.487273 145.083411 
" clip-path="url(#pe29ec3df5b)" style="fill: none; stroke: #1f77b4; stroke-width: 1.5; stroke-linecap: square"/>
   </g>
   <g id="line2d_15">
    <path d="M 73.832727 176.577883 
L 74.482036 130.66255 
L 75.131345 75.949899 
L 75.780655 82.835672 
L 76.429964 81.025432 
L 77.079273 66.688541 
L 77.728582 77.344963 
L 78.377891 67.917924 
L 79.0272 54.090164 
L 79.676509 64.585074 
L 80.325818 66.582783 
L 80.975127 74.693704 
L 81.624436 74.669393 
L 82.273745 73.10244 
L 82.923055 61.793829 
L 83.572364 60.13832 
L 84.221673 57.287393 
L 84.870982 77.508251 
L 85.520291 71.534653 
L 86.1696 67.892625 
L 86.818909 67.279909 
L 88.117527 78.993823 
L 88.766836 63.978018 
L 89.416145 55.756622 
L 90.065455 63.168969 
L 90.714764 76.135283 
L 91.364073 68.746413 
L 92.013382 66.524901 
L 92.662691 66.934067 
L 93.312 66.961779 
L 93.961309 65.859547 
L 94.610618 73.527447 
L 95.259927 73.113059 
L 95.909236 78.647828 
L 96.558545 67.070894 
L 97.207855 79.347915 
L 97.857164 72.881686 
L 98.506473 57.302709 
L 99.155782 53.568 
L 99.805091 64.610439 
L 100.4544 86.917912 
L 101.103709 84.222836 
L 101.753018 68.291851 
L 102.402327 66.610824 
L 103.051636 80.068409 
L 103.700945 85.515674 
L 104.350255 75.317194 
L 104.999564 70.336581 
L 105.648873 69.642044 
L 106.298182 75.372289 
L 106.947491 79.192218 
L 107.5968 84.609358 
L 108.246109 67.241138 
L 108.895418 66.505066 
L 109.544727 76.514389 
L 110.843345 66.274044 
L 112.141964 85.592491 
L 112.791273 79.546442 
L 113.440582 74.966108 
L 114.089891 74.359996 
L 114.7392 84.027294 
L 115.388509 84.101522 
L 116.037818 89.938161 
L 116.687127 83.827494 
L 117.336436 74.254194 
L 117.985745 73.537715 
L 118.635055 78.330619 
L 119.284364 75.113664 
L 119.933673 83.348467 
L 120.582982 95.767143 
L 121.232291 88.055733 
L 121.8816 85.596068 
L 122.530909 82.058043 
L 123.180218 81.333139 
L 123.829527 82.042684 
L 124.478836 87.72593 
L 125.128145 90.641848 
L 125.777455 84.714897 
L 127.076073 76.812749 
L 127.725382 73.986595 
L 128.374691 68.988187 
L 129.024 74.743994 
L 129.673309 76.85242 
L 130.322618 86.694548 
L 130.971927 84.320037 
L 131.621236 77.494406 
L 132.270545 84.348649 
L 132.919855 82.126896 
L 133.569164 89.214947 
L 134.218473 86.189476 
L 134.867782 76.248765 
L 135.517091 83.9756 
L 136.1664 80.526262 
L 136.815709 87.736857 
L 138.114327 107.580431 
L 138.763636 108.203636 
L 139.412945 106.120421 
L 140.062255 93.74203 
L 140.711564 84.496381 
L 141.360873 87.321219 
L 142.010182 107.8425 
L 142.659491 101.316064 
L 143.3088 84.069553 
L 143.958109 86.060087 
L 144.607418 85.854934 
L 145.906036 94.116922 
L 147.204655 85.167814 
L 147.853964 88.837641 
L 148.503273 88.397297 
L 149.152582 95.708208 
L 149.801891 98.497018 
L 150.4512 98.409647 
L 151.100509 93.597303 
L 151.749818 92.221702 
L 153.048436 87.889263 
L 153.697745 98.879503 
L 154.347055 106.43447 
L 154.996364 92.756044 
L 155.645673 95.37518 
L 156.294982 94.509807 
L 156.944291 99.921022 
L 157.5936 99.508215 
L 158.242909 97.227088 
L 158.892218 87.666908 
L 159.541527 81.64223 
L 160.190836 90.476211 
L 160.840145 93.259558 
L 161.489455 90.283499 
L 162.138764 100.686496 
L 162.788073 92.352408 
L 164.086691 107.375783 
L 164.736 99.085841 
L 165.385309 94.646086 
L 166.034618 95.780615 
L 166.683927 89.218721 
L 167.333236 85.557934 
L 167.982545 93.897902 
L 168.631855 108.796583 
L 169.281164 111.78155 
L 169.930473 96.52033 
L 170.579782 96.275133 
L 171.8784 102.222248 
L 172.527709 108.277491 
L 173.177018 97.843227 
L 173.826327 106.027762 
L 174.475636 120.954682 
L 175.774255 107.026452 
L 176.423564 108.947892 
L 177.072873 107.060242 
L 177.722182 108.547613 
L 178.371491 111.146519 
L 179.0208 109.817478 
L 179.670109 108.804065 
L 180.319418 107.422869 
L 180.968727 109.511394 
L 181.618036 114.064586 
L 182.267345 108.491267 
L 182.916655 108.550707 
L 183.565964 100.78916 
L 184.215273 102.746979 
L 184.864582 110.008237 
L 185.513891 114.837081 
L 186.1632 105.117014 
L 186.812509 100.29269 
L 187.461818 110.57683 
L 188.111127 108.491267 
L 188.760436 103.109278 
L 189.409745 107.183553 
L 190.059055 118.79906 
L 190.708364 121.467016 
L 191.357673 120.807301 
L 192.006982 111.739423 
L 192.656291 105.330263 
L 193.3056 111.097326 
L 193.954909 112.320061 
L 194.604218 115.510093 
L 195.253527 120.233815 
L 195.902836 117.440639 
L 196.552145 117.091352 
L 197.201455 114.13741 
L 197.850764 115.437313 
L 198.500073 112.547704 
L 199.149382 106.624681 
L 199.798691 103.99589 
L 200.448 115.820193 
L 201.097309 124.457337 
L 201.746618 127.925697 
L 202.395927 129.055049 
L 203.045236 117.215431 
L 203.694545 124.333762 
L 204.343855 124.527111 
L 204.993164 110.470369 
L 206.291782 105.510096 
L 206.941091 117.655885 
L 207.5904 123.359076 
L 208.239709 123.756042 
L 208.889018 124.975222 
L 209.538327 122.778438 
L 210.836945 115.221365 
L 212.135564 129.444028 
L 212.784873 118.668464 
L 213.434182 125.189657 
L 214.083491 119.831978 
L 214.7328 120.116538 
L 215.382109 129.47705 
L 216.031418 123.179068 
L 216.680727 122.536094 
L 217.330036 128.638489 
L 217.979345 127.732985 
L 218.628655 127.40858 
L 219.927273 111.639172 
L 220.576582 115.809266 
L 221.225891 125.324378 
L 221.8752 124.229825 
L 223.173818 117.207225 
L 224.472436 126.509921 
L 225.121745 118.962722 
L 225.771055 129.131318 
L 226.420364 130.494127 
L 227.069673 127.440461 
L 227.718982 118.137655 
L 228.368291 117.112153 
L 229.0176 120.497552 
L 229.666909 115.908046 
L 230.316218 118.184698 
L 230.965527 123.091346 
L 231.614836 123.038467 
L 232.264145 124.04183 
L 234.212073 120.215823 
L 234.861382 124.581877 
L 235.510691 134.060654 
L 236.16 128.142194 
L 236.809309 124.260916 
L 237.458618 121.913635 
L 238.107927 128.717369 
L 238.757236 124.530665 
L 239.406545 121.109062 
L 240.055855 124.225591 
L 240.705164 129.454121 
L 241.354473 128.976103 
L 242.003782 127.703913 
L 242.653091 128.966559 
L 243.3024 120.514184 
L 243.951709 119.188324 
L 244.601018 128.835787 
L 245.250327 132.548181 
L 245.899636 142.675461 
L 246.548945 137.48919 
L 247.198255 122.038592 
L 247.847564 122.986729 
L 249.146182 137.064907 
L 249.795491 124.529634 
L 250.4448 126.087416 
L 251.094109 130.708364 
L 251.743418 130.700333 
L 252.392727 131.555043 
L 253.042036 128.707583 
L 253.691345 133.048558 
L 254.340655 138.300719 
L 254.989964 126.659343 
L 255.639273 126.921083 
L 256.288582 131.294575 
L 256.937891 124.731233 
L 257.5872 125.320275 
L 258.236509 128.390616 
L 258.885818 130.288513 
L 259.535127 124.537028 
L 260.184436 138.651959 
L 260.833745 137.472493 
L 262.132364 123.047024 
L 262.781673 125.118522 
L 263.430982 128.814372 
L 264.080291 130.362017 
L 264.7296 134.550783 
L 265.378909 132.760707 
L 266.028218 134.353792 
L 266.677527 130.535684 
L 267.326836 125.189218 
L 267.976145 130.384068 
L 268.625455 132.83149 
L 269.274764 133.817366 
L 269.924073 136.053579 
L 270.573382 139.554501 
L 271.222691 131.558005 
L 271.872 131.460146 
L 272.521309 134.382843 
L 273.170618 127.007577 
L 273.819927 126.292064 
L 274.469236 135.335806 
L 275.118545 133.167524 
L 275.767855 136.619429 
L 276.417164 140.882226 
L 277.066473 129.927751 
L 277.715782 129.874323 
L 278.365091 130.718259 
L 279.0144 138.509646 
L 279.663709 142.591952 
L 280.313018 136.765757 
L 280.962327 138.797168 
L 281.611636 137.574192 
L 282.260945 132.792259 
L 282.910255 132.647884 
L 283.559564 134.957315 
L 284.208873 132.913332 
L 284.858182 136.801631 
L 285.507491 137.149426 
L 286.1568 129.998095 
L 286.806109 132.70254 
L 287.455418 130.475806 
L 288.104727 131.369045 
L 288.754036 135.382169 
L 289.403345 138.502164 
L 290.052655 135.850598 
L 290.701964 142.78315 
L 291.351273 141.069935 
L 292.000582 134.195418 
L 293.2992 139.513997 
L 293.948509 139.287517 
L 294.597818 141.538123 
L 295.247127 133.704104 
L 295.896436 127.896515 
L 296.545745 131.029214 
L 297.195055 137.338781 
L 297.844364 138.533387 
L 298.493673 132.835703 
L 299.142982 136.118065 
L 299.792291 136.944251 
L 300.4416 140.626388 
L 301.090909 141.516138 
L 301.740218 135.958507 
L 302.389527 135.291309 
L 303.038836 132.754454 
L 303.688145 137.796898 
L 304.337455 144.729406 
L 304.986764 140.256498 
L 305.636073 129.566242 
L 306.285382 138.036346 
L 306.934691 141.127225 
L 307.584 135.492425 
L 308.233309 136.277558 
L 308.882618 144.44307 
L 309.531927 145.006725 
L 310.181236 137.127419 
L 310.830545 127.154826 
L 311.479855 133.444843 
L 312.129164 142.619445 
L 313.427782 132.180727 
L 314.077091 137.229403 
L 314.7264 134.808969 
L 315.375709 146.781333 
L 316.025018 147.848195 
L 316.674327 149.643778 
L 317.323636 130.723043 
L 317.972945 133.796258 
L 318.622255 142.736283 
L 319.271564 132.792259 
L 319.920873 135.403869 
L 320.570182 145.623874 
L 321.219491 144.163491 
L 321.8688 139.819664 
L 322.518109 142.919605 
L 323.167418 138.090695 
L 323.816727 134.177821 
L 324.466036 139.849768 
L 325.115345 138.25157 
L 325.764655 140.352206 
L 326.413964 137.603922 
L 327.063273 140.737807 
L 327.712582 141.680107 
L 328.361891 138.38673 
L 329.0112 131.696675 
L 329.660509 141.835518 
L 330.309818 143.303647 
L 330.959127 140.374104 
L 331.608436 138.489921 
L 332.257745 130.855482 
L 332.907055 133.472862 
L 333.556364 141.276866 
L 334.205673 142.687661 
L 334.854982 141.815661 
L 335.504291 144.349818 
L 336.1536 144.060519 
L 336.802909 138.127732 
L 337.452218 139.619338 
L 338.101527 138.270922 
L 338.750836 133.37564 
L 339.400145 144.188197 
L 340.049455 147.491974 
L 341.348073 139.039248 
L 341.997382 142.997782 
L 342.646691 144.330422 
L 343.296 141.563773 
L 343.945309 141.569916 
L 345.243927 133.050466 
L 345.893236 136.216275 
L 346.542545 140.579828 
L 347.191855 143.112449 
L 347.841164 138.337515 
L 348.490473 138.804913 
L 349.139782 143.358193 
L 349.789091 144.14438 
L 350.4384 143.435033 
L 351.087709 136.741226 
L 351.737018 134.883767 
L 352.386327 139.440449 
L 353.035636 145.011157 
L 353.684945 139.410038 
L 354.334255 136.701973 
L 354.983564 138.176859 
L 355.632873 144.418056 
L 356.282182 145.19088 
L 356.931491 143.165284 
L 357.5808 144.781057 
L 358.230109 137.993011 
L 358.879418 141.432716 
L 359.528727 146.992673 
L 360.178036 146.138007 
L 360.827345 143.758758 
L 361.476655 145.303945 
L 362.125964 138.327005 
L 362.775273 136.17643 
L 363.424582 144.656473 
L 364.073891 149.020376 
L 364.7232 145.638597 
L 365.372509 144.803744 
L 366.021818 145.262804 
L 366.671127 141.791877 
L 367.320436 131.293697 
L 368.619055 142.350727 
L 369.268364 142.711226 
L 369.917673 133.539301 
L 370.566982 139.062002 
L 371.216291 136.407189 
L 371.8656 142.378242 
L 372.514909 147.178693 
L 373.164218 146.163284 
L 374.462836 132.376665 
L 375.112145 137.013608 
L 375.761455 143.788072 
L 376.410764 142.805267 
L 377.060073 142.395905 
L 377.709382 144.69634 
L 378.358691 135.874251 
L 379.008 141.341439 
L 379.657309 142.447314 
L 380.306618 138.952843 
L 380.955927 146.290106 
L 381.605236 150.841148 
L 382.254545 140.478611 
L 382.903855 143.071199 
L 383.553164 138.228466 
L 384.202473 137.442894 
L 384.851782 137.757228 
L 385.501091 142.01715 
L 386.1504 145.007186 
L 386.799709 144.268898 
L 387.449018 143.848125 
L 388.098327 141.282614 
L 388.747636 146.140509 
L 389.396945 141.022366 
L 390.046255 142.516737 
L 390.695564 140.537261 
L 391.344873 142.390639 
L 391.994182 144.645985 
L 392.643491 147.55894 
L 393.2928 143.699516 
L 393.942109 142.871926 
L 394.591418 146.269305 
L 395.240727 142.758137 
L 395.890036 142.545919 
L 396.539345 140.159955 
L 397.188655 141.03665 
L 397.837964 139.183031 
L 398.487273 141.513658 
L 398.487273 141.513658 
" clip-path="url(#pe29ec3df5b)" style="fill: none; stroke: #ff7f0e; stroke-width: 1.5; stroke-linecap: square"/>
   </g>
   <g id="line2d_16">
    <path d="M 73.832727 176.577883 
L 74.482036 223.931296 
L 75.131345 279.817855 
L 75.780655 267.678423 
L 76.429964 267.689219 
L 77.079273 285.582148 
L 77.728582 276.036823 
L 79.0272 295.488 
L 79.676509 286.046381 
L 80.325818 284.266793 
L 80.975127 277.138292 
L 81.624436 275.984843 
L 82.273745 277.759934 
L 82.923055 287.459283 
L 83.572364 289.703647 
L 84.221673 292.793072 
L 84.870982 274.674206 
L 85.520291 278.120438 
L 86.1696 282.892009 
L 86.818909 281.025242 
L 87.468218 277.556508 
L 88.117527 270.33582 
L 88.766836 284.170914 
L 89.416145 293.980936 
L 90.065455 285.584211 
L 90.714764 271.218143 
L 91.364073 281.550214 
L 92.013382 283.629787 
L 92.662691 281.879557 
L 93.312 279.458881 
L 93.961309 280.613378 
L 94.610618 273.078246 
L 95.259927 273.241436 
L 95.909236 270.110684 
L 96.558545 279.82248 
L 97.207855 266.462568 
L 97.857164 271.870388 
L 98.506473 289.741074 
L 99.155782 293.901338 
L 99.805091 285.411712 
L 100.4544 260.432579 
L 101.103709 261.052877 
L 101.753018 278.142687 
L 102.402327 277.231428 
L 103.051636 263.958152 
L 103.700945 259.593053 
L 104.350255 273.048191 
L 104.999564 275.830836 
L 105.648873 275.222623 
L 107.5968 259.90052 
L 108.246109 276.030334 
L 108.895418 279.558655 
L 109.544727 266.296185 
L 110.843345 276.836635 
L 112.141964 257.255569 
L 112.791273 264.199191 
L 113.440582 268.396547 
L 114.089891 271.136033 
L 114.7392 257.613556 
L 115.388509 253.757643 
L 116.687127 256.930396 
L 117.336436 268.397567 
L 117.985745 267.919517 
L 118.635055 260.936872 
L 119.284364 267.34319 
L 119.933673 257.424585 
L 120.582982 245.134365 
L 121.232291 254.093863 
L 121.8816 255.520116 
L 122.530909 258.578368 
L 123.180218 258.106692 
L 123.829527 255.845268 
L 124.478836 252.19499 
L 125.128145 250.914089 
L 125.777455 254.22662 
L 126.426764 259.71292 
L 127.076073 260.853835 
L 127.725382 265.300304 
L 128.374691 268.361375 
L 129.024 264.405408 
L 129.673309 264.043757 
L 130.322618 252.864777 
L 130.971927 252.817251 
L 131.621236 261.668073 
L 132.270545 256.880995 
L 132.919855 257.418737 
L 133.569164 252.236866 
L 134.218473 250.316512 
L 134.867782 264.287955 
L 135.517091 254.798087 
L 136.1664 254.772953 
L 136.815709 249.221784 
L 138.114327 226.546954 
L 138.763636 225.657785 
L 139.412945 228.599967 
L 140.062255 242.756158 
L 140.711564 252.397642 
L 141.360873 247.225874 
L 142.010182 225.220634 
L 142.659491 233.354231 
L 143.3088 253.223784 
L 143.958109 251.479872 
L 144.607418 252.596651 
L 145.256727 242.934619 
L 145.906036 239.279701 
L 146.555345 244.159032 
L 147.204655 250.051491 
L 147.853964 245.532922 
L 148.503273 243.426943 
L 149.152582 238.995076 
L 149.801891 232.388081 
L 150.4512 233.66444 
L 151.100509 235.332204 
L 151.749818 243.425736 
L 152.399127 245.069419 
L 153.048436 246.106791 
L 153.697745 232.548276 
L 154.347055 224.666095 
L 154.996364 238.816922 
L 155.645673 238.579624 
L 156.294982 236.556233 
L 156.944291 229.058061 
L 157.5936 233.605242 
L 158.242909 234.726267 
L 158.892218 243.122241 
L 159.541527 247.702071 
L 160.190836 240.907114 
L 160.840145 237.359215 
L 161.489455 236.650658 
L 162.138764 231.29874 
L 162.788073 238.957358 
L 163.437382 232.482429 
L 164.086691 221.816408 
L 164.736 231.91715 
L 165.385309 236.236622 
L 166.034618 232.945373 
L 167.333236 244.286787 
L 167.982545 235.570883 
L 168.631855 215.424188 
L 169.281164 215.638469 
L 169.930473 231.599942 
L 170.579782 230.195707 
L 171.229091 224.782473 
L 171.8784 222.431473 
L 172.527709 221.447714 
L 173.177018 230.252426 
L 173.826327 218.919646 
L 174.475636 204.198878 
L 175.124945 213.398624 
L 175.774255 219.533844 
L 176.423564 213.039288 
L 177.072873 220.069337 
L 177.722182 216.398698 
L 178.371491 213.99076 
L 179.0208 214.828739 
L 179.670109 213.576054 
L 180.319418 211.476921 
L 180.968727 216.911734 
L 181.618036 212.376303 
L 182.267345 219.43605 
L 182.916655 216.627372 
L 183.565964 223.161324 
L 184.215273 218.027976 
L 184.864582 215.191268 
L 185.513891 206.892483 
L 186.1632 218.264988 
L 186.812509 217.687136 
L 187.461818 213.904047 
L 188.111127 215.114066 
L 188.760436 220.336662 
L 189.409745 210.267669 
L 190.059055 204.257374 
L 190.708364 196.341919 
L 191.357673 199.432863 
L 192.006982 209.19711 
L 192.656291 215.788077 
L 193.3056 209.802114 
L 193.954909 207.784011 
L 194.604218 203.709703 
L 195.253527 197.706516 
L 195.902836 203.633829 
L 196.552145 199.989168 
L 197.201455 201.823621 
L 197.850764 204.500859 
L 198.500073 204.340422 
L 199.149382 213.926899 
L 199.798691 214.429063 
L 200.448 206.291867 
L 201.097309 194.057687 
L 201.746618 186.824788 
L 202.395927 190.356768 
L 203.045236 200.923394 
L 203.694545 190.507155 
L 204.343855 190.135598 
L 204.993164 205.45187 
L 205.642473 211.342057 
L 206.291782 212.813181 
L 206.941091 200.046864 
L 207.5904 193.688477 
L 208.239709 192.59432 
L 208.889018 194.246932 
L 209.538327 192.789533 
L 210.187636 200.101037 
L 210.836945 200.850252 
L 211.486255 191.113509 
L 212.135564 186.215023 
L 212.784873 197.329188 
L 213.434182 190.269265 
L 214.083491 195.250998 
L 214.7328 189.915744 
L 215.382109 183.332873 
L 216.031418 189.734485 
L 216.680727 190.812252 
L 217.330036 182.297421 
L 217.979345 179.389117 
L 218.628655 185.603688 
L 219.277964 190.339434 
L 219.927273 202.11846 
L 220.576582 193.040127 
L 221.225891 188.764473 
L 221.8752 187.756502 
L 222.524509 191.013467 
L 223.173818 195.680064 
L 224.472436 185.557754 
L 225.121745 192.774723 
L 226.420364 178.482922 
L 227.069673 183.116596 
L 227.718982 192.597567 
L 228.368291 196.552524 
L 229.0176 187.878518 
L 229.666909 193.835573 
L 230.316218 191.182021 
L 230.965527 190.900193 
L 231.614836 186.279948 
L 232.264145 188.82773 
L 232.913455 185.54392 
L 233.562764 189.771709 
L 234.212073 188.8431 
L 234.861382 184.649902 
L 235.510691 177.216765 
L 236.16 181.711089 
L 236.809309 189.681748 
L 237.458618 188.608381 
L 238.107927 179.472275 
L 238.757236 186.097877 
L 239.406545 190.200237 
L 240.055855 187.059661 
L 240.705164 177.389488 
L 241.354473 181.225325 
L 242.003782 181.255802 
L 242.653091 179.770417 
L 243.3024 190.386027 
L 243.951709 185.545028 
L 244.601018 179.80583 
L 245.250327 177.705161 
L 245.899636 161.681199 
L 246.548945 168.460731 
L 247.198255 182.872288 
L 247.847564 185.016588 
L 248.496873 179.060576 
L 249.146182 170.242535 
L 249.795491 184.083427 
L 250.4448 183.205174 
L 251.094109 176.192963 
L 251.743418 178.020109 
L 252.392727 176.015325 
L 253.042036 180.35168 
L 254.340655 169.253872 
L 254.989964 178.822061 
L 255.639273 181.545408 
L 256.288582 173.323891 
L 256.937891 181.651287 
L 257.5872 181.587251 
L 258.236509 176.161674 
L 258.885818 177.980911 
L 259.535127 182.886561 
L 260.184436 166.451963 
L 260.833745 161.966043 
L 262.132364 181.597442 
L 262.781673 177.01758 
L 263.430982 177.775484 
L 264.080291 173.952779 
L 264.7296 172.720017 
L 265.378909 172.481052 
L 266.677527 174.588775 
L 267.326836 178.372128 
L 267.976145 172.168846 
L 268.625455 170.33809 
L 269.274764 170.42737 
L 269.924073 168.886308 
L 270.573382 166.988477 
L 271.222691 173.49973 
L 271.872 175.500884 
L 272.521309 169.437918 
L 273.170618 175.288951 
L 273.819927 179.607095 
L 274.469236 167.548359 
L 275.118545 170.325057 
L 275.767855 165.963392 
L 276.417164 165.326846 
L 277.066473 174.586098 
L 277.715782 172.550058 
L 278.365091 172.861847 
L 279.0144 169.330953 
L 279.663709 159.987358 
L 280.962327 168.234228 
L 281.611636 168.032739 
L 282.260945 167.013425 
L 282.910255 170.120825 
L 283.559564 169.303987 
L 284.208873 169.664354 
L 284.858182 166.222718 
L 286.1568 171.271504 
L 286.806109 170.095022 
L 287.455418 171.434025 
L 288.104727 174.399069 
L 288.754036 167.494777 
L 289.403345 166.861172 
L 290.052655 166.910607 
L 290.701964 157.492279 
L 291.351273 158.993978 
L 292.000582 168.263696 
L 292.649891 165.941318 
L 293.2992 161.666059 
L 293.948509 161.92679 
L 294.597818 163.748023 
L 295.896436 173.691587 
L 296.545745 167.565341 
L 297.195055 165.74492 
L 297.844364 160.319245 
L 298.493673 172.8733 
L 299.142982 163.821286 
L 300.4416 159.056687 
L 301.090909 162.718878 
L 301.740218 163.966122 
L 302.389527 164.317756 
L 303.038836 168.813396 
L 303.688145 163.919847 
L 304.337455 154.444208 
L 304.986764 156.844346 
L 305.636073 173.852111 
L 306.285382 163.267043 
L 306.934691 158.549377 
L 307.584 164.573572 
L 308.233309 163.668178 
L 309.531927 151.255843 
L 310.181236 165.673632 
L 310.830545 173.565686 
L 311.479855 164.262332 
L 312.129164 157.793887 
L 312.778473 161.854866 
L 313.427782 167.764307 
L 314.7264 162.446431 
L 316.025018 148.641753 
L 316.674327 150.036465 
L 317.323636 166.426445 
L 318.622255 156.192047 
L 319.271564 164.500924 
L 319.920873 160.633206 
L 320.570182 154.250486 
L 321.219491 153.411311 
L 321.8688 157.563216 
L 322.518109 152.577622 
L 323.167418 159.157793 
L 323.816727 162.952731 
L 324.466036 159.470942 
L 325.115345 157.345293 
L 325.764655 158.151533 
L 326.413964 157.451138 
L 327.063273 155.980553 
L 327.712582 156.857248 
L 328.361891 160.314857 
L 329.0112 167.241419 
L 329.660509 156.478076 
L 330.309818 153.384652 
L 330.959127 156.587762 
L 331.608436 160.643782 
L 332.257745 167.55516 
L 332.907055 160.796956 
L 333.556364 155.219336 
L 334.205673 155.968156 
L 334.854982 156.892354 
L 335.504291 151.616803 
L 336.1536 153.230382 
L 336.802909 162.857527 
L 337.452218 155.950076 
L 338.101527 159.855994 
L 338.750836 164.479729 
L 339.400145 153.758404 
L 340.049455 154.14769 
L 340.698764 152.742688 
L 341.348073 157.32989 
L 341.997382 150.721765 
L 342.646691 152.015787 
L 343.296 156.036086 
L 343.945309 155.666569 
L 344.594618 159.23845 
L 345.243927 167.264041 
L 345.893236 160.558539 
L 346.542545 155.6694 
L 347.191855 154.296783 
L 347.841164 159.695404 
L 349.139782 153.58048 
L 349.789091 152.768271 
L 350.4384 150.855103 
L 351.087709 161.382333 
L 351.737018 157.32063 
L 352.386327 160.838206 
L 353.035636 150.161466 
L 353.684945 155.832228 
L 354.334255 159.902203 
L 355.632873 149.164466 
L 356.282182 147.191705 
L 356.931491 150.688743 
L 357.5808 149.619555 
L 358.230109 154.389859 
L 358.879418 156.170412 
L 359.528727 152.798836 
L 360.178036 148.692504 
L 360.827345 152.929168 
L 361.476655 148.646185 
L 362.125964 157.710224 
L 362.775273 160.790088 
L 363.424582 148.668741 
L 364.073891 147.513236 
L 364.7232 147.342904 
L 365.372509 153.027774 
L 366.021818 148.178612 
L 367.320436 161.812365 
L 368.619055 154.161843 
L 369.268364 154.370111 
L 369.917673 162.83982 
L 370.566982 158.6787 
L 371.8656 152.650643 
L 372.514909 146.360363 
L 373.164218 146.660084 
L 373.813527 156.925859 
L 374.462836 165.394712 
L 375.112145 160.39841 
L 375.761455 151.118862 
L 376.410764 153.623793 
L 377.060073 150.22174 
L 377.709382 151.010998 
L 378.358691 157.650192 
L 379.008 152.763993 
L 379.657309 153.922 
L 380.306618 154.762864 
L 380.955927 150.58248 
L 381.605236 144.739126 
L 382.254545 157.134018 
L 382.903855 149.907011 
L 383.553164 158.419812 
L 384.202473 159.000034 
L 385.501091 155.275374 
L 386.1504 152.589602 
L 386.799709 154.409518 
L 387.449018 148.097779 
L 388.098327 148.520856 
L 388.747636 146.315536 
L 389.396945 151.88212 
L 390.046255 153.830482 
L 390.695564 149.694924 
L 391.344873 153.805074 
L 391.994182 146.18053 
L 392.643491 144.287175 
L 393.2928 151.946452 
L 393.942109 152.772374 
L 394.591418 148.468788 
L 395.240727 152.115402 
L 395.890036 153.939005 
L 396.539345 154.592313 
L 397.188655 155.668347 
L 397.837964 156.487379 
L 398.487273 150.648919 
L 398.487273 150.648919 
" clip-path="url(#pe29ec3df5b)" style="fill: none; stroke: #2ca02c; stroke-width: 1.5; stroke-linecap: square"/>
   </g>
   <g id="line2d_17">
    <path d="M 73.832727 145.901434 
L 74.482036 176.577883 
L 75.780655 176.577883 
L 76.429964 166.147876 
L 77.728582 176.782389 
L 78.377891 185.985317 
L 79.0272 178.213941 
L 79.676509 176.373366 
L 80.325818 186.803362 
L 80.975127 183.940225 
L 81.624436 176.577883 
L 82.923055 197.846876 
L 83.572364 181.077089 
L 84.221673 176.986906 
L 84.870982 187.007868 
L 85.520291 185.167282 
L 86.1696 184.553754 
L 86.818909 176.577883 
L 87.468218 182.304146 
L 88.117527 181.077089 
L 88.766836 183.326708 
L 89.416145 186.189834 
L 90.065455 183.326697 
L 90.714764 188.234925 
L 91.364073 190.484544 
L 92.013382 190.893545 
L 92.662691 197.642381 
L 93.312 184.75826 
L 93.961309 188.030419 
L 94.610618 187.825903 
L 95.259927 211.549043 
L 95.909236 200.710035 
L 96.558545 186.598867 
L 97.207855 208.685906 
L 97.857164 185.985339 
L 98.506473 191.916129 
L 99.805091 220.138453 
L 101.103709 195.801795 
L 101.753018 198.255921 
L 102.402327 196.824336 
L 103.051636 194.779233 
L 103.700945 203.164149 
L 104.350255 194.165727 
L 104.999564 193.961221 
L 105.648873 194.983772 
L 106.298182 186.394351 
L 106.947491 192.938648 
L 107.5968 216.048259 
L 108.246109 199.482978 
L 108.895418 202.959643 
L 109.544727 222.592567 
L 110.194036 220.138453 
L 110.843345 208.072388 
L 111.492655 205.209262 
L 112.141964 210.731019 
L 112.791273 220.751982 
L 113.440582 217.07081 
L 114.089891 207.049848 
L 114.7392 225.046681 
L 115.388509 220.342959 
L 116.037818 205.004735 
L 116.687127 224.433153 
L 117.336436 219.72943 
L 117.985745 224.433153 
L 118.635055 199.482978 
L 119.284364 224.433153 
L 119.933673 243.248054 
L 121.232291 240.1804 
L 121.8816 241.611974 
L 122.530909 238.339825 
L 123.180218 226.478244 
L 123.829527 217.888845 
L 124.478836 223.410602 
L 125.128145 241.202951 
L 125.777455 239.157849 
L 126.426764 242.839031 
L 127.076073 241.81648 
L 127.725382 233.636081 
L 128.374691 242.430008 
L 129.024 244.679617 
L 129.673309 235.476678 
L 130.322618 243.657065 
L 130.971927 243.657065 
L 131.621236 240.180411 
L 132.270545 234.045115 
L 132.919855 243.45256 
L 133.569164 241.81648 
L 134.218473 240.79394 
L 134.867782 241.202951 
L 135.517091 242.430008 
L 136.1664 244.679617 
L 136.815709 244.679617 
L 137.465018 233.840609 
L 138.114327 242.634525 
L 138.763636 242.839031 
L 139.412945 242.634525 
L 140.062255 243.657065 
L 140.711564 238.339814 
L 141.360873 245.293145 
L 142.010182 245.293145 
L 142.659491 236.294723 
L 143.3088 243.657065 
L 143.958109 243.248054 
L 144.607418 243.861582 
L 145.256727 239.566882 
L 145.906036 241.81648 
L 146.555345 241.407468 
L 147.204655 242.225502 
L 147.853964 240.998445 
L 148.503273 245.906674 
L 149.152582 244.066099 
L 149.801891 234.24962 
L 150.4512 243.45257 
L 151.100509 243.861582 
L 151.749818 241.407468 
L 153.048436 232.61353 
L 153.697745 230.568438 
L 154.347055 225.046681 
L 154.996364 239.362366 
L 155.645673 236.090206 
L 156.294982 236.908251 
L 156.944291 238.544331 
L 157.5936 232.613552 
L 158.242909 237.52178 
L 158.892218 245.497673 
L 159.541527 242.430008 
L 160.190836 235.476678 
L 160.840145 235.476678 
L 161.489455 236.294723 
L 162.138764 232.818058 
L 162.788073 237.112757 
L 163.437382 232.613552 
L 164.086691 232.818058 
L 164.736 235.8857 
L 165.385309 217.684339 
L 166.034618 232.409024 
L 166.683927 233.840587 
L 167.333236 238.339825 
L 167.982545 229.545887 
L 168.631855 209.708435 
L 169.930473 235.067666 
L 170.579782 229.136875 
L 171.229091 227.29629 
L 171.8784 226.273738 
L 172.527709 223.410602 
L 173.177018 228.31883 
L 173.826327 204.800207 
L 174.475636 213.79864 
L 175.124945 212.980606 
L 175.774255 188.848454 
L 176.423564 191.098062 
L 177.072873 210.321986 
L 177.722182 206.845309 
L 178.371491 204.595701 
L 179.0208 197.846887 
L 179.670109 188.643959 
L 180.319418 196.210807 
L 180.968727 193.552187 
L 181.618036 204.391206 
L 182.267345 193.756682 
L 182.916655 196.61983 
L 183.565964 217.888834 
L 184.215273 208.072377 
L 184.864582 211.344526 
L 185.513891 189.05296 
L 186.1632 194.779244 
L 186.812509 191.302568 
L 187.461818 197.028853 
L 188.111127 204.1867 
L 188.760436 212.980606 
L 189.409745 202.959643 
L 190.059055 206.027286 
L 190.708364 190.280017 
L 191.357673 188.43942 
L 192.006982 195.597279 
L 192.656291 197.437853 
L 193.3056 212.980606 
L 193.954909 191.098062 
L 194.604218 189.871005 
L 195.253527 220.956477 
L 195.902836 192.529625 
L 196.552145 189.666488 
L 197.201455 192.938659 
L 197.850764 213.185111 
L 198.500073 191.711591 
L 199.149382 186.189812 
L 200.448 200.710024 
L 201.097309 184.349226 
L 202.395927 184.758249 
L 203.045236 191.507096 
L 203.694545 191.302579 
L 204.343855 187.621386 
L 204.993164 187.212363 
L 205.642473 201.323552 
L 206.291782 182.304135 
L 206.941091 188.234914 
L 207.5904 208.276872 
L 208.239709 185.371788 
L 208.889018 186.39434 
L 209.538327 198.051393 
L 210.187636 186.189812 
L 210.836945 185.985306 
L 211.486255 189.05296 
L 212.135564 183.122191 
L 212.784873 184.553754 
L 213.434182 182.508641 
L 214.083491 184.962755 
L 214.7328 188.234925 
L 216.031418 180.259043 
L 216.680727 186.394329 
L 217.330036 190.484533 
L 217.979345 187.212374 
L 218.628655 187.825892 
L 219.277964 188.030419 
L 219.927273 191.711591 
L 220.576582 188.643948 
L 221.225891 183.326686 
L 221.8752 182.917663 
L 222.524509 185.780811 
L 223.173818 180.872572 
L 223.823127 183.326686 
L 224.472436 179.645515 
L 225.121745 179.440998 
L 225.771055 182.304135 
L 226.420364 184.14472 
L 227.069673 186.598845 
L 227.718982 181.895134 
L 229.0176 191.711591 
L 229.666909 187.212363 
L 230.316218 181.077078 
L 230.965527 184.553743 
L 231.614836 180.668055 
L 232.264145 183.326697 
L 232.913455 190.280017 
L 233.562764 182.304146 
L 234.212073 182.508641 
L 234.861382 180.259043 
L 235.510691 182.713157 
L 236.16 182.304135 
L 236.809309 179.440998 
L 237.458618 179.645515 
L 238.107927 180.463549 
L 238.757236 182.304135 
L 239.406545 185.167272 
L 240.055855 185.371777 
L 240.705164 177.600412 
L 241.354473 180.46356 
L 242.003782 180.259043 
L 243.3024 184.349226 
L 243.951709 183.531203 
L 244.601018 184.553743 
L 245.250327 181.077078 
L 245.899636 186.598834 
L 246.548945 188.439431 
L 247.198255 183.735698 
L 247.847564 186.394329 
L 248.496873 182.713157 
L 249.795491 185.985306 
L 250.4448 180.259043 
L 251.094109 176.373366 
L 251.743418 187.621386 
L 252.392727 182.508641 
L 253.042036 183.735698 
L 253.691345 181.690617 
L 254.340655 180.668055 
L 254.989964 187.007857 
L 255.639273 182.917663 
L 256.288582 183.531203 
L 256.937891 181.690606 
L 257.5872 183.735698 
L 258.885818 179.440998 
L 259.535127 184.962777 
L 260.184436 185.167282 
L 260.833745 179.031986 
L 261.483055 181.690606 
L 262.132364 180.463549 
L 262.781673 175.964332 
L 263.430982 179.645515 
L 264.080291 182.099629 
L 264.7296 187.007868 
L 265.378909 179.440987 
L 266.028218 176.168849 
L 266.677527 184.758249 
L 267.326836 180.259043 
L 267.976145 184.758249 
L 268.625455 183.940214 
L 269.274764 182.304135 
L 269.924073 182.508641 
L 270.573382 185.371777 
L 271.222691 183.531203 
L 271.872 180.872572 
L 273.170618 187.007857 
L 273.819927 186.80334 
L 274.469236 187.621397 
L 275.118545 189.666488 
L 275.767855 183.735698 
L 276.417164 183.531192 
L 277.066473 185.7808 
L 277.715782 179.645515 
L 278.365091 179.645515 
L 279.0144 184.14472 
L 279.663709 180.668055 
L 280.313018 179.645515 
L 280.962327 180.668055 
L 282.260945 185.167282 
L 282.910255 188.643926 
L 283.559564 181.690606 
L 284.208873 182.304135 
L 284.858182 183.531192 
L 285.507491 185.576283 
L 286.1568 181.690606 
L 286.806109 186.189812 
L 287.455418 180.054526 
L 288.104727 181.077078 
L 288.754036 183.326686 
L 290.052655 184.962755 
L 290.701964 178.418458 
L 291.351273 177.395906 
L 292.000582 180.872572 
L 293.2992 180.872572 
L 293.948509 181.4861 
L 294.597818 183.531192 
L 295.247127 181.690617 
L 295.896436 181.281583 
L 296.545745 182.917663 
L 297.195055 179.645515 
L 297.844364 180.872572 
L 298.493673 175.759838 
L 299.142982 184.553754 
L 299.792291 188.848443 
L 300.4416 185.985317 
L 301.740218 181.690606 
L 302.389527 182.304135 
L 303.038836 181.4861 
L 303.688145 182.304135 
L 304.337455 179.645515 
L 304.986764 183.940214 
L 305.636073 183.326686 
L 306.285382 175.964332 
L 306.934691 178.009435 
L 307.584 175.964332 
L 308.233309 175.555321 
L 308.882618 180.668055 
L 309.531927 179.440998 
L 310.181236 181.486111 
L 310.830545 180.463549 
L 311.479855 179.850021 
L 312.129164 185.371777 
L 312.778473 185.7808 
L 313.427782 181.4861 
L 314.077091 180.46356 
L 314.7264 184.962777 
L 315.375709 181.077078 
L 316.025018 180.054526 
L 316.674327 185.985317 
L 317.323636 187.825903 
L 317.972945 185.985317 
L 318.622255 183.531192 
L 319.271564 185.576283 
L 319.920873 182.508641 
L 320.570182 178.827469 
L 321.219491 178.418458 
L 321.8688 183.326686 
L 322.518109 180.463549 
L 323.167418 180.872572 
L 323.816727 183.940214 
L 324.466036 179.440998 
L 325.115345 182.713168 
L 326.413964 181.895134 
L 327.063273 180.668055 
L 327.712582 183.531203 
L 328.361891 188.234925 
L 329.0112 187.621386 
L 329.660509 187.825903 
L 330.309818 190.484512 
L 330.959127 185.167272 
L 331.608436 181.895112 
L 332.257745 176.373366 
L 332.907055 181.690606 
L 333.556364 179.850021 
L 334.205673 179.645515 
L 334.854982 185.371777 
L 335.504291 181.281605 
L 336.1536 182.304135 
L 336.802909 180.668055 
L 337.452218 178.622963 
L 338.101527 181.077089 
L 338.750836 180.463549 
L 339.400145 183.73572 
L 340.698764 181.895134 
L 341.348073 175.555321 
L 341.997382 179.440998 
L 342.646691 188.439431 
L 343.296 179.645526 
L 343.945309 179.031986 
L 344.594618 176.373366 
L 345.243927 183.122169 
L 345.893236 180.463549 
L 346.542545 179.031986 
L 347.191855 175.759838 
L 347.841164 180.463549 
L 348.490473 187.825892 
L 349.139782 178.009435 
L 349.789091 183.940225 
L 350.4384 181.077078 
L 351.087709 180.259043 
L 351.737018 179.236503 
L 352.386327 182.508662 
L 353.035636 180.259054 
L 353.684945 178.622963 
L 354.334255 181.690617 
L 354.983564 179.645526 
L 355.632873 182.917674 
L 356.282182 182.917663 
L 356.931491 180.668077 
L 357.5808 181.077089 
L 358.230109 182.917674 
L 359.528727 187.416891 
L 360.178036 185.576283 
L 360.827345 180.259043 
L 361.476655 181.895134 
L 362.125964 188.030397 
L 363.424582 179.031997 
L 364.073891 185.576305 
L 364.7232 184.962755 
L 365.372509 185.167282 
L 366.021818 181.895112 
L 366.671127 183.531192 
L 367.320436 181.4861 
L 367.969745 184.758249 
L 368.619055 181.281583 
L 369.268364 182.508662 
L 369.917673 186.803362 
L 370.566982 185.576283 
L 371.216291 185.985306 
L 371.8656 181.077078 
L 372.514909 182.917674 
L 373.164218 186.598834 
L 373.813527 182.304135 
L 374.462836 178.827469 
L 375.112145 181.690606 
L 375.761455 181.281583 
L 376.410764 181.690606 
L 377.060073 178.622963 
L 377.709382 180.46356 
L 378.358691 182.917663 
L 379.008 178.009435 
L 379.657309 176.373366 
L 380.955927 181.281583 
L 381.605236 179.031986 
L 382.254545 180.259043 
L 382.903855 179.645526 
L 383.553164 180.259043 
L 384.202473 179.236492 
L 384.851782 175.555321 
L 385.501091 184.14472 
L 386.1504 188.030397 
L 386.799709 178.009435 
L 387.449018 180.668055 
L 388.098327 181.4861 
L 388.747636 181.690606 
L 389.396945 177.804929 
L 390.046255 179.645515 
L 390.695564 184.962755 
L 391.344873 184.553754 
L 391.994182 183.735698 
L 392.643491 179.236492 
L 393.2928 175.759838 
L 393.942109 179.440998 
L 394.591418 181.077078 
L 395.240727 178.827469 
L 395.890036 182.304135 
L 396.539345 177.600412 
L 397.188655 180.872572 
L 397.837964 179.440998 
L 398.487273 181.895112 
L 398.487273 181.895112 
" clip-path="url(#pe29ec3df5b)" style="fill: none; stroke: #d62728; stroke-width: 1.5; stroke-linecap: square"/>
   </g>
   <g id="patch_3">
    <path d="M 57.6 307.584 
L 57.6 41.472 
" style="fill: none; stroke: #000000; stroke-width: 0.8; stroke-linejoin: miter; stroke-linecap: square"/>
   </g>
   <g id="patch_4">
    <path d="M 414.72 307.584 
L 414.72 41.472 
" style="fill: none; stroke: #000000; stroke-width: 0.8; stroke-linejoin: miter; stroke-linecap: square"/>
   </g>
   <g id="patch_5">
    <path d="M 57.6 307.584 
L 414.72 307.584 
" style="fill: none; stroke: #000000; stroke-width: 0.8; stroke-linejoin: miter; stroke-linecap: square"/>
   </g>
   <g id="patch_6">
    <path d="M 57.6 41.472 
L 414.72 41.472 
" style="fill: none; stroke: #000000; stroke-width: 0.8; stroke-linejoin: miter; stroke-linecap: square"/>
   </g>
   <g id="text_14">
    <!-- test10 -->
    <g transform="translate(217.003125 35.472) scale(0.12 -0.12)">
     <defs>
      <path id="DejaVuSans-74" d="M 1172 4494 
L 1172 3500 
L 2356 3500 
L 2356 3053 
L 1172 3053 
L 1172 1153 
Q 1172 725 1289 603 
Q 1406 481 1766 481 
L 2356 481 
L 2356 0 
L 1766 0 
Q 1100 0 847 248 
Q 594 497 594 1153 
L 594 3053 
L 172 3053 
L 172 3500 
L 594 3500 
L 594 4494 
L 1172 4494 
z
" transform="scale(0.015625)"/>
      <path id="DejaVuSans-65" d="M 3597 1894 
L 3597 1613 
L 953 1613 
Q 991 1019 1311 708 
Q 1631 397 2203 397 
Q 2534 397 2845 478 
Q 3156 559 3463 722 
L 3463 178 
Q 3153 47 2828 -22 
Q 2503 -91 2169 -91 
Q 1331 -91 842 396 
Q 353 884 353 1716 
Q 353 2575 817 3079 
Q 1281 3584 2069 3584 
Q 2775 3584 3186 3129 
Q 3597 2675 3597 1894 
z
M 3022 2063 
Q 3016 2534 2758 2815 
Q 2500 3097 2075 3097 
Q 1594 3097 1305 2825 
Q 1016 2553 972 2059 
L 3022 2063 
z
" transform="scale(0.015625)"/>
      <path id="DejaVuSans-73" d="M 2834 3397 
L 2834 2853 
Q 2591 2978 2328 3040 
Q 2066 3103 1784 3103 
Q 1356 3103 1142 2972 
Q 928 2841 928 2578 
Q 928 2378 1081 2264 
Q 1234 2150 1697 2047 
L 1894 2003 
Q 2506 1872 2764 1633 
Q 3022 1394 3022 966 
Q 3022 478 2636 193 
Q 2250 -91 1575 -91 
Q 1294 -91 989 -36 
Q 684 19 347 128 
L 347 722 
Q 666 556 975 473 
Q 1284 391 1588 391 
Q 1994 391 2212 530 
Q 2431 669 2431 922 
Q 2431 1156 2273 1281 
Q 2116 1406 1581 1522 
L 1381 1569 
Q 847 1681 609 1914 
Q 372 2147 372 2553 
Q 372 3047 722 3315 
Q 1072 3584 1716 3584 
Q 2034 3584 2315 3537 
Q 2597 3491 2834 3397 
z
" transform="scale(0.015625)"/>
     </defs>
     <use xlink:href="#DejaVuSans-74"/>
     <use xlink:href="#DejaVuSans-65" transform="translate(39.208984 0)"/>
     <use xlink:href="#DejaVuSans-73" transform="translate(100.732422 0)"/>
     <use xlink:href="#DejaVuSans-74" transform="translate(152.832031 0)"/>
     <use xlink:href="#DejaVuSans-31" transform="translate(192.041016 0)"/>
     <use xlink:href="#DejaVuSans-30" transform="translate(255.664062 0)"/>
    </g>
   </g>
   <g id="legend_1">
    <g id="patch_7">
     <path d="M 316.259063 302.584 
L 407.72 302.584 
Q 409.72 302.584 409.72 300.584 
L 409.72 212.40275 
Q 409.72 210.40275 407.72 210.40275 
L 316.259063 210.40275 
Q 314.259063 210.40275 314.259063 212.40275 
L 314.259063 300.584 
Q 314.259063 302.584 316.259063 302.584 
z
" style="fill: #ffffff; opacity: 0.8; stroke: #cccccc; stroke-linejoin: miter"/>
    </g>
    <g id="line2d_18">
     <path d="M 318.259063 218.501187 
L 328.259063 218.501187 
L 338.259063 218.501187 
" style="fill: none; stroke: #1f77b4; stroke-width: 1.5; stroke-linecap: square"/>
    </g>
    <g id="text_15">
     <!-- train -->
     <g transform="translate(346.259063 222.001187) scale(0.1 -0.1)">
      <defs>
       <path id="DejaVuSans-72" d="M 2631 2963 
Q 2534 3019 2420 3045 
Q 2306 3072 2169 3072 
Q 1681 3072 1420 2755 
Q 1159 2438 1159 1844 
L 1159 0 
L 581 0 
L 581 3500 
L 1159 3500 
L 1159 2956 
Q 1341 3275 1631 3429 
Q 1922 3584 2338 3584 
Q 2397 3584 2469 3576 
Q 2541 3569 2628 3553 
L 2631 2963 
z
" transform="scale(0.015625)"/>
       <path id="DejaVuSans-61" d="M 2194 1759 
Q 1497 1759 1228 1600 
Q 959 1441 959 1056 
Q 959 750 1161 570 
Q 1363 391 1709 391 
Q 2188 391 2477 730 
Q 2766 1069 2766 1631 
L 2766 1759 
L 2194 1759 
z
M 3341 1997 
L 3341 0 
L 2766 0 
L 2766 531 
Q 2569 213 2275 61 
Q 1981 -91 1556 -91 
Q 1019 -91 701 211 
Q 384 513 384 1019 
Q 384 1609 779 1909 
Q 1175 2209 1959 2209 
L 2766 2209 
L 2766 2266 
Q 2766 2663 2505 2880 
Q 2244 3097 1772 3097 
Q 1472 3097 1187 3025 
Q 903 2953 641 2809 
L 641 3341 
Q 956 3463 1253 3523 
Q 1550 3584 1831 3584 
Q 2591 3584 2966 3190 
Q 3341 2797 3341 1997 
z
" transform="scale(0.015625)"/>
       <path id="DejaVuSans-69" d="M 603 3500 
L 1178 3500 
L 1178 0 
L 603 0 
L 603 3500 
z
M 603 4863 
L 1178 4863 
L 1178 4134 
L 603 4134 
L 603 4863 
z
" transform="scale(0.015625)"/>
       <path id="DejaVuSans-6e" d="M 3513 2113 
L 3513 0 
L 2938 0 
L 2938 2094 
Q 2938 2591 2744 2837 
Q 2550 3084 2163 3084 
Q 1697 3084 1428 2787 
Q 1159 2491 1159 1978 
L 1159 0 
L 581 0 
L 581 3500 
L 1159 3500 
L 1159 2956 
Q 1366 3272 1645 3428 
Q 1925 3584 2291 3584 
Q 2894 3584 3203 3211 
Q 3513 2838 3513 2113 
z
" transform="scale(0.015625)"/>
      </defs>
      <use xlink:href="#DejaVuSans-74"/>
      <use xlink:href="#DejaVuSans-72" transform="translate(39.208984 0)"/>
      <use xlink:href="#DejaVuSans-61" transform="translate(80.322266 0)"/>
      <use xlink:href="#DejaVuSans-69" transform="translate(141.601562 0)"/>
      <use xlink:href="#DejaVuSans-6e" transform="translate(169.384766 0)"/>
     </g>
    </g>
    <g id="line2d_19">
     <path d="M 318.259063 233.179312 
L 328.259063 233.179312 
L 338.259063 233.179312 
" style="fill: none; stroke: #ff7f0e; stroke-width: 1.5; stroke-linecap: square"/>
    </g>
    <g id="text_16">
     <!-- train_class0 -->
     <g transform="translate(346.259063 236.679312) scale(0.1 -0.1)">
      <defs>
       <path id="DejaVuSans-5f" d="M 3263 -1063 
L 3263 -1509 
L -63 -1509 
L -63 -1063 
L 3263 -1063 
z
" transform="scale(0.015625)"/>
       <path id="DejaVuSans-63" d="M 3122 3366 
L 3122 2828 
Q 2878 2963 2633 3030 
Q 2388 3097 2138 3097 
Q 1578 3097 1268 2742 
Q 959 2388 959 1747 
Q 959 1106 1268 751 
Q 1578 397 2138 397 
Q 2388 397 2633 464 
Q 2878 531 3122 666 
L 3122 134 
Q 2881 22 2623 -34 
Q 2366 -91 2075 -91 
Q 1284 -91 818 406 
Q 353 903 353 1747 
Q 353 2603 823 3093 
Q 1294 3584 2113 3584 
Q 2378 3584 2631 3529 
Q 2884 3475 3122 3366 
z
" transform="scale(0.015625)"/>
       <path id="DejaVuSans-6c" d="M 603 4863 
L 1178 4863 
L 1178 0 
L 603 0 
L 603 4863 
z
" transform="scale(0.015625)"/>
      </defs>
      <use xlink:href="#DejaVuSans-74"/>
      <use xlink:href="#DejaVuSans-72" transform="translate(39.208984 0)"/>
      <use xlink:href="#DejaVuSans-61" transform="translate(80.322266 0)"/>
      <use xlink:href="#DejaVuSans-69" transform="translate(141.601562 0)"/>
      <use xlink:href="#DejaVuSans-6e" transform="translate(169.384766 0)"/>
      <use xlink:href="#DejaVuSans-5f" transform="translate(232.763672 0)"/>
      <use xlink:href="#DejaVuSans-63" transform="translate(282.763672 0)"/>
      <use xlink:href="#DejaVuSans-6c" transform="translate(337.744141 0)"/>
      <use xlink:href="#DejaVuSans-61" transform="translate(365.527344 0)"/>
      <use xlink:href="#DejaVuSans-73" transform="translate(426.806641 0)"/>
      <use xlink:href="#DejaVuSans-73" transform="translate(478.90625 0)"/>
      <use xlink:href="#DejaVuSans-30" transform="translate(531.005859 0)"/>
     </g>
    </g>
    <g id="line2d_20">
     <path d="M 318.259063 248.135562 
L 328.259063 248.135562 
L 338.259063 248.135562 
" style="fill: none; stroke: #2ca02c; stroke-width: 1.5; stroke-linecap: square"/>
    </g>
    <g id="text_17">
     <!-- train_class1 -->
     <g transform="translate(346.259063 251.635562) scale(0.1 -0.1)">
      <use xlink:href="#DejaVuSans-74"/>
      <use xlink:href="#DejaVuSans-72" transform="translate(39.208984 0)"/>
      <use xlink:href="#DejaVuSans-61" transform="translate(80.322266 0)"/>
      <use xlink:href="#DejaVuSans-69" transform="translate(141.601562 0)"/>
      <use xlink:href="#DejaVuSans-6e" transform="translate(169.384766 0)"/>
      <use xlink:href="#DejaVuSans-5f" transform="translate(232.763672 0)"/>
      <use xlink:href="#DejaVuSans-63" transform="translate(282.763672 0)"/>
      <use xlink:href="#DejaVuSans-6c" transform="translate(337.744141 0)"/>
      <use xlink:href="#DejaVuSans-61" transform="translate(365.527344 0)"/>
      <use xlink:href="#DejaVuSans-73" transform="translate(426.806641 0)"/>
      <use xlink:href="#DejaVuSans-73" transform="translate(478.90625 0)"/>
      <use xlink:href="#DejaVuSans-31" transform="translate(531.005859 0)"/>
     </g>
    </g>
    <g id="line2d_21">
     <path d="M 318.259063 263.091812 
L 328.259063 263.091812 
L 338.259063 263.091812 
" style="fill: none; stroke: #d62728; stroke-width: 1.5; stroke-linecap: square"/>
    </g>
    <g id="text_18">
     <!-- test -->
     <g transform="translate(346.259063 266.591812) scale(0.1 -0.1)">
      <use xlink:href="#DejaVuSans-74"/>
      <use xlink:href="#DejaVuSans-65" transform="translate(39.208984 0)"/>
      <use xlink:href="#DejaVuSans-73" transform="translate(100.732422 0)"/>
      <use xlink:href="#DejaVuSans-74" transform="translate(152.832031 0)"/>
     </g>
    </g>
    <g id="line2d_22">
     <path d="M 318.259063 277.769937 
L 328.259063 277.769937 
L 338.259063 277.769937 
" style="fill: none; stroke: #9467bd; stroke-width: 1.5; stroke-linecap: square"/>
    </g>
    <g id="text_19">
     <!-- test_class0 -->
     <g transform="translate(346.259063 281.269937) scale(0.1 -0.1)">
      <use xlink:href="#DejaVuSans-74"/>
      <use xlink:href="#DejaVuSans-65" transform="translate(39.208984 0)"/>
      <use xlink:href="#DejaVuSans-73" transform="translate(100.732422 0)"/>
      <use xlink:href="#DejaVuSans-74" transform="translate(152.832031 0)"/>
      <use xlink:href="#DejaVuSans-5f" transform="translate(192.041016 0)"/>
      <use xlink:href="#DejaVuSans-63" transform="translate(242.041016 0)"/>
      <use xlink:href="#DejaVuSans-6c" transform="translate(297.021484 0)"/>
      <use xlink:href="#DejaVuSans-61" transform="translate(324.804688 0)"/>
      <use xlink:href="#DejaVuSans-73" transform="translate(386.083984 0)"/>
      <use xlink:href="#DejaVuSans-73" transform="translate(438.183594 0)"/>
      <use xlink:href="#DejaVuSans-30" transform="translate(490.283203 0)"/>
     </g>
    </g>
    <g id="line2d_23">
     <path d="M 318.259063 292.726187 
L 328.259063 292.726187 
L 338.259063 292.726187 
" style="fill: none; stroke: #8c564b; stroke-width: 1.5; stroke-linecap: square"/>
    </g>
    <g id="text_20">
     <!-- test_class1 -->
     <g transform="translate(346.259063 296.226187) scale(0.1 -0.1)">
      <use xlink:href="#DejaVuSans-74"/>
      <use xlink:href="#DejaVuSans-65" transform="translate(39.208984 0)"/>
      <use xlink:href="#DejaVuSans-73" transform="translate(100.732422 0)"/>
      <use xlink:href="#DejaVuSans-74" transform="translate(152.832031 0)"/>
      <use xlink:href="#DejaVuSans-5f" transform="translate(192.041016 0)"/>
      <use xlink:href="#DejaVuSans-63" transform="translate(242.041016 0)"/>
      <use xlink:href="#DejaVuSans-6c" transform="translate(297.021484 0)"/>
      <use xlink:href="#DejaVuSans-61" transform="translate(324.804688 0)"/>
      <use xlink:href="#DejaVuSans-73" transform="translate(386.083984 0)"/>
      <use xlink:href="#DejaVuSans-73" transform="translate(438.183594 0)"/>
      <use xlink:href="#DejaVuSans-31" transform="translate(490.283203 0)"/>
     </g>
    </g>
   </g>
   <g id="line2d_24">
    <path d="M 73.832727 176.577883 
L 74.482036 102.954392 
L 75.780655 102.954392 
L 76.429964 66.510771 
L 77.728582 102.954392 
L 78.377891 132.771897 
L 79.0272 92.647104 
L 79.676509 101.48192 
L 80.325818 137.189316 
L 80.975127 71.664393 
L 81.624436 100.377559 
L 82.273745 138.293654 
L 82.923055 102.218145 
L 83.572364 81.971681 
L 84.221673 100.377559 
L 84.870982 136.821181 
L 85.520291 131.54484 
L 86.1696 130.563199 
L 86.818909 101.113807 
L 87.468218 124.182497 
L 88.117527 106.880979 
L 88.766836 107.739924 
L 89.416145 134.24437 
L 90.065455 127.372837 
L 90.714764 138.170979 
L 91.364073 138.293676 
L 92.013382 140.379655 
L 92.662691 148.600942 
L 93.312 130.440502 
L 93.961309 136.575787 
L 94.610618 138.170957 
L 95.259927 165.166235 
L 95.909236 153.631911 
L 96.558545 113.261681 
L 97.207855 163.939177 
L 97.857164 111.543792 
L 98.506473 118.04719 
L 99.155782 132.281087 
L 99.805091 176.455164 
L 100.4544 204.063981 
L 101.103709 174.246466 
L 101.753018 126.268499 
L 102.402327 175.841657 
L 103.051636 188.725735 
L 103.700945 155.717891 
L 104.350255 164.429987 
L 104.999564 160.135309 
L 105.648873 122.341912 
L 106.298182 122.587328 
L 106.947491 167.743068 
L 107.5968 169.829069 
L 108.246109 127.863669 
L 108.895418 131.912953 
L 109.544727 180.136335 
L 110.194036 175.473545 
L 110.843345 137.680125 
L 111.492655 134.121673 
L 112.141964 140.993184 
L 112.791273 176.70058 
L 113.440582 148.600964 
L 114.089891 137.066619 
L 114.7392 182.222348 
L 116.037818 172.40588 
L 116.687127 177.436827 
L 117.336436 151.54591 
L 117.985745 180.995291 
L 118.635055 153.754608 
L 119.284364 154.981665 
L 119.933673 203.818587 
L 120.582982 203.695869 
L 121.232291 199.891989 
L 121.8816 201.732564 
L 122.530909 200.873631 
L 123.180218 206.149972 
L 123.829527 181.60883 
L 124.478836 178.050356 
L 125.128145 201.241743 
L 125.777455 203.941284 
L 126.426764 202.223407 
L 127.076073 201.977991 
L 127.725382 194.370233 
L 128.374691 202.468811 
L 129.024 205.291038 
L 129.673309 188.234947 
L 130.322618 204.432105 
L 130.971927 207.008938 
L 131.621236 218.543283 
L 132.270545 237.194566 
L 132.919855 203.941284 
L 133.569164 203.082329 
L 134.218473 201.732564 
L 134.867782 196.947044 
L 135.517091 203.205026 
L 136.1664 201.364451 
L 136.815709 204.554802 
L 137.465018 224.923974 
L 138.114327 207.499737 
L 138.763636 205.536443 
L 139.412945 207.008916 
L 140.062255 207.254332 
L 140.711564 205.045644 
L 141.360873 207.622456 
L 142.010182 207.86786 
L 142.659491 227.623514 
L 143.3088 203.695869 
L 143.958109 206.640803 
L 144.607418 206.7635 
L 145.256727 227.378099 
L 145.906036 207.990557 
L 146.555345 207.499737 
L 147.204655 209.46303 
L 147.853964 208.604097 
L 148.503273 208.235973 
L 149.152582 210.56739 
L 149.801891 238.789736 
L 150.4512 208.97221 
L 151.100509 207.37704 
L 151.749818 211.426324 
L 152.399127 236.581038 
L 153.697745 245.415853 
L 154.347055 237.930803 
L 154.996364 210.076581 
L 155.645673 208.235995 
L 156.294982 209.46303 
L 156.944291 226.641862 
L 157.5936 240.630322 
L 158.242909 238.421612 
L 158.892218 204.554802 
L 159.541527 186.762463 
L 160.190836 235.108554 
L 160.840145 241.121142 
L 161.489455 240.016793 
L 162.138764 236.212914 
L 162.788073 230.568449 
L 163.437382 231.304686 
L 164.086691 224.187737 
L 164.736 235.84479 
L 165.385309 192.038815 
L 166.034618 224.06504 
L 166.683927 235.108554 
L 167.333236 224.187737 
L 167.982545 227.378088 
L 168.631855 244.311493 
L 169.281164 240.26222 
L 169.930473 230.200326 
L 170.579782 246.520213 
L 171.229091 247.992675 
L 171.8784 228.114346 
L 172.527709 219.893037 
L 173.826327 257.072906 
L 174.475636 240.630322 
L 175.124945 215.598327 
L 175.774255 253.146319 
L 176.423564 240.998445 
L 177.072873 242.593615 
L 177.722182 249.34244 
L 178.371491 238.298915 
L 179.0208 233.267979 
L 179.670109 238.421634 
L 180.319418 242.102806 
L 180.968727 237.194566 
L 181.618036 241.366569 
L 182.267345 231.795517 
L 182.916655 240.384917 
L 183.565964 241.611974 
L 184.215273 245.415853 
L 184.864582 243.084436 
L 185.513891 242.839031 
L 186.1632 250.814902 
L 186.812509 248.851608 
L 187.461818 237.194566 
L 188.111127 251.796565 
L 188.760436 233.636103 
L 189.409745 232.65444 
L 190.059055 248.360788 
L 190.708364 248.238091 
L 191.357673 249.710564 
L 192.006982 235.599385 
L 192.656291 242.470907 
L 193.3056 244.188785 
L 193.954909 238.544331 
L 194.604218 247.501854 
L 195.253527 230.936562 
L 195.902836 239.525983 
L 196.552145 240.262209 
L 197.201455 237.930803 
L 197.850764 230.323022 
L 198.500073 237.562668 
L 199.149382 239.771388 
L 199.798691 235.108565 
L 200.448 232.531743 
L 201.097309 239.035152 
L 201.746618 239.280568 
L 202.395927 238.912455 
L 203.045236 231.672798 
L 203.694545 230.323033 
L 204.343855 242.961728 
L 204.993164 238.544331 
L 205.642473 235.108554 
L 206.291782 225.905626 
L 206.941091 241.489277 
L 207.5904 240.384917 
L 208.239709 232.899855 
L 208.889018 233.636103 
L 209.538327 227.746211 
L 210.187636 233.267968 
L 210.836945 235.353981 
L 211.486255 239.035152 
L 212.135564 237.071847 
L 212.784873 234.740452 
L 213.434182 239.525983 
L 214.083491 234.985857 
L 214.7328 244.066088 
L 215.382109 248.606204 
L 216.031418 233.267979 
L 216.680727 233.7588 
L 217.330036 242.348199 
L 217.979345 240.262209 
L 218.628655 234.617733 
L 219.277964 234.372328 
L 219.927273 235.599385 
L 220.576582 240.75303 
L 221.225891 240.998445 
L 221.8752 239.15786 
L 222.524509 239.64868 
L 223.173818 237.439971 
L 224.472436 237.685387 
L 225.121745 233.7588 
L 225.771055 245.170448 
L 226.420364 242.716334 
L 227.069673 237.808084 
L 227.718982 237.808095 
L 228.368291 237.685387 
L 229.0176 236.703735 
L 229.666909 236.949161 
L 230.316218 237.685387 
L 230.965527 244.802314 
L 231.614836 240.384917 
L 232.264145 239.280557 
L 232.913455 247.379147 
L 233.562764 233.022574 
L 234.212073 235.967509 
L 234.861382 235.108554 
L 235.510691 241.121153 
L 236.16 243.575256 
L 236.809309 229.095976 
L 237.458618 235.108554 
L 238.107927 234.740452 
L 238.757236 235.108554 
L 239.406545 240.016782 
L 240.055855 235.353992 
L 240.705164 235.967509 
L 241.354473 234.985857 
L 242.653091 228.114324 
L 243.3024 230.936562 
L 243.951709 234.372328 
L 244.601018 235.476678 
L 245.250327 237.808106 
L 245.899636 251.428441 
L 246.548945 246.152089 
L 247.198255 237.685387 
L 247.847564 233.022552 
L 249.146182 248.974327 
L 249.795491 241.121142 
L 251.094109 241.857401 
L 251.743418 244.925032 
L 252.392727 242.839031 
L 253.042036 226.151031 
L 253.691345 232.163619 
L 254.340655 241.611974 
L 255.639273 230.56846 
L 256.288582 236.212914 
L 256.937891 246.520202 
L 257.5872 253.759848 
L 258.236509 250.201373 
L 259.535127 241.734682 
L 260.184436 235.476689 
L 260.833745 237.808084 
L 261.483055 241.243861 
L 262.132364 235.231262 
L 262.781673 236.581049 
L 263.430982 245.783977 
L 264.7296 243.943391 
L 265.378909 236.826443 
L 266.028218 239.894096 
L 266.677527 237.071847 
L 267.326836 237.808095 
L 267.976145 242.961728 
L 268.625455 240.139501 
L 269.274764 233.513395 
L 269.924073 238.667028 
L 270.573382 251.060318 
L 271.872 240.875737 
L 272.521309 237.194566 
L 273.170618 239.035141 
L 273.819927 240.26222 
L 274.469236 250.93761 
L 275.118545 240.26222 
L 275.767855 234.372328 
L 276.417164 230.568449 
L 277.066473 230.568438 
L 277.715782 240.630322 
L 278.365091 238.298904 
L 279.0144 234.985857 
L 279.663709 236.703735 
L 280.313018 239.403265 
L 280.962327 230.813854 
L 281.611636 237.439971 
L 282.260945 240.75303 
L 282.910255 239.403287 
L 283.559564 237.685387 
L 284.208873 233.267979 
L 284.858182 239.771388 
L 285.507491 227.991627 
L 286.1568 228.35974 
L 286.806109 229.832224 
L 287.455418 225.04667 
L 288.104727 212.16256 
L 288.754036 232.899855 
L 289.403345 239.771388 
L 290.052655 236.45833 
L 290.701964 237.194566 
L 291.351273 242.716323 
L 292.000582 236.826443 
L 292.649891 245.661269 
L 293.2992 236.335611 
L 293.948509 237.930803 
L 294.597818 240.75303 
L 295.247127 230.936562 
L 295.896436 222.96068 
L 296.545745 225.04667 
L 297.195055 230.813865 
L 297.844364 238.298904 
L 298.493673 221.733623 
L 299.142982 234.740441 
L 299.792291 228.114335 
L 300.4416 218.66598 
L 301.090909 237.194566 
L 301.740218 238.298915 
L 302.389527 237.808095 
L 303.038836 232.163619 
L 303.688145 243.697975 
L 304.337455 237.930803 
L 304.986764 221.733623 
L 305.636073 229.4641 
L 306.285382 241.611974 
L 306.934691 223.942332 
L 307.584 227.868908 
L 308.233309 244.311515 
L 308.882618 231.304686 
L 309.531927 225.414794 
L 310.181236 226.887278 
L 310.830545 233.7588 
L 311.479855 232.286338 
L 312.129164 227.991627 
L 312.778473 228.727853 
L 313.427782 237.56269 
L 314.077091 239.771388 
L 314.7264 236.45833 
L 315.375709 228.237043 
L 316.025018 242.961739 
L 316.674327 236.212914 
L 317.323636 223.942332 
L 318.622255 239.771388 
L 319.271564 223.206096 
L 319.920873 242.348199 
L 320.570182 234.863149 
L 321.219491 235.35397 
L 322.518109 248.238091 
L 323.167418 227.623503 
L 323.816727 214.862112 
L 324.466036 231.304686 
L 325.115345 242.470918 
L 325.764655 237.194577 
L 326.413964 222.96068 
L 327.063273 234.249631 
L 327.712582 226.519165 
L 328.361891 235.108565 
L 329.0112 222.469859 
L 329.660509 235.722093 
L 330.309818 232.409046 
L 330.959127 227.991605 
L 331.608436 228.482448 
L 332.257745 234.617744 
L 332.907055 246.029382 
L 333.556364 232.409035 
L 334.205673 213.635055 
L 334.854982 215.230214 
L 336.1536 241.980087 
L 336.802909 228.114335 
L 337.452218 235.967509 
L 338.101527 239.64868 
L 338.750836 240.384917 
L 339.400145 237.562679 
L 340.049455 235.599396 
L 340.698764 237.930803 
L 341.348073 231.672798 
L 341.997382 241.611974 
L 342.646691 241.121142 
L 343.296 234.985857 
L 343.945309 241.611974 
L 344.594618 235.967509 
L 345.243927 222.837983 
L 345.893236 229.709494 
L 346.542545 237.930803 
L 347.191855 234.372328 
L 347.841164 228.114324 
L 348.490473 227.623503 
L 349.139782 237.808073 
L 349.789091 238.789725 
L 350.4384 229.095965 
L 351.087709 214.739404 
L 351.737018 225.046703 
L 352.386327 230.323033 
L 353.035636 241.121153 
L 353.684945 224.310445 
L 354.334255 224.433142 
L 354.983564 240.507625 
L 355.632873 248.606204 
L 356.282182 226.519143 
L 356.931491 225.414794 
L 357.5808 227.255391 
L 358.230109 220.874679 
L 358.879418 225.414805 
L 359.528727 223.206107 
L 360.178036 233.022563 
L 360.827345 229.586797 
L 361.476655 242.716323 
L 362.125964 230.936562 
L 362.775273 224.923984 
L 363.424582 236.581027 
L 364.073891 237.685376 
L 364.7232 241.24385 
L 365.372509 229.341392 
L 366.021818 233.267968 
L 366.671127 228.605145 
L 367.320436 225.782918 
L 367.969745 232.531743 
L 368.619055 222.224455 
L 369.268364 222.347151 
L 369.917673 227.500818 
L 370.566982 249.955969 
L 371.216291 231.05927 
L 371.8656 232.163608 
L 372.514909 234.372328 
L 373.164218 226.764559 
L 373.813527 212.776089 
L 374.462836 213.26692 
L 375.112145 233.145271 
L 375.761455 248.851619 
L 376.410764 239.157849 
L 377.060073 238.789736 
L 377.709382 231.059259 
L 378.358691 228.727864 
L 379.008 224.801277 
L 379.657309 224.187748 
L 380.306618 233.881497 
L 380.955927 223.451512 
L 381.605236 225.1694 
L 382.254545 226.396457 
L 382.903855 228.727864 
L 383.553164 213.389628 
L 384.202473 223.942343 
L 384.851782 216.457282 
L 385.501091 240.139501 
L 386.1504 236.090217 
L 386.799709 230.200336 
L 387.449018 233.145271 
L 388.098327 231.427394 
L 388.747636 224.187748 
L 389.396945 221.488218 
L 390.046255 232.899866 
L 390.695564 232.531732 
L 391.344873 232.531754 
L 391.994182 226.764581 
L 392.643491 226.151031 
L 393.2928 231.181989 
L 393.942109 228.237043 
L 394.591418 236.335622 
L 395.240727 234.126924 
L 395.890036 232.899866 
L 396.539345 225.905626 
L 397.188655 237.194566 
L 397.837964 232.899855 
L 398.487273 230.568449 
L 398.487273 230.568449 
" clip-path="url(#pe29ec3df5b)" style="fill: none; stroke: #9467bd; stroke-width: 1.5; stroke-linecap: square"/>
   </g>
   <g id="line2d_25">
    <path d="M 73.832727 139.766127 
L 74.482036 250.201373 
L 75.780655 250.201373 
L 76.429964 285.540657 
L 77.079273 263.453607 
L 77.728582 250.569497 
L 78.377891 221.856331 
L 79.0272 258.299963 
L 79.676509 250.569497 
L 80.325818 217.438923 
L 80.975127 279.282658 
L 81.624436 251.673846 
L 82.273745 218.17516 
L 82.923055 254.250679 
L 83.572364 268.97537 
L 84.221673 253.146319 
L 84.870982 218.17516 
L 85.520291 221.856331 
L 86.1696 222.592567 
L 86.818909 252.410094 
L 87.468218 226.641862 
L 88.117527 252.041959 
L 88.766836 254.250679 
L 89.416145 220.751993 
L 90.065455 223.696927 
L 90.714764 219.27952 
L 91.364073 221.856331 
L 92.013382 220.383869 
L 92.662691 220.383869 
L 93.312 222.960691 
L 93.961309 220.383869 
L 94.610618 218.543272 
L 95.259927 220.383869 
L 95.909236 218.543283 
L 96.558545 252.410094 
L 97.207855 216.702687 
L 97.857164 254.618792 
L 98.506473 254.250679 
L 99.155782 257.195614 
L 100.4544 184.676473 
L 101.103709 197.928696 
L 101.753018 254.618792 
L 102.402327 200.505518 
L 103.051636 186.517058 
L 103.700945 220.383869 
L 104.350255 220.383869 
L 104.999564 223.696916 
L 105.648873 254.618792 
L 106.298182 237.685387 
L 106.947491 200.873653 
L 107.5968 222.224455 
L 108.246109 253.146319 
L 108.895418 254.618792 
L 109.544727 218.911396 
L 110.194036 220.751993 
L 110.843345 254.250679 
L 112.141964 254.250679 
L 112.791273 219.647632 
L 113.440582 254.250679 
L 114.089891 254.250679 
L 114.7392 218.543283 
L 115.388509 219.034115 
L 116.037818 205.781881 
L 116.687127 225.1694 
L 117.336436 254.618792 
L 117.985745 220.751993 
L 118.635055 223.819635 
L 119.284364 257.563727 
L 119.933673 220.383869 
L 120.582982 217.807047 
L 121.232291 219.279509 
L 121.8816 221.488229 
L 122.530909 216.57999 
L 123.180218 200.873653 
L 123.829527 211.426335 
L 124.478836 228.973268 
L 125.128145 220.015734 
L 125.777455 214.493988 
L 126.426764 221.488229 
L 127.076073 219.647632 
L 127.725382 222.592578 
L 128.374691 220.751993 
L 129.024 220.751993 
L 129.673309 226.641862 
L 130.322618 219.647632 
L 130.971927 216.334563 
L 131.621236 204.554824 
L 132.270545 183.572113 
L 132.919855 221.120094 
L 133.569164 217.807036 
L 134.218473 218.17516 
L 134.867782 224.801277 
L 135.517091 218.911396 
L 136.1664 221.856331 
L 136.815709 218.17516 
L 137.465018 192.775052 
L 138.114327 213.512347 
L 138.763636 215.230225 
L 139.412945 214.616696 
L 140.062255 216.580001 
L 140.711564 212.653392 
L 141.360873 217.07081 
L 142.010182 216.334574 
L 142.659491 193.879412 
L 143.3088 218.911396 
L 143.958109 216.211866 
L 144.607418 216.334574 
L 145.256727 196.456223 
L 145.906036 213.389628 
L 146.555345 212.653392 
L 147.204655 210.690109 
L 147.853964 211.058233 
L 148.503273 217.07081 
L 149.152582 213.144234 
L 149.801891 181.363414 
L 150.4512 212.530695 
L 151.100509 215.475641 
L 151.749818 208.235995 
L 152.399127 186.148946 
L 153.697745 172.528599 
L 154.347055 170.688013 
L 154.996364 208.604097 
L 155.645673 205.659184 
L 156.294982 205.904589 
L 156.944291 194.492929 
L 157.5936 178.173064 
L 158.242909 185.535406 
L 158.892218 218.052452 
L 159.541527 235.108565 
L 160.190836 186.271643 
L 160.840145 183.940247 
L 161.489455 183.204011 
L 162.138764 180.995291 
L 162.788073 189.584701 
L 163.437382 184.185652 
L 164.086691 188.971184 
L 164.736 187.621419 
L 165.385309 217.438923 
L 166.034618 190.811758 
L 166.683927 186.394362 
L 167.333236 197.192481 
L 167.982545 184.308371 
L 168.631855 148.478245 
L 169.281164 167.497652 
L 169.930473 190.566353 
L 170.579782 170.197182 
L 171.229091 167.129539 
L 171.8784 178.418458 
L 172.527709 179.768245 
L 173.177018 176.087051 
L 173.826327 133.753538 
L 174.475636 155.104362 
L 175.124945 171.669655 
L 175.774255 117.679077 
L 176.423564 127.004724 
L 177.072873 149.214493 
L 177.722182 140.256958 
L 178.371491 144.183545 
L 179.0208 141.85215 
L 179.670109 128.477219 
L 180.319418 133.262729 
L 180.968727 134.244392 
L 181.618036 142.588376 
L 182.267345 138.170979 
L 182.916655 136.084956 
L 183.565964 158.662836 
L 184.215273 142.95651 
L 184.864582 150.073437 
L 185.513891 124.182497 
L 186.1632 127.004724 
L 186.812509 123.937082 
L 187.461818 137.434731 
L 188.111127 136.330371 
L 188.760436 160.748816 
L 189.409745 147.496626 
L 190.059055 137.55745 
L 190.708364 119.642382 
L 191.357673 116.574739 
L 192.006982 135.34873 
L 192.656291 132.158368 
L 193.3056 147.373907 
L 193.954909 129.458839 
L 194.604218 119.887798 
L 195.253527 173.632937 
L 195.902836 129.94967 
L 196.552145 123.44625 
L 197.201455 132.035693 
L 197.850764 162.344008 
L 198.500073 129.94967 
L 199.149382 123.691666 
L 199.798691 137.189316 
L 200.448 144.551658 
L 201.097309 119.519663 
L 201.746618 121.728361 
L 202.395927 122.341912 
L 203.045236 135.716821 
L 203.694545 133.508144 
L 204.343855 122.096496 
L 204.993164 124.673307 
L 205.642473 143.447298 
L 206.291782 130.440458 
L 206.941091 123.691688 
L 207.5904 148.232829 
L 208.239709 127.25014 
L 208.889018 127.004702 
L 209.538327 141.361297 
L 210.187636 125.65497 
L 210.836945 126.391196 
L 211.486255 125.777667 
L 212.135564 115.838492 
L 212.784873 123.937082 
L 213.434182 114.734154 
L 214.083491 123.323553 
L 214.7328 120.869439 
L 215.382109 110.316735 
L 216.031418 121.482967 
L 216.680727 123.691688 
L 217.979345 118.415303 
L 218.628655 129.581557 
L 219.277964 130.195064 
L 219.927273 132.771897 
L 220.576582 125.164139 
L 221.225891 114.488716 
L 221.8752 113.997928 
L 222.524509 117.55638 
L 223.173818 115.961211 
L 223.823127 120.010517 
L 224.472436 116.574739 
L 225.121745 120.133213 
L 225.771055 110.930263 
L 226.420364 116.083908 
L 227.069673 123.568991 
L 227.718982 117.801796 
L 228.368291 123.44625 
L 229.0176 130.317783 
L 229.666909 128.354478 
L 230.316218 119.274247 
L 230.965527 116.697436 
L 231.614836 118.538022 
L 232.264145 116.45202 
L 232.913455 117.679077 
L 233.562764 125.041442 
L 234.212073 118.783438 
L 234.861382 123.323553 
L 235.510691 122.341912 
L 236.16 115.961211 
L 236.809309 128.231781 
L 237.458618 119.15155 
L 238.107927 121.973799 
L 238.757236 127.618253 
L 239.406545 122.587306 
L 240.055855 130.317761 
L 240.705164 124.918745 
L 241.354473 124.182497 
L 242.003782 122.219193 
L 242.653091 133.385426 
L 243.3024 135.225989 
L 243.951709 126.023105 
L 244.601018 123.568969 
L 245.250327 121.973777 
L 245.899636 110.930242 
L 246.548945 120.010495 
L 247.198255 125.777667 
L 247.847564 133.630841 
L 248.496873 120.378607 
L 249.146182 111.05296 
L 249.795491 119.028853 
L 250.4448 115.961211 
L 251.094109 112.280017 
L 251.743418 119.274269 
L 252.392727 115.593076 
L 253.042036 137.312013 
L 253.691345 127.372837 
L 254.340655 111.666489 
L 254.989964 126.63659 
L 255.639273 128.231759 
L 256.288582 123.568969 
L 256.937891 112.893546 
L 257.5872 105.776619 
L 258.236509 106.635564 
L 259.535127 118.292584 
L 260.184436 117.924493 
L 260.833745 114.243322 
L 261.483055 116.697436 
L 262.132364 120.378607 
L 262.781673 117.065527 
L 263.430982 111.789208 
L 264.080291 113.138962 
L 264.7296 116.083886 
L 265.378909 118.292628 
L 266.028218 113.507075 
L 266.677527 126.636612 
L 267.326836 118.415325 
L 267.976145 119.519663 
L 268.625455 117.679077 
L 269.274764 123.937082 
L 269.924073 121.237552 
L 270.573382 110.194038 
L 271.222691 109.9486 
L 271.872 113.261659 
L 272.521309 120.624001 
L 273.170618 121.605664 
L 273.819927 119.887798 
L 274.469236 110.807545 
L 275.118545 122.464631 
L 275.767855 119.64236 
L 276.417164 120.624001 
L 277.066473 130.195064 
L 277.715782 110.684848 
L 278.365091 114.120625 
L 279.0144 122.219193 
L 279.663709 110.807545 
L 280.313018 113.261659 
L 280.962327 121.114855 
L 281.611636 118.538022 
L 282.260945 113.997884 
L 282.910255 124.918745 
L 283.559564 116.697436 
L 284.208873 122.219193 
L 284.858182 118.783438 
L 285.507491 126.145802 
L 286.1568 123.44625 
L 286.806109 130.563199 
L 287.455418 128.477197 
L 288.104727 144.919793 
L 288.754036 123.323531 
L 289.403345 116.206626 
L 290.052655 123.691666 
L 290.701964 115.838492 
L 291.351273 110.439454 
L 292.000582 116.574739 
L 292.649891 107.494508 
L 293.2992 117.679077 
L 293.948509 119.887798 
L 294.597818 116.329323 
L 295.247127 126.63659 
L 295.896436 132.158368 
L 296.545745 132.403784 
L 297.195055 122.587328 
L 297.844364 117.924493 
L 298.493673 132.526481 
L 299.142982 125.654926 
L 299.792291 133.876235 
L 300.4416 140.502352 
L 301.090909 124.427891 
L 301.740218 117.801796 
L 303.038836 124.427891 
L 303.688145 115.715795 
L 304.337455 116.329323 
L 304.986764 137.43471 
L 305.636073 128.722613 
L 306.285382 110.071319 
L 306.934691 128.231781 
L 307.584 126.391196 
L 308.233309 107.98534 
L 308.882618 120.74672 
L 309.531927 129.704254 
L 310.181236 129.213423 
L 310.830545 123.691666 
L 311.479855 122.341912 
L 312.129164 134.489786 
L 312.778473 131.544818 
L 313.427782 120.378607 
L 314.077091 114.366019 
L 314.7264 126.513893 
L 315.375709 130.317761 
L 316.025018 113.507096 
L 316.674327 127.372859 
L 317.323636 137.802844 
L 317.972945 124.182497 
L 318.622255 117.433662 
L 319.271564 136.453068 
L 319.920873 113.75249 
L 320.570182 117.924493 
L 321.219491 120.010495 
L 321.8688 119.642382 
L 322.518109 107.494486 
L 323.167418 131.422121 
L 323.816727 142.588354 
L 324.466036 124.427913 
L 325.115345 119.15155 
L 325.764655 118.292584 
L 326.413964 128.109084 
L 327.063273 121.605664 
L 327.712582 131.912953 
L 328.361891 133.753538 
L 329.0112 139.520733 
L 329.660509 127.863647 
L 330.309818 131.790234 
L 330.959127 133.998954 
L 331.608436 128.231803 
L 332.257745 117.065549 
L 332.907055 111.666511 
L 334.205673 139.398014 
L 334.854982 144.060827 
L 336.1536 117.065549 
L 336.802909 128.599916 
L 337.452218 122.710025 
L 338.750836 117.924493 
L 339.400145 122.219193 
L 340.049455 124.059779 
L 340.698764 123.200834 
L 341.348073 120.624023 
L 341.997382 115.961189 
L 342.646691 123.937082 
L 343.296 119.642382 
L 343.945309 117.433684 
L 344.594618 118.04719 
L 345.243927 136.207652 
L 346.542545 118.415325 
L 347.191855 118.783438 
L 348.490473 135.471427 
L 349.139782 118.292606 
L 349.789091 121.360249 
L 350.4384 128.84531 
L 351.087709 141.85215 
L 351.737018 131.54484 
L 352.386327 129.336142 
L 353.035636 118.415325 
L 353.684945 129.213423 
L 354.334255 136.084956 
L 354.983564 118.906134 
L 355.632873 113.629793 
L 356.282182 129.704254 
L 356.931491 132.771897 
L 357.5808 127.25014 
L 358.230109 139.64343 
L 358.879418 142.465657 
L 359.528727 141.852128 
L 360.178036 129.090704 
L 360.827345 124.673307 
L 361.476655 115.961211 
L 362.125964 129.949648 
L 362.775273 130.808614 
L 363.424582 116.45202 
L 364.073891 124.305172 
L 364.7232 118.783438 
L 365.372509 131.054008 
L 366.021818 123.814363 
L 366.671127 131.299424 
L 367.320436 133.508122 
L 367.969745 131.912953 
L 368.619055 132.281087 
L 369.268364 136.821181 
L 369.917673 140.256936 
L 370.566982 115.715773 
L 371.216291 129.33612 
L 371.8656 122.710025 
L 372.514909 125.777667 
L 373.813527 144.183545 
L 374.462836 141.483993 
L 375.112145 123.323553 
L 375.761455 110.562151 
L 376.410764 118.04719 
L 377.060073 115.102244 
L 377.709382 125.164139 
L 378.358691 130.440502 
L 379.008 130.44048 
L 379.657309 130.072367 
L 380.306618 125.041442 
L 380.955927 130.563199 
L 381.605236 124.673307 
L 382.254545 131.422143 
L 382.903855 123.937082 
L 383.553164 147.005772 
L 384.202473 138.416351 
L 384.851782 139.029901 
L 385.501091 119.274247 
L 386.1504 130.685896 
L 386.799709 127.127443 
L 387.449018 129.213423 
L 388.098327 127.986366 
L 388.747636 136.084956 
L 389.396945 133.508122 
L 390.046255 126.268499 
L 390.695564 126.513893 
L 391.344873 127.495556 
L 391.994182 134.24437 
L 392.643491 129.704254 
L 393.2928 123.200834 
L 393.942109 130.563199 
L 394.591418 121.728361 
L 395.240727 125.164139 
L 395.890036 126.759287 
L 396.539345 131.299424 
L 397.188655 125.777645 
L 397.837964 126.882005 
L 398.487273 129.826951 
L 398.487273 129.826951 
" clip-path="url(#pe29ec3df5b)" style="fill: none; stroke: #8c564b; stroke-width: 1.5; stroke-linecap: square"/>
   </g>
  </g>
 </g>
 <defs>
  <clipPath id="pe29ec3df5b">
   <rect x="57.6" y="41.472" width="357.12" height="266.112"/>
  </clipPath>
 </defs>
</svg>
