<?xml version="1.0" encoding="utf-8" standalone="no"?>
<!DOCTYPE svg PUBLIC "-//W3C//DTD SVG 1.1//EN"
  "http://www.w3.org/Graphics/SVG/1.1/DTD/svg11.dtd">
<svg xmlns:xlink="http://www.w3.org/1999/xlink" width="460.8pt" height="345.6pt" viewBox="0 0 460.8 345.6" xmlns="http://www.w3.org/2000/svg" version="1.1">
 <metadata>
  <rdf:RDF xmlns:dc="http://purl.org/dc/elements/1.1/" xmlns:cc="http://creativecommons.org/ns#" xmlns:rdf="http://www.w3.org/1999/02/22-rdf-syntax-ns#">
   <cc:Work>
    <dc:type rdf:resource="http://purl.org/dc/dcmitype/StillImage"/>
    <dc:date>2026-03-19T23:13:45.102951</dc:date>
    <dc:format>image/svg+xml</dc:format>
    <dc:creator>
     <cc:Agent>
      <dc:title>Matplotlib v3.10.8, https://matplotlib.org/</dc:title>
     </cc:Agent>
    </dc:creator>
   </cc:Work>
  </rdf:RDF>
 </metadata>
 <defs>
  <style type="text/css">*{stroke-linejoin: round; stroke-linecap: butt}</style>
 </defs>
 <g id="figure_1">
  <g id="patch_1">
   <path d="M 0 345.6 
L 460.8 345.6 
L 460.8 0 
L 0 0 
z
" style="fill: #ffffff"/>
  </g>
  <g id="axes_1">
   <g id="patch_2">
    <path d="M 57.6 307.584 
L 414.72 307.584 
L 414.72 41.472 
L 57.6 41.472 
z
" style="fill: #ffffff"/>
   </g>
   <g id="matplotlib.axis_1">
    <g id="xtick_1">
     <g id="line2d_1">
      <defs>
       <path id="md5cdcc9030" d="M 0 0 
L 0 3.5 
" style="stroke: #000000; stroke-width: 0.8"/>
      </defs>
      <g>
       <use xlink:href="#md5cdcc9030" x="73.832727" y="307.584" style="stroke: #000000; stroke-width: 0.8"/>
      </g>
     </g>
     <g id="text_1">
      <!-- 0 -->
      <g transform="translate(70.651477 322.182437) scale(0.1 -0.1)">
       <defs>
        <path id="DejaVuSans-30" d="M 2034 4250 
Q 1547 4250 1301 3770 
Q 1056 3291 1056 2328 
Q 1056 1369 1301 889 
Q 1547 409 2034 409 
Q 2525 409 2770 889 
Q 3016 1369 3016 2328 
Q 3016 3291 2770 3770 
Q 2525 4250 2034 4250 
z
M 2034 4750 
Q 2819 4750 3233 4129 
Q 3647 3509 3647 2328 
Q 3647 1150 3233 529 
Q 2819 -91 2034 -91 
Q 1250 -91 836 529 
Q 422 1150 422 2328 
Q 422 3509 836 4129 
Q 1250 4750 2034 4750 
z
" transform="scale(0.015625)"/>
       </defs>
       <use xlink:href="#DejaVuSans-30"/>
      </g>
     </g>
    </g>
    <g id="xtick_2">
     <g id="line2d_2">
      <g>
       <use xlink:href="#md5cdcc9030" x="127.941818" y="307.584" style="stroke: #000000; stroke-width: 0.8"/>
      </g>
     </g>
     <g id="text_2">
      <!-- 50 -->
      <g transform="translate(121.579318 322.182437) scale(0.1 -0.1)">
       <defs>
        <path id="DejaVuSans-35" d="M 691 4666 
L 3169 4666 
L 3169 4134 
L 1269 4134 
L 1269 2991 
Q 1406 3038 1543 3061 
Q 1681 3084 1819 3084 
Q 2600 3084 3056 2656 
Q 3513 2228 3513 1497 
Q 3513 744 3044 326 
Q 2575 -91 1722 -91 
Q 1428 -91 1123 -41 
Q 819 9 494 109 
L 494 744 
Q 775 591 1075 516 
Q 1375 441 1709 441 
Q 2250 441 2565 725 
Q 2881 1009 2881 1497 
Q 2881 1984 2565 2268 
Q 2250 2553 1709 2553 
Q 1456 2553 1204 2497 
Q 953 2441 691 2322 
L 691 4666 
z
" transform="scale(0.015625)"/>
       </defs>
       <use xlink:href="#DejaVuSans-35"/>
       <use xlink:href="#DejaVuSans-30" transform="translate(63.623047 0)"/>
      </g>
     </g>
    </g>
    <g id="xtick_3">
     <g id="line2d_3">
      <g>
       <use xlink:href="#md5cdcc9030" x="182.050909" y="307.584" style="stroke: #000000; stroke-width: 0.8"/>
      </g>
     </g>
     <g id="text_3">
      <!-- 100 -->
      <g transform="translate(172.507159 322.182437) scale(0.1 -0.1)">
       <defs>
        <path id="DejaVuSans-31" d="M 794 531 
L 1825 531 
L 1825 4091 
L 703 3866 
L 703 4441 
L 1819 4666 
L 2450 4666 
L 2450 531 
L 3481 531 
L 3481 0 
L 794 0 
L 794 531 
z
" transform="scale(0.015625)"/>
       </defs>
       <use xlink:href="#DejaVuSans-31"/>
       <use xlink:href="#DejaVuSans-30" transform="translate(63.623047 0)"/>
       <use xlink:href="#DejaVuSans-30" transform="translate(127.246094 0)"/>
      </g>
     </g>
    </g>
    <g id="xtick_4">
     <g id="line2d_4">
      <g>
       <use xlink:href="#md5cdcc9030" x="236.16" y="307.584" style="stroke: #000000; stroke-width: 0.8"/>
      </g>
     </g>
     <g id="text_4">
      <!-- 150 -->
      <g transform="translate(226.61625 322.182437) scale(0.1 -0.1)">
       <use xlink:href="#DejaVuSans-31"/>
       <use xlink:href="#DejaVuSans-35" transform="translate(63.623047 0)"/>
       <use xlink:href="#DejaVuSans-30" transform="translate(127.246094 0)"/>
      </g>
     </g>
    </g>
    <g id="xtick_5">
     <g id="line2d_5">
      <g>
       <use xlink:href="#md5cdcc9030" x="290.269091" y="307.584" style="stroke: #000000; stroke-width: 0.8"/>
      </g>
     </g>
     <g id="text_5">
      <!-- 200 -->
      <g transform="translate(280.725341 322.182437) scale(0.1 -0.1)">
       <defs>
        <path id="DejaVuSans-32" d="M 1228 531 
L 3431 531 
L 3431 0 
L 469 0 
L 469 531 
Q 828 903 1448 1529 
Q 2069 2156 2228 2338 
Q 2531 2678 2651 2914 
Q 2772 3150 2772 3378 
Q 2772 3750 2511 3984 
Q 2250 4219 1831 4219 
Q 1534 4219 1204 4116 
Q 875 4013 500 3803 
L 500 4441 
Q 881 4594 1212 4672 
Q 1544 4750 1819 4750 
Q 2544 4750 2975 4387 
Q 3406 4025 3406 3419 
Q 3406 3131 3298 2873 
Q 3191 2616 2906 2266 
Q 2828 2175 2409 1742 
Q 1991 1309 1228 531 
z
" transform="scale(0.015625)"/>
       </defs>
       <use xlink:href="#DejaVuSans-32"/>
       <use xlink:href="#DejaVuSans-30" transform="translate(63.623047 0)"/>
       <use xlink:href="#DejaVuSans-30" transform="translate(127.246094 0)"/>
      </g>
     </g>
    </g>
    <g id="xtick_6">
     <g id="line2d_6">
      <g>
       <use xlink:href="#md5cdcc9030" x="344.378182" y="307.584" style="stroke: #000000; stroke-width: 0.8"/>
      </g>
     </g>
     <g id="text_6">
      <!-- 250 -->
      <g transform="translate(334.834432 322.182437) scale(0.1 -0.1)">
       <use xlink:href="#DejaVuSans-32"/>
       <use xlink:href="#DejaVuSans-35" transform="translate(63.623047 0)"/>
       <use xlink:href="#DejaVuSans-30" transform="translate(127.246094 0)"/>
      </g>
     </g>
    </g>
    <g id="xtick_7">
     <g id="line2d_7">
      <g>
       <use xlink:href="#md5cdcc9030" x="398.487273" y="307.584" style="stroke: #000000; stroke-width: 0.8"/>
      </g>
     </g>
     <g id="text_7">
      <!-- 300 -->
      <g transform="translate(388.943523 322.182437) scale(0.1 -0.1)">
       <defs>
        <path id="DejaVuSans-33" d="M 2597 2516 
Q 3050 2419 3304 2112 
Q 3559 1806 3559 1356 
Q 3559 666 3084 287 
Q 2609 -91 1734 -91 
Q 1441 -91 1130 -33 
Q 819 25 488 141 
L 488 750 
Q 750 597 1062 519 
Q 1375 441 1716 441 
Q 2309 441 2620 675 
Q 2931 909 2931 1356 
Q 2931 1769 2642 2001 
Q 2353 2234 1838 2234 
L 1294 2234 
L 1294 2753 
L 1863 2753 
Q 2328 2753 2575 2939 
Q 2822 3125 2822 3475 
Q 2822 3834 2567 4026 
Q 2313 4219 1838 4219 
Q 1578 4219 1281 4162 
Q 984 4106 628 3988 
L 628 4550 
Q 988 4650 1302 4700 
Q 1616 4750 1894 4750 
Q 2613 4750 3031 4423 
Q 3450 4097 3450 3541 
Q 3450 3153 3228 2886 
Q 3006 2619 2597 2516 
z
" transform="scale(0.015625)"/>
       </defs>
       <use xlink:href="#DejaVuSans-33"/>
       <use xlink:href="#DejaVuSans-30" transform="translate(63.623047 0)"/>
       <use xlink:href="#DejaVuSans-30" transform="translate(127.246094 0)"/>
      </g>
     </g>
    </g>
   </g>
   <g id="matplotlib.axis_2">
    <g id="ytick_1">
     <g id="line2d_8">
      <defs>
       <path id="m703cd4104f" d="M 0 0 
L -3.5 0 
" style="stroke: #000000; stroke-width: 0.8"/>
      </defs>
      <g>
       <use xlink:href="#m703cd4104f" x="57.6" y="297.037322" style="stroke: #000000; stroke-width: 0.8"/>
      </g>
     </g>
     <g id="text_8">
      <!-- 0.0 -->
      <g transform="translate(34.696875 300.83654) scale(0.1 -0.1)">
       <defs>
        <path id="DejaVuSans-2e" d="M 684 794 
L 1344 794 
L 1344 0 
L 684 0 
L 684 794 
z
" transform="scale(0.015625)"/>
       </defs>
       <use xlink:href="#DejaVuSans-30"/>
       <use xlink:href="#DejaVuSans-2e" transform="translate(63.623047 0)"/>
       <use xlink:href="#DejaVuSans-30" transform="translate(95.410156 0)"/>
      </g>
     </g>
    </g>
    <g id="ytick_2">
     <g id="line2d_9">
      <g>
       <use xlink:href="#m703cd4104f" x="57.6" y="247.986903" style="stroke: #000000; stroke-width: 0.8"/>
      </g>
     </g>
     <g id="text_9">
      <!-- 0.2 -->
      <g transform="translate(34.696875 251.786122) scale(0.1 -0.1)">
       <use xlink:href="#DejaVuSans-30"/>
       <use xlink:href="#DejaVuSans-2e" transform="translate(63.623047 0)"/>
       <use xlink:href="#DejaVuSans-32" transform="translate(95.410156 0)"/>
      </g>
     </g>
    </g>
    <g id="ytick_3">
     <g id="line2d_10">
      <g>
       <use xlink:href="#m703cd4104f" x="57.6" y="198.936484" style="stroke: #000000; stroke-width: 0.8"/>
      </g>
     </g>
     <g id="text_10">
      <!-- 0.4 -->
      <g transform="translate(34.696875 202.735703) scale(0.1 -0.1)">
       <defs>
        <path id="DejaVuSans-34" d="M 2419 4116 
L 825 1625 
L 2419 1625 
L 2419 4116 
z
M 2253 4666 
L 3047 4666 
L 3047 1625 
L 3713 1625 
L 3713 1100 
L 3047 1100 
L 3047 0 
L 2419 0 
L 2419 1100 
L 313 1100 
L 313 1709 
L 2253 4666 
z
" transform="scale(0.015625)"/>
       </defs>
       <use xlink:href="#DejaVuSans-30"/>
       <use xlink:href="#DejaVuSans-2e" transform="translate(63.623047 0)"/>
       <use xlink:href="#DejaVuSans-34" transform="translate(95.410156 0)"/>
      </g>
     </g>
    </g>
    <g id="ytick_4">
     <g id="line2d_11">
      <g>
       <use xlink:href="#m703cd4104f" x="57.6" y="149.886065" style="stroke: #000000; stroke-width: 0.8"/>
      </g>
     </g>
     <g id="text_11">
      <!-- 0.6 -->
      <g transform="translate(34.696875 153.685284) scale(0.1 -0.1)">
       <defs>
        <path id="DejaVuSans-36" d="M 2113 2584 
Q 1688 2584 1439 2293 
Q 1191 2003 1191 1497 
Q 1191 994 1439 701 
Q 1688 409 2113 409 
Q 2538 409 2786 701 
Q 3034 994 3034 1497 
Q 3034 2003 2786 2293 
Q 2538 2584 2113 2584 
z
M 3366 4563 
L 3366 3988 
Q 3128 4100 2886 4159 
Q 2644 4219 2406 4219 
Q 1781 4219 1451 3797 
Q 1122 3375 1075 2522 
Q 1259 2794 1537 2939 
Q 1816 3084 2150 3084 
Q 2853 3084 3261 2657 
Q 3669 2231 3669 1497 
Q 3669 778 3244 343 
Q 2819 -91 2113 -91 
Q 1303 -91 875 529 
Q 447 1150 447 2328 
Q 447 3434 972 4092 
Q 1497 4750 2381 4750 
Q 2619 4750 2861 4703 
Q 3103 4656 3366 4563 
z
" transform="scale(0.015625)"/>
       </defs>
       <use xlink:href="#DejaVuSans-30"/>
       <use xlink:href="#DejaVuSans-2e" transform="translate(63.623047 0)"/>
       <use xlink:href="#DejaVuSans-36" transform="translate(95.410156 0)"/>
      </g>
     </g>
    </g>
    <g id="ytick_5">
     <g id="line2d_12">
      <g>
       <use xlink:href="#m703cd4104f" x="57.6" y="100.835646" style="stroke: #000000; stroke-width: 0.8"/>
      </g>
     </g>
     <g id="text_12">
      <!-- 0.8 -->
      <g transform="translate(34.696875 104.634865) scale(0.1 -0.1)">
       <defs>
        <path id="DejaVuSans-38" d="M 2034 2216 
Q 1584 2216 1326 1975 
Q 1069 1734 1069 1313 
Q 1069 891 1326 650 
Q 1584 409 2034 409 
Q 2484 409 2743 651 
Q 3003 894 3003 1313 
Q 3003 1734 2745 1975 
Q 2488 2216 2034 2216 
z
M 1403 2484 
Q 997 2584 770 2862 
Q 544 3141 544 3541 
Q 544 4100 942 4425 
Q 1341 4750 2034 4750 
Q 2731 4750 3128 4425 
Q 3525 4100 3525 3541 
Q 3525 3141 3298 2862 
Q 3072 2584 2669 2484 
Q 3125 2378 3379 2068 
Q 3634 1759 3634 1313 
Q 3634 634 3220 271 
Q 2806 -91 2034 -91 
Q 1263 -91 848 271 
Q 434 634 434 1313 
Q 434 1759 690 2068 
Q 947 2378 1403 2484 
z
M 1172 3481 
Q 1172 3119 1398 2916 
Q 1625 2713 2034 2713 
Q 2441 2713 2670 2916 
Q 2900 3119 2900 3481 
Q 2900 3844 2670 4047 
Q 2441 4250 2034 4250 
Q 1625 4250 1398 4047 
Q 1172 3844 1172 3481 
z
" transform="scale(0.015625)"/>
       </defs>
       <use xlink:href="#DejaVuSans-30"/>
       <use xlink:href="#DejaVuSans-2e" transform="translate(63.623047 0)"/>
       <use xlink:href="#DejaVuSans-38" transform="translate(95.410156 0)"/>
      </g>
     </g>
    </g>
    <g id="ytick_6">
     <g id="line2d_13">
      <g>
       <use xlink:href="#m703cd4104f" x="57.6" y="51.785227" style="stroke: #000000; stroke-width: 0.8"/>
      </g>
     </g>
     <g id="text_13">
      <!-- 1.0 -->
      <g transform="translate(34.696875 55.584446) scale(0.1 -0.1)">
       <use xlink:href="#DejaVuSans-31"/>
       <use xlink:href="#DejaVuSans-2e" transform="translate(63.623047 0)"/>
       <use xlink:href="#DejaVuSans-30" transform="translate(95.410156 0)"/>
      </g>
     </g>
    </g>
   </g>
   <g id="line2d_14">
    <path d="M 73.832727 164.505816 
L 74.914909 146.071025 
L 75.997091 141.165988 
L 77.079273 141.452124 
L 79.243636 142.473992 
L 80.325818 142.56939 
L 81.408 141.424876 
L 82.490182 140.893506 
L 83.572364 141.751884 
L 84.654545 140.430241 
L 85.736727 142.11975 
L 86.818909 140.212241 
L 87.901091 140.9071 
L 88.983273 139.803473 
L 90.065455 139.966977 
L 91.147636 139.163095 
L 92.229818 141.438485 
L 93.312 140.334858 
L 94.394182 139.517352 
L 95.476364 140.443851 
L 97.640727 138.195709 
L 98.722909 138.468221 
L 99.805091 139.067726 
L 100.887273 138.849725 
L 101.969455 139.01323 
L 103.051636 138.086716 
L 104.133818 140.130496 
L 105.216 137.364593 
L 106.298182 138.059482 
L 107.380364 137.691587 
L 108.462545 138.16846 
L 109.544727 136.65608 
L 110.626909 136.969464 
L 111.709091 139.340223 
L 112.791273 140.253113 
L 113.873455 137.582579 
L 114.955636 138.604476 
L 116.037818 138.345603 
L 117.12 137.214713 
L 118.202182 137.555345 
L 119.284364 137.092081 
L 120.366545 136.042936 
L 121.448727 137.41909 
L 122.530909 137.500834 
L 123.613091 137.446338 
L 125.777455 135.675069 
L 126.859636 135.715942 
L 127.941818 134.59869 
L 129.024 138.113964 
L 130.106182 135.497941 
L 132.270545 135.320813 
L 133.352727 135.061925 
L 134.434909 137.977723 
L 135.517091 137.759722 
L 136.599273 135.484317 
L 137.681455 136.34271 
L 139.845818 134.544179 
L 140.928 134.91206 
L 143.092364 134.585066 
L 144.174545 133.249799 
L 146.338909 134.094568 
L 147.421091 134.775804 
L 148.503273 134.176313 
L 149.585455 135.348061 
L 150.667636 133.454176 
L 151.749818 133.345183 
L 152.832 133.985546 
L 153.914182 135.293579 
L 154.996364 133.059061 
L 156.078545 133.181679 
L 157.160727 131.737419 
L 158.242909 132.391421 
L 159.325091 132.159796 
L 160.407273 133.658552 
L 161.489455 133.059047 
L 162.571636 131.492155 
L 164.736 131.069778 
L 166.900364 131.424034 
L 167.982545 132.17342 
L 169.064727 134.585066 
L 170.146909 129.393893 
L 171.229091 129.462014 
L 172.311273 131.982653 
L 173.393455 130.756408 
L 174.475636 131.124274 
L 175.557818 130.592904 
L 176.64 130.783656 
L 177.722182 130.007023 
L 178.804364 131.546666 
L 179.886545 129.843533 
L 182.050909 138.059467 
L 184.215273 130.810905 
L 185.297455 125.18373 
L 186.379636 123.262596 
L 187.461818 122.30882 
L 188.544 120.905447 
L 189.626182 116.926909 
L 190.708364 115.30552 
L 191.790545 113.41162 
L 192.872727 110.877357 
L 193.954909 111.953751 
L 195.037091 109.119713 
L 196.119273 107.075962 
L 197.201455 106.558201 
L 198.283636 105.522694 
L 199.365818 103.356297 
L 200.448 102.770416 
L 201.530182 100.999147 
L 202.612364 105.20931 
L 203.694545 107.19855 
L 204.776727 103.042898 
L 205.858909 101.775781 
L 206.941091 100.835643 
L 208.023273 97.293136 
L 209.105455 96.24399 
L 210.187636 97.647363 
L 211.269818 95.903358 
L 212.352 95.71262 
L 213.434182 96.4756 
L 214.516364 95.004107 
L 215.598545 98.737381 
L 216.680727 98.233259 
L 217.762909 95.998741 
L 218.845091 94.636211 
L 219.927273 96.393856 
L 221.009455 95.317476 
L 222.091636 96.570998 
L 223.173818 93.546208 
L 224.256 91.229931 
L 225.338182 90.984696 
L 226.420364 90.194438 
L 227.502545 88.859171 
L 228.584727 86.393014 
L 229.666909 88.164297 
L 230.749091 88.014417 
L 231.831273 87.483061 
L 232.913455 87.101527 
L 233.995636 86.992534 
L 235.077818 86.011538 
L 236.16 90.793959 
L 237.242182 91.447931 
L 238.324364 85.84802 
L 240.488727 82.72786 
L 242.653091 85.480139 
L 243.735273 84.458271 
L 244.817455 80.37074 
L 245.899636 79.689475 
L 246.981818 82.155618 
L 248.064 80.942968 
L 249.146182 78.504073 
L 250.228364 81.746865 
L 251.310545 80.179973 
L 253.474909 74.82531 
L 255.639273 78.871969 
L 256.721455 79.839355 
L 257.803636 79.47146 
L 258.885818 76.255931 
L 259.968 77.018941 
L 261.050182 76.010682 
L 262.132364 74.402918 
L 263.214545 78.163456 
L 264.296727 74.907055 
L 265.378909 74.893431 
L 266.461091 72.059407 
L 267.543273 73.817037 
L 268.625455 74.430181 
L 269.707636 73.817037 
L 270.789818 74.811686 
L 271.872 74.757189 
L 272.954182 72.291047 
L 274.036364 72.359167 
L 275.118545 73.367411 
L 276.200727 72.182024 
L 277.282909 72.236521 
L 278.365091 70.192755 
L 279.447273 69.961116 
L 280.529455 69.04827 
L 281.611636 71.50076 
L 282.693818 71.160156 
L 283.776 69.525129 
L 284.858182 72.454536 
L 287.022545 66.800114 
L 288.104727 67.794733 
L 289.186909 68.026358 
L 291.351273 64.783582 
L 292.433455 65.655599 
L 293.515636 64.606468 
L 294.597818 64.333971 
L 295.68 63.584585 
L 296.762182 64.279474 
L 297.844364 65.219598 
L 298.926545 63.516465 
L 300.008727 63.679969 
L 301.090909 63.693578 
L 302.173091 64.64734 
L 303.255273 62.916959 
L 304.337455 62.276567 
L 305.419636 62.467319 
L 306.501818 61.159315 
L 307.584 62.767079 
L 308.666182 62.167559 
L 310.830545 61.745182 
L 311.912727 63.489216 
L 312.994909 62.181183 
L 315.159273 60.450802 
L 316.241455 60.491674 
L 317.323636 61.281932 
L 318.405818 59.905807 
L 319.488 59.619686 
L 320.570182 60.055673 
L 321.652364 58.911158 
L 322.734545 59.946665 
L 323.816727 60.110198 
L 324.898909 60.886803 
L 327.063273 58.952045 
L 328.145455 58.407036 
L 330.309818 58.556902 
L 331.392 57.971035 
L 332.474182 58.325291 
L 333.556364 57.303409 
L 335.720727 57.235273 
L 336.802909 56.703903 
L 338.967273 56.59491 
L 341.131636 56.44503 
L 342.213818 58.311653 
L 343.296 57.507771 
L 344.378182 57.099047 
L 345.460364 57.834794 
L 346.542545 56.99001 
L 347.624727 57.535019 
L 348.706909 57.739395 
L 349.789091 57.180777 
L 350.871273 56.853769 
L 351.953455 56.853769 
L 353.035636 56.267873 
L 354.117818 56.063511 
L 355.2 56.267902 
L 356.282182 55.763765 
L 359.528727 55.191493 
L 360.610909 55.218756 
L 361.693091 55.450396 
L 363.857455 55.504892 
L 364.939636 55.109763 
L 366.021818 55.46402 
L 368.186182 55.150621 
L 369.268364 55.150636 
L 370.350545 54.646514 
L 371.432727 54.932635 
L 372.514909 54.919011 
L 373.597091 54.782755 
L 374.679273 54.85089 
L 375.761455 54.578393 
L 377.925818 54.632889 
L 381.172364 54.619236 
L 382.254545 54.387626 
L 384.418909 54.687386 
L 385.501091 55.041628 
L 388.747636 54.605641 
L 389.829818 54.455746 
L 391.994182 54.578393 
L 393.076364 54.319505 
L 394.158545 54.23776 
L 395.240727 54.592017 
L 396.322909 54.319505 
L 397.405091 54.728273 
L 398.487273 54.278618 
L 398.487273 54.278618 
" clip-path="url(#pa18b5b2c2b)" style="fill: none; stroke: #1f77b4; stroke-width: 1.5; stroke-linecap: square"/>
   </g>
   <g id="line2d_15">
    <path d="M 73.832727 117.141109 
L 74.914909 74.079564 
L 75.997091 66.795918 
L 77.079273 64.030732 
L 78.161455 65.656213 
L 79.243636 64.177556 
L 80.325818 60.742186 
L 81.408 66.168112 
L 82.490182 68.768332 
L 83.572364 75.966258 
L 84.654545 65.358412 
L 85.736727 61.254274 
L 86.818909 66.242898 
L 88.983273 70.525874 
L 90.065455 68.566456 
L 91.147636 68.036956 
L 92.229818 72.461524 
L 93.312 71.344462 
L 94.394182 73.601507 
L 95.476364 73.265464 
L 96.558545 71.573558 
L 97.640727 74.012029 
L 98.722909 74.787127 
L 99.805091 73.488684 
L 100.887273 75.084315 
L 101.969455 74.367645 
L 103.051636 79.349223 
L 104.133818 76.941348 
L 105.216 74.839051 
L 106.298182 77.275987 
L 107.380364 71.133639 
L 108.462545 76.349239 
L 109.544727 69.472738 
L 110.626909 81.765254 
L 111.709091 77.354486 
L 112.791273 79.065484 
L 113.873455 74.94841 
L 114.955636 79.048468 
L 116.037818 72.429101 
L 117.12 78.287651 
L 118.202182 80.07288 
L 119.284364 77.1013 
L 120.366545 82.307354 
L 122.530909 76.609165 
L 123.613091 77.474253 
L 124.695273 80.503429 
L 125.777455 84.17709 
L 126.859636 81.113518 
L 127.941818 78.429185 
L 129.024 78.034348 
L 130.106182 89.516755 
L 131.188364 81.402461 
L 132.270545 83.105798 
L 133.352727 81.800981 
L 134.434909 87.7555 
L 135.517091 88.953853 
L 136.599273 81.323786 
L 137.681455 84.908306 
L 138.763636 81.826709 
L 139.845818 89.013832 
L 140.928 88.806955 
L 142.010182 83.555468 
L 143.092364 89.391565 
L 145.256727 79.60048 
L 146.338909 84.891787 
L 147.421091 82.95051 
L 148.503273 81.621251 
L 149.585455 92.966188 
L 150.667636 86.345154 
L 151.749818 92.84841 
L 152.832 92.906137 
L 153.914182 88.296781 
L 154.996364 80.41993 
L 156.078545 97.363376 
L 157.160727 94.243582 
L 158.242909 87.375939 
L 159.325091 85.354218 
L 160.407273 92.802787 
L 161.489455 90.024648 
L 162.571636 88.078752 
L 163.653818 81.268354 
L 164.736 86.948621 
L 165.818182 89.599216 
L 166.900364 91.438459 
L 167.982545 95.235512 
L 169.064727 93.838893 
L 170.146909 88.950608 
L 171.229091 96.922317 
L 172.311273 87.993425 
L 173.393455 98.691217 
L 174.475636 92.241361 
L 176.64 89.707493 
L 177.722182 90.509723 
L 179.886545 86.684734 
L 180.968727 103.764085 
L 182.050909 87.700287 
L 183.133091 77.561728 
L 184.215273 76.484194 
L 185.297455 78.658397 
L 186.379636 78.414201 
L 187.461818 74.095118 
L 188.544 79.985347 
L 189.626182 83.208491 
L 190.708364 84.970462 
L 191.790545 85.147459 
L 192.872727 86.224744 
L 193.954909 84.049284 
L 195.037091 86.082495 
L 196.119273 86.810567 
L 197.201455 87.840475 
L 198.283636 83.033541 
L 199.365818 82.034404 
L 201.530182 85.155674 
L 202.612364 89.079379 
L 203.694545 84.132958 
L 204.776727 81.840976 
L 205.858909 86.388015 
L 206.941091 77.943364 
L 208.023273 81.309825 
L 209.105455 82.313684 
L 210.187636 85.273804 
L 211.269818 85.269243 
L 212.352 83.625459 
L 213.434182 80.385592 
L 214.516364 79.084137 
L 215.598545 80.954823 
L 216.680727 82.225171 
L 217.762909 79.581768 
L 218.845091 78.524524 
L 219.927273 81.058919 
L 221.009455 81.692602 
L 222.091636 83.430161 
L 223.173818 84.507008 
L 224.256 79.410853 
L 225.338182 76.338992 
L 226.420364 79.300763 
L 227.502545 77.151294 
L 228.584727 77.836535 
L 229.666909 78.29499 
L 230.749091 75.792404 
L 231.831273 80.190089 
L 232.913455 77.936611 
L 233.995636 78.171174 
L 235.077818 77.126107 
L 236.16 82.998282 
L 237.242182 79.032564 
L 238.324364 76.484779 
L 239.406545 76.426788 
L 240.488727 73.356974 
L 241.570909 73.821422 
L 242.653091 76.184814 
L 243.735273 73.720659 
L 244.817455 73.612602 
L 245.899636 75.386852 
L 246.981818 71.980498 
L 248.064 73.373639 
L 249.146182 73.289643 
L 250.228364 75.585338 
L 251.310545 72.997133 
L 252.392727 69.282585 
L 253.474909 70.092884 
L 254.557091 72.252075 
L 255.639273 71.864854 
L 256.721455 73.726346 
L 257.803636 71.591188 
L 258.885818 69.867034 
L 259.968 70.490864 
L 261.050182 69.193224 
L 262.132364 69.78564 
L 263.214545 72.102487 
L 264.296727 68.968952 
L 265.378909 69.93568 
L 266.461091 68.290348 
L 267.543273 70.120308 
L 268.625455 69.127866 
L 269.707636 70.836452 
L 270.789818 68.722607 
L 271.872 69.540844 
L 272.954182 69.110207 
L 275.118545 67.729712 
L 276.200727 69.987809 
L 277.282909 69.336979 
L 278.365091 64.672527 
L 279.447273 65.146361 
L 280.529455 64.161973 
L 281.611636 66.673827 
L 282.693818 65.59144 
L 283.776 65.654839 
L 284.858182 68.793709 
L 285.940364 65.131041 
L 287.022545 64.828065 
L 288.104727 66.940346 
L 289.186909 63.314164 
L 290.269091 65.453401 
L 291.351273 62.591778 
L 292.433455 63.964044 
L 293.515636 62.432265 
L 294.597818 64.095052 
L 295.68 61.472085 
L 296.762182 61.695509 
L 297.844364 61.708972 
L 298.926545 60.797676 
L 300.008727 60.931915 
L 301.090909 60.000358 
L 302.173091 63.028072 
L 303.255273 61.651728 
L 304.337455 61.072322 
L 305.419636 60.950991 
L 307.584 59.261702 
L 308.666182 59.691008 
L 309.748364 60.321519 
L 310.830545 61.146772 
L 311.912727 60.833461 
L 312.994909 60.65069 
L 314.077091 61.475316 
L 315.159273 58.116486 
L 316.241455 59.089383 
L 317.323636 61.128281 
L 318.405818 56.843507 
L 320.570182 58.015006 
L 321.652364 57.680572 
L 322.734545 58.370228 
L 323.816727 58.741851 
L 324.898909 59.928772 
L 327.063273 57.848652 
L 328.145455 57.09567 
L 330.309818 57.995126 
L 331.392 56.98732 
L 332.474182 56.211666 
L 333.556364 55.783427 
L 334.638545 56.027521 
L 338.967273 55.776381 
L 341.131636 55.503913 
L 342.213818 56.403237 
L 343.296 56.785209 
L 344.378182 55.419785 
L 345.460364 55.294771 
L 346.542545 55.990537 
L 347.624727 55.092835 
L 348.706909 55.783777 
L 350.871273 55.096358 
L 351.953455 56.039595 
L 353.035636 55.276337 
L 354.117818 54.113316 
L 355.2 54.50884 
L 356.282182 54.632261 
L 357.364364 55.020505 
L 358.446545 54.325002 
L 359.528727 54.354384 
L 360.610909 54.693847 
L 361.693091 54.378738 
L 362.775273 54.677767 
L 363.857455 54.781293 
L 364.939636 54.31436 
L 366.021818 54.688979 
L 368.186182 54.448306 
L 369.268364 54.470569 
L 370.350545 53.721359 
L 371.432727 54.149394 
L 372.514909 54.036892 
L 373.597091 53.61453 
L 374.679273 53.982688 
L 375.761455 53.629469 
L 379.008 54.110919 
L 380.090182 53.965833 
L 381.172364 53.955074 
L 382.254545 53.78834 
L 383.336727 53.974283 
L 384.418909 53.997496 
L 385.501091 53.772903 
L 387.665455 53.850891 
L 388.747636 53.683527 
L 389.829818 53.893634 
L 390.912 53.943862 
L 391.994182 54.202004 
L 393.076364 53.613594 
L 394.158545 53.568 
L 395.240727 54.059053 
L 396.322909 53.770783 
L 397.405091 54.201025 
L 398.487273 53.763766 
L 398.487273 53.763766 
" clip-path="url(#pa18b5b2c2b)" style="fill: none; stroke: #ff7f0e; stroke-width: 1.5; stroke-linecap: square"/>
   </g>
   <g id="line2d_16">
    <path d="M 73.832727 227.933526 
L 74.914909 265.083937 
L 75.997091 264.716667 
L 77.079273 268.963503 
L 78.161455 269.038562 
L 79.243636 272.124617 
L 80.325818 277.544634 
L 81.408 265.637056 
L 82.490182 262.026728 
L 83.572364 253.108902 
L 85.736727 275.52542 
L 86.818909 262.117989 
L 87.901091 260.454288 
L 88.983273 253.964262 
L 90.065455 258.140752 
L 91.147636 256.574518 
L 92.229818 255.908368 
L 93.312 255.906709 
L 94.394182 249.276948 
L 95.476364 252.490894 
L 96.558545 253.371035 
L 97.640727 248.009933 
L 98.722909 246.495181 
L 99.805091 249.940448 
L 100.887273 247.752566 
L 101.969455 248.187438 
L 103.051636 236.157854 
L 104.133818 245.571839 
L 105.216 242.758833 
L 106.298182 241.119223 
L 107.380364 249.331006 
L 108.462545 241.366968 
L 109.544727 248.865658 
L 110.626909 230.54001 
L 111.709091 242.754031 
L 112.791273 242.364522 
L 113.873455 242.159272 
L 114.955636 239.552024 
L 116.037818 248.33882 
L 117.12 236.962983 
L 118.202182 235.896072 
L 119.284364 237.669914 
L 120.366545 228.572566 
L 121.448727 235.284174 
L 122.530909 237.587485 
L 123.613091 237.562682 
L 124.695273 228.9946 
L 125.777455 222.157626 
L 126.859636 225.864149 
L 127.941818 228.338946 
L 129.024 238.140582 
L 130.106182 211.657326 
L 131.188364 225.828188 
L 132.270545 222.541258 
L 133.352727 224.403707 
L 134.434909 224.615597 
L 135.517091 221.351047 
L 136.599273 228.052678 
L 137.681455 223.837326 
L 138.763636 228.000762 
L 139.845818 210.732668 
L 140.928 215.397763 
L 142.010182 223.311218 
L 143.092364 214.126509 
L 144.174545 215.741626 
L 145.256727 222.054889 
L 146.338909 215.620938 
L 147.421091 222.369611 
L 148.503273 223.151259 
L 149.585455 208.235213 
L 150.667636 214.931626 
L 151.749818 203.309718 
L 152.832 205.68218 
L 153.914182 216.933109 
L 154.996364 220.606215 
L 156.078545 195.561982 
L 157.160727 198.501153 
L 158.242909 210.595389 
L 159.325091 211.677645 
L 160.407273 203.30648 
L 161.489455 207.348783 
L 162.571636 208.041508 
L 163.653818 216.983717 
L 164.736 207.085911 
L 167.982545 196.425389 
L 169.064727 205.19514 
L 170.146909 199.477501 
L 171.229091 188.626503 
L 172.311273 207.561492 
L 173.393455 187.45906 
L 174.475636 197.846508 
L 175.557818 201.117556 
L 176.64 202.254111 
L 177.722182 200.361088 
L 178.804364 204.836052 
L 179.886545 205.053672 
L 180.968727 186.25812 
L 182.050909 223.045007 
L 183.133091 229.595903 
L 184.215273 222.95224 
L 185.297455 203.663587 
L 186.379636 199.490818 
L 187.461818 202.337047 
L 188.544 189.802454 
L 189.626182 173.779901 
L 190.708364 167.805326 
L 192.872727 153.986264 
L 193.954909 160.608161 
L 195.037091 149.239454 
L 196.119273 141.800943 
L 197.201455 139.047875 
L 198.283636 143.667711 
L 199.365818 140.577782 
L 200.448 135.447012 
L 201.530182 128.589134 
L 202.612364 134.994316 
L 203.694545 148.287329 
L 204.776727 140.603803 
L 205.858909 129.51268 
L 206.941091 139.830429 
L 208.023273 125.264963 
L 209.105455 120.799085 
L 210.187636 120.669627 
L 211.269818 115.602006 
L 212.352 117.291091 
L 213.434182 123.972805 
L 214.516364 123.514687 
L 215.598545 129.928567 
L 216.680727 128.402401 
L 217.762909 124.394276 
L 218.845091 122.329665 
L 219.927273 122.352426 
L 221.009455 120.797579 
L 222.091636 121.117059 
L 223.173818 111.06368 
L 224.256 113.20508 
L 225.338182 117.670272 
L 226.420364 110.60467 
L 227.502545 109.34435 
L 228.584727 102.190396 
L 229.666909 106.016978 
L 230.749091 109.295818 
L 231.831273 100.72415 
L 232.913455 103.929344 
L 233.995636 103.470626 
L 235.077818 102.023574 
L 236.16 105.518148 
L 237.242182 113.575563 
L 238.324364 102.718287 
L 239.406545 98.696713 
L 240.488727 98.902376 
L 241.570909 103.153412 
L 242.653091 102.950672 
L 243.735273 103.837045 
L 244.817455 93.588791 
L 245.899636 88.037104 
L 246.981818 100.335117 
L 248.064 94.802932 
L 249.146182 88.423009 
L 250.228364 93.236727 
L 251.310545 93.798576 
L 252.392727 92.577316 
L 253.474909 83.754859 
L 254.557091 85.564954 
L 255.639273 91.669937 
L 256.721455 91.257705 
L 257.803636 93.468922 
L 258.885818 87.877123 
L 259.968 88.791168 
L 261.050182 88.63335 
L 262.132364 82.851588 
L 263.214545 89.688665 
L 264.296727 86.437775 
L 265.378909 84.262563 
L 266.461091 79.217864 
L 267.543273 80.733592 
L 268.625455 84.701897 
L 269.707636 79.886265 
L 270.789818 85.879463 
L 271.872 84.715346 
L 272.954182 78.871559 
L 274.036364 80.22792 
L 275.118545 84.353722 
L 276.200727 76.384162 
L 277.282909 77.663164 
L 278.365091 80.902636 
L 279.447273 79.434841 
L 280.529455 78.395665 
L 281.611636 80.844222 
L 282.693818 81.778776 
L 283.776 76.574724 
L 284.858182 78.636178 
L 285.940364 78.453597 
L 287.022545 70.963103 
L 288.104727 70.147351 
L 289.186909 76.610553 
L 290.269091 68.349054 
L 292.433455 69.351524 
L 293.515636 68.836102 
L 294.597818 65.555772 
L 297.844364 71.496593 
L 298.926545 68.213047 
L 300.008727 69.02263 
L 301.090909 70.517659 
L 302.173091 68.63864 
L 303.255273 65.520176 
L 304.337455 64.831997 
L 305.419636 65.816969 
L 306.501818 63.221499 
L 307.584 68.826337 
L 308.666182 66.930054 
L 309.748364 65.319352 
L 310.830545 62.958928 
L 311.912727 68.79561 
L 312.994909 65.567101 
L 314.077091 61.234174 
L 315.159273 64.859055 
L 316.241455 63.238106 
L 317.323636 62.107581 
L 318.405818 65.265002 
L 319.488 63.821166 
L 320.570182 63.814207 
L 321.652364 61.371278 
L 322.734545 63.016845 
L 323.816727 62.598459 
L 324.898909 62.911331 
L 325.981091 61.457087 
L 327.063273 60.855257 
L 328.145455 60.825568 
L 330.309818 59.752112 
L 331.392 59.735886 
L 332.474182 61.681373 
L 333.556364 59.631015 
L 334.638545 59.40686 
L 335.720727 59.425016 
L 336.802909 58.204882 
L 337.885091 57.981618 
L 338.967273 58.122537 
L 341.131636 58.131718 
L 342.213818 61.546989 
L 343.296 58.767856 
L 344.378182 59.974367 
L 345.460364 61.980242 
L 346.542545 58.768923 
L 347.624727 61.515647 
L 348.706909 61.324062 
L 349.789091 60.151729 
L 350.871273 59.763602 
L 351.953455 58.336781 
L 353.035636 58.005651 
L 354.117818 59.29528 
L 355.2 59.192192 
L 356.282182 57.647769 
L 357.364364 56.585321 
L 358.446545 57.390767 
L 359.528727 56.634598 
L 360.610909 56.094837 
L 361.693091 57.187282 
L 362.775273 56.715568 
L 363.857455 56.716592 
L 364.939636 56.381953 
L 366.021818 56.720626 
L 367.104 56.448027 
L 368.186182 56.326608 
L 369.268364 56.394466 
L 370.350545 56.279245 
L 372.514909 56.493343 
L 373.597091 56.797284 
L 374.679273 56.27755 
L 375.761455 56.184344 
L 376.843636 55.816274 
L 377.925818 55.638809 
L 379.008 55.611634 
L 380.090182 55.949167 
L 382.254545 55.427445 
L 383.336727 55.607073 
L 384.418909 55.901688 
L 385.501091 57.261528 
L 386.583273 56.592089 
L 388.747636 56.163718 
L 389.829818 55.446785 
L 391.994182 55.234982 
L 393.076364 55.526425 
L 394.158545 55.355933 
L 395.240727 55.509775 
L 396.322909 55.319154 
L 397.405091 55.640198 
L 398.487273 55.16271 
L 398.487273 55.16271 
" clip-path="url(#pa18b5b2c2b)" style="fill: none; stroke: #2ca02c; stroke-width: 1.5; stroke-linecap: square"/>
   </g>
   <g id="line2d_17">
    <path d="M 73.832727 136.737825 
L 74.914909 148.251032 
L 75.997091 146.071025 
L 77.079273 145.798543 
L 78.161455 152.611075 
L 79.243636 153.496716 
L 80.325818 143.482265 
L 81.408 168.961228 
L 82.490182 167.326216 
L 83.572364 165.21433 
L 84.654545 154.654855 
L 85.736727 147.297285 
L 86.818909 156.834876 
L 87.901091 144.844766 
L 88.983273 155.812994 
L 90.065455 155.608603 
L 91.147636 145.526031 
L 92.229818 148.387303 
L 93.312 158.469889 
L 94.394182 152.406713 
L 95.476364 155.199864 
L 96.558545 153.496731 
L 97.640727 163.374926 
L 98.722909 156.902997 
L 99.805091 151.384816 
L 100.887273 161.263025 
L 101.969455 151.180454 
L 103.051636 145.730407 
L 104.133818 151.248574 
L 105.216 163.23867 
L 106.298182 159.628013 
L 107.380364 150.362947 
L 108.462545 153.36046 
L 109.544727 165.14618 
L 110.626909 150.567309 
L 111.709091 143.822883 
L 112.791273 160.309292 
L 113.873455 159.559907 
L 114.955636 154.450478 
L 116.037818 157.993001 
L 117.12 169.574343 
L 118.202182 152.67921 
L 119.284364 157.039238 
L 120.366545 146.75229 
L 121.448727 148.182941 
L 122.530909 146.684155 
L 123.613091 163.238685 
L 124.695273 150.976077 
L 125.777455 152.270442 
L 126.859636 166.031836 
L 127.941818 158.129256 
L 129.024 138.10034 
L 130.106182 180.610692 
L 131.188364 153.905469 
L 132.270545 152.474834 
L 133.352727 163.783679 
L 134.434909 168.279963 
L 135.517091 158.197377 
L 136.599273 162.55742 
L 137.681455 160.718016 
L 138.763636 163.306805 
L 139.845818 152.202322 
L 140.928 171.8225 
L 142.010182 149.613562 
L 143.092364 164.737441 
L 144.174545 144.640389 
L 145.256727 151.316695 
L 146.338909 153.496716 
L 147.421091 157.856745 
L 148.503273 150.226692 
L 149.585455 167.394336 
L 150.667636 161.399281 
L 151.749818 165.691203 
L 152.832 182.245711 
L 153.914182 155.063608 
L 154.996364 156.698621 
L 156.078545 168.211843 
L 157.160727 185.311367 
L 158.242909 163.715559 
L 159.325091 157.243615 
L 160.407273 151.725463 
L 161.489455 168.279963 
L 162.571636 167.18996 
L 163.653818 164.533065 
L 164.736 161.399281 
L 165.818182 165.895565 
L 166.900364 172.026876 
L 167.982545 149.34105 
L 169.064727 161.26304 
L 170.146909 164.533065 
L 171.229091 174.820028 
L 172.311273 161.126784 
L 173.393455 164.192432 
L 174.475636 170.459999 
L 175.557818 171.20937 
L 176.64 159.696148 
L 177.722182 183.948844 
L 178.804364 156.834862 
L 179.886545 149.34105 
L 180.968727 163.374926 
L 182.050909 155.608603 
L 183.133091 154.314223 
L 184.215273 129.993384 
L 185.297455 178.498805 
L 186.379636 140.961597 
L 187.461818 169.642478 
L 188.544 137.827843 
L 189.626182 150.839821 
L 190.708364 155.540482 
L 191.790545 141.4385 
L 192.872727 166.917463 
L 193.954909 156.221732 
L 195.037091 186.74201 
L 196.119273 153.632972 
L 197.201455 152.338578 
L 198.283636 160.445519 
L 199.365818 153.019828 
L 200.448 170.528105 
L 201.530182 142.937242 
L 202.612364 151.521086 
L 203.694545 140.348482 
L 204.776727 140.757235 
L 205.858909 165.350571 
L 206.941091 143.550386 
L 208.023273 145.798543 
L 209.105455 140.620994 
L 210.187636 162.761796 
L 211.269818 143.414116 
L 212.352 147.092908 
L 213.434182 141.710982 
L 214.516364 152.611075 
L 215.598545 167.87121 
L 216.680727 155.336105 
L 217.762909 172.776247 
L 218.845091 134.966556 
L 219.927273 143.41413 
L 221.009455 162.966173 
L 222.091636 154.518599 
L 223.173818 154.450478 
L 224.256 143.482265 
L 225.338182 159.968631 
L 226.420364 152.270442 
L 227.502545 162.148667 
L 228.584727 146.479778 
L 229.666909 176.114407 
L 230.749091 144.981037 
L 231.831273 140.825356 
L 232.913455 141.302229 
L 233.995636 165.078074 
L 235.077818 171.277491 
L 236.16 166.849327 
L 237.242182 145.32164 
L 238.324364 151.38483 
L 239.406545 147.97855 
L 240.488727 163.715559 
L 241.570909 153.496731 
L 242.653091 153.701093 
L 243.735273 155.540467 
L 244.817455 166.508695 
L 245.899636 148.523544 
L 246.981818 155.063608 
L 248.064 151.452951 
L 249.146182 151.657327 
L 250.228364 146.343523 
L 251.310545 157.92488 
L 252.392727 147.297285 
L 253.474909 154.995488 
L 254.557091 142.392247 
L 255.639273 160.445534 
L 256.721455 152.679196 
L 257.803636 156.494244 
L 258.885818 154.927352 
L 259.968 171.345626 
L 261.050182 143.482251 
L 262.132364 147.092923 
L 263.214545 144.299757 
L 264.296727 146.888532 
L 266.461091 160.922407 
L 267.543273 153.224219 
L 268.625455 161.126784 
L 269.707636 139.871608 
L 270.789818 159.764269 
L 271.872 147.024787 
L 272.954182 155.94925 
L 274.036364 141.234109 
L 275.118545 149.204809 
L 276.200727 151.793569 
L 277.282909 144.09538 
L 278.365091 148.251047 
L 279.447273 155.812994 
L 280.529455 156.630485 
L 281.611636 162.625541 
L 282.693818 141.642862 
L 283.776 154.177981 
L 284.858182 148.591679 
L 285.940364 140.552858 
L 287.022545 152.066081 
L 288.104727 147.297285 
L 289.186909 147.842294 
L 290.269091 145.253519 
L 291.351273 147.229164 
L 292.433455 156.017356 
L 293.515636 161.603672 
L 294.597818 145.389775 
L 295.68 149.068553 
L 296.762182 148.319182 
L 297.844364 143.277889 
L 298.926545 147.842279 
L 300.008727 149.477306 
L 301.090909 154.177967 
L 302.173091 152.270442 
L 303.255273 148.591679 
L 304.337455 155.063594 
L 305.419636 150.635445 
L 306.501818 148.932297 
L 307.584 151.657342 
L 308.666182 146.956667 
L 309.748364 150.158556 
L 310.830545 158.946763 
L 311.912727 149.409171 
L 312.994909 149.000418 
L 314.077091 149.000432 
L 315.159273 144.163501 
L 316.241455 148.727935 
L 317.323636 145.594152 
L 318.405818 150.635459 
L 320.570182 151.112318 
L 322.734545 146.139146 
L 323.816727 149.068553 
L 324.898909 148.523559 
L 325.981091 151.793583 
L 327.063273 149.749803 
L 328.145455 150.567309 
L 329.227636 147.774173 
L 330.309818 149.613562 
L 331.392 147.433526 
L 332.474182 148.455423 
L 333.556364 148.932297 
L 334.638545 149.817924 
L 335.720727 149.409185 
L 336.802909 148.455423 
L 337.885091 150.635445 
L 338.967273 148.727906 
L 340.049455 151.861704 
L 341.131636 153.087963 
L 342.213818 151.248574 
L 343.296 152.611075 
L 344.378182 151.521072 
L 345.460364 149.409171 
L 346.542545 151.112318 
L 347.624727 148.523544 
L 348.706909 148.523559 
L 349.789091 147.842308 
L 350.871273 151.589207 
L 351.953455 150.771701 
L 354.117818 148.455423 
L 355.2 149.272929 
L 356.282182 151.248574 
L 357.364364 150.294812 
L 358.446545 150.567324 
L 359.528727 148.591679 
L 360.610909 151.384816 
L 361.693091 148.455423 
L 362.775273 148.659785 
L 363.857455 148.387303 
L 366.021818 149.886074 
L 367.104 147.910414 
L 368.186182 148.387303 
L 369.268364 148.455423 
L 370.350545 147.433555 
L 371.432727 147.569796 
L 373.597091 149.613562 
L 374.679273 148.387303 
L 375.761455 149.000418 
L 377.925818 150.703565 
L 379.008 150.63543 
L 380.090182 149.34105 
L 381.172364 150.771701 
L 382.254545 150.771686 
L 383.336727 149.34105 
L 384.418909 150.431068 
L 385.501091 150.567324 
L 386.583273 150.158556 
L 387.665455 149.204809 
L 388.747636 150.771701 
L 389.829818 150.567324 
L 390.912 149.749818 
L 391.994182 149.886059 
L 393.076364 150.567324 
L 394.158545 150.090436 
L 395.240727 149.886059 
L 396.322909 149.95418 
L 397.405091 149.749803 
L 398.487273 150.090436 
L 398.487273 150.090436 
" clip-path="url(#pa18b5b2c2b)" style="fill: none; stroke: #d62728; stroke-width: 1.5; stroke-linecap: square"/>
   </g>
   <g id="patch_3">
    <path d="M 57.6 307.584 
L 57.6 41.472 
" style="fill: none; stroke: #000000; stroke-width: 0.8; stroke-linejoin: miter; stroke-linecap: square"/>
   </g>
   <g id="patch_4">
    <path d="M 414.72 307.584 
L 414.72 41.472 
" style="fill: none; stroke: #000000; stroke-width: 0.8; stroke-linejoin: miter; stroke-linecap: square"/>
   </g>
   <g id="patch_5">
    <path d="M 57.6 307.584 
L 414.72 307.584 
" style="fill: none; stroke: #000000; stroke-width: 0.8; stroke-linejoin: miter; stroke-linecap: square"/>
   </g>
   <g id="patch_6">
    <path d="M 57.6 41.472 
L 414.72 41.472 
" style="fill: none; stroke: #000000; stroke-width: 0.8; stroke-linejoin: miter; stroke-linecap: square"/>
   </g>
   <g id="text_14">
    <!-- veil5 -->
    <g transform="translate(221.765625 35.472) scale(0.12 -0.12)">
     <defs>
      <path id="DejaVuSans-76" d="M 191 3500 
L 800 3500 
L 1894 563 
L 2988 3500 
L 3597 3500 
L 2284 0 
L 1503 0 
L 191 3500 
z
" transform="scale(0.015625)"/>
      <path id="DejaVuSans-65" d="M 3597 1894 
L 3597 1613 
L 953 1613 
Q 991 1019 1311 708 
Q 1631 397 2203 397 
Q 2534 397 2845 478 
Q 3156 559 3463 722 
L 3463 178 
Q 3153 47 2828 -22 
Q 2503 -91 2169 -91 
Q 1331 -91 842 396 
Q 353 884 353 1716 
Q 353 2575 817 3079 
Q 1281 3584 2069 3584 
Q 2775 3584 3186 3129 
Q 3597 2675 3597 1894 
z
M 3022 2063 
Q 3016 2534 2758 2815 
Q 2500 3097 2075 3097 
Q 1594 3097 1305 2825 
Q 1016 2553 972 2059 
L 3022 2063 
z
" transform="scale(0.015625)"/>
      <path id="DejaVuSans-69" d="M 603 3500 
L 1178 3500 
L 1178 0 
L 603 0 
L 603 3500 
z
M 603 4863 
L 1178 4863 
L 1178 4134 
L 603 4134 
L 603 4863 
z
" transform="scale(0.015625)"/>
      <path id="DejaVuSans-6c" d="M 603 4863 
L 1178 4863 
L 1178 0 
L 603 0 
L 603 4863 
z
" transform="scale(0.015625)"/>
     </defs>
     <use xlink:href="#DejaVuSans-76"/>
     <use xlink:href="#DejaVuSans-65" transform="translate(59.179688 0)"/>
     <use xlink:href="#DejaVuSans-69" transform="translate(120.703125 0)"/>
     <use xlink:href="#DejaVuSans-6c" transform="translate(148.486328 0)"/>
     <use xlink:href="#DejaVuSans-35" transform="translate(176.269531 0)"/>
    </g>
   </g>
   <g id="legend_1">
    <g id="patch_7">
     <path d="M 316.259063 302.584 
L 407.72 302.584 
Q 409.72 302.584 409.72 300.584 
L 409.72 212.40275 
Q 409.72 210.40275 407.72 210.40275 
L 316.259063 210.40275 
Q 314.259063 210.40275 314.259063 212.40275 
L 314.259063 300.584 
Q 314.259063 302.584 316.259063 302.584 
z
" style="fill: #ffffff; opacity: 0.8; stroke: #cccccc; stroke-linejoin: miter"/>
    </g>
    <g id="line2d_18">
     <path d="M 318.259063 218.501187 
L 328.259063 218.501187 
L 338.259063 218.501187 
" style="fill: none; stroke: #1f77b4; stroke-width: 1.5; stroke-linecap: square"/>
    </g>
    <g id="text_15">
     <!-- train -->
     <g transform="translate(346.259063 222.001187) scale(0.1 -0.1)">
      <defs>
       <path id="DejaVuSans-74" d="M 1172 4494 
L 1172 3500 
L 2356 3500 
L 2356 3053 
L 1172 3053 
L 1172 1153 
Q 1172 725 1289 603 
Q 1406 481 1766 481 
L 2356 481 
L 2356 0 
L 1766 0 
Q 1100 0 847 248 
Q 594 497 594 1153 
L 594 3053 
L 172 3053 
L 172 3500 
L 594 3500 
L 594 4494 
L 1172 4494 
z
" transform="scale(0.015625)"/>
       <path id="DejaVuSans-72" d="M 2631 2963 
Q 2534 3019 2420 3045 
Q 2306 3072 2169 3072 
Q 1681 3072 1420 2755 
Q 1159 2438 1159 1844 
L 1159 0 
L 581 0 
L 581 3500 
L 1159 3500 
L 1159 2956 
Q 1341 3275 1631 3429 
Q 1922 3584 2338 3584 
Q 2397 3584 2469 3576 
Q 2541 3569 2628 3553 
L 2631 2963 
z
" transform="scale(0.015625)"/>
       <path id="DejaVuSans-61" d="M 2194 1759 
Q 1497 1759 1228 1600 
Q 959 1441 959 1056 
Q 959 750 1161 570 
Q 1363 391 1709 391 
Q 2188 391 2477 730 
Q 2766 1069 2766 1631 
L 2766 1759 
L 2194 1759 
z
M 3341 1997 
L 3341 0 
L 2766 0 
L 2766 531 
Q 2569 213 2275 61 
Q 1981 -91 1556 -91 
Q 1019 -91 701 211 
Q 384 513 384 1019 
Q 384 1609 779 1909 
Q 1175 2209 1959 2209 
L 2766 2209 
L 2766 2266 
Q 2766 2663 2505 2880 
Q 2244 3097 1772 3097 
Q 1472 3097 1187 3025 
Q 903 2953 641 2809 
L 641 3341 
Q 956 3463 1253 3523 
Q 1550 3584 1831 3584 
Q 2591 3584 2966 3190 
Q 3341 2797 3341 1997 
z
" transform="scale(0.015625)"/>
       <path id="DejaVuSans-6e" d="M 3513 2113 
L 3513 0 
L 2938 0 
L 2938 2094 
Q 2938 2591 2744 2837 
Q 2550 3084 2163 3084 
Q 1697 3084 1428 2787 
Q 1159 2491 1159 1978 
L 1159 0 
L 581 0 
L 581 3500 
L 1159 3500 
L 1159 2956 
Q 1366 3272 1645 3428 
Q 1925 3584 2291 3584 
Q 2894 3584 3203 3211 
Q 3513 2838 3513 2113 
z
" transform="scale(0.015625)"/>
      </defs>
      <use xlink:href="#DejaVuSans-74"/>
      <use xlink:href="#DejaVuSans-72" transform="translate(39.208984 0)"/>
      <use xlink:href="#DejaVuSans-61" transform="translate(80.322266 0)"/>
      <use xlink:href="#DejaVuSans-69" transform="translate(141.601562 0)"/>
      <use xlink:href="#DejaVuSans-6e" transform="translate(169.384766 0)"/>
     </g>
    </g>
    <g id="line2d_19">
     <path d="M 318.259063 233.179312 
L 328.259063 233.179312 
L 338.259063 233.179312 
" style="fill: none; stroke: #ff7f0e; stroke-width: 1.5; stroke-linecap: square"/>
    </g>
    <g id="text_16">
     <!-- train_class0 -->
     <g transform="translate(346.259063 236.679312) scale(0.1 -0.1)">
      <defs>
       <path id="DejaVuSans-5f" d="M 3263 -1063 
L 3263 -1509 
L -63 -1509 
L -63 -1063 
L 3263 -1063 
z
" transform="scale(0.015625)"/>
       <path id="DejaVuSans-63" d="M 3122 3366 
L 3122 2828 
Q 2878 2963 2633 3030 
Q 2388 3097 2138 3097 
Q 1578 3097 1268 2742 
Q 959 2388 959 1747 
Q 959 1106 1268 751 
Q 1578 397 2138 397 
Q 2388 397 2633 464 
Q 2878 531 3122 666 
L 3122 134 
Q 2881 22 2623 -34 
Q 2366 -91 2075 -91 
Q 1284 -91 818 406 
Q 353 903 353 1747 
Q 353 2603 823 3093 
Q 1294 3584 2113 3584 
Q 2378 3584 2631 3529 
Q 2884 3475 3122 3366 
z
" transform="scale(0.015625)"/>
       <path id="DejaVuSans-73" d="M 2834 3397 
L 2834 2853 
Q 2591 2978 2328 3040 
Q 2066 3103 1784 3103 
Q 1356 3103 1142 2972 
Q 928 2841 928 2578 
Q 928 2378 1081 2264 
Q 1234 2150 1697 2047 
L 1894 2003 
Q 2506 1872 2764 1633 
Q 3022 1394 3022 966 
Q 3022 478 2636 193 
Q 2250 -91 1575 -91 
Q 1294 -91 989 -36 
Q 684 19 347 128 
L 347 722 
Q 666 556 975 473 
Q 1284 391 1588 391 
Q 1994 391 2212 530 
Q 2431 669 2431 922 
Q 2431 1156 2273 1281 
Q 2116 1406 1581 1522 
L 1381 1569 
Q 847 1681 609 1914 
Q 372 2147 372 2553 
Q 372 3047 722 3315 
Q 1072 3584 1716 3584 
Q 2034 3584 2315 3537 
Q 2597 3491 2834 3397 
z
" transform="scale(0.015625)"/>
      </defs>
      <use xlink:href="#DejaVuSans-74"/>
      <use xlink:href="#DejaVuSans-72" transform="translate(39.208984 0)"/>
      <use xlink:href="#DejaVuSans-61" transform="translate(80.322266 0)"/>
      <use xlink:href="#DejaVuSans-69" transform="translate(141.601562 0)"/>
      <use xlink:href="#DejaVuSans-6e" transform="translate(169.384766 0)"/>
      <use xlink:href="#DejaVuSans-5f" transform="translate(232.763672 0)"/>
      <use xlink:href="#DejaVuSans-63" transform="translate(282.763672 0)"/>
      <use xlink:href="#DejaVuSans-6c" transform="translate(337.744141 0)"/>
      <use xlink:href="#DejaVuSans-61" transform="translate(365.527344 0)"/>
      <use xlink:href="#DejaVuSans-73" transform="translate(426.806641 0)"/>
      <use xlink:href="#DejaVuSans-73" transform="translate(478.90625 0)"/>
      <use xlink:href="#DejaVuSans-30" transform="translate(531.005859 0)"/>
     </g>
    </g>
    <g id="line2d_20">
     <path d="M 318.259063 248.135562 
L 328.259063 248.135562 
L 338.259063 248.135562 
" style="fill: none; stroke: #2ca02c; stroke-width: 1.5; stroke-linecap: square"/>
    </g>
    <g id="text_17">
     <!-- train_class1 -->
     <g transform="translate(346.259063 251.635562) scale(0.1 -0.1)">
      <use xlink:href="#DejaVuSans-74"/>
      <use xlink:href="#DejaVuSans-72" transform="translate(39.208984 0)"/>
      <use xlink:href="#DejaVuSans-61" transform="translate(80.322266 0)"/>
      <use xlink:href="#DejaVuSans-69" transform="translate(141.601562 0)"/>
      <use xlink:href="#DejaVuSans-6e" transform="translate(169.384766 0)"/>
      <use xlink:href="#DejaVuSans-5f" transform="translate(232.763672 0)"/>
      <use xlink:href="#DejaVuSans-63" transform="translate(282.763672 0)"/>
      <use xlink:href="#DejaVuSans-6c" transform="translate(337.744141 0)"/>
      <use xlink:href="#DejaVuSans-61" transform="translate(365.527344 0)"/>
      <use xlink:href="#DejaVuSans-73" transform="translate(426.806641 0)"/>
      <use xlink:href="#DejaVuSans-73" transform="translate(478.90625 0)"/>
      <use xlink:href="#DejaVuSans-31" transform="translate(531.005859 0)"/>
     </g>
    </g>
    <g id="line2d_21">
     <path d="M 318.259063 263.091812 
L 328.259063 263.091812 
L 338.259063 263.091812 
" style="fill: none; stroke: #d62728; stroke-width: 1.5; stroke-linecap: square"/>
    </g>
    <g id="text_18">
     <!-- test -->
     <g transform="translate(346.259063 266.591812) scale(0.1 -0.1)">
      <use xlink:href="#DejaVuSans-74"/>
      <use xlink:href="#DejaVuSans-65" transform="translate(39.208984 0)"/>
      <use xlink:href="#DejaVuSans-73" transform="translate(100.732422 0)"/>
      <use xlink:href="#DejaVuSans-74" transform="translate(152.832031 0)"/>
     </g>
    </g>
    <g id="line2d_22">
     <path d="M 318.259063 277.769937 
L 328.259063 277.769937 
L 338.259063 277.769937 
" style="fill: none; stroke: #9467bd; stroke-width: 1.5; stroke-linecap: square"/>
    </g>
    <g id="text_19">
     <!-- test_class0 -->
     <g transform="translate(346.259063 281.269937) scale(0.1 -0.1)">
      <use xlink:href="#DejaVuSans-74"/>
      <use xlink:href="#DejaVuSans-65" transform="translate(39.208984 0)"/>
      <use xlink:href="#DejaVuSans-73" transform="translate(100.732422 0)"/>
      <use xlink:href="#DejaVuSans-74" transform="translate(152.832031 0)"/>
      <use xlink:href="#DejaVuSans-5f" transform="translate(192.041016 0)"/>
      <use xlink:href="#DejaVuSans-63" transform="translate(242.041016 0)"/>
      <use xlink:href="#DejaVuSans-6c" transform="translate(297.021484 0)"/>
      <use xlink:href="#DejaVuSans-61" transform="translate(324.804688 0)"/>
      <use xlink:href="#DejaVuSans-73" transform="translate(386.083984 0)"/>
      <use xlink:href="#DejaVuSans-73" transform="translate(438.183594 0)"/>
      <use xlink:href="#DejaVuSans-30" transform="translate(490.283203 0)"/>
     </g>
    </g>
    <g id="line2d_23">
     <path d="M 318.259063 292.726187 
L 328.259063 292.726187 
L 338.259063 292.726187 
" style="fill: none; stroke: #8c564b; stroke-width: 1.5; stroke-linecap: square"/>
    </g>
    <g id="text_20">
     <!-- test_class1 -->
     <g transform="translate(346.259063 296.226187) scale(0.1 -0.1)">
      <use xlink:href="#DejaVuSans-74"/>
      <use xlink:href="#DejaVuSans-65" transform="translate(39.208984 0)"/>
      <use xlink:href="#DejaVuSans-73" transform="translate(100.732422 0)"/>
      <use xlink:href="#DejaVuSans-74" transform="translate(152.832031 0)"/>
      <use xlink:href="#DejaVuSans-5f" transform="translate(192.041016 0)"/>
      <use xlink:href="#DejaVuSans-63" transform="translate(242.041016 0)"/>
      <use xlink:href="#DejaVuSans-6c" transform="translate(297.021484 0)"/>
      <use xlink:href="#DejaVuSans-61" transform="translate(324.804688 0)"/>
      <use xlink:href="#DejaVuSans-73" transform="translate(386.083984 0)"/>
      <use xlink:href="#DejaVuSans-73" transform="translate(438.183594 0)"/>
      <use xlink:href="#DejaVuSans-31" transform="translate(490.283203 0)"/>
     </g>
    </g>
   </g>
   <g id="line2d_24">
    <path d="M 73.832727 120.839797 
L 74.914909 54.775095 
L 75.997091 68.574072 
L 77.079273 62.35416 
L 78.161455 59.620446 
L 79.243636 71.286311 
L 80.325818 57.02543 
L 81.408 88.279313 
L 82.490182 82.94877 
L 83.572364 88.401141 
L 84.654545 62.298216 
L 85.736727 59.905456 
L 86.818909 77.132539 
L 87.901091 73.738552 
L 88.983273 72.780054 
L 90.065455 68.054542 
L 91.147636 76.31895 
L 92.229818 63.54076 
L 93.312 77.266046 
L 94.394182 75.763182 
L 95.476364 76.120187 
L 96.558545 79.496574 
L 97.640727 89.140878 
L 99.805091 60.939925 
L 100.887273 83.37524 
L 101.969455 77.340818 
L 103.051636 70.352751 
L 104.133818 64.701252 
L 105.216 94.436308 
L 106.298182 83.72381 
L 107.380364 64.376305 
L 108.462545 67.873818 
L 109.544727 98.065516 
L 110.626909 65.643013 
L 111.709091 74.553325 
L 112.791273 80.241588 
L 113.873455 71.454245 
L 114.955636 64.866481 
L 116.037818 68.66238 
L 117.12 89.775686 
L 118.202182 77.467938 
L 119.284364 72.80008 
L 120.366545 62.987696 
L 121.448727 78.878065 
L 122.530909 58.217789 
L 123.613091 112.455519 
L 124.695273 83.281231 
L 125.777455 73.063003 
L 126.859636 85.683346 
L 127.941818 81.976589 
L 129.024 80.856706 
L 130.106182 115.640744 
L 131.188364 73.42948 
L 132.270545 82.144303 
L 133.352727 105.447879 
L 134.434909 95.074829 
L 135.517091 76.314462 
L 136.599273 91.862736 
L 137.681455 79.626091 
L 138.763636 92.31723 
L 139.845818 81.338711 
L 140.928 113.886769 
L 142.010182 82.969352 
L 143.092364 106.554035 
L 144.174545 66.667629 
L 145.256727 109.734319 
L 146.338909 86.579279 
L 147.421091 84.997915 
L 148.503273 75.074491 
L 149.585455 85.146699 
L 150.667636 89.753087 
L 151.749818 96.163517 
L 152.832 121.596901 
L 153.914182 77.144453 
L 154.996364 96.602354 
L 156.078545 100.938102 
L 157.160727 139.577491 
L 158.242909 89.47483 
L 159.325091 91.277659 
L 160.407273 94.601596 
L 161.489455 96.234254 
L 162.571636 101.586154 
L 163.653818 94.751914 
L 164.736 92.86009 
L 165.818182 105.723372 
L 166.900364 135.359712 
L 167.982545 108.438272 
L 169.064727 93.465048 
L 170.146909 104.41512 
L 171.229091 122.156381 
L 172.311273 91.558737 
L 173.393455 109.074148 
L 174.475636 113.092623 
L 175.557818 105.800703 
L 176.64 96.717472 
L 177.722182 138.275042 
L 178.804364 89.598748 
L 179.886545 77.581009 
L 180.968727 85.609612 
L 182.050909 64.58688 
L 183.133091 68.299192 
L 184.215273 91.224522 
L 185.297455 124.045151 
L 186.379636 59.899346 
L 187.461818 117.506738 
L 188.544 82.397051 
L 189.626182 93.057084 
L 191.790545 116.251082 
L 192.872727 142.33126 
L 193.954909 105.82893 
L 195.037091 209.967619 
L 196.119273 119.818235 
L 197.201455 95.540842 
L 198.283636 119.935999 
L 199.365818 115.726582 
L 200.448 138.778403 
L 201.530182 92.688794 
L 202.612364 94.306499 
L 203.694545 117.040901 
L 204.776727 109.81485 
L 205.858909 156.52196 
L 206.941091 107.589878 
L 208.023273 116.572477 
L 209.105455 155.905088 
L 210.187636 110.162923 
L 211.269818 112.599596 
L 212.352 116.82198 
L 213.434182 86.549633 
L 214.516364 138.938136 
L 215.598545 139.984373 
L 216.680727 104.268719 
L 217.762909 114.228542 
L 218.845091 149.100728 
L 219.927273 89.899181 
L 221.009455 118.610702 
L 222.091636 141.813003 
L 223.173818 112.467112 
L 224.256 109.483471 
L 225.338182 130.287984 
L 226.420364 134.581865 
L 227.502545 126.768573 
L 228.584727 144.148868 
L 229.666909 143.665446 
L 230.749091 157.059967 
L 231.831273 110.339087 
L 232.913455 138.119914 
L 235.077818 146.865216 
L 236.16 121.203204 
L 237.242182 130.024637 
L 238.324364 131.094146 
L 239.406545 118.124721 
L 240.488727 141.48139 
L 241.570909 168.214342 
L 242.653091 136.558811 
L 243.735273 145.286264 
L 244.817455 150.096868 
L 245.899636 92.652059 
L 246.981818 136.205899 
L 248.064 108.456735 
L 249.146182 152.905309 
L 250.228364 106.470317 
L 251.310545 126.859454 
L 252.392727 116.623202 
L 253.474909 121.91217 
L 254.557091 136.234141 
L 255.639273 128.981076 
L 256.721455 117.238977 
L 257.803636 127.956737 
L 258.885818 126.489088 
L 259.968 155.304939 
L 261.050182 109.452992 
L 262.132364 114.86335 
L 263.214545 102.824839 
L 264.296727 124.290443 
L 265.378909 119.848846 
L 266.461091 125.627494 
L 267.543273 129.803318 
L 268.625455 139.670755 
L 269.707636 108.570128 
L 270.789818 115.668139 
L 271.872 103.884948 
L 272.954182 142.656661 
L 274.036364 101.654436 
L 275.118545 148.609236 
L 276.200727 120.387525 
L 277.282909 134.577099 
L 278.365091 122.836477 
L 279.447273 122.813907 
L 281.611636 140.648944 
L 282.693818 110.585374 
L 283.776 148.202354 
L 284.858182 103.475055 
L 285.940364 125.960905 
L 287.022545 134.498819 
L 288.104727 136.038345 
L 289.186909 106.761467 
L 290.269091 135.524429 
L 291.351273 132.586939 
L 292.433455 131.106016 
L 293.515636 145.331551 
L 294.597818 115.805286 
L 295.68 131.611381 
L 296.762182 126.377961 
L 297.844364 126.828727 
L 298.926545 114.933781 
L 300.008727 121.229414 
L 301.090909 134.913054 
L 302.173091 121.555224 
L 303.255273 124.940557 
L 304.337455 124.951404 
L 305.419636 122.442707 
L 306.501818 114.65855 
L 307.584 115.381301 
L 308.666182 114.78852 
L 309.748364 122.636003 
L 310.830545 121.873476 
L 311.912727 135.307759 
L 312.994909 117.93603 
L 314.077091 122.854165 
L 315.159273 114.40855 
L 316.241455 135.12509 
L 317.323636 126.405399 
L 318.405818 120.975029 
L 319.488 125.275313 
L 320.570182 124.410356 
L 321.652364 124.204094 
L 322.734545 115.711028 
L 323.816727 125.331798 
L 324.898909 128.02515 
L 325.981091 127.726077 
L 327.063273 121.251634 
L 328.145455 117.568061 
L 329.227636 121.786483 
L 330.309818 124.949649 
L 331.392 118.567827 
L 332.474182 123.633722 
L 334.638545 125.944401 
L 335.720727 124.631354 
L 336.802909 123.788324 
L 337.885091 129.251848 
L 338.967273 127.480872 
L 340.049455 129.190393 
L 341.131636 127.754349 
L 342.213818 127.464588 
L 343.296 125.0059 
L 344.378182 130.036478 
L 345.460364 117.728583 
L 346.542545 126.848198 
L 347.624727 125.857379 
L 348.706909 119.813587 
L 349.789091 120.602412 
L 350.871273 129.384888 
L 351.953455 127.875811 
L 353.035636 123.293265 
L 354.117818 123.413763 
L 355.2 124.928555 
L 356.282182 132.602083 
L 357.364364 126.937091 
L 358.446545 126.322003 
L 359.528727 124.1893 
L 360.610909 130.899432 
L 361.693091 124.292505 
L 362.775273 124.581476 
L 363.857455 122.371122 
L 364.939636 122.163808 
L 366.021818 125.955028 
L 367.104 125.208216 
L 368.186182 125.350216 
L 369.268364 125.08228 
L 370.350545 123.38096 
L 371.432727 125.213829 
L 372.514909 124.832324 
L 373.597091 125.826564 
L 374.679273 124.141864 
L 375.761455 124.585599 
L 376.843636 124.842294 
L 377.925818 125.602745 
L 379.008 125.76546 
L 380.090182 124.851942 
L 381.172364 126.401847 
L 382.254545 125.788703 
L 383.336727 124.101913 
L 384.418909 126.437793 
L 385.501091 126.00283 
L 386.583273 124.395753 
L 387.665455 123.395987 
L 388.747636 125.750096 
L 389.829818 125.98656 
L 390.912 125.278047 
L 393.076364 125.08361 
L 394.158545 124.090365 
L 395.240727 125.602848 
L 396.322909 124.542168 
L 397.405091 125.901029 
L 398.487273 125.659712 
L 398.487273 125.659712 
" clip-path="url(#pa18b5b2c2b)" style="fill: none; stroke: #9467bd; stroke-width: 1.5; stroke-linecap: square"/>
   </g>
   <g id="line2d_25">
    <path d="M 73.832727 226.707676 
L 74.914909 295.090876 
L 75.997091 266.746854 
L 77.079273 277.155425 
L 78.161455 295.488 
L 79.243636 274.264808 
L 80.325818 286.322263 
L 81.408 266.377203 
L 82.490182 272.569342 
L 83.572364 262.536507 
L 84.654545 294.757954 
L 85.736727 284.611276 
L 86.818909 271.501441 
L 87.901091 260.727783 
L 88.983273 277.331202 
L 90.065455 287.109641 
L 91.147636 260.904363 
L 92.229818 276.506997 
L 93.312 270.991896 
L 94.394182 272.636902 
L 95.476364 269.672066 
L 96.558545 262.545237 
L 97.640727 262.12301 
L 98.722909 279.55522 
L 99.805091 288.865382 
L 100.887273 274.532117 
L 101.969455 268.181166 
L 103.051636 270.855497 
L 104.133818 282.345574 
L 105.216 252.79213 
L 106.298182 264.505515 
L 107.380364 286.466168 
L 108.462545 280.162278 
L 109.544727 244.314059 
L 110.626909 280.656536 
L 111.709091 262.09039 
L 112.791273 266.651933 
L 113.873455 283.411524 
L 114.955636 286.556533 
L 116.037818 288.571397 
L 117.12 264.42271 
L 118.202182 258.428419 
L 119.284364 274.780962 
L 120.366545 276.980629 
L 121.448727 258.217475 
L 122.530909 287.422169 
L 123.613091 224.331859 
L 124.695273 245.712714 
L 125.777455 274.272208 
L 126.859636 278.038087 
L 127.941818 257.854148 
L 129.024 245.778178 
L 130.106182 238.325282 
L 131.188364 272.251031 
L 132.270545 254.665861 
L 133.352727 234.410637 
L 134.434909 259.530566 
L 135.517091 268.206719 
L 136.599273 246.001949 
L 137.681455 268.01912 
L 138.763636 251.275813 
L 139.845818 239.709429 
L 140.928 207.512791 
L 142.010182 255.377612 
L 143.092364 220.197096 
L 144.174545 264.862896 
L 145.256727 234.362119 
L 146.338909 247.216605 
L 147.421091 255.278358 
L 149.585455 266.072491 
L 150.667636 253.368714 
L 151.749818 248.098088 
L 152.832 210.626109 
L 153.914182 263.144246 
L 154.996364 224.336376 
L 156.078545 230.097957 
L 157.160727 200.357222 
L 158.242909 258.719828 
L 159.325091 240.128769 
L 160.407273 228.269137 
L 161.489455 240.539766 
L 162.571636 231.725536 
L 163.653818 249.314092 
L 164.736 248.218286 
L 165.818182 226.030058 
L 166.900364 190.440917 
L 167.982545 242.993505 
L 169.064727 243.157477 
L 170.146909 237.877674 
L 171.229091 210.18073 
L 172.311273 251.005776 
L 173.393455 225.537082 
L 174.475636 215.029802 
L 175.557818 238.265728 
L 176.64 234.747754 
L 177.722182 179.786461 
L 178.804364 251.532117 
L 179.886545 249.897397 
L 180.968727 260.50983 
L 182.050909 293.214674 
L 183.133091 278.949679 
L 184.215273 254.101475 
L 185.297455 215.949635 
L 186.379636 281.382317 
L 187.461818 214.660043 
L 188.544 249.086634 
L 189.626182 243.564049 
L 190.708364 215.687305 
L 191.790545 206.569773 
L 192.872727 180.78877 
L 193.954909 218.309 
L 195.037091 115.190885 
L 196.119273 224.859099 
L 197.201455 238.986323 
L 198.283636 206.424915 
L 199.365818 215.981686 
L 200.448 185.044666 
L 201.530182 227.482577 
L 202.612364 242.013043 
L 203.694545 229.293629 
L 204.776727 209.407824 
L 205.858909 152.283526 
L 206.941091 214.65247 
L 208.023273 205.180872 
L 209.105455 160.021972 
L 210.187636 217.596042 
L 211.269818 196.188034 
L 212.352 186.023505 
L 213.434182 234.338167 
L 214.516364 189.561488 
L 215.598545 175.338914 
L 216.680727 229.590041 
L 217.762909 233.661383 
L 218.845091 178.625099 
L 219.927273 235.340052 
L 221.009455 214.936881 
L 222.091636 176.756847 
L 223.173818 211.136086 
L 224.256 195.672276 
L 225.338182 188.909489 
L 226.420364 175.661661 
L 227.502545 203.990786 
L 228.584727 185.135043 
L 229.666909 190.503709 
L 230.749091 167.781922 
L 231.831273 209.468621 
L 232.913455 192.054719 
L 233.995636 192.815989 
L 235.077818 198.141788 
L 236.16 218.533096 
L 237.242182 189.342406 
L 238.324364 189.503937 
L 239.406545 200.168794 
L 240.488727 190.063096 
L 241.570909 155.94004 
L 242.653091 190.064726 
L 243.735273 180.714605 
L 244.817455 175.601449 
L 245.899636 239.654848 
L 246.981818 189.472128 
L 248.064 221.175315 
L 249.146182 146.192648 
L 250.228364 224.459132 
L 251.310545 196.855207 
L 252.392727 211.769491 
L 253.474909 205.86729 
L 254.557091 191.53475 
L 255.639273 195.995498 
L 256.721455 215.555588 
L 257.803636 185.168401 
L 258.885818 187.228283 
L 259.968 175.108846 
L 261.050182 208.504487 
L 262.132364 205.945468 
L 263.214545 219.978416 
L 264.296727 183.902446 
L 265.378909 204.145029 
L 266.461091 194.615536 
L 267.543273 189.44792 
L 268.625455 188.961427 
L 269.707636 195.956964 
L 270.789818 215.382735 
L 271.872 217.035231 
L 272.954182 174.817162 
L 274.036364 217.706088 
L 275.118545 161.848556 
L 276.200727 194.539141 
L 277.282909 171.658469 
L 278.365091 205.362927 
L 279.447273 210.654176 
L 281.611636 175.626899 
L 282.693818 210.510743 
L 283.776 164.106828 
L 284.858182 223.840213 
L 285.940364 188.267839 
L 287.022545 179.649788 
L 288.104727 173.516029 
L 289.186909 211.645426 
L 290.269091 175.086334 
L 291.351273 180.03638 
L 292.433455 187.136101 
L 293.515636 173.890298 
L 294.597818 204.443642 
L 295.68 185.776685 
L 296.762182 187.068638 
L 297.844364 195.158754 
L 298.926545 209.631336 
L 300.008727 193.29488 
L 301.090909 184.657292 
L 302.173091 196.513039 
L 303.255273 193.887559 
L 304.337455 197.447484 
L 305.419636 198.524996 
L 306.501818 207.036619 
L 307.584 207.832812 
L 308.666182 202.204468 
L 309.748364 198.157685 
L 310.830545 204.313489 
L 311.912727 179.367336 
L 312.994909 194.377589 
L 314.077091 194.223352 
L 315.159273 199.981316 
L 316.241455 185.1693 
L 317.323636 195.876674 
L 318.405818 199.89539 
L 319.488 192.048243 
L 320.570182 197.225375 
L 321.652364 192.947011 
L 322.734545 205.518764 
L 323.816727 189.84685 
L 324.898909 190.599488 
L 325.981091 191.745398 
L 327.063273 195.850544 
L 328.145455 196.51733 
L 329.227636 194.038031 
L 330.309818 191.936238 
L 331.392 199.70523 
L 332.474182 198.114459 
L 333.556364 193.298958 
L 334.638545 191.332757 
L 335.720727 193.294142 
L 336.802909 191.039494 
L 337.885091 187.368033 
L 340.049455 189.424443 
L 341.131636 193.439205 
L 342.213818 189.72546 
L 343.296 197.721282 
L 344.378182 188.621394 
L 345.460364 203.479852 
L 346.542545 191.744623 
L 347.624727 190.076632 
L 348.706909 197.63513 
L 349.789091 197.192104 
L 350.871273 189.62059 
L 351.953455 189.369435 
L 353.035636 195.0502 
L 354.117818 194.428979 
L 355.2 192.300808 
L 356.282182 184.496265 
L 357.364364 190.563235 
L 358.446545 192.025051 
L 359.528727 192.976891 
L 360.610909 188.50181 
L 361.693091 193.269123 
L 362.775273 191.678842 
L 363.857455 194.705635 
L 364.939636 194.467505 
L 366.021818 193.259847 
L 367.104 190.883577 
L 368.186182 191.653918 
L 369.268364 191.401382 
L 370.350545 192.508064 
L 371.432727 190.732864 
L 372.514909 192.744681 
L 373.597091 193.397982 
L 374.679273 193.10822 
L 375.761455 193.414654 
L 376.843636 193.395029 
L 377.925818 194.291744 
L 379.008 194.690169 
L 380.090182 194.64899 
L 381.172364 194.08934 
L 382.254545 195.055484 
L 383.336727 195.288732 
L 384.418909 195.307509 
L 385.501091 195.708149 
L 386.583273 195.768595 
L 387.665455 196.563414 
L 388.747636 194.971876 
L 389.829818 194.516681 
L 390.912 194.347358 
L 391.994182 194.016798 
L 393.076364 195.740024 
L 394.158545 196.386263 
L 395.240727 193.470356 
L 396.322909 195.393281 
L 397.405091 193.197742 
L 398.487273 194.164982 
L 398.487273 194.164982 
" clip-path="url(#pa18b5b2c2b)" style="fill: none; stroke: #8c564b; stroke-width: 1.5; stroke-linecap: square"/>
   </g>
  </g>
 </g>
 <defs>
  <clipPath id="pa18b5b2c2b">
   <rect x="57.6" y="41.472" width="357.12" height="266.112"/>
  </clipPath>
 </defs>
</svg>
