<?xml version="1.0" encoding="utf-8" standalone="no"?>
<!DOCTYPE svg PUBLIC "-//W3C//DTD SVG 1.1//EN"
  "http://www.w3.org/Graphics/SVG/1.1/DTD/svg11.dtd">
<svg xmlns:xlink="http://www.w3.org/1999/xlink" width="460.8pt" height="345.6pt" viewBox="0 0 460.8 345.6" xmlns="http://www.w3.org/2000/svg" version="1.1">
 <metadata>
  <rdf:RDF xmlns:dc="http://purl.org/dc/elements/1.1/" xmlns:cc="http://creativecommons.org/ns#" xmlns:rdf="http://www.w3.org/1999/02/22-rdf-syntax-ns#">
   <cc:Work>
    <dc:type rdf:resource="http://purl.org/dc/dcmitype/StillImage"/>
    <dc:date>2026-03-18T20:51:20.038060</dc:date>
    <dc:format>image/svg+xml</dc:format>
    <dc:creator>
     <cc:Agent>
      <dc:title>Matplotlib v3.10.8, https://matplotlib.org/</dc:title>
     </cc:Agent>
    </dc:creator>
   </cc:Work>
  </rdf:RDF>
 </metadata>
 <defs>
  <style type="text/css">*{stroke-linejoin: round; stroke-linecap: butt}</style>
 </defs>
 <g id="figure_1">
  <g id="patch_1">
   <path d="M 0 345.6 
L 460.8 345.6 
L 460.8 0 
L 0 0 
z
" style="fill: #ffffff"/>
  </g>
  <g id="axes_1">
   <g id="patch_2">
    <path d="M 57.6 307.584 
L 414.72 307.584 
L 414.72 41.472 
L 57.6 41.472 
z
" style="fill: #ffffff"/>
   </g>
   <g id="matplotlib.axis_1">
    <g id="xtick_1">
     <g id="line2d_1">
      <defs>
       <path id="m3e1c54bd6a" d="M 0 0 
L 0 3.5 
" style="stroke: #000000; stroke-width: 0.8"/>
      </defs>
      <g>
       <use xlink:href="#m3e1c54bd6a" x="73.832727" y="307.584" style="stroke: #000000; stroke-width: 0.8"/>
      </g>
     </g>
     <g id="text_1">
      <!-- 0 -->
      <g transform="translate(70.651477 322.182437) scale(0.1 -0.1)">
       <defs>
        <path id="DejaVuSans-30" d="M 2034 4250 
Q 1547 4250 1301 3770 
Q 1056 3291 1056 2328 
Q 1056 1369 1301 889 
Q 1547 409 2034 409 
Q 2525 409 2770 889 
Q 3016 1369 3016 2328 
Q 3016 3291 2770 3770 
Q 2525 4250 2034 4250 
z
M 2034 4750 
Q 2819 4750 3233 4129 
Q 3647 3509 3647 2328 
Q 3647 1150 3233 529 
Q 2819 -91 2034 -91 
Q 1250 -91 836 529 
Q 422 1150 422 2328 
Q 422 3509 836 4129 
Q 1250 4750 2034 4750 
z
" transform="scale(0.015625)"/>
       </defs>
       <use xlink:href="#DejaVuSans-30"/>
      </g>
     </g>
    </g>
    <g id="xtick_2">
     <g id="line2d_2">
      <g>
       <use xlink:href="#m3e1c54bd6a" x="117.12" y="307.584" style="stroke: #000000; stroke-width: 0.8"/>
      </g>
     </g>
     <g id="text_2">
      <!-- 20 -->
      <g transform="translate(110.7575 322.182437) scale(0.1 -0.1)">
       <defs>
        <path id="DejaVuSans-32" d="M 1228 531 
L 3431 531 
L 3431 0 
L 469 0 
L 469 531 
Q 828 903 1448 1529 
Q 2069 2156 2228 2338 
Q 2531 2678 2651 2914 
Q 2772 3150 2772 3378 
Q 2772 3750 2511 3984 
Q 2250 4219 1831 4219 
Q 1534 4219 1204 4116 
Q 875 4013 500 3803 
L 500 4441 
Q 881 4594 1212 4672 
Q 1544 4750 1819 4750 
Q 2544 4750 2975 4387 
Q 3406 4025 3406 3419 
Q 3406 3131 3298 2873 
Q 3191 2616 2906 2266 
Q 2828 2175 2409 1742 
Q 1991 1309 1228 531 
z
" transform="scale(0.015625)"/>
       </defs>
       <use xlink:href="#DejaVuSans-32"/>
       <use xlink:href="#DejaVuSans-30" transform="translate(63.623047 0)"/>
      </g>
     </g>
    </g>
    <g id="xtick_3">
     <g id="line2d_3">
      <g>
       <use xlink:href="#m3e1c54bd6a" x="160.407273" y="307.584" style="stroke: #000000; stroke-width: 0.8"/>
      </g>
     </g>
     <g id="text_3">
      <!-- 40 -->
      <g transform="translate(154.044773 322.182437) scale(0.1 -0.1)">
       <defs>
        <path id="DejaVuSans-34" d="M 2419 4116 
L 825 1625 
L 2419 1625 
L 2419 4116 
z
M 2253 4666 
L 3047 4666 
L 3047 1625 
L 3713 1625 
L 3713 1100 
L 3047 1100 
L 3047 0 
L 2419 0 
L 2419 1100 
L 313 1100 
L 313 1709 
L 2253 4666 
z
" transform="scale(0.015625)"/>
       </defs>
       <use xlink:href="#DejaVuSans-34"/>
       <use xlink:href="#DejaVuSans-30" transform="translate(63.623047 0)"/>
      </g>
     </g>
    </g>
    <g id="xtick_4">
     <g id="line2d_4">
      <g>
       <use xlink:href="#m3e1c54bd6a" x="203.694545" y="307.584" style="stroke: #000000; stroke-width: 0.8"/>
      </g>
     </g>
     <g id="text_4">
      <!-- 60 -->
      <g transform="translate(197.332045 322.182437) scale(0.1 -0.1)">
       <defs>
        <path id="DejaVuSans-36" d="M 2113 2584 
Q 1688 2584 1439 2293 
Q 1191 2003 1191 1497 
Q 1191 994 1439 701 
Q 1688 409 2113 409 
Q 2538 409 2786 701 
Q 3034 994 3034 1497 
Q 3034 2003 2786 2293 
Q 2538 2584 2113 2584 
z
M 3366 4563 
L 3366 3988 
Q 3128 4100 2886 4159 
Q 2644 4219 2406 4219 
Q 1781 4219 1451 3797 
Q 1122 3375 1075 2522 
Q 1259 2794 1537 2939 
Q 1816 3084 2150 3084 
Q 2853 3084 3261 2657 
Q 3669 2231 3669 1497 
Q 3669 778 3244 343 
Q 2819 -91 2113 -91 
Q 1303 -91 875 529 
Q 447 1150 447 2328 
Q 447 3434 972 4092 
Q 1497 4750 2381 4750 
Q 2619 4750 2861 4703 
Q 3103 4656 3366 4563 
z
" transform="scale(0.015625)"/>
       </defs>
       <use xlink:href="#DejaVuSans-36"/>
       <use xlink:href="#DejaVuSans-30" transform="translate(63.623047 0)"/>
      </g>
     </g>
    </g>
    <g id="xtick_5">
     <g id="line2d_5">
      <g>
       <use xlink:href="#m3e1c54bd6a" x="246.981818" y="307.584" style="stroke: #000000; stroke-width: 0.8"/>
      </g>
     </g>
     <g id="text_5">
      <!-- 80 -->
      <g transform="translate(240.619318 322.182437) scale(0.1 -0.1)">
       <defs>
        <path id="DejaVuSans-38" d="M 2034 2216 
Q 1584 2216 1326 1975 
Q 1069 1734 1069 1313 
Q 1069 891 1326 650 
Q 1584 409 2034 409 
Q 2484 409 2743 651 
Q 3003 894 3003 1313 
Q 3003 1734 2745 1975 
Q 2488 2216 2034 2216 
z
M 1403 2484 
Q 997 2584 770 2862 
Q 544 3141 544 3541 
Q 544 4100 942 4425 
Q 1341 4750 2034 4750 
Q 2731 4750 3128 4425 
Q 3525 4100 3525 3541 
Q 3525 3141 3298 2862 
Q 3072 2584 2669 2484 
Q 3125 2378 3379 2068 
Q 3634 1759 3634 1313 
Q 3634 634 3220 271 
Q 2806 -91 2034 -91 
Q 1263 -91 848 271 
Q 434 634 434 1313 
Q 434 1759 690 2068 
Q 947 2378 1403 2484 
z
M 1172 3481 
Q 1172 3119 1398 2916 
Q 1625 2713 2034 2713 
Q 2441 2713 2670 2916 
Q 2900 3119 2900 3481 
Q 2900 3844 2670 4047 
Q 2441 4250 2034 4250 
Q 1625 4250 1398 4047 
Q 1172 3844 1172 3481 
z
" transform="scale(0.015625)"/>
       </defs>
       <use xlink:href="#DejaVuSans-38"/>
       <use xlink:href="#DejaVuSans-30" transform="translate(63.623047 0)"/>
      </g>
     </g>
    </g>
    <g id="xtick_6">
     <g id="line2d_6">
      <g>
       <use xlink:href="#m3e1c54bd6a" x="290.269091" y="307.584" style="stroke: #000000; stroke-width: 0.8"/>
      </g>
     </g>
     <g id="text_6">
      <!-- 100 -->
      <g transform="translate(280.725341 322.182437) scale(0.1 -0.1)">
       <defs>
        <path id="DejaVuSans-31" d="M 794 531 
L 1825 531 
L 1825 4091 
L 703 3866 
L 703 4441 
L 1819 4666 
L 2450 4666 
L 2450 531 
L 3481 531 
L 3481 0 
L 794 0 
L 794 531 
z
" transform="scale(0.015625)"/>
       </defs>
       <use xlink:href="#DejaVuSans-31"/>
       <use xlink:href="#DejaVuSans-30" transform="translate(63.623047 0)"/>
       <use xlink:href="#DejaVuSans-30" transform="translate(127.246094 0)"/>
      </g>
     </g>
    </g>
    <g id="xtick_7">
     <g id="line2d_7">
      <g>
       <use xlink:href="#m3e1c54bd6a" x="333.556364" y="307.584" style="stroke: #000000; stroke-width: 0.8"/>
      </g>
     </g>
     <g id="text_7">
      <!-- 120 -->
      <g transform="translate(324.012614 322.182437) scale(0.1 -0.1)">
       <use xlink:href="#DejaVuSans-31"/>
       <use xlink:href="#DejaVuSans-32" transform="translate(63.623047 0)"/>
       <use xlink:href="#DejaVuSans-30" transform="translate(127.246094 0)"/>
      </g>
     </g>
    </g>
    <g id="xtick_8">
     <g id="line2d_8">
      <g>
       <use xlink:href="#m3e1c54bd6a" x="376.843636" y="307.584" style="stroke: #000000; stroke-width: 0.8"/>
      </g>
     </g>
     <g id="text_8">
      <!-- 140 -->
      <g transform="translate(367.299886 322.182437) scale(0.1 -0.1)">
       <use xlink:href="#DejaVuSans-31"/>
       <use xlink:href="#DejaVuSans-34" transform="translate(63.623047 0)"/>
       <use xlink:href="#DejaVuSans-30" transform="translate(127.246094 0)"/>
      </g>
     </g>
    </g>
   </g>
   <g id="matplotlib.axis_2">
    <g id="ytick_1">
     <g id="line2d_9">
      <defs>
       <path id="m3ea5c18084" d="M 0 0 
L -3.5 0 
" style="stroke: #000000; stroke-width: 0.8"/>
      </defs>
      <g>
       <use xlink:href="#m3ea5c18084" x="57.6" y="266.633638" style="stroke: #000000; stroke-width: 0.8"/>
      </g>
     </g>
     <g id="text_9">
      <!-- 0.2 -->
      <g transform="translate(34.696875 270.432857) scale(0.1 -0.1)">
       <defs>
        <path id="DejaVuSans-2e" d="M 684 794 
L 1344 794 
L 1344 0 
L 684 0 
L 684 794 
z
" transform="scale(0.015625)"/>
       </defs>
       <use xlink:href="#DejaVuSans-30"/>
       <use xlink:href="#DejaVuSans-2e" transform="translate(63.623047 0)"/>
       <use xlink:href="#DejaVuSans-32" transform="translate(95.410156 0)"/>
      </g>
     </g>
    </g>
    <g id="ytick_2">
     <g id="line2d_10">
      <g>
       <use xlink:href="#m3ea5c18084" x="57.6" y="213.164407" style="stroke: #000000; stroke-width: 0.8"/>
      </g>
     </g>
     <g id="text_10">
      <!-- 0.4 -->
      <g transform="translate(34.696875 216.963625) scale(0.1 -0.1)">
       <use xlink:href="#DejaVuSans-30"/>
       <use xlink:href="#DejaVuSans-2e" transform="translate(63.623047 0)"/>
       <use xlink:href="#DejaVuSans-34" transform="translate(95.410156 0)"/>
      </g>
     </g>
    </g>
    <g id="ytick_3">
     <g id="line2d_11">
      <g>
       <use xlink:href="#m3ea5c18084" x="57.6" y="159.695176" style="stroke: #000000; stroke-width: 0.8"/>
      </g>
     </g>
     <g id="text_11">
      <!-- 0.6 -->
      <g transform="translate(34.696875 163.494394) scale(0.1 -0.1)">
       <use xlink:href="#DejaVuSans-30"/>
       <use xlink:href="#DejaVuSans-2e" transform="translate(63.623047 0)"/>
       <use xlink:href="#DejaVuSans-36" transform="translate(95.410156 0)"/>
      </g>
     </g>
    </g>
    <g id="ytick_4">
     <g id="line2d_12">
      <g>
       <use xlink:href="#m3ea5c18084" x="57.6" y="106.225945" style="stroke: #000000; stroke-width: 0.8"/>
      </g>
     </g>
     <g id="text_12">
      <!-- 0.8 -->
      <g transform="translate(34.696875 110.025163) scale(0.1 -0.1)">
       <use xlink:href="#DejaVuSans-30"/>
       <use xlink:href="#DejaVuSans-2e" transform="translate(63.623047 0)"/>
       <use xlink:href="#DejaVuSans-38" transform="translate(95.410156 0)"/>
      </g>
     </g>
    </g>
    <g id="ytick_5">
     <g id="line2d_13">
      <g>
       <use xlink:href="#m3ea5c18084" x="57.6" y="52.756714" style="stroke: #000000; stroke-width: 0.8"/>
      </g>
     </g>
     <g id="text_13">
      <!-- 1.0 -->
      <g transform="translate(34.696875 56.555932) scale(0.1 -0.1)">
       <use xlink:href="#DejaVuSans-31"/>
       <use xlink:href="#DejaVuSans-2e" transform="translate(63.623047 0)"/>
       <use xlink:href="#DejaVuSans-30" transform="translate(95.410156 0)"/>
      </g>
     </g>
    </g>
   </g>
   <g id="line2d_14">
    <path d="M 73.832727 192.994635 
L 75.997091 158.922844 
L 78.161455 149.060739 
L 80.325818 143.297948 
L 82.490182 134.549784 
L 84.654545 129.410787 
L 86.818909 120.276469 
L 88.983273 121.895408 
L 91.147636 119.518979 
L 93.312 110.99362 
L 95.476364 114.186913 
L 97.640727 112.627395 
L 99.805091 108.736034 
L 101.969455 107.874584 
L 104.133818 101.978113 
L 106.298182 103.240569 
L 108.462545 103.923802 
L 110.626909 100.641368 
L 112.791273 100.685922 
L 114.955636 97.522332 
L 117.12 95.012256 
L 119.284364 91.21002 
L 121.448727 92.398218 
L 123.613091 91.611026 
L 125.777455 91.774392 
L 127.941818 88.447436 
L 130.106182 87.897883 
L 132.270545 87.066152 
L 134.434909 87.140393 
L 136.599273 86.115561 
L 138.763636 83.650055 
L 140.928 82.625222 
L 143.092364 79.120016 
L 145.256727 78.228863 
L 147.421091 78.822971 
L 149.585455 74.797915 
L 151.749818 76.223769 
L 153.914182 79.847787 
L 156.078545 79.625015 
L 158.242909 78.33284 
L 160.407273 75.198953 
L 162.571636 77.501077 
L 164.736 75.213804 
L 166.900364 80.872604 
L 169.064727 73.580013 
L 171.229091 70.654079 
L 173.393455 70.163916 
L 175.557818 72.258135 
L 177.722182 71.366966 
L 179.886545 68.886592 
L 182.050909 70.772859 
L 184.215273 68.916295 
L 186.379636 67.846909 
L 188.544 67.7578 
L 190.708364 70.535235 
L 192.872727 69.347036 
L 195.037091 66.272539 
L 197.201455 63.406011 
L 199.365818 62.559397 
L 201.530182 63.658486 
L 203.694545 63.732744 
L 205.858909 62.871326 
L 208.023273 63.717924 
L 210.187636 68.708359 
L 212.352 71.649192 
L 214.516364 64.401124 
L 216.680727 67.713245 
L 218.845091 63.257464 
L 221.009455 60.67313 
L 223.173818 61.08902 
L 225.338182 60.732536 
L 227.502545 62.29207 
L 229.666909 63.153504 
L 231.831273 61.87618 
L 233.995636 61.757368 
L 236.16 60.910754 
L 238.324364 59.202721 
L 240.488727 58.935379 
L 242.653091 57.821453 
L 244.817455 58.08878 
L 246.981818 58.772012 
L 249.146182 60.079023 
L 251.310545 59.247308 
L 253.474909 58.682887 
L 255.639273 57.865992 
L 257.803636 57.74718 
L 259.968 56.915433 
L 262.132364 56.722364 
L 264.296727 56.737215 
L 266.461091 58.623481 
L 268.625455 56.633223 
L 270.789818 56.841175 
L 275.118545 56.544114 
L 277.282909 56.662958 
L 279.447273 56.395583 
L 281.611636 55.875765 
L 283.776 55.712367 
L 285.940364 55.385618 
L 288.104727 55.385618 
L 290.269091 55.088572 
L 296.762182 55.311345 
L 298.926545 54.954909 
L 301.090909 55.044018 
L 303.255273 54.657831 
L 305.419636 54.806362 
L 307.584 54.598441 
L 309.748364 54.68755 
L 314.077091 54.53902 
L 316.241455 54.776643 
L 320.570182 54.345934 
L 322.734545 54.553871 
L 324.898909 54.375637 
L 327.063273 54.464762 
L 329.227636 54.286528 
L 331.392 54.405356 
L 333.556364 54.241974 
L 335.720727 54.494465 
L 337.885091 54.182568 
L 340.049455 54.405356 
L 342.213818 54.093459 
L 344.378182 54.286528 
L 348.706909 54.004318 
L 350.871273 53.870687 
L 353.035636 53.855803 
L 357.364364 54.093459 
L 361.693091 53.885506 
L 368.186182 54.093427 
L 370.350545 54.019202 
L 372.514909 54.093459 
L 374.679273 53.900358 
L 379.008 54.00435 
L 381.172364 54.167716 
L 383.336727 53.870655 
L 387.665455 54.00435 
L 389.829818 53.870655 
L 391.994182 53.944944 
L 394.158545 53.840952 
L 396.322909 53.870655 
L 398.487273 54.078608 
L 398.487273 54.078608 
" clip-path="url(#pbf7eccceb9)" style="fill: none; stroke: #1f77b4; stroke-width: 1.5; stroke-linecap: square"/>
   </g>
   <g id="line2d_15">
    <path d="M 73.832727 231.902393 
L 75.997091 84.945178 
L 78.161455 72.258374 
L 80.325818 104.40077 
L 82.490182 101.635939 
L 84.654545 102.16876 
L 86.818909 102.481901 
L 88.983273 104.48631 
L 91.147636 96.778483 
L 93.312 88.558726 
L 95.476364 85.723702 
L 97.640727 100.799794 
L 99.805091 96.579263 
L 101.969455 95.04564 
L 104.133818 95.342892 
L 106.298182 92.431092 
L 108.462545 92.929478 
L 110.626909 93.168392 
L 112.791273 86.459456 
L 114.955636 87.224068 
L 117.12 85.247865 
L 119.284364 82.525788 
L 121.448727 86.073365 
L 123.613091 82.060627 
L 125.777455 87.776474 
L 127.941818 88.472486 
L 130.106182 87.384694 
L 132.270545 80.091849 
L 134.434909 78.968681 
L 136.599273 84.118418 
L 138.763636 79.987139 
L 140.928 73.490092 
L 143.092364 73.242588 
L 145.256727 73.385669 
L 147.421091 75.807322 
L 149.585455 70.968271 
L 151.749818 72.469928 
L 153.914182 75.802669 
L 156.078545 79.751954 
L 158.242909 73.776843 
L 160.407273 72.888829 
L 162.571636 72.611001 
L 164.736 70.271844 
L 166.900364 75.280811 
L 169.064727 68.45523 
L 171.229091 67.680435 
L 173.393455 66.027633 
L 175.557818 69.03337 
L 177.722182 69.030948 
L 179.886545 66.483902 
L 182.050909 71.446976 
L 186.379636 63.998397 
L 188.544 66.664016 
L 190.708364 67.058999 
L 192.872727 66.14968 
L 195.037091 65.733791 
L 197.201455 63.084298 
L 199.365818 62.74324 
L 201.530182 64.257948 
L 203.694545 61.980778 
L 205.858909 62.727543 
L 208.023273 62.774918 
L 210.187636 66.497782 
L 212.352 74.074574 
L 214.516364 63.541013 
L 216.680727 66.596436 
L 218.845091 62.616062 
L 221.009455 61.817842 
L 223.173818 60.839285 
L 225.338182 59.46028 
L 227.502545 59.960068 
L 229.666909 60.818155 
L 231.831273 61.307681 
L 233.995636 60.59269 
L 236.16 59.508659 
L 238.324364 58.63913 
L 240.488727 57.928967 
L 242.653091 57.353297 
L 244.817455 57.871633 
L 246.981818 59.23687 
L 249.146182 59.693139 
L 251.310545 59.756433 
L 253.474909 57.708442 
L 255.639273 57.179955 
L 259.968 56.579968 
L 262.132364 56.55181 
L 264.296727 56.886766 
L 266.461091 56.059751 
L 268.625455 56.691784 
L 270.789818 56.300865 
L 272.954182 56.535812 
L 275.118545 56.481505 
L 277.282909 56.649142 
L 279.447273 55.992681 
L 281.611636 55.588934 
L 283.776 55.573285 
L 288.104727 54.924314 
L 292.433455 55.093879 
L 294.597818 54.749745 
L 296.762182 54.939436 
L 298.926545 54.581869 
L 301.090909 54.938862 
L 303.255273 54.522782 
L 305.419636 54.763752 
L 307.584 54.369964 
L 309.748364 54.671105 
L 311.912727 54.738893 
L 314.077091 54.501365 
L 316.241455 54.81578 
L 318.405818 54.526224 
L 320.570182 54.118381 
L 322.734545 54.391955 
L 324.898909 54.149997 
L 329.227636 54.297237 
L 331.392 54.466419 
L 333.556364 54.447377 
L 335.720727 54.62279 
L 337.885091 54.390648 
L 340.049455 54.514033 
L 342.213818 54.22172 
L 344.378182 54.479215 
L 346.542545 54.191635 
L 350.871273 53.957628 
L 357.364364 54.274179 
L 361.693091 54.009147 
L 366.021818 53.930937 
L 372.514909 54.354157 
L 374.679273 53.964226 
L 376.843636 53.934634 
L 379.008 54.166394 
L 381.172364 54.256985 
L 383.336727 54.064648 
L 385.501091 54.05496 
L 387.665455 54.208638 
L 389.829818 53.866161 
L 391.994182 54.084567 
L 394.158545 53.772431 
L 396.322909 53.985005 
L 398.487273 54.047725 
L 398.487273 54.047725 
" clip-path="url(#pbf7eccceb9)" style="fill: none; stroke: #ff7f0e; stroke-width: 1.5; stroke-linecap: square"/>
   </g>
   <g id="line2d_16">
    <path d="M 73.832727 142.790113 
L 75.997091 280.16484 
L 78.161455 273.882298 
L 80.325818 210.312194 
L 82.490182 193.199392 
L 84.654545 176.984612 
L 86.818909 151.717833 
L 88.983273 153.899249 
L 91.147636 159.300904 
L 93.312 148.699109 
L 95.476364 164.428746 
L 97.640727 133.489831 
L 99.805091 130.982065 
L 101.969455 129.840986 
L 104.133818 114.198338 
L 106.298182 121.346668 
L 108.462545 123.405193 
L 110.626909 114.74668 
L 112.791273 124.351736 
L 114.955636 115.62075 
L 117.12 112.238388 
L 119.284364 107.356726 
L 121.448727 104.772472 
L 123.613091 107.376039 
L 125.777455 99.000756 
L 127.941818 89.24744 
L 130.106182 89.747228 
L 132.270545 99.516591 
L 134.434909 101.559021 
L 136.599273 91.166023 
L 138.763636 90.150162 
L 140.928 96.986595 
L 143.092364 89.011235 
L 145.256727 87.0397 
L 147.421091 83.924186 
L 149.585455 81.828198 
L 151.749818 82.535094 
L 153.914182 86.573487 
L 156.078545 80.28836 
L 158.242909 85.863165 
L 160.407273 79.050986 
L 162.571636 85.760735 
L 164.736 83.731324 
L 166.900364 91.194547 
L 169.064727 82.170324 
L 171.229091 76.170578 
L 173.393455 77.377931 
L 175.557818 78.320394 
L 177.722182 76.166036 
L 179.886545 72.855764 
L 182.050909 69.765045 
L 184.215273 70.788157 
L 186.379636 74.2831 
L 188.544 69.882471 
L 190.708364 76.080306 
L 192.872727 74.159317 
L 195.037091 67.361973 
L 197.201455 64.12889 
L 199.365818 62.844124 
L 201.530182 63.282642 
L 203.694545 66.848799 
L 205.858909 63.637627 
L 208.023273 65.251197 
L 210.187636 72.079152 
L 212.352 68.401911 
L 214.516364 65.867326 
L 216.680727 69.699727 
L 221.009455 59.060039 
L 223.173818 61.361191 
L 225.338182 62.942779 
L 227.502545 66.475393 
L 229.666909 67.586641 
L 231.831273 63.06567 
L 233.995636 63.78227 
L 236.16 63.374125 
L 238.324364 60.31926 
L 240.488727 60.590778 
L 242.653091 58.695954 
L 244.817455 58.529353 
L 246.981818 58.175037 
L 249.146182 60.665402 
L 251.310545 58.391546 
L 253.474909 60.388896 
L 255.639273 59.129213 
L 257.803636 59.262255 
L 259.968 57.624623 
L 264.296727 56.611328 
L 266.461091 62.451054 
L 268.625455 56.550552 
L 270.789818 57.818187 
L 272.954182 56.791235 
L 275.118545 56.616236 
L 277.282909 56.721152 
L 279.447273 57.263104 
L 281.611636 56.39034 
L 283.776 55.958882 
L 285.940364 55.758961 
L 288.104727 56.281376 
L 290.269091 55.229008 
L 292.433455 55.325909 
L 294.597818 56.232025 
L 303.255273 54.839173 
L 305.419636 54.848527 
L 307.584 54.969123 
L 311.912727 54.453799 
L 316.241455 54.756756 
L 318.405818 54.583749 
L 322.734545 54.82695 
L 324.898909 54.743737 
L 327.063273 54.882883 
L 329.227636 54.259821 
L 331.392 54.29781 
L 333.556364 53.923878 
L 335.720727 54.231234 
L 337.885091 53.818117 
L 340.049455 54.187747 
L 342.213818 53.87228 
L 344.378182 53.959573 
L 350.871273 53.708691 
L 353.035636 53.568 
L 355.2 53.800987 
L 359.528727 53.855262 
L 361.693091 53.676613 
L 363.857455 54.006422 
L 368.186182 54.051215 
L 370.350545 53.703767 
L 372.514909 53.681537 
L 376.843636 53.95731 
L 379.008 53.75605 
L 381.172364 54.012907 
L 383.336727 53.568845 
L 385.501091 53.707145 
L 387.665455 53.655643 
L 389.829818 53.871149 
L 391.994182 53.699512 
L 394.158545 53.986248 
L 396.322909 53.689186 
L 398.487273 54.157136 
L 398.487273 54.157136 
" clip-path="url(#pbf7eccceb9)" style="fill: none; stroke: #2ca02c; stroke-width: 1.5; stroke-linecap: square"/>
   </g>
   <g id="line2d_17">
    <path d="M 73.832727 230.83895 
L 75.997091 177.963822 
L 80.325818 155.090873 
L 82.490182 162.814221 
L 84.654545 160.512065 
L 86.818909 152.417414 
L 88.983273 159.398124 
L 91.147636 170.834598 
L 93.312 135.931084 
L 95.476364 167.641305 
L 97.640727 161.254687 
L 99.805091 156.798922 
L 101.969455 161.997325 
L 104.133818 143.877188 
L 106.298182 151.823323 
L 108.462545 169.869171 
L 110.626909 152.491672 
L 112.791273 154.422493 
L 114.955636 157.615818 
L 117.12 150.783639 
L 119.284364 164.002403 
L 121.448727 152.417414 
L 123.613091 146.550647 
L 125.777455 149.669682 
L 127.941818 154.71957 
L 130.106182 145.13966 
L 132.270545 161.477491 
L 134.434909 149.521167 
L 136.599273 159.472381 
L 138.763636 151.006428 
L 140.928 144.322764 
L 143.092364 149.44691 
L 145.256727 153.976932 
L 147.421091 152.417414 
L 149.585455 150.635108 
L 151.749818 142.391943 
L 153.914182 156.204831 
L 156.078545 149.298379 
L 158.242909 148.035907 
L 160.407273 160.957625 
L 162.571636 144.842614 
L 164.736 154.051206 
L 166.900364 156.130573 
L 169.064727 145.956555 
L 171.229091 157.690075 
L 173.393455 150.560851 
L 175.557818 155.759238 
L 177.722182 150.338063 
L 179.886545 151.526246 
L 182.050909 146.921966 
L 184.215273 148.629998 
L 186.379636 153.605613 
L 188.544 150.189532 
L 190.708364 164.522253 
L 192.872727 157.170241 
L 195.037091 148.332969 
L 197.201455 155.907769 
L 199.365818 153.531356 
L 201.530182 149.44691 
L 203.694545 152.565945 
L 205.858909 154.57104 
L 208.023273 152.640219 
L 210.187636 153.976932 
L 212.352 147.144754 
L 214.516364 151.451988 
L 216.680727 150.041017 
L 218.845091 151.897581 
L 221.009455 152.862991 
L 223.173818 151.2292 
L 225.338182 148.407226 
L 227.502545 155.833512 
L 229.666909 159.32385 
L 231.831273 150.41232 
L 233.995636 147.367542 
L 236.16 147.961649 
L 238.324364 147.887392 
L 240.488727 147.219011 
L 242.653091 149.595425 
L 244.817455 151.154942 
L 246.981818 147.738861 
L 249.146182 158.87829 
L 251.310545 148.778545 
L 253.474909 150.635108 
L 257.803636 152.343157 
L 259.968 152.268884 
L 262.132364 153.011522 
L 264.296727 151.006428 
L 268.625455 150.189532 
L 270.789818 146.847708 
L 272.954182 149.446894 
L 275.118545 147.813119 
L 277.282909 151.377731 
L 279.447273 151.823323 
L 281.611636 150.783639 
L 283.776 152.120369 
L 285.940364 151.526261 
L 288.104727 150.41232 
L 290.269091 151.080685 
L 292.433455 149.595441 
L 294.597818 151.154942 
L 296.762182 150.041001 
L 301.090909 149.224106 
L 303.255273 149.001317 
L 305.419636 149.818213 
L 309.748364 150.635108 
L 311.912727 149.521167 
L 314.077091 150.486578 
L 320.570182 150.338063 
L 322.734545 149.89247 
L 324.898909 149.818213 
L 327.063273 150.560835 
L 329.227636 149.075591 
L 331.392 149.446894 
L 333.556364 148.704288 
L 335.720727 148.332969 
L 337.885091 149.669698 
L 340.049455 149.89247 
L 342.213818 150.560851 
L 344.378182 150.932138 
L 346.542545 150.263805 
L 348.706909 149.966728 
L 350.871273 150.486578 
L 353.035636 150.263789 
L 355.2 150.486578 
L 357.364364 150.857897 
L 359.528727 150.560851 
L 361.693091 150.635108 
L 366.021818 151.154958 
L 368.186182 150.709366 
L 370.350545 150.635108 
L 372.514909 150.709366 
L 374.679273 150.635108 
L 376.843636 150.41232 
L 381.172364 150.857913 
L 383.336727 150.040985 
L 387.665455 150.560851 
L 389.829818 150.41232 
L 391.994182 150.709366 
L 394.158545 150.040985 
L 396.322909 150.635093 
L 398.487273 150.635093 
L 398.487273 150.635093 
" clip-path="url(#pbf7eccceb9)" style="fill: none; stroke: #d62728; stroke-width: 1.5; stroke-linecap: square"/>
   </g>
   <g id="patch_3">
    <path d="M 57.6 307.584 
L 57.6 41.472 
" style="fill: none; stroke: #000000; stroke-width: 0.8; stroke-linejoin: miter; stroke-linecap: square"/>
   </g>
   <g id="patch_4">
    <path d="M 414.72 307.584 
L 414.72 41.472 
" style="fill: none; stroke: #000000; stroke-width: 0.8; stroke-linejoin: miter; stroke-linecap: square"/>
   </g>
   <g id="patch_5">
    <path d="M 57.6 307.584 
L 414.72 307.584 
" style="fill: none; stroke: #000000; stroke-width: 0.8; stroke-linejoin: miter; stroke-linecap: square"/>
   </g>
   <g id="patch_6">
    <path d="M 57.6 41.472 
L 414.72 41.472 
" style="fill: none; stroke: #000000; stroke-width: 0.8; stroke-linejoin: miter; stroke-linecap: square"/>
   </g>
   <g id="text_14">
    <!-- veil3 -->
    <g transform="translate(221.765625 35.472) scale(0.12 -0.12)">
     <defs>
      <path id="DejaVuSans-76" d="M 191 3500 
L 800 3500 
L 1894 563 
L 2988 3500 
L 3597 3500 
L 2284 0 
L 1503 0 
L 191 3500 
z
" transform="scale(0.015625)"/>
      <path id="DejaVuSans-65" d="M 3597 1894 
L 3597 1613 
L 953 1613 
Q 991 1019 1311 708 
Q 1631 397 2203 397 
Q 2534 397 2845 478 
Q 3156 559 3463 722 
L 3463 178 
Q 3153 47 2828 -22 
Q 2503 -91 2169 -91 
Q 1331 -91 842 396 
Q 353 884 353 1716 
Q 353 2575 817 3079 
Q 1281 3584 2069 3584 
Q 2775 3584 3186 3129 
Q 3597 2675 3597 1894 
z
M 3022 2063 
Q 3016 2534 2758 2815 
Q 2500 3097 2075 3097 
Q 1594 3097 1305 2825 
Q 1016 2553 972 2059 
L 3022 2063 
z
" transform="scale(0.015625)"/>
      <path id="DejaVuSans-69" d="M 603 3500 
L 1178 3500 
L 1178 0 
L 603 0 
L 603 3500 
z
M 603 4863 
L 1178 4863 
L 1178 4134 
L 603 4134 
L 603 4863 
z
" transform="scale(0.015625)"/>
      <path id="DejaVuSans-6c" d="M 603 4863 
L 1178 4863 
L 1178 0 
L 603 0 
L 603 4863 
z
" transform="scale(0.015625)"/>
      <path id="DejaVuSans-33" d="M 2597 2516 
Q 3050 2419 3304 2112 
Q 3559 1806 3559 1356 
Q 3559 666 3084 287 
Q 2609 -91 1734 -91 
Q 1441 -91 1130 -33 
Q 819 25 488 141 
L 488 750 
Q 750 597 1062 519 
Q 1375 441 1716 441 
Q 2309 441 2620 675 
Q 2931 909 2931 1356 
Q 2931 1769 2642 2001 
Q 2353 2234 1838 2234 
L 1294 2234 
L 1294 2753 
L 1863 2753 
Q 2328 2753 2575 2939 
Q 2822 3125 2822 3475 
Q 2822 3834 2567 4026 
Q 2313 4219 1838 4219 
Q 1578 4219 1281 4162 
Q 984 4106 628 3988 
L 628 4550 
Q 988 4650 1302 4700 
Q 1616 4750 1894 4750 
Q 2613 4750 3031 4423 
Q 3450 4097 3450 3541 
Q 3450 3153 3228 2886 
Q 3006 2619 2597 2516 
z
" transform="scale(0.015625)"/>
     </defs>
     <use xlink:href="#DejaVuSans-76"/>
     <use xlink:href="#DejaVuSans-65" transform="translate(59.179688 0)"/>
     <use xlink:href="#DejaVuSans-69" transform="translate(120.703125 0)"/>
     <use xlink:href="#DejaVuSans-6c" transform="translate(148.486328 0)"/>
     <use xlink:href="#DejaVuSans-33" transform="translate(176.269531 0)"/>
    </g>
   </g>
   <g id="legend_1">
    <g id="patch_7">
     <path d="M 190.429531 302.584 
L 281.890469 302.584 
Q 283.890469 302.584 283.890469 300.584 
L 283.890469 212.40275 
Q 283.890469 210.40275 281.890469 210.40275 
L 190.429531 210.40275 
Q 188.429531 210.40275 188.429531 212.40275 
L 188.429531 300.584 
Q 188.429531 302.584 190.429531 302.584 
z
" style="fill: #ffffff; opacity: 0.8; stroke: #cccccc; stroke-linejoin: miter"/>
    </g>
    <g id="line2d_18">
     <path d="M 192.429531 218.501187 
L 202.429531 218.501187 
L 212.429531 218.501187 
" style="fill: none; stroke: #1f77b4; stroke-width: 1.5; stroke-linecap: square"/>
    </g>
    <g id="text_15">
     <!-- train -->
     <g transform="translate(220.429531 222.001187) scale(0.1 -0.1)">
      <defs>
       <path id="DejaVuSans-74" d="M 1172 4494 
L 1172 3500 
L 2356 3500 
L 2356 3053 
L 1172 3053 
L 1172 1153 
Q 1172 725 1289 603 
Q 1406 481 1766 481 
L 2356 481 
L 2356 0 
L 1766 0 
Q 1100 0 847 248 
Q 594 497 594 1153 
L 594 3053 
L 172 3053 
L 172 3500 
L 594 3500 
L 594 4494 
L 1172 4494 
z
" transform="scale(0.015625)"/>
       <path id="DejaVuSans-72" d="M 2631 2963 
Q 2534 3019 2420 3045 
Q 2306 3072 2169 3072 
Q 1681 3072 1420 2755 
Q 1159 2438 1159 1844 
L 1159 0 
L 581 0 
L 581 3500 
L 1159 3500 
L 1159 2956 
Q 1341 3275 1631 3429 
Q 1922 3584 2338 3584 
Q 2397 3584 2469 3576 
Q 2541 3569 2628 3553 
L 2631 2963 
z
" transform="scale(0.015625)"/>
       <path id="DejaVuSans-61" d="M 2194 1759 
Q 1497 1759 1228 1600 
Q 959 1441 959 1056 
Q 959 750 1161 570 
Q 1363 391 1709 391 
Q 2188 391 2477 730 
Q 2766 1069 2766 1631 
L 2766 1759 
L 2194 1759 
z
M 3341 1997 
L 3341 0 
L 2766 0 
L 2766 531 
Q 2569 213 2275 61 
Q 1981 -91 1556 -91 
Q 1019 -91 701 211 
Q 384 513 384 1019 
Q 384 1609 779 1909 
Q 1175 2209 1959 2209 
L 2766 2209 
L 2766 2266 
Q 2766 2663 2505 2880 
Q 2244 3097 1772 3097 
Q 1472 3097 1187 3025 
Q 903 2953 641 2809 
L 641 3341 
Q 956 3463 1253 3523 
Q 1550 3584 1831 3584 
Q 2591 3584 2966 3190 
Q 3341 2797 3341 1997 
z
" transform="scale(0.015625)"/>
       <path id="DejaVuSans-6e" d="M 3513 2113 
L 3513 0 
L 2938 0 
L 2938 2094 
Q 2938 2591 2744 2837 
Q 2550 3084 2163 3084 
Q 1697 3084 1428 2787 
Q 1159 2491 1159 1978 
L 1159 0 
L 581 0 
L 581 3500 
L 1159 3500 
L 1159 2956 
Q 1366 3272 1645 3428 
Q 1925 3584 2291 3584 
Q 2894 3584 3203 3211 
Q 3513 2838 3513 2113 
z
" transform="scale(0.015625)"/>
      </defs>
      <use xlink:href="#DejaVuSans-74"/>
      <use xlink:href="#DejaVuSans-72" transform="translate(39.208984 0)"/>
      <use xlink:href="#DejaVuSans-61" transform="translate(80.322266 0)"/>
      <use xlink:href="#DejaVuSans-69" transform="translate(141.601562 0)"/>
      <use xlink:href="#DejaVuSans-6e" transform="translate(169.384766 0)"/>
     </g>
    </g>
    <g id="line2d_19">
     <path d="M 192.429531 233.179312 
L 202.429531 233.179312 
L 212.429531 233.179312 
" style="fill: none; stroke: #ff7f0e; stroke-width: 1.5; stroke-linecap: square"/>
    </g>
    <g id="text_16">
     <!-- train_class0 -->
     <g transform="translate(220.429531 236.679312) scale(0.1 -0.1)">
      <defs>
       <path id="DejaVuSans-5f" d="M 3263 -1063 
L 3263 -1509 
L -63 -1509 
L -63 -1063 
L 3263 -1063 
z
" transform="scale(0.015625)"/>
       <path id="DejaVuSans-63" d="M 3122 3366 
L 3122 2828 
Q 2878 2963 2633 3030 
Q 2388 3097 2138 3097 
Q 1578 3097 1268 2742 
Q 959 2388 959 1747 
Q 959 1106 1268 751 
Q 1578 397 2138 397 
Q 2388 397 2633 464 
Q 2878 531 3122 666 
L 3122 134 
Q 2881 22 2623 -34 
Q 2366 -91 2075 -91 
Q 1284 -91 818 406 
Q 353 903 353 1747 
Q 353 2603 823 3093 
Q 1294 3584 2113 3584 
Q 2378 3584 2631 3529 
Q 2884 3475 3122 3366 
z
" transform="scale(0.015625)"/>
       <path id="DejaVuSans-73" d="M 2834 3397 
L 2834 2853 
Q 2591 2978 2328 3040 
Q 2066 3103 1784 3103 
Q 1356 3103 1142 2972 
Q 928 2841 928 2578 
Q 928 2378 1081 2264 
Q 1234 2150 1697 2047 
L 1894 2003 
Q 2506 1872 2764 1633 
Q 3022 1394 3022 966 
Q 3022 478 2636 193 
Q 2250 -91 1575 -91 
Q 1294 -91 989 -36 
Q 684 19 347 128 
L 347 722 
Q 666 556 975 473 
Q 1284 391 1588 391 
Q 1994 391 2212 530 
Q 2431 669 2431 922 
Q 2431 1156 2273 1281 
Q 2116 1406 1581 1522 
L 1381 1569 
Q 847 1681 609 1914 
Q 372 2147 372 2553 
Q 372 3047 722 3315 
Q 1072 3584 1716 3584 
Q 2034 3584 2315 3537 
Q 2597 3491 2834 3397 
z
" transform="scale(0.015625)"/>
      </defs>
      <use xlink:href="#DejaVuSans-74"/>
      <use xlink:href="#DejaVuSans-72" transform="translate(39.208984 0)"/>
      <use xlink:href="#DejaVuSans-61" transform="translate(80.322266 0)"/>
      <use xlink:href="#DejaVuSans-69" transform="translate(141.601562 0)"/>
      <use xlink:href="#DejaVuSans-6e" transform="translate(169.384766 0)"/>
      <use xlink:href="#DejaVuSans-5f" transform="translate(232.763672 0)"/>
      <use xlink:href="#DejaVuSans-63" transform="translate(282.763672 0)"/>
      <use xlink:href="#DejaVuSans-6c" transform="translate(337.744141 0)"/>
      <use xlink:href="#DejaVuSans-61" transform="translate(365.527344 0)"/>
      <use xlink:href="#DejaVuSans-73" transform="translate(426.806641 0)"/>
      <use xlink:href="#DejaVuSans-73" transform="translate(478.90625 0)"/>
      <use xlink:href="#DejaVuSans-30" transform="translate(531.005859 0)"/>
     </g>
    </g>
    <g id="line2d_20">
     <path d="M 192.429531 248.135562 
L 202.429531 248.135562 
L 212.429531 248.135562 
" style="fill: none; stroke: #2ca02c; stroke-width: 1.5; stroke-linecap: square"/>
    </g>
    <g id="text_17">
     <!-- train_class1 -->
     <g transform="translate(220.429531 251.635562) scale(0.1 -0.1)">
      <use xlink:href="#DejaVuSans-74"/>
      <use xlink:href="#DejaVuSans-72" transform="translate(39.208984 0)"/>
      <use xlink:href="#DejaVuSans-61" transform="translate(80.322266 0)"/>
      <use xlink:href="#DejaVuSans-69" transform="translate(141.601562 0)"/>
      <use xlink:href="#DejaVuSans-6e" transform="translate(169.384766 0)"/>
      <use xlink:href="#DejaVuSans-5f" transform="translate(232.763672 0)"/>
      <use xlink:href="#DejaVuSans-63" transform="translate(282.763672 0)"/>
      <use xlink:href="#DejaVuSans-6c" transform="translate(337.744141 0)"/>
      <use xlink:href="#DejaVuSans-61" transform="translate(365.527344 0)"/>
      <use xlink:href="#DejaVuSans-73" transform="translate(426.806641 0)"/>
      <use xlink:href="#DejaVuSans-73" transform="translate(478.90625 0)"/>
      <use xlink:href="#DejaVuSans-31" transform="translate(531.005859 0)"/>
     </g>
    </g>
    <g id="line2d_21">
     <path d="M 192.429531 263.091812 
L 202.429531 263.091812 
L 212.429531 263.091812 
" style="fill: none; stroke: #d62728; stroke-width: 1.5; stroke-linecap: square"/>
    </g>
    <g id="text_18">
     <!-- test -->
     <g transform="translate(220.429531 266.591812) scale(0.1 -0.1)">
      <use xlink:href="#DejaVuSans-74"/>
      <use xlink:href="#DejaVuSans-65" transform="translate(39.208984 0)"/>
      <use xlink:href="#DejaVuSans-73" transform="translate(100.732422 0)"/>
      <use xlink:href="#DejaVuSans-74" transform="translate(152.832031 0)"/>
     </g>
    </g>
    <g id="line2d_22">
     <path d="M 192.429531 277.769937 
L 202.429531 277.769937 
L 212.429531 277.769937 
" style="fill: none; stroke: #9467bd; stroke-width: 1.5; stroke-linecap: square"/>
    </g>
    <g id="text_19">
     <!-- test_class0 -->
     <g transform="translate(220.429531 281.269937) scale(0.1 -0.1)">
      <use xlink:href="#DejaVuSans-74"/>
      <use xlink:href="#DejaVuSans-65" transform="translate(39.208984 0)"/>
      <use xlink:href="#DejaVuSans-73" transform="translate(100.732422 0)"/>
      <use xlink:href="#DejaVuSans-74" transform="translate(152.832031 0)"/>
      <use xlink:href="#DejaVuSans-5f" transform="translate(192.041016 0)"/>
      <use xlink:href="#DejaVuSans-63" transform="translate(242.041016 0)"/>
      <use xlink:href="#DejaVuSans-6c" transform="translate(297.021484 0)"/>
      <use xlink:href="#DejaVuSans-61" transform="translate(324.804688 0)"/>
      <use xlink:href="#DejaVuSans-73" transform="translate(386.083984 0)"/>
      <use xlink:href="#DejaVuSans-73" transform="translate(438.183594 0)"/>
      <use xlink:href="#DejaVuSans-30" transform="translate(490.283203 0)"/>
     </g>
    </g>
    <g id="line2d_23">
     <path d="M 192.429531 292.726187 
L 202.429531 292.726187 
L 212.429531 292.726187 
" style="fill: none; stroke: #8c564b; stroke-width: 1.5; stroke-linecap: square"/>
    </g>
    <g id="text_20">
     <!-- test_class1 -->
     <g transform="translate(220.429531 296.226187) scale(0.1 -0.1)">
      <use xlink:href="#DejaVuSans-74"/>
      <use xlink:href="#DejaVuSans-65" transform="translate(39.208984 0)"/>
      <use xlink:href="#DejaVuSans-73" transform="translate(100.732422 0)"/>
      <use xlink:href="#DejaVuSans-74" transform="translate(152.832031 0)"/>
      <use xlink:href="#DejaVuSans-5f" transform="translate(192.041016 0)"/>
      <use xlink:href="#DejaVuSans-63" transform="translate(242.041016 0)"/>
      <use xlink:href="#DejaVuSans-6c" transform="translate(297.021484 0)"/>
      <use xlink:href="#DejaVuSans-61" transform="translate(324.804688 0)"/>
      <use xlink:href="#DejaVuSans-73" transform="translate(386.083984 0)"/>
      <use xlink:href="#DejaVuSans-73" transform="translate(438.183594 0)"/>
      <use xlink:href="#DejaVuSans-31" transform="translate(490.283203 0)"/>
     </g>
    </g>
   </g>
   <g id="line2d_24">
    <path d="M 73.832727 233.518162 
L 75.997091 95.918133 
L 78.161455 78.764728 
L 80.325818 140.518552 
L 82.490182 109.634995 
L 84.654545 122.133287 
L 86.818909 123.424665 
L 88.983273 122.246315 
L 91.147636 131.57214 
L 93.312 96.554707 
L 95.476364 117.08853 
L 97.640727 139.021357 
L 99.805091 148.27812 
L 101.969455 137.263065 
L 104.133818 108.242397 
L 106.298182 127.685273 
L 108.462545 176.603716 
L 110.626909 125.662746 
L 112.791273 133.937877 
L 114.955636 150.72801 
L 117.12 115.214757 
L 119.284364 155.914765 
L 121.448727 122.591102 
L 123.613091 107.38807 
L 125.777455 119.312588 
L 127.941818 146.340766 
L 130.106182 110.90706 
L 132.270545 163.752446 
L 134.434909 92.879426 
L 136.599273 148.353047 
L 138.763636 142.146878 
L 140.928 116.465978 
L 143.092364 141.722527 
L 145.256727 128.500241 
L 147.421091 123.194754 
L 149.585455 109.345296 
L 151.749818 118.275119 
L 153.914182 105.500959 
L 156.078545 142.702215 
L 158.242909 126.56166 
L 160.407273 160.465901 
L 162.571636 109.544165 
L 164.736 142.440179 
L 166.900364 130.290228 
L 169.064727 117.20833 
L 171.229091 136.955805 
L 173.393455 140.776366 
L 175.557818 117.889204 
L 177.722182 115.30718 
L 179.886545 130.003508 
L 182.050909 121.777552 
L 184.215273 119.563247 
L 186.379636 130.455889 
L 188.544 112.558858 
L 190.708364 148.491873 
L 192.872727 141.520932 
L 195.037091 122.325145 
L 197.201455 131.366275 
L 199.365818 129.769708 
L 201.530182 118.86043 
L 203.694545 127.52648 
L 205.858909 130.068093 
L 208.023273 140.445681 
L 210.187636 139.788742 
L 212.352 126.544051 
L 214.516364 118.230023 
L 216.680727 125.584792 
L 218.845091 136.394428 
L 221.009455 133.074961 
L 223.173818 122.846573 
L 225.338182 126.406898 
L 227.502545 121.518066 
L 229.666909 136.890471 
L 231.831273 135.750412 
L 233.995636 127.688715 
L 236.16 122.765591 
L 238.324364 116.974626 
L 240.488727 123.13981 
L 242.653091 129.994409 
L 244.817455 133.325891 
L 246.981818 128.433202 
L 249.146182 131.87352 
L 251.310545 123.647055 
L 253.474909 124.519994 
L 255.639273 124.663107 
L 257.803636 122.302645 
L 259.968 125.494918 
L 262.132364 125.262266 
L 264.296727 123.39415 
L 266.461091 133.963883 
L 268.625455 124.444287 
L 270.789818 121.199508 
L 272.954182 122.415099 
L 275.118545 120.270891 
L 277.282909 124.398952 
L 279.447273 120.731192 
L 281.611636 124.55647 
L 283.776 123.810931 
L 285.940364 120.629271 
L 288.104727 121.625054 
L 290.269091 122.334133 
L 292.433455 118.491995 
L 294.597818 119.168631 
L 296.762182 121.463584 
L 298.926545 121.612927 
L 301.090909 120.312864 
L 303.255273 121.136899 
L 305.419636 119.471317 
L 307.584 120.267163 
L 309.748364 122.111759 
L 311.912727 119.875957 
L 314.077091 121.157057 
L 316.241455 120.386692 
L 318.405818 118.985983 
L 320.570182 119.47503 
L 322.734545 120.126886 
L 324.898909 119.933689 
L 327.063273 120.497265 
L 329.227636 120.854402 
L 331.392 121.892747 
L 333.556364 122.642381 
L 335.720727 122.608057 
L 337.885091 122.701548 
L 340.049455 122.11732 
L 342.213818 123.260423 
L 344.378182 123.296388 
L 346.542545 122.903588 
L 348.706909 122.961799 
L 350.871273 122.157062 
L 353.035636 122.605316 
L 355.2 122.337336 
L 357.364364 123.354455 
L 359.528727 122.449582 
L 361.693091 122.918472 
L 363.857455 123.510045 
L 366.021818 122.790386 
L 368.186182 122.893039 
L 370.350545 122.829395 
L 374.679273 123.004951 
L 376.843636 121.964439 
L 379.008 122.770371 
L 381.172364 121.938959 
L 383.336727 122.589731 
L 385.501091 121.961125 
L 387.665455 122.284415 
L 389.829818 121.774381 
L 391.994182 122.592249 
L 394.158545 121.103961 
L 396.322909 121.961889 
L 398.487273 121.866056 
L 398.487273 121.866056 
" clip-path="url(#pbf7eccceb9)" style="fill: none; stroke: #9467bd; stroke-width: 1.5; stroke-linecap: square"/>
   </g>
   <g id="line2d_25">
    <path d="M 73.832727 169.064944 
L 75.997091 278.326801 
L 78.161455 295.488 
L 80.325818 216.377466 
L 82.490182 252.611494 
L 84.654545 208.916569 
L 86.818909 206.354249 
L 88.983273 217.100177 
L 91.147636 229.03224 
L 93.312 242.618156 
L 95.476364 257.120964 
L 97.640727 199.526031 
L 99.805091 189.936615 
L 101.969455 198.31483 
L 104.133818 237.312239 
L 106.298182 209.005001 
L 108.462545 164.869112 
L 110.626909 223.90172 
L 112.791273 209.327319 
L 114.955636 173.944901 
L 117.12 212.2675 
L 119.284364 189.754748 
L 121.448727 221.827635 
L 123.613091 235.535287 
L 125.777455 217.127681 
L 127.941818 188.913081 
L 130.106182 222.452019 
L 132.270545 186.126897 
L 134.434909 256.505241 
L 136.599273 181.624586 
L 138.763636 192.065875 
L 140.928 216.49321 
L 143.092364 193.762944 
L 145.256727 217.429148 
L 147.421091 231.235487 
L 149.585455 234.461781 
L 151.749818 202.358641 
L 153.914182 246.640694 
L 156.078545 178.300275 
L 158.242909 208.585972 
L 160.407273 175.329706 
L 162.571636 230.749921 
L 164.736 199.889868 
L 166.900364 207.420353 
L 169.064727 223.226615 
L 171.229091 193.185569 
L 173.393455 205.340109 
L 175.557818 222.463731 
L 177.722182 218.795796 
L 179.886545 203.068565 
L 182.050909 223.102512 
L 184.215273 214.051957 
L 186.379636 193.160694 
L 188.544 221.800242 
L 190.708364 195.496465 
L 192.872727 195.119449 
L 195.037091 210.917058 
L 197.201455 202.192693 
L 199.365818 202.722503 
L 201.530182 232.421112 
L 203.694545 204.597041 
L 205.858909 200.91337 
L 208.023273 187.479849 
L 210.187636 202.655137 
L 212.352 202.268927 
L 214.516364 215.138793 
L 216.680727 206.610772 
L 218.845091 187.721018 
L 221.009455 195.973904 
L 223.173818 213.796773 
L 225.338182 206.852754 
L 227.502545 221.642597 
L 229.666909 205.938806 
L 231.831273 186.42082 
L 233.995636 198.015936 
L 236.16 204.432161 
L 238.324364 213.687984 
L 240.488727 206.810526 
L 242.653091 196.376942 
L 244.817455 188.681616 
L 246.981818 197.417574 
L 249.146182 219.136201 
L 251.310545 209.910981 
L 253.474909 209.637575 
L 255.639273 214.204718 
L 257.803636 215.587476 
L 259.968 209.859734 
L 262.132364 209.85571 
L 264.296727 219.001948 
L 266.461091 197.767659 
L 268.625455 200.018783 
L 270.789818 201.345912 
L 272.954182 207.402004 
L 275.118545 205.519283 
L 277.282909 206.727209 
L 279.447273 213.46016 
L 281.611636 208.032993 
L 283.776 210.003189 
L 285.940364 212.546029 
L 288.104727 209.521265 
L 290.269091 209.535368 
L 292.433455 217.824944 
L 294.597818 218.749465 
L 296.762182 214.576173 
L 298.926545 213.350081 
L 301.090909 214.065916 
L 303.255273 212.047102 
L 305.419636 215.004173 
L 307.584 215.005384 
L 309.748364 208.885974 
L 311.912727 209.586989 
L 314.077091 210.644473 
L 316.241455 212.61545 
L 318.405818 213.56667 
L 320.570182 212.763606 
L 322.734545 211.626687 
L 324.898909 211.947356 
L 327.063273 212.399314 
L 329.227636 209.83509 
L 331.392 209.23378 
L 333.556364 206.511329 
L 335.720727 205.181125 
L 337.885091 208.420893 
L 340.049455 208.957466 
L 344.378182 209.531185 
L 346.542545 208.989448 
L 348.706909 207.923846 
L 350.871273 210.234328 
L 353.035636 208.761329 
L 355.2 209.843456 
L 357.364364 209.029254 
L 361.693091 209.345605 
L 363.857455 209.003064 
L 366.021818 211.603597 
L 368.186182 210.205111 
L 370.350545 210.478166 
L 372.514909 210.318497 
L 374.679273 209.284573 
L 376.843636 210.69321 
L 379.008 210.188451 
L 381.172364 212.293107 
L 383.336727 209.434554 
L 385.501091 210.285208 
L 387.665455 211.456771 
L 389.829818 211.368443 
L 391.994182 210.595257 
L 394.158545 211.348843 
L 396.322909 211.231903 
L 398.487273 211.616066 
L 398.487273 211.616066 
" clip-path="url(#pbf7eccceb9)" style="fill: none; stroke: #8c564b; stroke-width: 1.5; stroke-linecap: square"/>
   </g>
  </g>
 </g>
 <defs>
  <clipPath id="pbf7eccceb9">
   <rect x="57.6" y="41.472" width="357.12" height="266.112"/>
  </clipPath>
 </defs>
</svg>
