<?xml version="1.0" encoding="utf-8" standalone="no"?>
<!DOCTYPE svg PUBLIC "-//W3C//DTD SVG 1.1//EN"
  "http://www.w3.org/Graphics/SVG/1.1/DTD/svg11.dtd">
<svg xmlns:xlink="http://www.w3.org/1999/xlink" width="460.8pt" height="345.6pt" viewBox="0 0 460.8 345.6" xmlns="http://www.w3.org/2000/svg" version="1.1">
 <metadata>
  <rdf:RDF xmlns:dc="http://purl.org/dc/elements/1.1/" xmlns:cc="http://creativecommons.org/ns#" xmlns:rdf="http://www.w3.org/1999/02/22-rdf-syntax-ns#">
   <cc:Work>
    <dc:type rdf:resource="http://purl.org/dc/dcmitype/StillImage"/>
    <dc:date>2026-03-19T22:24:09.176612</dc:date>
    <dc:format>image/svg+xml</dc:format>
    <dc:creator>
     <cc:Agent>
      <dc:title>Matplotlib v3.10.8, https://matplotlib.org/</dc:title>
     </cc:Agent>
    </dc:creator>
   </cc:Work>
  </rdf:RDF>
 </metadata>
 <defs>
  <style type="text/css">*{stroke-linejoin: round; stroke-linecap: butt}</style>
 </defs>
 <g id="figure_1">
  <g id="patch_1">
   <path d="M 0 345.6 
L 460.8 345.6 
L 460.8 0 
L 0 0 
z
" style="fill: #ffffff"/>
  </g>
  <g id="axes_1">
   <g id="patch_2">
    <path d="M 57.6 307.584 
L 414.72 307.584 
L 414.72 41.472 
L 57.6 41.472 
z
" style="fill: #ffffff"/>
   </g>
   <g id="matplotlib.axis_1">
    <g id="xtick_1">
     <g id="line2d_1">
      <defs>
       <path id="m5320798f5f" d="M 0 0 
L 0 3.5 
" style="stroke: #000000; stroke-width: 0.8"/>
      </defs>
      <g>
       <use xlink:href="#m5320798f5f" x="73.832727" y="307.584" style="stroke: #000000; stroke-width: 0.8"/>
      </g>
     </g>
     <g id="text_1">
      <!-- 0 -->
      <g transform="translate(70.651477 322.182437) scale(0.1 -0.1)">
       <defs>
        <path id="DejaVuSans-30" d="M 2034 4250 
Q 1547 4250 1301 3770 
Q 1056 3291 1056 2328 
Q 1056 1369 1301 889 
Q 1547 409 2034 409 
Q 2525 409 2770 889 
Q 3016 1369 3016 2328 
Q 3016 3291 2770 3770 
Q 2525 4250 2034 4250 
z
M 2034 4750 
Q 2819 4750 3233 4129 
Q 3647 3509 3647 2328 
Q 3647 1150 3233 529 
Q 2819 -91 2034 -91 
Q 1250 -91 836 529 
Q 422 1150 422 2328 
Q 422 3509 836 4129 
Q 1250 4750 2034 4750 
z
" transform="scale(0.015625)"/>
       </defs>
       <use xlink:href="#DejaVuSans-30"/>
      </g>
     </g>
    </g>
    <g id="xtick_2">
     <g id="line2d_2">
      <g>
       <use xlink:href="#m5320798f5f" x="138.763636" y="307.584" style="stroke: #000000; stroke-width: 0.8"/>
      </g>
     </g>
     <g id="text_2">
      <!-- 20 -->
      <g transform="translate(132.401136 322.182437) scale(0.1 -0.1)">
       <defs>
        <path id="DejaVuSans-32" d="M 1228 531 
L 3431 531 
L 3431 0 
L 469 0 
L 469 531 
Q 828 903 1448 1529 
Q 2069 2156 2228 2338 
Q 2531 2678 2651 2914 
Q 2772 3150 2772 3378 
Q 2772 3750 2511 3984 
Q 2250 4219 1831 4219 
Q 1534 4219 1204 4116 
Q 875 4013 500 3803 
L 500 4441 
Q 881 4594 1212 4672 
Q 1544 4750 1819 4750 
Q 2544 4750 2975 4387 
Q 3406 4025 3406 3419 
Q 3406 3131 3298 2873 
Q 3191 2616 2906 2266 
Q 2828 2175 2409 1742 
Q 1991 1309 1228 531 
z
" transform="scale(0.015625)"/>
       </defs>
       <use xlink:href="#DejaVuSans-32"/>
       <use xlink:href="#DejaVuSans-30" transform="translate(63.623047 0)"/>
      </g>
     </g>
    </g>
    <g id="xtick_3">
     <g id="line2d_3">
      <g>
       <use xlink:href="#m5320798f5f" x="203.694545" y="307.584" style="stroke: #000000; stroke-width: 0.8"/>
      </g>
     </g>
     <g id="text_3">
      <!-- 40 -->
      <g transform="translate(197.332045 322.182437) scale(0.1 -0.1)">
       <defs>
        <path id="DejaVuSans-34" d="M 2419 4116 
L 825 1625 
L 2419 1625 
L 2419 4116 
z
M 2253 4666 
L 3047 4666 
L 3047 1625 
L 3713 1625 
L 3713 1100 
L 3047 1100 
L 3047 0 
L 2419 0 
L 2419 1100 
L 313 1100 
L 313 1709 
L 2253 4666 
z
" transform="scale(0.015625)"/>
       </defs>
       <use xlink:href="#DejaVuSans-34"/>
       <use xlink:href="#DejaVuSans-30" transform="translate(63.623047 0)"/>
      </g>
     </g>
    </g>
    <g id="xtick_4">
     <g id="line2d_4">
      <g>
       <use xlink:href="#m5320798f5f" x="268.625455" y="307.584" style="stroke: #000000; stroke-width: 0.8"/>
      </g>
     </g>
     <g id="text_4">
      <!-- 60 -->
      <g transform="translate(262.262955 322.182437) scale(0.1 -0.1)">
       <defs>
        <path id="DejaVuSans-36" d="M 2113 2584 
Q 1688 2584 1439 2293 
Q 1191 2003 1191 1497 
Q 1191 994 1439 701 
Q 1688 409 2113 409 
Q 2538 409 2786 701 
Q 3034 994 3034 1497 
Q 3034 2003 2786 2293 
Q 2538 2584 2113 2584 
z
M 3366 4563 
L 3366 3988 
Q 3128 4100 2886 4159 
Q 2644 4219 2406 4219 
Q 1781 4219 1451 3797 
Q 1122 3375 1075 2522 
Q 1259 2794 1537 2939 
Q 1816 3084 2150 3084 
Q 2853 3084 3261 2657 
Q 3669 2231 3669 1497 
Q 3669 778 3244 343 
Q 2819 -91 2113 -91 
Q 1303 -91 875 529 
Q 447 1150 447 2328 
Q 447 3434 972 4092 
Q 1497 4750 2381 4750 
Q 2619 4750 2861 4703 
Q 3103 4656 3366 4563 
z
" transform="scale(0.015625)"/>
       </defs>
       <use xlink:href="#DejaVuSans-36"/>
       <use xlink:href="#DejaVuSans-30" transform="translate(63.623047 0)"/>
      </g>
     </g>
    </g>
    <g id="xtick_5">
     <g id="line2d_5">
      <g>
       <use xlink:href="#m5320798f5f" x="333.556364" y="307.584" style="stroke: #000000; stroke-width: 0.8"/>
      </g>
     </g>
     <g id="text_5">
      <!-- 80 -->
      <g transform="translate(327.193864 322.182437) scale(0.1 -0.1)">
       <defs>
        <path id="DejaVuSans-38" d="M 2034 2216 
Q 1584 2216 1326 1975 
Q 1069 1734 1069 1313 
Q 1069 891 1326 650 
Q 1584 409 2034 409 
Q 2484 409 2743 651 
Q 3003 894 3003 1313 
Q 3003 1734 2745 1975 
Q 2488 2216 2034 2216 
z
M 1403 2484 
Q 997 2584 770 2862 
Q 544 3141 544 3541 
Q 544 4100 942 4425 
Q 1341 4750 2034 4750 
Q 2731 4750 3128 4425 
Q 3525 4100 3525 3541 
Q 3525 3141 3298 2862 
Q 3072 2584 2669 2484 
Q 3125 2378 3379 2068 
Q 3634 1759 3634 1313 
Q 3634 634 3220 271 
Q 2806 -91 2034 -91 
Q 1263 -91 848 271 
Q 434 634 434 1313 
Q 434 1759 690 2068 
Q 947 2378 1403 2484 
z
M 1172 3481 
Q 1172 3119 1398 2916 
Q 1625 2713 2034 2713 
Q 2441 2713 2670 2916 
Q 2900 3119 2900 3481 
Q 2900 3844 2670 4047 
Q 2441 4250 2034 4250 
Q 1625 4250 1398 4047 
Q 1172 3844 1172 3481 
z
" transform="scale(0.015625)"/>
       </defs>
       <use xlink:href="#DejaVuSans-38"/>
       <use xlink:href="#DejaVuSans-30" transform="translate(63.623047 0)"/>
      </g>
     </g>
    </g>
    <g id="xtick_6">
     <g id="line2d_6">
      <g>
       <use xlink:href="#m5320798f5f" x="398.487273" y="307.584" style="stroke: #000000; stroke-width: 0.8"/>
      </g>
     </g>
     <g id="text_6">
      <!-- 100 -->
      <g transform="translate(388.943523 322.182437) scale(0.1 -0.1)">
       <defs>
        <path id="DejaVuSans-31" d="M 794 531 
L 1825 531 
L 1825 4091 
L 703 3866 
L 703 4441 
L 1819 4666 
L 2450 4666 
L 2450 531 
L 3481 531 
L 3481 0 
L 794 0 
L 794 531 
z
" transform="scale(0.015625)"/>
       </defs>
       <use xlink:href="#DejaVuSans-31"/>
       <use xlink:href="#DejaVuSans-30" transform="translate(63.623047 0)"/>
       <use xlink:href="#DejaVuSans-30" transform="translate(127.246094 0)"/>
      </g>
     </g>
    </g>
   </g>
   <g id="matplotlib.axis_2">
    <g id="ytick_1">
     <g id="line2d_7">
      <defs>
       <path id="mc5d072a09a" d="M 0 0 
L -3.5 0 
" style="stroke: #000000; stroke-width: 0.8"/>
      </defs>
      <g>
       <use xlink:href="#mc5d072a09a" x="57.6" y="277.964782" style="stroke: #000000; stroke-width: 0.8"/>
      </g>
     </g>
     <g id="text_7">
      <!-- 0.3 -->
      <g transform="translate(34.696875 281.764001) scale(0.1 -0.1)">
       <defs>
        <path id="DejaVuSans-2e" d="M 684 794 
L 1344 794 
L 1344 0 
L 684 0 
L 684 794 
z
" transform="scale(0.015625)"/>
        <path id="DejaVuSans-33" d="M 2597 2516 
Q 3050 2419 3304 2112 
Q 3559 1806 3559 1356 
Q 3559 666 3084 287 
Q 2609 -91 1734 -91 
Q 1441 -91 1130 -33 
Q 819 25 488 141 
L 488 750 
Q 750 597 1062 519 
Q 1375 441 1716 441 
Q 2309 441 2620 675 
Q 2931 909 2931 1356 
Q 2931 1769 2642 2001 
Q 2353 2234 1838 2234 
L 1294 2234 
L 1294 2753 
L 1863 2753 
Q 2328 2753 2575 2939 
Q 2822 3125 2822 3475 
Q 2822 3834 2567 4026 
Q 2313 4219 1838 4219 
Q 1578 4219 1281 4162 
Q 984 4106 628 3988 
L 628 4550 
Q 988 4650 1302 4700 
Q 1616 4750 1894 4750 
Q 2613 4750 3031 4423 
Q 3450 4097 3450 3541 
Q 3450 3153 3228 2886 
Q 3006 2619 2597 2516 
z
" transform="scale(0.015625)"/>
       </defs>
       <use xlink:href="#DejaVuSans-30"/>
       <use xlink:href="#DejaVuSans-2e" transform="translate(63.623047 0)"/>
       <use xlink:href="#DejaVuSans-33" transform="translate(95.410156 0)"/>
      </g>
     </g>
    </g>
    <g id="ytick_2">
     <g id="line2d_8">
      <g>
       <use xlink:href="#mc5d072a09a" x="57.6" y="227.792303" style="stroke: #000000; stroke-width: 0.8"/>
      </g>
     </g>
     <g id="text_8">
      <!-- 0.4 -->
      <g transform="translate(34.696875 231.591522) scale(0.1 -0.1)">
       <use xlink:href="#DejaVuSans-30"/>
       <use xlink:href="#DejaVuSans-2e" transform="translate(63.623047 0)"/>
       <use xlink:href="#DejaVuSans-34" transform="translate(95.410156 0)"/>
      </g>
     </g>
    </g>
    <g id="ytick_3">
     <g id="line2d_9">
      <g>
       <use xlink:href="#mc5d072a09a" x="57.6" y="177.619824" style="stroke: #000000; stroke-width: 0.8"/>
      </g>
     </g>
     <g id="text_9">
      <!-- 0.5 -->
      <g transform="translate(34.696875 181.419043) scale(0.1 -0.1)">
       <defs>
        <path id="DejaVuSans-35" d="M 691 4666 
L 3169 4666 
L 3169 4134 
L 1269 4134 
L 1269 2991 
Q 1406 3038 1543 3061 
Q 1681 3084 1819 3084 
Q 2600 3084 3056 2656 
Q 3513 2228 3513 1497 
Q 3513 744 3044 326 
Q 2575 -91 1722 -91 
Q 1428 -91 1123 -41 
Q 819 9 494 109 
L 494 744 
Q 775 591 1075 516 
Q 1375 441 1709 441 
Q 2250 441 2565 725 
Q 2881 1009 2881 1497 
Q 2881 1984 2565 2268 
Q 2250 2553 1709 2553 
Q 1456 2553 1204 2497 
Q 953 2441 691 2322 
L 691 4666 
z
" transform="scale(0.015625)"/>
       </defs>
       <use xlink:href="#DejaVuSans-30"/>
       <use xlink:href="#DejaVuSans-2e" transform="translate(63.623047 0)"/>
       <use xlink:href="#DejaVuSans-35" transform="translate(95.410156 0)"/>
      </g>
     </g>
    </g>
    <g id="ytick_4">
     <g id="line2d_10">
      <g>
       <use xlink:href="#mc5d072a09a" x="57.6" y="127.447345" style="stroke: #000000; stroke-width: 0.8"/>
      </g>
     </g>
     <g id="text_10">
      <!-- 0.6 -->
      <g transform="translate(34.696875 131.246563) scale(0.1 -0.1)">
       <use xlink:href="#DejaVuSans-30"/>
       <use xlink:href="#DejaVuSans-2e" transform="translate(63.623047 0)"/>
       <use xlink:href="#DejaVuSans-36" transform="translate(95.410156 0)"/>
      </g>
     </g>
    </g>
    <g id="ytick_5">
     <g id="line2d_11">
      <g>
       <use xlink:href="#mc5d072a09a" x="57.6" y="77.274866" style="stroke: #000000; stroke-width: 0.8"/>
      </g>
     </g>
     <g id="text_11">
      <!-- 0.7 -->
      <g transform="translate(34.696875 81.074084) scale(0.1 -0.1)">
       <defs>
        <path id="DejaVuSans-37" d="M 525 4666 
L 3525 4666 
L 3525 4397 
L 1831 0 
L 1172 0 
L 2766 4134 
L 525 4134 
L 525 4666 
z
" transform="scale(0.015625)"/>
       </defs>
       <use xlink:href="#DejaVuSans-30"/>
       <use xlink:href="#DejaVuSans-2e" transform="translate(63.623047 0)"/>
       <use xlink:href="#DejaVuSans-37" transform="translate(95.410156 0)"/>
      </g>
     </g>
    </g>
   </g>
   <g id="line2d_12">
    <path d="M 73.832727 178.70689 
L 77.079273 178.985651 
L 80.325818 176.560644 
L 83.572364 178.679019 
L 86.818909 177.954298 
L 90.065455 176.30977 
L 93.312 176.727903 
L 96.558545 170.98591 
L 99.805091 176.978748 
L 103.051636 176.895103 
L 106.298182 175.891636 
L 109.544727 177.173849 
L 112.791273 176.560614 
L 116.037818 177.647695 
L 119.284364 174.442225 
L 122.530909 174.079864 
L 125.777455 177.285335 
L 129.024 174.637356 
L 132.270545 177.341108 
L 135.517091 177.229622 
L 138.763636 175.724437 
L 142.010182 176.644259 
L 145.256727 175.94741 
L 148.503273 177.870683 
L 151.749818 178.288817 
L 154.996364 175.640792 
L 158.242909 176.532743 
L 161.489455 176.281898 
L 164.736 175.919538 
L 167.982545 176.337642 
L 171.229091 177.564111 
L 174.475636 174.470126 
L 177.722182 176.086797 
L 180.968727 175.334205 
L 184.215273 173.996249 
L 187.461818 176.67213 
L 190.708364 175.78015 
L 193.954909 176.700002 
L 197.201455 177.480466 
L 200.448 176.532802 
L 203.694545 176.867231 
L 206.941091 176.281898 
L 210.187636 176.978748 
L 213.434182 173.020684 
L 216.680727 175.083361 
L 219.927273 180.128445 
L 223.173818 175.389948 
L 226.420364 174.274995 
L 229.666909 176.114669 
L 232.913455 178.651147 
L 236.16 176.114669 
L 239.406545 175.139074 
L 242.653091 175.585049 
L 245.899636 178.288787 
L 249.146182 177.173849 
L 252.392727 173.160042 
L 255.639273 176.560614 
L 258.885818 176.003153 
L 262.132364 176.616387 
L 265.378909 176.811458 
L 268.625455 176.755745 
L 271.872 173.550304 
L 275.118545 176.30977 
L 278.365091 174.163509 
L 281.611636 176.058896 
L 284.858182 176.337642 
L 288.104727 176.421256 
L 291.351273 176.421256 
L 294.597818 176.226155 
L 297.844364 176.337642 
L 301.090909 173.355143 
L 304.337455 173.996249 
L 307.584 173.494501 
L 310.830545 177.062362 
L 314.077091 176.504871 
L 317.323636 175.362047 
L 320.570182 174.665227 
L 323.816727 175.808022 
L 327.063273 175.473563 
L 330.309818 174.804585 
L 333.556364 175.585049 
L 336.802909 174.442225 
L 340.049455 177.118135 
L 343.296 176.226155 
L 346.542545 175.473563 
L 349.789091 173.215785 
L 353.035636 174.943973 
L 356.282182 175.194817 
L 359.528727 175.334205 
L 362.775273 173.633919 
L 366.021818 173.940506 
L 369.268364 174.497968 
L 372.514909 177.090204 
L 375.761455 176.83939 
L 379.008 174.665227 
L 382.254545 177.257463 
L 385.501091 174.581583 
L 388.747636 174.442225 
L 391.994182 175.835893 
L 395.240727 176.923005 
L 398.487273 175.529306 
" clip-path="url(#p94be6005ef)" style="fill: none; stroke: #1f77b4; stroke-width: 1.5; stroke-linecap: square"/>
   </g>
   <g id="line2d_13">
    <path d="M 73.832727 187.233784 
L 77.079273 160.572226 
L 80.325818 226.520704 
L 83.572364 187.936136 
L 86.818909 223.956848 
L 90.065455 164.645723 
L 93.312 213.55867 
L 96.558545 189.068344 
L 99.805091 213.82822 
L 103.051636 186.619189 
L 106.298182 208.815283 
L 109.544727 186.063761 
L 112.791273 206.664522 
L 116.037818 205.508972 
L 119.284364 224.388693 
L 122.530909 170.890602 
L 125.777455 201.729338 
L 129.024 212.713237 
L 132.270545 207.785351 
L 135.517091 204.870692 
L 138.763636 218.1342 
L 142.010182 176.744142 
L 145.256727 236.856425 
L 148.503273 234.185209 
L 151.749818 174.090481 
L 154.996364 250.978658 
L 158.242909 200.488051 
L 161.489455 208.719318 
L 164.736 253.851898 
L 167.982545 233.835005 
L 171.229091 195.948737 
L 174.475636 221.834062 
L 177.722182 242.308429 
L 180.968727 186.750024 
L 184.215273 207.943459 
L 187.461818 212.276099 
L 190.708364 225.305898 
L 193.954909 241.278616 
L 197.201455 178.76051 
L 200.448 247.026561 
L 203.694545 216.244854 
L 206.941091 192.791353 
L 210.187636 241.555268 
L 213.434182 229.948191 
L 216.680727 221.340747 
L 219.927273 200.532071 
L 223.173818 223.376943 
L 226.420364 258.858106 
L 229.666909 263.66057 
L 232.913455 167.479683 
L 236.16 229.15557 
L 239.406545 258.025158 
L 242.653091 146.145275 
L 245.899636 215.408856 
L 249.146182 229.319944 
L 252.392727 257.529301 
L 255.639273 213.91025 
L 258.885818 252.885828 
L 262.132364 221.25314 
L 265.378909 244.25588 
L 268.625455 212.906993 
L 271.872 256.870013 
L 275.118545 200.349336 
L 278.365091 211.902644 
L 281.611636 252.42792 
L 284.858182 202.093269 
L 288.104727 259.017096 
L 291.351273 244.842006 
L 294.597818 237.508476 
L 297.844364 234.748592 
L 301.090909 240.102103 
L 304.337455 187.042376 
L 307.584 252.508051 
L 310.830545 206.113684 
L 314.077091 227.978385 
L 317.323636 269.366514 
L 320.570182 247.734684 
L 323.816727 161.826029 
L 327.063273 269.318501 
L 330.309818 243.870104 
L 333.556364 209.401544 
L 336.802909 257.230026 
L 340.049455 186.01065 
L 343.296 250.597906 
L 346.542545 249.208394 
L 349.789091 266.690379 
L 353.035636 231.128696 
L 356.282182 239.722921 
L 359.528727 231.786459 
L 362.775273 242.410001 
L 366.021818 250.005799 
L 369.268364 252.016306 
L 372.514909 272.750563 
L 375.761455 227.795171 
L 379.008 280.286835 
L 382.254545 201.051748 
L 385.501091 248.990401 
L 388.747636 233.008263 
L 391.994182 251.601507 
L 395.240727 232.096336 
L 398.487273 245.335441 
" clip-path="url(#p94be6005ef)" style="fill: none; stroke: #ff7f0e; stroke-width: 1.5; stroke-linecap: square"/>
   </g>
   <g id="line2d_14">
    <path d="M 73.832727 166.566649 
L 77.079273 196.789908 
L 80.325818 131.385748 
L 83.572364 173.206156 
L 86.818909 135.725969 
L 90.065455 191.987159 
L 93.312 144.28072 
L 96.558545 157.564159 
L 99.805091 144.686383 
L 103.051636 171.255355 
L 106.298182 146.987373 
L 109.544727 172.62169 
L 112.791273 151.583941 
L 116.037818 154.672034 
L 119.284364 129.877453 
L 122.530909 181.67167 
L 125.777455 156.686623 
L 129.024 142.056496 
L 132.270545 151.770399 
L 135.517091 154.374179 
L 138.763636 138.302057 
L 142.010182 181.249753 
L 145.256727 120.604172 
L 148.503273 126.057432 
L 151.749818 187.306214 
L 154.996364 106.093606 
L 158.242909 157.711412 
L 161.489455 149.038686 
L 164.736 103.815134 
L 167.982545 124.547343 
L 171.229091 162.8783 
L 174.475636 133.022905 
L 177.722182 115.8041 
L 180.968727 168.418584 
L 184.215273 145.654083 
L 187.461818 145.882678 
L 190.708364 131.907772 
L 193.954909 118.011786 
L 197.201455 181.196911 
L 200.448 111.931087 
L 203.694545 143.26242 
L 206.941091 165.187455 
L 210.187636 117.741594 
L 213.434182 122.005227 
L 216.680727 134.686856 
L 219.927273 165.054497 
L 223.173818 133.515113 
L 226.420364 95.927029 
L 229.666909 94.961602 
L 232.913455 194.75129 
L 236.16 128.913103 
L 239.406545 98.249491 
L 242.653091 209.558919 
L 245.899636 147.115188 
L 249.146182 130.740934 
L 252.392727 95.532072 
L 255.639273 144.984657 
L 258.885818 105.342449 
L 262.132364 137.921664 
L 265.378909 115.373825 
L 268.625455 146.805251 
L 271.872 96.127842 
L 275.118545 158.027031 
L 278.365091 142.477082 
L 281.611636 106.018245 
L 284.858182 156.012591 
L 288.104727 100.620639 
L 291.351273 114.083479 
L 294.597818 120.983489 
L 297.844364 124.142397 
L 301.090909 112.757784 
L 304.337455 166.865431 
L 307.584 100.682991 
L 310.830545 153.252139 
L 314.077091 131.021594 
L 317.323636 87.751954 
L 320.570182 108.300425 
L 323.816727 194.756599 
L 327.063273 88.058033 
L 330.309818 112.098825 
L 333.556364 147.560894 
L 336.802909 98.457062 
L 340.049455 173.465374 
L 343.296 108.090641 
L 346.542545 108.452672 
L 349.789091 85.755667 
L 353.035636 125.542316 
L 356.282182 116.691206 
L 359.528727 125.294164 
L 362.775273 111.119881 
L 366.021818 104.557918 
L 369.268364 103.386474 
L 372.514909 87.790561 
L 375.761455 132.182122 
L 379.008 75.700875 
L 382.254545 159.488435 
L 385.501091 106.531477 
L 388.747636 121.63551 
L 391.994182 106.533451 
L 395.240727 128.185302 
L 398.487273 112.036024 
" clip-path="url(#p94be6005ef)" style="fill: none; stroke: #2ca02c; stroke-width: 1.5; stroke-linecap: square"/>
   </g>
   <g id="line2d_15">
    <path d="M 73.832727 172.323805 
L 77.079273 175.94741 
L 80.325818 172.881297 
L 83.572364 181.940233 
L 86.818909 182.079591 
L 90.065455 173.717534 
L 93.312 180.82528 
L 96.558545 184.448854 
L 99.805091 182.915798 
L 103.051636 178.734762 
L 106.298182 178.595404 
L 109.544727 181.940233 
L 112.791273 179.292238 
L 116.037818 178.316673 
L 119.284364 180.825295 
L 122.530909 180.825295 
L 125.777455 178.037942 
L 129.024 178.037942 
L 132.270545 175.25059 
L 135.517091 182.915783 
L 138.763636 177.341078 
L 142.010182 178.456016 
L 145.256727 180.825295 
L 148.503273 181.382771 
L 151.749818 181.661487 
L 154.996364 172.741939 
L 158.242909 172.881326 
L 161.489455 175.389918 
L 164.736 180.407161 
L 167.982545 176.922975 
L 171.229091 181.940233 
L 174.475636 177.898585 
L 177.722182 181.104025 
L 180.968727 180.685922 
L 184.215273 174.553741 
L 187.461818 177.341078 
L 190.708364 177.619824 
L 193.954909 179.849715 
L 197.201455 180.128445 
L 200.448 186.67873 
L 203.694545 173.578176 
L 206.941091 181.80086 
L 210.187636 179.15288 
L 213.434182 175.529306 
L 216.680727 180.825295 
L 219.927273 182.079591 
L 223.173818 185.842538 
L 226.420364 179.989073 
L 229.666909 179.710327 
L 232.913455 178.87412 
L 236.16 179.849715 
L 239.406545 177.341078 
L 242.653091 188.211787 
L 245.899636 181.243383 
L 249.146182 180.407176 
L 252.392727 184.448839 
L 255.639273 180.685922 
L 258.885818 179.710327 
L 262.132364 177.898555 
L 265.378909 178.456031 
L 268.625455 177.20172 
L 271.872 175.111172 
L 275.118545 175.389948 
L 278.365091 174.971815 
L 281.611636 184.7276 
L 284.858182 179.431611 
L 288.104727 181.382771 
L 291.351273 186.818103 
L 294.597818 179.15288 
L 297.844364 184.448839 
L 301.090909 185.145704 
L 304.337455 184.588242 
L 307.584 180.546534 
L 310.830545 178.87412 
L 314.077091 183.612647 
L 317.323636 172.741939 
L 320.570182 179.431596 
L 323.816727 179.013478 
L 327.063273 177.898555 
L 330.309818 179.292238 
L 333.556364 182.079591 
L 336.802909 178.87412 
L 340.049455 180.407161 
L 343.296 180.128445 
L 346.542545 176.644229 
L 349.789091 184.309481 
L 353.035636 182.637067 
L 356.282182 176.086767 
L 359.528727 178.456031 
L 362.775273 178.037913 
L 366.021818 179.570969 
L 369.268364 174.135607 
L 372.514909 180.825295 
L 375.761455 177.062362 
L 379.008 186.818103 
L 382.254545 175.25059 
L 385.501091 178.456031 
L 388.747636 176.923005 
L 391.994182 179.431596 
L 395.240727 173.2994 
L 398.487273 186.678745 
" clip-path="url(#p94be6005ef)" style="fill: none; stroke: #d62728; stroke-width: 1.5; stroke-linecap: square"/>
   </g>
   <g id="patch_3">
    <path d="M 57.6 307.584 
L 57.6 41.472 
" style="fill: none; stroke: #000000; stroke-width: 0.8; stroke-linejoin: miter; stroke-linecap: square"/>
   </g>
   <g id="patch_4">
    <path d="M 414.72 307.584 
L 414.72 41.472 
" style="fill: none; stroke: #000000; stroke-width: 0.8; stroke-linejoin: miter; stroke-linecap: square"/>
   </g>
   <g id="patch_5">
    <path d="M 57.6 307.584 
L 414.72 307.584 
" style="fill: none; stroke: #000000; stroke-width: 0.8; stroke-linejoin: miter; stroke-linecap: square"/>
   </g>
   <g id="patch_6">
    <path d="M 57.6 41.472 
L 414.72 41.472 
" style="fill: none; stroke: #000000; stroke-width: 0.8; stroke-linejoin: miter; stroke-linecap: square"/>
   </g>
   <g id="text_12">
    <!-- veil9 -->
    <g transform="translate(221.765625 35.472) scale(0.12 -0.12)">
     <defs>
      <path id="DejaVuSans-76" d="M 191 3500 
L 800 3500 
L 1894 563 
L 2988 3500 
L 3597 3500 
L 2284 0 
L 1503 0 
L 191 3500 
z
" transform="scale(0.015625)"/>
      <path id="DejaVuSans-65" d="M 3597 1894 
L 3597 1613 
L 953 1613 
Q 991 1019 1311 708 
Q 1631 397 2203 397 
Q 2534 397 2845 478 
Q 3156 559 3463 722 
L 3463 178 
Q 3153 47 2828 -22 
Q 2503 -91 2169 -91 
Q 1331 -91 842 396 
Q 353 884 353 1716 
Q 353 2575 817 3079 
Q 1281 3584 2069 3584 
Q 2775 3584 3186 3129 
Q 3597 2675 3597 1894 
z
M 3022 2063 
Q 3016 2534 2758 2815 
Q 2500 3097 2075 3097 
Q 1594 3097 1305 2825 
Q 1016 2553 972 2059 
L 3022 2063 
z
" transform="scale(0.015625)"/>
      <path id="DejaVuSans-69" d="M 603 3500 
L 1178 3500 
L 1178 0 
L 603 0 
L 603 3500 
z
M 603 4863 
L 1178 4863 
L 1178 4134 
L 603 4134 
L 603 4863 
z
" transform="scale(0.015625)"/>
      <path id="DejaVuSans-6c" d="M 603 4863 
L 1178 4863 
L 1178 0 
L 603 0 
L 603 4863 
z
" transform="scale(0.015625)"/>
      <path id="DejaVuSans-39" d="M 703 97 
L 703 672 
Q 941 559 1184 500 
Q 1428 441 1663 441 
Q 2288 441 2617 861 
Q 2947 1281 2994 2138 
Q 2813 1869 2534 1725 
Q 2256 1581 1919 1581 
Q 1219 1581 811 2004 
Q 403 2428 403 3163 
Q 403 3881 828 4315 
Q 1253 4750 1959 4750 
Q 2769 4750 3195 4129 
Q 3622 3509 3622 2328 
Q 3622 1225 3098 567 
Q 2575 -91 1691 -91 
Q 1453 -91 1209 -44 
Q 966 3 703 97 
z
M 1959 2075 
Q 2384 2075 2632 2365 
Q 2881 2656 2881 3163 
Q 2881 3666 2632 3958 
Q 2384 4250 1959 4250 
Q 1534 4250 1286 3958 
Q 1038 3666 1038 3163 
Q 1038 2656 1286 2365 
Q 1534 2075 1959 2075 
z
" transform="scale(0.015625)"/>
     </defs>
     <use xlink:href="#DejaVuSans-76"/>
     <use xlink:href="#DejaVuSans-65" transform="translate(59.179688 0)"/>
     <use xlink:href="#DejaVuSans-69" transform="translate(120.703125 0)"/>
     <use xlink:href="#DejaVuSans-6c" transform="translate(148.486328 0)"/>
     <use xlink:href="#DejaVuSans-39" transform="translate(176.269531 0)"/>
    </g>
   </g>
   <g id="legend_1">
    <g id="patch_7">
     <path d="M 64.6 138.65325 
L 156.060937 138.65325 
Q 158.060937 138.65325 158.060937 136.65325 
L 158.060937 48.472 
Q 158.060937 46.472 156.060937 46.472 
L 64.6 46.472 
Q 62.6 46.472 62.6 48.472 
L 62.6 136.65325 
Q 62.6 138.65325 64.6 138.65325 
z
" style="fill: #ffffff; opacity: 0.8; stroke: #cccccc; stroke-linejoin: miter"/>
    </g>
    <g id="line2d_16">
     <path d="M 66.6 54.570438 
L 76.6 54.570438 
L 86.6 54.570438 
" style="fill: none; stroke: #1f77b4; stroke-width: 1.5; stroke-linecap: square"/>
    </g>
    <g id="text_13">
     <!-- train -->
     <g transform="translate(94.6 58.070438) scale(0.1 -0.1)">
      <defs>
       <path id="DejaVuSans-74" d="M 1172 4494 
L 1172 3500 
L 2356 3500 
L 2356 3053 
L 1172 3053 
L 1172 1153 
Q 1172 725 1289 603 
Q 1406 481 1766 481 
L 2356 481 
L 2356 0 
L 1766 0 
Q 1100 0 847 248 
Q 594 497 594 1153 
L 594 3053 
L 172 3053 
L 172 3500 
L 594 3500 
L 594 4494 
L 1172 4494 
z
" transform="scale(0.015625)"/>
       <path id="DejaVuSans-72" d="M 2631 2963 
Q 2534 3019 2420 3045 
Q 2306 3072 2169 3072 
Q 1681 3072 1420 2755 
Q 1159 2438 1159 1844 
L 1159 0 
L 581 0 
L 581 3500 
L 1159 3500 
L 1159 2956 
Q 1341 3275 1631 3429 
Q 1922 3584 2338 3584 
Q 2397 3584 2469 3576 
Q 2541 3569 2628 3553 
L 2631 2963 
z
" transform="scale(0.015625)"/>
       <path id="DejaVuSans-61" d="M 2194 1759 
Q 1497 1759 1228 1600 
Q 959 1441 959 1056 
Q 959 750 1161 570 
Q 1363 391 1709 391 
Q 2188 391 2477 730 
Q 2766 1069 2766 1631 
L 2766 1759 
L 2194 1759 
z
M 3341 1997 
L 3341 0 
L 2766 0 
L 2766 531 
Q 2569 213 2275 61 
Q 1981 -91 1556 -91 
Q 1019 -91 701 211 
Q 384 513 384 1019 
Q 384 1609 779 1909 
Q 1175 2209 1959 2209 
L 2766 2209 
L 2766 2266 
Q 2766 2663 2505 2880 
Q 2244 3097 1772 3097 
Q 1472 3097 1187 3025 
Q 903 2953 641 2809 
L 641 3341 
Q 956 3463 1253 3523 
Q 1550 3584 1831 3584 
Q 2591 3584 2966 3190 
Q 3341 2797 3341 1997 
z
" transform="scale(0.015625)"/>
       <path id="DejaVuSans-6e" d="M 3513 2113 
L 3513 0 
L 2938 0 
L 2938 2094 
Q 2938 2591 2744 2837 
Q 2550 3084 2163 3084 
Q 1697 3084 1428 2787 
Q 1159 2491 1159 1978 
L 1159 0 
L 581 0 
L 581 3500 
L 1159 3500 
L 1159 2956 
Q 1366 3272 1645 3428 
Q 1925 3584 2291 3584 
Q 2894 3584 3203 3211 
Q 3513 2838 3513 2113 
z
" transform="scale(0.015625)"/>
      </defs>
      <use xlink:href="#DejaVuSans-74"/>
      <use xlink:href="#DejaVuSans-72" transform="translate(39.208984 0)"/>
      <use xlink:href="#DejaVuSans-61" transform="translate(80.322266 0)"/>
      <use xlink:href="#DejaVuSans-69" transform="translate(141.601562 0)"/>
      <use xlink:href="#DejaVuSans-6e" transform="translate(169.384766 0)"/>
     </g>
    </g>
    <g id="line2d_17">
     <path d="M 66.6 69.248563 
L 76.6 69.248563 
L 86.6 69.248563 
" style="fill: none; stroke: #ff7f0e; stroke-width: 1.5; stroke-linecap: square"/>
    </g>
    <g id="text_14">
     <!-- train_class0 -->
     <g transform="translate(94.6 72.748563) scale(0.1 -0.1)">
      <defs>
       <path id="DejaVuSans-5f" d="M 3263 -1063 
L 3263 -1509 
L -63 -1509 
L -63 -1063 
L 3263 -1063 
z
" transform="scale(0.015625)"/>
       <path id="DejaVuSans-63" d="M 3122 3366 
L 3122 2828 
Q 2878 2963 2633 3030 
Q 2388 3097 2138 3097 
Q 1578 3097 1268 2742 
Q 959 2388 959 1747 
Q 959 1106 1268 751 
Q 1578 397 2138 397 
Q 2388 397 2633 464 
Q 2878 531 3122 666 
L 3122 134 
Q 2881 22 2623 -34 
Q 2366 -91 2075 -91 
Q 1284 -91 818 406 
Q 353 903 353 1747 
Q 353 2603 823 3093 
Q 1294 3584 2113 3584 
Q 2378 3584 2631 3529 
Q 2884 3475 3122 3366 
z
" transform="scale(0.015625)"/>
       <path id="DejaVuSans-73" d="M 2834 3397 
L 2834 2853 
Q 2591 2978 2328 3040 
Q 2066 3103 1784 3103 
Q 1356 3103 1142 2972 
Q 928 2841 928 2578 
Q 928 2378 1081 2264 
Q 1234 2150 1697 2047 
L 1894 2003 
Q 2506 1872 2764 1633 
Q 3022 1394 3022 966 
Q 3022 478 2636 193 
Q 2250 -91 1575 -91 
Q 1294 -91 989 -36 
Q 684 19 347 128 
L 347 722 
Q 666 556 975 473 
Q 1284 391 1588 391 
Q 1994 391 2212 530 
Q 2431 669 2431 922 
Q 2431 1156 2273 1281 
Q 2116 1406 1581 1522 
L 1381 1569 
Q 847 1681 609 1914 
Q 372 2147 372 2553 
Q 372 3047 722 3315 
Q 1072 3584 1716 3584 
Q 2034 3584 2315 3537 
Q 2597 3491 2834 3397 
z
" transform="scale(0.015625)"/>
      </defs>
      <use xlink:href="#DejaVuSans-74"/>
      <use xlink:href="#DejaVuSans-72" transform="translate(39.208984 0)"/>
      <use xlink:href="#DejaVuSans-61" transform="translate(80.322266 0)"/>
      <use xlink:href="#DejaVuSans-69" transform="translate(141.601562 0)"/>
      <use xlink:href="#DejaVuSans-6e" transform="translate(169.384766 0)"/>
      <use xlink:href="#DejaVuSans-5f" transform="translate(232.763672 0)"/>
      <use xlink:href="#DejaVuSans-63" transform="translate(282.763672 0)"/>
      <use xlink:href="#DejaVuSans-6c" transform="translate(337.744141 0)"/>
      <use xlink:href="#DejaVuSans-61" transform="translate(365.527344 0)"/>
      <use xlink:href="#DejaVuSans-73" transform="translate(426.806641 0)"/>
      <use xlink:href="#DejaVuSans-73" transform="translate(478.90625 0)"/>
      <use xlink:href="#DejaVuSans-30" transform="translate(531.005859 0)"/>
     </g>
    </g>
    <g id="line2d_18">
     <path d="M 66.6 84.204813 
L 76.6 84.204813 
L 86.6 84.204813 
" style="fill: none; stroke: #2ca02c; stroke-width: 1.5; stroke-linecap: square"/>
    </g>
    <g id="text_15">
     <!-- train_class1 -->
     <g transform="translate(94.6 87.704813) scale(0.1 -0.1)">
      <use xlink:href="#DejaVuSans-74"/>
      <use xlink:href="#DejaVuSans-72" transform="translate(39.208984 0)"/>
      <use xlink:href="#DejaVuSans-61" transform="translate(80.322266 0)"/>
      <use xlink:href="#DejaVuSans-69" transform="translate(141.601562 0)"/>
      <use xlink:href="#DejaVuSans-6e" transform="translate(169.384766 0)"/>
      <use xlink:href="#DejaVuSans-5f" transform="translate(232.763672 0)"/>
      <use xlink:href="#DejaVuSans-63" transform="translate(282.763672 0)"/>
      <use xlink:href="#DejaVuSans-6c" transform="translate(337.744141 0)"/>
      <use xlink:href="#DejaVuSans-61" transform="translate(365.527344 0)"/>
      <use xlink:href="#DejaVuSans-73" transform="translate(426.806641 0)"/>
      <use xlink:href="#DejaVuSans-73" transform="translate(478.90625 0)"/>
      <use xlink:href="#DejaVuSans-31" transform="translate(531.005859 0)"/>
     </g>
    </g>
    <g id="line2d_19">
     <path d="M 66.6 99.161063 
L 76.6 99.161063 
L 86.6 99.161063 
" style="fill: none; stroke: #d62728; stroke-width: 1.5; stroke-linecap: square"/>
    </g>
    <g id="text_16">
     <!-- test -->
     <g transform="translate(94.6 102.661063) scale(0.1 -0.1)">
      <use xlink:href="#DejaVuSans-74"/>
      <use xlink:href="#DejaVuSans-65" transform="translate(39.208984 0)"/>
      <use xlink:href="#DejaVuSans-73" transform="translate(100.732422 0)"/>
      <use xlink:href="#DejaVuSans-74" transform="translate(152.832031 0)"/>
     </g>
    </g>
    <g id="line2d_20">
     <path d="M 66.6 113.839188 
L 76.6 113.839188 
L 86.6 113.839188 
" style="fill: none; stroke: #9467bd; stroke-width: 1.5; stroke-linecap: square"/>
    </g>
    <g id="text_17">
     <!-- test_class0 -->
     <g transform="translate(94.6 117.339188) scale(0.1 -0.1)">
      <use xlink:href="#DejaVuSans-74"/>
      <use xlink:href="#DejaVuSans-65" transform="translate(39.208984 0)"/>
      <use xlink:href="#DejaVuSans-73" transform="translate(100.732422 0)"/>
      <use xlink:href="#DejaVuSans-74" transform="translate(152.832031 0)"/>
      <use xlink:href="#DejaVuSans-5f" transform="translate(192.041016 0)"/>
      <use xlink:href="#DejaVuSans-63" transform="translate(242.041016 0)"/>
      <use xlink:href="#DejaVuSans-6c" transform="translate(297.021484 0)"/>
      <use xlink:href="#DejaVuSans-61" transform="translate(324.804688 0)"/>
      <use xlink:href="#DejaVuSans-73" transform="translate(386.083984 0)"/>
      <use xlink:href="#DejaVuSans-73" transform="translate(438.183594 0)"/>
      <use xlink:href="#DejaVuSans-30" transform="translate(490.283203 0)"/>
     </g>
    </g>
    <g id="line2d_21">
     <path d="M 66.6 128.795438 
L 76.6 128.795438 
L 86.6 128.795438 
" style="fill: none; stroke: #8c564b; stroke-width: 1.5; stroke-linecap: square"/>
    </g>
    <g id="text_18">
     <!-- test_class1 -->
     <g transform="translate(94.6 132.295438) scale(0.1 -0.1)">
      <use xlink:href="#DejaVuSans-74"/>
      <use xlink:href="#DejaVuSans-65" transform="translate(39.208984 0)"/>
      <use xlink:href="#DejaVuSans-73" transform="translate(100.732422 0)"/>
      <use xlink:href="#DejaVuSans-74" transform="translate(152.832031 0)"/>
      <use xlink:href="#DejaVuSans-5f" transform="translate(192.041016 0)"/>
      <use xlink:href="#DejaVuSans-63" transform="translate(242.041016 0)"/>
      <use xlink:href="#DejaVuSans-6c" transform="translate(297.021484 0)"/>
      <use xlink:href="#DejaVuSans-61" transform="translate(324.804688 0)"/>
      <use xlink:href="#DejaVuSans-73" transform="translate(386.083984 0)"/>
      <use xlink:href="#DejaVuSans-73" transform="translate(438.183594 0)"/>
      <use xlink:href="#DejaVuSans-31" transform="translate(490.283203 0)"/>
     </g>
    </g>
   </g>
   <g id="line2d_22">
    <path d="M 73.832727 184.889447 
L 77.079273 220.170111 
L 80.325818 198.322052 
L 83.572364 170.789881 
L 86.818909 199.59311 
L 90.065455 186.380486 
L 93.312 237.774049 
L 96.558545 184.389268 
L 99.805091 204.838514 
L 103.051636 212.326116 
L 106.298182 197.997223 
L 109.544727 198.69802 
L 112.791273 202.455091 
L 116.037818 213.258886 
L 119.284364 208.785588 
L 122.530909 177.635928 
L 125.777455 220.72201 
L 129.024 206.088668 
L 132.270545 186.862348 
L 135.517091 222.771364 
L 138.763636 206.747075 
L 142.010182 219.721863 
L 145.256727 239.837517 
L 148.503273 202.083579 
L 151.749818 215.718434 
L 154.996364 234.973194 
L 158.242909 208.757895 
L 161.489455 252.330968 
L 164.736 227.958902 
L 167.982545 211.929544 
L 171.229091 204.878647 
L 174.475636 187.663506 
L 177.722182 196.267929 
L 180.968727 192.444529 
L 184.215273 228.639602 
L 187.461818 254.496443 
L 190.708364 219.425937 
L 193.954909 226.433665 
L 197.201455 214.383529 
L 200.448 270.739952 
L 203.694545 251.248836 
L 206.941091 199.803448 
L 210.187636 229.007764 
L 213.434182 219.613696 
L 216.680727 246.896608 
L 219.927273 237.230852 
L 223.173818 263.676824 
L 226.420364 256.863553 
L 229.666909 167.282698 
L 232.913455 231.777936 
L 236.16 221.448705 
L 239.406545 219.158391 
L 242.653091 231.39989 
L 245.899636 219.976595 
L 249.146182 270.746037 
L 252.392727 250.571215 
L 255.639273 241.951571 
L 258.885818 240.861349 
L 262.132364 232.083267 
L 265.378909 229.681975 
L 268.625455 220.49521 
L 271.872 211.811837 
L 275.118545 222.366314 
L 278.365091 263.453208 
L 281.611636 205.580924 
L 284.858182 266.545398 
L 288.104727 260.912304 
L 291.351273 191.945771 
L 294.597818 248.04187 
L 297.844364 259.11855 
L 301.090909 219.384593 
L 304.337455 252.091727 
L 307.584 219.741451 
L 310.830545 243.140823 
L 314.077091 239.57184 
L 317.323636 249.974803 
L 320.570182 181.099001 
L 323.816727 247.388502 
L 327.063273 282.995223 
L 330.309818 191.231382 
L 333.556364 231.463184 
L 336.802909 258.627507 
L 340.049455 265.173291 
L 343.296 285.745149 
L 346.542545 295.488 
L 349.789091 241.3199 
L 353.035636 260.571909 
L 356.282182 242.622866 
L 359.528727 275.604978 
L 362.775273 250.873571 
L 366.021818 225.091119 
L 369.268364 282.518924 
L 372.514909 191.943378 
L 375.761455 266.631675 
L 379.008 238.070408 
L 382.254545 212.640762 
L 385.501091 242.256768 
L 388.747636 241.843718 
L 391.994182 241.789006 
L 395.240727 261.206197 
L 398.487273 261.651634 
" clip-path="url(#p94be6005ef)" style="fill: none; stroke: #9467bd; stroke-width: 1.5; stroke-linecap: square"/>
   </g>
   <g id="line2d_23">
    <path d="M 73.832727 167.601756 
L 77.079273 133.909681 
L 80.325818 146.568582 
L 83.572364 187.300787 
L 86.818909 162.294732 
L 90.065455 158.928521 
L 93.312 122.197787 
L 96.558545 180.901717 
L 99.805091 161.525362 
L 103.051636 146.306374 
L 106.298182 159.091384 
L 109.544727 159.535326 
L 112.791273 152.257315 
L 116.037818 140.105366 
L 119.284364 150.997651 
L 122.530909 182.069542 
L 125.777455 134.280086 
L 129.024 143.698587 
L 132.270545 161.866401 
L 135.517091 139.831495 
L 138.763636 144.121744 
L 142.010182 136.290459 
L 145.256727 119.673555 
L 148.503273 156.761535 
L 151.749818 143.932026 
L 154.996364 105.076084 
L 158.242909 138.742829 
L 161.489455 98.717805 
L 164.736 131.619876 
L 167.982545 140.59255 
L 171.229091 153.413567 
L 174.475636 164.744022 
L 177.722182 163.028005 
L 180.968727 162.296436 
L 184.215273 115.438899 
L 187.461818 100.011381 
L 190.708364 131.732797 
L 193.954909 127.836369 
L 197.201455 143.333026 
L 200.448 96.526537 
L 203.694545 95.87 
L 206.941091 158.748133 
L 210.187636 123.926243 
L 213.434182 126.09263 
L 216.680727 112.988712 
L 219.927273 118.954456 
L 223.173818 100.795823 
L 226.420364 103.322328 
L 229.666909 187.727458 
L 232.913455 116.928025 
L 236.16 135.990839 
L 239.406545 134.795561 
L 242.653091 138.29467 
L 245.899636 136.271439 
L 249.146182 87.471204 
L 252.392727 109.195605 
L 255.639273 114.128516 
L 258.885818 113.929108 
L 262.132364 120.780493 
L 265.378909 120.340798 
L 268.625455 132.517418 
L 271.872 134.801811 
L 275.118545 129.611417 
L 278.365091 81.793985 
L 281.611636 155.454173 
L 284.858182 92.349149 
L 288.104727 95.204401 
L 291.351273 175.099509 
L 294.597818 107.428481 
L 297.844364 107.040432 
L 301.090909 140.185871 
L 304.337455 107.583689 
L 307.584 136.987727 
L 310.830545 110.29731 
L 314.077091 117.563837 
L 317.323636 97.678781 
L 320.570182 171.066623 
L 323.816727 107.069291 
L 327.063273 73.301975 
L 330.309818 165.54201 
L 333.556364 122.264385 
L 336.802909 98.500634 
L 340.049455 92.12528 
L 343.296 69.519036 
L 346.542545 53.568 
L 349.789091 118.592275 
L 353.035636 95.03448 
L 356.282182 105.4903 
L 359.528727 80.568742 
L 362.775273 98.287949 
L 366.021818 130.049886 
L 369.268364 65.827727 
L 372.514909 163.501284 
L 375.761455 86.080496 
L 379.008 125.255795 
L 382.254545 131.522235 
L 385.501091 115.915676 
L 388.747636 109.619361 
L 391.994182 106.616826 
L 395.240727 85.270636 
L 398.487273 105.274594 
" clip-path="url(#p94be6005ef)" style="fill: none; stroke: #8c564b; stroke-width: 1.5; stroke-linecap: square"/>
   </g>
  </g>
 </g>
 <defs>
  <clipPath id="p94be6005ef">
   <rect x="57.6" y="41.472" width="357.12" height="266.112"/>
  </clipPath>
 </defs>
</svg>
