<?xml version="1.0" encoding="utf-8" standalone="no"?>
<!DOCTYPE svg PUBLIC "-//W3C//DTD SVG 1.1//EN"
  "http://www.w3.org/Graphics/SVG/1.1/DTD/svg11.dtd">
<svg xmlns:xlink="http://www.w3.org/1999/xlink" width="460.8pt" height="345.6pt" viewBox="0 0 460.8 345.6" xmlns="http://www.w3.org/2000/svg" version="1.1">
 <metadata>
  <rdf:RDF xmlns:dc="http://purl.org/dc/elements/1.1/" xmlns:cc="http://creativecommons.org/ns#" xmlns:rdf="http://www.w3.org/1999/02/22-rdf-syntax-ns#">
   <cc:Work>
    <dc:type rdf:resource="http://purl.org/dc/dcmitype/StillImage"/>
    <dc:date>2026-03-19T13:43:36.834455</dc:date>
    <dc:format>image/svg+xml</dc:format>
    <dc:creator>
     <cc:Agent>
      <dc:title>Matplotlib v3.10.8, https://matplotlib.org/</dc:title>
     </cc:Agent>
    </dc:creator>
   </cc:Work>
  </rdf:RDF>
 </metadata>
 <defs>
  <style type="text/css">*{stroke-linejoin: round; stroke-linecap: butt}</style>
 </defs>
 <g id="figure_1">
  <g id="patch_1">
   <path d="M 0 345.6 
L 460.8 345.6 
L 460.8 0 
L 0 0 
z
" style="fill: #ffffff"/>
  </g>
  <g id="axes_1">
   <g id="patch_2">
    <path d="M 57.6 307.584 
L 414.72 307.584 
L 414.72 41.472 
L 57.6 41.472 
z
" style="fill: #ffffff"/>
   </g>
   <g id="matplotlib.axis_1">
    <g id="xtick_1">
     <g id="line2d_1">
      <defs>
       <path id="m17f3301e5d" d="M 0 0 
L 0 3.5 
" style="stroke: #000000; stroke-width: 0.8"/>
      </defs>
      <g>
       <use xlink:href="#m17f3301e5d" x="73.832727" y="307.584" style="stroke: #000000; stroke-width: 0.8"/>
      </g>
     </g>
     <g id="text_1">
      <!-- 0 -->
      <g transform="translate(70.651477 322.182437) scale(0.1 -0.1)">
       <defs>
        <path id="DejaVuSans-30" d="M 2034 4250 
Q 1547 4250 1301 3770 
Q 1056 3291 1056 2328 
Q 1056 1369 1301 889 
Q 1547 409 2034 409 
Q 2525 409 2770 889 
Q 3016 1369 3016 2328 
Q 3016 3291 2770 3770 
Q 2525 4250 2034 4250 
z
M 2034 4750 
Q 2819 4750 3233 4129 
Q 3647 3509 3647 2328 
Q 3647 1150 3233 529 
Q 2819 -91 2034 -91 
Q 1250 -91 836 529 
Q 422 1150 422 2328 
Q 422 3509 836 4129 
Q 1250 4750 2034 4750 
z
" transform="scale(0.015625)"/>
       </defs>
       <use xlink:href="#DejaVuSans-30"/>
      </g>
     </g>
    </g>
    <g id="xtick_2">
     <g id="line2d_2">
      <g>
       <use xlink:href="#m17f3301e5d" x="127.941818" y="307.584" style="stroke: #000000; stroke-width: 0.8"/>
      </g>
     </g>
     <g id="text_2">
      <!-- 50 -->
      <g transform="translate(121.579318 322.182437) scale(0.1 -0.1)">
       <defs>
        <path id="DejaVuSans-35" d="M 691 4666 
L 3169 4666 
L 3169 4134 
L 1269 4134 
L 1269 2991 
Q 1406 3038 1543 3061 
Q 1681 3084 1819 3084 
Q 2600 3084 3056 2656 
Q 3513 2228 3513 1497 
Q 3513 744 3044 326 
Q 2575 -91 1722 -91 
Q 1428 -91 1123 -41 
Q 819 9 494 109 
L 494 744 
Q 775 591 1075 516 
Q 1375 441 1709 441 
Q 2250 441 2565 725 
Q 2881 1009 2881 1497 
Q 2881 1984 2565 2268 
Q 2250 2553 1709 2553 
Q 1456 2553 1204 2497 
Q 953 2441 691 2322 
L 691 4666 
z
" transform="scale(0.015625)"/>
       </defs>
       <use xlink:href="#DejaVuSans-35"/>
       <use xlink:href="#DejaVuSans-30" transform="translate(63.623047 0)"/>
      </g>
     </g>
    </g>
    <g id="xtick_3">
     <g id="line2d_3">
      <g>
       <use xlink:href="#m17f3301e5d" x="182.050909" y="307.584" style="stroke: #000000; stroke-width: 0.8"/>
      </g>
     </g>
     <g id="text_3">
      <!-- 100 -->
      <g transform="translate(172.507159 322.182437) scale(0.1 -0.1)">
       <defs>
        <path id="DejaVuSans-31" d="M 794 531 
L 1825 531 
L 1825 4091 
L 703 3866 
L 703 4441 
L 1819 4666 
L 2450 4666 
L 2450 531 
L 3481 531 
L 3481 0 
L 794 0 
L 794 531 
z
" transform="scale(0.015625)"/>
       </defs>
       <use xlink:href="#DejaVuSans-31"/>
       <use xlink:href="#DejaVuSans-30" transform="translate(63.623047 0)"/>
       <use xlink:href="#DejaVuSans-30" transform="translate(127.246094 0)"/>
      </g>
     </g>
    </g>
    <g id="xtick_4">
     <g id="line2d_4">
      <g>
       <use xlink:href="#m17f3301e5d" x="236.16" y="307.584" style="stroke: #000000; stroke-width: 0.8"/>
      </g>
     </g>
     <g id="text_4">
      <!-- 150 -->
      <g transform="translate(226.61625 322.182437) scale(0.1 -0.1)">
       <use xlink:href="#DejaVuSans-31"/>
       <use xlink:href="#DejaVuSans-35" transform="translate(63.623047 0)"/>
       <use xlink:href="#DejaVuSans-30" transform="translate(127.246094 0)"/>
      </g>
     </g>
    </g>
    <g id="xtick_5">
     <g id="line2d_5">
      <g>
       <use xlink:href="#m17f3301e5d" x="290.269091" y="307.584" style="stroke: #000000; stroke-width: 0.8"/>
      </g>
     </g>
     <g id="text_5">
      <!-- 200 -->
      <g transform="translate(280.725341 322.182437) scale(0.1 -0.1)">
       <defs>
        <path id="DejaVuSans-32" d="M 1228 531 
L 3431 531 
L 3431 0 
L 469 0 
L 469 531 
Q 828 903 1448 1529 
Q 2069 2156 2228 2338 
Q 2531 2678 2651 2914 
Q 2772 3150 2772 3378 
Q 2772 3750 2511 3984 
Q 2250 4219 1831 4219 
Q 1534 4219 1204 4116 
Q 875 4013 500 3803 
L 500 4441 
Q 881 4594 1212 4672 
Q 1544 4750 1819 4750 
Q 2544 4750 2975 4387 
Q 3406 4025 3406 3419 
Q 3406 3131 3298 2873 
Q 3191 2616 2906 2266 
Q 2828 2175 2409 1742 
Q 1991 1309 1228 531 
z
" transform="scale(0.015625)"/>
       </defs>
       <use xlink:href="#DejaVuSans-32"/>
       <use xlink:href="#DejaVuSans-30" transform="translate(63.623047 0)"/>
       <use xlink:href="#DejaVuSans-30" transform="translate(127.246094 0)"/>
      </g>
     </g>
    </g>
    <g id="xtick_6">
     <g id="line2d_6">
      <g>
       <use xlink:href="#m17f3301e5d" x="344.378182" y="307.584" style="stroke: #000000; stroke-width: 0.8"/>
      </g>
     </g>
     <g id="text_6">
      <!-- 250 -->
      <g transform="translate(334.834432 322.182437) scale(0.1 -0.1)">
       <use xlink:href="#DejaVuSans-32"/>
       <use xlink:href="#DejaVuSans-35" transform="translate(63.623047 0)"/>
       <use xlink:href="#DejaVuSans-30" transform="translate(127.246094 0)"/>
      </g>
     </g>
    </g>
    <g id="xtick_7">
     <g id="line2d_7">
      <g>
       <use xlink:href="#m17f3301e5d" x="398.487273" y="307.584" style="stroke: #000000; stroke-width: 0.8"/>
      </g>
     </g>
     <g id="text_7">
      <!-- 300 -->
      <g transform="translate(388.943523 322.182437) scale(0.1 -0.1)">
       <defs>
        <path id="DejaVuSans-33" d="M 2597 2516 
Q 3050 2419 3304 2112 
Q 3559 1806 3559 1356 
Q 3559 666 3084 287 
Q 2609 -91 1734 -91 
Q 1441 -91 1130 -33 
Q 819 25 488 141 
L 488 750 
Q 750 597 1062 519 
Q 1375 441 1716 441 
Q 2309 441 2620 675 
Q 2931 909 2931 1356 
Q 2931 1769 2642 2001 
Q 2353 2234 1838 2234 
L 1294 2234 
L 1294 2753 
L 1863 2753 
Q 2328 2753 2575 2939 
Q 2822 3125 2822 3475 
Q 2822 3834 2567 4026 
Q 2313 4219 1838 4219 
Q 1578 4219 1281 4162 
Q 984 4106 628 3988 
L 628 4550 
Q 988 4650 1302 4700 
Q 1616 4750 1894 4750 
Q 2613 4750 3031 4423 
Q 3450 4097 3450 3541 
Q 3450 3153 3228 2886 
Q 3006 2619 2597 2516 
z
" transform="scale(0.015625)"/>
       </defs>
       <use xlink:href="#DejaVuSans-33"/>
       <use xlink:href="#DejaVuSans-30" transform="translate(63.623047 0)"/>
       <use xlink:href="#DejaVuSans-30" transform="translate(127.246094 0)"/>
      </g>
     </g>
    </g>
   </g>
   <g id="matplotlib.axis_2">
    <g id="ytick_1">
     <g id="line2d_8">
      <defs>
       <path id="mdd7cd2bf3d" d="M 0 0 
L -3.5 0 
" style="stroke: #000000; stroke-width: 0.8"/>
      </defs>
      <g>
       <use xlink:href="#mdd7cd2bf3d" x="57.6" y="300.284537" style="stroke: #000000; stroke-width: 0.8"/>
      </g>
     </g>
     <g id="text_8">
      <!-- 0.0 -->
      <g transform="translate(34.696875 304.083756) scale(0.1 -0.1)">
       <defs>
        <path id="DejaVuSans-2e" d="M 684 794 
L 1344 794 
L 1344 0 
L 684 0 
L 684 794 
z
" transform="scale(0.015625)"/>
       </defs>
       <use xlink:href="#DejaVuSans-30"/>
       <use xlink:href="#DejaVuSans-2e" transform="translate(63.623047 0)"/>
       <use xlink:href="#DejaVuSans-30" transform="translate(95.410156 0)"/>
      </g>
     </g>
    </g>
    <g id="ytick_2">
     <g id="line2d_9">
      <g>
       <use xlink:href="#mdd7cd2bf3d" x="57.6" y="249.945822" style="stroke: #000000; stroke-width: 0.8"/>
      </g>
     </g>
     <g id="text_9">
      <!-- 0.2 -->
      <g transform="translate(34.696875 253.745041) scale(0.1 -0.1)">
       <use xlink:href="#DejaVuSans-30"/>
       <use xlink:href="#DejaVuSans-2e" transform="translate(63.623047 0)"/>
       <use xlink:href="#DejaVuSans-32" transform="translate(95.410156 0)"/>
      </g>
     </g>
    </g>
    <g id="ytick_3">
     <g id="line2d_10">
      <g>
       <use xlink:href="#mdd7cd2bf3d" x="57.6" y="199.607107" style="stroke: #000000; stroke-width: 0.8"/>
      </g>
     </g>
     <g id="text_10">
      <!-- 0.4 -->
      <g transform="translate(34.696875 203.406326) scale(0.1 -0.1)">
       <defs>
        <path id="DejaVuSans-34" d="M 2419 4116 
L 825 1625 
L 2419 1625 
L 2419 4116 
z
M 2253 4666 
L 3047 4666 
L 3047 1625 
L 3713 1625 
L 3713 1100 
L 3047 1100 
L 3047 0 
L 2419 0 
L 2419 1100 
L 313 1100 
L 313 1709 
L 2253 4666 
z
" transform="scale(0.015625)"/>
       </defs>
       <use xlink:href="#DejaVuSans-30"/>
       <use xlink:href="#DejaVuSans-2e" transform="translate(63.623047 0)"/>
       <use xlink:href="#DejaVuSans-34" transform="translate(95.410156 0)"/>
      </g>
     </g>
    </g>
    <g id="ytick_4">
     <g id="line2d_11">
      <g>
       <use xlink:href="#mdd7cd2bf3d" x="57.6" y="149.268392" style="stroke: #000000; stroke-width: 0.8"/>
      </g>
     </g>
     <g id="text_11">
      <!-- 0.6 -->
      <g transform="translate(34.696875 153.06761) scale(0.1 -0.1)">
       <defs>
        <path id="DejaVuSans-36" d="M 2113 2584 
Q 1688 2584 1439 2293 
Q 1191 2003 1191 1497 
Q 1191 994 1439 701 
Q 1688 409 2113 409 
Q 2538 409 2786 701 
Q 3034 994 3034 1497 
Q 3034 2003 2786 2293 
Q 2538 2584 2113 2584 
z
M 3366 4563 
L 3366 3988 
Q 3128 4100 2886 4159 
Q 2644 4219 2406 4219 
Q 1781 4219 1451 3797 
Q 1122 3375 1075 2522 
Q 1259 2794 1537 2939 
Q 1816 3084 2150 3084 
Q 2853 3084 3261 2657 
Q 3669 2231 3669 1497 
Q 3669 778 3244 343 
Q 2819 -91 2113 -91 
Q 1303 -91 875 529 
Q 447 1150 447 2328 
Q 447 3434 972 4092 
Q 1497 4750 2381 4750 
Q 2619 4750 2861 4703 
Q 3103 4656 3366 4563 
z
" transform="scale(0.015625)"/>
       </defs>
       <use xlink:href="#DejaVuSans-30"/>
       <use xlink:href="#DejaVuSans-2e" transform="translate(63.623047 0)"/>
       <use xlink:href="#DejaVuSans-36" transform="translate(95.410156 0)"/>
      </g>
     </g>
    </g>
    <g id="ytick_5">
     <g id="line2d_12">
      <g>
       <use xlink:href="#mdd7cd2bf3d" x="57.6" y="98.929676" style="stroke: #000000; stroke-width: 0.8"/>
      </g>
     </g>
     <g id="text_12">
      <!-- 0.8 -->
      <g transform="translate(34.696875 102.728895) scale(0.1 -0.1)">
       <defs>
        <path id="DejaVuSans-38" d="M 2034 2216 
Q 1584 2216 1326 1975 
Q 1069 1734 1069 1313 
Q 1069 891 1326 650 
Q 1584 409 2034 409 
Q 2484 409 2743 651 
Q 3003 894 3003 1313 
Q 3003 1734 2745 1975 
Q 2488 2216 2034 2216 
z
M 1403 2484 
Q 997 2584 770 2862 
Q 544 3141 544 3541 
Q 544 4100 942 4425 
Q 1341 4750 2034 4750 
Q 2731 4750 3128 4425 
Q 3525 4100 3525 3541 
Q 3525 3141 3298 2862 
Q 3072 2584 2669 2484 
Q 3125 2378 3379 2068 
Q 3634 1759 3634 1313 
Q 3634 634 3220 271 
Q 2806 -91 2034 -91 
Q 1263 -91 848 271 
Q 434 634 434 1313 
Q 434 1759 690 2068 
Q 947 2378 1403 2484 
z
M 1172 3481 
Q 1172 3119 1398 2916 
Q 1625 2713 2034 2713 
Q 2441 2713 2670 2916 
Q 2900 3119 2900 3481 
Q 2900 3844 2670 4047 
Q 2441 4250 2034 4250 
Q 1625 4250 1398 4047 
Q 1172 3844 1172 3481 
z
" transform="scale(0.015625)"/>
       </defs>
       <use xlink:href="#DejaVuSans-30"/>
       <use xlink:href="#DejaVuSans-2e" transform="translate(63.623047 0)"/>
       <use xlink:href="#DejaVuSans-38" transform="translate(95.410156 0)"/>
      </g>
     </g>
    </g>
    <g id="ytick_6">
     <g id="line2d_13">
      <g>
       <use xlink:href="#mdd7cd2bf3d" x="57.6" y="48.590961" style="stroke: #000000; stroke-width: 0.8"/>
      </g>
     </g>
     <g id="text_13">
      <!-- 1.0 -->
      <g transform="translate(34.696875 52.39018) scale(0.1 -0.1)">
       <use xlink:href="#DejaVuSans-31"/>
       <use xlink:href="#DejaVuSans-2e" transform="translate(63.623047 0)"/>
       <use xlink:href="#DejaVuSans-30" transform="translate(95.410156 0)"/>
      </g>
     </g>
    </g>
   </g>
   <g id="line2d_14">
    <path d="M 73.832727 197.25797 
L 74.914909 145.786622 
L 75.997091 141.563769 
L 77.079273 140.263356 
L 78.161455 139.144709 
L 79.243636 137.494733 
L 80.325818 136.949391 
L 81.408 134.893893 
L 82.490182 134.460422 
L 83.572364 136.935409 
L 84.654545 136.921427 
L 85.736727 134.865929 
L 86.818909 135.173562 
L 87.901091 137.159121 
L 88.983273 137.061247 
L 90.065455 137.340916 
L 91.147636 137.424808 
L 92.229818 137.36888 
L 93.312 136.138392 
L 94.394182 134.292638 
L 95.476364 133.439663 
L 96.558545 133.45366 
L 97.640727 134.935838 
L 98.722909 134.012969 
L 99.805091 135.08967 
L 100.887273 135.984576 
L 101.969455 133.845185 
L 103.051636 133.998987 
L 104.133818 133.998987 
L 105.216 135.774816 
L 106.298182 135.914651 
L 107.380364 136.963373 
L 108.462545 136.79559 
L 110.626909 134.670181 
L 111.709091 136.082449 
L 113.873455 130.405352 
L 114.955636 131.95747 
L 116.037818 131.454075 
L 117.12 133.229919 
L 118.202182 130.209605 
L 119.284364 131.468057 
L 120.366545 135.047709 
L 121.448727 134.30662 
L 122.530909 133.929077 
L 123.613091 135.271436 
L 124.695273 134.684133 
L 125.777455 136.376086 
L 126.859636 133.635426 
L 127.941818 132.992196 
L 129.024 135.439234 
L 130.106182 137.508715 
L 131.188364 135.089655 
L 132.270545 133.453645 
L 133.352727 133.020174 
L 134.434909 128.923159 
L 135.517091 134.530332 
L 136.599273 134.404494 
L 137.681455 135.718888 
L 138.763636 134.837965 
L 139.845818 134.44644 
L 140.928 134.222698 
L 142.010182 132.432887 
L 143.092364 134.208716 
L 144.174545 134.62822 
L 145.256727 136.026522 
L 146.338909 133.971023 
L 147.421091 133.677372 
L 148.503273 132.768484 
L 149.585455 132.432887 
L 150.667636 136.79559 
L 151.749818 134.138822 
L 152.832 132.167215 
L 153.914182 131.747741 
L 154.996364 132.23714 
L 156.078545 134.94982 
L 157.160727 135.047694 
L 158.242909 133.285847 
L 159.325091 134.642202 
L 160.407273 134.488386 
L 161.489455 135.467213 
L 162.571636 134.502368 
L 163.653818 133.803224 
L 164.736 134.37653 
L 165.818182 134.236695 
L 166.900364 132.502797 
L 167.982545 133.677372 
L 169.064727 134.124825 
L 170.146909 134.026936 
L 171.229091 134.292623 
L 172.311273 132.964247 
L 173.393455 132.334998 
L 174.475636 133.118048 
L 175.557818 131.957485 
L 176.64 133.06212 
L 177.722182 133.929062 
L 178.804364 132.964232 
L 179.886545 133.257883 
L 180.968727 132.782481 
L 182.050909 130.349425 
L 183.133091 133.383736 
L 184.215273 130.964661 
L 185.297455 132.111272 
L 186.379636 134.712097 
L 187.461818 131.356201 
L 188.544 130.60113 
L 189.626182 130.083767 
L 190.708364 128.237998 
L 191.790545 128.839268 
L 192.872727 128.349854 
L 193.954909 129.244759 
L 195.037091 130.726968 
L 196.119273 131.635855 
L 197.201455 130.601115 
L 198.283636 131.468057 
L 199.365818 130.265533 
L 201.530182 133.090084 
L 202.612364 131.775675 
L 203.694545 132.908319 
L 204.776727 130.866787 
L 205.858909 131.440093 
L 206.941091 132.181197 
L 208.023273 131.691783 
L 209.105455 131.482039 
L 210.187636 132.922316 
L 211.269818 131.943488 
L 212.352 131.761723 
L 213.434182 131.062535 
L 214.516364 131.020619 
L 215.598545 129.412573 
L 216.680727 131.537981 
L 217.762909 130.181641 
L 218.845091 131.523999 
L 219.927273 129.021048 
L 221.009455 130.517223 
L 222.091636 129.860011 
L 223.173818 130.489244 
L 224.256 128.839268 
L 225.338182 129.118922 
L 226.420364 131.943488 
L 227.502545 131.090529 
L 228.584727 130.698989 
L 229.666909 130.922715 
L 230.749091 130.796877 
L 231.831273 129.482483 
L 232.913455 131.104511 
L 235.077818 128.279944 
L 236.16 127.426969 
L 237.242182 128.3918 
L 238.324364 127.301132 
L 239.406545 128.601559 
L 240.488727 126.89564 
L 241.570909 128.25198 
L 242.653091 129.17488 
L 243.735273 125.749029 
L 244.817455 129.146886 
L 245.899636 128.629523 
L 246.981818 128.419764 
L 248.064 129.118922 
L 249.146182 129.328681 
L 250.228364 129.202814 
L 251.310545 129.538426 
L 252.392727 126.727856 
L 253.474909 125.525302 
L 254.557091 127.748599 
L 255.639273 127.762581 
L 256.721455 126.378262 
L 257.803636 124.560472 
L 258.885818 126.909622 
L 259.968 126.392244 
L 261.050182 125.315558 
L 262.132364 125.539284 
L 263.214545 127.636714 
L 264.296727 126.238442 
L 265.378909 126.280373 
L 267.543273 125.623176 
L 268.625455 125.567248 
L 269.707636 124.54649 
L 270.789818 123.735476 
L 271.872 125.860884 
L 272.954182 125.749029 
L 274.036364 124.993943 
L 275.118545 123.106243 
L 276.200727 125.944806 
L 277.282909 125.874896 
L 278.365091 126.462154 
L 279.447273 127.594768 
L 280.529455 124.72827 
L 281.611636 125.063852 
L 282.693818 121.763899 
L 283.776 124.238857 
L 284.858182 124.099037 
L 285.940364 128.419764 
L 287.022545 124.434604 
L 288.104727 124.168947 
L 289.186909 125.888848 
L 290.269091 121.526176 
L 291.351273 120.827018 
L 292.433455 124.644364 
L 293.515636 125.916812 
L 294.597818 126.671898 
L 295.68 128.78334 
L 296.762182 123.917257 
L 297.844364 125.105798 
L 298.926545 125.077834 
L 300.008727 128.307908 
L 301.090909 126.140554 
L 302.173091 125.315558 
L 303.255273 124.951997 
L 304.337455 127.510876 
L 305.419636 127.315114 
L 306.501818 125.860884 
L 307.584 126.811748 
L 308.666182 127.21724 
L 309.748364 125.916812 
L 311.912727 125.287594 
L 312.994909 124.196941 
L 314.077091 124.72827 
L 315.159273 123.665566 
L 316.241455 122.770661 
L 317.323636 122.560901 
L 318.405818 123.092261 
L 319.488 120.854982 
L 320.570182 122.700721 
L 321.652364 126.238427 
L 322.734545 126.643934 
L 323.816727 121.638032 
L 325.981091 130.279515 
L 328.145455 127.035459 
L 329.227636 126.462154 
L 330.309818 124.588436 
L 331.392 126.797736 
L 332.474182 128.00029 
L 333.556364 123.539699 
L 334.638545 124.560472 
L 335.720727 122.113448 
L 336.802909 123.581674 
L 337.885091 122.630841 
L 338.967273 119.750332 
L 340.049455 117.806704 
L 341.131636 122.19734 
L 342.213818 123.525747 
L 343.296 121.833779 
L 344.378182 122.267265 
L 345.460364 124.742252 
L 346.542545 122.421081 
L 347.624727 120.547363 
L 348.706909 122.12743 
L 350.871273 122.686769 
L 351.953455 119.66644 
L 353.035636 120.365598 
L 354.117818 122.630841 
L 355.2 121.260489 
L 357.364364 120.449475 
L 358.446545 120.435493 
L 359.528727 123.134207 
L 360.610909 123.497753 
L 361.693091 123.288053 
L 362.775273 120.757108 
L 363.857455 120.938873 
L 364.939636 122.365139 
L 366.021818 119.666425 
L 367.104 122.239301 
L 368.186182 121.022795 
L 369.268364 120.281691 
L 370.350545 120.813021 
L 371.432727 118.631669 
L 372.514909 121.288452 
L 373.597091 123.441825 
L 374.679273 121.917701 
L 375.761455 122.882516 
L 376.843636 126.11259 
L 377.925818 125.385483 
L 380.090182 122.602877 
L 381.172364 118.449904 
L 382.254545 121.414305 
L 383.336727 117.652872 
L 384.418909 119.862187 
L 385.501091 124.54649 
L 386.583273 124.196911 
L 387.665455 125.2596 
L 388.747636 124.057091 
L 389.829818 123.595656 
L 390.912 120.980849 
L 391.994182 121.456266 
L 393.076364 121.372359 
L 394.158545 122.155394 
L 395.240727 121.652013 
L 396.322909 121.512179 
L 397.405091 121.917701 
L 398.487273 130.405367 
L 398.487273 130.405367 
" clip-path="url(#p3e4022ad6a)" style="fill: none; stroke: #1f77b4; stroke-width: 1.5; stroke-linecap: square"/>
   </g>
   <g id="line2d_15">
    <path d="M 73.832727 258.245301 
L 74.914909 67.601105 
L 75.997091 70.723283 
L 77.079273 76.490978 
L 78.161455 73.58687 
L 79.243636 75.977411 
L 80.325818 81.073882 
L 81.408 82.77518 
L 82.490182 81.107411 
L 83.572364 89.747859 
L 84.654545 87.898235 
L 85.736727 74.898295 
L 87.901091 71.580174 
L 88.983273 68.42256 
L 90.065455 71.872385 
L 92.229818 65.419424 
L 93.312 75.239337 
L 94.394182 72.036073 
L 95.476364 78.96262 
L 96.558545 76.248799 
L 97.640727 70.48706 
L 98.722909 68.804139 
L 99.805091 69.812821 
L 100.887273 69.658239 
L 101.969455 67.612537 
L 103.051636 73.644674 
L 104.133818 71.166806 
L 105.216 71.138152 
L 106.298182 65.225357 
L 107.380364 64.547201 
L 108.462545 63.031194 
L 109.544727 64.741509 
L 111.709091 75.863755 
L 112.791273 71.208962 
L 113.873455 71.182168 
L 114.955636 73.207092 
L 116.037818 73.11927 
L 117.12 68.789932 
L 119.284364 77.136549 
L 120.366545 74.336391 
L 121.448727 69.524615 
L 122.530909 74.694986 
L 123.613091 75.333701 
L 124.695273 69.944359 
L 125.777455 70.084479 
L 126.859636 71.029446 
L 127.941818 75.234507 
L 129.024 68.735009 
L 130.106182 67.49663 
L 131.188364 73.145584 
L 133.352727 71.808521 
L 134.434909 75.978686 
L 135.517091 66.580122 
L 136.599273 71.961002 
L 137.681455 66.571121 
L 138.763636 74.576814 
L 139.845818 75.777283 
L 140.928 78.893836 
L 142.010182 72.111863 
L 143.092364 73.104223 
L 144.174545 69.041697 
L 145.256727 69.844325 
L 146.338909 74.524547 
L 147.421091 73.613454 
L 148.503273 74.561812 
L 149.585455 73.017436 
L 150.667636 69.738005 
L 151.749818 76.052197 
L 152.832 75.3974 
L 154.996364 74.700402 
L 156.078545 74.835766 
L 157.160727 77.725457 
L 158.242909 79.478603 
L 159.325091 78.181851 
L 160.407273 81.640436 
L 161.489455 74.11727 
L 162.571636 80.861137 
L 163.653818 79.136615 
L 164.736 74.860189 
L 165.818182 74.284588 
L 166.900364 74.598553 
L 167.982545 83.012574 
L 169.064727 77.429645 
L 170.146909 78.404842 
L 171.229091 72.283172 
L 173.393455 81.893132 
L 174.475636 83.534782 
L 175.557818 77.674389 
L 176.64 77.104564 
L 177.722182 82.427792 
L 178.804364 79.765923 
L 179.886545 79.690867 
L 180.968727 80.424951 
L 182.050909 79.91932 
L 183.133091 79.646761 
L 184.215273 79.74135 
L 185.297455 81.195144 
L 186.379636 80.92308 
L 187.461818 90.502945 
L 188.544 82.923506 
L 189.626182 82.791383 
L 190.708364 82.854257 
L 191.790545 85.281747 
L 192.872727 78.35376 
L 193.954909 86.265886 
L 195.037091 81.644022 
L 196.119273 85.998968 
L 197.201455 85.020291 
L 198.283636 87.485707 
L 200.448 80.239629 
L 201.530182 81.398002 
L 202.612364 83.543903 
L 203.694545 81.380045 
L 204.776727 85.62258 
L 205.858909 86.29973 
L 206.941091 86.231861 
L 208.023273 89.36304 
L 209.105455 81.768224 
L 210.187636 83.395608 
L 211.269818 88.504245 
L 212.352 86.028417 
L 213.434182 84.475999 
L 214.516364 83.987411 
L 215.598545 86.342456 
L 216.680727 88.402155 
L 217.762909 94.747581 
L 218.845091 89.085981 
L 219.927273 86.216529 
L 221.009455 82.971363 
L 222.091636 83.213077 
L 224.256 85.713868 
L 225.338182 83.673747 
L 226.420364 85.814907 
L 227.502545 80.718272 
L 228.584727 86.177898 
L 229.666909 88.726381 
L 230.749091 85.816872 
L 231.831273 89.191506 
L 232.913455 91.914179 
L 233.995636 89.556192 
L 235.077818 91.163638 
L 236.16 92.110751 
L 237.242182 89.864831 
L 238.324364 83.348081 
L 239.406545 88.866921 
L 240.488727 87.26207 
L 241.570909 91.793442 
L 242.653091 95.018099 
L 243.735273 90.31878 
L 244.817455 87.214109 
L 245.899636 88.827165 
L 246.981818 92.06936 
L 248.064 88.974936 
L 249.146182 85.131606 
L 250.228364 83.810611 
L 251.310545 87.918983 
L 252.392727 87.207103 
L 253.474909 91.117972 
L 254.557091 90.182635 
L 255.639273 90.746025 
L 256.721455 87.040939 
L 257.803636 88.989233 
L 258.885818 86.445641 
L 259.968 89.795701 
L 261.050182 91.10345 
L 262.132364 88.881623 
L 263.214545 85.764095 
L 264.296727 86.209028 
L 265.378909 83.585654 
L 266.461091 83.184498 
L 267.543273 88.871676 
L 268.625455 87.32832 
L 269.707636 89.086462 
L 270.789818 89.335887 
L 271.872 95.820247 
L 272.954182 85.709607 
L 274.036364 86.883297 
L 275.118545 88.845033 
L 276.200727 85.095661 
L 277.282909 88.548306 
L 278.365091 91.278314 
L 279.447273 93.470302 
L 280.529455 89.029394 
L 281.611636 87.456303 
L 282.693818 86.520561 
L 283.776 84.846116 
L 284.858182 88.680325 
L 285.940364 94.027915 
L 287.022545 84.283312 
L 288.104727 91.293136 
L 289.186909 89.164983 
L 290.269091 89.727622 
L 291.351273 91.371492 
L 292.433455 88.510801 
L 293.515636 91.630339 
L 294.597818 86.614234 
L 295.68 93.619243 
L 296.762182 87.873556 
L 297.844364 93.860972 
L 298.926545 95.096095 
L 300.008727 95.656604 
L 301.090909 96.367674 
L 302.173091 94.250667 
L 303.255273 92.407298 
L 304.337455 100.137358 
L 305.419636 91.538946 
L 306.501818 86.211338 
L 307.584 89.50313 
L 308.666182 85.396168 
L 309.748364 85.844356 
L 310.830545 83.913645 
L 311.912727 89.00407 
L 312.994909 92.017483 
L 314.077091 98.543819 
L 315.159273 94.170135 
L 316.241455 93.109606 
L 317.323636 94.55929 
L 318.405818 92.760402 
L 319.488 90.405072 
L 320.570182 92.001521 
L 321.652364 95.266714 
L 322.734545 91.101889 
L 323.816727 90.391825 
L 324.898909 103.370147 
L 325.981091 93.435437 
L 327.063273 86.754564 
L 328.145455 81.200034 
L 329.227636 87.301781 
L 330.309818 84.918081 
L 331.392 90.045336 
L 332.474182 80.500246 
L 333.556364 84.485616 
L 334.638545 83.87347 
L 335.720727 84.485646 
L 336.802909 92.965316 
L 337.885091 84.52006 
L 338.967273 83.551764 
L 340.049455 85.666641 
L 341.131636 77.844333 
L 342.213818 85.273736 
L 343.296 87.571579 
L 344.378182 88.799501 
L 345.460364 82.874434 
L 347.624727 94.140116 
L 348.706909 83.178812 
L 349.789091 81.605121 
L 350.871273 94.676666 
L 351.953455 90.201358 
L 353.035636 87.7557 
L 354.117818 92.234443 
L 355.2 90.372187 
L 356.282182 90.348259 
L 358.446545 89.949623 
L 359.528727 97.215953 
L 360.610909 91.022438 
L 361.693091 92.551738 
L 362.775273 92.480043 
L 363.857455 95.315786 
L 364.939636 97.312701 
L 366.021818 91.664633 
L 367.104 92.327907 
L 368.186182 91.073686 
L 369.268364 89.250795 
L 370.350545 82.427567 
L 371.432727 85.469559 
L 372.514909 90.687096 
L 373.597091 87.035614 
L 374.679273 91.452639 
L 375.761455 94.183217 
L 376.843636 93.601045 
L 377.925818 96.007803 
L 379.008 93.891921 
L 380.090182 93.695979 
L 381.172364 89.871432 
L 382.254545 97.918967 
L 383.336727 88.308332 
L 384.418909 89.144535 
L 385.501091 90.210029 
L 386.583273 87.320654 
L 387.665455 86.129126 
L 388.747636 89.417093 
L 389.829818 91.113951 
L 390.912 90.507806 
L 391.994182 91.345569 
L 393.076364 88.064743 
L 394.158545 97.738926 
L 395.240727 87.29263 
L 396.322909 90.03674 
L 397.405091 83.310291 
L 398.487273 99.167637 
L 398.487273 99.167637 
" clip-path="url(#p3e4022ad6a)" style="fill: none; stroke: #ff7f0e; stroke-width: 1.5; stroke-linecap: square"/>
   </g>
   <g id="line2d_16">
    <path d="M 73.832727 90.539896 
L 74.914909 272.912529 
L 77.079273 243.807698 
L 78.161455 246.8896 
L 79.243636 239.61827 
L 80.325818 229.005218 
L 81.408 221.792242 
L 82.490182 224.43076 
L 83.572364 215.20562 
L 84.654545 218.115489 
L 85.736727 234.49178 
L 86.818909 236.473566 
L 87.901091 243.343713 
L 88.983273 248.756983 
L 90.065455 242.88253 
L 91.147636 249.068025 
L 92.229818 254.186425 
L 93.312 233.710373 
L 94.394182 235.75516 
L 95.476364 221.100683 
L 96.558545 226.002088 
L 97.640727 239.863896 
L 98.722909 239.801116 
L 99.805091 243.643444 
L 100.887273 244.410772 
L 101.969455 243.112519 
L 103.051636 233.037266 
L 104.133818 235.304392 
L 105.216 241.843731 
L 106.298182 251.470448 
L 107.380364 253.825268 
L 108.462545 259.642451 
L 109.544727 254.564163 
L 110.626909 241.950092 
L 111.709091 233.063047 
L 112.791273 233.671653 
L 113.873455 226.346154 
L 114.955636 227.252491 
L 116.037818 225.991069 
L 117.12 236.564239 
L 118.202182 223.366031 
L 119.284364 220.363757 
L 120.366545 236.118916 
L 121.448727 242.994483 
L 122.530909 233.409311 
L 123.613091 235.271687 
L 124.695273 242.457467 
L 125.777455 246.470703 
L 127.941818 228.932945 
L 129.024 244.04058 
L 130.106182 252.466235 
L 131.188364 237.372755 
L 132.270545 233.657333 
L 133.352727 233.576817 
L 134.434909 217.243154 
L 135.517091 246.178301 
L 136.599273 237.615703 
L 137.681455 249.386801 
L 138.763636 234.832261 
L 139.845818 230.610218 
L 140.928 224.208827 
L 142.010182 230.916591 
L 143.092364 233.556887 
L 144.174545 241.143455 
L 145.256727 245.105032 
L 146.338909 232.857173 
L 147.421091 231.632229 
L 148.503273 227.672873 
L 149.585455 228.863628 
L 150.667636 247.668659 
L 151.749818 229.085276 
L 152.832 225.306448 
L 153.914182 224.929063 
L 154.996364 227.104563 
L 156.078545 235.846433 
L 158.242909 223.691382 
L 159.325091 228.136506 
L 160.407273 222.697822 
L 161.489455 237.238546 
L 162.571636 222.771572 
L 163.653818 224.033002 
L 164.736 232.206359 
L 165.818182 234.21971 
L 166.900364 228.527611 
L 167.982545 216.102979 
L 169.064727 227.871096 
L 170.146909 224.883749 
L 171.229091 237.946627 
L 172.311273 225.724632 
L 173.393455 216.69806 
L 174.475636 214.793152 
L 175.557818 222.166102 
L 176.64 226.444388 
L 177.722182 218.357428 
L 178.804364 219.058416 
L 179.886545 223.410017 
L 182.050909 213.693618 
L 183.133091 223.779939 
L 184.215273 215.75499 
L 185.297455 215.77729 
L 186.379636 225.317602 
L 187.461818 198.927765 
L 188.544 208.787652 
L 189.626182 206.928733 
L 190.708364 202.762993 
L 191.790545 200.309414 
L 192.872727 210.245556 
L 193.954909 201.681342 
L 195.037091 210.362865 
L 196.119273 206.335227 
L 197.201455 206.99178 
L 198.283636 204.303935 
L 199.365818 206.745587 
L 200.448 218.501275 
L 201.530182 219.97863 
L 202.612364 211.856115 
L 203.694545 218.829491 
L 204.776727 207.196686 
L 205.858909 208.087443 
L 206.941091 210.29054 
L 208.023273 202.945029 
L 209.105455 213.532285 
L 210.187636 215.519104 
L 211.269818 205.548884 
L 212.352 208.226273 
L 213.434182 208.749284 
L 214.516364 210.368671 
L 215.598545 201.494685 
L 216.680727 202.459013 
L 217.762909 190.635996 
L 218.845091 202.899257 
L 219.927273 201.663241 
L 221.009455 210.349303 
L 222.091636 205.625515 
L 223.173818 207.451107 
L 224.256 201.3858 
L 225.338182 203.29307 
L 227.502545 214.514496 
L 228.584727 206.327224 
L 229.666909 201.551708 
L 230.749091 206.924968 
L 231.831273 198.251673 
L 232.913455 197.07937 
L 233.995636 195.719264 
L 235.077818 190.210761 
L 236.16 186.271771 
L 237.242182 191.916471 
L 238.324364 200.908913 
L 239.406545 195.147114 
L 240.488727 193.602332 
L 241.570909 187.846572 
L 242.653091 186.371925 
L 243.735273 185.373167 
L 244.817455 195.90211 
L 245.899636 193.723099 
L 246.981818 188.492 
L 248.064 193.984451 
L 249.146182 203.988185 
L 250.228364 205.33626 
L 251.310545 199.936559 
L 252.392727 193.003756 
L 253.474909 181.135387 
L 254.557091 191.703516 
L 255.639273 191.240926 
L 256.721455 192.022535 
L 257.803636 184.430892 
L 258.885818 194.872658 
L 259.968 187.026129 
L 261.050182 182.060919 
L 262.132364 185.881393 
L 263.214545 198.552225 
L 264.296727 193.710918 
L 265.378909 199.14045 
L 266.461091 197.602989 
L 267.543273 186.993132 
L 268.625455 190.674671 
L 269.707636 184.243576 
L 270.789818 180.674282 
L 271.872 175.732528 
L 272.954182 193.128191 
L 274.036364 188.837888 
L 275.118545 181.266498 
L 276.200727 194.903923 
L 277.282909 188.937202 
L 279.447273 183.517684 
L 280.529455 182.917097 
L 281.611636 187.994095 
L 282.693818 178.850079 
L 283.776 190.801409 
L 284.858182 183.483389 
L 285.940364 186.667016 
L 287.022545 191.546174 
L 288.104727 179.487496 
L 289.186909 187.295762 
L 290.269091 173.753188 
L 291.351273 171.136821 
L 292.433455 184.146475 
L 293.515636 183.248434 
L 294.597818 194.607001 
L 295.68 187.068682 
L 296.762182 184.479529 
L 297.844364 175.690568 
L 298.926545 178.976044 
L 300.008727 184.297673 
L 301.090909 177.45195 
L 302.173091 177.480686 
L 303.255273 182.12188 
L 304.337455 176.885283 
L 305.419636 188.019486 
L 306.501818 189.983899 
L 307.584 189.936163 
L 308.666182 194.338583 
L 309.748364 191.703711 
L 310.830545 194.069828 
L 311.912727 185.562178 
L 312.994909 178.567777 
L 314.077091 169.195158 
L 315.159273 172.958497 
L 316.241455 171.269889 
L 317.323636 169.052788 
L 318.405818 172.27269 
L 319.488 170.510633 
L 321.652364 178.85935 
L 322.734545 187.142313 
L 323.816727 175.186017 
L 324.898909 164.666532 
L 325.981091 192.761989 
L 328.145455 202.916847 
L 329.227636 190.729676 
L 330.309818 190.040097 
L 331.392 187.7782 
L 332.474182 207.836511 
L 333.556364 190.304959 
L 334.638545 191.534457 
L 336.802909 177.155231 
L 337.885091 185.610245 
L 338.967273 179.863688 
L 340.049455 171.025985 
L 341.131636 195.601183 
L 342.213818 188.994585 
L 343.296 179.747872 
L 344.378182 178.069827 
L 345.460364 196.275558 
L 347.624727 166.242354 
L 348.706909 187.919122 
L 349.789091 191.87673 
L 350.871273 169.685142 
L 351.953455 169.540927 
L 353.035636 176.458195 
L 354.117818 174.457649 
L 355.2 171.891712 
L 356.282182 170.572232 
L 357.364364 170.056519 
L 358.446545 173.481335 
L 359.528727 167.973117 
L 360.610909 179.02243 
L 361.693091 174.89028 
L 362.775273 167.415398 
L 363.857455 163.548215 
L 366.021818 166.024823 
L 367.104 172.564526 
L 368.186182 170.542377 
L 369.268364 171.897818 
L 370.350545 187.075493 
L 371.432727 174.735631 
L 372.514909 173.83972 
L 373.597091 182.753169 
L 374.679273 171.944639 
L 375.761455 171.45125 
L 376.843636 180.452746 
L 377.925818 175.183511 
L 379.008 174.407265 
L 380.090182 171.297133 
L 381.172364 165.922734 
L 382.254545 161.482635 
L 384.418909 172.144752 
L 385.501091 184.893895 
L 386.583273 186.560149 
L 387.665455 190.404588 
L 388.747636 181.660243 
L 389.829818 177.891242 
L 390.912 171.59128 
L 391.994182 170.652178 
L 393.076364 177.731814 
L 394.158545 162.891693 
L 395.240727 177.973903 
L 396.322909 175.531245 
L 397.405091 187.290436 
L 398.487273 183.212421 
L 398.487273 183.212421 
" clip-path="url(#p3e4022ad6a)" style="fill: none; stroke: #2ca02c; stroke-width: 1.5; stroke-linecap: square"/>
   </g>
   <g id="line2d_17">
    <path d="M 73.832727 180.100857 
L 74.914909 149.198491 
L 75.997091 152.694222 
L 77.079273 153.043786 
L 78.161455 147.240851 
L 79.243636 157.797998 
L 80.325818 158.916645 
L 81.408 155.840388 
L 82.490182 157.378509 
L 83.572364 170.662349 
L 84.654545 168.774649 
L 85.736727 163.391203 
L 86.818909 151.645484 
L 87.901091 149.61795 
L 88.983273 148.778987 
L 90.065455 149.128551 
L 91.147636 149.33831 
L 92.229818 151.016266 
L 93.312 156.539531 
L 94.394182 158.706886 
L 95.476364 153.673034 
L 96.558545 153.882778 
L 97.640727 150.107363 
L 98.722909 158.497156 
L 99.805091 144.024774 
L 100.887273 148.009919 
L 101.969455 160.035292 
L 103.051636 156.749276 
L 104.133818 152.554387 
L 105.216 150.247198 
L 106.298182 153.043801 
L 107.380364 145.493001 
L 108.462545 164.78949 
L 109.544727 147.520535 
L 110.626909 152.344642 
L 111.709091 147.52052 
L 112.791273 152.134898 
L 113.873455 169.893266 
L 114.955636 149.128551 
L 116.037818 153.043801 
L 117.12 155.28108 
L 118.202182 167.096679 
L 119.284364 164.649655 
L 120.366545 148.149754 
L 121.448727 157.168765 
L 122.530909 162.342466 
L 123.613091 156.189952 
L 124.695273 154.302267 
L 125.777455 145.003572 
L 126.859636 159.965382 
L 127.941818 155.141245 
L 129.024 146.611618 
L 130.106182 148.499333 
L 131.188364 157.028945 
L 132.270545 146.961197 
L 133.352727 157.518359 
L 134.434909 156.679351 
L 135.517091 156.399712 
L 136.599273 155.350975 
L 137.681455 150.107363 
L 138.763636 153.742944 
L 139.845818 161.992887 
L 140.928 155.840388 
L 142.010182 152.414552 
L 143.092364 149.967544 
L 144.174545 145.982384 
L 145.256727 146.611618 
L 146.338909 151.156086 
L 147.421091 147.450595 
L 148.503273 156.189967 
L 149.585455 161.992902 
L 150.667636 156.889111 
L 151.749818 153.812869 
L 152.832 170.732259 
L 153.914182 150.596777 
L 154.996364 164.090347 
L 156.078545 152.903951 
L 157.160727 155.560719 
L 158.242909 155.490809 
L 159.325091 153.533199 
L 160.407273 149.268386 
L 161.489455 151.715409 
L 162.571636 154.791666 
L 163.653818 148.359498 
L 164.736 150.107363 
L 165.818182 146.681542 
L 166.900364 152.204823 
L 167.982545 160.664511 
L 169.064727 151.156086 
L 170.146909 156.399697 
L 171.229091 150.946341 
L 172.311273 146.961197 
L 174.475636 152.344642 
L 175.557818 158.077667 
L 176.64 149.198461 
L 177.722182 150.387018 
L 178.804364 151.156086 
L 179.886545 150.736597 
L 180.968727 157.658163 
L 182.050909 153.18362 
L 183.133091 174.507652 
L 184.215273 150.736597 
L 185.297455 153.812854 
L 186.379636 157.588254 
L 187.461818 165.978047 
L 188.544 153.46329 
L 189.626182 161.363654 
L 190.708364 156.399712 
L 191.790545 158.776811 
L 192.872727 153.952688 
L 193.954909 158.776796 
L 195.037091 152.764131 
L 196.119273 156.609441 
L 197.201455 156.329787 
L 198.283636 174.647486 
L 199.365818 149.058641 
L 200.448 149.40822 
L 201.530182 150.666687 
L 202.612364 155.840388 
L 203.694545 158.077667 
L 204.776727 156.819201 
L 205.858909 156.539531 
L 206.941091 157.02893 
L 208.023273 157.028945 
L 209.105455 151.086176 
L 210.187636 151.22601 
L 211.269818 159.895443 
L 212.352 152.903951 
L 213.434182 153.46329 
L 214.516364 154.162418 
L 215.598545 151.156086 
L 216.680727 161.153924 
L 217.762909 177.164435 
L 218.845091 154.721741 
L 219.927273 161.153924 
L 221.009455 148.569242 
L 222.091636 164.090347 
L 223.173818 159.406044 
L 224.256 161.783143 
L 225.338182 154.162433 
L 226.420364 149.617965 
L 227.502545 157.518359 
L 228.584727 158.427246 
L 229.666909 152.344642 
L 230.749091 158.217487 
L 231.831273 176.535194 
L 232.913455 161.293744 
L 233.995636 161.363669 
L 235.077818 156.050133 
L 236.16 157.658178 
L 237.242182 167.935656 
L 238.324364 153.25353 
L 239.406545 170.872094 
L 240.488727 165.278903 
L 241.570909 157.588269 
L 242.653091 163.391203 
L 243.735273 155.770478 
L 244.817455 157.658163 
L 245.899636 158.986555 
L 246.981818 168.075491 
L 248.064 158.357322 
L 249.146182 156.609441 
L 250.228364 156.469622 
L 251.310545 159.406044 
L 252.392727 159.266224 
L 253.474909 156.889111 
L 254.557091 159.895443 
L 255.639273 156.469622 
L 256.721455 179.122037 
L 257.803636 166.886934 
L 258.885818 160.454766 
L 259.968 157.02893 
L 261.050182 168.42507 
L 262.132364 159.336134 
L 263.214545 152.834041 
L 264.296727 159.196299 
L 265.378909 156.329802 
L 266.461091 146.961197 
L 267.543273 160.454766 
L 268.625455 158.567066 
L 269.707636 157.867923 
L 270.789818 164.160256 
L 271.872 167.656002 
L 272.954182 163.251369 
L 274.036364 163.810677 
L 275.118545 162.83188 
L 276.200727 160.314931 
L 277.282909 151.785334 
L 278.365091 155.07132 
L 279.447273 164.370001 
L 280.529455 157.308599 
L 281.611636 161.573398 
L 282.693818 162.692045 
L 283.776 159.755623 
L 284.858182 164.78949 
L 285.940364 157.588254 
L 287.022545 156.329802 
L 288.104727 164.230181 
L 289.186909 161.922977 
L 290.269091 167.935671 
L 291.351273 152.973876 
L 292.433455 157.797998 
L 293.515636 158.357337 
L 294.597818 165.208979 
L 295.68 149.827709 
L 296.762182 150.456942 
L 297.844364 164.929324 
L 298.926545 181.638978 
L 300.008727 157.448434 
L 301.090909 161.01409 
L 302.173091 162.90179 
L 303.255273 170.103026 
L 304.337455 171.081838 
L 305.419636 161.153924 
L 306.501818 156.329787 
L 307.584 162.692045 
L 308.666182 161.363669 
L 309.748364 151.785334 
L 310.830545 155.001395 
L 311.912727 159.12639 
L 312.994909 172.480139 
L 314.077091 168.215311 
L 315.159273 157.23869 
L 316.241455 155.700554 
L 317.323636 165.139069 
L 318.405818 156.95902 
L 319.488 159.266209 
L 320.570182 167.026769 
L 321.652364 163.670858 
L 322.734545 161.363669 
L 323.816727 167.795837 
L 324.898909 167.376333 
L 325.981091 151.086176 
L 327.063273 158.567066 
L 328.145455 158.916645 
L 329.227636 150.177288 
L 330.309818 150.037469 
L 331.392 146.471798 
L 332.474182 161.783158 
L 333.556364 148.289588 
L 334.638545 155.14123 
L 335.720727 158.916645 
L 336.802909 170.732259 
L 337.885091 155.490809 
L 338.967273 164.579745 
L 340.049455 161.573398 
L 341.131636 159.406044 
L 342.213818 168.984379 
L 343.296 157.937833 
L 344.378182 153.323455 
L 345.460364 159.825533 
L 346.542545 156.259892 
L 347.624727 167.795837 
L 348.706909 155.490809 
L 349.789091 161.083999 
L 350.871273 157.588254 
L 351.953455 160.454766 
L 353.035636 167.446258 
L 354.117818 160.73442 
L 355.2 159.196314 
L 356.282182 160.175112 
L 357.364364 160.594601 
L 358.446545 157.518344 
L 359.528727 162.552226 
L 360.610909 158.497156 
L 361.693091 161.643323 
L 362.775273 165.418723 
L 363.857455 160.454781 
L 364.939636 167.306423 
L 366.021818 165.628467 
L 367.104 163.391203 
L 368.186182 159.406044 
L 369.268364 160.94418 
L 370.350545 156.259877 
L 371.432727 161.783158 
L 372.514909 164.78949 
L 373.597091 156.259862 
L 374.679273 154.232343 
L 375.761455 159.056465 
L 376.843636 155.071335 
L 377.925818 166.187791 
L 379.008 149.757799 
L 380.090182 160.804345 
L 381.172364 162.482301 
L 382.254545 148.569242 
L 383.336727 156.050133 
L 384.418909 155.211155 
L 385.501091 177.86357 
L 386.583273 151.086176 
L 387.665455 153.46329 
L 388.747636 172.969538 
L 389.829818 151.715409 
L 390.912 166.047956 
L 391.994182 158.706901 
L 393.076364 152.694222 
L 395.240727 162.342466 
L 396.322909 185.624122 
L 397.405091 159.406044 
L 398.487273 161.992902 
L 398.487273 161.992902 
" clip-path="url(#p3e4022ad6a)" style="fill: none; stroke: #d62728; stroke-width: 1.5; stroke-linecap: square"/>
   </g>
   <g id="patch_3">
    <path d="M 57.6 307.584 
L 57.6 41.472 
" style="fill: none; stroke: #000000; stroke-width: 0.8; stroke-linejoin: miter; stroke-linecap: square"/>
   </g>
   <g id="patch_4">
    <path d="M 414.72 307.584 
L 414.72 41.472 
" style="fill: none; stroke: #000000; stroke-width: 0.8; stroke-linejoin: miter; stroke-linecap: square"/>
   </g>
   <g id="patch_5">
    <path d="M 57.6 307.584 
L 414.72 307.584 
" style="fill: none; stroke: #000000; stroke-width: 0.8; stroke-linejoin: miter; stroke-linecap: square"/>
   </g>
   <g id="patch_6">
    <path d="M 57.6 41.472 
L 414.72 41.472 
" style="fill: none; stroke: #000000; stroke-width: 0.8; stroke-linejoin: miter; stroke-linecap: square"/>
   </g>
   <g id="text_14">
    <!-- veil6 -->
    <g transform="translate(221.765625 35.472) scale(0.12 -0.12)">
     <defs>
      <path id="DejaVuSans-76" d="M 191 3500 
L 800 3500 
L 1894 563 
L 2988 3500 
L 3597 3500 
L 2284 0 
L 1503 0 
L 191 3500 
z
" transform="scale(0.015625)"/>
      <path id="DejaVuSans-65" d="M 3597 1894 
L 3597 1613 
L 953 1613 
Q 991 1019 1311 708 
Q 1631 397 2203 397 
Q 2534 397 2845 478 
Q 3156 559 3463 722 
L 3463 178 
Q 3153 47 2828 -22 
Q 2503 -91 2169 -91 
Q 1331 -91 842 396 
Q 353 884 353 1716 
Q 353 2575 817 3079 
Q 1281 3584 2069 3584 
Q 2775 3584 3186 3129 
Q 3597 2675 3597 1894 
z
M 3022 2063 
Q 3016 2534 2758 2815 
Q 2500 3097 2075 3097 
Q 1594 3097 1305 2825 
Q 1016 2553 972 2059 
L 3022 2063 
z
" transform="scale(0.015625)"/>
      <path id="DejaVuSans-69" d="M 603 3500 
L 1178 3500 
L 1178 0 
L 603 0 
L 603 3500 
z
M 603 4863 
L 1178 4863 
L 1178 4134 
L 603 4134 
L 603 4863 
z
" transform="scale(0.015625)"/>
      <path id="DejaVuSans-6c" d="M 603 4863 
L 1178 4863 
L 1178 0 
L 603 0 
L 603 4863 
z
" transform="scale(0.015625)"/>
     </defs>
     <use xlink:href="#DejaVuSans-76"/>
     <use xlink:href="#DejaVuSans-65" transform="translate(59.179688 0)"/>
     <use xlink:href="#DejaVuSans-69" transform="translate(120.703125 0)"/>
     <use xlink:href="#DejaVuSans-6c" transform="translate(148.486328 0)"/>
     <use xlink:href="#DejaVuSans-36" transform="translate(176.269531 0)"/>
    </g>
   </g>
   <g id="legend_1">
    <g id="patch_7">
     <path d="M 316.259063 302.584 
L 407.72 302.584 
Q 409.72 302.584 409.72 300.584 
L 409.72 212.40275 
Q 409.72 210.40275 407.72 210.40275 
L 316.259063 210.40275 
Q 314.259063 210.40275 314.259063 212.40275 
L 314.259063 300.584 
Q 314.259063 302.584 316.259063 302.584 
z
" style="fill: #ffffff; opacity: 0.8; stroke: #cccccc; stroke-linejoin: miter"/>
    </g>
    <g id="line2d_18">
     <path d="M 318.259063 218.501187 
L 328.259063 218.501187 
L 338.259063 218.501187 
" style="fill: none; stroke: #1f77b4; stroke-width: 1.5; stroke-linecap: square"/>
    </g>
    <g id="text_15">
     <!-- train -->
     <g transform="translate(346.259063 222.001187) scale(0.1 -0.1)">
      <defs>
       <path id="DejaVuSans-74" d="M 1172 4494 
L 1172 3500 
L 2356 3500 
L 2356 3053 
L 1172 3053 
L 1172 1153 
Q 1172 725 1289 603 
Q 1406 481 1766 481 
L 2356 481 
L 2356 0 
L 1766 0 
Q 1100 0 847 248 
Q 594 497 594 1153 
L 594 3053 
L 172 3053 
L 172 3500 
L 594 3500 
L 594 4494 
L 1172 4494 
z
" transform="scale(0.015625)"/>
       <path id="DejaVuSans-72" d="M 2631 2963 
Q 2534 3019 2420 3045 
Q 2306 3072 2169 3072 
Q 1681 3072 1420 2755 
Q 1159 2438 1159 1844 
L 1159 0 
L 581 0 
L 581 3500 
L 1159 3500 
L 1159 2956 
Q 1341 3275 1631 3429 
Q 1922 3584 2338 3584 
Q 2397 3584 2469 3576 
Q 2541 3569 2628 3553 
L 2631 2963 
z
" transform="scale(0.015625)"/>
       <path id="DejaVuSans-61" d="M 2194 1759 
Q 1497 1759 1228 1600 
Q 959 1441 959 1056 
Q 959 750 1161 570 
Q 1363 391 1709 391 
Q 2188 391 2477 730 
Q 2766 1069 2766 1631 
L 2766 1759 
L 2194 1759 
z
M 3341 1997 
L 3341 0 
L 2766 0 
L 2766 531 
Q 2569 213 2275 61 
Q 1981 -91 1556 -91 
Q 1019 -91 701 211 
Q 384 513 384 1019 
Q 384 1609 779 1909 
Q 1175 2209 1959 2209 
L 2766 2209 
L 2766 2266 
Q 2766 2663 2505 2880 
Q 2244 3097 1772 3097 
Q 1472 3097 1187 3025 
Q 903 2953 641 2809 
L 641 3341 
Q 956 3463 1253 3523 
Q 1550 3584 1831 3584 
Q 2591 3584 2966 3190 
Q 3341 2797 3341 1997 
z
" transform="scale(0.015625)"/>
       <path id="DejaVuSans-6e" d="M 3513 2113 
L 3513 0 
L 2938 0 
L 2938 2094 
Q 2938 2591 2744 2837 
Q 2550 3084 2163 3084 
Q 1697 3084 1428 2787 
Q 1159 2491 1159 1978 
L 1159 0 
L 581 0 
L 581 3500 
L 1159 3500 
L 1159 2956 
Q 1366 3272 1645 3428 
Q 1925 3584 2291 3584 
Q 2894 3584 3203 3211 
Q 3513 2838 3513 2113 
z
" transform="scale(0.015625)"/>
      </defs>
      <use xlink:href="#DejaVuSans-74"/>
      <use xlink:href="#DejaVuSans-72" transform="translate(39.208984 0)"/>
      <use xlink:href="#DejaVuSans-61" transform="translate(80.322266 0)"/>
      <use xlink:href="#DejaVuSans-69" transform="translate(141.601562 0)"/>
      <use xlink:href="#DejaVuSans-6e" transform="translate(169.384766 0)"/>
     </g>
    </g>
    <g id="line2d_19">
     <path d="M 318.259063 233.179312 
L 328.259063 233.179312 
L 338.259063 233.179312 
" style="fill: none; stroke: #ff7f0e; stroke-width: 1.5; stroke-linecap: square"/>
    </g>
    <g id="text_16">
     <!-- train_class0 -->
     <g transform="translate(346.259063 236.679312) scale(0.1 -0.1)">
      <defs>
       <path id="DejaVuSans-5f" d="M 3263 -1063 
L 3263 -1509 
L -63 -1509 
L -63 -1063 
L 3263 -1063 
z
" transform="scale(0.015625)"/>
       <path id="DejaVuSans-63" d="M 3122 3366 
L 3122 2828 
Q 2878 2963 2633 3030 
Q 2388 3097 2138 3097 
Q 1578 3097 1268 2742 
Q 959 2388 959 1747 
Q 959 1106 1268 751 
Q 1578 397 2138 397 
Q 2388 397 2633 464 
Q 2878 531 3122 666 
L 3122 134 
Q 2881 22 2623 -34 
Q 2366 -91 2075 -91 
Q 1284 -91 818 406 
Q 353 903 353 1747 
Q 353 2603 823 3093 
Q 1294 3584 2113 3584 
Q 2378 3584 2631 3529 
Q 2884 3475 3122 3366 
z
" transform="scale(0.015625)"/>
       <path id="DejaVuSans-73" d="M 2834 3397 
L 2834 2853 
Q 2591 2978 2328 3040 
Q 2066 3103 1784 3103 
Q 1356 3103 1142 2972 
Q 928 2841 928 2578 
Q 928 2378 1081 2264 
Q 1234 2150 1697 2047 
L 1894 2003 
Q 2506 1872 2764 1633 
Q 3022 1394 3022 966 
Q 3022 478 2636 193 
Q 2250 -91 1575 -91 
Q 1294 -91 989 -36 
Q 684 19 347 128 
L 347 722 
Q 666 556 975 473 
Q 1284 391 1588 391 
Q 1994 391 2212 530 
Q 2431 669 2431 922 
Q 2431 1156 2273 1281 
Q 2116 1406 1581 1522 
L 1381 1569 
Q 847 1681 609 1914 
Q 372 2147 372 2553 
Q 372 3047 722 3315 
Q 1072 3584 1716 3584 
Q 2034 3584 2315 3537 
Q 2597 3491 2834 3397 
z
" transform="scale(0.015625)"/>
      </defs>
      <use xlink:href="#DejaVuSans-74"/>
      <use xlink:href="#DejaVuSans-72" transform="translate(39.208984 0)"/>
      <use xlink:href="#DejaVuSans-61" transform="translate(80.322266 0)"/>
      <use xlink:href="#DejaVuSans-69" transform="translate(141.601562 0)"/>
      <use xlink:href="#DejaVuSans-6e" transform="translate(169.384766 0)"/>
      <use xlink:href="#DejaVuSans-5f" transform="translate(232.763672 0)"/>
      <use xlink:href="#DejaVuSans-63" transform="translate(282.763672 0)"/>
      <use xlink:href="#DejaVuSans-6c" transform="translate(337.744141 0)"/>
      <use xlink:href="#DejaVuSans-61" transform="translate(365.527344 0)"/>
      <use xlink:href="#DejaVuSans-73" transform="translate(426.806641 0)"/>
      <use xlink:href="#DejaVuSans-73" transform="translate(478.90625 0)"/>
      <use xlink:href="#DejaVuSans-30" transform="translate(531.005859 0)"/>
     </g>
    </g>
    <g id="line2d_20">
     <path d="M 318.259063 248.135562 
L 328.259063 248.135562 
L 338.259063 248.135562 
" style="fill: none; stroke: #2ca02c; stroke-width: 1.5; stroke-linecap: square"/>
    </g>
    <g id="text_17">
     <!-- train_class1 -->
     <g transform="translate(346.259063 251.635562) scale(0.1 -0.1)">
      <use xlink:href="#DejaVuSans-74"/>
      <use xlink:href="#DejaVuSans-72" transform="translate(39.208984 0)"/>
      <use xlink:href="#DejaVuSans-61" transform="translate(80.322266 0)"/>
      <use xlink:href="#DejaVuSans-69" transform="translate(141.601562 0)"/>
      <use xlink:href="#DejaVuSans-6e" transform="translate(169.384766 0)"/>
      <use xlink:href="#DejaVuSans-5f" transform="translate(232.763672 0)"/>
      <use xlink:href="#DejaVuSans-63" transform="translate(282.763672 0)"/>
      <use xlink:href="#DejaVuSans-6c" transform="translate(337.744141 0)"/>
      <use xlink:href="#DejaVuSans-61" transform="translate(365.527344 0)"/>
      <use xlink:href="#DejaVuSans-73" transform="translate(426.806641 0)"/>
      <use xlink:href="#DejaVuSans-73" transform="translate(478.90625 0)"/>
      <use xlink:href="#DejaVuSans-31" transform="translate(531.005859 0)"/>
     </g>
    </g>
    <g id="line2d_21">
     <path d="M 318.259063 263.091812 
L 328.259063 263.091812 
L 338.259063 263.091812 
" style="fill: none; stroke: #d62728; stroke-width: 1.5; stroke-linecap: square"/>
    </g>
    <g id="text_18">
     <!-- test -->
     <g transform="translate(346.259063 266.591812) scale(0.1 -0.1)">
      <use xlink:href="#DejaVuSans-74"/>
      <use xlink:href="#DejaVuSans-65" transform="translate(39.208984 0)"/>
      <use xlink:href="#DejaVuSans-73" transform="translate(100.732422 0)"/>
      <use xlink:href="#DejaVuSans-74" transform="translate(152.832031 0)"/>
     </g>
    </g>
    <g id="line2d_22">
     <path d="M 318.259063 277.769937 
L 328.259063 277.769937 
L 338.259063 277.769937 
" style="fill: none; stroke: #9467bd; stroke-width: 1.5; stroke-linecap: square"/>
    </g>
    <g id="text_19">
     <!-- test_class0 -->
     <g transform="translate(346.259063 281.269937) scale(0.1 -0.1)">
      <use xlink:href="#DejaVuSans-74"/>
      <use xlink:href="#DejaVuSans-65" transform="translate(39.208984 0)"/>
      <use xlink:href="#DejaVuSans-73" transform="translate(100.732422 0)"/>
      <use xlink:href="#DejaVuSans-74" transform="translate(152.832031 0)"/>
      <use xlink:href="#DejaVuSans-5f" transform="translate(192.041016 0)"/>
      <use xlink:href="#DejaVuSans-63" transform="translate(242.041016 0)"/>
      <use xlink:href="#DejaVuSans-6c" transform="translate(297.021484 0)"/>
      <use xlink:href="#DejaVuSans-61" transform="translate(324.804688 0)"/>
      <use xlink:href="#DejaVuSans-73" transform="translate(386.083984 0)"/>
      <use xlink:href="#DejaVuSans-73" transform="translate(438.183594 0)"/>
      <use xlink:href="#DejaVuSans-30" transform="translate(490.283203 0)"/>
     </g>
    </g>
    <g id="line2d_23">
     <path d="M 318.259063 292.726187 
L 328.259063 292.726187 
L 338.259063 292.726187 
" style="fill: none; stroke: #8c564b; stroke-width: 1.5; stroke-linecap: square"/>
    </g>
    <g id="text_20">
     <!-- test_class1 -->
     <g transform="translate(346.259063 296.226187) scale(0.1 -0.1)">
      <use xlink:href="#DejaVuSans-74"/>
      <use xlink:href="#DejaVuSans-65" transform="translate(39.208984 0)"/>
      <use xlink:href="#DejaVuSans-73" transform="translate(100.732422 0)"/>
      <use xlink:href="#DejaVuSans-74" transform="translate(152.832031 0)"/>
      <use xlink:href="#DejaVuSans-5f" transform="translate(192.041016 0)"/>
      <use xlink:href="#DejaVuSans-63" transform="translate(242.041016 0)"/>
      <use xlink:href="#DejaVuSans-6c" transform="translate(297.021484 0)"/>
      <use xlink:href="#DejaVuSans-61" transform="translate(324.804688 0)"/>
      <use xlink:href="#DejaVuSans-73" transform="translate(386.083984 0)"/>
      <use xlink:href="#DejaVuSans-73" transform="translate(438.183594 0)"/>
      <use xlink:href="#DejaVuSans-31" transform="translate(490.283203 0)"/>
     </g>
    </g>
   </g>
   <g id="line2d_24">
    <path d="M 73.832727 258.335607 
L 74.914909 55.803089 
L 75.997091 73.753979 
L 77.079273 72.072243 
L 78.161455 63.978187 
L 79.243636 94.2774 
L 80.325818 90.794646 
L 81.408 82.970013 
L 82.490182 112.844037 
L 83.572364 123.932859 
L 84.654545 96.014479 
L 85.736727 97.619284 
L 86.818909 76.733217 
L 87.901091 67.361957 
L 88.983273 66.405242 
L 90.065455 60.961593 
L 91.147636 67.803754 
L 92.229818 73.821984 
L 93.312 68.190553 
L 94.394182 82.633846 
L 95.476364 69.472993 
L 96.558545 94.743336 
L 97.640727 63.395115 
L 98.722909 86.643204 
L 99.805091 67.756617 
L 100.887273 63.92928 
L 101.969455 79.294227 
L 103.051636 90.795006 
L 104.133818 60.710338 
L 105.216 66.311044 
L 106.298182 91.029294 
L 107.380364 53.568 
L 108.462545 86.067243 
L 109.544727 63.117246 
L 110.626909 82.470338 
L 111.709091 82.220538 
L 112.791273 73.770211 
L 113.873455 102.057208 
L 114.955636 89.581111 
L 116.037818 86.361299 
L 117.12 89.85661 
L 118.202182 100.004664 
L 119.284364 116.901432 
L 120.366545 76.935896 
L 121.448727 79.02932 
L 122.530909 102.630903 
L 123.613091 78.53278 
L 124.695273 77.078776 
L 125.777455 63.11582 
L 126.859636 89.257351 
L 127.941818 88.409476 
L 129.024 68.653293 
L 130.106182 69.126699 
L 131.188364 81.960251 
L 132.270545 64.151791 
L 133.352727 93.973938 
L 134.434909 78.296272 
L 135.517091 91.142395 
L 136.599273 74.674583 
L 137.681455 82.083778 
L 138.763636 69.978219 
L 139.845818 93.547998 
L 140.928 70.811241 
L 142.010182 68.442603 
L 143.092364 66.598649 
L 144.174545 70.389547 
L 145.256727 75.305512 
L 146.338909 74.349938 
L 147.421091 83.793583 
L 148.503273 81.109002 
L 149.585455 79.695593 
L 150.667636 75.68391 
L 151.749818 70.828343 
L 152.832 104.754091 
L 153.914182 80.682807 
L 154.996364 84.067342 
L 156.078545 80.52818 
L 157.160727 80.131284 
L 158.242909 74.40033 
L 159.325091 81.116143 
L 160.407273 71.596016 
L 161.489455 79.06564 
L 162.571636 81.903858 
L 163.653818 72.289383 
L 164.736 71.05336 
L 165.818182 58.092215 
L 166.900364 92.999461 
L 167.982545 85.759234 
L 169.064727 75.43669 
L 170.146909 108.596191 
L 171.229091 77.714925 
L 172.311273 75.045015 
L 173.393455 70.800574 
L 174.475636 73.484571 
L 175.557818 99.710773 
L 176.64 78.89115 
L 177.722182 96.759349 
L 178.804364 65.277699 
L 179.886545 71.416981 
L 180.968727 89.104044 
L 182.050909 77.731127 
L 183.133091 115.011991 
L 184.215273 66.960305 
L 185.297455 96.532592 
L 186.379636 80.272394 
L 187.461818 119.893032 
L 188.544 74.750674 
L 189.626182 107.09943 
L 190.708364 106.661294 
L 191.790545 105.640446 
L 192.872727 85.764065 
L 193.954909 98.236726 
L 195.037091 95.009893 
L 196.119273 85.590071 
L 197.201455 96.922707 
L 198.283636 123.026131 
L 199.365818 69.403698 
L 200.448 76.009216 
L 201.530182 89.89338 
L 202.612364 94.983594 
L 203.694545 93.631365 
L 204.776727 91.773984 
L 205.858909 97.057621 
L 206.941091 92.583362 
L 208.023273 85.670662 
L 209.105455 85.487906 
L 210.187636 83.406889 
L 211.269818 101.46674 
L 212.352 82.444909 
L 213.434182 79.711015 
L 214.516364 74.124261 
L 216.680727 121.532327 
L 217.762909 138.744453 
L 218.845091 79.198978 
L 219.927273 103.168729 
L 221.009455 69.652118 
L 222.091636 102.847533 
L 223.173818 109.132846 
L 224.256 91.970736 
L 225.338182 85.464623 
L 226.420364 65.627218 
L 227.502545 83.836775 
L 228.584727 95.535987 
L 229.666909 72.519261 
L 230.749091 98.884562 
L 231.831273 129.707814 
L 232.913455 101.716795 
L 233.995636 92.121208 
L 235.077818 103.708519 
L 236.16 93.148042 
L 237.242182 145.871324 
L 238.324364 92.743645 
L 239.406545 126.699502 
L 240.488727 124.734826 
L 241.570909 95.917671 
L 242.653091 105.072646 
L 243.735273 106.081432 
L 244.817455 101.625972 
L 245.899636 119.186792 
L 246.981818 142.969496 
L 248.064 93.032421 
L 249.146182 102.367616 
L 250.228364 86.465684 
L 251.310545 101.356114 
L 252.392727 125.011375 
L 253.474909 134.318802 
L 254.557091 117.471407 
L 255.639273 87.036544 
L 256.721455 131.323691 
L 257.803636 113.085256 
L 258.885818 115.509896 
L 259.968 101.890564 
L 261.050182 113.512561 
L 262.132364 115.823995 
L 263.214545 78.811459 
L 264.296727 89.905937 
L 265.378909 88.685425 
L 266.461091 80.903863 
L 267.543273 116.841678 
L 268.625455 106.268794 
L 269.707636 108.670016 
L 270.789818 109.938534 
L 271.872 144.442433 
L 272.954182 127.516622 
L 274.036364 122.214532 
L 275.118545 111.284448 
L 276.200727 98.819213 
L 277.282909 81.38204 
L 278.365091 93.813025 
L 279.447273 139.996199 
L 280.529455 114.549341 
L 281.611636 107.171786 
L 282.693818 93.534931 
L 283.776 86.363819 
L 284.858182 104.42568 
L 285.940364 96.328518 
L 287.022545 93.803574 
L 288.104727 100.389273 
L 289.186909 101.8276 
L 290.269091 118.781435 
L 291.351273 87.750344 
L 292.433455 128.383969 
L 293.515636 98.590926 
L 294.597818 126.693801 
L 295.68 82.160019 
L 296.762182 86.611759 
L 297.844364 116.234198 
L 298.926545 122.086399 
L 300.008727 111.468389 
L 301.090909 120.119728 
L 302.173091 133.392677 
L 303.255273 111.965979 
L 304.337455 129.779299 
L 305.419636 102.946952 
L 306.501818 83.308835 
L 307.584 103.152736 
L 308.666182 100.750104 
L 309.748364 96.012979 
L 310.830545 87.962849 
L 311.912727 94.060305 
L 312.994909 150.75973 
L 314.077091 138.210183 
L 315.159273 110.512935 
L 316.241455 113.169628 
L 317.323636 143.874093 
L 318.405818 119.157613 
L 319.488 101.1461 
L 320.570182 118.647902 
L 321.652364 116.913193 
L 322.734545 122.827699 
L 323.816727 141.789551 
L 324.898909 144.322476 
L 325.981091 83.299519 
L 327.063273 87.83041 
L 328.145455 98.118029 
L 329.227636 96.635731 
L 330.309818 102.612585 
L 331.392 79.464501 
L 332.474182 99.002599 
L 333.556364 86.997673 
L 334.638545 100.103093 
L 335.720727 100.343472 
L 336.802909 134.037182 
L 337.885091 87.540389 
L 338.967273 119.646292 
L 341.131636 93.341839 
L 342.213818 123.452251 
L 343.296 105.009277 
L 344.378182 103.10938 
L 345.460364 119.531421 
L 346.542545 92.219486 
L 347.624727 115.521733 
L 348.706909 79.662889 
L 349.789091 107.583248 
L 350.871273 123.61825 
L 351.953455 97.253068 
L 353.035636 118.357236 
L 354.117818 123.954327 
L 355.2 112.11918 
L 356.282182 95.809745 
L 357.364364 112.484271 
L 358.446545 110.103872 
L 359.528727 103.488663 
L 360.610909 112.960213 
L 361.693091 119.732974 
L 362.775273 146.899058 
L 363.857455 110.991967 
L 364.939636 127.289745 
L 366.021818 126.809738 
L 367.104 133.170271 
L 368.186182 98.410181 
L 369.268364 131.003066 
L 370.350545 89.711569 
L 371.432727 107.652753 
L 372.514909 108.089269 
L 373.597091 86.641208 
L 374.679273 114.903676 
L 375.761455 110.488556 
L 376.843636 95.957756 
L 377.925818 127.203633 
L 379.008 107.315071 
L 380.090182 108.277516 
L 381.172364 117.398376 
L 382.254545 108.3759 
L 383.336727 104.127423 
L 384.418909 97.424437 
L 385.501091 124.231116 
L 386.583273 75.221875 
L 387.665455 110.829719 
L 388.747636 135.008809 
L 389.829818 96.134421 
L 390.912 134.30518 
L 391.994182 102.439221 
L 393.076364 101.098768 
L 394.158545 98.33817 
L 395.240727 110.521651 
L 396.322909 159.854097 
L 397.405091 107.058325 
L 398.487273 97.954897 
L 398.487273 97.954897 
" clip-path="url(#p3e4022ad6a)" style="fill: none; stroke: #9467bd; stroke-width: 1.5; stroke-linecap: square"/>
   </g>
   <g id="line2d_25">
    <path d="M 73.832727 90.539896 
L 74.914909 295.488 
L 75.997091 263.847155 
L 77.079273 274.998733 
L 78.161455 275.342146 
L 79.243636 254.75118 
L 80.325818 236.651334 
L 81.408 242.473261 
L 82.490182 213.983924 
L 83.572364 203.138196 
L 84.654545 246.746277 
L 85.736727 263.261038 
L 87.901091 277.948966 
L 88.983273 276.927944 
L 90.065455 278.121091 
L 91.147636 276.802535 
L 92.229818 266.469936 
L 93.312 286.633263 
L 94.394182 266.056894 
L 95.476364 279.701128 
L 96.558545 273.789413 
L 97.640727 283.018574 
L 98.722909 273.511053 
L 99.805091 277.248434 
L 100.887273 284.733114 
L 101.969455 272.801401 
L 103.051636 269.581649 
L 104.133818 293.671014 
L 105.216 282.984812 
L 106.298182 276.875828 
L 107.380364 287.944123 
L 108.462545 267.755058 
L 109.544727 278.281239 
L 110.626909 253.366384 
L 111.709091 255.570861 
L 112.791273 277.813218 
L 113.873455 245.886259 
L 114.955636 266.412861 
L 116.037818 263.471743 
L 117.12 249.840349 
L 118.202182 259.661455 
L 119.284364 235.605897 
L 120.366545 256.426315 
L 121.448727 263.976091 
L 122.530909 227.521854 
L 123.613091 249.054869 
L 124.695273 247.136047 
L 125.777455 275.025917 
L 126.859636 240.090375 
L 127.941818 236.41553 
L 129.024 263.975491 
L 130.106182 268.874252 
L 131.188364 247.691237 
L 132.270545 274.293589 
L 133.352727 269.068237 
L 134.434909 286.704514 
L 135.517091 273.062516 
L 136.599273 266.018958 
L 138.763636 272.682164 
L 139.845818 249.119284 
L 140.928 279.604396 
L 142.010182 283.478263 
L 143.092364 280.1144 
L 144.174545 263.971804 
L 145.256727 253.604812 
L 146.338909 265.217328 
L 147.421091 269.335126 
L 148.503273 268.245818 
L 149.585455 269.187622 
L 150.667636 269.709523 
L 151.749818 275.276797 
L 152.832 241.554236 
L 153.914182 265.966713 
L 154.996364 268.174025 
L 156.078545 257.013392 
L 157.160727 265.404918 
L 158.242909 279.414916 
L 159.325091 249.68477 
L 160.407273 261.343701 
L 161.489455 252.097427 
L 162.571636 246.917534 
L 163.653818 261.599589 
L 164.736 262.928974 
L 165.818182 284.166586 
L 166.900364 262.90311 
L 167.982545 259.447368 
L 169.064727 258.754218 
L 170.146909 239.214875 
L 171.229091 256.902845 
L 172.311273 248.609584 
L 173.393455 265.567274 
L 174.475636 267.42647 
L 175.557818 249.22677 
L 176.64 260.940602 
L 177.722182 254.875648 
L 178.804364 273.592287 
L 179.886545 264.475519 
L 180.968727 266.671137 
L 182.050909 269.594599 
L 183.133091 226.435252 
L 184.215273 280.137749 
L 185.297455 249.83988 
L 186.379636 267.109 
L 187.461818 237.586614 
L 188.544 256.161423 
L 189.626182 223.119381 
L 190.708364 250.23349 
L 191.790545 228.830413 
L 192.872727 245.549304 
L 193.954909 237.242229 
L 195.037091 239.899946 
L 196.119273 241.420544 
L 197.201455 245.908413 
L 198.283636 214.631295 
L 199.365818 261.930047 
L 200.448 255.791726 
L 201.530182 262.757627 
L 202.612364 251.411384 
L 203.694545 237.087227 
L 204.776727 232.268461 
L 205.858909 226.014803 
L 206.941091 234.867223 
L 208.023273 255.406453 
L 209.105455 256.286131 
L 210.187636 234.029918 
L 211.269818 225.930783 
L 212.352 249.717887 
L 213.434182 252.157882 
L 214.516364 261.207253 
L 215.598545 254.37403 
L 216.680727 204.262259 
L 217.762909 207.880504 
L 218.845091 277.346712 
L 219.927273 214.612849 
L 221.009455 278.126462 
L 222.091636 250.356628 
L 223.173818 229.005113 
L 224.256 266.371796 
L 225.338182 251.454392 
L 226.420364 276.632307 
L 227.502545 257.322657 
L 228.584727 256.711595 
L 229.666909 266.482665 
L 230.749091 229.363543 
L 231.831273 202.992736 
L 232.913455 212.869582 
L 233.995636 250.292704 
L 235.077818 247.654775 
L 236.16 256.06931 
L 237.242182 203.390967 
L 238.324364 245.869359 
L 239.406545 202.943889 
L 241.570909 249.114993 
L 242.653091 239.441421 
L 243.735273 220.693346 
L 244.817455 260.930483 
L 245.899636 232.603953 
L 246.981818 213.910068 
L 248.064 241.420282 
L 249.146182 207.598532 
L 250.228364 240.126661 
L 251.310545 234.433685 
L 252.392727 231.544377 
L 253.474909 203.415788 
L 254.557091 211.456946 
L 255.639273 262.66679 
L 256.721455 223.00214 
L 257.803636 224.942977 
L 258.885818 221.393749 
L 259.968 248.831814 
L 261.050182 221.126449 
L 262.132364 222.307512 
L 263.214545 257.953334 
L 264.296727 245.004803 
L 265.378909 241.431815 
L 266.461091 249.467059 
L 267.543273 216.917383 
L 268.625455 225.796612 
L 269.707636 220.822431 
L 270.789818 233.850605 
L 271.872 204.539693 
L 272.954182 236.833009 
L 274.036364 241.902266 
L 275.118545 236.9613 
L 276.200727 237.772025 
L 277.282909 255.614059 
L 279.447273 204.73649 
L 280.529455 227.768406 
L 281.611636 246.592445 
L 282.693818 245.458519 
L 283.776 259.857825 
L 284.858182 250.334623 
L 287.022545 224.040571 
L 288.104727 250.516066 
L 290.269091 231.440479 
L 291.351273 258.327307 
L 292.433455 209.016951 
L 293.515636 244.241615 
L 294.597818 238.19052 
L 295.68 245.394692 
L 296.762182 247.278079 
L 297.844364 211.136584 
L 298.926545 230.680653 
L 300.008727 199.579771 
L 302.173091 198.387509 
L 303.255273 208.357549 
L 304.337455 222.764491 
L 305.419636 246.425374 
L 306.501818 260.737369 
L 307.584 250.036828 
L 308.666182 245.379379 
L 309.748364 241.579357 
L 310.830545 237.319032 
L 311.912727 229.432253 
L 312.994909 186.297814 
L 314.077091 193.450466 
L 315.159273 235.036559 
L 316.241455 247.880084 
L 317.323636 206.154482 
L 318.405818 237.927356 
L 319.488 244.271713 
L 320.570182 230.57359 
L 321.652364 215.077142 
L 322.734545 208.536186 
L 323.816727 192.154464 
L 324.898909 197.685523 
L 325.981091 253.622016 
L 327.063273 252.978936 
L 328.145455 235.149128 
L 329.227636 258.081047 
L 330.309818 226.548735 
L 331.392 247.127901 
L 332.474182 228.384625 
L 333.556364 235.032246 
L 334.638545 249.307579 
L 335.720727 247.630895 
L 336.802909 214.756022 
L 337.885091 245.098566 
L 338.967273 223.007736 
L 340.049455 249.847655 
L 341.131636 238.603048 
L 342.213818 233.285138 
L 343.296 230.051479 
L 344.378182 242.93728 
L 345.460364 187.339838 
L 346.542545 244.722365 
L 347.624727 226.505387 
L 348.706909 261.755074 
L 349.789091 229.938371 
L 350.871273 203.438411 
L 351.953455 253.744385 
L 353.035636 221.201032 
L 355.2 238.908265 
L 356.282182 258.425976 
L 357.364364 217.848931 
L 358.446545 223.338697 
L 359.528727 221.894234 
L 360.610909 224.519513 
L 361.693091 219.83656 
L 362.775273 181.787799 
L 363.857455 228.870934 
L 364.939636 222.11337 
L 366.021818 206.884364 
L 367.104 221.618668 
L 368.186182 263.733844 
L 369.268364 220.382202 
L 370.350545 246.693627 
L 371.432727 244.456506 
L 372.514909 237.817428 
L 373.597091 244.142305 
L 374.679273 217.764394 
L 375.761455 222.902923 
L 376.843636 235.919748 
L 377.925818 212.124428 
L 379.008 223.942727 
L 380.090182 249.125161 
L 381.172364 235.562796 
L 382.254545 223.478997 
L 384.418909 238.675039 
L 385.501091 214.406841 
L 386.583273 261.267963 
L 387.665455 221.128999 
L 388.747636 206.317555 
L 389.829818 234.281998 
L 390.912 201.759315 
L 391.994182 239.532544 
L 393.076364 238.623874 
L 394.158545 258.449863 
L 395.240727 231.530732 
L 396.322909 179.069229 
L 397.405091 236.105377 
L 398.487273 252.681654 
L 398.487273 252.681654 
" clip-path="url(#p3e4022ad6a)" style="fill: none; stroke: #8c564b; stroke-width: 1.5; stroke-linecap: square"/>
   </g>
  </g>
 </g>
 <defs>
  <clipPath id="p3e4022ad6a">
   <rect x="57.6" y="41.472" width="357.12" height="266.112"/>
  </clipPath>
 </defs>
</svg>
