<?xml version="1.0" encoding="utf-8" standalone="no"?>
<!DOCTYPE svg PUBLIC "-//W3C//DTD SVG 1.1//EN"
  "http://www.w3.org/Graphics/SVG/1.1/DTD/svg11.dtd">
<svg xmlns:xlink="http://www.w3.org/1999/xlink" width="460.8pt" height="345.6pt" viewBox="0 0 460.8 345.6" xmlns="http://www.w3.org/2000/svg" version="1.1">
 <metadata>
  <rdf:RDF xmlns:dc="http://purl.org/dc/elements/1.1/" xmlns:cc="http://creativecommons.org/ns#" xmlns:rdf="http://www.w3.org/1999/02/22-rdf-syntax-ns#">
   <cc:Work>
    <dc:type rdf:resource="http://purl.org/dc/dcmitype/StillImage"/>
    <dc:date>2026-03-18T19:52:55.505285</dc:date>
    <dc:format>image/svg+xml</dc:format>
    <dc:creator>
     <cc:Agent>
      <dc:title>Matplotlib v3.10.8, https://matplotlib.org/</dc:title>
     </cc:Agent>
    </dc:creator>
   </cc:Work>
  </rdf:RDF>
 </metadata>
 <defs>
  <style type="text/css">*{stroke-linejoin: round; stroke-linecap: butt}</style>
 </defs>
 <g id="figure_1">
  <g id="patch_1">
   <path d="M 0 345.6 
L 460.8 345.6 
L 460.8 0 
L 0 0 
z
" style="fill: #ffffff"/>
  </g>
  <g id="axes_1">
   <g id="patch_2">
    <path d="M 57.6 307.584 
L 414.72 307.584 
L 414.72 41.472 
L 57.6 41.472 
z
" style="fill: #ffffff"/>
   </g>
   <g id="matplotlib.axis_1">
    <g id="xtick_1">
     <g id="line2d_1">
      <defs>
       <path id="mc3227020d4" d="M 0 0 
L 0 3.5 
" style="stroke: #000000; stroke-width: 0.8"/>
      </defs>
      <g>
       <use xlink:href="#mc3227020d4" x="73.832727" y="307.584" style="stroke: #000000; stroke-width: 0.8"/>
      </g>
     </g>
     <g id="text_1">
      <!-- 0 -->
      <g transform="translate(70.651477 322.182437) scale(0.1 -0.1)">
       <defs>
        <path id="DejaVuSans-30" d="M 2034 4250 
Q 1547 4250 1301 3770 
Q 1056 3291 1056 2328 
Q 1056 1369 1301 889 
Q 1547 409 2034 409 
Q 2525 409 2770 889 
Q 3016 1369 3016 2328 
Q 3016 3291 2770 3770 
Q 2525 4250 2034 4250 
z
M 2034 4750 
Q 2819 4750 3233 4129 
Q 3647 3509 3647 2328 
Q 3647 1150 3233 529 
Q 2819 -91 2034 -91 
Q 1250 -91 836 529 
Q 422 1150 422 2328 
Q 422 3509 836 4129 
Q 1250 4750 2034 4750 
z
" transform="scale(0.015625)"/>
       </defs>
       <use xlink:href="#DejaVuSans-30"/>
      </g>
     </g>
    </g>
    <g id="xtick_2">
     <g id="line2d_2">
      <g>
       <use xlink:href="#mc3227020d4" x="138.763636" y="307.584" style="stroke: #000000; stroke-width: 0.8"/>
      </g>
     </g>
     <g id="text_2">
      <!-- 20 -->
      <g transform="translate(132.401136 322.182437) scale(0.1 -0.1)">
       <defs>
        <path id="DejaVuSans-32" d="M 1228 531 
L 3431 531 
L 3431 0 
L 469 0 
L 469 531 
Q 828 903 1448 1529 
Q 2069 2156 2228 2338 
Q 2531 2678 2651 2914 
Q 2772 3150 2772 3378 
Q 2772 3750 2511 3984 
Q 2250 4219 1831 4219 
Q 1534 4219 1204 4116 
Q 875 4013 500 3803 
L 500 4441 
Q 881 4594 1212 4672 
Q 1544 4750 1819 4750 
Q 2544 4750 2975 4387 
Q 3406 4025 3406 3419 
Q 3406 3131 3298 2873 
Q 3191 2616 2906 2266 
Q 2828 2175 2409 1742 
Q 1991 1309 1228 531 
z
" transform="scale(0.015625)"/>
       </defs>
       <use xlink:href="#DejaVuSans-32"/>
       <use xlink:href="#DejaVuSans-30" transform="translate(63.623047 0)"/>
      </g>
     </g>
    </g>
    <g id="xtick_3">
     <g id="line2d_3">
      <g>
       <use xlink:href="#mc3227020d4" x="203.694545" y="307.584" style="stroke: #000000; stroke-width: 0.8"/>
      </g>
     </g>
     <g id="text_3">
      <!-- 40 -->
      <g transform="translate(197.332045 322.182437) scale(0.1 -0.1)">
       <defs>
        <path id="DejaVuSans-34" d="M 2419 4116 
L 825 1625 
L 2419 1625 
L 2419 4116 
z
M 2253 4666 
L 3047 4666 
L 3047 1625 
L 3713 1625 
L 3713 1100 
L 3047 1100 
L 3047 0 
L 2419 0 
L 2419 1100 
L 313 1100 
L 313 1709 
L 2253 4666 
z
" transform="scale(0.015625)"/>
       </defs>
       <use xlink:href="#DejaVuSans-34"/>
       <use xlink:href="#DejaVuSans-30" transform="translate(63.623047 0)"/>
      </g>
     </g>
    </g>
    <g id="xtick_4">
     <g id="line2d_4">
      <g>
       <use xlink:href="#mc3227020d4" x="268.625455" y="307.584" style="stroke: #000000; stroke-width: 0.8"/>
      </g>
     </g>
     <g id="text_4">
      <!-- 60 -->
      <g transform="translate(262.262955 322.182437) scale(0.1 -0.1)">
       <defs>
        <path id="DejaVuSans-36" d="M 2113 2584 
Q 1688 2584 1439 2293 
Q 1191 2003 1191 1497 
Q 1191 994 1439 701 
Q 1688 409 2113 409 
Q 2538 409 2786 701 
Q 3034 994 3034 1497 
Q 3034 2003 2786 2293 
Q 2538 2584 2113 2584 
z
M 3366 4563 
L 3366 3988 
Q 3128 4100 2886 4159 
Q 2644 4219 2406 4219 
Q 1781 4219 1451 3797 
Q 1122 3375 1075 2522 
Q 1259 2794 1537 2939 
Q 1816 3084 2150 3084 
Q 2853 3084 3261 2657 
Q 3669 2231 3669 1497 
Q 3669 778 3244 343 
Q 2819 -91 2113 -91 
Q 1303 -91 875 529 
Q 447 1150 447 2328 
Q 447 3434 972 4092 
Q 1497 4750 2381 4750 
Q 2619 4750 2861 4703 
Q 3103 4656 3366 4563 
z
" transform="scale(0.015625)"/>
       </defs>
       <use xlink:href="#DejaVuSans-36"/>
       <use xlink:href="#DejaVuSans-30" transform="translate(63.623047 0)"/>
      </g>
     </g>
    </g>
    <g id="xtick_5">
     <g id="line2d_5">
      <g>
       <use xlink:href="#mc3227020d4" x="333.556364" y="307.584" style="stroke: #000000; stroke-width: 0.8"/>
      </g>
     </g>
     <g id="text_5">
      <!-- 80 -->
      <g transform="translate(327.193864 322.182437) scale(0.1 -0.1)">
       <defs>
        <path id="DejaVuSans-38" d="M 2034 2216 
Q 1584 2216 1326 1975 
Q 1069 1734 1069 1313 
Q 1069 891 1326 650 
Q 1584 409 2034 409 
Q 2484 409 2743 651 
Q 3003 894 3003 1313 
Q 3003 1734 2745 1975 
Q 2488 2216 2034 2216 
z
M 1403 2484 
Q 997 2584 770 2862 
Q 544 3141 544 3541 
Q 544 4100 942 4425 
Q 1341 4750 2034 4750 
Q 2731 4750 3128 4425 
Q 3525 4100 3525 3541 
Q 3525 3141 3298 2862 
Q 3072 2584 2669 2484 
Q 3125 2378 3379 2068 
Q 3634 1759 3634 1313 
Q 3634 634 3220 271 
Q 2806 -91 2034 -91 
Q 1263 -91 848 271 
Q 434 634 434 1313 
Q 434 1759 690 2068 
Q 947 2378 1403 2484 
z
M 1172 3481 
Q 1172 3119 1398 2916 
Q 1625 2713 2034 2713 
Q 2441 2713 2670 2916 
Q 2900 3119 2900 3481 
Q 2900 3844 2670 4047 
Q 2441 4250 2034 4250 
Q 1625 4250 1398 4047 
Q 1172 3844 1172 3481 
z
" transform="scale(0.015625)"/>
       </defs>
       <use xlink:href="#DejaVuSans-38"/>
       <use xlink:href="#DejaVuSans-30" transform="translate(63.623047 0)"/>
      </g>
     </g>
    </g>
    <g id="xtick_6">
     <g id="line2d_6">
      <g>
       <use xlink:href="#mc3227020d4" x="398.487273" y="307.584" style="stroke: #000000; stroke-width: 0.8"/>
      </g>
     </g>
     <g id="text_6">
      <!-- 100 -->
      <g transform="translate(388.943523 322.182437) scale(0.1 -0.1)">
       <defs>
        <path id="DejaVuSans-31" d="M 794 531 
L 1825 531 
L 1825 4091 
L 703 3866 
L 703 4441 
L 1819 4666 
L 2450 4666 
L 2450 531 
L 3481 531 
L 3481 0 
L 794 0 
L 794 531 
z
" transform="scale(0.015625)"/>
       </defs>
       <use xlink:href="#DejaVuSans-31"/>
       <use xlink:href="#DejaVuSans-30" transform="translate(63.623047 0)"/>
       <use xlink:href="#DejaVuSans-30" transform="translate(127.246094 0)"/>
      </g>
     </g>
    </g>
   </g>
   <g id="matplotlib.axis_2">
    <g id="ytick_1">
     <g id="line2d_7">
      <defs>
       <path id="m3f3f7bc70e" d="M 0 0 
L -3.5 0 
" style="stroke: #000000; stroke-width: 0.8"/>
      </defs>
      <g>
       <use xlink:href="#m3f3f7bc70e" x="57.6" y="295.488" style="stroke: #000000; stroke-width: 0.8"/>
      </g>
     </g>
     <g id="text_7">
      <!-- 0.0 -->
      <g transform="translate(34.696875 299.287219) scale(0.1 -0.1)">
       <defs>
        <path id="DejaVuSans-2e" d="M 684 794 
L 1344 794 
L 1344 0 
L 684 0 
L 684 794 
z
" transform="scale(0.015625)"/>
       </defs>
       <use xlink:href="#DejaVuSans-30"/>
       <use xlink:href="#DejaVuSans-2e" transform="translate(63.623047 0)"/>
       <use xlink:href="#DejaVuSans-30" transform="translate(95.410156 0)"/>
      </g>
     </g>
    </g>
    <g id="ytick_2">
     <g id="line2d_8">
      <g>
       <use xlink:href="#m3f3f7bc70e" x="57.6" y="247.104" style="stroke: #000000; stroke-width: 0.8"/>
      </g>
     </g>
     <g id="text_8">
      <!-- 0.2 -->
      <g transform="translate(34.696875 250.903219) scale(0.1 -0.1)">
       <use xlink:href="#DejaVuSans-30"/>
       <use xlink:href="#DejaVuSans-2e" transform="translate(63.623047 0)"/>
       <use xlink:href="#DejaVuSans-32" transform="translate(95.410156 0)"/>
      </g>
     </g>
    </g>
    <g id="ytick_3">
     <g id="line2d_9">
      <g>
       <use xlink:href="#m3f3f7bc70e" x="57.6" y="198.72" style="stroke: #000000; stroke-width: 0.8"/>
      </g>
     </g>
     <g id="text_9">
      <!-- 0.4 -->
      <g transform="translate(34.696875 202.519219) scale(0.1 -0.1)">
       <use xlink:href="#DejaVuSans-30"/>
       <use xlink:href="#DejaVuSans-2e" transform="translate(63.623047 0)"/>
       <use xlink:href="#DejaVuSans-34" transform="translate(95.410156 0)"/>
      </g>
     </g>
    </g>
    <g id="ytick_4">
     <g id="line2d_10">
      <g>
       <use xlink:href="#m3f3f7bc70e" x="57.6" y="150.336" style="stroke: #000000; stroke-width: 0.8"/>
      </g>
     </g>
     <g id="text_10">
      <!-- 0.6 -->
      <g transform="translate(34.696875 154.135219) scale(0.1 -0.1)">
       <use xlink:href="#DejaVuSans-30"/>
       <use xlink:href="#DejaVuSans-2e" transform="translate(63.623047 0)"/>
       <use xlink:href="#DejaVuSans-36" transform="translate(95.410156 0)"/>
      </g>
     </g>
    </g>
    <g id="ytick_5">
     <g id="line2d_11">
      <g>
       <use xlink:href="#m3f3f7bc70e" x="57.6" y="101.952" style="stroke: #000000; stroke-width: 0.8"/>
      </g>
     </g>
     <g id="text_11">
      <!-- 0.8 -->
      <g transform="translate(34.696875 105.751219) scale(0.1 -0.1)">
       <use xlink:href="#DejaVuSans-30"/>
       <use xlink:href="#DejaVuSans-2e" transform="translate(63.623047 0)"/>
       <use xlink:href="#DejaVuSans-38" transform="translate(95.410156 0)"/>
      </g>
     </g>
    </g>
    <g id="ytick_6">
     <g id="line2d_12">
      <g>
       <use xlink:href="#m3f3f7bc70e" x="57.6" y="53.568" style="stroke: #000000; stroke-width: 0.8"/>
      </g>
     </g>
     <g id="text_12">
      <!-- 1.0 -->
      <g transform="translate(34.696875 57.367219) scale(0.1 -0.1)">
       <use xlink:href="#DejaVuSans-31"/>
       <use xlink:href="#DejaVuSans-2e" transform="translate(63.623047 0)"/>
       <use xlink:href="#DejaVuSans-30" transform="translate(95.410156 0)"/>
      </g>
     </g>
    </g>
   </g>
   <g id="line2d_13">
    <path d="M 73.832727 155.483704 
L 77.079273 151.243503 
L 80.325818 148.754674 
L 83.572364 148.874644 
L 86.818909 147.693178 
L 90.065455 146.717796 
L 93.312 145.336013 
L 96.558545 145.824606 
L 99.805091 142.61301 
L 103.051636 141.905486 
L 106.298182 142.431468 
L 109.544727 141.822501 
L 112.791273 139.587557 
L 116.037818 138.677279 
L 119.284364 138.873414 
L 122.530909 143.763849 
L 125.777455 141.850735 
L 129.024 142.783262 
L 132.270545 140.611028 
L 135.517091 138.903493 
L 138.763636 139.135186 
L 142.010182 137.590044 
L 145.256727 141.38879 
L 148.503273 140.291288 
L 151.749818 139.817952 
L 154.996364 138.031629 
L 158.242909 136.570726 
L 161.489455 134.288009 
L 164.736 135.920144 
L 167.982545 131.375216 
L 171.229091 132.413107 
L 174.475636 131.96809 
L 177.722182 131.899597 
L 180.968727 128.970293 
L 184.215273 135.046492 
L 187.461818 135.261488 
L 190.708364 134.362486 
L 193.954909 134.209192 
L 197.201455 128.782868 
L 200.448 127.800622 
L 203.694545 126.944966 
L 206.941091 129.474863 
L 210.187636 130.403597 
L 213.434182 127.271699 
L 216.680727 125.059249 
L 219.927273 126.109281 
L 223.173818 123.301274 
L 226.420364 128.609459 
L 229.666909 125.909454 
L 232.913455 118.841363 
L 236.16 128.243375 
L 239.406545 131.643708 
L 242.653091 124.448292 
L 245.899636 120.472489 
L 249.146182 126.003931 
L 252.392727 118.929553 
L 255.639273 116.442093 
L 258.885818 116.200609 
L 262.132364 113.938411 
L 265.378909 113.718701 
L 268.625455 118.274703 
L 271.872 114.345908 
L 275.118545 116.26319 
L 278.365091 114.735568 
L 281.611636 112.079716 
L 284.858182 110.542318 
L 288.104727 111.522746 
L 291.351273 111.033347 
L 294.597818 109.399236 
L 297.844364 108.185124 
L 301.090909 107.736719 
L 304.337455 106.258109 
L 307.584 103.456735 
L 310.830545 104.114383 
L 314.077091 105.807642 
L 317.323636 104.740249 
L 320.570182 105.232677 
L 323.816727 103.07629 
L 327.063273 104.135132 
L 330.309818 101.117754 
L 333.556364 100.417295 
L 336.802909 99.682792 
L 340.049455 99.814687 
L 343.296 98.474837 
L 346.542545 97.815748 
L 349.789091 97.895805 
L 353.035636 97.151179 
L 356.282182 97.068396 
L 359.528727 96.193115 
L 362.775273 96.832709 
L 366.021818 98.059827 
L 369.268364 95.801898 
L 372.514909 95.13893 
L 375.761455 96.082604 
L 379.008 95.254748 
L 382.254545 95.377285 
L 385.501091 95.641596 
L 388.747636 95.557847 
L 391.994182 94.543302 
L 395.240727 94.594303 
L 398.487273 100.979571 
" clip-path="url(#pcf8ea67173)" style="fill: none; stroke: #1f77b4; stroke-width: 1.5; stroke-linecap: square"/>
   </g>
   <g id="line2d_14">
    <path d="M 73.832727 94.935211 
L 77.079273 80.645777 
L 80.325818 77.26752 
L 83.572364 63.528611 
L 86.818909 62.013865 
L 90.065455 66.116979 
L 93.312 69.155482 
L 96.558545 75.650511 
L 99.805091 88.390174 
L 103.051636 74.411525 
L 106.298182 78.443002 
L 109.544727 77.005546 
L 112.791273 77.566582 
L 116.037818 85.729853 
L 119.284364 84.859186 
L 122.530909 103.720599 
L 125.777455 97.612187 
L 129.024 96.577209 
L 132.270545 95.143141 
L 135.517091 96.966465 
L 138.763636 93.45265 
L 142.010182 93.045355 
L 145.256727 96.997611 
L 148.503273 95.29867 
L 151.749818 95.857572 
L 154.996364 90.497044 
L 158.242909 90.89948 
L 161.489455 86.470903 
L 164.736 82.636959 
L 167.982545 93.273227 
L 171.229091 94.257982 
L 174.475636 82.363622 
L 177.722182 84.056651 
L 180.968727 81.56785 
L 184.215273 91.110755 
L 187.461818 88.076001 
L 190.708364 94.753193 
L 193.954909 90.017133 
L 197.201455 83.014189 
L 200.448 79.948476 
L 203.694545 83.753148 
L 206.941091 80.358381 
L 210.187636 84.048576 
L 213.434182 80.813866 
L 216.680727 85.256689 
L 219.927273 91.522477 
L 223.173818 88.423757 
L 226.420364 84.362172 
L 229.666909 82.431971 
L 232.913455 81.687979 
L 236.16 83.960833 
L 239.406545 78.301042 
L 242.653091 82.778386 
L 245.899636 80.529411 
L 249.146182 84.626209 
L 252.392727 80.034056 
L 255.639273 80.848934 
L 258.885818 80.309758 
L 262.132364 79.451448 
L 265.378909 83.28121 
L 268.625455 82.247299 
L 271.872 81.970949 
L 275.118545 83.137664 
L 278.365091 82.328828 
L 281.611636 84.4052 
L 284.858182 80.491733 
L 288.104727 81.132019 
L 291.351273 81.553776 
L 294.597818 81.624202 
L 297.844364 82.903476 
L 301.090909 82.065844 
L 304.337455 78.72166 
L 307.584 77.845802 
L 310.830545 76.983167 
L 314.077091 76.993909 
L 317.323636 75.419784 
L 320.570182 75.583619 
L 323.816727 75.131537 
L 327.063273 75.928535 
L 330.309818 71.845782 
L 333.556364 72.016769 
L 336.802909 70.407893 
L 340.049455 71.39582 
L 343.296 71.346692 
L 346.542545 71.229807 
L 349.789091 72.183661 
L 353.035636 69.61858 
L 356.282182 70.231397 
L 359.528727 69.231848 
L 362.775273 69.923626 
L 366.021818 69.239562 
L 369.268364 69.676432 
L 372.514909 67.64525 
L 375.761455 69.687145 
L 379.008 69.413707 
L 382.254545 69.528242 
L 385.501091 70.217699 
L 388.747636 67.78163 
L 391.994182 69.419836 
L 395.240727 69.021568 
L 398.487273 73.739127 
" clip-path="url(#pcf8ea67173)" style="fill: none; stroke: #ff7f0e; stroke-width: 1.5; stroke-linecap: square"/>
   </g>
   <g id="line2d_15">
    <path d="M 73.832727 253.279722 
L 77.079273 263.862126 
L 80.325818 265.537244 
L 83.572364 284.525397 
L 86.818909 283.436526 
L 90.065455 274.632622 
L 93.312 266.55954 
L 96.558545 259.471461 
L 99.805091 234.016677 
L 103.051636 251.267098 
L 106.298182 244.117698 
L 109.544727 245.188697 
L 112.791273 234.790863 
L 116.037818 221.677027 
L 119.284364 224.953323 
L 122.530909 208.028146 
L 125.777455 212.273357 
L 129.024 217.083288 
L 132.270545 213.654174 
L 135.517091 208.239371 
L 138.763636 212.767191 
L 142.010182 208.621273 
L 145.256727 212.924948 
L 148.503273 212.859339 
L 151.749818 210.110842 
L 154.996364 214.622923 
L 158.242909 210.765418 
L 161.489455 210.36539 
L 164.736 220.751623 
L 167.982545 193.040229 
L 171.229091 196.326244 
L 174.475636 211.223368 
L 177.722182 207.606381 
L 180.968727 204.468989 
L 184.215273 205.773281 
L 187.461818 209.478696 
L 190.708364 197.906058 
L 193.954909 202.895729 
L 197.201455 202.813451 
L 200.448 203.902971 
L 203.694545 195.545649 
L 206.941091 208.547387 
L 210.187636 205.914636 
L 213.434182 203.743757 
L 216.680727 187.68844 
L 219.927273 179.983725 
L 223.173818 178.796614 
L 226.420364 197.603391 
L 229.666909 192.974591 
L 232.913455 177.326605 
L 236.16 198.334117 
L 239.406545 214.650479 
L 242.653091 188.670953 
L 245.899636 182.781718 
L 249.146182 190.642841 
L 252.392727 179.478897 
L 255.639273 169.242815 
L 258.885818 169.676526 
L 262.132364 164.798174 
L 265.378909 157.532578 
L 268.625455 170.245536 
L 271.872 161.735792 
L 275.118545 164.918044 
L 278.365091 163.190264 
L 281.611636 152.987563 
L 284.858182 155.006762 
L 288.104727 155.516782 
L 291.351273 153.839687 
L 294.597818 149.877409 
L 297.844364 145.157845 
L 301.090909 144.979129 
L 304.337455 146.449131 
L 307.584 141.086556 
L 310.830545 144.288447 
L 314.077091 148.189831 
L 317.323636 148.756303 
L 320.570182 149.359444 
L 323.816727 144.617054 
L 327.063273 145.527793 
L 330.309818 144.333782 
L 333.556364 142.189306 
L 336.802909 142.747357 
L 340.049455 140.76673 
L 343.296 138.275319 
L 346.542545 136.95916 
L 349.789091 135.309721 
L 353.035636 137.270406 
L 356.282182 136.444973 
L 359.528727 135.612835 
L 362.775273 136.254635 
L 366.021818 141.423973 
L 369.268364 134.471556 
L 372.514909 135.297768 
L 375.761455 134.344159 
L 379.008 133.181727 
L 382.254545 132.743141 
L 385.501091 132.733913 
L 388.747636 136.241859 
L 391.994182 131.382267 
L 395.240727 131.692533 
L 398.487273 141.086642 
" clip-path="url(#pcf8ea67173)" style="fill: none; stroke: #2ca02c; stroke-width: 1.5; stroke-linecap: square"/>
   </g>
   <g id="line2d_16">
    <path d="M 73.832727 169.68959 
L 77.079273 175.670404 
L 80.325818 146.639988 
L 83.572364 146.639988 
L 86.818909 146.639988 
L 90.065455 150.134394 
L 93.312 150.403189 
L 96.558545 176.140798 
L 99.805091 152.352007 
L 103.051636 186.489598 
L 106.298182 174.595195 
L 109.544727 146.438388 
L 112.791273 150.268799 
L 116.037818 147.379192 
L 119.284364 170.831994 
L 122.530909 148.454401 
L 125.777455 148.655986 
L 129.024 147.782392 
L 132.270545 155.174404 
L 135.517091 147.782392 
L 138.763636 147.177592 
L 142.010182 179.635198 
L 145.256727 146.102398 
L 148.503273 151.411188 
L 151.749818 150.335994 
L 154.996364 150.067199 
L 158.242909 146.908798 
L 161.489455 167.404797 
L 164.736 150.940808 
L 167.982545 171.033608 
L 171.229091 166.799998 
L 174.475636 155.577604 
L 177.722182 161.020813 
L 180.968727 164.649595 
L 184.215273 148.588806 
L 187.461818 164.044796 
L 190.708364 157.324792 
L 193.954909 164.582414 
L 197.201455 158.668781 
L 200.448 164.784 
L 203.694545 153.964805 
L 206.941091 167.539202 
L 210.187636 163.104006 
L 213.434182 160.14719 
L 216.680727 145.766394 
L 219.927273 163.238396 
L 223.173818 168.211196 
L 226.420364 149.39519 
L 229.666909 154.56959 
L 232.913455 168.345601 
L 236.16 149.731195 
L 239.406545 155.375989 
L 242.653091 166.195198 
L 245.899636 168.211196 
L 249.146182 158.736005 
L 252.392727 144.556795 
L 255.639273 152.956806 
L 258.885818 155.779189 
L 262.132364 148.051201 
L 265.378909 142.943996 
L 268.625455 145.430404 
L 271.872 149.529609 
L 275.118545 145.02719 
L 278.365091 165.321604 
L 281.611636 156.988788 
L 284.858182 150.403189 
L 288.104727 174.3264 
L 291.351273 155.510394 
L 294.597818 154.569605 
L 297.844364 160.281594 
L 301.090909 144.556809 
L 304.337455 152.486383 
L 307.584 149.596805 
L 310.830545 150.403204 
L 314.077091 144.556795 
L 317.323636 147.984006 
L 320.570182 153.427201 
L 323.816727 149.327995 
L 327.063273 149.932795 
L 330.309818 150.067199 
L 333.556364 148.387191 
L 336.802909 150.134394 
L 340.049455 151.747193 
L 343.296 150.470399 
L 346.542545 148.656001 
L 349.789091 148.118396 
L 353.035636 147.379192 
L 356.282182 145.967994 
L 359.528727 146.572793 
L 362.775273 145.632004 
L 366.021818 149.731195 
L 369.268364 147.647987 
L 372.514909 148.656001 
L 375.761455 149.260786 
L 379.008 147.177592 
L 382.254545 148.588791 
L 385.501091 148.655986 
L 388.747636 148.521596 
L 391.994182 149.865585 
L 395.240727 148.588791 
L 398.487273 140.995194 
" clip-path="url(#pcf8ea67173)" style="fill: none; stroke: #d62728; stroke-width: 1.5; stroke-linecap: square"/>
   </g>
   <g id="patch_3">
    <path d="M 57.6 307.584 
L 57.6 41.472 
" style="fill: none; stroke: #000000; stroke-width: 0.8; stroke-linejoin: miter; stroke-linecap: square"/>
   </g>
   <g id="patch_4">
    <path d="M 414.72 307.584 
L 414.72 41.472 
" style="fill: none; stroke: #000000; stroke-width: 0.8; stroke-linejoin: miter; stroke-linecap: square"/>
   </g>
   <g id="patch_5">
    <path d="M 57.6 307.584 
L 414.72 307.584 
" style="fill: none; stroke: #000000; stroke-width: 0.8; stroke-linejoin: miter; stroke-linecap: square"/>
   </g>
   <g id="patch_6">
    <path d="M 57.6 41.472 
L 414.72 41.472 
" style="fill: none; stroke: #000000; stroke-width: 0.8; stroke-linejoin: miter; stroke-linecap: square"/>
   </g>
   <g id="text_13">
    <!-- veil2 -->
    <g transform="translate(221.765625 35.472) scale(0.12 -0.12)">
     <defs>
      <path id="DejaVuSans-76" d="M 191 3500 
L 800 3500 
L 1894 563 
L 2988 3500 
L 3597 3500 
L 2284 0 
L 1503 0 
L 191 3500 
z
" transform="scale(0.015625)"/>
      <path id="DejaVuSans-65" d="M 3597 1894 
L 3597 1613 
L 953 1613 
Q 991 1019 1311 708 
Q 1631 397 2203 397 
Q 2534 397 2845 478 
Q 3156 559 3463 722 
L 3463 178 
Q 3153 47 2828 -22 
Q 2503 -91 2169 -91 
Q 1331 -91 842 396 
Q 353 884 353 1716 
Q 353 2575 817 3079 
Q 1281 3584 2069 3584 
Q 2775 3584 3186 3129 
Q 3597 2675 3597 1894 
z
M 3022 2063 
Q 3016 2534 2758 2815 
Q 2500 3097 2075 3097 
Q 1594 3097 1305 2825 
Q 1016 2553 972 2059 
L 3022 2063 
z
" transform="scale(0.015625)"/>
      <path id="DejaVuSans-69" d="M 603 3500 
L 1178 3500 
L 1178 0 
L 603 0 
L 603 3500 
z
M 603 4863 
L 1178 4863 
L 1178 4134 
L 603 4134 
L 603 4863 
z
" transform="scale(0.015625)"/>
      <path id="DejaVuSans-6c" d="M 603 4863 
L 1178 4863 
L 1178 0 
L 603 0 
L 603 4863 
z
" transform="scale(0.015625)"/>
     </defs>
     <use xlink:href="#DejaVuSans-76"/>
     <use xlink:href="#DejaVuSans-65" transform="translate(59.179688 0)"/>
     <use xlink:href="#DejaVuSans-69" transform="translate(120.703125 0)"/>
     <use xlink:href="#DejaVuSans-6c" transform="translate(148.486328 0)"/>
     <use xlink:href="#DejaVuSans-32" transform="translate(176.269531 0)"/>
    </g>
   </g>
   <g id="legend_1">
    <g id="patch_7">
     <path d="M 316.259063 302.584 
L 407.72 302.584 
Q 409.72 302.584 409.72 300.584 
L 409.72 212.40275 
Q 409.72 210.40275 407.72 210.40275 
L 316.259063 210.40275 
Q 314.259063 210.40275 314.259063 212.40275 
L 314.259063 300.584 
Q 314.259063 302.584 316.259063 302.584 
z
" style="fill: #ffffff; opacity: 0.8; stroke: #cccccc; stroke-linejoin: miter"/>
    </g>
    <g id="line2d_17">
     <path d="M 318.259063 218.501187 
L 328.259063 218.501187 
L 338.259063 218.501187 
" style="fill: none; stroke: #1f77b4; stroke-width: 1.5; stroke-linecap: square"/>
    </g>
    <g id="text_14">
     <!-- train -->
     <g transform="translate(346.259063 222.001187) scale(0.1 -0.1)">
      <defs>
       <path id="DejaVuSans-74" d="M 1172 4494 
L 1172 3500 
L 2356 3500 
L 2356 3053 
L 1172 3053 
L 1172 1153 
Q 1172 725 1289 603 
Q 1406 481 1766 481 
L 2356 481 
L 2356 0 
L 1766 0 
Q 1100 0 847 248 
Q 594 497 594 1153 
L 594 3053 
L 172 3053 
L 172 3500 
L 594 3500 
L 594 4494 
L 1172 4494 
z
" transform="scale(0.015625)"/>
       <path id="DejaVuSans-72" d="M 2631 2963 
Q 2534 3019 2420 3045 
Q 2306 3072 2169 3072 
Q 1681 3072 1420 2755 
Q 1159 2438 1159 1844 
L 1159 0 
L 581 0 
L 581 3500 
L 1159 3500 
L 1159 2956 
Q 1341 3275 1631 3429 
Q 1922 3584 2338 3584 
Q 2397 3584 2469 3576 
Q 2541 3569 2628 3553 
L 2631 2963 
z
" transform="scale(0.015625)"/>
       <path id="DejaVuSans-61" d="M 2194 1759 
Q 1497 1759 1228 1600 
Q 959 1441 959 1056 
Q 959 750 1161 570 
Q 1363 391 1709 391 
Q 2188 391 2477 730 
Q 2766 1069 2766 1631 
L 2766 1759 
L 2194 1759 
z
M 3341 1997 
L 3341 0 
L 2766 0 
L 2766 531 
Q 2569 213 2275 61 
Q 1981 -91 1556 -91 
Q 1019 -91 701 211 
Q 384 513 384 1019 
Q 384 1609 779 1909 
Q 1175 2209 1959 2209 
L 2766 2209 
L 2766 2266 
Q 2766 2663 2505 2880 
Q 2244 3097 1772 3097 
Q 1472 3097 1187 3025 
Q 903 2953 641 2809 
L 641 3341 
Q 956 3463 1253 3523 
Q 1550 3584 1831 3584 
Q 2591 3584 2966 3190 
Q 3341 2797 3341 1997 
z
" transform="scale(0.015625)"/>
       <path id="DejaVuSans-6e" d="M 3513 2113 
L 3513 0 
L 2938 0 
L 2938 2094 
Q 2938 2591 2744 2837 
Q 2550 3084 2163 3084 
Q 1697 3084 1428 2787 
Q 1159 2491 1159 1978 
L 1159 0 
L 581 0 
L 581 3500 
L 1159 3500 
L 1159 2956 
Q 1366 3272 1645 3428 
Q 1925 3584 2291 3584 
Q 2894 3584 3203 3211 
Q 3513 2838 3513 2113 
z
" transform="scale(0.015625)"/>
      </defs>
      <use xlink:href="#DejaVuSans-74"/>
      <use xlink:href="#DejaVuSans-72" transform="translate(39.208984 0)"/>
      <use xlink:href="#DejaVuSans-61" transform="translate(80.322266 0)"/>
      <use xlink:href="#DejaVuSans-69" transform="translate(141.601562 0)"/>
      <use xlink:href="#DejaVuSans-6e" transform="translate(169.384766 0)"/>
     </g>
    </g>
    <g id="line2d_18">
     <path d="M 318.259063 233.179312 
L 328.259063 233.179312 
L 338.259063 233.179312 
" style="fill: none; stroke: #ff7f0e; stroke-width: 1.5; stroke-linecap: square"/>
    </g>
    <g id="text_15">
     <!-- train_class0 -->
     <g transform="translate(346.259063 236.679312) scale(0.1 -0.1)">
      <defs>
       <path id="DejaVuSans-5f" d="M 3263 -1063 
L 3263 -1509 
L -63 -1509 
L -63 -1063 
L 3263 -1063 
z
" transform="scale(0.015625)"/>
       <path id="DejaVuSans-63" d="M 3122 3366 
L 3122 2828 
Q 2878 2963 2633 3030 
Q 2388 3097 2138 3097 
Q 1578 3097 1268 2742 
Q 959 2388 959 1747 
Q 959 1106 1268 751 
Q 1578 397 2138 397 
Q 2388 397 2633 464 
Q 2878 531 3122 666 
L 3122 134 
Q 2881 22 2623 -34 
Q 2366 -91 2075 -91 
Q 1284 -91 818 406 
Q 353 903 353 1747 
Q 353 2603 823 3093 
Q 1294 3584 2113 3584 
Q 2378 3584 2631 3529 
Q 2884 3475 3122 3366 
z
" transform="scale(0.015625)"/>
       <path id="DejaVuSans-73" d="M 2834 3397 
L 2834 2853 
Q 2591 2978 2328 3040 
Q 2066 3103 1784 3103 
Q 1356 3103 1142 2972 
Q 928 2841 928 2578 
Q 928 2378 1081 2264 
Q 1234 2150 1697 2047 
L 1894 2003 
Q 2506 1872 2764 1633 
Q 3022 1394 3022 966 
Q 3022 478 2636 193 
Q 2250 -91 1575 -91 
Q 1294 -91 989 -36 
Q 684 19 347 128 
L 347 722 
Q 666 556 975 473 
Q 1284 391 1588 391 
Q 1994 391 2212 530 
Q 2431 669 2431 922 
Q 2431 1156 2273 1281 
Q 2116 1406 1581 1522 
L 1381 1569 
Q 847 1681 609 1914 
Q 372 2147 372 2553 
Q 372 3047 722 3315 
Q 1072 3584 1716 3584 
Q 2034 3584 2315 3537 
Q 2597 3491 2834 3397 
z
" transform="scale(0.015625)"/>
      </defs>
      <use xlink:href="#DejaVuSans-74"/>
      <use xlink:href="#DejaVuSans-72" transform="translate(39.208984 0)"/>
      <use xlink:href="#DejaVuSans-61" transform="translate(80.322266 0)"/>
      <use xlink:href="#DejaVuSans-69" transform="translate(141.601562 0)"/>
      <use xlink:href="#DejaVuSans-6e" transform="translate(169.384766 0)"/>
      <use xlink:href="#DejaVuSans-5f" transform="translate(232.763672 0)"/>
      <use xlink:href="#DejaVuSans-63" transform="translate(282.763672 0)"/>
      <use xlink:href="#DejaVuSans-6c" transform="translate(337.744141 0)"/>
      <use xlink:href="#DejaVuSans-61" transform="translate(365.527344 0)"/>
      <use xlink:href="#DejaVuSans-73" transform="translate(426.806641 0)"/>
      <use xlink:href="#DejaVuSans-73" transform="translate(478.90625 0)"/>
      <use xlink:href="#DejaVuSans-30" transform="translate(531.005859 0)"/>
     </g>
    </g>
    <g id="line2d_19">
     <path d="M 318.259063 248.135562 
L 328.259063 248.135562 
L 338.259063 248.135562 
" style="fill: none; stroke: #2ca02c; stroke-width: 1.5; stroke-linecap: square"/>
    </g>
    <g id="text_16">
     <!-- train_class1 -->
     <g transform="translate(346.259063 251.635562) scale(0.1 -0.1)">
      <use xlink:href="#DejaVuSans-74"/>
      <use xlink:href="#DejaVuSans-72" transform="translate(39.208984 0)"/>
      <use xlink:href="#DejaVuSans-61" transform="translate(80.322266 0)"/>
      <use xlink:href="#DejaVuSans-69" transform="translate(141.601562 0)"/>
      <use xlink:href="#DejaVuSans-6e" transform="translate(169.384766 0)"/>
      <use xlink:href="#DejaVuSans-5f" transform="translate(232.763672 0)"/>
      <use xlink:href="#DejaVuSans-63" transform="translate(282.763672 0)"/>
      <use xlink:href="#DejaVuSans-6c" transform="translate(337.744141 0)"/>
      <use xlink:href="#DejaVuSans-61" transform="translate(365.527344 0)"/>
      <use xlink:href="#DejaVuSans-73" transform="translate(426.806641 0)"/>
      <use xlink:href="#DejaVuSans-73" transform="translate(478.90625 0)"/>
      <use xlink:href="#DejaVuSans-31" transform="translate(531.005859 0)"/>
     </g>
    </g>
    <g id="line2d_20">
     <path d="M 318.259063 263.091812 
L 328.259063 263.091812 
L 338.259063 263.091812 
" style="fill: none; stroke: #d62728; stroke-width: 1.5; stroke-linecap: square"/>
    </g>
    <g id="text_17">
     <!-- test -->
     <g transform="translate(346.259063 266.591812) scale(0.1 -0.1)">
      <use xlink:href="#DejaVuSans-74"/>
      <use xlink:href="#DejaVuSans-65" transform="translate(39.208984 0)"/>
      <use xlink:href="#DejaVuSans-73" transform="translate(100.732422 0)"/>
      <use xlink:href="#DejaVuSans-74" transform="translate(152.832031 0)"/>
     </g>
    </g>
    <g id="line2d_21">
     <path d="M 318.259063 277.769937 
L 328.259063 277.769937 
L 338.259063 277.769937 
" style="fill: none; stroke: #9467bd; stroke-width: 1.5; stroke-linecap: square"/>
    </g>
    <g id="text_18">
     <!-- test_class0 -->
     <g transform="translate(346.259063 281.269937) scale(0.1 -0.1)">
      <use xlink:href="#DejaVuSans-74"/>
      <use xlink:href="#DejaVuSans-65" transform="translate(39.208984 0)"/>
      <use xlink:href="#DejaVuSans-73" transform="translate(100.732422 0)"/>
      <use xlink:href="#DejaVuSans-74" transform="translate(152.832031 0)"/>
      <use xlink:href="#DejaVuSans-5f" transform="translate(192.041016 0)"/>
      <use xlink:href="#DejaVuSans-63" transform="translate(242.041016 0)"/>
      <use xlink:href="#DejaVuSans-6c" transform="translate(297.021484 0)"/>
      <use xlink:href="#DejaVuSans-61" transform="translate(324.804688 0)"/>
      <use xlink:href="#DejaVuSans-73" transform="translate(386.083984 0)"/>
      <use xlink:href="#DejaVuSans-73" transform="translate(438.183594 0)"/>
      <use xlink:href="#DejaVuSans-30" transform="translate(490.283203 0)"/>
     </g>
    </g>
    <g id="line2d_22">
     <path d="M 318.259063 292.726187 
L 328.259063 292.726187 
L 338.259063 292.726187 
" style="fill: none; stroke: #8c564b; stroke-width: 1.5; stroke-linecap: square"/>
    </g>
    <g id="text_19">
     <!-- test_class1 -->
     <g transform="translate(346.259063 296.226187) scale(0.1 -0.1)">
      <use xlink:href="#DejaVuSans-74"/>
      <use xlink:href="#DejaVuSans-65" transform="translate(39.208984 0)"/>
      <use xlink:href="#DejaVuSans-73" transform="translate(100.732422 0)"/>
      <use xlink:href="#DejaVuSans-74" transform="translate(152.832031 0)"/>
      <use xlink:href="#DejaVuSans-5f" transform="translate(192.041016 0)"/>
      <use xlink:href="#DejaVuSans-63" transform="translate(242.041016 0)"/>
      <use xlink:href="#DejaVuSans-6c" transform="translate(297.021484 0)"/>
      <use xlink:href="#DejaVuSans-61" transform="translate(324.804688 0)"/>
      <use xlink:href="#DejaVuSans-73" transform="translate(386.083984 0)"/>
      <use xlink:href="#DejaVuSans-73" transform="translate(438.183594 0)"/>
      <use xlink:href="#DejaVuSans-31" transform="translate(490.283203 0)"/>
     </g>
    </g>
   </g>
   <g id="line2d_23">
    <path d="M 73.832727 96.168371 
L 77.079273 104.650256 
L 80.325818 53.568 
L 83.572364 53.568 
L 86.818909 53.568 
L 90.065455 58.437152 
L 93.312 69.142173 
L 96.558545 109.741037 
L 99.805091 66.94247 
L 103.051636 127.553399 
L 106.298182 90.914029 
L 109.544727 53.780314 
L 112.791273 64.066864 
L 116.037818 68.605794 
L 119.284364 131.915401 
L 122.530909 66.430143 
L 125.777455 72.12059 
L 129.024 68.441728 
L 132.270545 75.22587 
L 135.517091 67.520304 
L 138.763636 55.285499 
L 142.010182 97.138072 
L 145.256727 56.657649 
L 148.503273 64.457576 
L 151.749818 70.260308 
L 154.996364 74.455808 
L 158.242909 68.089069 
L 161.489455 87.516955 
L 164.736 64.778282 
L 167.982545 99.248359 
L 171.229091 91.184064 
L 174.475636 73.902039 
L 177.722182 76.350163 
L 180.968727 97.628048 
L 184.215273 70.773198 
L 187.461818 91.379002 
L 190.708364 72.214043 
L 193.954909 86.096427 
L 197.201455 77.156446 
L 200.448 94.98689 
L 203.694545 70.203164 
L 206.941091 88.569741 
L 210.187636 78.496485 
L 213.434182 79.717763 
L 216.680727 91.355469 
L 219.927273 82.975588 
L 223.173818 104.095507 
L 226.420364 69.147796 
L 229.666909 87.558469 
L 232.913455 98.540359 
L 236.16 104.838014 
L 239.406545 66.908064 
L 242.653091 101.894852 
L 245.899636 92.837598 
L 249.146182 83.142264 
L 252.392727 72.930594 
L 255.639273 82.869691 
L 258.885818 83.153309 
L 262.132364 87.742621 
L 265.378909 72.20529 
L 268.625455 92.76351 
L 271.872 86.968118 
L 275.118545 69.623945 
L 278.365091 98.165249 
L 281.611636 105.485322 
L 284.858182 96.628542 
L 288.104727 125.107439 
L 291.351273 102.838122 
L 294.597818 97.003797 
L 297.844364 119.496645 
L 301.090909 91.91577 
L 304.337455 100.140166 
L 307.584 89.735303 
L 310.830545 90.982637 
L 314.077091 93.908207 
L 317.323636 86.237291 
L 320.570182 100.516127 
L 323.816727 83.272804 
L 327.063273 93.449939 
L 330.309818 92.779213 
L 333.556364 92.82834 
L 336.802909 90.24551 
L 340.049455 101.857823 
L 343.296 93.27888 
L 346.542545 90.255618 
L 349.789091 99.86295 
L 353.035636 84.96628 
L 356.282182 84.522864 
L 359.528727 87.439291 
L 362.775273 90.139324 
L 366.021818 88.043355 
L 369.268364 93.524517 
L 372.514909 95.665302 
L 375.761455 93.279615 
L 379.008 91.988848 
L 382.254545 96.570302 
L 385.501091 94.724368 
L 388.747636 95.116061 
L 391.994182 95.184784 
L 395.240727 93.224042 
L 398.487273 102.289198 
" clip-path="url(#pcf8ea67173)" style="fill: none; stroke: #9467bd; stroke-width: 1.5; stroke-linecap: square"/>
   </g>
   <g id="line2d_24">
    <path d="M 73.832727 253.07655 
L 77.079273 234.848001 
L 80.325818 295.488 
L 83.572364 295.488 
L 86.818909 295.488 
L 90.065455 293.913 
L 93.312 260.009866 
L 96.558545 218.171078 
L 99.805091 269.533944 
L 103.051636 213.421168 
L 106.298182 254.349913 
L 109.544727 294.689539 
L 112.791273 284.495833 
L 116.037818 268.851375 
L 119.284364 189.994935 
L 122.530909 267.662338 
L 125.777455 257.521335 
L 129.024 265.189154 
L 132.270545 259.689305 
L 135.517091 266.909542 
L 138.763636 294.471783 
L 142.010182 252.704688 
L 145.256727 292.235599 
L 148.503273 280.287391 
L 151.749818 260.111902 
L 154.996364 258.710602 
L 158.242909 265.110362 
L 161.489455 246.500516 
L 164.736 267.081865 
L 167.982545 224.42419 
L 171.229091 233.820867 
L 174.475636 252.536574 
L 177.722182 254.664709 
L 180.968727 228.430296 
L 184.215273 264.558161 
L 187.461818 240.133864 
L 190.708364 262.902912 
L 193.954909 239.506901 
L 197.201455 249.548575 
L 200.448 231.821451 
L 203.694545 263.23768 
L 206.941091 243.852916 
L 210.187636 253.049326 
L 213.434182 246.632429 
L 216.680727 234.215501 
L 219.927273 248.4508 
L 223.173818 220.729129 
L 226.420364 266.918441 
L 229.666909 226.799992 
L 232.913455 221.842484 
L 236.16 215.417195 
L 239.406545 264.272517 
L 242.653091 220.255821 
L 245.899636 243.192078 
L 249.146182 245.494752 
L 252.392727 255.019719 
L 255.639273 246.062691 
L 258.885818 244.293433 
L 262.132364 225.5749 
L 265.378909 263.787483 
L 268.625455 224.999206 
L 271.872 230.243231 
L 275.118545 256.468675 
L 278.365091 229.799303 
L 281.611636 202.122898 
L 284.858182 213.071566 
L 288.104727 199.471676 
L 291.351273 216.120019 
L 294.597818 214.105145 
L 297.844364 191.948287 
L 301.090909 217.310706 
L 304.337455 210.204346 
L 307.584 223.359472 
L 310.830545 220.929827 
L 314.077091 217.81273 
L 317.323636 228.888434 
L 320.570182 206.533927 
L 323.816727 232.236396 
L 327.063273 218.194805 
L 330.309818 220.084452 
L 333.556364 220.278251 
L 336.802909 222.005389 
L 340.049455 204.915231 
L 343.296 220.993367 
L 346.542545 219.588924 
L 349.789091 206.218867 
L 353.035636 227.624841 
L 356.282182 229.123033 
L 359.528727 224.443166 
L 362.775273 219.699659 
L 366.021818 226.451205 
L 369.268364 218.984326 
L 372.514909 217.793365 
L 375.761455 218.013292 
L 379.008 221.010151 
L 382.254545 209.234976 
L 385.501091 216.423731 
L 388.747636 215.645442 
L 391.994182 214.909569 
L 395.240727 217.537014 
L 398.487273 209.360131 
" clip-path="url(#pcf8ea67173)" style="fill: none; stroke: #8c564b; stroke-width: 1.5; stroke-linecap: square"/>
   </g>
  </g>
 </g>
 <defs>
  <clipPath id="pcf8ea67173">
   <rect x="57.6" y="41.472" width="357.12" height="266.112"/>
  </clipPath>
 </defs>
</svg>
