<?xml version="1.0" encoding="utf-8" standalone="no"?>
<!DOCTYPE svg PUBLIC "-//W3C//DTD SVG 1.1//EN"
  "http://www.w3.org/Graphics/SVG/1.1/DTD/svg11.dtd">
<svg xmlns:xlink="http://www.w3.org/1999/xlink" width="460.8pt" height="345.6pt" viewBox="0 0 460.8 345.6" xmlns="http://www.w3.org/2000/svg" version="1.1">
 <metadata>
  <rdf:RDF xmlns:dc="http://purl.org/dc/elements/1.1/" xmlns:cc="http://creativecommons.org/ns#" xmlns:rdf="http://www.w3.org/1999/02/22-rdf-syntax-ns#">
   <cc:Work>
    <dc:type rdf:resource="http://purl.org/dc/dcmitype/StillImage"/>
    <dc:date>2026-03-19T23:13:21.732227</dc:date>
    <dc:format>image/svg+xml</dc:format>
    <dc:creator>
     <cc:Agent>
      <dc:title>Matplotlib v3.10.8, https://matplotlib.org/</dc:title>
     </cc:Agent>
    </dc:creator>
   </cc:Work>
  </rdf:RDF>
 </metadata>
 <defs>
  <style type="text/css">*{stroke-linejoin: round; stroke-linecap: butt}</style>
 </defs>
 <g id="figure_1">
  <g id="patch_1">
   <path d="M 0 345.6 
L 460.8 345.6 
L 460.8 0 
L 0 0 
z
" style="fill: #ffffff"/>
  </g>
  <g id="axes_1">
   <g id="patch_2">
    <path d="M 57.6 307.584 
L 414.72 307.584 
L 414.72 41.472 
L 57.6 41.472 
z
" style="fill: #ffffff"/>
   </g>
   <g id="matplotlib.axis_1">
    <g id="xtick_1">
     <g id="line2d_1">
      <defs>
       <path id="m85613572a5" d="M 0 0 
L 0 3.5 
" style="stroke: #000000; stroke-width: 0.8"/>
      </defs>
      <g>
       <use xlink:href="#m85613572a5" x="73.832727" y="307.584" style="stroke: #000000; stroke-width: 0.8"/>
      </g>
     </g>
     <g id="text_1">
      <!-- 0 -->
      <g transform="translate(70.651477 322.182437) scale(0.1 -0.1)">
       <defs>
        <path id="DejaVuSans-30" d="M 2034 4250 
Q 1547 4250 1301 3770 
Q 1056 3291 1056 2328 
Q 1056 1369 1301 889 
Q 1547 409 2034 409 
Q 2525 409 2770 889 
Q 3016 1369 3016 2328 
Q 3016 3291 2770 3770 
Q 2525 4250 2034 4250 
z
M 2034 4750 
Q 2819 4750 3233 4129 
Q 3647 3509 3647 2328 
Q 3647 1150 3233 529 
Q 2819 -91 2034 -91 
Q 1250 -91 836 529 
Q 422 1150 422 2328 
Q 422 3509 836 4129 
Q 1250 4750 2034 4750 
z
" transform="scale(0.015625)"/>
       </defs>
       <use xlink:href="#DejaVuSans-30"/>
      </g>
     </g>
    </g>
    <g id="xtick_2">
     <g id="line2d_2">
      <g>
       <use xlink:href="#m85613572a5" x="127.941818" y="307.584" style="stroke: #000000; stroke-width: 0.8"/>
      </g>
     </g>
     <g id="text_2">
      <!-- 50 -->
      <g transform="translate(121.579318 322.182437) scale(0.1 -0.1)">
       <defs>
        <path id="DejaVuSans-35" d="M 691 4666 
L 3169 4666 
L 3169 4134 
L 1269 4134 
L 1269 2991 
Q 1406 3038 1543 3061 
Q 1681 3084 1819 3084 
Q 2600 3084 3056 2656 
Q 3513 2228 3513 1497 
Q 3513 744 3044 326 
Q 2575 -91 1722 -91 
Q 1428 -91 1123 -41 
Q 819 9 494 109 
L 494 744 
Q 775 591 1075 516 
Q 1375 441 1709 441 
Q 2250 441 2565 725 
Q 2881 1009 2881 1497 
Q 2881 1984 2565 2268 
Q 2250 2553 1709 2553 
Q 1456 2553 1204 2497 
Q 953 2441 691 2322 
L 691 4666 
z
" transform="scale(0.015625)"/>
       </defs>
       <use xlink:href="#DejaVuSans-35"/>
       <use xlink:href="#DejaVuSans-30" transform="translate(63.623047 0)"/>
      </g>
     </g>
    </g>
    <g id="xtick_3">
     <g id="line2d_3">
      <g>
       <use xlink:href="#m85613572a5" x="182.050909" y="307.584" style="stroke: #000000; stroke-width: 0.8"/>
      </g>
     </g>
     <g id="text_3">
      <!-- 100 -->
      <g transform="translate(172.507159 322.182437) scale(0.1 -0.1)">
       <defs>
        <path id="DejaVuSans-31" d="M 794 531 
L 1825 531 
L 1825 4091 
L 703 3866 
L 703 4441 
L 1819 4666 
L 2450 4666 
L 2450 531 
L 3481 531 
L 3481 0 
L 794 0 
L 794 531 
z
" transform="scale(0.015625)"/>
       </defs>
       <use xlink:href="#DejaVuSans-31"/>
       <use xlink:href="#DejaVuSans-30" transform="translate(63.623047 0)"/>
       <use xlink:href="#DejaVuSans-30" transform="translate(127.246094 0)"/>
      </g>
     </g>
    </g>
    <g id="xtick_4">
     <g id="line2d_4">
      <g>
       <use xlink:href="#m85613572a5" x="236.16" y="307.584" style="stroke: #000000; stroke-width: 0.8"/>
      </g>
     </g>
     <g id="text_4">
      <!-- 150 -->
      <g transform="translate(226.61625 322.182437) scale(0.1 -0.1)">
       <use xlink:href="#DejaVuSans-31"/>
       <use xlink:href="#DejaVuSans-35" transform="translate(63.623047 0)"/>
       <use xlink:href="#DejaVuSans-30" transform="translate(127.246094 0)"/>
      </g>
     </g>
    </g>
    <g id="xtick_5">
     <g id="line2d_5">
      <g>
       <use xlink:href="#m85613572a5" x="290.269091" y="307.584" style="stroke: #000000; stroke-width: 0.8"/>
      </g>
     </g>
     <g id="text_5">
      <!-- 200 -->
      <g transform="translate(280.725341 322.182437) scale(0.1 -0.1)">
       <defs>
        <path id="DejaVuSans-32" d="M 1228 531 
L 3431 531 
L 3431 0 
L 469 0 
L 469 531 
Q 828 903 1448 1529 
Q 2069 2156 2228 2338 
Q 2531 2678 2651 2914 
Q 2772 3150 2772 3378 
Q 2772 3750 2511 3984 
Q 2250 4219 1831 4219 
Q 1534 4219 1204 4116 
Q 875 4013 500 3803 
L 500 4441 
Q 881 4594 1212 4672 
Q 1544 4750 1819 4750 
Q 2544 4750 2975 4387 
Q 3406 4025 3406 3419 
Q 3406 3131 3298 2873 
Q 3191 2616 2906 2266 
Q 2828 2175 2409 1742 
Q 1991 1309 1228 531 
z
" transform="scale(0.015625)"/>
       </defs>
       <use xlink:href="#DejaVuSans-32"/>
       <use xlink:href="#DejaVuSans-30" transform="translate(63.623047 0)"/>
       <use xlink:href="#DejaVuSans-30" transform="translate(127.246094 0)"/>
      </g>
     </g>
    </g>
    <g id="xtick_6">
     <g id="line2d_6">
      <g>
       <use xlink:href="#m85613572a5" x="344.378182" y="307.584" style="stroke: #000000; stroke-width: 0.8"/>
      </g>
     </g>
     <g id="text_6">
      <!-- 250 -->
      <g transform="translate(334.834432 322.182437) scale(0.1 -0.1)">
       <use xlink:href="#DejaVuSans-32"/>
       <use xlink:href="#DejaVuSans-35" transform="translate(63.623047 0)"/>
       <use xlink:href="#DejaVuSans-30" transform="translate(127.246094 0)"/>
      </g>
     </g>
    </g>
    <g id="xtick_7">
     <g id="line2d_7">
      <g>
       <use xlink:href="#m85613572a5" x="398.487273" y="307.584" style="stroke: #000000; stroke-width: 0.8"/>
      </g>
     </g>
     <g id="text_7">
      <!-- 300 -->
      <g transform="translate(388.943523 322.182437) scale(0.1 -0.1)">
       <defs>
        <path id="DejaVuSans-33" d="M 2597 2516 
Q 3050 2419 3304 2112 
Q 3559 1806 3559 1356 
Q 3559 666 3084 287 
Q 2609 -91 1734 -91 
Q 1441 -91 1130 -33 
Q 819 25 488 141 
L 488 750 
Q 750 597 1062 519 
Q 1375 441 1716 441 
Q 2309 441 2620 675 
Q 2931 909 2931 1356 
Q 2931 1769 2642 2001 
Q 2353 2234 1838 2234 
L 1294 2234 
L 1294 2753 
L 1863 2753 
Q 2328 2753 2575 2939 
Q 2822 3125 2822 3475 
Q 2822 3834 2567 4026 
Q 2313 4219 1838 4219 
Q 1578 4219 1281 4162 
Q 984 4106 628 3988 
L 628 4550 
Q 988 4650 1302 4700 
Q 1616 4750 1894 4750 
Q 2613 4750 3031 4423 
Q 3450 4097 3450 3541 
Q 3450 3153 3228 2886 
Q 3006 2619 2597 2516 
z
" transform="scale(0.015625)"/>
       </defs>
       <use xlink:href="#DejaVuSans-33"/>
       <use xlink:href="#DejaVuSans-30" transform="translate(63.623047 0)"/>
       <use xlink:href="#DejaVuSans-30" transform="translate(127.246094 0)"/>
      </g>
     </g>
    </g>
   </g>
   <g id="matplotlib.axis_2">
    <g id="ytick_1">
     <g id="line2d_8">
      <defs>
       <path id="mf2169c8ff0" d="M 0 0 
L -3.5 0 
" style="stroke: #000000; stroke-width: 0.8"/>
      </defs>
      <g>
       <use xlink:href="#mf2169c8ff0" x="57.6" y="295.488" style="stroke: #000000; stroke-width: 0.8"/>
      </g>
     </g>
     <g id="text_8">
      <!-- 0.0 -->
      <g transform="translate(34.696875 299.287219) scale(0.1 -0.1)">
       <defs>
        <path id="DejaVuSans-2e" d="M 684 794 
L 1344 794 
L 1344 0 
L 684 0 
L 684 794 
z
" transform="scale(0.015625)"/>
       </defs>
       <use xlink:href="#DejaVuSans-30"/>
       <use xlink:href="#DejaVuSans-2e" transform="translate(63.623047 0)"/>
       <use xlink:href="#DejaVuSans-30" transform="translate(95.410156 0)"/>
      </g>
     </g>
    </g>
    <g id="ytick_2">
     <g id="line2d_9">
      <g>
       <use xlink:href="#mf2169c8ff0" x="57.6" y="247.104" style="stroke: #000000; stroke-width: 0.8"/>
      </g>
     </g>
     <g id="text_9">
      <!-- 0.2 -->
      <g transform="translate(34.696875 250.903219) scale(0.1 -0.1)">
       <use xlink:href="#DejaVuSans-30"/>
       <use xlink:href="#DejaVuSans-2e" transform="translate(63.623047 0)"/>
       <use xlink:href="#DejaVuSans-32" transform="translate(95.410156 0)"/>
      </g>
     </g>
    </g>
    <g id="ytick_3">
     <g id="line2d_10">
      <g>
       <use xlink:href="#mf2169c8ff0" x="57.6" y="198.72" style="stroke: #000000; stroke-width: 0.8"/>
      </g>
     </g>
     <g id="text_10">
      <!-- 0.4 -->
      <g transform="translate(34.696875 202.519219) scale(0.1 -0.1)">
       <defs>
        <path id="DejaVuSans-34" d="M 2419 4116 
L 825 1625 
L 2419 1625 
L 2419 4116 
z
M 2253 4666 
L 3047 4666 
L 3047 1625 
L 3713 1625 
L 3713 1100 
L 3047 1100 
L 3047 0 
L 2419 0 
L 2419 1100 
L 313 1100 
L 313 1709 
L 2253 4666 
z
" transform="scale(0.015625)"/>
       </defs>
       <use xlink:href="#DejaVuSans-30"/>
       <use xlink:href="#DejaVuSans-2e" transform="translate(63.623047 0)"/>
       <use xlink:href="#DejaVuSans-34" transform="translate(95.410156 0)"/>
      </g>
     </g>
    </g>
    <g id="ytick_4">
     <g id="line2d_11">
      <g>
       <use xlink:href="#mf2169c8ff0" x="57.6" y="150.336" style="stroke: #000000; stroke-width: 0.8"/>
      </g>
     </g>
     <g id="text_11">
      <!-- 0.6 -->
      <g transform="translate(34.696875 154.135219) scale(0.1 -0.1)">
       <defs>
        <path id="DejaVuSans-36" d="M 2113 2584 
Q 1688 2584 1439 2293 
Q 1191 2003 1191 1497 
Q 1191 994 1439 701 
Q 1688 409 2113 409 
Q 2538 409 2786 701 
Q 3034 994 3034 1497 
Q 3034 2003 2786 2293 
Q 2538 2584 2113 2584 
z
M 3366 4563 
L 3366 3988 
Q 3128 4100 2886 4159 
Q 2644 4219 2406 4219 
Q 1781 4219 1451 3797 
Q 1122 3375 1075 2522 
Q 1259 2794 1537 2939 
Q 1816 3084 2150 3084 
Q 2853 3084 3261 2657 
Q 3669 2231 3669 1497 
Q 3669 778 3244 343 
Q 2819 -91 2113 -91 
Q 1303 -91 875 529 
Q 447 1150 447 2328 
Q 447 3434 972 4092 
Q 1497 4750 2381 4750 
Q 2619 4750 2861 4703 
Q 3103 4656 3366 4563 
z
" transform="scale(0.015625)"/>
       </defs>
       <use xlink:href="#DejaVuSans-30"/>
       <use xlink:href="#DejaVuSans-2e" transform="translate(63.623047 0)"/>
       <use xlink:href="#DejaVuSans-36" transform="translate(95.410156 0)"/>
      </g>
     </g>
    </g>
    <g id="ytick_5">
     <g id="line2d_12">
      <g>
       <use xlink:href="#mf2169c8ff0" x="57.6" y="101.952" style="stroke: #000000; stroke-width: 0.8"/>
      </g>
     </g>
     <g id="text_12">
      <!-- 0.8 -->
      <g transform="translate(34.696875 105.751219) scale(0.1 -0.1)">
       <defs>
        <path id="DejaVuSans-38" d="M 2034 2216 
Q 1584 2216 1326 1975 
Q 1069 1734 1069 1313 
Q 1069 891 1326 650 
Q 1584 409 2034 409 
Q 2484 409 2743 651 
Q 3003 894 3003 1313 
Q 3003 1734 2745 1975 
Q 2488 2216 2034 2216 
z
M 1403 2484 
Q 997 2584 770 2862 
Q 544 3141 544 3541 
Q 544 4100 942 4425 
Q 1341 4750 2034 4750 
Q 2731 4750 3128 4425 
Q 3525 4100 3525 3541 
Q 3525 3141 3298 2862 
Q 3072 2584 2669 2484 
Q 3125 2378 3379 2068 
Q 3634 1759 3634 1313 
Q 3634 634 3220 271 
Q 2806 -91 2034 -91 
Q 1263 -91 848 271 
Q 434 634 434 1313 
Q 434 1759 690 2068 
Q 947 2378 1403 2484 
z
M 1172 3481 
Q 1172 3119 1398 2916 
Q 1625 2713 2034 2713 
Q 2441 2713 2670 2916 
Q 2900 3119 2900 3481 
Q 2900 3844 2670 4047 
Q 2441 4250 2034 4250 
Q 1625 4250 1398 4047 
Q 1172 3844 1172 3481 
z
" transform="scale(0.015625)"/>
       </defs>
       <use xlink:href="#DejaVuSans-30"/>
       <use xlink:href="#DejaVuSans-2e" transform="translate(63.623047 0)"/>
       <use xlink:href="#DejaVuSans-38" transform="translate(95.410156 0)"/>
      </g>
     </g>
    </g>
    <g id="ytick_6">
     <g id="line2d_13">
      <g>
       <use xlink:href="#mf2169c8ff0" x="57.6" y="53.568" style="stroke: #000000; stroke-width: 0.8"/>
      </g>
     </g>
     <g id="text_13">
      <!-- 1.0 -->
      <g transform="translate(34.696875 57.367219) scale(0.1 -0.1)">
       <use xlink:href="#DejaVuSans-31"/>
       <use xlink:href="#DejaVuSans-2e" transform="translate(63.623047 0)"/>
       <use xlink:href="#DejaVuSans-30" transform="translate(95.410156 0)"/>
      </g>
     </g>
    </g>
   </g>
   <g id="line2d_14">
    <path d="M 73.832727 186.919683 
L 74.914909 149.166727 
L 75.997091 145.618564 
L 78.161455 144.852482 
L 79.243636 144.650868 
L 80.325818 143.925117 
L 81.408 145.403511 
L 82.490182 145.48416 
L 83.572364 145.201926 
L 84.654545 145.591686 
L 85.736727 145.806711 
L 86.818909 145.336316 
L 87.901091 146.129276 
L 88.983273 145.376648 
L 90.065455 145.040643 
L 92.229818 145.806711 
L 93.312 145.699199 
L 94.394182 145.040629 
L 96.558545 145.363194 
L 97.640727 143.817605 
L 99.805091 144.637444 
L 100.887273 143.898254 
L 101.969455 143.83103 
L 103.051636 144.220805 
L 104.133818 143.669762 
L 105.216 144.476161 
L 106.298182 143.804152 
L 107.380364 143.669762 
L 108.462545 142.930557 
L 109.544727 142.661763 
L 110.626909 142.55425 
L 111.709091 142.245124 
L 112.791273 142.151036 
L 113.873455 142.446724 
L 114.955636 141.653763 
L 116.037818 143.616005 
L 117.12 142.513919 
L 118.202182 142.581114 
L 119.284364 141.935997 
L 120.366545 142.688655 
L 121.448727 141.989768 
L 122.530909 142.056963 
L 123.613091 141.788154 
L 124.695273 142.621445 
L 125.777455 143.306879 
L 126.859636 142.151036 
L 127.941818 142.406407 
L 129.024 140.484482 
L 131.188364 140.941452 
L 132.270545 142.043524 
L 133.352727 141.882241 
L 134.434909 141.04895 
L 135.517091 140.524799 
L 136.599273 140.941437 
L 137.681455 141.559676 
L 138.763636 141.237125 
L 139.845818 141.949436 
L 140.928 140.941437 
L 143.092364 140.067843 
L 144.174545 141.062417 
L 146.338909 138.589449 
L 147.421091 141.734398 
L 148.503273 141.277427 
L 149.585455 140.323213 
L 150.667636 139.073283 
L 152.832 140.780169 
L 153.914182 140.578555 
L 154.996364 140.148477 
L 156.078545 138.253445 
L 157.160727 138.97921 
L 158.242909 137.635206 
L 159.325091 138.804488 
L 160.407273 138.038392 
L 161.489455 137.809928 
L 162.571636 138.06527 
L 163.653818 140.444165 
L 164.736 139.489922 
L 165.818182 139.180795 
L 166.900364 137.178236 
L 167.982545 137.809928 
L 169.064727 136.896002 
L 170.146909 137.258885 
L 171.229091 137.232007 
L 172.311273 136.963212 
L 173.393455 136.855685 
L 174.475636 135.901442 
L 175.557818 137.46047 
L 177.722182 137.823353 
L 178.804364 139.624326 
L 179.886545 142.513919 
L 180.968727 139.731839 
L 182.050909 141.250564 
L 183.133091 136.909441 
L 184.215273 128.42881 
L 185.297455 126.036476 
L 186.379636 119.854077 
L 187.461818 117.69025 
L 188.544 118.604176 
L 190.708364 115.768325 
L 191.790545 117.717128 
L 192.872727 113.859854 
L 193.954909 113.57762 
L 195.037091 114.666253 
L 196.119273 111.790085 
L 197.201455 111.1853 
L 198.283636 109.868175 
L 199.365818 111.628802 
L 200.448 110.002565 
L 201.530182 110.136969 
L 202.612364 107.87904 
L 203.694545 107.005431 
L 204.776727 106.803846 
L 205.858909 106.414071 
L 206.941091 104.69376 
L 208.023273 108.094065 
L 209.105455 105.083535 
L 210.187636 104.008312 
L 211.269818 101.978875 
L 212.352 102.408953 
L 213.434182 104.922253 
L 214.516364 102.126719 
L 215.598545 100.272004 
L 216.680727 103.551357 
L 217.762909 100.070389 
L 218.845091 97.557147 
L 221.009455 98.605449 
L 222.091636 98.33664 
L 223.173818 99.707521 
L 224.256 99.546238 
L 225.338182 96.105588 
L 226.420364 94.371839 
L 227.502545 93.054728 
L 228.584727 92.490231 
L 229.666909 94.237434 
L 230.749091 94.828794 
L 231.831273 90.83713 
L 232.913455 90.084487 
L 233.995636 91.912324 
L 235.077818 90.877447 
L 236.16 90.312964 
L 237.242182 91.132803 
L 239.406545 87.477128 
L 240.488727 87.934084 
L 241.570909 89.251195 
L 242.653091 88.861434 
L 243.735273 89.372146 
L 244.817455 85.918057 
L 245.899636 85.824012 
L 246.981818 86.966402 
L 248.064 85.74335 
L 249.146182 86.952963 
L 250.228364 84.103673 
L 251.310545 85.622384 
L 252.392727 81.644144 
L 253.474909 81.88609 
L 254.557091 80.16575 
L 255.639273 81.671036 
L 256.721455 77.800308 
L 257.803636 79.359351 
L 258.885818 78.781444 
L 259.968 77.007348 
L 261.050182 77.827186 
L 262.132364 79.950726 
L 263.214545 78.149766 
L 265.378909 75.945593 
L 266.461091 76.18751 
L 267.543273 78.485756 
L 269.707636 75.555847 
L 270.789818 76.631055 
L 271.872 74.951047 
L 272.954182 72.86784 
L 274.036364 71.859841 
L 275.118545 75.932168 
L 276.200727 73.983366 
L 278.365091 76.03971 
L 279.447273 74.682253 
L 280.529455 75.528969 
L 282.693818 72.128636 
L 283.776 71.040003 
L 284.858182 70.623378 
L 285.940364 71.80607 
L 287.022545 69.588487 
L 288.104727 69.212165 
L 289.186909 71.604485 
L 290.269091 70.5965 
L 291.351273 70.206725 
L 292.433455 70.152969 
L 293.515636 71.832963 
L 295.68 70.462081 
L 296.762182 67.155836 
L 297.844364 66.026885 
L 298.926545 66.309134 
L 300.008727 66.443524 
L 301.090909 65.475842 
L 302.173091 65.462389 
L 303.255273 65.18014 
L 304.337455 66.161276 
L 305.419636 65.811861 
L 306.501818 65.045779 
L 307.584 67.921932 
L 308.666182 65.784954 
L 309.748364 65.623671 
L 310.830545 66.725772 
L 311.912727 65.381755 
L 312.994909 63.742092 
L 314.077091 62.801288 
L 315.159273 63.849605 
L 316.241455 62.156172 
L 317.323636 62.855045 
L 318.405818 66.671988 
L 319.488 65.838739 
L 320.570182 63.513615 
L 321.652364 63.258244 
L 322.734545 63.406074 
L 323.816727 63.903361 
L 324.898909 62.371196 
L 327.063273 61.59169 
L 328.145455 61.860499 
L 329.227636 60.825607 
L 330.309818 60.274579 
L 331.392 59.898243 
L 332.474182 60.153627 
L 333.556364 59.48159 
L 334.638545 59.831047 
L 335.720727 60.355184 
L 336.802909 60.032633 
L 340.049455 58.325761 
L 341.131636 58.177932 
L 342.213818 58.5408 
L 343.296 58.312322 
L 344.378182 58.79617 
L 345.460364 58.298883 
L 346.542545 57.976332 
L 347.624727 58.043527 
L 348.706909 57.922576 
L 349.789091 57.667206 
L 351.953455 57.720962 
L 353.035636 57.640313 
L 355.2 57.169933 
L 358.446545 57.479031 
L 359.528727 57.075831 
L 360.610909 56.941441 
L 361.693091 57.169904 
L 362.775273 56.686085 
L 363.857455 57.143055 
L 364.939636 56.659207 
L 366.021818 56.847367 
L 368.186182 56.578573 
L 371.432727 56.833928 
L 372.514909 56.605436 
L 374.679273 56.686085 
L 375.761455 56.403851 
L 376.843636 56.645768 
L 377.925818 56.390412 
L 380.090182 56.336627 
L 381.172364 56.33667 
L 382.254545 56.175344 
L 383.336727 56.511377 
L 385.501091 56.2829 
L 388.747636 56.202237 
L 389.829818 55.96032 
L 391.994182 56.121588 
L 393.076364 56.108192 
L 394.158545 55.852807 
L 396.322909 56.040968 
L 397.405091 55.691525 
L 398.487273 55.973759 
L 398.487273 55.973759 
" clip-path="url(#p12ef6dae01)" style="fill: none; stroke: #1f77b4; stroke-width: 1.5; stroke-linecap: square"/>
   </g>
   <g id="line2d_15">
    <path d="M 73.832727 233.578359 
L 74.914909 76.549989 
L 75.997091 57.972381 
L 77.079273 57.717963 
L 78.161455 57.225088 
L 79.243636 59.689145 
L 81.408 54.917252 
L 82.490182 54.692379 
L 83.572364 56.558832 
L 84.654545 53.85854 
L 85.736727 58.596834 
L 86.818909 58.373735 
L 87.901091 67.88349 
L 88.983273 56.60274 
L 90.065455 59.287373 
L 91.147636 60.151464 
L 93.312 55.526752 
L 94.394182 60.465926 
L 95.476364 62.061118 
L 96.558545 58.883784 
L 97.640727 59.923751 
L 98.722909 59.495865 
L 99.805091 61.317718 
L 100.887273 60.274348 
L 101.969455 65.753087 
L 103.051636 65.336477 
L 104.133818 67.36055 
L 105.216 70.699542 
L 106.298182 65.356809 
L 107.380364 66.937077 
L 108.462545 68.11837 
L 109.544727 64.212357 
L 110.626909 68.848288 
L 111.709091 69.624363 
L 112.791273 72.879923 
L 113.873455 76.945849 
L 114.955636 72.373739 
L 116.037818 81.712781 
L 117.12 71.132446 
L 118.202182 68.276855 
L 119.284364 68.282176 
L 120.366545 71.257896 
L 121.448727 69.715292 
L 122.530909 73.188387 
L 123.613091 70.661994 
L 124.695273 74.092608 
L 125.777455 78.516066 
L 126.859636 75.066692 
L 127.941818 72.480271 
L 129.024 81.209726 
L 130.106182 74.233819 
L 131.188364 73.295495 
L 132.270545 76.981595 
L 133.352727 74.287863 
L 134.434909 83.621425 
L 135.517091 77.834137 
L 136.599273 79.347166 
L 137.681455 81.201564 
L 138.763636 80.179218 
L 139.845818 76.55244 
L 140.928 80.225014 
L 142.010182 78.461186 
L 143.092364 77.430231 
L 144.174545 75.868088 
L 145.256727 77.965657 
L 146.338909 78.135404 
L 147.421091 81.552017 
L 148.503273 75.995095 
L 149.585455 77.174615 
L 150.667636 82.620737 
L 151.749818 74.561474 
L 152.832 75.481788 
L 153.914182 79.729414 
L 154.996364 86.585019 
L 156.078545 81.129885 
L 157.160727 78.221749 
L 158.242909 78.979597 
L 159.325091 81.310821 
L 160.407273 86.738472 
L 161.489455 82.358763 
L 162.571636 83.37126 
L 163.653818 83.183287 
L 164.736 85.532853 
L 165.818182 85.04589 
L 166.900364 89.67053 
L 167.982545 89.567704 
L 169.064727 83.732744 
L 170.146909 81.367101 
L 171.229091 80.921839 
L 172.311273 89.087648 
L 173.393455 82.98261 
L 174.475636 83.055948 
L 175.557818 84.922862 
L 176.64 81.761562 
L 177.722182 85.989967 
L 178.804364 74.972965 
L 179.886545 89.152926 
L 180.968727 76.999663 
L 182.050909 74.557451 
L 183.133091 89.354035 
L 184.215273 81.501808 
L 185.297455 82.719626 
L 186.379636 83.45847 
L 187.461818 85.825354 
L 188.544 85.701345 
L 189.626182 85.275219 
L 190.708364 81.884215 
L 191.790545 84.704968 
L 192.872727 84.500369 
L 193.954909 85.758144 
L 195.037091 88.058827 
L 196.119273 80.771083 
L 197.201455 79.110815 
L 198.283636 81.953357 
L 199.365818 85.477453 
L 200.448 82.82499 
L 201.530182 81.7656 
L 202.612364 84.640196 
L 203.694545 85.691468 
L 204.776727 84.201207 
L 205.858909 79.85126 
L 206.941091 87.781063 
L 208.023273 78.703074 
L 209.105455 84.35156 
L 210.187636 88.585675 
L 211.269818 80.869179 
L 212.352 84.166297 
L 213.434182 82.181287 
L 214.516364 87.914747 
L 215.598545 87.001412 
L 216.680727 87.765836 
L 217.762909 84.563426 
L 218.845091 84.086817 
L 219.927273 85.13979 
L 221.009455 87.740891 
L 222.091636 81.78198 
L 223.173818 83.106517 
L 224.256 82.671004 
L 226.420364 81.600654 
L 227.502545 83.286531 
L 228.584727 80.850607 
L 229.666909 79.770049 
L 230.749091 81.880855 
L 231.831273 77.360613 
L 233.995636 80.246658 
L 235.077818 81.356214 
L 236.16 80.108101 
L 237.242182 79.333511 
L 238.324364 80.860585 
L 239.406545 77.581477 
L 240.488727 79.743257 
L 241.570909 79.562191 
L 242.653091 81.105011 
L 243.735273 77.360685 
L 244.817455 77.165761 
L 245.899636 73.853604 
L 246.981818 77.701073 
L 248.064 78.058534 
L 249.146182 77.381507 
L 250.228364 74.801502 
L 251.310545 77.025113 
L 252.392727 71.494262 
L 253.474909 72.87492 
L 254.557091 72.335398 
L 255.639273 72.701063 
L 256.721455 71.610902 
L 257.803636 71.950929 
L 258.885818 73.75832 
L 259.968 71.302684 
L 261.050182 69.929855 
L 262.132364 70.148283 
L 263.214545 69.88713 
L 264.296727 67.950454 
L 265.378909 69.427392 
L 266.461091 71.577001 
L 267.543273 70.856225 
L 268.625455 69.100861 
L 269.707636 69.231502 
L 270.789818 69.157948 
L 271.872 70.217468 
L 272.954182 67.617362 
L 274.036364 68.904236 
L 275.118545 68.816781 
L 276.200727 67.948349 
L 277.282909 69.000198 
L 278.365091 70.437626 
L 279.447273 66.334729 
L 280.529455 68.704611 
L 281.611636 69.297241 
L 282.693818 67.669287 
L 283.776 67.504573 
L 284.858182 66.949694 
L 285.940364 66.950227 
L 287.022545 65.020299 
L 288.104727 65.338006 
L 289.186909 70.344057 
L 290.269091 64.509689 
L 291.351273 65.224783 
L 292.433455 64.588823 
L 293.515636 65.290594 
L 294.597818 66.236618 
L 295.68 64.539955 
L 297.844364 62.03362 
L 298.926545 63.45213 
L 300.008727 62.32576 
L 301.090909 61.610767 
L 302.173091 61.822028 
L 303.255273 61.140329 
L 304.337455 63.274264 
L 305.419636 61.858206 
L 306.501818 61.569008 
L 307.584 64.591231 
L 308.666182 62.823639 
L 309.748364 63.220119 
L 310.830545 62.331528 
L 311.912727 60.108523 
L 312.994909 60.245466 
L 314.077091 59.701805 
L 315.159273 58.737512 
L 316.241455 58.807201 
L 317.323636 60.618081 
L 318.405818 61.596016 
L 319.488 60.02959 
L 320.570182 60.672991 
L 321.652364 60.279726 
L 322.734545 61.300905 
L 323.816727 59.198663 
L 324.898909 59.526607 
L 325.981091 59.028095 
L 327.063273 58.698521 
L 329.227636 58.837929 
L 330.309818 57.235008 
L 331.392 58.301522 
L 332.474182 58.533158 
L 333.556364 57.76125 
L 334.638545 58.331111 
L 335.720727 57.895424 
L 336.802909 57.134807 
L 337.885091 58.36119 
L 338.967273 56.99139 
L 340.049455 57.30963 
L 341.131636 56.866257 
L 342.213818 57.269024 
L 344.378182 56.659106 
L 346.542545 56.452848 
L 347.624727 56.772616 
L 348.706909 56.944642 
L 349.789091 56.796942 
L 350.871273 56.790468 
L 351.953455 56.411262 
L 353.035636 56.296295 
L 354.117818 56.624124 
L 355.2 56.684398 
L 357.364364 56.458025 
L 358.446545 56.672141 
L 359.528727 56.313325 
L 360.610909 56.41778 
L 361.693091 56.637231 
L 362.775273 55.828337 
L 363.857455 56.375502 
L 364.939636 55.990024 
L 366.021818 56.210744 
L 368.186182 55.826333 
L 370.350545 56.00218 
L 371.432727 56.084775 
L 372.514909 56.049533 
L 373.597091 56.325322 
L 374.679273 56.231047 
L 375.761455 56.00864 
L 376.843636 56.069216 
L 379.008 55.803377 
L 380.090182 56.073196 
L 381.172364 55.994581 
L 382.254545 55.650184 
L 383.336727 55.913946 
L 384.418909 55.839325 
L 386.583273 55.916196 
L 387.665455 55.611597 
L 388.747636 55.696211 
L 389.829818 55.536154 
L 390.912 55.763175 
L 393.076364 55.79226 
L 394.158545 55.404186 
L 395.240727 55.862627 
L 396.322909 55.696269 
L 397.405091 55.398015 
L 398.487273 55.658778 
L 398.487273 55.658778 
" clip-path="url(#p12ef6dae01)" style="fill: none; stroke: #ff7f0e; stroke-width: 1.5; stroke-linecap: square"/>
   </g>
   <g id="line2d_16">
    <path d="M 73.832727 116.804918 
L 74.914909 269.942813 
L 75.997091 288.823089 
L 78.161455 287.800588 
L 79.243636 284.488994 
L 80.325818 285.573397 
L 81.408 292.871065 
L 82.490182 293.450287 
L 83.572364 289.976152 
L 84.654545 294.948602 
L 85.736727 288.340977 
L 86.818909 287.499703 
L 87.901091 275.1844 
L 88.983273 290.237714 
L 90.065455 285.374289 
L 91.147636 285.137586 
L 92.229818 289.480058 
L 93.312 292.800591 
L 94.394182 283.226151 
L 95.476364 281.51174 
L 96.558545 284.515205 
L 97.640727 280.944405 
L 98.722909 283.053625 
L 99.805091 280.742451 
L 100.887273 279.327786 
L 101.969455 271.99692 
L 103.051636 272.484888 
L 104.133818 267.579031 
L 105.216 265.433228 
L 106.298182 272.578825 
L 107.380364 268.551291 
L 108.462545 263.542725 
L 109.544727 270.59819 
L 110.626909 263.88232 
L 111.709091 260.895302 
L 112.791273 257.016013 
L 113.873455 251.83321 
L 114.955636 255.391138 
L 116.037818 246.902515 
L 117.12 259.055673 
L 118.202182 264.062179 
L 119.284364 261.937342 
L 120.366545 259.00483 
L 121.448727 260.00904 
L 122.530909 254.344855 
L 123.613091 257.337075 
L 124.695273 254.739691 
L 125.777455 249.328955 
L 126.859636 251.983599 
L 127.941818 257.457518 
L 129.024 238.904178 
L 130.106182 249.086721 
L 131.188364 251.622025 
L 132.270545 248.0271 
L 133.352727 252.534995 
L 134.434909 236.981666 
L 135.517091 244.110427 
L 136.599273 243.949902 
L 137.681455 242.642956 
L 138.763636 242.075662 
L 139.845818 250.61669 
L 140.928 242.653706 
L 142.010182 244.028611 
L 143.092364 242.068467 
L 144.174545 248.759307 
L 145.256727 242.47423 
L 146.338909 239.931384 
L 147.421091 241.848378 
L 148.503273 248.276569 
L 149.585455 243.362189 
L 150.667636 231.912294 
L 151.749818 247.021462 
L 152.832 248.460432 
L 153.914182 242.010032 
L 154.996364 230.00812 
L 156.078545 234.128919 
L 157.160727 242.009722 
L 158.242909 236.901345 
L 159.325091 236.819359 
L 160.407273 225.36095 
L 161.489455 231.355555 
L 162.571636 232.514686 
L 163.653818 236.057567 
L 164.736 230.546936 
L 165.818182 231.017215 
L 166.900364 219.549227 
L 167.982545 219.545247 
L 169.064727 226.492928 
L 170.146909 229.897212 
L 171.229091 232.469502 
L 172.311273 218.395922 
L 173.393455 226.688818 
L 174.475636 224.971528 
L 175.557818 224.729914 
L 176.64 231.093112 
L 177.722182 224.949214 
L 178.804364 246.372301 
L 179.886545 231.563053 
L 180.968727 243.442074 
L 182.050909 251.266521 
L 183.133091 217.362451 
L 184.215273 207.459605 
L 185.297455 200.108003 
L 186.379636 181.212582 
L 187.461818 171.738753 
L 188.544 176.370884 
L 189.626182 174.065118 
L 190.708364 175.225928 
L 191.790545 175.919199 
L 192.872727 166.986529 
L 193.954909 162.941613 
L 195.037091 164.069395 
L 196.119273 166.640114 
L 197.201455 168.019013 
L 198.283636 160.611644 
L 199.365818 159.308649 
L 200.448 157.609809 
L 201.530182 161.501532 
L 202.612364 147.344182 
L 203.694545 143.920489 
L 204.776727 145.166699 
L 205.858909 151.98079 
L 206.941091 134.096474 
L 208.023273 156.45362 
L 209.105455 139.401342 
L 210.187636 130.219575 
L 211.269818 136.989095 
L 212.352 133.965949 
L 213.434182 143.224039 
L 214.516364 126.145892 
L 215.598545 123.411699 
L 216.680727 130.564548 
L 217.762909 127.502729 
L 218.845091 120.809719 
L 219.927273 120.374681 
L 221.009455 117.809428 
L 222.091636 125.837011 
L 223.173818 127.611712 
L 224.256 127.516096 
L 225.338182 120.024675 
L 226.420364 115.476271 
L 227.502545 109.916264 
L 228.584727 111.795146 
L 229.666909 118.252108 
L 230.749091 117.530308 
L 231.831273 114.454401 
L 232.913455 109.784036 
L 233.995636 112.899454 
L 235.077818 106.652657 
L 236.16 108.011815 
L 237.242182 111.680179 
L 238.324364 103.754442 
L 239.406545 104.379573 
L 240.488727 101.550124 
L 241.570909 105.941427 
L 242.653091 102.438686 
L 243.735273 108.436904 
L 244.817455 100.720408 
L 245.899636 105.130024 
L 246.981818 101.707687 
L 248.064 98.823992 
L 249.146182 102.73482 
L 250.228364 99.39665 
L 251.310545 99.122448 
L 252.392727 98.194232 
L 253.474909 97.562583 
L 254.557091 93.358692 
L 255.639273 97.398734 
L 256.721455 87.870147 
L 257.803636 92.463929 
L 258.885818 86.866344 
L 259.968 86.528163 
L 261.050182 90.308566 
L 262.132364 95.967781 
L 263.214545 91.513508 
L 264.296727 91.971357 
L 265.378909 86.950843 
L 266.461091 84.327234 
L 267.543273 90.434939 
L 268.625455 90.965579 
L 269.707636 85.771266 
L 270.789818 89.050475 
L 271.872 82.921644 
L 272.954182 82.204935 
L 274.036364 77.131904 
L 275.118545 87.489529 
L 276.200727 84.056939 
L 277.282909 85.353531 
L 278.365091 85.983435 
L 279.447273 88.410679 
L 280.529455 86.943734 
L 281.611636 82.329779 
L 282.693818 79.197909 
L 283.776 76.916894 
L 284.858182 76.357661 
L 285.940364 80.316492 
L 287.022545 77.271442 
L 288.104727 75.788694 
L 289.186909 73.204046 
L 290.269091 80.018007 
L 291.351273 78.069896 
L 292.433455 78.867067 
L 293.515636 82.187026 
L 294.597818 79.644382 
L 295.68 80.370724 
L 296.762182 73.983495 
L 298.926545 71.225337 
L 300.008727 73.397427 
L 301.090909 71.786863 
L 302.173091 71.765263 
L 303.255273 71.025021 
L 304.337455 70.631871 
L 305.419636 72.1956 
L 306.501818 70.639096 
L 307.584 73.067233 
L 308.666182 70.331772 
L 309.748364 69.17838 
L 310.830545 73.341407 
L 311.912727 73.636604 
L 312.994909 69.214069 
L 314.077091 67.585365 
L 315.159273 71.239396 
L 316.241455 67.053788 
L 317.323636 66.086121 
L 318.405818 74.274093 
L 319.488 74.298116 
L 320.570182 67.944975 
L 321.652364 67.593253 
L 322.734545 66.454483 
L 323.816727 70.845122 
L 324.898909 66.58224 
L 327.063273 65.872899 
L 328.145455 66.376646 
L 329.227636 63.809763 
L 330.309818 65.07221 
L 331.392 62.393878 
L 332.474182 62.486596 
L 333.556364 62.034471 
L 334.638545 62.095509 
L 335.720727 64.120995 
L 336.802909 64.516307 
L 337.885091 61.11906 
L 338.967273 61.391316 
L 340.049455 59.821704 
L 341.131636 60.207614 
L 342.213818 60.395256 
L 343.296 60.28013 
L 344.378182 62.230692 
L 345.460364 61.04875 
L 348.706909 59.42805 
L 349.789091 59.059039 
L 350.871273 59.215664 
L 351.953455 59.756123 
L 353.035636 59.711538 
L 354.117818 58.544419 
L 355.2 57.786628 
L 356.282182 58.308876 
L 357.364364 58.654368 
L 358.446545 58.602112 
L 360.610909 57.708417 
L 361.693091 57.939029 
L 362.775273 57.929815 
L 363.857455 58.337109 
L 364.939636 57.593551 
L 366.021818 57.797991 
L 368.186182 57.638626 
L 369.268364 57.689383 
L 370.350545 58.212827 
L 371.432727 57.976967 
L 372.514909 57.427437 
L 373.597091 57.062608 
L 374.679273 57.344424 
L 375.761455 56.967208 
L 376.843636 57.427942 
L 377.925818 56.997662 
L 379.008 57.091606 
L 380.090182 56.646128 
L 382.254545 56.926704 
L 383.336727 57.361569 
L 385.501091 56.824844 
L 386.583273 56.760792 
L 387.665455 57.097258 
L 388.747636 56.970568 
L 389.829818 56.575732 
L 394.158545 56.544081 
L 395.240727 56.02404 
L 396.322909 56.54633 
L 397.405091 56.084313 
L 398.487273 56.378891 
L 398.487273 56.378891 
" clip-path="url(#p12ef6dae01)" style="fill: none; stroke: #2ca02c; stroke-width: 1.5; stroke-linecap: square"/>
   </g>
   <g id="line2d_17">
    <path d="M 73.832727 200.870401 
L 74.914909 147.580806 
L 75.997091 147.984006 
L 77.079273 146.841602 
L 78.161455 146.707198 
L 79.243636 149.79839 
L 80.325818 156.384003 
L 81.408 146.707198 
L 83.572364 146.707198 
L 84.654545 147.043202 
L 85.736727 146.707198 
L 86.818909 150.604789 
L 87.901091 146.707198 
L 88.983273 148.185591 
L 90.065455 156.384003 
L 91.147636 147.177592 
L 92.229818 146.707198 
L 93.312 146.572793 
L 94.394182 149.39519 
L 95.476364 146.707198 
L 96.558545 148.723196 
L 97.640727 152.150393 
L 98.722909 146.707198 
L 99.805091 146.639988 
L 100.887273 150.873599 
L 101.969455 150.268799 
L 103.051636 153.359991 
L 104.133818 149.932795 
L 105.216 149.932795 
L 106.298182 156.518393 
L 107.380364 149.596805 
L 108.462545 152.553592 
L 109.544727 151.478412 
L 110.626909 152.822401 
L 111.709091 149.932795 
L 112.791273 157.929592 
L 113.873455 156.585588 
L 114.955636 152.150407 
L 116.037818 152.486397 
L 117.12 153.494396 
L 118.202182 155.846399 
L 119.284364 156.115194 
L 120.366545 153.763191 
L 121.448727 152.620787 
L 122.530909 148.8576 
L 123.613091 157.526392 
L 124.695273 148.051201 
L 125.777455 151.679983 
L 126.859636 152.419202 
L 127.941818 151.007989 
L 129.024 150.20159 
L 130.106182 153.830401 
L 131.188364 155.711994 
L 132.270545 151.814388 
L 133.352727 153.292796 
L 134.434909 155.711994 
L 135.517091 152.284797 
L 136.599273 173.721601 
L 137.681455 153.225601 
L 138.763636 168.144001 
L 139.845818 153.561606 
L 140.928 149.126395 
L 142.010182 160.214399 
L 143.092364 153.158406 
L 144.174545 155.039999 
L 145.256727 152.687982 
L 146.338909 154.233586 
L 147.421091 157.996801 
L 148.503273 153.628801 
L 149.585455 155.711994 
L 150.667636 158.400001 
L 151.749818 155.308794 
L 152.832 153.494382 
L 153.914182 158.803201 
L 154.996364 158.063996 
L 156.078545 155.510394 
L 157.160727 155.039999 
L 158.242909 162.163188 
L 159.325091 155.375989 
L 161.489455 168.681606 
L 162.571636 159.139205 
L 163.653818 151.007989 
L 164.736 156.047998 
L 165.818182 149.126395 
L 166.900364 156.316793 
L 167.982545 160.415999 
L 169.064727 148.790391 
L 170.146909 160.953589 
L 171.229091 151.478398 
L 172.311273 153.628801 
L 173.393455 156.115194 
L 174.475636 156.182389 
L 175.557818 152.284797 
L 176.64 156.652798 
L 177.722182 156.585588 
L 178.804364 144.758395 
L 179.886545 143.280001 
L 180.968727 156.249598 
L 182.050909 152.419202 
L 183.133091 145.967994 
L 184.215273 145.094399 
L 185.297455 142.272002 
L 186.379636 152.620802 
L 187.461818 166.060794 
L 188.544 147.782406 
L 189.626182 164.111991 
L 190.708364 175.468811 
L 191.790545 158.265611 
L 192.872727 178.156804 
L 193.954909 160.147204 
L 195.037091 158.265596 
L 196.119273 155.443199 
L 197.201455 142.070402 
L 198.283636 156.854398 
L 199.365818 151.478398 
L 200.448 157.257597 
L 201.530182 155.577589 
L 202.612364 163.036782 
L 203.694545 151.679998 
L 204.776727 159.676795 
L 205.858909 172.780797 
L 206.941091 141.868788 
L 208.023273 152.150393 
L 209.105455 166.128003 
L 210.187636 158.332791 
L 211.269818 148.790391 
L 212.352 151.276798 
L 213.434182 150.739194 
L 214.516364 158.198401 
L 215.598545 142.406407 
L 216.680727 168.748801 
L 217.762909 155.10718 
L 218.845091 153.830401 
L 219.927273 149.327995 
L 221.009455 150.537594 
L 222.091636 155.241599 
L 223.173818 148.454386 
L 224.256 157.391988 
L 225.338182 146.572807 
L 226.420364 165.11999 
L 227.502545 150.067199 
L 228.584727 158.063996 
L 229.666909 156.652798 
L 230.749091 154.838385 
L 231.831273 156.854398 
L 232.913455 172.579211 
L 233.995636 154.97279 
L 235.077818 163.641596 
L 236.16 166.531188 
L 237.242182 155.644799 
L 238.324364 146.035203 
L 239.406545 175.603201 
L 240.488727 152.284797 
L 241.570909 154.502395 
L 242.653091 129.839995 
L 243.735273 144.22079 
L 244.817455 161.692793 
L 245.899636 146.572793 
L 246.981818 165.926389 
L 248.064 145.228789 
L 249.146182 163.641596 
L 250.228364 155.644799 
L 251.310545 156.921593 
L 252.392727 153.427215 
L 253.474909 150.537594 
L 254.557091 140.390394 
L 255.639273 139.987194 
L 256.721455 147.983992 
L 257.803636 140.188794 
L 258.885818 138.239991 
L 259.968 150.470399 
L 261.050182 151.545607 
L 262.132364 144.287986 
L 264.296727 159.273595 
L 265.378909 145.900813 
L 266.461091 158.265582 
L 267.543273 143.548796 
L 268.625455 134.3424 
L 269.707636 152.822401 
L 270.789818 157.929606 
L 271.872 140.457589 
L 272.954182 152.553592 
L 274.036364 145.632004 
L 275.118545 145.363209 
L 276.200727 160.147204 
L 277.282909 144.62399 
L 278.365091 155.17439 
L 279.447273 149.664 
L 280.529455 148.454386 
L 281.611636 146.774407 
L 282.693818 140.659203 
L 283.776 156.451184 
L 284.858182 157.123207 
L 285.940364 154.36799 
L 287.022545 151.075184 
L 288.104727 145.02719 
L 289.186909 152.755206 
L 290.269091 144.4896 
L 291.351273 146.304012 
L 292.433455 145.900798 
L 293.515636 148.991991 
L 294.597818 147.984006 
L 295.68 153.897596 
L 296.762182 144.220805 
L 297.844364 153.359991 
L 298.926545 145.632004 
L 300.008727 148.723181 
L 301.090909 149.39519 
L 302.173091 148.991991 
L 303.255273 150.067185 
L 304.337455 150.873599 
L 305.419636 149.865599 
L 306.501818 159.071996 
L 307.584 147.849601 
L 308.666182 147.177607 
L 309.748364 145.497599 
L 310.830545 147.715197 
L 311.912727 145.631989 
L 312.994909 141.599979 
L 314.077091 149.193605 
L 315.159273 145.430404 
L 316.241455 152.956792 
L 317.323636 140.054404 
L 318.405818 145.497584 
L 319.488 152.150393 
L 320.570182 143.414391 
L 321.652364 146.236789 
L 322.734545 142.540797 
L 323.816727 143.884786 
L 324.898909 144.019191 
L 325.981091 145.430389 
L 327.063273 142.339197 
L 329.227636 148.320011 
L 330.309818 150.739194 
L 331.392 146.975993 
L 332.474182 144.758395 
L 333.556364 146.707198 
L 334.638545 151.478384 
L 335.720727 146.774393 
L 336.802909 149.529595 
L 337.885091 146.438403 
L 338.967273 146.572793 
L 340.049455 148.991991 
L 342.213818 146.236789 
L 343.296 148.387191 
L 344.378182 147.580792 
L 345.460364 148.185591 
L 346.542545 147.647987 
L 347.624727 149.798404 
L 348.706909 149.59679 
L 349.789091 149.059186 
L 350.871273 147.983992 
L 351.953455 148.924796 
L 353.035636 147.849587 
L 354.117818 147.513583 
L 355.2 146.841602 
L 356.282182 148.051201 
L 357.364364 147.983992 
L 358.446545 148.454401 
L 359.528727 148.656001 
L 360.610909 149.193605 
L 361.693091 147.513597 
L 362.775273 149.596805 
L 363.857455 147.110397 
L 364.939636 147.043188 
L 366.021818 147.849601 
L 367.104 147.311997 
L 368.186182 146.371193 
L 369.268364 147.110397 
L 370.350545 147.311997 
L 371.432727 145.699199 
L 372.514909 146.169593 
L 373.597091 147.043188 
L 374.679273 146.975993 
L 375.761455 146.505598 
L 376.843636 146.639988 
L 377.925818 146.908798 
L 379.008 147.043188 
L 380.090182 146.908798 
L 381.172364 146.975993 
L 382.254545 147.311997 
L 383.336727 147.916797 
L 384.418909 146.908798 
L 385.501091 147.110397 
L 386.583273 147.177592 
L 387.665455 148.118396 
L 388.747636 147.984006 
L 391.994182 148.118396 
L 393.076364 148.051201 
L 394.158545 148.521596 
L 395.240727 148.051201 
L 396.322909 148.387191 
L 397.405091 148.051201 
L 398.487273 148.185591 
L 398.487273 148.185591 
" clip-path="url(#p12ef6dae01)" style="fill: none; stroke: #d62728; stroke-width: 1.5; stroke-linecap: square"/>
   </g>
   <g id="patch_3">
    <path d="M 57.6 307.584 
L 57.6 41.472 
" style="fill: none; stroke: #000000; stroke-width: 0.8; stroke-linejoin: miter; stroke-linecap: square"/>
   </g>
   <g id="patch_4">
    <path d="M 414.72 307.584 
L 414.72 41.472 
" style="fill: none; stroke: #000000; stroke-width: 0.8; stroke-linejoin: miter; stroke-linecap: square"/>
   </g>
   <g id="patch_5">
    <path d="M 57.6 307.584 
L 414.72 307.584 
" style="fill: none; stroke: #000000; stroke-width: 0.8; stroke-linejoin: miter; stroke-linecap: square"/>
   </g>
   <g id="patch_6">
    <path d="M 57.6 41.472 
L 414.72 41.472 
" style="fill: none; stroke: #000000; stroke-width: 0.8; stroke-linejoin: miter; stroke-linecap: square"/>
   </g>
   <g id="text_14">
    <!-- veil4 -->
    <g transform="translate(221.765625 35.472) scale(0.12 -0.12)">
     <defs>
      <path id="DejaVuSans-76" d="M 191 3500 
L 800 3500 
L 1894 563 
L 2988 3500 
L 3597 3500 
L 2284 0 
L 1503 0 
L 191 3500 
z
" transform="scale(0.015625)"/>
      <path id="DejaVuSans-65" d="M 3597 1894 
L 3597 1613 
L 953 1613 
Q 991 1019 1311 708 
Q 1631 397 2203 397 
Q 2534 397 2845 478 
Q 3156 559 3463 722 
L 3463 178 
Q 3153 47 2828 -22 
Q 2503 -91 2169 -91 
Q 1331 -91 842 396 
Q 353 884 353 1716 
Q 353 2575 817 3079 
Q 1281 3584 2069 3584 
Q 2775 3584 3186 3129 
Q 3597 2675 3597 1894 
z
M 3022 2063 
Q 3016 2534 2758 2815 
Q 2500 3097 2075 3097 
Q 1594 3097 1305 2825 
Q 1016 2553 972 2059 
L 3022 2063 
z
" transform="scale(0.015625)"/>
      <path id="DejaVuSans-69" d="M 603 3500 
L 1178 3500 
L 1178 0 
L 603 0 
L 603 3500 
z
M 603 4863 
L 1178 4863 
L 1178 4134 
L 603 4134 
L 603 4863 
z
" transform="scale(0.015625)"/>
      <path id="DejaVuSans-6c" d="M 603 4863 
L 1178 4863 
L 1178 0 
L 603 0 
L 603 4863 
z
" transform="scale(0.015625)"/>
     </defs>
     <use xlink:href="#DejaVuSans-76"/>
     <use xlink:href="#DejaVuSans-65" transform="translate(59.179688 0)"/>
     <use xlink:href="#DejaVuSans-69" transform="translate(120.703125 0)"/>
     <use xlink:href="#DejaVuSans-6c" transform="translate(148.486328 0)"/>
     <use xlink:href="#DejaVuSans-34" transform="translate(176.269531 0)"/>
    </g>
   </g>
   <g id="legend_1">
    <g id="patch_7">
     <path d="M 316.259063 302.584 
L 407.72 302.584 
Q 409.72 302.584 409.72 300.584 
L 409.72 212.40275 
Q 409.72 210.40275 407.72 210.40275 
L 316.259063 210.40275 
Q 314.259063 210.40275 314.259063 212.40275 
L 314.259063 300.584 
Q 314.259063 302.584 316.259063 302.584 
z
" style="fill: #ffffff; opacity: 0.8; stroke: #cccccc; stroke-linejoin: miter"/>
    </g>
    <g id="line2d_18">
     <path d="M 318.259063 218.501187 
L 328.259063 218.501187 
L 338.259063 218.501187 
" style="fill: none; stroke: #1f77b4; stroke-width: 1.5; stroke-linecap: square"/>
    </g>
    <g id="text_15">
     <!-- train -->
     <g transform="translate(346.259063 222.001187) scale(0.1 -0.1)">
      <defs>
       <path id="DejaVuSans-74" d="M 1172 4494 
L 1172 3500 
L 2356 3500 
L 2356 3053 
L 1172 3053 
L 1172 1153 
Q 1172 725 1289 603 
Q 1406 481 1766 481 
L 2356 481 
L 2356 0 
L 1766 0 
Q 1100 0 847 248 
Q 594 497 594 1153 
L 594 3053 
L 172 3053 
L 172 3500 
L 594 3500 
L 594 4494 
L 1172 4494 
z
" transform="scale(0.015625)"/>
       <path id="DejaVuSans-72" d="M 2631 2963 
Q 2534 3019 2420 3045 
Q 2306 3072 2169 3072 
Q 1681 3072 1420 2755 
Q 1159 2438 1159 1844 
L 1159 0 
L 581 0 
L 581 3500 
L 1159 3500 
L 1159 2956 
Q 1341 3275 1631 3429 
Q 1922 3584 2338 3584 
Q 2397 3584 2469 3576 
Q 2541 3569 2628 3553 
L 2631 2963 
z
" transform="scale(0.015625)"/>
       <path id="DejaVuSans-61" d="M 2194 1759 
Q 1497 1759 1228 1600 
Q 959 1441 959 1056 
Q 959 750 1161 570 
Q 1363 391 1709 391 
Q 2188 391 2477 730 
Q 2766 1069 2766 1631 
L 2766 1759 
L 2194 1759 
z
M 3341 1997 
L 3341 0 
L 2766 0 
L 2766 531 
Q 2569 213 2275 61 
Q 1981 -91 1556 -91 
Q 1019 -91 701 211 
Q 384 513 384 1019 
Q 384 1609 779 1909 
Q 1175 2209 1959 2209 
L 2766 2209 
L 2766 2266 
Q 2766 2663 2505 2880 
Q 2244 3097 1772 3097 
Q 1472 3097 1187 3025 
Q 903 2953 641 2809 
L 641 3341 
Q 956 3463 1253 3523 
Q 1550 3584 1831 3584 
Q 2591 3584 2966 3190 
Q 3341 2797 3341 1997 
z
" transform="scale(0.015625)"/>
       <path id="DejaVuSans-6e" d="M 3513 2113 
L 3513 0 
L 2938 0 
L 2938 2094 
Q 2938 2591 2744 2837 
Q 2550 3084 2163 3084 
Q 1697 3084 1428 2787 
Q 1159 2491 1159 1978 
L 1159 0 
L 581 0 
L 581 3500 
L 1159 3500 
L 1159 2956 
Q 1366 3272 1645 3428 
Q 1925 3584 2291 3584 
Q 2894 3584 3203 3211 
Q 3513 2838 3513 2113 
z
" transform="scale(0.015625)"/>
      </defs>
      <use xlink:href="#DejaVuSans-74"/>
      <use xlink:href="#DejaVuSans-72" transform="translate(39.208984 0)"/>
      <use xlink:href="#DejaVuSans-61" transform="translate(80.322266 0)"/>
      <use xlink:href="#DejaVuSans-69" transform="translate(141.601562 0)"/>
      <use xlink:href="#DejaVuSans-6e" transform="translate(169.384766 0)"/>
     </g>
    </g>
    <g id="line2d_19">
     <path d="M 318.259063 233.179312 
L 328.259063 233.179312 
L 338.259063 233.179312 
" style="fill: none; stroke: #ff7f0e; stroke-width: 1.5; stroke-linecap: square"/>
    </g>
    <g id="text_16">
     <!-- train_class0 -->
     <g transform="translate(346.259063 236.679312) scale(0.1 -0.1)">
      <defs>
       <path id="DejaVuSans-5f" d="M 3263 -1063 
L 3263 -1509 
L -63 -1509 
L -63 -1063 
L 3263 -1063 
z
" transform="scale(0.015625)"/>
       <path id="DejaVuSans-63" d="M 3122 3366 
L 3122 2828 
Q 2878 2963 2633 3030 
Q 2388 3097 2138 3097 
Q 1578 3097 1268 2742 
Q 959 2388 959 1747 
Q 959 1106 1268 751 
Q 1578 397 2138 397 
Q 2388 397 2633 464 
Q 2878 531 3122 666 
L 3122 134 
Q 2881 22 2623 -34 
Q 2366 -91 2075 -91 
Q 1284 -91 818 406 
Q 353 903 353 1747 
Q 353 2603 823 3093 
Q 1294 3584 2113 3584 
Q 2378 3584 2631 3529 
Q 2884 3475 3122 3366 
z
" transform="scale(0.015625)"/>
       <path id="DejaVuSans-73" d="M 2834 3397 
L 2834 2853 
Q 2591 2978 2328 3040 
Q 2066 3103 1784 3103 
Q 1356 3103 1142 2972 
Q 928 2841 928 2578 
Q 928 2378 1081 2264 
Q 1234 2150 1697 2047 
L 1894 2003 
Q 2506 1872 2764 1633 
Q 3022 1394 3022 966 
Q 3022 478 2636 193 
Q 2250 -91 1575 -91 
Q 1294 -91 989 -36 
Q 684 19 347 128 
L 347 722 
Q 666 556 975 473 
Q 1284 391 1588 391 
Q 1994 391 2212 530 
Q 2431 669 2431 922 
Q 2431 1156 2273 1281 
Q 2116 1406 1581 1522 
L 1381 1569 
Q 847 1681 609 1914 
Q 372 2147 372 2553 
Q 372 3047 722 3315 
Q 1072 3584 1716 3584 
Q 2034 3584 2315 3537 
Q 2597 3491 2834 3397 
z
" transform="scale(0.015625)"/>
      </defs>
      <use xlink:href="#DejaVuSans-74"/>
      <use xlink:href="#DejaVuSans-72" transform="translate(39.208984 0)"/>
      <use xlink:href="#DejaVuSans-61" transform="translate(80.322266 0)"/>
      <use xlink:href="#DejaVuSans-69" transform="translate(141.601562 0)"/>
      <use xlink:href="#DejaVuSans-6e" transform="translate(169.384766 0)"/>
      <use xlink:href="#DejaVuSans-5f" transform="translate(232.763672 0)"/>
      <use xlink:href="#DejaVuSans-63" transform="translate(282.763672 0)"/>
      <use xlink:href="#DejaVuSans-6c" transform="translate(337.744141 0)"/>
      <use xlink:href="#DejaVuSans-61" transform="translate(365.527344 0)"/>
      <use xlink:href="#DejaVuSans-73" transform="translate(426.806641 0)"/>
      <use xlink:href="#DejaVuSans-73" transform="translate(478.90625 0)"/>
      <use xlink:href="#DejaVuSans-30" transform="translate(531.005859 0)"/>
     </g>
    </g>
    <g id="line2d_20">
     <path d="M 318.259063 248.135562 
L 328.259063 248.135562 
L 338.259063 248.135562 
" style="fill: none; stroke: #2ca02c; stroke-width: 1.5; stroke-linecap: square"/>
    </g>
    <g id="text_17">
     <!-- train_class1 -->
     <g transform="translate(346.259063 251.635562) scale(0.1 -0.1)">
      <use xlink:href="#DejaVuSans-74"/>
      <use xlink:href="#DejaVuSans-72" transform="translate(39.208984 0)"/>
      <use xlink:href="#DejaVuSans-61" transform="translate(80.322266 0)"/>
      <use xlink:href="#DejaVuSans-69" transform="translate(141.601562 0)"/>
      <use xlink:href="#DejaVuSans-6e" transform="translate(169.384766 0)"/>
      <use xlink:href="#DejaVuSans-5f" transform="translate(232.763672 0)"/>
      <use xlink:href="#DejaVuSans-63" transform="translate(282.763672 0)"/>
      <use xlink:href="#DejaVuSans-6c" transform="translate(337.744141 0)"/>
      <use xlink:href="#DejaVuSans-61" transform="translate(365.527344 0)"/>
      <use xlink:href="#DejaVuSans-73" transform="translate(426.806641 0)"/>
      <use xlink:href="#DejaVuSans-73" transform="translate(478.90625 0)"/>
      <use xlink:href="#DejaVuSans-31" transform="translate(531.005859 0)"/>
     </g>
    </g>
    <g id="line2d_21">
     <path d="M 318.259063 263.091812 
L 328.259063 263.091812 
L 338.259063 263.091812 
" style="fill: none; stroke: #d62728; stroke-width: 1.5; stroke-linecap: square"/>
    </g>
    <g id="text_18">
     <!-- test -->
     <g transform="translate(346.259063 266.591812) scale(0.1 -0.1)">
      <use xlink:href="#DejaVuSans-74"/>
      <use xlink:href="#DejaVuSans-65" transform="translate(39.208984 0)"/>
      <use xlink:href="#DejaVuSans-73" transform="translate(100.732422 0)"/>
      <use xlink:href="#DejaVuSans-74" transform="translate(152.832031 0)"/>
     </g>
    </g>
    <g id="line2d_22">
     <path d="M 318.259063 277.769937 
L 328.259063 277.769937 
L 338.259063 277.769937 
" style="fill: none; stroke: #9467bd; stroke-width: 1.5; stroke-linecap: square"/>
    </g>
    <g id="text_19">
     <!-- test_class0 -->
     <g transform="translate(346.259063 281.269937) scale(0.1 -0.1)">
      <use xlink:href="#DejaVuSans-74"/>
      <use xlink:href="#DejaVuSans-65" transform="translate(39.208984 0)"/>
      <use xlink:href="#DejaVuSans-73" transform="translate(100.732422 0)"/>
      <use xlink:href="#DejaVuSans-74" transform="translate(152.832031 0)"/>
      <use xlink:href="#DejaVuSans-5f" transform="translate(192.041016 0)"/>
      <use xlink:href="#DejaVuSans-63" transform="translate(242.041016 0)"/>
      <use xlink:href="#DejaVuSans-6c" transform="translate(297.021484 0)"/>
      <use xlink:href="#DejaVuSans-61" transform="translate(324.804688 0)"/>
      <use xlink:href="#DejaVuSans-73" transform="translate(386.083984 0)"/>
      <use xlink:href="#DejaVuSans-73" transform="translate(438.183594 0)"/>
      <use xlink:href="#DejaVuSans-30" transform="translate(490.283203 0)"/>
     </g>
    </g>
    <g id="line2d_23">
     <path d="M 318.259063 292.726187 
L 328.259063 292.726187 
L 338.259063 292.726187 
" style="fill: none; stroke: #8c564b; stroke-width: 1.5; stroke-linecap: square"/>
    </g>
    <g id="text_20">
     <!-- test_class1 -->
     <g transform="translate(346.259063 296.226187) scale(0.1 -0.1)">
      <use xlink:href="#DejaVuSans-74"/>
      <use xlink:href="#DejaVuSans-65" transform="translate(39.208984 0)"/>
      <use xlink:href="#DejaVuSans-73" transform="translate(100.732422 0)"/>
      <use xlink:href="#DejaVuSans-74" transform="translate(152.832031 0)"/>
      <use xlink:href="#DejaVuSans-5f" transform="translate(192.041016 0)"/>
      <use xlink:href="#DejaVuSans-63" transform="translate(242.041016 0)"/>
      <use xlink:href="#DejaVuSans-6c" transform="translate(297.021484 0)"/>
      <use xlink:href="#DejaVuSans-61" transform="translate(324.804688 0)"/>
      <use xlink:href="#DejaVuSans-73" transform="translate(386.083984 0)"/>
      <use xlink:href="#DejaVuSans-73" transform="translate(438.183594 0)"/>
      <use xlink:href="#DejaVuSans-31" transform="translate(490.283203 0)"/>
     </g>
    </g>
   </g>
   <g id="line2d_24">
    <path d="M 73.832727 230.647678 
L 74.914909 54.981073 
L 75.997091 55.293401 
L 77.079273 53.749629 
L 78.161455 53.568 
L 79.243636 57.745288 
L 80.325818 67.189621 
L 81.408 53.568 
L 83.572364 53.568 
L 84.654545 54.039044 
L 85.736727 53.568 
L 86.818909 59.597162 
L 87.901091 53.568 
L 88.983273 55.640537 
L 90.065455 74.38743 
L 91.147636 54.227435 
L 92.229818 53.568 
L 93.312 53.568 
L 94.394182 57.807248 
L 95.476364 53.568 
L 96.558545 62.132567 
L 97.640727 61.340213 
L 98.722909 53.568 
L 99.805091 54.329929 
L 100.887273 59.771134 
L 101.969455 59.092189 
L 103.051636 64.270093 
L 104.133818 60.445148 
L 105.216 61.740543 
L 106.298182 70.877624 
L 107.380364 66.047678 
L 109.544727 63.624487 
L 110.626909 76.970232 
L 111.709091 61.235181 
L 113.873455 95.503759 
L 114.955636 69.551025 
L 116.037818 68.603847 
L 117.12 64.043504 
L 118.202182 68.652398 
L 119.284364 79.884396 
L 120.366545 73.425271 
L 121.448727 62.472148 
L 122.530909 68.216726 
L 123.613091 72.298642 
L 124.695273 77.064435 
L 125.777455 65.203659 
L 126.859636 62.056317 
L 127.941818 87.603097 
L 129.024 65.455092 
L 130.106182 92.957669 
L 131.188364 76.599837 
L 132.270545 67.378012 
L 133.352727 83.257923 
L 134.434909 74.800089 
L 135.517091 69.836532 
L 136.599273 110.091519 
L 137.681455 64.847798 
L 138.763636 112.305094 
L 139.845818 77.193966 
L 140.928 61.669584 
L 142.010182 79.797648 
L 143.092364 65.833678 
L 144.174545 69.858075 
L 145.256727 85.518116 
L 146.338909 67.653267 
L 147.421091 79.420072 
L 148.503273 78.461589 
L 149.585455 83.72777 
L 150.667636 87.477215 
L 151.749818 68.461382 
L 152.832 88.815407 
L 153.914182 77.747302 
L 154.996364 91.236191 
L 156.078545 72.770652 
L 157.160727 67.614853 
L 158.242909 83.933854 
L 159.325091 72.698439 
L 160.407273 78.989316 
L 161.489455 93.958661 
L 162.571636 79.575558 
L 163.653818 75.69116 
L 164.736 75.141314 
L 165.818182 72.216768 
L 166.900364 82.104185 
L 167.982545 100.707734 
L 169.064727 90.28029 
L 170.146909 86.882249 
L 171.229091 85.513185 
L 172.311273 88.163095 
L 173.393455 97.757839 
L 174.475636 79.592645 
L 175.557818 67.452994 
L 176.64 91.816102 
L 177.722182 73.002677 
L 178.804364 60.127067 
L 179.886545 112.39748 
L 180.968727 78.497047 
L 182.050909 76.777991 
L 183.133091 118.531977 
L 184.215273 59.039688 
L 185.297455 100.459861 
L 186.379636 101.011179 
L 187.461818 113.864165 
L 188.544 98.001414 
L 190.708364 138.304158 
L 191.790545 98.912254 
L 192.872727 154.586144 
L 193.954909 109.427282 
L 195.037091 131.949244 
L 196.119273 83.818079 
L 197.201455 119.493704 
L 198.283636 122.232021 
L 199.365818 90.685263 
L 200.448 112.576124 
L 201.530182 100.609883 
L 202.612364 122.551976 
L 203.694545 125.088823 
L 204.776727 120.940894 
L 205.858909 135.161964 
L 206.941091 130.029035 
L 208.023273 102.926197 
L 209.105455 145.867186 
L 210.187636 130.875347 
L 211.269818 148.514357 
L 212.352 107.918824 
L 213.434182 142.298866 
L 214.516364 144.160733 
L 215.598545 109.426691 
L 216.680727 151.649832 
L 217.762909 95.029197 
L 218.845091 122.872004 
L 219.927273 146.106782 
L 221.009455 122.181783 
L 222.091636 128.477822 
L 223.173818 140.037475 
L 224.256 99.279203 
L 225.338182 142.276241 
L 226.420364 150.474061 
L 227.502545 116.04495 
L 228.584727 101.15523 
L 229.666909 125.079926 
L 230.749091 137.627016 
L 231.831273 111.118451 
L 232.913455 159.072356 
L 233.995636 120.508711 
L 235.077818 147.164182 
L 236.16 151.869312 
L 237.242182 132.200606 
L 238.324364 142.817782 
L 239.406545 162.109518 
L 240.488727 114.585777 
L 241.570909 139.665278 
L 242.653091 82.90783 
L 243.735273 114.953606 
L 244.817455 142.734783 
L 245.899636 124.389345 
L 246.981818 140.133913 
L 248.064 135.560737 
L 249.146182 142.749015 
L 250.228364 135.66264 
L 251.310545 133.727651 
L 252.392727 110.269312 
L 253.474909 161.109565 
L 254.557091 121.61844 
L 255.639273 120.035461 
L 256.721455 130.551369 
L 257.803636 112.451755 
L 258.885818 122.704189 
L 259.968 138.330474 
L 261.050182 115.875419 
L 262.132364 102.120244 
L 264.296727 178.634985 
L 266.461091 120.528494 
L 267.543273 134.618751 
L 268.625455 88.659142 
L 269.707636 128.003131 
L 270.789818 147.254824 
L 271.872 125.155542 
L 272.954182 137.686381 
L 274.036364 130.093231 
L 275.118545 127.340004 
L 276.200727 157.042054 
L 277.282909 135.265208 
L 278.365091 116.557753 
L 279.447273 127.178952 
L 280.529455 116.349073 
L 281.611636 114.12862 
L 282.693818 120.583404 
L 283.776 148.118627 
L 284.858182 128.582148 
L 285.940364 131.473918 
L 287.022545 118.131402 
L 288.104727 121.262868 
L 289.186909 140.077028 
L 290.269091 125.746643 
L 291.351273 114.494891 
L 292.433455 117.246777 
L 293.515636 133.888862 
L 294.597818 129.768546 
L 295.68 124.168625 
L 296.762182 129.558828 
L 297.844364 142.641806 
L 298.926545 115.076864 
L 300.008727 124.557419 
L 301.090909 119.235349 
L 302.173091 120.983013 
L 303.255273 127.664401 
L 304.337455 116.24531 
L 305.419636 126.313606 
L 306.501818 118.955725 
L 307.584 118.952134 
L 308.666182 125.666975 
L 309.748364 125.89515 
L 310.830545 114.116219 
L 311.912727 124.1429 
L 312.994909 124.748291 
L 314.077091 122.450664 
L 315.159273 117.339018 
L 316.241455 135.686951 
L 317.323636 111.984547 
L 318.405818 117.750726 
L 319.488 131.320133 
L 320.570182 114.659807 
L 321.652364 123.518952 
L 322.734545 117.11677 
L 324.898909 120.820678 
L 325.981091 125.06121 
L 327.063273 115.716458 
L 329.227636 122.691139 
L 330.309818 125.794704 
L 331.392 126.064681 
L 332.474182 128.47801 
L 333.556364 126.85134 
L 334.638545 129.266111 
L 335.720727 123.205514 
L 336.802909 130.08941 
L 337.885091 124.544283 
L 338.967273 125.640559 
L 340.049455 128.409531 
L 341.131636 127.113978 
L 342.213818 127.797061 
L 343.296 120.328423 
L 344.378182 126.082403 
L 345.460364 125.208116 
L 346.542545 127.887039 
L 347.624727 127.653528 
L 348.706909 128.185697 
L 349.789091 125.910565 
L 350.871273 128.152633 
L 351.953455 127.110272 
L 353.035636 125.75404 
L 354.117818 127.291381 
L 355.2 125.019883 
L 356.282182 125.945446 
L 357.364364 125.313292 
L 358.446545 125.285924 
L 359.528727 126.113246 
L 360.610909 126.013967 
L 361.693091 123.671424 
L 362.775273 127.158678 
L 363.857455 124.527052 
L 364.939636 123.638749 
L 366.021818 124.550209 
L 367.104 123.602931 
L 368.186182 123.431137 
L 369.268364 124.166318 
L 370.350545 123.595837 
L 371.432727 122.283801 
L 372.514909 123.641345 
L 373.597091 123.147792 
L 374.679273 125.04059 
L 375.761455 123.11033 
L 376.843636 123.676226 
L 377.925818 124.590584 
L 379.008 124.13246 
L 380.090182 124.219482 
L 381.172364 124.000363 
L 382.254545 124.543865 
L 383.336727 124.555011 
L 384.418909 123.553414 
L 385.501091 123.459197 
L 386.583273 122.406425 
L 387.665455 124.585696 
L 388.747636 125.208621 
L 389.829818 124.273239 
L 390.912 124.820864 
L 391.994182 125.078499 
L 393.076364 124.657231 
L 394.158545 124.844282 
L 395.240727 124.134926 
L 396.322909 124.931592 
L 397.405091 124.582048 
L 398.487273 124.479265 
L 398.487273 124.479265 
" clip-path="url(#p12ef6dae01)" style="fill: none; stroke: #9467bd; stroke-width: 1.5; stroke-linecap: square"/>
   </g>
   <g id="line2d_25">
    <path d="M 73.832727 132.647266 
L 74.914909 295.019163 
L 75.997091 295.488 
L 79.243636 295.488 
L 80.325818 293.937231 
L 81.408 295.488 
L 85.736727 295.488 
L 86.818909 294.081488 
L 87.901091 295.488 
L 88.983273 295.488 
L 90.065455 277.437768 
L 91.147636 295.488 
L 92.229818 295.488 
L 93.312 295.283848 
L 94.394182 294.712935 
L 95.476364 295.488 
L 96.558545 291.861032 
L 97.640727 292.989023 
L 98.722909 295.488 
L 99.805091 294.671392 
L 100.887273 294.845278 
L 101.969455 294.478516 
L 103.051636 291.971721 
L 104.133818 293.150675 
L 105.216 292.405022 
L 106.298182 280.079358 
L 107.380364 288.91131 
L 108.462545 292.115513 
L 109.544727 292.636156 
L 110.626909 286.477221 
L 111.709091 291.545663 
L 112.791273 274.86953 
L 113.873455 266.273497 
L 114.955636 289.257386 
L 116.037818 287.165509 
L 117.12 293.86069 
L 118.202182 290.901617 
L 119.284364 283.183447 
L 120.366545 283.488099 
L 121.448727 293.934571 
L 122.530909 287.205868 
L 123.613091 287.914588 
L 124.695273 282.249684 
L 125.777455 290.238298 
L 126.859636 294.032913 
L 127.941818 272.251939 
L 129.024 285.083603 
L 130.106182 266.984684 
L 131.188364 284.615101 
L 132.270545 288.83703 
L 133.352727 273.549446 
L 134.434909 280.370696 
L 135.517091 289.111252 
L 136.599273 240.947246 
L 137.681455 291.975243 
L 138.763636 250.700125 
L 139.845818 272.976447 
L 140.928 289.463994 
L 142.010182 280.448413 
L 143.092364 290.903896 
L 144.174545 284.905711 
L 145.256727 262.447982 
L 146.338909 289.372018 
L 147.421091 281.67652 
L 148.503273 279.970707 
L 149.585455 279.085058 
L 150.667636 273.721358 
L 151.749818 290.038924 
L 152.832 260.77319 
L 153.914182 274.962752 
L 154.996364 270.065828 
L 156.078545 286.785055 
L 157.160727 289.344052 
L 158.242909 273.986263 
L 159.325091 280.300662 
L 160.407273 281.921458 
L 161.489455 271.884327 
L 162.571636 269.59477 
L 163.653818 280.937183 
L 164.736 276.729202 
L 165.818182 279.131301 
L 166.900364 271.094659 
L 167.982545 259.988388 
L 169.064727 271.669639 
L 170.146909 267.618306 
L 171.229091 269.139829 
L 172.311273 269.715277 
L 173.393455 255.752445 
L 175.557818 281.626563 
L 176.64 272.338377 
L 177.722182 284.535083 
L 178.804364 287.569273 
L 179.886545 234.902124 
L 180.968727 269.272354 
L 182.050909 264.858218 
L 183.133091 224.581738 
L 184.215273 285.891406 
L 185.297455 213.90723 
L 186.379636 234.906616 
L 187.461818 228.567383 
L 188.544 240.142198 
L 189.626182 214.088087 
L 190.708364 192.524117 
L 191.790545 234.185314 
L 192.872727 178.137532 
L 193.954909 221.783573 
L 195.037091 201.304416 
L 196.119273 273.154197 
L 197.201455 211.472956 
L 198.283636 175.070183 
L 199.365818 248.135088 
L 200.448 202.882131 
L 201.530182 223.460445 
L 202.612364 210.14578 
L 203.694545 178.288245 
L 204.776727 200.511946 
L 205.858909 188.993403 
L 206.941091 195.577725 
L 208.023273 228.529604 
L 209.105455 180.114741 
L 210.187636 198.171479 
L 211.269818 182.701199 
L 212.352 214.094316 
L 213.434182 178.574351 
L 214.516364 175.614946 
L 215.598545 196.951354 
L 216.680727 151.166085 
L 217.762909 241.795728 
L 218.845091 194.555602 
L 219.927273 178.028636 
L 221.009455 185.588052 
L 222.091636 194.149035 
L 223.173818 157.457366 
L 224.256 233.712078 
L 225.338182 171.076665 
L 226.420364 160.583064 
L 228.584727 221.735145 
L 229.666909 195.766189 
L 230.749091 178.740269 
L 231.831273 224.479064 
L 232.913455 157.041563 
L 233.995636 186.230248 
L 235.077818 205.272771 
L 236.16 166.152372 
L 237.242182 184.639389 
L 238.324364 177.743121 
L 239.406545 150.89889 
L 240.488727 198.916544 
L 241.570909 171.932696 
L 242.653091 231.287041 
L 243.735273 199.987852 
L 244.817455 176.448742 
L 245.899636 202.317195 
L 246.981818 159.137648 
L 248.064 190.364948 
L 249.146182 176.600436 
L 250.228364 161.030878 
L 251.310545 184.599259 
L 252.392727 202.7364 
L 253.474909 149.131356 
L 254.557091 183.242026 
L 255.639273 185.220194 
L 256.721455 165.538157 
L 257.803636 208.76929 
L 259.968 166.802218 
L 261.050182 200.399646 
L 262.132364 216.260256 
L 264.296727 137.092296 
L 266.461091 195.633002 
L 267.543273 181.78077 
L 268.625455 214.998365 
L 270.789818 165.172016 
L 271.872 181.494664 
L 272.954182 167.245822 
L 274.036364 185.037585 
L 275.118545 175.858903 
L 276.200727 158.978917 
L 277.282909 163.947781 
L 278.365091 210.767984 
L 279.447273 180.200112 
L 280.529455 202.156525 
L 281.611636 206.057231 
L 282.693818 188.496274 
L 283.776 158.600837 
L 284.858182 186.849979 
L 285.940364 181.439661 
L 287.022545 192.285308 
L 288.104727 198.035192 
L 289.186909 168.388413 
L 290.269091 180.034547 
L 291.351273 200.099179 
L 292.433455 193.236069 
L 293.515636 173.527888 
L 294.597818 170.42989 
L 295.68 191.741056 
L 296.762182 173.513238 
L 297.844364 165.532057 
L 298.926545 198.01605 
L 300.008727 176.375037 
L 301.090909 192.413938 
L 302.173091 189.689925 
L 303.255273 180.849476 
L 304.337455 210.755115 
L 305.419636 185.987214 
L 306.501818 195.000748 
L 307.584 185.631548 
L 308.666182 190.243073 
L 309.748364 171.835134 
L 310.830545 202.167541 
L 311.912727 180.694876 
L 312.994909 177.544766 
L 314.077091 189.529644 
L 315.159273 197.28699 
L 316.241455 177.21339 
L 317.323636 195.754184 
L 318.405818 194.457664 
L 319.488 178.372434 
L 320.570182 192.862256 
L 321.652364 188.040047 
L 322.734545 184.885372 
L 323.816727 187.997595 
L 324.898909 184.128793 
L 325.981091 178.196566 
L 327.063273 190.584514 
L 328.145455 195.775677 
L 329.227636 189.779333 
L 330.309818 184.7852 
L 331.392 183.107946 
L 332.474182 179.748023 
L 333.556364 182.097575 
L 334.638545 186.509086 
L 335.720727 183.809428 
L 336.802909 178.249803 
L 337.885091 184.507883 
L 338.967273 183.606545 
L 340.049455 183.422674 
L 341.131636 179.259345 
L 342.213818 180.626412 
L 343.296 189.080713 
L 344.378182 182.297942 
L 345.460364 181.891433 
L 346.542545 180.727796 
L 347.624727 186.45303 
L 348.706909 184.423802 
L 349.789091 185.303503 
L 350.871273 182.577436 
L 351.953455 181.627706 
L 353.035636 183.73883 
L 354.117818 180.335901 
L 355.2 186.457471 
L 356.282182 184.943072 
L 357.364364 186.361358 
L 358.446545 187.577871 
L 359.528727 185.835794 
L 360.610909 186.717045 
L 361.693091 186.826151 
L 362.775273 186.087357 
L 363.857455 186.988681 
L 364.939636 187.241463 
L 366.021818 185.746782 
L 367.104 187.926615 
L 369.268364 185.55604 
L 371.432727 186.552006 
L 372.514909 183.971136 
L 373.597091 185.662601 
L 374.679273 183.770438 
L 375.761455 186.812704 
L 377.925818 185.347627 
L 379.008 185.941799 
L 381.172364 184.965192 
L 382.254545 185.633459 
L 383.336727 185.867625 
L 384.418909 185.857214 
L 385.501091 186.584998 
L 386.583273 188.82416 
L 387.665455 186.971666 
L 388.747636 185.727373 
L 389.829818 186.770549 
L 390.912 186.151871 
L 391.994182 186.080919 
L 393.076364 186.82517 
L 394.158545 186.539007 
L 395.240727 187.25005 
L 396.322909 186.611609 
L 397.405091 186.305756 
L 398.487273 187.34643 
L 398.487273 187.34643 
" clip-path="url(#p12ef6dae01)" style="fill: none; stroke: #8c564b; stroke-width: 1.5; stroke-linecap: square"/>
   </g>
  </g>
 </g>
 <defs>
  <clipPath id="p12ef6dae01">
   <rect x="57.6" y="41.472" width="357.12" height="266.112"/>
  </clipPath>
 </defs>
</svg>
