<?xml version="1.0" encoding="utf-8" standalone="no"?>
<!DOCTYPE svg PUBLIC "-//W3C//DTD SVG 1.1//EN"
  "http://www.w3.org/Graphics/SVG/1.1/DTD/svg11.dtd">
<svg xmlns:xlink="http://www.w3.org/1999/xlink" width="460.8pt" height="345.6pt" viewBox="0 0 460.8 345.6" xmlns="http://www.w3.org/2000/svg" version="1.1">
 <metadata>
  <rdf:RDF xmlns:dc="http://purl.org/dc/elements/1.1/" xmlns:cc="http://creativecommons.org/ns#" xmlns:rdf="http://www.w3.org/1999/02/22-rdf-syntax-ns#">
   <cc:Work>
    <dc:type rdf:resource="http://purl.org/dc/dcmitype/StillImage"/>
    <dc:date>2026-03-18T19:08:48.474590</dc:date>
    <dc:format>image/svg+xml</dc:format>
    <dc:creator>
     <cc:Agent>
      <dc:title>Matplotlib v3.10.8, https://matplotlib.org/</dc:title>
     </cc:Agent>
    </dc:creator>
   </cc:Work>
  </rdf:RDF>
 </metadata>
 <defs>
  <style type="text/css">*{stroke-linejoin: round; stroke-linecap: butt}</style>
 </defs>
 <g id="figure_1">
  <g id="patch_1">
   <path d="M 0 345.6 
L 460.8 345.6 
L 460.8 0 
L 0 0 
z
" style="fill: #ffffff"/>
  </g>
  <g id="axes_1">
   <g id="patch_2">
    <path d="M 57.6 307.584 
L 414.72 307.584 
L 414.72 41.472 
L 57.6 41.472 
z
" style="fill: #ffffff"/>
   </g>
   <g id="matplotlib.axis_1">
    <g id="xtick_1">
     <g id="line2d_1">
      <defs>
       <path id="m8e4883e1d3" d="M 0 0 
L 0 3.5 
" style="stroke: #000000; stroke-width: 0.8"/>
      </defs>
      <g>
       <use xlink:href="#m8e4883e1d3" x="73.832727" y="307.584" style="stroke: #000000; stroke-width: 0.8"/>
      </g>
     </g>
     <g id="text_1">
      <!-- 0 -->
      <g transform="translate(70.651477 322.182437) scale(0.1 -0.1)">
       <defs>
        <path id="DejaVuSans-30" d="M 2034 4250 
Q 1547 4250 1301 3770 
Q 1056 3291 1056 2328 
Q 1056 1369 1301 889 
Q 1547 409 2034 409 
Q 2525 409 2770 889 
Q 3016 1369 3016 2328 
Q 3016 3291 2770 3770 
Q 2525 4250 2034 4250 
z
M 2034 4750 
Q 2819 4750 3233 4129 
Q 3647 3509 3647 2328 
Q 3647 1150 3233 529 
Q 2819 -91 2034 -91 
Q 1250 -91 836 529 
Q 422 1150 422 2328 
Q 422 3509 836 4129 
Q 1250 4750 2034 4750 
z
" transform="scale(0.015625)"/>
       </defs>
       <use xlink:href="#DejaVuSans-30"/>
      </g>
     </g>
    </g>
    <g id="xtick_2">
     <g id="line2d_2">
      <g>
       <use xlink:href="#m8e4883e1d3" x="138.763636" y="307.584" style="stroke: #000000; stroke-width: 0.8"/>
      </g>
     </g>
     <g id="text_2">
      <!-- 20 -->
      <g transform="translate(132.401136 322.182437) scale(0.1 -0.1)">
       <defs>
        <path id="DejaVuSans-32" d="M 1228 531 
L 3431 531 
L 3431 0 
L 469 0 
L 469 531 
Q 828 903 1448 1529 
Q 2069 2156 2228 2338 
Q 2531 2678 2651 2914 
Q 2772 3150 2772 3378 
Q 2772 3750 2511 3984 
Q 2250 4219 1831 4219 
Q 1534 4219 1204 4116 
Q 875 4013 500 3803 
L 500 4441 
Q 881 4594 1212 4672 
Q 1544 4750 1819 4750 
Q 2544 4750 2975 4387 
Q 3406 4025 3406 3419 
Q 3406 3131 3298 2873 
Q 3191 2616 2906 2266 
Q 2828 2175 2409 1742 
Q 1991 1309 1228 531 
z
" transform="scale(0.015625)"/>
       </defs>
       <use xlink:href="#DejaVuSans-32"/>
       <use xlink:href="#DejaVuSans-30" transform="translate(63.623047 0)"/>
      </g>
     </g>
    </g>
    <g id="xtick_3">
     <g id="line2d_3">
      <g>
       <use xlink:href="#m8e4883e1d3" x="203.694545" y="307.584" style="stroke: #000000; stroke-width: 0.8"/>
      </g>
     </g>
     <g id="text_3">
      <!-- 40 -->
      <g transform="translate(197.332045 322.182437) scale(0.1 -0.1)">
       <defs>
        <path id="DejaVuSans-34" d="M 2419 4116 
L 825 1625 
L 2419 1625 
L 2419 4116 
z
M 2253 4666 
L 3047 4666 
L 3047 1625 
L 3713 1625 
L 3713 1100 
L 3047 1100 
L 3047 0 
L 2419 0 
L 2419 1100 
L 313 1100 
L 313 1709 
L 2253 4666 
z
" transform="scale(0.015625)"/>
       </defs>
       <use xlink:href="#DejaVuSans-34"/>
       <use xlink:href="#DejaVuSans-30" transform="translate(63.623047 0)"/>
      </g>
     </g>
    </g>
    <g id="xtick_4">
     <g id="line2d_4">
      <g>
       <use xlink:href="#m8e4883e1d3" x="268.625455" y="307.584" style="stroke: #000000; stroke-width: 0.8"/>
      </g>
     </g>
     <g id="text_4">
      <!-- 60 -->
      <g transform="translate(262.262955 322.182437) scale(0.1 -0.1)">
       <defs>
        <path id="DejaVuSans-36" d="M 2113 2584 
Q 1688 2584 1439 2293 
Q 1191 2003 1191 1497 
Q 1191 994 1439 701 
Q 1688 409 2113 409 
Q 2538 409 2786 701 
Q 3034 994 3034 1497 
Q 3034 2003 2786 2293 
Q 2538 2584 2113 2584 
z
M 3366 4563 
L 3366 3988 
Q 3128 4100 2886 4159 
Q 2644 4219 2406 4219 
Q 1781 4219 1451 3797 
Q 1122 3375 1075 2522 
Q 1259 2794 1537 2939 
Q 1816 3084 2150 3084 
Q 2853 3084 3261 2657 
Q 3669 2231 3669 1497 
Q 3669 778 3244 343 
Q 2819 -91 2113 -91 
Q 1303 -91 875 529 
Q 447 1150 447 2328 
Q 447 3434 972 4092 
Q 1497 4750 2381 4750 
Q 2619 4750 2861 4703 
Q 3103 4656 3366 4563 
z
" transform="scale(0.015625)"/>
       </defs>
       <use xlink:href="#DejaVuSans-36"/>
       <use xlink:href="#DejaVuSans-30" transform="translate(63.623047 0)"/>
      </g>
     </g>
    </g>
    <g id="xtick_5">
     <g id="line2d_5">
      <g>
       <use xlink:href="#m8e4883e1d3" x="333.556364" y="307.584" style="stroke: #000000; stroke-width: 0.8"/>
      </g>
     </g>
     <g id="text_5">
      <!-- 80 -->
      <g transform="translate(327.193864 322.182437) scale(0.1 -0.1)">
       <defs>
        <path id="DejaVuSans-38" d="M 2034 2216 
Q 1584 2216 1326 1975 
Q 1069 1734 1069 1313 
Q 1069 891 1326 650 
Q 1584 409 2034 409 
Q 2484 409 2743 651 
Q 3003 894 3003 1313 
Q 3003 1734 2745 1975 
Q 2488 2216 2034 2216 
z
M 1403 2484 
Q 997 2584 770 2862 
Q 544 3141 544 3541 
Q 544 4100 942 4425 
Q 1341 4750 2034 4750 
Q 2731 4750 3128 4425 
Q 3525 4100 3525 3541 
Q 3525 3141 3298 2862 
Q 3072 2584 2669 2484 
Q 3125 2378 3379 2068 
Q 3634 1759 3634 1313 
Q 3634 634 3220 271 
Q 2806 -91 2034 -91 
Q 1263 -91 848 271 
Q 434 634 434 1313 
Q 434 1759 690 2068 
Q 947 2378 1403 2484 
z
M 1172 3481 
Q 1172 3119 1398 2916 
Q 1625 2713 2034 2713 
Q 2441 2713 2670 2916 
Q 2900 3119 2900 3481 
Q 2900 3844 2670 4047 
Q 2441 4250 2034 4250 
Q 1625 4250 1398 4047 
Q 1172 3844 1172 3481 
z
" transform="scale(0.015625)"/>
       </defs>
       <use xlink:href="#DejaVuSans-38"/>
       <use xlink:href="#DejaVuSans-30" transform="translate(63.623047 0)"/>
      </g>
     </g>
    </g>
    <g id="xtick_6">
     <g id="line2d_6">
      <g>
       <use xlink:href="#m8e4883e1d3" x="398.487273" y="307.584" style="stroke: #000000; stroke-width: 0.8"/>
      </g>
     </g>
     <g id="text_6">
      <!-- 100 -->
      <g transform="translate(388.943523 322.182437) scale(0.1 -0.1)">
       <defs>
        <path id="DejaVuSans-31" d="M 794 531 
L 1825 531 
L 1825 4091 
L 703 3866 
L 703 4441 
L 1819 4666 
L 2450 4666 
L 2450 531 
L 3481 531 
L 3481 0 
L 794 0 
L 794 531 
z
" transform="scale(0.015625)"/>
       </defs>
       <use xlink:href="#DejaVuSans-31"/>
       <use xlink:href="#DejaVuSans-30" transform="translate(63.623047 0)"/>
       <use xlink:href="#DejaVuSans-30" transform="translate(127.246094 0)"/>
      </g>
     </g>
    </g>
   </g>
   <g id="matplotlib.axis_2">
    <g id="ytick_1">
     <g id="line2d_7">
      <defs>
       <path id="m197744ccf0" d="M 0 0 
L -3.5 0 
" style="stroke: #000000; stroke-width: 0.8"/>
      </defs>
      <g>
       <use xlink:href="#m197744ccf0" x="57.6" y="295.488" style="stroke: #000000; stroke-width: 0.8"/>
      </g>
     </g>
     <g id="text_7">
      <!-- 0.0 -->
      <g transform="translate(34.696875 299.287219) scale(0.1 -0.1)">
       <defs>
        <path id="DejaVuSans-2e" d="M 684 794 
L 1344 794 
L 1344 0 
L 684 0 
L 684 794 
z
" transform="scale(0.015625)"/>
       </defs>
       <use xlink:href="#DejaVuSans-30"/>
       <use xlink:href="#DejaVuSans-2e" transform="translate(63.623047 0)"/>
       <use xlink:href="#DejaVuSans-30" transform="translate(95.410156 0)"/>
      </g>
     </g>
    </g>
    <g id="ytick_2">
     <g id="line2d_8">
      <g>
       <use xlink:href="#m197744ccf0" x="57.6" y="247.104" style="stroke: #000000; stroke-width: 0.8"/>
      </g>
     </g>
     <g id="text_8">
      <!-- 0.2 -->
      <g transform="translate(34.696875 250.903219) scale(0.1 -0.1)">
       <use xlink:href="#DejaVuSans-30"/>
       <use xlink:href="#DejaVuSans-2e" transform="translate(63.623047 0)"/>
       <use xlink:href="#DejaVuSans-32" transform="translate(95.410156 0)"/>
      </g>
     </g>
    </g>
    <g id="ytick_3">
     <g id="line2d_9">
      <g>
       <use xlink:href="#m197744ccf0" x="57.6" y="198.72" style="stroke: #000000; stroke-width: 0.8"/>
      </g>
     </g>
     <g id="text_9">
      <!-- 0.4 -->
      <g transform="translate(34.696875 202.519219) scale(0.1 -0.1)">
       <use xlink:href="#DejaVuSans-30"/>
       <use xlink:href="#DejaVuSans-2e" transform="translate(63.623047 0)"/>
       <use xlink:href="#DejaVuSans-34" transform="translate(95.410156 0)"/>
      </g>
     </g>
    </g>
    <g id="ytick_4">
     <g id="line2d_10">
      <g>
       <use xlink:href="#m197744ccf0" x="57.6" y="150.336" style="stroke: #000000; stroke-width: 0.8"/>
      </g>
     </g>
     <g id="text_10">
      <!-- 0.6 -->
      <g transform="translate(34.696875 154.135219) scale(0.1 -0.1)">
       <use xlink:href="#DejaVuSans-30"/>
       <use xlink:href="#DejaVuSans-2e" transform="translate(63.623047 0)"/>
       <use xlink:href="#DejaVuSans-36" transform="translate(95.410156 0)"/>
      </g>
     </g>
    </g>
    <g id="ytick_5">
     <g id="line2d_11">
      <g>
       <use xlink:href="#m197744ccf0" x="57.6" y="101.952" style="stroke: #000000; stroke-width: 0.8"/>
      </g>
     </g>
     <g id="text_11">
      <!-- 0.8 -->
      <g transform="translate(34.696875 105.751219) scale(0.1 -0.1)">
       <use xlink:href="#DejaVuSans-30"/>
       <use xlink:href="#DejaVuSans-2e" transform="translate(63.623047 0)"/>
       <use xlink:href="#DejaVuSans-38" transform="translate(95.410156 0)"/>
      </g>
     </g>
    </g>
    <g id="ytick_6">
     <g id="line2d_12">
      <g>
       <use xlink:href="#m197744ccf0" x="57.6" y="53.568" style="stroke: #000000; stroke-width: 0.8"/>
      </g>
     </g>
     <g id="text_12">
      <!-- 1.0 -->
      <g transform="translate(34.696875 57.367219) scale(0.1 -0.1)">
       <use xlink:href="#DejaVuSans-31"/>
       <use xlink:href="#DejaVuSans-2e" transform="translate(63.623047 0)"/>
       <use xlink:href="#DejaVuSans-30" transform="translate(95.410156 0)"/>
      </g>
     </g>
    </g>
   </g>
   <g id="line2d_13">
    <path d="M 73.832727 179.151364 
L 77.079273 155.913608 
L 80.325818 151.787524 
L 83.572364 144.82559 
L 86.818909 147.338875 
L 90.065455 145.887359 
L 93.312 148.60223 
L 96.558545 147.217924 
L 99.805091 144.798726 
L 103.051636 142.191353 
L 106.298182 145.336316 
L 109.544727 138.912 
L 112.791273 138.602874 
L 116.037818 139.678082 
L 119.284364 147.231363 
L 122.530909 147.47328 
L 125.777455 146.008325 
L 129.024 142.984314 
L 132.270545 140.941437 
L 135.517091 139.758717 
L 138.763636 143.925117 
L 142.010182 146.465281 
L 145.256727 145.02719 
L 148.503273 143.602566 
L 151.749818 141.196808 
L 154.996364 144.892799 
L 158.242909 146.760968 
L 161.489455 144.435844 
L 164.736 146.196471 
L 167.982545 143.078401 
L 171.229091 146.142715 
L 174.475636 146.330876 
L 177.722182 146.330876 
L 180.968727 146.330876 
L 184.215273 146.330876 
L 187.461818 146.330876 
L 190.708364 146.330876 
L 193.954909 146.330876 
L 197.201455 146.330876 
L 200.448 146.330876 
L 203.694545 146.330876 
L 206.941091 146.330876 
L 210.187636 146.330876 
L 213.434182 146.330876 
L 216.680727 146.330876 
L 219.927273 146.330876 
L 223.173818 146.330876 
L 226.420364 146.330876 
L 229.666909 146.330876 
L 232.913455 146.330876 
L 236.16 146.330876 
L 239.406545 146.330876 
L 242.653091 146.330876 
L 245.899636 146.330876 
L 249.146182 146.330876 
L 252.392727 146.330876 
L 255.639273 146.330876 
L 258.885818 146.330876 
L 262.132364 146.330876 
L 265.378909 146.330876 
L 268.625455 146.330876 
L 271.872 146.330876 
L 275.118545 146.330876 
L 278.365091 146.330876 
L 281.611636 146.330876 
L 284.858182 146.330876 
L 288.104727 146.330876 
L 291.351273 146.330876 
L 294.597818 146.330876 
L 297.844364 146.330876 
L 301.090909 146.330876 
L 304.337455 146.330876 
L 307.584 146.330876 
L 310.830545 146.330876 
L 314.077091 146.330876 
L 317.323636 146.330876 
L 320.570182 146.330876 
L 323.816727 146.330876 
L 327.063273 146.330876 
L 330.309818 146.330876 
L 333.556364 146.330876 
L 336.802909 146.330876 
L 340.049455 146.330876 
L 343.296 146.330876 
L 346.542545 146.330876 
L 349.789091 146.330876 
L 353.035636 146.330876 
L 356.282182 146.330876 
L 359.528727 146.330876 
L 362.775273 146.330876 
L 366.021818 146.330876 
L 369.268364 146.330876 
L 372.514909 146.330876 
L 375.761455 146.330876 
L 379.008 146.330876 
L 382.254545 146.330876 
L 385.501091 146.330876 
L 388.747636 146.330876 
L 391.994182 146.330876 
L 395.240727 146.330876 
L 398.487273 146.330876 
" clip-path="url(#p8392442f7a)" style="fill: none; stroke: #1f77b4; stroke-width: 1.5; stroke-linecap: square"/>
   </g>
   <g id="line2d_14">
    <path d="M 73.832727 211.730511 
L 77.079273 108.109162 
L 80.325818 81.312047 
L 83.572364 61.33257 
L 86.818909 60.924468 
L 90.065455 58.633835 
L 93.312 63.467645 
L 96.558545 57.562952 
L 99.805091 57.637386 
L 103.051636 66.160886 
L 106.298182 72.038312 
L 109.544727 69.692481 
L 112.791273 72.386789 
L 116.037818 71.012966 
L 119.284364 70.652592 
L 122.530909 62.400771 
L 125.777455 53.657935 
L 129.024 55.479442 
L 132.270545 59.459715 
L 135.517091 59.864486 
L 138.763636 64.406949 
L 142.010182 64.699277 
L 145.256727 60.381701 
L 148.503273 60.201803 
L 151.749818 60.808967 
L 154.996364 59.752043 
L 158.242909 57.795641 
L 161.489455 54.984707 
L 164.736 58.200412 
L 167.982545 58.200412 
L 171.229091 53.635469 
L 174.475636 53.568 
L 177.722182 53.568 
L 180.968727 53.568 
L 184.215273 53.568 
L 187.461818 53.568 
L 190.708364 53.568 
L 193.954909 53.568 
L 197.201455 53.568 
L 200.448 53.568 
L 203.694545 53.568 
L 206.941091 53.568 
L 210.187636 53.568 
L 213.434182 53.568 
L 216.680727 53.568 
L 219.927273 53.568 
L 223.173818 53.568 
L 226.420364 53.568 
L 229.666909 53.568 
L 232.913455 53.568 
L 236.16 53.568 
L 239.406545 53.568 
L 242.653091 53.568 
L 245.899636 53.568 
L 249.146182 53.568 
L 252.392727 53.568 
L 255.639273 53.568 
L 258.885818 53.568 
L 262.132364 53.568 
L 265.378909 53.568 
L 268.625455 53.568 
L 271.872 53.568 
L 275.118545 53.568 
L 278.365091 53.568 
L 281.611636 53.568 
L 284.858182 53.568 
L 288.104727 53.568 
L 291.351273 53.568 
L 294.597818 53.568 
L 297.844364 53.568 
L 301.090909 53.568 
L 304.337455 53.568 
L 307.584 53.568 
L 310.830545 53.568 
L 314.077091 53.568 
L 317.323636 53.568 
L 320.570182 53.568 
L 323.816727 53.568 
L 327.063273 53.568 
L 330.309818 53.568 
L 333.556364 53.568 
L 336.802909 53.568 
L 340.049455 53.568 
L 343.296 53.568 
L 346.542545 53.568 
L 349.789091 53.568 
L 353.035636 53.568 
L 356.282182 53.568 
L 359.528727 53.568 
L 362.775273 53.568 
L 366.021818 53.568 
L 369.268364 53.568 
L 372.514909 53.568 
L 375.761455 53.568 
L 379.008 53.568 
L 382.254545 53.568 
L 385.501091 53.568 
L 388.747636 53.568 
L 391.994182 53.568 
L 395.240727 53.568 
L 398.487273 53.568 
" clip-path="url(#p8392442f7a)" style="fill: none; stroke: #ff7f0e; stroke-width: 1.5; stroke-linecap: square"/>
   </g>
   <g id="line2d_15">
    <path d="M 73.832727 137.719186 
L 77.079273 235.466008 
L 80.325818 265.242384 
L 83.572364 279.406915 
L 86.818909 285.598998 
L 90.065455 284.832796 
L 93.312 282.224842 
L 96.558545 291.057833 
L 99.805091 285.481392 
L 103.051636 265.526788 
L 106.298182 264.60815 
L 109.544727 252.664591 
L 112.791273 247.702151 
L 116.037818 252.521282 
L 119.284364 271.816843 
L 122.530909 285.065287 
L 125.777455 294.552656 
L 129.024 284.330684 
L 132.270545 273.340393 
L 135.517091 269.799448 
L 138.763636 273.407205 
L 142.010182 279.286508 
L 145.256727 282.125945 
L 148.503273 278.852242 
L 151.749818 271.970784 
L 154.996364 282.727238 
L 158.242909 290.276798 
L 161.489455 288.673352 
L 164.736 288.27249 
L 167.982545 280.522498 
L 171.229091 294.920113 
L 174.475636 295.488 
L 177.722182 295.488 
L 180.968727 295.488 
L 184.215273 295.488 
L 187.461818 295.488 
L 190.708364 295.488 
L 193.954909 295.488 
L 197.201455 295.488 
L 200.448 295.488 
L 203.694545 295.488 
L 206.941091 295.488 
L 210.187636 295.488 
L 213.434182 295.488 
L 216.680727 295.488 
L 219.927273 295.488 
L 223.173818 295.488 
L 226.420364 295.488 
L 229.666909 295.488 
L 232.913455 295.488 
L 236.16 295.488 
L 239.406545 295.488 
L 242.653091 295.488 
L 245.899636 295.488 
L 249.146182 295.488 
L 252.392727 295.488 
L 255.639273 295.488 
L 258.885818 295.488 
L 262.132364 295.488 
L 265.378909 295.488 
L 268.625455 295.488 
L 271.872 295.488 
L 275.118545 295.488 
L 278.365091 295.488 
L 281.611636 295.488 
L 284.858182 295.488 
L 288.104727 295.488 
L 291.351273 295.488 
L 294.597818 295.488 
L 297.844364 295.488 
L 301.090909 295.488 
L 304.337455 295.488 
L 307.584 295.488 
L 310.830545 295.488 
L 314.077091 295.488 
L 317.323636 295.488 
L 320.570182 295.488 
L 323.816727 295.488 
L 327.063273 295.488 
L 330.309818 295.488 
L 333.556364 295.488 
L 336.802909 295.488 
L 340.049455 295.488 
L 343.296 295.488 
L 346.542545 295.488 
L 349.789091 295.488 
L 353.035636 295.488 
L 356.282182 295.488 
L 359.528727 295.488 
L 362.775273 295.488 
L 366.021818 295.488 
L 369.268364 295.488 
L 372.514909 295.488 
L 375.761455 295.488 
L 379.008 295.488 
L 382.254545 295.488 
L 385.501091 295.488 
L 388.747636 295.488 
L 391.994182 295.488 
L 395.240727 295.488 
L 398.487273 295.488 
" clip-path="url(#p8392442f7a)" style="fill: none; stroke: #2ca02c; stroke-width: 1.5; stroke-linecap: square"/>
   </g>
   <g id="line2d_16">
    <path d="M 73.832727 207.119995 
L 77.079273 137.097602 
L 80.325818 145.161594 
L 83.572364 145.094399 
L 86.818909 145.632004 
L 90.065455 145.430389 
L 93.312 132.393597 
L 96.558545 144.153595 
L 99.805091 145.363194 
L 103.051636 163.910405 
L 106.298182 146.169593 
L 109.544727 147.648002 
L 112.791273 148.319996 
L 116.037818 145.161594 
L 119.284364 165.926389 
L 122.530909 145.161594 
L 125.777455 145.161594 
L 129.024 145.094399 
L 132.270545 151.948807 
L 135.517091 151.747193 
L 138.763636 145.161594 
L 142.010182 148.051201 
L 145.256727 155.241599 
L 148.503273 148.319996 
L 151.749818 145.094399 
L 154.996364 145.161594 
L 158.242909 145.161594 
L 161.489455 164.649609 
L 164.736 145.161594 
L 167.982545 145.094399 
L 171.229091 145.161594 
L 174.475636 145.161594 
L 177.722182 145.161594 
L 180.968727 145.161594 
L 184.215273 145.161594 
L 187.461818 145.161594 
L 190.708364 145.161594 
L 193.954909 145.161594 
L 197.201455 145.161594 
L 200.448 145.161594 
L 203.694545 145.161594 
L 206.941091 145.161594 
L 210.187636 145.161594 
L 213.434182 145.161594 
L 216.680727 145.161594 
L 219.927273 145.161594 
L 223.173818 145.161594 
L 226.420364 145.161594 
L 229.666909 145.161594 
L 232.913455 145.161594 
L 236.16 145.161594 
L 239.406545 145.161594 
L 242.653091 145.161594 
L 245.899636 145.161594 
L 249.146182 145.161594 
L 252.392727 145.161594 
L 255.639273 145.161594 
L 258.885818 145.161594 
L 262.132364 145.161594 
L 265.378909 145.161594 
L 268.625455 145.161594 
L 271.872 145.161594 
L 275.118545 145.161594 
L 278.365091 145.161594 
L 281.611636 145.161594 
L 284.858182 145.161594 
L 288.104727 145.161594 
L 291.351273 145.161594 
L 294.597818 145.161594 
L 297.844364 145.161594 
L 301.090909 145.161594 
L 304.337455 145.161594 
L 307.584 145.161594 
L 310.830545 145.161594 
L 314.077091 145.161594 
L 317.323636 145.161594 
L 320.570182 145.161594 
L 323.816727 145.161594 
L 327.063273 145.161594 
L 330.309818 145.161594 
L 333.556364 145.161594 
L 336.802909 145.161594 
L 340.049455 145.161594 
L 343.296 145.161594 
L 346.542545 145.161594 
L 349.789091 145.161594 
L 353.035636 145.161594 
L 356.282182 145.161594 
L 359.528727 145.161594 
L 362.775273 145.161594 
L 366.021818 145.161594 
L 369.268364 145.161594 
L 372.514909 145.161594 
L 375.761455 145.161594 
L 379.008 145.161594 
L 382.254545 145.161594 
L 385.501091 145.161594 
L 388.747636 145.161594 
L 391.994182 145.161594 
L 395.240727 145.161594 
L 398.487273 145.161594 
" clip-path="url(#p8392442f7a)" style="fill: none; stroke: #d62728; stroke-width: 1.5; stroke-linecap: square"/>
   </g>
   <g id="patch_3">
    <path d="M 57.6 307.584 
L 57.6 41.472 
" style="fill: none; stroke: #000000; stroke-width: 0.8; stroke-linejoin: miter; stroke-linecap: square"/>
   </g>
   <g id="patch_4">
    <path d="M 414.72 307.584 
L 414.72 41.472 
" style="fill: none; stroke: #000000; stroke-width: 0.8; stroke-linejoin: miter; stroke-linecap: square"/>
   </g>
   <g id="patch_5">
    <path d="M 57.6 307.584 
L 414.72 307.584 
" style="fill: none; stroke: #000000; stroke-width: 0.8; stroke-linejoin: miter; stroke-linecap: square"/>
   </g>
   <g id="patch_6">
    <path d="M 57.6 41.472 
L 414.72 41.472 
" style="fill: none; stroke: #000000; stroke-width: 0.8; stroke-linejoin: miter; stroke-linecap: square"/>
   </g>
   <g id="text_13">
    <!-- veil1 -->
    <g transform="translate(221.765625 35.472) scale(0.12 -0.12)">
     <defs>
      <path id="DejaVuSans-76" d="M 191 3500 
L 800 3500 
L 1894 563 
L 2988 3500 
L 3597 3500 
L 2284 0 
L 1503 0 
L 191 3500 
z
" transform="scale(0.015625)"/>
      <path id="DejaVuSans-65" d="M 3597 1894 
L 3597 1613 
L 953 1613 
Q 991 1019 1311 708 
Q 1631 397 2203 397 
Q 2534 397 2845 478 
Q 3156 559 3463 722 
L 3463 178 
Q 3153 47 2828 -22 
Q 2503 -91 2169 -91 
Q 1331 -91 842 396 
Q 353 884 353 1716 
Q 353 2575 817 3079 
Q 1281 3584 2069 3584 
Q 2775 3584 3186 3129 
Q 3597 2675 3597 1894 
z
M 3022 2063 
Q 3016 2534 2758 2815 
Q 2500 3097 2075 3097 
Q 1594 3097 1305 2825 
Q 1016 2553 972 2059 
L 3022 2063 
z
" transform="scale(0.015625)"/>
      <path id="DejaVuSans-69" d="M 603 3500 
L 1178 3500 
L 1178 0 
L 603 0 
L 603 3500 
z
M 603 4863 
L 1178 4863 
L 1178 4134 
L 603 4134 
L 603 4863 
z
" transform="scale(0.015625)"/>
      <path id="DejaVuSans-6c" d="M 603 4863 
L 1178 4863 
L 1178 0 
L 603 0 
L 603 4863 
z
" transform="scale(0.015625)"/>
     </defs>
     <use xlink:href="#DejaVuSans-76"/>
     <use xlink:href="#DejaVuSans-65" transform="translate(59.179688 0)"/>
     <use xlink:href="#DejaVuSans-69" transform="translate(120.703125 0)"/>
     <use xlink:href="#DejaVuSans-6c" transform="translate(148.486328 0)"/>
     <use xlink:href="#DejaVuSans-31" transform="translate(176.269531 0)"/>
    </g>
   </g>
   <g id="legend_1">
    <g id="patch_7">
     <path d="M 316.259063 138.65325 
L 407.72 138.65325 
Q 409.72 138.65325 409.72 136.65325 
L 409.72 48.472 
Q 409.72 46.472 407.72 46.472 
L 316.259063 46.472 
Q 314.259063 46.472 314.259063 48.472 
L 314.259063 136.65325 
Q 314.259063 138.65325 316.259063 138.65325 
z
" style="fill: #ffffff; opacity: 0.8; stroke: #cccccc; stroke-linejoin: miter"/>
    </g>
    <g id="line2d_17">
     <path d="M 318.259063 54.570438 
L 328.259063 54.570438 
L 338.259063 54.570438 
" style="fill: none; stroke: #1f77b4; stroke-width: 1.5; stroke-linecap: square"/>
    </g>
    <g id="text_14">
     <!-- train -->
     <g transform="translate(346.259063 58.070438) scale(0.1 -0.1)">
      <defs>
       <path id="DejaVuSans-74" d="M 1172 4494 
L 1172 3500 
L 2356 3500 
L 2356 3053 
L 1172 3053 
L 1172 1153 
Q 1172 725 1289 603 
Q 1406 481 1766 481 
L 2356 481 
L 2356 0 
L 1766 0 
Q 1100 0 847 248 
Q 594 497 594 1153 
L 594 3053 
L 172 3053 
L 172 3500 
L 594 3500 
L 594 4494 
L 1172 4494 
z
" transform="scale(0.015625)"/>
       <path id="DejaVuSans-72" d="M 2631 2963 
Q 2534 3019 2420 3045 
Q 2306 3072 2169 3072 
Q 1681 3072 1420 2755 
Q 1159 2438 1159 1844 
L 1159 0 
L 581 0 
L 581 3500 
L 1159 3500 
L 1159 2956 
Q 1341 3275 1631 3429 
Q 1922 3584 2338 3584 
Q 2397 3584 2469 3576 
Q 2541 3569 2628 3553 
L 2631 2963 
z
" transform="scale(0.015625)"/>
       <path id="DejaVuSans-61" d="M 2194 1759 
Q 1497 1759 1228 1600 
Q 959 1441 959 1056 
Q 959 750 1161 570 
Q 1363 391 1709 391 
Q 2188 391 2477 730 
Q 2766 1069 2766 1631 
L 2766 1759 
L 2194 1759 
z
M 3341 1997 
L 3341 0 
L 2766 0 
L 2766 531 
Q 2569 213 2275 61 
Q 1981 -91 1556 -91 
Q 1019 -91 701 211 
Q 384 513 384 1019 
Q 384 1609 779 1909 
Q 1175 2209 1959 2209 
L 2766 2209 
L 2766 2266 
Q 2766 2663 2505 2880 
Q 2244 3097 1772 3097 
Q 1472 3097 1187 3025 
Q 903 2953 641 2809 
L 641 3341 
Q 956 3463 1253 3523 
Q 1550 3584 1831 3584 
Q 2591 3584 2966 3190 
Q 3341 2797 3341 1997 
z
" transform="scale(0.015625)"/>
       <path id="DejaVuSans-6e" d="M 3513 2113 
L 3513 0 
L 2938 0 
L 2938 2094 
Q 2938 2591 2744 2837 
Q 2550 3084 2163 3084 
Q 1697 3084 1428 2787 
Q 1159 2491 1159 1978 
L 1159 0 
L 581 0 
L 581 3500 
L 1159 3500 
L 1159 2956 
Q 1366 3272 1645 3428 
Q 1925 3584 2291 3584 
Q 2894 3584 3203 3211 
Q 3513 2838 3513 2113 
z
" transform="scale(0.015625)"/>
      </defs>
      <use xlink:href="#DejaVuSans-74"/>
      <use xlink:href="#DejaVuSans-72" transform="translate(39.208984 0)"/>
      <use xlink:href="#DejaVuSans-61" transform="translate(80.322266 0)"/>
      <use xlink:href="#DejaVuSans-69" transform="translate(141.601562 0)"/>
      <use xlink:href="#DejaVuSans-6e" transform="translate(169.384766 0)"/>
     </g>
    </g>
    <g id="line2d_18">
     <path d="M 318.259063 69.248563 
L 328.259063 69.248563 
L 338.259063 69.248563 
" style="fill: none; stroke: #ff7f0e; stroke-width: 1.5; stroke-linecap: square"/>
    </g>
    <g id="text_15">
     <!-- train_class0 -->
     <g transform="translate(346.259063 72.748563) scale(0.1 -0.1)">
      <defs>
       <path id="DejaVuSans-5f" d="M 3263 -1063 
L 3263 -1509 
L -63 -1509 
L -63 -1063 
L 3263 -1063 
z
" transform="scale(0.015625)"/>
       <path id="DejaVuSans-63" d="M 3122 3366 
L 3122 2828 
Q 2878 2963 2633 3030 
Q 2388 3097 2138 3097 
Q 1578 3097 1268 2742 
Q 959 2388 959 1747 
Q 959 1106 1268 751 
Q 1578 397 2138 397 
Q 2388 397 2633 464 
Q 2878 531 3122 666 
L 3122 134 
Q 2881 22 2623 -34 
Q 2366 -91 2075 -91 
Q 1284 -91 818 406 
Q 353 903 353 1747 
Q 353 2603 823 3093 
Q 1294 3584 2113 3584 
Q 2378 3584 2631 3529 
Q 2884 3475 3122 3366 
z
" transform="scale(0.015625)"/>
       <path id="DejaVuSans-73" d="M 2834 3397 
L 2834 2853 
Q 2591 2978 2328 3040 
Q 2066 3103 1784 3103 
Q 1356 3103 1142 2972 
Q 928 2841 928 2578 
Q 928 2378 1081 2264 
Q 1234 2150 1697 2047 
L 1894 2003 
Q 2506 1872 2764 1633 
Q 3022 1394 3022 966 
Q 3022 478 2636 193 
Q 2250 -91 1575 -91 
Q 1294 -91 989 -36 
Q 684 19 347 128 
L 347 722 
Q 666 556 975 473 
Q 1284 391 1588 391 
Q 1994 391 2212 530 
Q 2431 669 2431 922 
Q 2431 1156 2273 1281 
Q 2116 1406 1581 1522 
L 1381 1569 
Q 847 1681 609 1914 
Q 372 2147 372 2553 
Q 372 3047 722 3315 
Q 1072 3584 1716 3584 
Q 2034 3584 2315 3537 
Q 2597 3491 2834 3397 
z
" transform="scale(0.015625)"/>
      </defs>
      <use xlink:href="#DejaVuSans-74"/>
      <use xlink:href="#DejaVuSans-72" transform="translate(39.208984 0)"/>
      <use xlink:href="#DejaVuSans-61" transform="translate(80.322266 0)"/>
      <use xlink:href="#DejaVuSans-69" transform="translate(141.601562 0)"/>
      <use xlink:href="#DejaVuSans-6e" transform="translate(169.384766 0)"/>
      <use xlink:href="#DejaVuSans-5f" transform="translate(232.763672 0)"/>
      <use xlink:href="#DejaVuSans-63" transform="translate(282.763672 0)"/>
      <use xlink:href="#DejaVuSans-6c" transform="translate(337.744141 0)"/>
      <use xlink:href="#DejaVuSans-61" transform="translate(365.527344 0)"/>
      <use xlink:href="#DejaVuSans-73" transform="translate(426.806641 0)"/>
      <use xlink:href="#DejaVuSans-73" transform="translate(478.90625 0)"/>
      <use xlink:href="#DejaVuSans-30" transform="translate(531.005859 0)"/>
     </g>
    </g>
    <g id="line2d_19">
     <path d="M 318.259063 84.204813 
L 328.259063 84.204813 
L 338.259063 84.204813 
" style="fill: none; stroke: #2ca02c; stroke-width: 1.5; stroke-linecap: square"/>
    </g>
    <g id="text_16">
     <!-- train_class1 -->
     <g transform="translate(346.259063 87.704813) scale(0.1 -0.1)">
      <use xlink:href="#DejaVuSans-74"/>
      <use xlink:href="#DejaVuSans-72" transform="translate(39.208984 0)"/>
      <use xlink:href="#DejaVuSans-61" transform="translate(80.322266 0)"/>
      <use xlink:href="#DejaVuSans-69" transform="translate(141.601562 0)"/>
      <use xlink:href="#DejaVuSans-6e" transform="translate(169.384766 0)"/>
      <use xlink:href="#DejaVuSans-5f" transform="translate(232.763672 0)"/>
      <use xlink:href="#DejaVuSans-63" transform="translate(282.763672 0)"/>
      <use xlink:href="#DejaVuSans-6c" transform="translate(337.744141 0)"/>
      <use xlink:href="#DejaVuSans-61" transform="translate(365.527344 0)"/>
      <use xlink:href="#DejaVuSans-73" transform="translate(426.806641 0)"/>
      <use xlink:href="#DejaVuSans-73" transform="translate(478.90625 0)"/>
      <use xlink:href="#DejaVuSans-31" transform="translate(531.005859 0)"/>
     </g>
    </g>
    <g id="line2d_20">
     <path d="M 318.259063 99.161063 
L 328.259063 99.161063 
L 338.259063 99.161063 
" style="fill: none; stroke: #d62728; stroke-width: 1.5; stroke-linecap: square"/>
    </g>
    <g id="text_17">
     <!-- test -->
     <g transform="translate(346.259063 102.661063) scale(0.1 -0.1)">
      <use xlink:href="#DejaVuSans-74"/>
      <use xlink:href="#DejaVuSans-65" transform="translate(39.208984 0)"/>
      <use xlink:href="#DejaVuSans-73" transform="translate(100.732422 0)"/>
      <use xlink:href="#DejaVuSans-74" transform="translate(152.832031 0)"/>
     </g>
    </g>
    <g id="line2d_21">
     <path d="M 318.259063 113.839188 
L 328.259063 113.839188 
L 338.259063 113.839188 
" style="fill: none; stroke: #9467bd; stroke-width: 1.5; stroke-linecap: square"/>
    </g>
    <g id="text_18">
     <!-- test_class0 -->
     <g transform="translate(346.259063 117.339188) scale(0.1 -0.1)">
      <use xlink:href="#DejaVuSans-74"/>
      <use xlink:href="#DejaVuSans-65" transform="translate(39.208984 0)"/>
      <use xlink:href="#DejaVuSans-73" transform="translate(100.732422 0)"/>
      <use xlink:href="#DejaVuSans-74" transform="translate(152.832031 0)"/>
      <use xlink:href="#DejaVuSans-5f" transform="translate(192.041016 0)"/>
      <use xlink:href="#DejaVuSans-63" transform="translate(242.041016 0)"/>
      <use xlink:href="#DejaVuSans-6c" transform="translate(297.021484 0)"/>
      <use xlink:href="#DejaVuSans-61" transform="translate(324.804688 0)"/>
      <use xlink:href="#DejaVuSans-73" transform="translate(386.083984 0)"/>
      <use xlink:href="#DejaVuSans-73" transform="translate(438.183594 0)"/>
      <use xlink:href="#DejaVuSans-30" transform="translate(490.283203 0)"/>
     </g>
    </g>
    <g id="line2d_22">
     <path d="M 318.259063 128.795438 
L 328.259063 128.795438 
L 338.259063 128.795438 
" style="fill: none; stroke: #8c564b; stroke-width: 1.5; stroke-linecap: square"/>
    </g>
    <g id="text_19">
     <!-- test_class1 -->
     <g transform="translate(346.259063 132.295438) scale(0.1 -0.1)">
      <use xlink:href="#DejaVuSans-74"/>
      <use xlink:href="#DejaVuSans-65" transform="translate(39.208984 0)"/>
      <use xlink:href="#DejaVuSans-73" transform="translate(100.732422 0)"/>
      <use xlink:href="#DejaVuSans-74" transform="translate(152.832031 0)"/>
      <use xlink:href="#DejaVuSans-5f" transform="translate(192.041016 0)"/>
      <use xlink:href="#DejaVuSans-63" transform="translate(242.041016 0)"/>
      <use xlink:href="#DejaVuSans-6c" transform="translate(297.021484 0)"/>
      <use xlink:href="#DejaVuSans-61" transform="translate(324.804688 0)"/>
      <use xlink:href="#DejaVuSans-73" transform="translate(386.083984 0)"/>
      <use xlink:href="#DejaVuSans-73" transform="translate(438.183594 0)"/>
      <use xlink:href="#DejaVuSans-31" transform="translate(490.283203 0)"/>
     </g>
    </g>
   </g>
   <g id="line2d_23">
    <path d="M 73.832727 212.162918 
L 77.079273 93.888005 
L 80.325818 53.568 
L 83.572364 53.568 
L 86.818909 57.693565 
L 90.065455 54.551414 
L 93.312 93.888005 
L 96.558545 55.721013 
L 99.805091 56.237997 
L 103.051636 95.747407 
L 106.298182 56.11422 
L 109.544727 71.396382 
L 112.791273 72.540026 
L 116.037818 53.944538 
L 119.284364 107.086931 
L 122.530909 53.568 
L 125.777455 53.568 
L 129.024 55.376083 
L 132.270545 72.281541 
L 135.517091 70.835086 
L 138.763636 53.568 
L 142.010182 57.455354 
L 145.256727 77.434556 
L 148.503273 65.13965 
L 151.749818 53.929628 
L 154.996364 53.568 
L 158.242909 53.568 
L 161.489455 93.255174 
L 164.736 53.568 
L 167.982545 56.09931 
L 171.229091 53.568 
L 174.475636 53.568 
L 177.722182 53.568 
L 180.968727 53.568 
L 184.215273 53.568 
L 187.461818 53.568 
L 190.708364 53.568 
L 193.954909 53.568 
L 197.201455 53.568 
L 200.448 53.568 
L 203.694545 53.568 
L 206.941091 53.568 
L 210.187636 53.568 
L 213.434182 53.568 
L 216.680727 53.568 
L 219.927273 53.568 
L 223.173818 53.568 
L 226.420364 53.568 
L 229.666909 53.568 
L 232.913455 53.568 
L 236.16 53.568 
L 239.406545 53.568 
L 242.653091 53.568 
L 245.899636 53.568 
L 249.146182 53.568 
L 252.392727 53.568 
L 255.639273 53.568 
L 258.885818 53.568 
L 262.132364 53.568 
L 265.378909 53.568 
L 268.625455 53.568 
L 271.872 53.568 
L 275.118545 53.568 
L 278.365091 53.568 
L 281.611636 53.568 
L 284.858182 53.568 
L 288.104727 53.568 
L 291.351273 53.568 
L 294.597818 53.568 
L 297.844364 53.568 
L 301.090909 53.568 
L 304.337455 53.568 
L 307.584 53.568 
L 310.830545 53.568 
L 314.077091 53.568 
L 317.323636 53.568 
L 320.570182 53.568 
L 323.816727 53.568 
L 327.063273 53.568 
L 330.309818 53.568 
L 333.556364 53.568 
L 336.802909 53.568 
L 340.049455 53.568 
L 343.296 53.568 
L 346.542545 53.568 
L 349.789091 53.568 
L 353.035636 53.568 
L 356.282182 53.568 
L 359.528727 53.568 
L 362.775273 53.568 
L 366.021818 53.568 
L 369.268364 53.568 
L 372.514909 53.568 
L 375.761455 53.568 
L 379.008 53.568 
L 382.254545 53.568 
L 385.501091 53.568 
L 388.747636 53.568 
L 391.994182 53.568 
L 395.240727 53.568 
L 398.487273 53.568 
" clip-path="url(#p8392442f7a)" style="fill: none; stroke: #9467bd; stroke-width: 1.5; stroke-linecap: square"/>
   </g>
   <g id="line2d_24">
    <path d="M 73.832727 138.688007 
L 77.079273 255.168002 
L 80.325818 295.488 
L 83.572364 295.385924 
L 86.818909 292.199851 
L 90.065455 295.385924 
L 93.312 255.167999 
L 96.558545 287.552681 
L 99.805091 289.37539 
L 103.051636 248.305022 
L 106.298182 292.179064 
L 109.544727 258.242969 
L 112.791273 258.786107 
L 116.037818 294.535427 
L 119.284364 239.197094 
L 122.530909 295.488 
L 125.777455 295.488 
L 129.024 289.989818 
L 132.270545 267.735272 
L 135.517091 271.138909 
L 138.763636 295.488 
L 142.010182 295.488 
L 145.256727 265.640726 
L 148.503273 274.280727 
L 151.749818 294.178909 
L 154.996364 295.488 
L 158.242909 295.488 
L 161.489455 256.477093 
L 164.736 295.488 
L 167.982545 287.895273 
L 171.229091 295.488 
L 174.475636 295.488 
L 177.722182 295.488 
L 180.968727 295.488 
L 184.215273 295.488 
L 187.461818 295.488 
L 190.708364 295.488 
L 193.954909 295.488 
L 197.201455 295.488 
L 200.448 295.488 
L 203.694545 295.488 
L 206.941091 295.488 
L 210.187636 295.488 
L 213.434182 295.488 
L 216.680727 295.488 
L 219.927273 295.488 
L 223.173818 295.488 
L 226.420364 295.488 
L 229.666909 295.488 
L 232.913455 295.488 
L 236.16 295.488 
L 239.406545 295.488 
L 242.653091 295.488 
L 245.899636 295.488 
L 249.146182 295.488 
L 252.392727 295.488 
L 255.639273 295.488 
L 258.885818 295.488 
L 262.132364 295.488 
L 265.378909 295.488 
L 268.625455 295.488 
L 271.872 295.488 
L 275.118545 295.488 
L 278.365091 295.488 
L 281.611636 295.488 
L 284.858182 295.488 
L 288.104727 295.488 
L 291.351273 295.488 
L 294.597818 295.488 
L 297.844364 295.488 
L 301.090909 295.488 
L 304.337455 295.488 
L 307.584 295.488 
L 310.830545 295.488 
L 314.077091 295.488 
L 317.323636 295.488 
L 320.570182 295.488 
L 323.816727 295.488 
L 327.063273 295.488 
L 330.309818 295.488 
L 333.556364 295.488 
L 336.802909 295.488 
L 340.049455 295.488 
L 343.296 295.488 
L 346.542545 295.488 
L 349.789091 295.488 
L 353.035636 295.488 
L 356.282182 295.488 
L 359.528727 295.488 
L 362.775273 295.488 
L 366.021818 295.488 
L 369.268364 295.488 
L 372.514909 295.488 
L 375.761455 295.488 
L 379.008 295.488 
L 382.254545 295.488 
L 385.501091 295.488 
L 388.747636 295.488 
L 391.994182 295.488 
L 395.240727 295.488 
L 398.487273 295.488 
" clip-path="url(#p8392442f7a)" style="fill: none; stroke: #8c564b; stroke-width: 1.5; stroke-linecap: square"/>
   </g>
  </g>
 </g>
 <defs>
  <clipPath id="p8392442f7a">
   <rect x="57.6" y="41.472" width="357.12" height="266.112"/>
  </clipPath>
 </defs>
</svg>
