<?xml version="1.0" encoding="utf-8" standalone="no"?>
<!DOCTYPE svg PUBLIC "-//W3C//DTD SVG 1.1//EN"
  "http://www.w3.org/Graphics/SVG/1.1/DTD/svg11.dtd">
<svg xmlns:xlink="http://www.w3.org/1999/xlink" width="460.8pt" height="345.6pt" viewBox="0 0 460.8 345.6" xmlns="http://www.w3.org/2000/svg" version="1.1">
 <metadata>
  <rdf:RDF xmlns:dc="http://purl.org/dc/elements/1.1/" xmlns:cc="http://creativecommons.org/ns#" xmlns:rdf="http://www.w3.org/1999/02/22-rdf-syntax-ns#">
   <cc:Work>
    <dc:type rdf:resource="http://purl.org/dc/dcmitype/StillImage"/>
    <dc:date>2026-03-19T21:01:35.784775</dc:date>
    <dc:format>image/svg+xml</dc:format>
    <dc:creator>
     <cc:Agent>
      <dc:title>Matplotlib v3.10.8, https://matplotlib.org/</dc:title>
     </cc:Agent>
    </dc:creator>
   </cc:Work>
  </rdf:RDF>
 </metadata>
 <defs>
  <style type="text/css">*{stroke-linejoin: round; stroke-linecap: butt}</style>
 </defs>
 <g id="figure_1">
  <g id="patch_1">
   <path d="M 0 345.6 
L 460.8 345.6 
L 460.8 0 
L 0 0 
z
" style="fill: #ffffff"/>
  </g>
  <g id="axes_1">
   <g id="patch_2">
    <path d="M 57.6 307.584 
L 414.72 307.584 
L 414.72 41.472 
L 57.6 41.472 
z
" style="fill: #ffffff"/>
   </g>
   <g id="matplotlib.axis_1">
    <g id="xtick_1">
     <g id="line2d_1">
      <defs>
       <path id="m2ffbc3cdfb" d="M 0 0 
L 0 3.5 
" style="stroke: #000000; stroke-width: 0.8"/>
      </defs>
      <g>
       <use xlink:href="#m2ffbc3cdfb" x="73.832727" y="307.584" style="stroke: #000000; stroke-width: 0.8"/>
      </g>
     </g>
     <g id="text_1">
      <!-- 0 -->
      <g transform="translate(70.651477 322.182437) scale(0.1 -0.1)">
       <defs>
        <path id="DejaVuSans-30" d="M 2034 4250 
Q 1547 4250 1301 3770 
Q 1056 3291 1056 2328 
Q 1056 1369 1301 889 
Q 1547 409 2034 409 
Q 2525 409 2770 889 
Q 3016 1369 3016 2328 
Q 3016 3291 2770 3770 
Q 2525 4250 2034 4250 
z
M 2034 4750 
Q 2819 4750 3233 4129 
Q 3647 3509 3647 2328 
Q 3647 1150 3233 529 
Q 2819 -91 2034 -91 
Q 1250 -91 836 529 
Q 422 1150 422 2328 
Q 422 3509 836 4129 
Q 1250 4750 2034 4750 
z
" transform="scale(0.015625)"/>
       </defs>
       <use xlink:href="#DejaVuSans-30"/>
      </g>
     </g>
    </g>
    <g id="xtick_2">
     <g id="line2d_2">
      <g>
       <use xlink:href="#m2ffbc3cdfb" x="138.763636" y="307.584" style="stroke: #000000; stroke-width: 0.8"/>
      </g>
     </g>
     <g id="text_2">
      <!-- 20 -->
      <g transform="translate(132.401136 322.182437) scale(0.1 -0.1)">
       <defs>
        <path id="DejaVuSans-32" d="M 1228 531 
L 3431 531 
L 3431 0 
L 469 0 
L 469 531 
Q 828 903 1448 1529 
Q 2069 2156 2228 2338 
Q 2531 2678 2651 2914 
Q 2772 3150 2772 3378 
Q 2772 3750 2511 3984 
Q 2250 4219 1831 4219 
Q 1534 4219 1204 4116 
Q 875 4013 500 3803 
L 500 4441 
Q 881 4594 1212 4672 
Q 1544 4750 1819 4750 
Q 2544 4750 2975 4387 
Q 3406 4025 3406 3419 
Q 3406 3131 3298 2873 
Q 3191 2616 2906 2266 
Q 2828 2175 2409 1742 
Q 1991 1309 1228 531 
z
" transform="scale(0.015625)"/>
       </defs>
       <use xlink:href="#DejaVuSans-32"/>
       <use xlink:href="#DejaVuSans-30" transform="translate(63.623047 0)"/>
      </g>
     </g>
    </g>
    <g id="xtick_3">
     <g id="line2d_3">
      <g>
       <use xlink:href="#m2ffbc3cdfb" x="203.694545" y="307.584" style="stroke: #000000; stroke-width: 0.8"/>
      </g>
     </g>
     <g id="text_3">
      <!-- 40 -->
      <g transform="translate(197.332045 322.182437) scale(0.1 -0.1)">
       <defs>
        <path id="DejaVuSans-34" d="M 2419 4116 
L 825 1625 
L 2419 1625 
L 2419 4116 
z
M 2253 4666 
L 3047 4666 
L 3047 1625 
L 3713 1625 
L 3713 1100 
L 3047 1100 
L 3047 0 
L 2419 0 
L 2419 1100 
L 313 1100 
L 313 1709 
L 2253 4666 
z
" transform="scale(0.015625)"/>
       </defs>
       <use xlink:href="#DejaVuSans-34"/>
       <use xlink:href="#DejaVuSans-30" transform="translate(63.623047 0)"/>
      </g>
     </g>
    </g>
    <g id="xtick_4">
     <g id="line2d_4">
      <g>
       <use xlink:href="#m2ffbc3cdfb" x="268.625455" y="307.584" style="stroke: #000000; stroke-width: 0.8"/>
      </g>
     </g>
     <g id="text_4">
      <!-- 60 -->
      <g transform="translate(262.262955 322.182437) scale(0.1 -0.1)">
       <defs>
        <path id="DejaVuSans-36" d="M 2113 2584 
Q 1688 2584 1439 2293 
Q 1191 2003 1191 1497 
Q 1191 994 1439 701 
Q 1688 409 2113 409 
Q 2538 409 2786 701 
Q 3034 994 3034 1497 
Q 3034 2003 2786 2293 
Q 2538 2584 2113 2584 
z
M 3366 4563 
L 3366 3988 
Q 3128 4100 2886 4159 
Q 2644 4219 2406 4219 
Q 1781 4219 1451 3797 
Q 1122 3375 1075 2522 
Q 1259 2794 1537 2939 
Q 1816 3084 2150 3084 
Q 2853 3084 3261 2657 
Q 3669 2231 3669 1497 
Q 3669 778 3244 343 
Q 2819 -91 2113 -91 
Q 1303 -91 875 529 
Q 447 1150 447 2328 
Q 447 3434 972 4092 
Q 1497 4750 2381 4750 
Q 2619 4750 2861 4703 
Q 3103 4656 3366 4563 
z
" transform="scale(0.015625)"/>
       </defs>
       <use xlink:href="#DejaVuSans-36"/>
       <use xlink:href="#DejaVuSans-30" transform="translate(63.623047 0)"/>
      </g>
     </g>
    </g>
    <g id="xtick_5">
     <g id="line2d_5">
      <g>
       <use xlink:href="#m2ffbc3cdfb" x="333.556364" y="307.584" style="stroke: #000000; stroke-width: 0.8"/>
      </g>
     </g>
     <g id="text_5">
      <!-- 80 -->
      <g transform="translate(327.193864 322.182437) scale(0.1 -0.1)">
       <defs>
        <path id="DejaVuSans-38" d="M 2034 2216 
Q 1584 2216 1326 1975 
Q 1069 1734 1069 1313 
Q 1069 891 1326 650 
Q 1584 409 2034 409 
Q 2484 409 2743 651 
Q 3003 894 3003 1313 
Q 3003 1734 2745 1975 
Q 2488 2216 2034 2216 
z
M 1403 2484 
Q 997 2584 770 2862 
Q 544 3141 544 3541 
Q 544 4100 942 4425 
Q 1341 4750 2034 4750 
Q 2731 4750 3128 4425 
Q 3525 4100 3525 3541 
Q 3525 3141 3298 2862 
Q 3072 2584 2669 2484 
Q 3125 2378 3379 2068 
Q 3634 1759 3634 1313 
Q 3634 634 3220 271 
Q 2806 -91 2034 -91 
Q 1263 -91 848 271 
Q 434 634 434 1313 
Q 434 1759 690 2068 
Q 947 2378 1403 2484 
z
M 1172 3481 
Q 1172 3119 1398 2916 
Q 1625 2713 2034 2713 
Q 2441 2713 2670 2916 
Q 2900 3119 2900 3481 
Q 2900 3844 2670 4047 
Q 2441 4250 2034 4250 
Q 1625 4250 1398 4047 
Q 1172 3844 1172 3481 
z
" transform="scale(0.015625)"/>
       </defs>
       <use xlink:href="#DejaVuSans-38"/>
       <use xlink:href="#DejaVuSans-30" transform="translate(63.623047 0)"/>
      </g>
     </g>
    </g>
    <g id="xtick_6">
     <g id="line2d_6">
      <g>
       <use xlink:href="#m2ffbc3cdfb" x="398.487273" y="307.584" style="stroke: #000000; stroke-width: 0.8"/>
      </g>
     </g>
     <g id="text_6">
      <!-- 100 -->
      <g transform="translate(388.943523 322.182437) scale(0.1 -0.1)">
       <defs>
        <path id="DejaVuSans-31" d="M 794 531 
L 1825 531 
L 1825 4091 
L 703 3866 
L 703 4441 
L 1819 4666 
L 2450 4666 
L 2450 531 
L 3481 531 
L 3481 0 
L 794 0 
L 794 531 
z
" transform="scale(0.015625)"/>
       </defs>
       <use xlink:href="#DejaVuSans-31"/>
       <use xlink:href="#DejaVuSans-30" transform="translate(63.623047 0)"/>
       <use xlink:href="#DejaVuSans-30" transform="translate(127.246094 0)"/>
      </g>
     </g>
    </g>
   </g>
   <g id="matplotlib.axis_2">
    <g id="ytick_1">
     <g id="line2d_7">
      <defs>
       <path id="mc29a9a412a" d="M 0 0 
L -3.5 0 
" style="stroke: #000000; stroke-width: 0.8"/>
      </defs>
      <g>
       <use xlink:href="#mc29a9a412a" x="57.6" y="292.23271" style="stroke: #000000; stroke-width: 0.8"/>
      </g>
     </g>
     <g id="text_7">
      <!-- 0.3 -->
      <g transform="translate(34.696875 296.031928) scale(0.1 -0.1)">
       <defs>
        <path id="DejaVuSans-2e" d="M 684 794 
L 1344 794 
L 1344 0 
L 684 0 
L 684 794 
z
" transform="scale(0.015625)"/>
        <path id="DejaVuSans-33" d="M 2597 2516 
Q 3050 2419 3304 2112 
Q 3559 1806 3559 1356 
Q 3559 666 3084 287 
Q 2609 -91 1734 -91 
Q 1441 -91 1130 -33 
Q 819 25 488 141 
L 488 750 
Q 750 597 1062 519 
Q 1375 441 1716 441 
Q 2309 441 2620 675 
Q 2931 909 2931 1356 
Q 2931 1769 2642 2001 
Q 2353 2234 1838 2234 
L 1294 2234 
L 1294 2753 
L 1863 2753 
Q 2328 2753 2575 2939 
Q 2822 3125 2822 3475 
Q 2822 3834 2567 4026 
Q 2313 4219 1838 4219 
Q 1578 4219 1281 4162 
Q 984 4106 628 3988 
L 628 4550 
Q 988 4650 1302 4700 
Q 1616 4750 1894 4750 
Q 2613 4750 3031 4423 
Q 3450 4097 3450 3541 
Q 3450 3153 3228 2886 
Q 3006 2619 2597 2516 
z
" transform="scale(0.015625)"/>
       </defs>
       <use xlink:href="#DejaVuSans-30"/>
       <use xlink:href="#DejaVuSans-2e" transform="translate(63.623047 0)"/>
       <use xlink:href="#DejaVuSans-33" transform="translate(95.410156 0)"/>
      </g>
     </g>
    </g>
    <g id="ytick_2">
     <g id="line2d_8">
      <g>
       <use xlink:href="#mc29a9a412a" x="57.6" y="234.26042" style="stroke: #000000; stroke-width: 0.8"/>
      </g>
     </g>
     <g id="text_8">
      <!-- 0.4 -->
      <g transform="translate(34.696875 238.059638) scale(0.1 -0.1)">
       <use xlink:href="#DejaVuSans-30"/>
       <use xlink:href="#DejaVuSans-2e" transform="translate(63.623047 0)"/>
       <use xlink:href="#DejaVuSans-34" transform="translate(95.410156 0)"/>
      </g>
     </g>
    </g>
    <g id="ytick_3">
     <g id="line2d_9">
      <g>
       <use xlink:href="#mc29a9a412a" x="57.6" y="176.288129" style="stroke: #000000; stroke-width: 0.8"/>
      </g>
     </g>
     <g id="text_9">
      <!-- 0.5 -->
      <g transform="translate(34.696875 180.087348) scale(0.1 -0.1)">
       <defs>
        <path id="DejaVuSans-35" d="M 691 4666 
L 3169 4666 
L 3169 4134 
L 1269 4134 
L 1269 2991 
Q 1406 3038 1543 3061 
Q 1681 3084 1819 3084 
Q 2600 3084 3056 2656 
Q 3513 2228 3513 1497 
Q 3513 744 3044 326 
Q 2575 -91 1722 -91 
Q 1428 -91 1123 -41 
Q 819 9 494 109 
L 494 744 
Q 775 591 1075 516 
Q 1375 441 1709 441 
Q 2250 441 2565 725 
Q 2881 1009 2881 1497 
Q 2881 1984 2565 2268 
Q 2250 2553 1709 2553 
Q 1456 2553 1204 2497 
Q 953 2441 691 2322 
L 691 4666 
z
" transform="scale(0.015625)"/>
       </defs>
       <use xlink:href="#DejaVuSans-30"/>
       <use xlink:href="#DejaVuSans-2e" transform="translate(63.623047 0)"/>
       <use xlink:href="#DejaVuSans-35" transform="translate(95.410156 0)"/>
      </g>
     </g>
    </g>
    <g id="ytick_4">
     <g id="line2d_10">
      <g>
       <use xlink:href="#mc29a9a412a" x="57.6" y="118.315839" style="stroke: #000000; stroke-width: 0.8"/>
      </g>
     </g>
     <g id="text_10">
      <!-- 0.6 -->
      <g transform="translate(34.696875 122.115058) scale(0.1 -0.1)">
       <use xlink:href="#DejaVuSans-30"/>
       <use xlink:href="#DejaVuSans-2e" transform="translate(63.623047 0)"/>
       <use xlink:href="#DejaVuSans-36" transform="translate(95.410156 0)"/>
      </g>
     </g>
    </g>
    <g id="ytick_5">
     <g id="line2d_11">
      <g>
       <use xlink:href="#mc29a9a412a" x="57.6" y="60.343549" style="stroke: #000000; stroke-width: 0.8"/>
      </g>
     </g>
     <g id="text_11">
      <!-- 0.7 -->
      <g transform="translate(34.696875 64.142768) scale(0.1 -0.1)">
       <defs>
        <path id="DejaVuSans-37" d="M 525 4666 
L 3525 4666 
L 3525 4397 
L 1831 0 
L 1172 0 
L 2766 4134 
L 525 4134 
L 525 4666 
z
" transform="scale(0.015625)"/>
       </defs>
       <use xlink:href="#DejaVuSans-30"/>
       <use xlink:href="#DejaVuSans-2e" transform="translate(63.623047 0)"/>
       <use xlink:href="#DejaVuSans-37" transform="translate(95.410156 0)"/>
      </g>
     </g>
    </g>
   </g>
   <g id="line2d_12">
    <path d="M 73.832727 173.808211 
L 77.079273 175.160868 
L 80.325818 169.524702 
L 83.572364 173.035234 
L 86.818909 177.86627 
L 90.065455 171.714711 
L 93.312 174.613357 
L 96.558545 175.482948 
L 99.805091 172.842007 
L 103.051636 178.703656 
L 106.298182 174.999846 
L 109.544727 175.837232 
L 112.791273 174.484574 
L 116.037818 177.479765 
L 119.284364 175.386369 
L 122.530909 175.160868 
L 125.777455 174.098051 
L 129.024 181.183558 
L 132.270545 176.70684 
L 135.517091 175.869436 
L 138.763636 173.389518 
L 142.010182 179.186741 
L 145.256727 177.640839 
L 148.503273 175.032085 
L 151.749818 174.645597 
L 154.996364 178.252742 
L 158.242909 174.420165 
L 161.489455 173.164052 
L 164.736 174.355722 
L 167.982545 175.901641 
L 171.229091 172.584371 
L 174.475636 178.252742 
L 177.722182 173.550575 
L 180.968727 174.74221 
L 184.215273 174.903232 
L 187.461818 175.805027 
L 190.708364 174.74221 
L 193.954909 172.101234 
L 197.201455 175.35413 
L 200.448 176.030493 
L 203.694545 173.776006 
L 206.941091 173.51837 
L 210.187636 175.128698 
L 213.434182 175.386369 
L 216.680727 178.929088 
L 219.927273 173.711597 
L 223.173818 176.739044 
L 226.420364 173.647188 
L 229.666909 176.739044 
L 232.913455 174.74221 
L 236.16 172.745393 
L 239.406545 175.257482 
L 242.653091 174.323517 
L 245.899636 174.484539 
L 249.146182 174.001438 
L 252.392727 175.193107 
L 255.639273 173.421722 
L 258.885818 174.806619 
L 262.132364 175.225277 
L 265.378909 173.647154 
L 268.625455 178.671417 
L 271.872 172.294461 
L 275.118545 177.866236 
L 278.365091 173.292904 
L 281.611636 173.035234 
L 284.858182 172.487723 
L 288.104727 176.513578 
L 291.351273 176.38476 
L 294.597818 174.13029 
L 297.844364 172.391109 
L 301.090909 176.577987 
L 304.337455 174.548948 
L 307.584 173.29287 
L 310.830545 176.030459 
L 314.077091 173.711597 
L 317.323636 177.125498 
L 320.570182 171.424905 
L 323.816727 175.03205 
L 327.063273 176.481374 
L 330.309818 175.901641 
L 333.556364 173.711597 
L 336.802909 175.482982 
L 340.049455 173.228461 
L 343.296 174.355722 
L 346.542545 175.128698 
L 349.789091 177.995106 
L 353.035636 174.45237 
L 356.282182 172.294461 
L 359.528727 174.098086 
L 362.775273 174.226904 
L 366.021818 173.840415 
L 369.268364 174.484574 
L 372.514909 174.420165 
L 375.761455 176.545783 
L 379.008 174.677801 
L 382.254545 172.423314 
L 385.501091 169.975599 
L 388.747636 176.094902 
L 391.994182 172.358905 
L 395.240727 173.357279 
L 398.487273 172.680984 
" clip-path="url(#p7c39caa93f)" style="fill: none; stroke: #1f77b4; stroke-width: 1.5; stroke-linecap: square"/>
   </g>
   <g id="line2d_13">
    <path d="M 73.832727 231.181086 
L 77.079273 188.357299 
L 80.325818 156.956691 
L 83.572364 158.351505 
L 86.818909 199.006672 
L 90.065455 178.295641 
L 93.312 188.861617 
L 96.558545 170.531507 
L 99.805091 153.499373 
L 103.051636 193.241376 
L 106.298182 141.379046 
L 109.544727 180.477979 
L 112.791273 165.314655 
L 116.037818 184.798564 
L 119.284364 144.37821 
L 122.530909 173.295461 
L 125.777455 193.707996 
L 129.024 162.91936 
L 132.270545 158.419369 
L 135.517091 200.148532 
L 138.763636 148.783453 
L 142.010182 151.274948 
L 145.256727 173.322137 
L 148.503273 139.796672 
L 151.749818 105.891629 
L 154.996364 214.105552 
L 158.242909 167.040084 
L 161.489455 167.088736 
L 164.736 146.432525 
L 167.982545 149.872566 
L 171.229091 100.825641 
L 174.475636 173.268716 
L 177.722182 139.840694 
L 180.968727 187.519481 
L 184.215273 111.538784 
L 187.461818 171.936065 
L 190.708364 162.24811 
L 193.954909 86.652899 
L 197.201455 174.928526 
L 200.448 177.558427 
L 203.694545 190.252924 
L 206.941091 108.588168 
L 210.187636 168.056668 
L 213.434182 121.93465 
L 216.680727 172.351268 
L 219.927273 136.124703 
L 223.173818 148.325127 
L 226.420364 113.26632 
L 229.666909 159.792069 
L 232.913455 109.868538 
L 236.16 171.689279 
L 239.406545 101.660228 
L 242.653091 178.360395 
L 245.899636 133.957845 
L 249.146182 165.288947 
L 252.392727 120.180783 
L 255.639273 120.993256 
L 258.885818 177.349012 
L 262.132364 120.46589 
L 265.378909 102.817378 
L 268.625455 157.029946 
L 271.872 202.789577 
L 275.118545 164.809404 
L 278.365091 184.661695 
L 281.611636 74.592247 
L 284.858182 182.257519 
L 288.104727 108.379772 
L 291.351273 167.585591 
L 294.597818 90.512256 
L 297.844364 119.63887 
L 301.090909 197.36908 
L 304.337455 123.335787 
L 307.584 178.913418 
L 310.830545 115.324021 
L 314.077091 62.190822 
L 317.323636 194.453537 
L 320.570182 118.901519 
L 323.816727 128.553192 
L 327.063273 145.240924 
L 330.309818 134.997995 
L 333.556364 113.798938 
L 336.802909 132.004186 
L 340.049455 181.349625 
L 343.296 110.275587 
L 346.542545 127.824686 
L 349.789091 137.708459 
L 353.035636 145.72686 
L 356.282182 97.567217 
L 359.528727 94.542931 
L 362.775273 116.301248 
L 366.021818 90.359872 
L 369.268364 207.383486 
L 372.514909 119.412229 
L 375.761455 159.796353 
L 379.008 62.294588 
L 382.254545 238.277685 
L 385.501091 93.456893 
L 388.747636 136.394675 
L 391.994182 98.887981 
L 395.240727 110.065082 
L 398.487273 183.188685 
" clip-path="url(#p7c39caa93f)" style="fill: none; stroke: #ff7f0e; stroke-width: 1.5; stroke-linecap: square"/>
   </g>
   <g id="line2d_14">
    <path d="M 73.832727 114.086636 
L 77.079273 161.545175 
L 80.325818 185.210571 
L 83.572364 189.903443 
L 86.818909 159.494212 
L 90.065455 169.577328 
L 93.312 162.681454 
L 96.558545 183.871787 
L 99.805091 195.433234 
L 103.051636 167.075675 
L 106.298182 214.224677 
L 109.544727 174.012495 
L 112.791273 187.547401 
L 116.037818 173.603857 
L 119.284364 210.374115 
L 122.530909 181.641625 
L 125.777455 159.625068 
L 129.024 202.36342 
L 132.270545 200.323307 
L 135.517091 156.516955 
L 138.763636 202.11698 
L 142.010182 211.394915 
L 145.256727 186.864334 
L 148.503273 216.10997 
L 151.749818 248.155411 
L 154.996364 146.059927 
L 158.242909 188.140765 
L 161.489455 184.789062 
L 164.736 204.38192 
L 167.982545 207.624207 
L 171.229091 250.398979 
L 174.475636 187.729346 
L 177.722182 213.37321 
L 180.968727 167.619212 
L 184.215273 244.039404 
L 187.461818 184.5505 
L 190.708364 193.047579 
L 193.954909 263.613309 
L 197.201455 180.958938 
L 200.448 179.392563 
L 203.694545 163.546034 
L 206.941091 244.697056 
L 210.187636 187.571589 
L 213.434182 235.202242 
L 216.680727 190.009749 
L 219.927273 217.995851 
L 223.173818 211.551825 
L 226.420364 240.35351 
L 229.666909 200.170785 
L 232.913455 244.959651 
L 236.16 180.122969 
L 239.406545 254.80633 
L 242.653091 176.02068 
L 245.899636 221.669375 
L 249.146182 189.010407 
L 252.392727 236.981989 
L 255.639273 232.5509 
L 258.885818 178.351843 
L 262.132364 236.248888 
L 265.378909 250.979127 
L 268.625455 206.464915 
L 271.872 147.931278 
L 275.118545 196.545447 
L 278.365091 168.310779 
L 281.611636 278.359546 
L 284.858182 168.813197 
L 288.104727 251.795279 
L 291.351273 191.715326 
L 294.597818 263.692213 
L 297.844364 232.878543 
L 301.090909 161.845485 
L 304.337455 231.604962 
L 307.584 174.628734 
L 310.830545 243.218656 
L 314.077091 291.715669 
L 317.323636 166.204356 
L 320.570182 231.254427 
L 323.816727 227.523492 
L 327.063273 214.518509 
L 330.309818 223.058954 
L 333.556364 240.358641 
L 336.802909 225.417104 
L 340.049455 172.074558 
L 343.296 245.059305 
L 346.542545 229.956037 
L 349.789091 225.352435 
L 353.035636 209.525292 
L 356.282182 253.941957 
L 359.528727 260.663298 
L 362.775273 238.869563 
L 366.021818 263.733004 
L 369.268364 148.081589 
L 372.514909 236.2629 
L 375.761455 199.165777 
L 379.008 293.863885 
L 382.254545 112.831041 
L 385.501091 254.171397 
L 388.747636 221.102323 
L 391.994182 252.96404 
L 395.240727 244.438453 
L 398.487273 167.655736 
" clip-path="url(#p7c39caa93f)" style="fill: none; stroke: #2ca02c; stroke-width: 1.5; stroke-linecap: square"/>
   </g>
   <g id="line2d_15">
    <path d="M 73.832727 172.262257 
L 77.079273 170.812951 
L 80.325818 173.067438 
L 83.572364 174.516744 
L 86.818909 179.186724 
L 90.065455 178.059515 
L 93.312 179.025701 
L 96.558545 180.313967 
L 99.805091 175.96605 
L 103.051636 180.475042 
L 106.298182 185.145004 
L 109.544727 179.8309 
L 112.791273 177.093311 
L 116.037818 181.280189 
L 119.284364 179.991905 
L 122.530909 180.152945 
L 125.777455 187.560514 
L 129.024 178.542634 
L 132.270545 186.433288 
L 135.517091 179.347764 
L 138.763636 177.576395 
L 142.010182 181.602234 
L 145.256727 185.628106 
L 148.503273 179.025719 
L 151.749818 181.441211 
L 154.996364 178.22052 
L 158.242909 183.051557 
L 161.489455 175.805027 
L 164.736 185.306027 
L 167.982545 177.254351 
L 171.229091 183.856738 
L 174.475636 186.916372 
L 177.722182 187.560514 
L 180.968727 179.830883 
L 184.215273 175.160938 
L 187.461818 182.085353 
L 190.708364 187.238435 
L 193.954909 183.695716 
L 197.201455 188.848798 
L 200.448 182.407398 
L 203.694545 180.797052 
L 206.941091 173.55054 
L 210.187636 189.00982 
L 213.434182 179.508803 
L 216.680727 182.40745 
L 219.927273 182.568472 
L 223.173818 179.025719 
L 226.420364 178.220537 
L 229.666909 185.144987 
L 232.913455 176.932271 
L 236.16 183.373619 
L 239.406545 180.313967 
L 242.653091 183.212596 
L 245.899636 183.695664 
L 249.146182 183.373619 
L 252.392727 177.576395 
L 255.639273 182.568472 
L 258.885818 176.771214 
L 262.132364 178.38156 
L 265.378909 172.423314 
L 268.625455 185.144987 
L 271.872 183.212596 
L 275.118545 178.220537 
L 278.365091 187.238435 
L 281.611636 177.89844 
L 284.858182 174.516744 
L 288.104727 177.415356 
L 291.351273 181.280189 
L 294.597818 180.313967 
L 297.844364 181.763291 
L 301.090909 174.838823 
L 304.337455 179.991871 
L 307.584 178.220537 
L 310.830545 185.628106 
L 314.077091 183.051539 
L 317.323636 178.542634 
L 320.570182 176.932271 
L 323.816727 182.085353 
L 327.063273 180.475007 
L 330.309818 179.669826 
L 333.556364 180.797087 
L 336.802909 179.508803 
L 340.049455 184.017761 
L 343.296 185.628106 
L 346.542545 180.63603 
L 349.789091 175.644005 
L 353.035636 185.306027 
L 356.282182 185.950168 
L 359.528727 182.729495 
L 362.775273 182.890517 
L 366.021818 179.347746 
L 369.268364 184.822942 
L 372.514909 181.280189 
L 375.761455 180.63603 
L 379.008 180.313985 
L 382.254545 179.66986 
L 385.501091 184.50088 
L 388.747636 183.051557 
L 391.994182 179.508803 
L 395.240727 174.838823 
L 398.487273 183.051557 
" clip-path="url(#p7c39caa93f)" style="fill: none; stroke: #d62728; stroke-width: 1.5; stroke-linecap: square"/>
   </g>
   <g id="patch_3">
    <path d="M 57.6 307.584 
L 57.6 41.472 
" style="fill: none; stroke: #000000; stroke-width: 0.8; stroke-linejoin: miter; stroke-linecap: square"/>
   </g>
   <g id="patch_4">
    <path d="M 414.72 307.584 
L 414.72 41.472 
" style="fill: none; stroke: #000000; stroke-width: 0.8; stroke-linejoin: miter; stroke-linecap: square"/>
   </g>
   <g id="patch_5">
    <path d="M 57.6 307.584 
L 414.72 307.584 
" style="fill: none; stroke: #000000; stroke-width: 0.8; stroke-linejoin: miter; stroke-linecap: square"/>
   </g>
   <g id="patch_6">
    <path d="M 57.6 41.472 
L 414.72 41.472 
" style="fill: none; stroke: #000000; stroke-width: 0.8; stroke-linejoin: miter; stroke-linecap: square"/>
   </g>
   <g id="text_12">
    <!-- veil8 -->
    <g transform="translate(221.765625 35.472) scale(0.12 -0.12)">
     <defs>
      <path id="DejaVuSans-76" d="M 191 3500 
L 800 3500 
L 1894 563 
L 2988 3500 
L 3597 3500 
L 2284 0 
L 1503 0 
L 191 3500 
z
" transform="scale(0.015625)"/>
      <path id="DejaVuSans-65" d="M 3597 1894 
L 3597 1613 
L 953 1613 
Q 991 1019 1311 708 
Q 1631 397 2203 397 
Q 2534 397 2845 478 
Q 3156 559 3463 722 
L 3463 178 
Q 3153 47 2828 -22 
Q 2503 -91 2169 -91 
Q 1331 -91 842 396 
Q 353 884 353 1716 
Q 353 2575 817 3079 
Q 1281 3584 2069 3584 
Q 2775 3584 3186 3129 
Q 3597 2675 3597 1894 
z
M 3022 2063 
Q 3016 2534 2758 2815 
Q 2500 3097 2075 3097 
Q 1594 3097 1305 2825 
Q 1016 2553 972 2059 
L 3022 2063 
z
" transform="scale(0.015625)"/>
      <path id="DejaVuSans-69" d="M 603 3500 
L 1178 3500 
L 1178 0 
L 603 0 
L 603 3500 
z
M 603 4863 
L 1178 4863 
L 1178 4134 
L 603 4134 
L 603 4863 
z
" transform="scale(0.015625)"/>
      <path id="DejaVuSans-6c" d="M 603 4863 
L 1178 4863 
L 1178 0 
L 603 0 
L 603 4863 
z
" transform="scale(0.015625)"/>
     </defs>
     <use xlink:href="#DejaVuSans-76"/>
     <use xlink:href="#DejaVuSans-65" transform="translate(59.179688 0)"/>
     <use xlink:href="#DejaVuSans-69" transform="translate(120.703125 0)"/>
     <use xlink:href="#DejaVuSans-6c" transform="translate(148.486328 0)"/>
     <use xlink:href="#DejaVuSans-38" transform="translate(176.269531 0)"/>
    </g>
   </g>
   <g id="legend_1">
    <g id="patch_7">
     <path d="M 64.6 138.65325 
L 156.060937 138.65325 
Q 158.060937 138.65325 158.060937 136.65325 
L 158.060937 48.472 
Q 158.060937 46.472 156.060937 46.472 
L 64.6 46.472 
Q 62.6 46.472 62.6 48.472 
L 62.6 136.65325 
Q 62.6 138.65325 64.6 138.65325 
z
" style="fill: #ffffff; opacity: 0.8; stroke: #cccccc; stroke-linejoin: miter"/>
    </g>
    <g id="line2d_16">
     <path d="M 66.6 54.570438 
L 76.6 54.570438 
L 86.6 54.570438 
" style="fill: none; stroke: #1f77b4; stroke-width: 1.5; stroke-linecap: square"/>
    </g>
    <g id="text_13">
     <!-- train -->
     <g transform="translate(94.6 58.070438) scale(0.1 -0.1)">
      <defs>
       <path id="DejaVuSans-74" d="M 1172 4494 
L 1172 3500 
L 2356 3500 
L 2356 3053 
L 1172 3053 
L 1172 1153 
Q 1172 725 1289 603 
Q 1406 481 1766 481 
L 2356 481 
L 2356 0 
L 1766 0 
Q 1100 0 847 248 
Q 594 497 594 1153 
L 594 3053 
L 172 3053 
L 172 3500 
L 594 3500 
L 594 4494 
L 1172 4494 
z
" transform="scale(0.015625)"/>
       <path id="DejaVuSans-72" d="M 2631 2963 
Q 2534 3019 2420 3045 
Q 2306 3072 2169 3072 
Q 1681 3072 1420 2755 
Q 1159 2438 1159 1844 
L 1159 0 
L 581 0 
L 581 3500 
L 1159 3500 
L 1159 2956 
Q 1341 3275 1631 3429 
Q 1922 3584 2338 3584 
Q 2397 3584 2469 3576 
Q 2541 3569 2628 3553 
L 2631 2963 
z
" transform="scale(0.015625)"/>
       <path id="DejaVuSans-61" d="M 2194 1759 
Q 1497 1759 1228 1600 
Q 959 1441 959 1056 
Q 959 750 1161 570 
Q 1363 391 1709 391 
Q 2188 391 2477 730 
Q 2766 1069 2766 1631 
L 2766 1759 
L 2194 1759 
z
M 3341 1997 
L 3341 0 
L 2766 0 
L 2766 531 
Q 2569 213 2275 61 
Q 1981 -91 1556 -91 
Q 1019 -91 701 211 
Q 384 513 384 1019 
Q 384 1609 779 1909 
Q 1175 2209 1959 2209 
L 2766 2209 
L 2766 2266 
Q 2766 2663 2505 2880 
Q 2244 3097 1772 3097 
Q 1472 3097 1187 3025 
Q 903 2953 641 2809 
L 641 3341 
Q 956 3463 1253 3523 
Q 1550 3584 1831 3584 
Q 2591 3584 2966 3190 
Q 3341 2797 3341 1997 
z
" transform="scale(0.015625)"/>
       <path id="DejaVuSans-6e" d="M 3513 2113 
L 3513 0 
L 2938 0 
L 2938 2094 
Q 2938 2591 2744 2837 
Q 2550 3084 2163 3084 
Q 1697 3084 1428 2787 
Q 1159 2491 1159 1978 
L 1159 0 
L 581 0 
L 581 3500 
L 1159 3500 
L 1159 2956 
Q 1366 3272 1645 3428 
Q 1925 3584 2291 3584 
Q 2894 3584 3203 3211 
Q 3513 2838 3513 2113 
z
" transform="scale(0.015625)"/>
      </defs>
      <use xlink:href="#DejaVuSans-74"/>
      <use xlink:href="#DejaVuSans-72" transform="translate(39.208984 0)"/>
      <use xlink:href="#DejaVuSans-61" transform="translate(80.322266 0)"/>
      <use xlink:href="#DejaVuSans-69" transform="translate(141.601562 0)"/>
      <use xlink:href="#DejaVuSans-6e" transform="translate(169.384766 0)"/>
     </g>
    </g>
    <g id="line2d_17">
     <path d="M 66.6 69.248563 
L 76.6 69.248563 
L 86.6 69.248563 
" style="fill: none; stroke: #ff7f0e; stroke-width: 1.5; stroke-linecap: square"/>
    </g>
    <g id="text_14">
     <!-- train_class0 -->
     <g transform="translate(94.6 72.748563) scale(0.1 -0.1)">
      <defs>
       <path id="DejaVuSans-5f" d="M 3263 -1063 
L 3263 -1509 
L -63 -1509 
L -63 -1063 
L 3263 -1063 
z
" transform="scale(0.015625)"/>
       <path id="DejaVuSans-63" d="M 3122 3366 
L 3122 2828 
Q 2878 2963 2633 3030 
Q 2388 3097 2138 3097 
Q 1578 3097 1268 2742 
Q 959 2388 959 1747 
Q 959 1106 1268 751 
Q 1578 397 2138 397 
Q 2388 397 2633 464 
Q 2878 531 3122 666 
L 3122 134 
Q 2881 22 2623 -34 
Q 2366 -91 2075 -91 
Q 1284 -91 818 406 
Q 353 903 353 1747 
Q 353 2603 823 3093 
Q 1294 3584 2113 3584 
Q 2378 3584 2631 3529 
Q 2884 3475 3122 3366 
z
" transform="scale(0.015625)"/>
       <path id="DejaVuSans-73" d="M 2834 3397 
L 2834 2853 
Q 2591 2978 2328 3040 
Q 2066 3103 1784 3103 
Q 1356 3103 1142 2972 
Q 928 2841 928 2578 
Q 928 2378 1081 2264 
Q 1234 2150 1697 2047 
L 1894 2003 
Q 2506 1872 2764 1633 
Q 3022 1394 3022 966 
Q 3022 478 2636 193 
Q 2250 -91 1575 -91 
Q 1294 -91 989 -36 
Q 684 19 347 128 
L 347 722 
Q 666 556 975 473 
Q 1284 391 1588 391 
Q 1994 391 2212 530 
Q 2431 669 2431 922 
Q 2431 1156 2273 1281 
Q 2116 1406 1581 1522 
L 1381 1569 
Q 847 1681 609 1914 
Q 372 2147 372 2553 
Q 372 3047 722 3315 
Q 1072 3584 1716 3584 
Q 2034 3584 2315 3537 
Q 2597 3491 2834 3397 
z
" transform="scale(0.015625)"/>
      </defs>
      <use xlink:href="#DejaVuSans-74"/>
      <use xlink:href="#DejaVuSans-72" transform="translate(39.208984 0)"/>
      <use xlink:href="#DejaVuSans-61" transform="translate(80.322266 0)"/>
      <use xlink:href="#DejaVuSans-69" transform="translate(141.601562 0)"/>
      <use xlink:href="#DejaVuSans-6e" transform="translate(169.384766 0)"/>
      <use xlink:href="#DejaVuSans-5f" transform="translate(232.763672 0)"/>
      <use xlink:href="#DejaVuSans-63" transform="translate(282.763672 0)"/>
      <use xlink:href="#DejaVuSans-6c" transform="translate(337.744141 0)"/>
      <use xlink:href="#DejaVuSans-61" transform="translate(365.527344 0)"/>
      <use xlink:href="#DejaVuSans-73" transform="translate(426.806641 0)"/>
      <use xlink:href="#DejaVuSans-73" transform="translate(478.90625 0)"/>
      <use xlink:href="#DejaVuSans-30" transform="translate(531.005859 0)"/>
     </g>
    </g>
    <g id="line2d_18">
     <path d="M 66.6 84.204813 
L 76.6 84.204813 
L 86.6 84.204813 
" style="fill: none; stroke: #2ca02c; stroke-width: 1.5; stroke-linecap: square"/>
    </g>
    <g id="text_15">
     <!-- train_class1 -->
     <g transform="translate(94.6 87.704813) scale(0.1 -0.1)">
      <use xlink:href="#DejaVuSans-74"/>
      <use xlink:href="#DejaVuSans-72" transform="translate(39.208984 0)"/>
      <use xlink:href="#DejaVuSans-61" transform="translate(80.322266 0)"/>
      <use xlink:href="#DejaVuSans-69" transform="translate(141.601562 0)"/>
      <use xlink:href="#DejaVuSans-6e" transform="translate(169.384766 0)"/>
      <use xlink:href="#DejaVuSans-5f" transform="translate(232.763672 0)"/>
      <use xlink:href="#DejaVuSans-63" transform="translate(282.763672 0)"/>
      <use xlink:href="#DejaVuSans-6c" transform="translate(337.744141 0)"/>
      <use xlink:href="#DejaVuSans-61" transform="translate(365.527344 0)"/>
      <use xlink:href="#DejaVuSans-73" transform="translate(426.806641 0)"/>
      <use xlink:href="#DejaVuSans-73" transform="translate(478.90625 0)"/>
      <use xlink:href="#DejaVuSans-31" transform="translate(531.005859 0)"/>
     </g>
    </g>
    <g id="line2d_19">
     <path d="M 66.6 99.161063 
L 76.6 99.161063 
L 86.6 99.161063 
" style="fill: none; stroke: #d62728; stroke-width: 1.5; stroke-linecap: square"/>
    </g>
    <g id="text_16">
     <!-- test -->
     <g transform="translate(94.6 102.661063) scale(0.1 -0.1)">
      <use xlink:href="#DejaVuSans-74"/>
      <use xlink:href="#DejaVuSans-65" transform="translate(39.208984 0)"/>
      <use xlink:href="#DejaVuSans-73" transform="translate(100.732422 0)"/>
      <use xlink:href="#DejaVuSans-74" transform="translate(152.832031 0)"/>
     </g>
    </g>
    <g id="line2d_20">
     <path d="M 66.6 113.839188 
L 76.6 113.839188 
L 86.6 113.839188 
" style="fill: none; stroke: #9467bd; stroke-width: 1.5; stroke-linecap: square"/>
    </g>
    <g id="text_17">
     <!-- test_class0 -->
     <g transform="translate(94.6 117.339188) scale(0.1 -0.1)">
      <use xlink:href="#DejaVuSans-74"/>
      <use xlink:href="#DejaVuSans-65" transform="translate(39.208984 0)"/>
      <use xlink:href="#DejaVuSans-73" transform="translate(100.732422 0)"/>
      <use xlink:href="#DejaVuSans-74" transform="translate(152.832031 0)"/>
      <use xlink:href="#DejaVuSans-5f" transform="translate(192.041016 0)"/>
      <use xlink:href="#DejaVuSans-63" transform="translate(242.041016 0)"/>
      <use xlink:href="#DejaVuSans-6c" transform="translate(297.021484 0)"/>
      <use xlink:href="#DejaVuSans-61" transform="translate(324.804688 0)"/>
      <use xlink:href="#DejaVuSans-73" transform="translate(386.083984 0)"/>
      <use xlink:href="#DejaVuSans-73" transform="translate(438.183594 0)"/>
      <use xlink:href="#DejaVuSans-30" transform="translate(490.283203 0)"/>
     </g>
    </g>
    <g id="line2d_21">
     <path d="M 66.6 128.795438 
L 76.6 128.795438 
L 86.6 128.795438 
" style="fill: none; stroke: #8c564b; stroke-width: 1.5; stroke-linecap: square"/>
    </g>
    <g id="text_18">
     <!-- test_class1 -->
     <g transform="translate(94.6 132.295438) scale(0.1 -0.1)">
      <use xlink:href="#DejaVuSans-74"/>
      <use xlink:href="#DejaVuSans-65" transform="translate(39.208984 0)"/>
      <use xlink:href="#DejaVuSans-73" transform="translate(100.732422 0)"/>
      <use xlink:href="#DejaVuSans-74" transform="translate(152.832031 0)"/>
      <use xlink:href="#DejaVuSans-5f" transform="translate(192.041016 0)"/>
      <use xlink:href="#DejaVuSans-63" transform="translate(242.041016 0)"/>
      <use xlink:href="#DejaVuSans-6c" transform="translate(297.021484 0)"/>
      <use xlink:href="#DejaVuSans-61" transform="translate(324.804688 0)"/>
      <use xlink:href="#DejaVuSans-73" transform="translate(386.083984 0)"/>
      <use xlink:href="#DejaVuSans-73" transform="translate(438.183594 0)"/>
      <use xlink:href="#DejaVuSans-31" transform="translate(490.283203 0)"/>
     </g>
    </g>
   </g>
   <g id="line2d_22">
    <path d="M 73.832727 237.093237 
L 77.079273 148.411339 
L 80.325818 170.815404 
L 83.572364 166.082588 
L 86.818909 197.387688 
L 90.065455 206.989032 
L 93.312 173.033713 
L 96.558545 184.239754 
L 99.805091 186.470416 
L 103.051636 141.516364 
L 106.298182 237.873695 
L 109.544727 143.230113 
L 112.791273 212.804155 
L 116.037818 124.969612 
L 119.284364 200.256099 
L 122.530909 179.286413 
L 125.777455 172.563362 
L 129.024 136.37332 
L 132.270545 219.120054 
L 135.517091 150.607914 
L 138.763636 154.182543 
L 142.010182 175.340792 
L 145.256727 136.774702 
L 148.503273 159.979698 
L 151.749818 225.81712 
L 154.996364 201.435969 
L 158.242909 150.758086 
L 161.489455 100.735005 
L 164.736 100.638634 
L 167.982545 138.979776 
L 171.229091 190.905186 
L 174.475636 170.981748 
L 177.722182 171.259944 
L 180.968727 96.603604 
L 184.215273 138.744393 
L 187.461818 165.621669 
L 190.708364 116.756292 
L 193.954909 164.742507 
L 197.201455 155.741835 
L 200.448 169.726913 
L 203.694545 185.251742 
L 206.941091 81.268184 
L 210.187636 151.985381 
L 213.434182 151.175224 
L 216.680727 163.875474 
L 219.927273 103.979539 
L 223.173818 94.269746 
L 226.420364 147.252012 
L 229.666909 169.833893 
L 232.913455 121.824042 
L 236.16 154.21651 
L 239.406545 128.647421 
L 242.653091 161.903467 
L 245.899636 122.137759 
L 249.146182 167.5717 
L 252.392727 105.095708 
L 255.639273 148.760336 
L 258.885818 137.697713 
L 262.132364 128.380213 
L 265.378909 99.307158 
L 268.625455 229.413674 
L 271.872 208.474793 
L 275.118545 135.644987 
L 278.365091 148.576992 
L 281.611636 112.461691 
L 284.858182 91.178529 
L 288.104727 93.052333 
L 291.351273 174.925624 
L 294.597818 95.931525 
L 297.844364 216.12495 
L 301.090909 132.131864 
L 304.337455 145.807129 
L 307.584 165.463031 
L 310.830545 142.982256 
L 314.077091 174.431913 
L 317.323636 119.862298 
L 320.570182 103.550549 
L 323.816727 175.786092 
L 327.063273 159.013494 
L 330.309818 115.090919 
L 333.556364 101.539461 
L 336.802909 118.356807 
L 340.049455 174.245736 
L 343.296 112.354055 
L 346.542545 99.821497 
L 349.789091 53.568 
L 353.035636 151.966757 
L 356.282182 137.168965 
L 359.528727 86.594848 
L 362.775273 122.624766 
L 366.021818 177.165443 
L 369.268364 114.692543 
L 372.514909 66.739258 
L 375.761455 102.695678 
L 379.008 189.743993 
L 382.254545 95.896695 
L 385.501091 142.986161 
L 388.747636 103.974701 
L 391.994182 111.04459 
L 395.240727 146.486775 
L 398.487273 125.438513 
" clip-path="url(#p7c39caa93f)" style="fill: none; stroke: #9467bd; stroke-width: 1.5; stroke-linecap: square"/>
   </g>
   <g id="line2d_23">
    <path d="M 73.832727 123.279809 
L 77.079273 191.976953 
L 80.325818 171.062328 
L 83.572364 173.011668 
L 86.818909 155.476148 
L 90.065455 138.857904 
L 93.312 179.259789 
L 96.558545 169.331924 
L 99.805091 158.769956 
L 103.051636 210.568292 
L 106.298182 119.805007 
L 109.544727 210.370435 
L 112.791273 131.520497 
L 116.037818 229.418218 
L 119.284364 152.047994 
L 122.530909 169.849477 
L 125.777455 190.373725 
L 129.024 214.010217 
L 132.270545 143.634051 
L 135.517091 198.229566 
L 138.763636 189.073244 
L 142.010182 180.842577 
L 145.256727 223.441641 
L 148.503273 189.594857 
L 151.749818 130.643443 
L 154.996364 144.210277 
L 158.242909 204.605019 
L 161.489455 240.679857 
L 164.736 263.02124 
L 167.982545 203.768652 
L 171.229091 165.410371 
L 174.475636 187.759477 
L 177.722182 191.239722 
L 180.968727 254.782159 
L 184.215273 198.820356 
L 187.461818 185.843742 
L 190.708364 248.151472 
L 193.954909 189.441955 
L 197.201455 209.832789 
L 200.448 181.532901 
L 203.694545 162.062762 
L 206.941091 261.126289 
L 210.187636 211.298059 
L 213.434182 196.183457 
L 216.680727 190.487702 
L 219.927273 247.168008 
L 223.173818 255.125144 
L 226.420364 199.601073 
L 229.666909 187.275736 
L 232.913455 228.84918 
L 236.16 198.825211 
L 239.406545 220.968288 
L 242.653091 196.440609 
L 245.899636 232.065414 
L 249.146182 184.077954 
L 252.392727 239.157918 
L 255.639273 203.481075 
L 258.885818 202.760724 
L 262.132364 218.417118 
L 265.378909 240.5976 
L 268.625455 125.747565 
L 271.872 146.60495 
L 275.118545 206.390986 
L 278.365091 209.395662 
L 281.611636 235.040097 
L 284.858182 253.195794 
L 288.104727 257.702609 
L 291.351273 172.39142 
L 294.597818 254.505864 
L 297.844364 130.681625 
L 301.090909 213.365367 
L 304.337455 198.773846 
L 307.584 176.977295 
L 310.830545 218.02612 
L 314.077091 175.679147 
L 317.323636 224.109453 
L 320.570182 242.708463 
L 323.816727 174.359453 
L 327.063273 187.294672 
L 330.309818 232.583502 
L 333.556364 243.698216 
L 336.802909 229.320724 
L 340.049455 177.238732 
L 343.296 240.98808 
L 346.542545 244.825529 
L 349.789091 295.488 
L 353.035636 205.157886 
L 356.282182 220.951045 
L 359.528727 270.130088 
L 362.775273 230.234958 
L 366.021818 167.056255 
L 369.268364 239.331743 
L 372.514909 285.109497 
L 375.761455 247.871531 
L 379.008 155.228084 
L 382.254545 252.447109 
L 385.501091 213.432782 
L 388.747636 248.36125 
L 391.994182 231.537581 
L 395.240727 193.663352 
L 398.487273 228.810963 
" clip-path="url(#p7c39caa93f)" style="fill: none; stroke: #8c564b; stroke-width: 1.5; stroke-linecap: square"/>
   </g>
  </g>
 </g>
 <defs>
  <clipPath id="p7c39caa93f">
   <rect x="57.6" y="41.472" width="357.12" height="266.112"/>
  </clipPath>
 </defs>
</svg>
