<?xml version="1.0" encoding="utf-8" standalone="no"?>
<!DOCTYPE svg PUBLIC "-//W3C//DTD SVG 1.1//EN"
  "http://www.w3.org/Graphics/SVG/1.1/DTD/svg11.dtd">
<svg xmlns:xlink="http://www.w3.org/1999/xlink" width="460.8pt" height="345.6pt" viewBox="0 0 460.8 345.6" xmlns="http://www.w3.org/2000/svg" version="1.1">
 <metadata>
  <rdf:RDF xmlns:dc="http://purl.org/dc/elements/1.1/" xmlns:cc="http://creativecommons.org/ns#" xmlns:rdf="http://www.w3.org/1999/02/22-rdf-syntax-ns#">
   <cc:Work>
    <dc:type rdf:resource="http://purl.org/dc/dcmitype/StillImage"/>
    <dc:date>2026-03-19T16:21:43.673120</dc:date>
    <dc:format>image/svg+xml</dc:format>
    <dc:creator>
     <cc:Agent>
      <dc:title>Matplotlib v3.10.8, https://matplotlib.org/</dc:title>
     </cc:Agent>
    </dc:creator>
   </cc:Work>
  </rdf:RDF>
 </metadata>
 <defs>
  <style type="text/css">*{stroke-linejoin: round; stroke-linecap: butt}</style>
 </defs>
 <g id="figure_1">
  <g id="patch_1">
   <path d="M 0 345.6 
L 460.8 345.6 
L 460.8 0 
L 0 0 
z
" style="fill: #ffffff"/>
  </g>
  <g id="axes_1">
   <g id="patch_2">
    <path d="M 57.6 307.584 
L 414.72 307.584 
L 414.72 41.472 
L 57.6 41.472 
z
" style="fill: #ffffff"/>
   </g>
   <g id="matplotlib.axis_1">
    <g id="xtick_1">
     <g id="line2d_1">
      <defs>
       <path id="m1c5392a31e" d="M 0 0 
L 0 3.5 
" style="stroke: #000000; stroke-width: 0.8"/>
      </defs>
      <g>
       <use xlink:href="#m1c5392a31e" x="73.832727" y="307.584" style="stroke: #000000; stroke-width: 0.8"/>
      </g>
     </g>
     <g id="text_1">
      <!-- 0 -->
      <g transform="translate(70.651477 322.182437) scale(0.1 -0.1)">
       <defs>
        <path id="DejaVuSans-30" d="M 2034 4250 
Q 1547 4250 1301 3770 
Q 1056 3291 1056 2328 
Q 1056 1369 1301 889 
Q 1547 409 2034 409 
Q 2525 409 2770 889 
Q 3016 1369 3016 2328 
Q 3016 3291 2770 3770 
Q 2525 4250 2034 4250 
z
M 2034 4750 
Q 2819 4750 3233 4129 
Q 3647 3509 3647 2328 
Q 3647 1150 3233 529 
Q 2819 -91 2034 -91 
Q 1250 -91 836 529 
Q 422 1150 422 2328 
Q 422 3509 836 4129 
Q 1250 4750 2034 4750 
z
" transform="scale(0.015625)"/>
       </defs>
       <use xlink:href="#DejaVuSans-30"/>
      </g>
     </g>
    </g>
    <g id="xtick_2">
     <g id="line2d_2">
      <g>
       <use xlink:href="#m1c5392a31e" x="127.941818" y="307.584" style="stroke: #000000; stroke-width: 0.8"/>
      </g>
     </g>
     <g id="text_2">
      <!-- 50 -->
      <g transform="translate(121.579318 322.182437) scale(0.1 -0.1)">
       <defs>
        <path id="DejaVuSans-35" d="M 691 4666 
L 3169 4666 
L 3169 4134 
L 1269 4134 
L 1269 2991 
Q 1406 3038 1543 3061 
Q 1681 3084 1819 3084 
Q 2600 3084 3056 2656 
Q 3513 2228 3513 1497 
Q 3513 744 3044 326 
Q 2575 -91 1722 -91 
Q 1428 -91 1123 -41 
Q 819 9 494 109 
L 494 744 
Q 775 591 1075 516 
Q 1375 441 1709 441 
Q 2250 441 2565 725 
Q 2881 1009 2881 1497 
Q 2881 1984 2565 2268 
Q 2250 2553 1709 2553 
Q 1456 2553 1204 2497 
Q 953 2441 691 2322 
L 691 4666 
z
" transform="scale(0.015625)"/>
       </defs>
       <use xlink:href="#DejaVuSans-35"/>
       <use xlink:href="#DejaVuSans-30" transform="translate(63.623047 0)"/>
      </g>
     </g>
    </g>
    <g id="xtick_3">
     <g id="line2d_3">
      <g>
       <use xlink:href="#m1c5392a31e" x="182.050909" y="307.584" style="stroke: #000000; stroke-width: 0.8"/>
      </g>
     </g>
     <g id="text_3">
      <!-- 100 -->
      <g transform="translate(172.507159 322.182437) scale(0.1 -0.1)">
       <defs>
        <path id="DejaVuSans-31" d="M 794 531 
L 1825 531 
L 1825 4091 
L 703 3866 
L 703 4441 
L 1819 4666 
L 2450 4666 
L 2450 531 
L 3481 531 
L 3481 0 
L 794 0 
L 794 531 
z
" transform="scale(0.015625)"/>
       </defs>
       <use xlink:href="#DejaVuSans-31"/>
       <use xlink:href="#DejaVuSans-30" transform="translate(63.623047 0)"/>
       <use xlink:href="#DejaVuSans-30" transform="translate(127.246094 0)"/>
      </g>
     </g>
    </g>
    <g id="xtick_4">
     <g id="line2d_4">
      <g>
       <use xlink:href="#m1c5392a31e" x="236.16" y="307.584" style="stroke: #000000; stroke-width: 0.8"/>
      </g>
     </g>
     <g id="text_4">
      <!-- 150 -->
      <g transform="translate(226.61625 322.182437) scale(0.1 -0.1)">
       <use xlink:href="#DejaVuSans-31"/>
       <use xlink:href="#DejaVuSans-35" transform="translate(63.623047 0)"/>
       <use xlink:href="#DejaVuSans-30" transform="translate(127.246094 0)"/>
      </g>
     </g>
    </g>
    <g id="xtick_5">
     <g id="line2d_5">
      <g>
       <use xlink:href="#m1c5392a31e" x="290.269091" y="307.584" style="stroke: #000000; stroke-width: 0.8"/>
      </g>
     </g>
     <g id="text_5">
      <!-- 200 -->
      <g transform="translate(280.725341 322.182437) scale(0.1 -0.1)">
       <defs>
        <path id="DejaVuSans-32" d="M 1228 531 
L 3431 531 
L 3431 0 
L 469 0 
L 469 531 
Q 828 903 1448 1529 
Q 2069 2156 2228 2338 
Q 2531 2678 2651 2914 
Q 2772 3150 2772 3378 
Q 2772 3750 2511 3984 
Q 2250 4219 1831 4219 
Q 1534 4219 1204 4116 
Q 875 4013 500 3803 
L 500 4441 
Q 881 4594 1212 4672 
Q 1544 4750 1819 4750 
Q 2544 4750 2975 4387 
Q 3406 4025 3406 3419 
Q 3406 3131 3298 2873 
Q 3191 2616 2906 2266 
Q 2828 2175 2409 1742 
Q 1991 1309 1228 531 
z
" transform="scale(0.015625)"/>
       </defs>
       <use xlink:href="#DejaVuSans-32"/>
       <use xlink:href="#DejaVuSans-30" transform="translate(63.623047 0)"/>
       <use xlink:href="#DejaVuSans-30" transform="translate(127.246094 0)"/>
      </g>
     </g>
    </g>
    <g id="xtick_6">
     <g id="line2d_6">
      <g>
       <use xlink:href="#m1c5392a31e" x="344.378182" y="307.584" style="stroke: #000000; stroke-width: 0.8"/>
      </g>
     </g>
     <g id="text_6">
      <!-- 250 -->
      <g transform="translate(334.834432 322.182437) scale(0.1 -0.1)">
       <use xlink:href="#DejaVuSans-32"/>
       <use xlink:href="#DejaVuSans-35" transform="translate(63.623047 0)"/>
       <use xlink:href="#DejaVuSans-30" transform="translate(127.246094 0)"/>
      </g>
     </g>
    </g>
    <g id="xtick_7">
     <g id="line2d_7">
      <g>
       <use xlink:href="#m1c5392a31e" x="398.487273" y="307.584" style="stroke: #000000; stroke-width: 0.8"/>
      </g>
     </g>
     <g id="text_7">
      <!-- 300 -->
      <g transform="translate(388.943523 322.182437) scale(0.1 -0.1)">
       <defs>
        <path id="DejaVuSans-33" d="M 2597 2516 
Q 3050 2419 3304 2112 
Q 3559 1806 3559 1356 
Q 3559 666 3084 287 
Q 2609 -91 1734 -91 
Q 1441 -91 1130 -33 
Q 819 25 488 141 
L 488 750 
Q 750 597 1062 519 
Q 1375 441 1716 441 
Q 2309 441 2620 675 
Q 2931 909 2931 1356 
Q 2931 1769 2642 2001 
Q 2353 2234 1838 2234 
L 1294 2234 
L 1294 2753 
L 1863 2753 
Q 2328 2753 2575 2939 
Q 2822 3125 2822 3475 
Q 2822 3834 2567 4026 
Q 2313 4219 1838 4219 
Q 1578 4219 1281 4162 
Q 984 4106 628 3988 
L 628 4550 
Q 988 4650 1302 4700 
Q 1616 4750 1894 4750 
Q 2613 4750 3031 4423 
Q 3450 4097 3450 3541 
Q 3450 3153 3228 2886 
Q 3006 2619 2597 2516 
z
" transform="scale(0.015625)"/>
       </defs>
       <use xlink:href="#DejaVuSans-33"/>
       <use xlink:href="#DejaVuSans-30" transform="translate(63.623047 0)"/>
       <use xlink:href="#DejaVuSans-30" transform="translate(127.246094 0)"/>
      </g>
     </g>
    </g>
   </g>
   <g id="matplotlib.axis_2">
    <g id="ytick_1">
     <g id="line2d_8">
      <defs>
       <path id="m93c9f7b9fa" d="M 0 0 
L -3.5 0 
" style="stroke: #000000; stroke-width: 0.8"/>
      </defs>
      <g>
       <use xlink:href="#m93c9f7b9fa" x="57.6" y="301.32396" style="stroke: #000000; stroke-width: 0.8"/>
      </g>
     </g>
     <g id="text_8">
      <!-- 0.0 -->
      <g transform="translate(34.696875 305.123178) scale(0.1 -0.1)">
       <defs>
        <path id="DejaVuSans-2e" d="M 684 794 
L 1344 794 
L 1344 0 
L 684 0 
L 684 794 
z
" transform="scale(0.015625)"/>
       </defs>
       <use xlink:href="#DejaVuSans-30"/>
       <use xlink:href="#DejaVuSans-2e" transform="translate(63.623047 0)"/>
       <use xlink:href="#DejaVuSans-30" transform="translate(95.410156 0)"/>
      </g>
     </g>
    </g>
    <g id="ytick_2">
     <g id="line2d_9">
      <g>
       <use xlink:href="#m93c9f7b9fa" x="57.6" y="251.122254" style="stroke: #000000; stroke-width: 0.8"/>
      </g>
     </g>
     <g id="text_9">
      <!-- 0.2 -->
      <g transform="translate(34.696875 254.921473) scale(0.1 -0.1)">
       <use xlink:href="#DejaVuSans-30"/>
       <use xlink:href="#DejaVuSans-2e" transform="translate(63.623047 0)"/>
       <use xlink:href="#DejaVuSans-32" transform="translate(95.410156 0)"/>
      </g>
     </g>
    </g>
    <g id="ytick_3">
     <g id="line2d_10">
      <g>
       <use xlink:href="#m93c9f7b9fa" x="57.6" y="200.920549" style="stroke: #000000; stroke-width: 0.8"/>
      </g>
     </g>
     <g id="text_10">
      <!-- 0.4 -->
      <g transform="translate(34.696875 204.719768) scale(0.1 -0.1)">
       <defs>
        <path id="DejaVuSans-34" d="M 2419 4116 
L 825 1625 
L 2419 1625 
L 2419 4116 
z
M 2253 4666 
L 3047 4666 
L 3047 1625 
L 3713 1625 
L 3713 1100 
L 3047 1100 
L 3047 0 
L 2419 0 
L 2419 1100 
L 313 1100 
L 313 1709 
L 2253 4666 
z
" transform="scale(0.015625)"/>
       </defs>
       <use xlink:href="#DejaVuSans-30"/>
       <use xlink:href="#DejaVuSans-2e" transform="translate(63.623047 0)"/>
       <use xlink:href="#DejaVuSans-34" transform="translate(95.410156 0)"/>
      </g>
     </g>
    </g>
    <g id="ytick_4">
     <g id="line2d_11">
      <g>
       <use xlink:href="#m93c9f7b9fa" x="57.6" y="150.718844" style="stroke: #000000; stroke-width: 0.8"/>
      </g>
     </g>
     <g id="text_11">
      <!-- 0.6 -->
      <g transform="translate(34.696875 154.518063) scale(0.1 -0.1)">
       <defs>
        <path id="DejaVuSans-36" d="M 2113 2584 
Q 1688 2584 1439 2293 
Q 1191 2003 1191 1497 
Q 1191 994 1439 701 
Q 1688 409 2113 409 
Q 2538 409 2786 701 
Q 3034 994 3034 1497 
Q 3034 2003 2786 2293 
Q 2538 2584 2113 2584 
z
M 3366 4563 
L 3366 3988 
Q 3128 4100 2886 4159 
Q 2644 4219 2406 4219 
Q 1781 4219 1451 3797 
Q 1122 3375 1075 2522 
Q 1259 2794 1537 2939 
Q 1816 3084 2150 3084 
Q 2853 3084 3261 2657 
Q 3669 2231 3669 1497 
Q 3669 778 3244 343 
Q 2819 -91 2113 -91 
Q 1303 -91 875 529 
Q 447 1150 447 2328 
Q 447 3434 972 4092 
Q 1497 4750 2381 4750 
Q 2619 4750 2861 4703 
Q 3103 4656 3366 4563 
z
" transform="scale(0.015625)"/>
       </defs>
       <use xlink:href="#DejaVuSans-30"/>
       <use xlink:href="#DejaVuSans-2e" transform="translate(63.623047 0)"/>
       <use xlink:href="#DejaVuSans-36" transform="translate(95.410156 0)"/>
      </g>
     </g>
    </g>
    <g id="ytick_5">
     <g id="line2d_12">
      <g>
       <use xlink:href="#m93c9f7b9fa" x="57.6" y="100.517139" style="stroke: #000000; stroke-width: 0.8"/>
      </g>
     </g>
     <g id="text_12">
      <!-- 0.8 -->
      <g transform="translate(34.696875 104.316358) scale(0.1 -0.1)">
       <defs>
        <path id="DejaVuSans-38" d="M 2034 2216 
Q 1584 2216 1326 1975 
Q 1069 1734 1069 1313 
Q 1069 891 1326 650 
Q 1584 409 2034 409 
Q 2484 409 2743 651 
Q 3003 894 3003 1313 
Q 3003 1734 2745 1975 
Q 2488 2216 2034 2216 
z
M 1403 2484 
Q 997 2584 770 2862 
Q 544 3141 544 3541 
Q 544 4100 942 4425 
Q 1341 4750 2034 4750 
Q 2731 4750 3128 4425 
Q 3525 4100 3525 3541 
Q 3525 3141 3298 2862 
Q 3072 2584 2669 2484 
Q 3125 2378 3379 2068 
Q 3634 1759 3634 1313 
Q 3634 634 3220 271 
Q 2806 -91 2034 -91 
Q 1263 -91 848 271 
Q 434 634 434 1313 
Q 434 1759 690 2068 
Q 947 2378 1403 2484 
z
M 1172 3481 
Q 1172 3119 1398 2916 
Q 1625 2713 2034 2713 
Q 2441 2713 2670 2916 
Q 2900 3119 2900 3481 
Q 2900 3844 2670 4047 
Q 2441 4250 2034 4250 
Q 1625 4250 1398 4047 
Q 1172 3844 1172 3481 
z
" transform="scale(0.015625)"/>
       </defs>
       <use xlink:href="#DejaVuSans-30"/>
       <use xlink:href="#DejaVuSans-2e" transform="translate(63.623047 0)"/>
       <use xlink:href="#DejaVuSans-38" transform="translate(95.410156 0)"/>
      </g>
     </g>
    </g>
    <g id="ytick_6">
     <g id="line2d_13">
      <g>
       <use xlink:href="#m93c9f7b9fa" x="57.6" y="50.315434" style="stroke: #000000; stroke-width: 0.8"/>
      </g>
     </g>
     <g id="text_13">
      <!-- 1.0 -->
      <g transform="translate(34.696875 54.114653) scale(0.1 -0.1)">
       <use xlink:href="#DejaVuSans-31"/>
       <use xlink:href="#DejaVuSans-2e" transform="translate(63.623047 0)"/>
       <use xlink:href="#DejaVuSans-30" transform="translate(95.410156 0)"/>
      </g>
     </g>
    </g>
   </g>
   <g id="line2d_14">
    <path d="M 73.832727 172.829671 
L 74.914909 172.547352 
L 75.997091 171.687557 
L 77.079273 170.173297 
L 78.161455 170.186119 
L 79.243636 169.467484 
L 80.325818 168.954193 
L 81.408 168.582031 
L 82.490182 169.826809 
L 83.572364 168.902845 
L 84.654545 169.274992 
L 85.736727 168.530684 
L 86.818909 168.928519 
L 87.901091 168.659037 
L 88.983273 168.954163 
L 90.065455 169.069664 
L 91.147636 168.877187 
L 93.312 169.146669 
L 94.394182 169.390493 
L 95.476364 168.748849 
L 96.558545 169.095337 
L 97.640727 168.299712 
L 98.722909 168.107235 
L 99.805091 168.517862 
L 101.969455 168.877172 
L 103.051636 167.080607 
L 104.133818 168.235543 
L 105.216 167.02926 
L 106.298182 166.015469 
L 107.380364 167.927565 
L 108.462545 167.311579 
L 109.544727 165.579169 
L 110.626909 166.759778 
L 111.709091 166.310625 
L 112.791273 167.273084 
L 113.873455 166.297803 
L 114.955636 168.440871 
L 116.037818 167.709385 
L 117.12 169.108174 
L 118.202182 166.284982 
L 119.284364 166.862427 
L 120.366545 167.632409 
L 121.448727 166.105312 
L 122.530909 166.477458 
L 123.613091 168.710354 
L 124.695273 165.656159 
L 125.777455 166.272115 
L 126.859636 167.504086 
L 127.941818 167.260247 
L 129.024 167.388585 
L 130.106182 165.01453 
L 131.188364 166.849605 
L 132.270545 166.8881 
L 134.434909 166.27213 
L 135.517091 167.260247 
L 136.599273 167.696563 
L 137.681455 168.338207 
L 138.763636 168.055888 
L 139.845818 168.428034 
L 140.928 168.030214 
L 142.010182 168.197032 
L 143.092364 169.044005 
L 144.174545 168.120042 
L 145.256727 168.363881 
L 146.338909 167.709415 
L 147.421091 169.04402 
L 148.503273 167.56824 
L 149.585455 167.658082 
L 151.749818 167.439917 
L 152.832 166.297803 
L 154.996364 168.620526 
L 156.078545 168.877172 
L 157.160727 168.479367 
L 158.242909 169.300666 
L 160.407273 167.991719 
L 161.489455 168.813018 
L 162.571636 167.837737 
L 163.653818 168.530699 
L 164.736 168.145715 
L 165.818182 167.96606 
L 166.900364 168.774523 
L 167.982545 167.735073 
L 169.064727 167.439902 
L 170.146909 168.402376 
L 172.311273 167.786405 
L 173.393455 167.298758 
L 174.475636 168.363866 
L 175.557818 167.157598 
L 176.64 166.426126 
L 178.804364 168.556372 
L 179.886545 167.42708 
L 180.968727 167.414259 
L 182.050909 166.952269 
L 183.133091 168.10722 
L 185.297455 166.477458 
L 186.379636 167.35009 
L 187.461818 166.965091 
L 188.544 167.670904 
L 189.626182 166.99078 
L 191.790545 166.682772 
L 192.872727 167.273084 
L 193.954909 166.05398 
L 195.037091 166.554449 
L 196.119273 167.92755 
L 197.201455 167.953223 
L 198.283636 167.722221 
L 199.365818 167.337253 
L 200.448 167.683741 
L 201.530182 166.515939 
L 202.612364 167.696578 
L 203.694545 167.452754 
L 204.776727 168.171389 
L 205.858909 167.593914 
L 206.941091 166.785436 
L 208.023273 166.926611 
L 209.105455 167.799242 
L 210.187636 167.889055 
L 211.269818 168.261216 
L 212.352 167.516908 
L 213.434182 168.235543 
L 214.516364 167.401422 
L 215.598545 168.055888 
L 216.680727 167.157598 
L 217.762909 167.722236 
L 218.845091 165.91282 
L 219.927273 166.207961 
L 221.009455 166.977928 
L 222.091636 166.387631 
L 223.173818 168.120057 
L 224.256 167.876218 
L 225.338182 166.207976 
L 226.420364 166.644292 
L 227.502545 166.926611 
L 228.584727 166.708445 
L 229.666909 168.274053 
L 230.749091 165.604842 
L 231.831273 164.988857 
L 232.913455 166.528791 
L 233.995636 165.527821 
L 235.077818 166.464622 
L 236.16 166.554464 
L 237.242182 166.977928 
L 238.324364 167.593899 
L 239.406545 166.066816 
L 240.488727 165.335345 
L 241.570909 165.617664 
L 242.653091 164.745048 
L 243.735273 164.565378 
L 244.817455 164.578214 
L 245.899636 163.436086 
L 246.981818 164.026398 
L 248.064 164.026413 
L 249.146182 163.256431 
L 250.228364 163.205114 
L 251.310545 164.180394 
L 252.392727 162.986948 
L 253.474909 163.102449 
L 254.557091 163.089613 
L 255.639273 163.410442 
L 257.803636 158.136174 
L 258.885818 158.854794 
L 259.968 157.263543 
L 261.050182 158.662317 
L 262.132364 156.249767 
L 263.214545 154.299176 
L 264.296727 153.221246 
L 265.378909 154.863814 
L 266.461091 153.593378 
L 267.543273 152.60526 
L 269.707636 152.335778 
L 270.789818 149.397084 
L 271.872 144.969774 
L 272.954182 145.62424 
L 274.036364 141.569092 
L 275.118545 145.213583 
L 276.200727 144.379462 
L 277.282909 140.106163 
L 278.365091 141.209782 
L 279.447273 136.140827 
L 280.529455 136.217848 
L 281.611636 132.239705 
L 282.693818 127.838053 
L 283.776 127.170736 
L 284.858182 131.238736 
L 285.940364 129.403661 
L 287.022545 122.589474 
L 288.104727 124.386068 
L 289.186909 121.280527 
L 290.269091 121.267705 
L 291.351273 117.931176 
L 292.433455 122.846134 
L 293.515636 119.394105 
L 294.597818 111.655984 
L 295.68 110.616505 
L 296.762182 107.729143 
L 297.844364 110.295705 
L 298.926545 109.974876 
L 300.008727 101.441114 
L 301.090909 99.657342 
L 302.173091 105.573239 
L 303.255273 112.284747 
L 305.419636 93.446288 
L 306.501818 96.166846 
L 307.584 98.553738 
L 308.666182 95.230031 
L 309.748364 97.360277 
L 310.830545 95.230061 
L 312.994909 88.377379 
L 314.077091 86.016146 
L 315.159273 88.800843 
L 316.241455 90.905415 
L 317.323636 87.491911 
L 318.405818 79.561269 
L 319.488 87.645907 
L 320.570182 83.654913 
L 321.652364 89.160168 
L 322.734545 89.262802 
L 323.816727 80.408226 
L 324.898909 83.103111 
L 325.981091 77.610678 
L 327.063273 77.893012 
L 328.145455 81.434839 
L 329.227636 82.037988 
L 330.309818 79.266098 
L 331.392 78.175316 
L 332.474182 79.471426 
L 333.556364 74.081672 
L 334.638545 76.866414 
L 335.720727 80.998538 
L 336.802909 83.411089 
L 338.967273 76.032263 
L 340.049455 74.518003 
L 342.213818 74.364006 
L 343.296 72.605922 
L 344.378182 74.556483 
L 345.460364 72.272256 
L 346.542545 71.489467 
L 347.624727 79.740909 
L 348.706909 77.289878 
L 349.789091 76.789393 
L 350.871273 73.170575 
L 351.953455 66.15103 
L 353.035636 64.238979 
L 354.117818 66.035544 
L 355.2 65.43241 
L 356.282182 66.317848 
L 357.364364 65.214245 
L 359.528727 64.816439 
L 360.610909 70.129188 
L 361.693091 74.17153 
L 362.775273 66.972344 
L 363.857455 66.523177 
L 364.939636 61.633922 
L 366.021818 63.610157 
L 367.104 68.281291 
L 368.186182 63.186678 
L 369.268364 64.623963 
L 370.350545 62.737525 
L 371.432727 64.572615 
L 372.514909 63.77699 
L 373.597091 63.943793 
L 374.679273 65.419573 
L 375.761455 63.007008 
L 376.843636 62.326868 
L 377.925818 63.23801 
L 379.008 60.697137 
L 380.090182 65.881562 
L 381.172364 67.023661 
L 382.254545 62.108733 
L 383.336727 59.413849 
L 384.418909 58.220418 
L 386.583273 61.967573 
L 387.665455 64.200469 
L 388.747636 64.380124 
L 389.829818 63.225173 
L 390.912 63.41768 
L 391.994182 62.275536 
L 393.076364 62.801694 
L 394.158545 64.097804 
L 395.240727 64.392961 
L 396.322909 63.007008 
L 397.405091 62.057401 
L 398.487273 61.338781 
L 398.487273 61.338781 
" clip-path="url(#p092f18be09)" style="fill: none; stroke: #1f77b4; stroke-width: 1.5; stroke-linecap: square"/>
   </g>
   <g id="line2d_15">
    <path d="M 73.832727 133.984938 
L 74.914909 127.982519 
L 75.997091 96.551471 
L 77.079273 89.369341 
L 78.161455 87.623899 
L 79.243636 73.569338 
L 80.325818 74.260459 
L 81.408 77.077159 
L 82.490182 70.59191 
L 83.572364 88.374701 
L 84.654545 67.747458 
L 85.736727 77.132605 
L 86.818909 64.318334 
L 87.901091 66.213987 
L 88.983273 73.202712 
L 90.065455 68.35713 
L 91.147636 83.654479 
L 92.229818 84.972522 
L 93.312 90.893566 
L 94.394182 78.471639 
L 95.476364 74.226482 
L 96.558545 84.617282 
L 97.640727 80.959355 
L 98.722909 89.8585 
L 99.805091 86.596598 
L 100.887273 76.328796 
L 101.969455 97.991015 
L 103.051636 84.734757 
L 104.133818 88.416951 
L 105.216 79.705824 
L 106.298182 88.609338 
L 107.380364 89.352106 
L 108.462545 89.739902 
L 110.626909 103.289116 
L 112.791273 84.928386 
L 113.873455 94.878322 
L 114.955636 85.08539 
L 116.037818 89.201057 
L 117.12 105.006925 
L 118.202182 87.631245 
L 119.284364 95.966844 
L 120.366545 87.523689 
L 121.448727 96.822794 
L 122.530909 101.453712 
L 123.613091 107.020233 
L 124.695273 84.485667 
L 125.777455 80.307298 
L 126.859636 87.802582 
L 127.941818 88.008314 
L 129.024 101.762183 
L 130.106182 95.694639 
L 132.270545 79.81368 
L 133.352727 77.657865 
L 134.434909 81.53095 
L 135.517091 103.470492 
L 136.599273 66.44843 
L 137.681455 64.58228 
L 138.763636 63.322092 
L 139.845818 65.797884 
L 140.928 62.227047 
L 142.010182 70.518106 
L 143.092364 63.543235 
L 144.174545 75.695305 
L 145.256727 68.764405 
L 146.338909 72.740588 
L 147.421091 64.848082 
L 148.503273 78.483847 
L 149.585455 82.717185 
L 150.667636 69.727747 
L 151.749818 69.145858 
L 152.832 71.677739 
L 153.914182 71.315198 
L 154.996364 62.437477 
L 156.078545 61.405044 
L 157.160727 66.610416 
L 158.242909 86.127263 
L 159.325091 74.378429 
L 160.407273 71.370659 
L 161.489455 62.385427 
L 162.571636 69.184727 
L 163.653818 68.654051 
L 164.736 72.006843 
L 165.818182 79.293447 
L 166.900364 77.929921 
L 167.982545 75.584846 
L 169.064727 74.146649 
L 170.146909 83.237717 
L 171.229091 85.495074 
L 172.311273 72.718326 
L 173.393455 87.93258 
L 174.475636 74.70267 
L 175.557818 77.006422 
L 176.64 85.583107 
L 177.722182 71.294626 
L 178.804364 64.990663 
L 179.886545 70.067428 
L 180.968727 87.205522 
L 182.050909 89.0628 
L 183.133091 62.756496 
L 184.215273 64.398302 
L 185.297455 75.241291 
L 186.379636 76.430039 
L 187.461818 70.728192 
L 188.544 68.730802 
L 189.626182 76.80615 
L 190.708364 73.848935 
L 191.790545 78.73204 
L 192.872727 77.030165 
L 193.954909 81.249903 
L 195.037091 79.575691 
L 196.119273 81.433029 
L 197.201455 73.180809 
L 198.283636 82.036791 
L 199.365818 79.52584 
L 200.448 72.230873 
L 201.530182 89.04323 
L 202.612364 87.043866 
L 203.694545 83.221574 
L 204.776727 73.47381 
L 205.858909 78.690522 
L 206.941091 77.146699 
L 208.023273 86.225589 
L 209.105455 72.006454 
L 210.187636 75.224265 
L 211.269818 67.226117 
L 212.352 65.681874 
L 213.434182 78.537977 
L 214.516364 71.958308 
L 215.598545 66.150551 
L 216.680727 81.37278 
L 217.762909 67.852396 
L 218.845091 98.481565 
L 219.927273 86.730995 
L 221.009455 96.795489 
L 222.091636 77.129164 
L 223.173818 85.819914 
L 224.256 74.84169 
L 225.338182 85.343981 
L 226.420364 79.158661 
L 227.502545 90.721003 
L 228.584727 76.212038 
L 229.666909 97.95219 
L 230.749091 77.771182 
L 231.831273 102.466126 
L 232.913455 72.540272 
L 233.995636 90.862656 
L 235.077818 81.303958 
L 236.16 83.743992 
L 237.242182 82.742365 
L 238.324364 72.65682 
L 239.406545 96.262703 
L 240.488727 93.240122 
L 241.570909 100.023309 
L 242.653091 91.691032 
L 243.735273 103.874207 
L 244.817455 95.23039 
L 245.899636 104.171756 
L 246.981818 115.67943 
L 248.064 80.106068 
L 249.146182 82.782551 
L 250.228364 97.497008 
L 251.310545 85.411606 
L 252.392727 90.425128 
L 253.474909 102.407583 
L 254.557091 99.262095 
L 255.639273 113.645071 
L 256.721455 124.92424 
L 257.803636 131.467314 
L 258.885818 159.448996 
L 259.968 137.339794 
L 261.050182 137.91314 
L 262.132364 116.04821 
L 263.214545 119.066797 
L 264.296727 126.637905 
L 265.378909 120.272735 
L 266.461091 112.076276 
L 267.543273 121.577433 
L 268.625455 147.448887 
L 269.707636 135.238139 
L 270.789818 128.92288 
L 271.872 130.038363 
L 272.954182 132.404728 
L 274.036364 127.917213 
L 275.118545 133.729219 
L 276.200727 133.414659 
L 277.282909 121.453135 
L 278.365091 127.31405 
L 279.447273 128.843152 
L 280.529455 128.155307 
L 281.611636 128.071928 
L 282.693818 121.440238 
L 283.776 116.757868 
L 284.858182 120.976828 
L 285.940364 118.319077 
L 287.022545 119.477633 
L 288.104727 127.027347 
L 289.186909 115.220792 
L 290.269091 112.240461 
L 291.351273 111.63064 
L 292.433455 120.264701 
L 293.515636 117.651864 
L 294.597818 114.549734 
L 295.68 107.803591 
L 296.762182 105.955619 
L 297.844364 110.095434 
L 301.090909 93.047152 
L 302.173091 97.126148 
L 303.255273 106.21973 
L 305.419636 91.931549 
L 306.501818 92.465038 
L 307.584 94.411216 
L 308.666182 95.252443 
L 309.748364 93.959041 
L 310.830545 90.164009 
L 311.912727 89.33318 
L 312.994909 87.557052 
L 314.077091 85.316437 
L 315.159273 88.940701 
L 316.241455 89.258134 
L 317.323636 87.402038 
L 318.405818 76.410005 
L 319.488 80.940967 
L 320.570182 84.693045 
L 321.652364 84.775781 
L 322.734545 84.630088 
L 323.816727 77.390867 
L 324.898909 80.120222 
L 325.981091 75.64116 
L 327.063273 76.865412 
L 328.145455 82.210132 
L 329.227636 81.048763 
L 330.309818 78.153592 
L 331.392 76.299875 
L 332.474182 77.31624 
L 333.556364 74.714878 
L 334.638545 78.704137 
L 335.720727 77.873502 
L 336.802909 80.906347 
L 337.885091 78.211687 
L 338.967273 72.406608 
L 340.049455 77.932943 
L 341.131636 73.925297 
L 342.213818 73.246339 
L 343.296 74.325571 
L 344.378182 74.525872 
L 345.460364 70.797598 
L 346.542545 71.207581 
L 347.624727 75.006922 
L 348.706909 73.501264 
L 349.789091 78.108499 
L 350.871273 74.368734 
L 351.953455 67.128375 
L 353.035636 64.406141 
L 354.117818 66.896999 
L 355.2 63.338879 
L 356.282182 67.384931 
L 357.364364 65.228398 
L 358.446545 65.165501 
L 359.528727 64.919373 
L 360.610909 70.158676 
L 361.693091 73.526115 
L 362.775273 67.663555 
L 363.857455 64.911294 
L 364.939636 61.089421 
L 366.021818 64.653795 
L 367.104 70.028184 
L 368.186182 62.472053 
L 369.268364 66.461716 
L 370.350545 61.971598 
L 371.432727 62.975559 
L 372.514909 62.69152 
L 373.597091 62.87888 
L 374.679273 65.39384 
L 375.761455 63.117153 
L 377.925818 62.944829 
L 379.008 59.861639 
L 380.090182 62.701753 
L 381.172364 66.799481 
L 382.254545 61.953704 
L 383.336727 59.490031 
L 384.418909 57.488183 
L 385.501091 60.958959 
L 386.583273 60.139829 
L 388.747636 62.96178 
L 389.829818 63.183102 
L 390.912 62.095941 
L 391.994182 60.678944 
L 393.076364 61.965778 
L 394.158545 64.38741 
L 395.240727 64.033965 
L 397.405091 62.702576 
L 398.487273 60.603345 
L 398.487273 60.603345 
" clip-path="url(#p092f18be09)" style="fill: none; stroke: #ff7f0e; stroke-width: 1.5; stroke-linecap: square"/>
   </g>
   <g id="line2d_16">
    <path d="M 73.832727 217.654449 
L 74.914909 222.649764 
L 75.997091 255.109362 
L 77.079273 259.920672 
L 78.161455 261.657923 
L 79.243636 275.739425 
L 80.325818 274.073014 
L 81.408 270.262438 
L 82.490182 279.712397 
L 83.572364 258.409501 
L 84.654545 281.743566 
L 85.736727 269.64994 
L 86.818909 284.746978 
L 87.901091 282.176233 
L 88.983273 275.121151 
L 90.065455 280.594088 
L 91.147636 263.730972 
L 92.229818 262.765648 
L 93.312 256.309664 
L 94.394182 270.320484 
L 95.476364 273.646605 
L 96.558545 263.289656 
L 97.640727 265.249474 
L 98.722909 255.055356 
L 99.805091 259.811515 
L 100.887273 271.369071 
L 101.969455 247.420446 
L 103.051636 258.755125 
L 104.133818 256.899228 
L 105.216 264.049965 
L 106.298182 252.389863 
L 107.380364 255.165467 
L 108.462545 253.444909 
L 109.544727 242.267686 
L 110.626909 237.239175 
L 111.709091 247.214088 
L 112.791273 258.562604 
L 113.873455 245.925444 
L 114.955636 260.973127 
L 116.037818 255.046076 
L 117.12 239.460947 
L 118.202182 253.873909 
L 119.284364 245.741566 
L 120.366545 256.870708 
L 121.448727 243.013408 
L 122.530909 238.774553 
L 123.613091 237.089353 
L 124.695273 255.882146 
L 125.777455 261.836325 
L 126.859636 256.017822 
L 127.941818 254.950862 
L 129.024 239.658256 
L 130.106182 242.001143 
L 131.188364 254.3649 
L 132.270545 263.584468 
L 133.352727 265.310669 
L 134.434909 260.134626 
L 135.517091 236.818457 
L 136.599273 279.899939 
L 137.681455 283.34273 
L 138.763636 284.063931 
L 139.845818 282.166512 
L 140.928 285.177225 
L 142.010182 276.490768 
L 143.092364 285.864667 
L 144.174545 270.536566 
L 145.256727 278.73405 
L 146.338909 273.238093 
L 147.421091 284.454265 
L 148.503273 266.372782 
L 149.585455 261.921713 
L 150.667636 276.196599 
L 151.749818 276.478011 
L 152.832 271.465279 
L 153.914182 274.28579 
L 154.996364 286.021943 
L 156.078545 287.741278 
L 157.160727 281.147702 
L 158.242909 260.930364 
L 159.325091 272.584903 
L 160.407273 274.908613 
L 161.489455 286.527045 
L 162.571636 277.280629 
L 163.653818 279.205386 
L 164.736 274.772073 
L 165.818182 266.454118 
L 166.900364 269.105357 
L 167.982545 269.698583 
L 169.064727 270.552651 
L 170.146909 262.411418 
L 171.229091 259.337074 
L 172.311273 272.791847 
L 173.393455 253.883379 
L 174.475636 271.509456 
L 175.557818 266.885706 
L 176.64 255.430981 
L 177.722182 274.009251 
L 178.804364 283.032975 
L 179.886545 275.342243 
L 180.968727 256.13192 
L 182.050909 253.015513 
L 183.133091 284.545474 
L 184.215273 281.290991 
L 185.297455 267.928283 
L 186.379636 268.290289 
L 187.461818 273.899494 
L 188.544 277.351987 
L 189.626182 267.214435 
L 190.708364 270.077105 
L 191.790545 264.59634 
L 192.872727 267.557542 
L 193.954909 260.273399 
L 195.037091 263.147512 
L 196.119273 263.754327 
L 197.201455 272.934555 
L 198.283636 262.472235 
L 199.365818 264.509355 
L 200.448 273.22287 
L 201.530182 252.526384 
L 202.612364 257.255692 
L 203.694545 261.077287 
L 204.776727 273.189245 
L 205.858909 266.248461 
L 206.941091 266.323275 
L 208.023273 256.534981 
L 209.105455 273.918407 
L 210.187636 270.483605 
L 211.269818 280.086489 
L 212.352 280.276888 
L 213.434182 268.069783 
L 214.516364 273.02961 
L 215.598545 280.842127 
L 216.680727 262.806515 
L 217.762909 278.291776 
L 218.845091 239.754184 
L 219.927273 252.711309 
L 221.009455 243.326009 
L 222.091636 264.986934 
L 223.173818 259.786746 
L 224.256 270.90906 
L 225.338182 256.22315 
L 226.420364 263.73147 
L 227.502545 251.938907 
L 228.584727 266.886971 
L 229.666909 246.774515 
L 230.749091 263.134025 
L 231.831273 235.184543 
L 232.913455 270.497796 
L 233.995636 248.607877 
L 235.077818 261.262968 
L 236.16 258.928216 
L 237.242182 260.579963 
L 238.324364 272.85281 
L 239.406545 243.622085 
L 240.488727 245.440803 
L 241.570909 238.334086 
L 242.653091 246.170289 
L 243.735273 232.14356 
L 244.817455 241.949354 
L 246.981818 217.918665 
L 248.064 256.851569 
L 249.146182 252.432027 
L 250.228364 236.27421 
L 251.310545 251.794007 
L 252.392727 243.648461 
L 253.474909 230.371367 
L 254.557091 234.007084 
L 255.639273 219.097194 
L 256.721455 200.110395 
L 257.803636 187.851755 
L 258.885818 157.352143 
L 259.968 179.907304 
L 261.050182 182.105983 
L 262.132364 201.148139 
L 263.214545 193.573799 
L 264.296727 182.852446 
L 265.378909 193.335017 
L 266.461091 199.797629 
L 267.543273 186.212157 
L 268.625455 157.202396 
L 269.707636 171.372174 
L 270.789818 171.104771 
L 271.872 160.648247 
L 272.954182 159.405997 
L 274.036364 155.887943 
L 275.118545 156.756341 
L 276.200727 155.656867 
L 277.282909 160.282369 
L 278.365091 155.75422 
L 279.447273 143.40303 
L 280.529455 144.391491 
L 281.611636 136.075716 
L 282.693818 134.240925 
L 284.858182 141.676588 
L 285.940364 140.755692 
L 287.022545 125.300741 
L 288.104727 120.742983 
L 289.186909 127.322323 
L 290.269091 130.393618 
L 291.351273 124.374563 
L 292.433455 124.844781 
L 293.515636 120.779938 
L 294.597818 108.025212 
L 295.68 113.211119 
L 296.762182 109.132257 
L 297.844364 109.933882 
L 298.926545 115.567759 
L 300.008727 104.021366 
L 301.090909 106.505251 
L 302.173091 114.468614 
L 303.255273 118.515549 
L 305.419636 94.678783 
L 306.501818 99.863104 
L 307.584 102.918451 
L 308.666182 94.906254 
L 309.748364 100.890001 
L 310.830545 100.492555 
L 311.912727 94.003686 
L 312.994909 89.01814 
L 314.077091 86.543142 
L 315.159273 88.470393 
L 316.241455 92.528893 
L 317.323636 87.342867 
L 318.405818 82.816647 
L 319.488 94.83281 
L 320.570182 82.448839 
L 321.652364 93.801679 
L 322.734545 94.123496 
L 323.816727 83.572117 
L 324.898909 86.129777 
L 325.981091 79.666162 
L 327.063273 78.857056 
L 328.145455 80.490289 
L 329.227636 83.029591 
L 330.309818 80.394163 
L 331.392 80.056472 
L 332.474182 81.630233 
L 333.556364 73.221937 
L 334.638545 74.651038 
L 335.720727 84.323667 
L 336.802909 85.974015 
L 337.885091 81.224469 
L 338.967273 79.836721 
L 340.049455 70.603744 
L 341.131636 74.888249 
L 342.213818 75.51369 
L 343.296 70.584414 
L 344.378182 74.542285 
L 345.460364 73.741872 
L 346.542545 71.759982 
L 347.624727 84.867464 
L 348.706909 81.402942 
L 349.789091 75.422666 
L 350.871273 71.760041 
L 351.953455 65.089288 
L 353.035636 63.972369 
L 354.117818 65.098684 
L 355.2 67.698445 
L 356.282182 65.033602 
L 357.364364 65.014392 
L 358.446545 64.728931 
L 359.528727 64.701612 
L 361.693091 74.862681 
L 362.775273 66.108675 
L 363.857455 68.285001 
L 364.939636 62.164509 
L 366.021818 62.49032 
L 367.104 66.296409 
L 368.186182 63.866159 
L 369.268364 62.491981 
L 370.350545 63.644014 
L 371.432727 66.262791 
L 372.514909 64.848935 
L 373.597091 65.076242 
L 374.679273 65.452398 
L 375.761455 62.841791 
L 376.843636 61.512257 
L 377.925818 63.505054 
L 379.008 61.545561 
L 380.090182 69.278789 
L 381.172364 67.317022 
L 382.254545 62.261473 
L 383.336727 59.3052 
L 384.418909 59.018961 
L 385.501091 59.042959 
L 386.583273 63.955448 
L 387.665455 67.144069 
L 388.747636 65.877418 
L 389.829818 63.211708 
L 390.912 64.790122 
L 391.994182 63.95274 
L 393.076364 63.729174 
L 394.158545 63.765425 
L 395.240727 64.763372 
L 396.322909 62.671172 
L 397.405091 61.355403 
L 398.487273 62.102345 
L 398.487273 62.102345 
" clip-path="url(#p092f18be09)" style="fill: none; stroke: #2ca02c; stroke-width: 1.5; stroke-linecap: square"/>
   </g>
   <g id="line2d_17">
    <path d="M 73.832727 179.30592 
L 74.914909 181.397656 
L 75.997091 177.423366 
L 77.079273 177.283904 
L 78.161455 176.935292 
L 79.243636 176.098597 
L 80.325818 175.959143 
L 81.408 176.168317 
L 82.490182 175.749962 
L 83.572364 176.168317 
L 84.654545 175.192176 
L 85.736727 176.238044 
L 86.818909 175.680243 
L 87.901091 176.586664 
L 88.983273 175.610523 
L 90.065455 177.771986 
L 91.147636 174.425201 
L 92.229818 174.425201 
L 93.312 175.680243 
L 94.394182 175.192176 
L 95.476364 178.120614 
L 96.558545 175.192176 
L 97.640727 175.40135 
L 98.722909 174.634375 
L 99.805091 177.144465 
L 100.887273 177.214177 
L 101.969455 175.331615 
L 103.051636 177.005011 
L 104.133818 176.656391 
L 105.216 179.027035 
L 106.298182 177.144465 
L 107.380364 174.076574 
L 108.462545 175.680258 
L 109.544727 175.889416 
L 110.626909 175.192176 
L 111.709091 177.074738 
L 112.791273 177.771986 
L 113.873455 176.935292 
L 114.955636 176.44721 
L 116.037818 176.51693 
L 117.12 177.562805 
L 118.202182 177.493085 
L 119.284364 176.935292 
L 120.366545 175.889416 
L 121.448727 175.192176 
L 122.530909 174.285762 
L 124.695273 175.540804 
L 125.777455 178.120599 
L 126.859636 171.984838 
L 127.941818 175.122442 
L 129.024 174.355482 
L 130.106182 175.261896 
L 131.188364 176.656391 
L 132.270545 175.680243 
L 133.352727 175.122442 
L 134.434909 174.216028 
L 135.517091 177.562805 
L 136.599273 176.865572 
L 137.681455 178.260053 
L 138.763636 176.168317 
L 139.845818 177.214185 
L 140.928 177.841705 
L 142.010182 176.028863 
L 143.092364 176.37749 
L 144.174545 177.493078 
L 145.256727 177.771986 
L 146.338909 179.027012 
L 147.421091 176.516945 
L 148.503273 176.238044 
L 150.667636 176.168317 
L 151.749818 176.795838 
L 152.832 176.79583 
L 153.914182 175.680243 
L 154.996364 175.122457 
L 156.078545 174.773829 
L 158.242909 175.959143 
L 159.325091 175.192176 
L 160.407273 175.819697 
L 161.489455 175.819697 
L 162.571636 175.610523 
L 163.653818 175.959143 
L 164.736 175.680243 
L 165.818182 176.795838 
L 166.900364 176.098582 
L 167.982545 174.355482 
L 169.064727 174.355482 
L 170.146909 176.51693 
L 171.229091 174.425201 
L 172.311273 174.494921 
L 173.393455 172.403185 
L 174.475636 175.052722 
L 175.557818 171.357317 
L 176.64 174.285762 
L 177.722182 175.610523 
L 178.804364 175.959143 
L 179.886545 175.610523 
L 180.968727 175.680243 
L 182.050909 175.471069 
L 183.133091 174.634375 
L 184.215273 174.216028 
L 185.297455 176.168317 
L 186.379636 177.493085 
L 187.461818 176.656391 
L 188.544 177.005011 
L 189.626182 174.216028 
L 190.708364 173.309614 
L 192.872727 174.913268 
L 193.954909 173.727946 
L 195.037091 173.588507 
L 196.119273 174.425201 
L 197.201455 176.028863 
L 198.283636 176.028863 
L 199.365818 174.843548 
L 200.448 174.494921 
L 201.530182 175.959143 
L 202.612364 177.771986 
L 203.694545 176.44721 
L 204.776727 174.285762 
L 205.858909 175.819697 
L 208.023273 175.331615 
L 210.187636 173.379333 
L 211.269818 175.401335 
L 212.352 177.074731 
L 213.434182 177.005011 
L 214.516364 175.052722 
L 215.598545 176.098582 
L 216.680727 177.771986 
L 217.762909 175.40135 
L 218.845091 173.518787 
L 219.927273 173.658227 
L 221.009455 174.216028 
L 222.091636 176.516945 
L 223.173818 174.494921 
L 224.256 175.749962 
L 225.338182 174.704109 
L 226.420364 176.37749 
L 227.502545 174.564655 
L 228.584727 175.680243 
L 229.666909 174.146308 
L 230.749091 177.493085 
L 231.831273 176.726111 
L 232.913455 175.819682 
L 233.995636 176.44721 
L 235.077818 177.702251 
L 237.242182 176.586664 
L 238.324364 175.052707 
L 239.406545 175.052722 
L 240.488727 174.913268 
L 241.570909 173.449053 
L 242.653091 171.63621 
L 244.817455 174.634375 
L 245.899636 173.030721 
L 246.981818 174.634375 
L 248.064 172.612374 
L 250.228364 176.656384 
L 251.310545 177.423366 
L 252.392727 176.307771 
L 253.474909 176.865572 
L 254.557091 179.375633 
L 255.639273 173.797696 
L 256.721455 178.6784 
L 257.803636 178.120599 
L 258.885818 175.331615 
L 259.968 174.913268 
L 261.050182 176.307771 
L 262.132364 176.935277 
L 263.214545 179.305913 
L 264.296727 176.865572 
L 265.378909 176.935292 
L 266.461091 176.168317 
L 267.543273 174.076589 
L 268.625455 176.865557 
L 269.707636 176.865557 
L 270.789818 177.005011 
L 271.872 174.355482 
L 274.036364 177.98116 
L 275.118545 174.494921 
L 276.200727 178.399499 
L 277.282909 174.704109 
L 278.365091 175.261896 
L 279.447273 174.146293 
L 280.529455 173.867415 
L 281.611636 174.913268 
L 282.693818 175.680243 
L 283.776 178.469226 
L 284.858182 175.749977 
L 285.940364 173.379333 
L 287.022545 177.91144 
L 288.104727 173.937135 
L 289.186909 174.006854 
L 290.269091 179.096754 
L 291.351273 176.238044 
L 292.433455 171.148144 
L 294.597818 177.144458 
L 295.68 176.726111 
L 297.844364 175.192176 
L 298.926545 175.680243 
L 301.090909 174.913283 
L 302.173091 176.098597 
L 303.255273 178.190333 
L 304.337455 177.423366 
L 305.419636 172.682078 
L 306.501818 175.331615 
L 307.584 176.37749 
L 308.666182 174.56464 
L 309.748364 173.658227 
L 310.830545 176.935292 
L 311.912727 175.959136 
L 312.994909 172.612374 
L 314.077091 174.983002 
L 315.159273 174.285747 
L 316.241455 175.122457 
L 317.323636 176.37749 
L 318.405818 176.028863 
L 319.488 173.937135 
L 320.570182 174.076589 
L 321.652364 173.379318 
L 322.734545 174.425201 
L 323.816727 174.63439 
L 324.898909 176.51693 
L 325.981091 175.401335 
L 327.063273 178.32978 
L 328.145455 175.540804 
L 329.227636 178.26006 
L 330.309818 176.726111 
L 331.392 177.074731 
L 332.474182 175.261896 
L 333.556364 176.307771 
L 334.638545 177.702266 
L 335.720727 171.775664 
L 336.802909 174.285747 
L 337.885091 172.960971 
L 338.967273 172.891252 
L 340.049455 175.610523 
L 341.131636 176.656391 
L 342.213818 173.867415 
L 343.296 177.005011 
L 344.378182 175.192176 
L 345.460364 172.682093 
L 346.542545 177.771986 
L 347.624727 173.518787 
L 348.706909 175.052722 
L 349.789091 175.749962 
L 350.871273 180.282069 
L 351.953455 175.471084 
L 353.035636 174.006854 
L 354.117818 173.239879 
L 355.2 175.680243 
L 356.282182 175.122442 
L 357.364364 173.727946 
L 358.446545 174.56464 
L 359.528727 175.192176 
L 360.610909 176.168317 
L 362.775273 173.239894 
L 363.857455 173.937135 
L 364.939636 173.867415 
L 366.021818 174.843563 
L 367.104 176.37749 
L 368.186182 173.309614 
L 369.268364 178.32978 
L 370.350545 172.612359 
L 371.432727 174.076574 
L 372.514909 174.425201 
L 373.597091 174.355482 
L 374.679273 174.076574 
L 375.761455 177.493093 
L 376.843636 175.052722 
L 377.925818 174.146308 
L 379.008 174.56464 
L 380.090182 173.10044 
L 381.172364 178.748127 
L 382.254545 172.891252 
L 383.336727 176.028878 
L 384.418909 175.052722 
L 385.501091 176.168317 
L 386.583273 175.052722 
L 387.665455 174.913283 
L 388.747636 176.168317 
L 389.829818 172.891252 
L 390.912 174.425201 
L 391.994182 176.37749 
L 393.076364 175.610523 
L 394.158545 177.074746 
L 396.322909 176.726111 
L 397.405091 175.680243 
L 398.487273 175.959158 
L 398.487273 175.959158 
" clip-path="url(#p092f18be09)" style="fill: none; stroke: #d62728; stroke-width: 1.5; stroke-linecap: square"/>
   </g>
   <g id="patch_3">
    <path d="M 57.6 307.584 
L 57.6 41.472 
" style="fill: none; stroke: #000000; stroke-width: 0.8; stroke-linejoin: miter; stroke-linecap: square"/>
   </g>
   <g id="patch_4">
    <path d="M 414.72 307.584 
L 414.72 41.472 
" style="fill: none; stroke: #000000; stroke-width: 0.8; stroke-linejoin: miter; stroke-linecap: square"/>
   </g>
   <g id="patch_5">
    <path d="M 57.6 307.584 
L 414.72 307.584 
" style="fill: none; stroke: #000000; stroke-width: 0.8; stroke-linejoin: miter; stroke-linecap: square"/>
   </g>
   <g id="patch_6">
    <path d="M 57.6 41.472 
L 414.72 41.472 
" style="fill: none; stroke: #000000; stroke-width: 0.8; stroke-linejoin: miter; stroke-linecap: square"/>
   </g>
   <g id="text_14">
    <!-- veil7 -->
    <g transform="translate(221.765625 35.472) scale(0.12 -0.12)">
     <defs>
      <path id="DejaVuSans-76" d="M 191 3500 
L 800 3500 
L 1894 563 
L 2988 3500 
L 3597 3500 
L 2284 0 
L 1503 0 
L 191 3500 
z
" transform="scale(0.015625)"/>
      <path id="DejaVuSans-65" d="M 3597 1894 
L 3597 1613 
L 953 1613 
Q 991 1019 1311 708 
Q 1631 397 2203 397 
Q 2534 397 2845 478 
Q 3156 559 3463 722 
L 3463 178 
Q 3153 47 2828 -22 
Q 2503 -91 2169 -91 
Q 1331 -91 842 396 
Q 353 884 353 1716 
Q 353 2575 817 3079 
Q 1281 3584 2069 3584 
Q 2775 3584 3186 3129 
Q 3597 2675 3597 1894 
z
M 3022 2063 
Q 3016 2534 2758 2815 
Q 2500 3097 2075 3097 
Q 1594 3097 1305 2825 
Q 1016 2553 972 2059 
L 3022 2063 
z
" transform="scale(0.015625)"/>
      <path id="DejaVuSans-69" d="M 603 3500 
L 1178 3500 
L 1178 0 
L 603 0 
L 603 3500 
z
M 603 4863 
L 1178 4863 
L 1178 4134 
L 603 4134 
L 603 4863 
z
" transform="scale(0.015625)"/>
      <path id="DejaVuSans-6c" d="M 603 4863 
L 1178 4863 
L 1178 0 
L 603 0 
L 603 4863 
z
" transform="scale(0.015625)"/>
      <path id="DejaVuSans-37" d="M 525 4666 
L 3525 4666 
L 3525 4397 
L 1831 0 
L 1172 0 
L 2766 4134 
L 525 4134 
L 525 4666 
z
" transform="scale(0.015625)"/>
     </defs>
     <use xlink:href="#DejaVuSans-76"/>
     <use xlink:href="#DejaVuSans-65" transform="translate(59.179688 0)"/>
     <use xlink:href="#DejaVuSans-69" transform="translate(120.703125 0)"/>
     <use xlink:href="#DejaVuSans-6c" transform="translate(148.486328 0)"/>
     <use xlink:href="#DejaVuSans-37" transform="translate(176.269531 0)"/>
    </g>
   </g>
   <g id="legend_1">
    <g id="patch_7">
     <path d="M 316.259063 302.584 
L 407.72 302.584 
Q 409.72 302.584 409.72 300.584 
L 409.72 212.40275 
Q 409.72 210.40275 407.72 210.40275 
L 316.259063 210.40275 
Q 314.259063 210.40275 314.259063 212.40275 
L 314.259063 300.584 
Q 314.259063 302.584 316.259063 302.584 
z
" style="fill: #ffffff; opacity: 0.8; stroke: #cccccc; stroke-linejoin: miter"/>
    </g>
    <g id="line2d_18">
     <path d="M 318.259063 218.501187 
L 328.259063 218.501187 
L 338.259063 218.501187 
" style="fill: none; stroke: #1f77b4; stroke-width: 1.5; stroke-linecap: square"/>
    </g>
    <g id="text_15">
     <!-- train -->
     <g transform="translate(346.259063 222.001187) scale(0.1 -0.1)">
      <defs>
       <path id="DejaVuSans-74" d="M 1172 4494 
L 1172 3500 
L 2356 3500 
L 2356 3053 
L 1172 3053 
L 1172 1153 
Q 1172 725 1289 603 
Q 1406 481 1766 481 
L 2356 481 
L 2356 0 
L 1766 0 
Q 1100 0 847 248 
Q 594 497 594 1153 
L 594 3053 
L 172 3053 
L 172 3500 
L 594 3500 
L 594 4494 
L 1172 4494 
z
" transform="scale(0.015625)"/>
       <path id="DejaVuSans-72" d="M 2631 2963 
Q 2534 3019 2420 3045 
Q 2306 3072 2169 3072 
Q 1681 3072 1420 2755 
Q 1159 2438 1159 1844 
L 1159 0 
L 581 0 
L 581 3500 
L 1159 3500 
L 1159 2956 
Q 1341 3275 1631 3429 
Q 1922 3584 2338 3584 
Q 2397 3584 2469 3576 
Q 2541 3569 2628 3553 
L 2631 2963 
z
" transform="scale(0.015625)"/>
       <path id="DejaVuSans-61" d="M 2194 1759 
Q 1497 1759 1228 1600 
Q 959 1441 959 1056 
Q 959 750 1161 570 
Q 1363 391 1709 391 
Q 2188 391 2477 730 
Q 2766 1069 2766 1631 
L 2766 1759 
L 2194 1759 
z
M 3341 1997 
L 3341 0 
L 2766 0 
L 2766 531 
Q 2569 213 2275 61 
Q 1981 -91 1556 -91 
Q 1019 -91 701 211 
Q 384 513 384 1019 
Q 384 1609 779 1909 
Q 1175 2209 1959 2209 
L 2766 2209 
L 2766 2266 
Q 2766 2663 2505 2880 
Q 2244 3097 1772 3097 
Q 1472 3097 1187 3025 
Q 903 2953 641 2809 
L 641 3341 
Q 956 3463 1253 3523 
Q 1550 3584 1831 3584 
Q 2591 3584 2966 3190 
Q 3341 2797 3341 1997 
z
" transform="scale(0.015625)"/>
       <path id="DejaVuSans-6e" d="M 3513 2113 
L 3513 0 
L 2938 0 
L 2938 2094 
Q 2938 2591 2744 2837 
Q 2550 3084 2163 3084 
Q 1697 3084 1428 2787 
Q 1159 2491 1159 1978 
L 1159 0 
L 581 0 
L 581 3500 
L 1159 3500 
L 1159 2956 
Q 1366 3272 1645 3428 
Q 1925 3584 2291 3584 
Q 2894 3584 3203 3211 
Q 3513 2838 3513 2113 
z
" transform="scale(0.015625)"/>
      </defs>
      <use xlink:href="#DejaVuSans-74"/>
      <use xlink:href="#DejaVuSans-72" transform="translate(39.208984 0)"/>
      <use xlink:href="#DejaVuSans-61" transform="translate(80.322266 0)"/>
      <use xlink:href="#DejaVuSans-69" transform="translate(141.601562 0)"/>
      <use xlink:href="#DejaVuSans-6e" transform="translate(169.384766 0)"/>
     </g>
    </g>
    <g id="line2d_19">
     <path d="M 318.259063 233.179312 
L 328.259063 233.179312 
L 338.259063 233.179312 
" style="fill: none; stroke: #ff7f0e; stroke-width: 1.5; stroke-linecap: square"/>
    </g>
    <g id="text_16">
     <!-- train_class0 -->
     <g transform="translate(346.259063 236.679312) scale(0.1 -0.1)">
      <defs>
       <path id="DejaVuSans-5f" d="M 3263 -1063 
L 3263 -1509 
L -63 -1509 
L -63 -1063 
L 3263 -1063 
z
" transform="scale(0.015625)"/>
       <path id="DejaVuSans-63" d="M 3122 3366 
L 3122 2828 
Q 2878 2963 2633 3030 
Q 2388 3097 2138 3097 
Q 1578 3097 1268 2742 
Q 959 2388 959 1747 
Q 959 1106 1268 751 
Q 1578 397 2138 397 
Q 2388 397 2633 464 
Q 2878 531 3122 666 
L 3122 134 
Q 2881 22 2623 -34 
Q 2366 -91 2075 -91 
Q 1284 -91 818 406 
Q 353 903 353 1747 
Q 353 2603 823 3093 
Q 1294 3584 2113 3584 
Q 2378 3584 2631 3529 
Q 2884 3475 3122 3366 
z
" transform="scale(0.015625)"/>
       <path id="DejaVuSans-73" d="M 2834 3397 
L 2834 2853 
Q 2591 2978 2328 3040 
Q 2066 3103 1784 3103 
Q 1356 3103 1142 2972 
Q 928 2841 928 2578 
Q 928 2378 1081 2264 
Q 1234 2150 1697 2047 
L 1894 2003 
Q 2506 1872 2764 1633 
Q 3022 1394 3022 966 
Q 3022 478 2636 193 
Q 2250 -91 1575 -91 
Q 1294 -91 989 -36 
Q 684 19 347 128 
L 347 722 
Q 666 556 975 473 
Q 1284 391 1588 391 
Q 1994 391 2212 530 
Q 2431 669 2431 922 
Q 2431 1156 2273 1281 
Q 2116 1406 1581 1522 
L 1381 1569 
Q 847 1681 609 1914 
Q 372 2147 372 2553 
Q 372 3047 722 3315 
Q 1072 3584 1716 3584 
Q 2034 3584 2315 3537 
Q 2597 3491 2834 3397 
z
" transform="scale(0.015625)"/>
      </defs>
      <use xlink:href="#DejaVuSans-74"/>
      <use xlink:href="#DejaVuSans-72" transform="translate(39.208984 0)"/>
      <use xlink:href="#DejaVuSans-61" transform="translate(80.322266 0)"/>
      <use xlink:href="#DejaVuSans-69" transform="translate(141.601562 0)"/>
      <use xlink:href="#DejaVuSans-6e" transform="translate(169.384766 0)"/>
      <use xlink:href="#DejaVuSans-5f" transform="translate(232.763672 0)"/>
      <use xlink:href="#DejaVuSans-63" transform="translate(282.763672 0)"/>
      <use xlink:href="#DejaVuSans-6c" transform="translate(337.744141 0)"/>
      <use xlink:href="#DejaVuSans-61" transform="translate(365.527344 0)"/>
      <use xlink:href="#DejaVuSans-73" transform="translate(426.806641 0)"/>
      <use xlink:href="#DejaVuSans-73" transform="translate(478.90625 0)"/>
      <use xlink:href="#DejaVuSans-30" transform="translate(531.005859 0)"/>
     </g>
    </g>
    <g id="line2d_20">
     <path d="M 318.259063 248.135562 
L 328.259063 248.135562 
L 338.259063 248.135562 
" style="fill: none; stroke: #2ca02c; stroke-width: 1.5; stroke-linecap: square"/>
    </g>
    <g id="text_17">
     <!-- train_class1 -->
     <g transform="translate(346.259063 251.635562) scale(0.1 -0.1)">
      <use xlink:href="#DejaVuSans-74"/>
      <use xlink:href="#DejaVuSans-72" transform="translate(39.208984 0)"/>
      <use xlink:href="#DejaVuSans-61" transform="translate(80.322266 0)"/>
      <use xlink:href="#DejaVuSans-69" transform="translate(141.601562 0)"/>
      <use xlink:href="#DejaVuSans-6e" transform="translate(169.384766 0)"/>
      <use xlink:href="#DejaVuSans-5f" transform="translate(232.763672 0)"/>
      <use xlink:href="#DejaVuSans-63" transform="translate(282.763672 0)"/>
      <use xlink:href="#DejaVuSans-6c" transform="translate(337.744141 0)"/>
      <use xlink:href="#DejaVuSans-61" transform="translate(365.527344 0)"/>
      <use xlink:href="#DejaVuSans-73" transform="translate(426.806641 0)"/>
      <use xlink:href="#DejaVuSans-73" transform="translate(478.90625 0)"/>
      <use xlink:href="#DejaVuSans-31" transform="translate(531.005859 0)"/>
     </g>
    </g>
    <g id="line2d_21">
     <path d="M 318.259063 263.091812 
L 328.259063 263.091812 
L 338.259063 263.091812 
" style="fill: none; stroke: #d62728; stroke-width: 1.5; stroke-linecap: square"/>
    </g>
    <g id="text_18">
     <!-- test -->
     <g transform="translate(346.259063 266.591812) scale(0.1 -0.1)">
      <use xlink:href="#DejaVuSans-74"/>
      <use xlink:href="#DejaVuSans-65" transform="translate(39.208984 0)"/>
      <use xlink:href="#DejaVuSans-73" transform="translate(100.732422 0)"/>
      <use xlink:href="#DejaVuSans-74" transform="translate(152.832031 0)"/>
     </g>
    </g>
    <g id="line2d_22">
     <path d="M 318.259063 277.769937 
L 328.259063 277.769937 
L 338.259063 277.769937 
" style="fill: none; stroke: #9467bd; stroke-width: 1.5; stroke-linecap: square"/>
    </g>
    <g id="text_19">
     <!-- test_class0 -->
     <g transform="translate(346.259063 281.269937) scale(0.1 -0.1)">
      <use xlink:href="#DejaVuSans-74"/>
      <use xlink:href="#DejaVuSans-65" transform="translate(39.208984 0)"/>
      <use xlink:href="#DejaVuSans-73" transform="translate(100.732422 0)"/>
      <use xlink:href="#DejaVuSans-74" transform="translate(152.832031 0)"/>
      <use xlink:href="#DejaVuSans-5f" transform="translate(192.041016 0)"/>
      <use xlink:href="#DejaVuSans-63" transform="translate(242.041016 0)"/>
      <use xlink:href="#DejaVuSans-6c" transform="translate(297.021484 0)"/>
      <use xlink:href="#DejaVuSans-61" transform="translate(324.804688 0)"/>
      <use xlink:href="#DejaVuSans-73" transform="translate(386.083984 0)"/>
      <use xlink:href="#DejaVuSans-73" transform="translate(438.183594 0)"/>
      <use xlink:href="#DejaVuSans-30" transform="translate(490.283203 0)"/>
     </g>
    </g>
    <g id="line2d_23">
     <path d="M 318.259063 292.726187 
L 328.259063 292.726187 
L 338.259063 292.726187 
" style="fill: none; stroke: #8c564b; stroke-width: 1.5; stroke-linecap: square"/>
    </g>
    <g id="text_20">
     <!-- test_class1 -->
     <g transform="translate(346.259063 296.226187) scale(0.1 -0.1)">
      <use xlink:href="#DejaVuSans-74"/>
      <use xlink:href="#DejaVuSans-65" transform="translate(39.208984 0)"/>
      <use xlink:href="#DejaVuSans-73" transform="translate(100.732422 0)"/>
      <use xlink:href="#DejaVuSans-74" transform="translate(152.832031 0)"/>
      <use xlink:href="#DejaVuSans-5f" transform="translate(192.041016 0)"/>
      <use xlink:href="#DejaVuSans-63" transform="translate(242.041016 0)"/>
      <use xlink:href="#DejaVuSans-6c" transform="translate(297.021484 0)"/>
      <use xlink:href="#DejaVuSans-61" transform="translate(324.804688 0)"/>
      <use xlink:href="#DejaVuSans-73" transform="translate(386.083984 0)"/>
      <use xlink:href="#DejaVuSans-73" transform="translate(438.183594 0)"/>
      <use xlink:href="#DejaVuSans-31" transform="translate(490.283203 0)"/>
     </g>
    </g>
   </g>
   <g id="line2d_24">
    <path d="M 73.832727 133.984938 
L 74.914909 130.138603 
L 75.997091 64.944762 
L 77.079273 107.073855 
L 78.161455 79.065512 
L 79.243636 56.440116 
L 80.325818 63.049468 
L 81.408 95.548886 
L 82.490182 79.031864 
L 83.572364 59.546615 
L 84.654545 57.698763 
L 85.736727 60.467003 
L 86.818909 55.972576 
L 87.901091 63.557254 
L 88.983273 58.472635 
L 90.065455 109.603178 
L 91.147636 59.337621 
L 92.229818 63.787343 
L 93.312 63.418862 
L 94.394182 71.815742 
L 95.476364 87.885048 
L 96.558545 58.673026 
L 97.640727 68.973384 
L 98.722909 81.897127 
L 99.805091 80.852636 
L 100.887273 75.866298 
L 101.969455 77.331231 
L 103.051636 88.689067 
L 104.133818 74.038883 
L 105.216 116.886984 
L 106.298182 119.060334 
L 107.380364 77.413428 
L 108.462545 102.30067 
L 109.544727 114.088149 
L 110.626909 83.975024 
L 111.709091 93.759922 
L 112.791273 100.895432 
L 113.873455 74.705303 
L 114.955636 60.115068 
L 116.037818 78.087015 
L 117.12 88.356014 
L 118.202182 101.951773 
L 119.284364 103.263682 
L 120.366545 88.361415 
L 121.448727 104.39046 
L 122.530909 97.372725 
L 123.613091 88.040825 
L 124.695273 83.828882 
L 125.777455 92.686884 
L 126.859636 111.453648 
L 127.941818 60.57236 
L 129.024 103.128208 
L 131.188364 63.398455 
L 132.270545 62.679266 
L 133.352727 127.1864 
L 134.434909 132.064389 
L 135.517091 76.745228 
L 136.599273 72.004898 
L 137.681455 86.770179 
L 138.763636 62.271811 
L 139.845818 67.659964 
L 140.928 68.852273 
L 142.010182 57.322262 
L 143.092364 64.766888 
L 144.174545 76.045908 
L 145.256727 72.67039 
L 146.338909 85.742758 
L 147.421091 62.929703 
L 148.503273 97.327871 
L 149.585455 62.31472 
L 150.667636 63.385244 
L 151.749818 71.217486 
L 152.832 76.792161 
L 153.914182 67.090718 
L 154.996364 61.360609 
L 156.078545 58.664019 
L 157.160727 73.960231 
L 158.242909 135.568409 
L 159.325091 65.244811 
L 160.407273 68.648665 
L 161.489455 67.937496 
L 162.571636 70.534519 
L 163.653818 72.742698 
L 164.736 80.032474 
L 165.818182 82.453747 
L 166.900364 66.316412 
L 167.982545 55.888733 
L 169.064727 66.294718 
L 170.146909 79.735837 
L 171.229091 66.99302 
L 172.311273 67.163504 
L 173.393455 104.5568 
L 174.475636 78.945552 
L 175.557818 141.603951 
L 176.64 61.766314 
L 177.722182 70.794291 
L 178.804364 69.283023 
L 179.886545 73.112481 
L 180.968727 100.916423 
L 182.050909 65.201408 
L 183.133091 53.568 
L 184.215273 88.990088 
L 185.297455 82.072279 
L 186.379636 81.587833 
L 187.461818 82.559897 
L 188.544 96.113644 
L 189.626182 62.102045 
L 190.708364 71.004722 
L 191.790545 72.068169 
L 192.872727 68.288577 
L 193.954909 78.649918 
L 195.037091 79.590862 
L 196.119273 61.699422 
L 197.201455 81.644446 
L 198.283636 78.049851 
L 199.365818 79.58778 
L 200.448 73.454525 
L 201.530182 129.714122 
L 202.612364 114.778611 
L 204.776727 64.73704 
L 205.858909 104.23012 
L 206.941091 86.923323 
L 208.023273 64.345473 
L 209.105455 81.949507 
L 210.187636 79.494242 
L 211.269818 64.24634 
L 212.352 107.393412 
L 213.434182 71.748521 
L 214.516364 62.639439 
L 215.598545 78.183919 
L 216.680727 89.114551 
L 217.762909 72.063965 
L 219.927273 95.308892 
L 221.009455 77.666139 
L 222.091636 101.739293 
L 223.173818 67.028479 
L 224.256 65.884016 
L 225.338182 96.707367 
L 226.420364 94.912523 
L 227.502545 61.619814 
L 228.584727 88.913067 
L 229.666909 70.110022 
L 230.749091 99.590584 
L 231.831273 69.233711 
L 232.913455 87.34547 
L 233.995636 87.188736 
L 235.077818 93.17507 
L 236.16 84.972492 
L 237.242182 71.110602 
L 239.406545 94.258371 
L 240.488727 101.295272 
L 241.570909 88.459426 
L 242.653091 119.091259 
L 243.735273 84.520183 
L 245.899636 141.545812 
L 246.981818 92.313211 
L 248.064 78.739042 
L 249.146182 84.002239 
L 250.228364 110.239481 
L 251.310545 109.742632 
L 252.392727 112.555246 
L 253.474909 136.646488 
L 254.557091 115.084121 
L 255.639273 108.555125 
L 256.721455 179.599491 
L 257.803636 165.999042 
L 258.885818 186.683055 
L 259.968 140.329281 
L 261.050182 165.169619 
L 262.132364 120.029301 
L 263.214545 178.380618 
L 264.296727 128.960792 
L 265.378909 139.682385 
L 266.461091 140.884883 
L 267.543273 137.620916 
L 268.625455 201.025703 
L 269.707636 133.574969 
L 270.789818 133.705506 
L 271.872 165.6732 
L 272.954182 180.202924 
L 274.036364 140.831426 
L 275.118545 186.083999 
L 276.200727 153.441955 
L 277.282909 145.302588 
L 278.365091 124.306041 
L 279.447273 135.919236 
L 280.529455 181.011895 
L 281.611636 169.815214 
L 282.693818 133.82165 
L 283.776 164.239192 
L 284.858182 167.964534 
L 285.940364 134.572676 
L 287.022545 189.955819 
L 288.104727 143.620896 
L 289.186909 164.331608 
L 290.269091 179.959878 
L 291.351273 182.377066 
L 292.433455 124.510501 
L 293.515636 163.580043 
L 294.597818 156.3954 
L 295.68 206.063157 
L 296.762182 176.566564 
L 297.844364 138.466512 
L 298.926545 159.145028 
L 300.008727 171.316907 
L 301.090909 160.225142 
L 302.173091 158.161818 
L 303.255273 165.890064 
L 304.337455 156.21576 
L 305.419636 164.618745 
L 306.501818 159.743554 
L 307.584 177.131494 
L 308.666182 155.93935 
L 309.748364 171.853687 
L 310.830545 167.755435 
L 311.912727 169.781282 
L 312.994909 163.947342 
L 314.077091 153.506288 
L 316.241455 203.56921 
L 317.323636 184.902746 
L 318.405818 143.024061 
L 319.488 159.050832 
L 320.570182 129.730191 
L 321.652364 161.173732 
L 322.734545 171.756634 
L 323.816727 172.913664 
L 324.898909 149.486478 
L 325.981091 128.988321 
L 327.063273 136.347532 
L 328.145455 200.953941 
L 329.227636 144.304416 
L 330.309818 176.370661 
L 331.392 180.217945 
L 332.474182 169.070187 
L 333.556364 152.974594 
L 334.638545 157.31118 
L 335.720727 141.089478 
L 336.802909 140.075717 
L 337.885091 167.390859 
L 338.967273 156.747289 
L 340.049455 182.2228 
L 341.131636 165.495146 
L 342.213818 175.064137 
L 343.296 196.022825 
L 344.378182 181.898021 
L 345.460364 154.600167 
L 346.542545 145.66278 
L 347.624727 196.243332 
L 348.706909 179.121171 
L 349.789091 164.605998 
L 350.871273 153.169914 
L 351.953455 174.151769 
L 353.035636 146.632795 
L 354.117818 161.55861 
L 355.2 183.603636 
L 356.282182 156.583882 
L 357.364364 169.994016 
L 358.446545 167.235187 
L 359.528727 156.848323 
L 360.610909 128.916222 
L 361.693091 186.852941 
L 362.775273 155.979806 
L 363.857455 151.374755 
L 366.021818 186.966601 
L 367.104 166.687649 
L 368.186182 187.816881 
L 369.268364 161.318572 
L 370.350545 150.97303 
L 371.432727 182.173518 
L 372.514909 165.689493 
L 373.597091 177.948207 
L 374.679273 151.890545 
L 375.761455 186.682023 
L 376.843636 164.391423 
L 377.925818 159.194894 
L 379.008 157.855605 
L 380.090182 168.992478 
L 381.172364 159.991402 
L 382.254545 171.210068 
L 383.336727 169.952888 
L 384.418909 167.239107 
L 385.501091 167.647729 
L 386.583273 176.374947 
L 387.665455 174.839225 
L 388.747636 167.17048 
L 389.829818 166.386808 
L 390.912 177.261126 
L 391.994182 169.071579 
L 393.076364 177.755147 
L 394.158545 159.922071 
L 395.240727 167.33272 
L 396.322909 172.365303 
L 397.405091 178.099892 
L 398.487273 172.089657 
L 398.487273 172.089657 
" clip-path="url(#p092f18be09)" style="fill: none; stroke: #9467bd; stroke-width: 1.5; stroke-linecap: square"/>
   </g>
   <g id="line2d_25">
    <path d="M 73.832727 217.654449 
L 74.914909 221.650081 
L 75.997091 287.429936 
L 77.079273 246.293188 
L 78.161455 272.102428 
L 79.243636 294.873593 
L 80.325818 288.470809 
L 81.408 252.648064 
L 83.572364 291.403004 
L 84.654545 291.742049 
L 85.736727 290.540677 
L 86.818909 294.72572 
L 87.901091 287.628971 
L 88.983273 292.086861 
L 90.065455 241.836677 
L 91.147636 289.55807 
L 92.229818 284.513094 
L 93.312 286.227214 
L 94.394182 278.360297 
L 95.476364 263.145852 
L 96.558545 290.803326 
L 97.640727 280.372057 
L 98.722909 268.297385 
L 99.805091 270.159575 
L 100.887273 274.438092 
L 101.969455 272.363579 
L 103.051636 261.721587 
L 104.133818 277.661244 
L 105.216 233.468583 
L 106.298182 233.753273 
L 107.380364 270.646079 
L 108.462545 249.126689 
L 109.544727 233.637114 
L 110.626909 263.785424 
L 111.709091 255.092684 
L 112.791273 250.936244 
L 113.873455 275.694003 
L 114.955636 292.035531 
L 116.037818 272.094173 
L 117.12 262.154039 
L 118.202182 247.988286 
L 119.284364 246.248787 
L 120.366545 260.484005 
L 121.448727 245.483129 
L 122.530909 250.529836 
L 123.613091 260.204791 
L 124.695273 267.018439 
L 125.777455 259.476248 
L 126.859636 236.662777 
L 127.941818 289.530406 
L 129.024 247.627319 
L 130.106182 265.904322 
L 131.188364 288.670701 
L 132.270545 288.545039 
L 133.352727 224.546816 
L 134.434909 223.011019 
L 135.517091 274.293216 
L 136.599273 278.990811 
L 137.681455 265.11477 
L 138.763636 288.25033 
L 139.845818 283.770953 
L 140.928 284.691345 
L 142.010182 293.639345 
L 143.092364 285.861186 
L 144.174545 274.543393 
L 145.256727 279.384046 
L 146.338909 267.095329 
L 147.421091 288.239577 
L 148.503273 250.855771 
L 149.585455 288.335448 
L 150.667636 287.510645 
L 151.749818 278.929066 
L 152.832 272.804949 
L 153.914182 281.471297 
L 154.996364 287.795661 
L 156.078545 290.804148 
L 157.160727 275.88714 
L 158.242909 214.94553 
L 159.325091 284.304287 
L 160.407273 281.709701 
L 161.489455 282.40463 
L 162.571636 280.382236 
L 163.653818 277.459979 
L 164.736 268.684594 
L 165.818182 268.23001 
L 166.900364 283.652879 
L 167.982545 292.43682 
L 170.146909 270.96778 
L 171.229091 281.166888 
L 172.311273 281.292959 
L 173.393455 244.981642 
L 174.475636 268.826124 
L 175.557818 206.992132 
L 176.64 286.242734 
L 177.722182 278.440248 
L 178.804364 279.844552 
L 179.886545 276.535911 
L 180.968727 248.855995 
L 182.050909 284.607524 
L 183.133091 295.488 
L 184.215273 256.973402 
L 185.297455 267.248921 
L 186.379636 269.276567 
L 187.461818 269.158956 
L 188.544 255.118702 
L 189.626182 286.890493 
L 190.708364 275.453775 
L 191.790545 275.954077 
L 192.872727 282.3883 
L 193.954909 270.467699 
L 195.037091 270.539306 
L 196.119273 287.030381 
L 197.201455 271.891578 
L 198.283636 271.673686 
L 199.365818 269.700072 
L 200.448 277.754015 
L 201.530182 223.311052 
L 202.612364 235.49125 
L 204.776727 282.78476 
L 205.858909 244.504867 
L 206.941091 263.253771 
L 208.023273 286.256149 
L 209.105455 266.118447 
L 210.187636 269.952059 
L 211.269818 285.127683 
L 212.352 243.156363 
L 213.434182 279.481255 
L 214.516364 286.987988 
L 215.598545 271.291656 
L 216.680727 265.588541 
L 217.762909 276.992849 
L 218.845091 265.372953 
L 219.927273 254.953395 
L 221.009455 273.19346 
L 222.091636 252.10286 
L 223.173818 280.427812 
L 224.256 283.484497 
L 225.338182 254.169764 
L 226.420364 257.147705 
L 227.502545 286.936285 
L 228.584727 261.505464 
L 229.666909 278.549474 
L 230.749091 254.468073 
L 231.831273 282.655497 
L 232.913455 264.526553 
L 233.995636 266.052289 
L 235.077818 261.559238 
L 236.16 265.411598 
L 237.242182 278.60709 
L 238.324364 265.340465 
L 239.406545 255.877654 
L 240.488727 250.21967 
L 241.570909 261.127228 
L 242.653091 228.590571 
L 243.735273 264.24411 
L 244.817455 240.776608 
L 245.899636 204.992595 
L 246.981818 259.676968 
L 248.064 268.77058 
L 249.146182 265.951753 
L 250.228364 241.181542 
L 251.310545 241.178351 
L 252.392727 240.450216 
L 253.474909 217.066792 
L 254.557091 236.20099 
L 255.639273 239.711892 
L 256.721455 173.946321 
L 257.803636 190.185594 
L 258.885818 164.477929 
L 259.968 207.595745 
L 261.050182 184.672515 
L 262.132364 232.498823 
L 263.214545 176.752839 
L 264.296727 225.876671 
L 265.378909 212.871748 
L 266.461091 213.859574 
L 267.543273 211.636388 
L 268.625455 148.927824 
L 269.707636 221.934749 
L 270.789818 219.285414 
L 271.872 186.402853 
L 272.954182 172.477962 
L 274.036364 214.715815 
L 275.118545 166.546505 
L 276.200727 204.885256 
L 277.282909 204.542867 
L 278.365091 223.218165 
L 279.447273 211.051649 
L 280.529455 168.665874 
L 281.611636 177.947766 
L 282.693818 218.457891 
L 283.776 188.728344 
L 284.858182 184.197389 
L 285.940364 215.040789 
L 287.022545 164.200637 
L 288.104727 207.358324 
L 290.269091 173.38059 
L 291.351273 169.76258 
L 292.433455 217.844217 
L 293.515636 181.214111 
L 294.597818 199.653911 
L 295.68 145.481869 
L 296.762182 177.647785 
L 297.844364 213.289729 
L 298.926545 191.763298 
L 300.008727 180.424006 
L 301.090909 190.667497 
L 302.173091 191.392072 
L 303.255273 188.951289 
L 304.337455 197.562497 
L 305.419636 178.992183 
L 306.501818 194.008903 
L 307.584 173.1527 
L 308.666182 191.975082 
L 309.748364 177.201939 
L 310.830545 183.982777 
L 311.912727 181.430541 
L 312.994909 180.113784 
L 314.077091 193.944211 
L 315.159273 167.764203 
L 316.241455 150.138356 
L 317.323636 167.184962 
L 318.405818 209.280668 
L 319.488 189.575242 
L 320.570182 215.031333 
L 321.652364 185.676663 
L 322.734545 178.77787 
L 323.816727 178.303298 
L 325.981091 221.86093 
L 327.063273 215.773831 
L 328.145455 147.811549 
L 329.227636 209.166282 
L 330.309818 178.762886 
L 331.392 173.002414 
L 332.474182 180.759004 
L 333.556364 198.759556 
L 334.638545 195.793424 
L 335.720727 205.59623 
L 336.802909 208.144045 
L 337.885091 178.564881 
L 338.967273 189.599277 
L 340.049455 168.368863 
L 341.131636 187.416839 
L 343.296 156.369203 
L 344.378182 167.469914 
L 345.460364 192.025442 
L 346.542545 209.800184 
L 347.624727 153.268853 
L 348.706909 171.769844 
L 349.789091 186.733969 
L 350.871273 203.736095 
L 351.953455 175.727161 
L 353.035636 200.937723 
L 354.117818 183.160955 
L 355.2 167.324326 
L 356.282182 191.844141 
L 357.364364 177.200233 
L 358.446545 180.836115 
L 359.528727 193.485131 
L 360.610909 221.359264 
L 361.693091 159.249353 
L 362.775273 189.540524 
L 363.857455 197.00617 
L 364.939636 177.834419 
L 366.021818 162.673151 
L 367.104 185.116565 
L 368.186182 158.510385 
L 369.268364 193.271843 
L 370.350545 194.861322 
L 371.432727 165.276607 
L 372.514909 182.582858 
L 373.597091 169.975763 
L 374.679273 196.747407 
L 375.761455 166.881278 
L 376.843636 186.618415 
L 379.008 191.273975 
L 380.090182 177.483809 
L 381.172364 194.5791 
L 382.254545 174.561828 
L 383.336727 181.71767 
L 384.418909 181.669368 
L 385.501091 182.357512 
L 386.583273 173.580533 
L 387.665455 173.928861 
L 388.747636 184.741052 
L 390.912 171.533052 
L 391.994182 182.756544 
L 393.076364 173.668879 
L 394.158545 191.975591 
L 395.240727 186.341026 
L 397.405091 170.720341 
L 398.487273 181.336674 
L 398.487273 181.336674 
" clip-path="url(#p092f18be09)" style="fill: none; stroke: #8c564b; stroke-width: 1.5; stroke-linecap: square"/>
   </g>
  </g>
 </g>
 <defs>
  <clipPath id="p092f18be09">
   <rect x="57.6" y="41.472" width="357.12" height="266.112"/>
  </clipPath>
 </defs>
</svg>
